<svg version="1.1" xmlns="http://www.w3.org/2000/svg" viewBox="0 0 996.128200886408 579.0859976526472" >
  <!-- svg-source:excalidraw -->

  <defs>
    <style class="style-fonts">
      @font-face {
        font-family: "Virgil";
        src: url("https://excalidraw.com/Virgil.woff2");
      }
      @font-face {
        font-family: "Cascadia";
        src: url("https://excalidraw.com/Cascadia.woff2");
      }
    </style>
  </defs>
  <rect x="0" y="0" width="996.128200886408" height="579.0859976526472" fill="#ffffff"></rect><g mask="url(#mask-zKfnpA4zdaBilFLodw-YP)" stroke-linecap="round"><g transform="translate(94.60029352485071 256.3464865168007) rotate(0 113.07731245343825 1.6414632754344893)"><path d="M0 0 C37.69 0.55, 188.46 2.74, 226.15 3.28 M0 0 C37.69 0.55, 188.46 2.74, 226.15 3.28" stroke="#000000" stroke-width="1" fill="none"></path></g><g transform="translate(94.60029352485071 256.3464865168007) rotate(0 113.07731245343825 1.6414632754344893)"><path d="M226.15 3.28 L212.47 9.42 L212.65 -3.25 L226.15 3.28" stroke="none" stroke-width="0" fill="#000000" fill-rule="evenodd"></path><path d="M226.15 3.28 C221.8 5.24, 217.44 7.19, 212.47 9.42 M226.15 3.28 C220.93 5.63, 215.71 7.97, 212.47 9.42 M212.47 9.42 C212.52 5.74, 212.58 2.06, 212.65 -3.25 M212.47 9.42 C212.53 5.38, 212.59 1.34, 212.65 -3.25 M212.65 -3.25 C216.83 -1.23, 221 0.79, 226.15 3.28 M212.65 -3.25 C216.15 -1.56, 219.65 0.14, 226.15 3.28 M226.15 3.28 C226.15 3.28, 226.15 3.28, 226.15 3.28 M226.15 3.28 C226.15 3.28, 226.15 3.28, 226.15 3.28" stroke="#000000" stroke-width="1" fill="none"></path></g></g><mask id="mask-zKfnpA4zdaBilFLodw-YP"><rect x="0" y="0" fill="#fff" width="420.7549184317272" height="359.6294130676697"></rect><rect x="131.63765846852334" y="237.98794979223476" fill="#000" width="152.07989501953125" height="40" opacity="1"></rect></mask><g transform="translate(131.63765846852334 237.98794979223476) rotate(0 76.03994750976562 20.000000000000455)"><text x="76.03994750976562" y="0" font-family="Virgil, Segoe UI Emoji" font-size="16px" fill="#000000" text-anchor="middle" style="white-space: pre;" direction="ltr" dominant-baseline="text-before-edge">install EasyApp </text><text x="76.03994750976562" y="20" font-family="Virgil, Segoe UI Emoji" font-size="16px" fill="#000000" text-anchor="middle" style="white-space: pre;" direction="ltr" dominant-baseline="text-before-edge">Promise</text></g><g stroke-linecap="round" transform="translate(36.228878655064364 206.25106586938728) rotate(0 15.73398466964585 15.65994634762228)"><path d="M1.13 8.93 C1.13 8.93, 1.13 8.93, 1.13 8.93 M1.13 8.93 C1.13 8.93, 1.13 8.93, 1.13 8.93 M-0.54 15.41 C2.2 13.55, 4.3 12.02, 10.44 3.31 M1.46 15.64 C3.07 12.33, 6.6 9.01, 10.93 3.77 M0.52 19.86 C5.86 15.56, 12.06 9.72, 19.37 -0.25 M1.35 19.36 C5.5 15.36, 9.55 10.61, 19.77 0.51 M3.74 22.08 C6.38 17.49, 10.47 15.23, 23.85 4.45 M4.4 24.07 C8.99 19.05, 13.58 12.82, 23.24 2.44 M7.87 25.22 C10.87 22.81, 15.71 19.57, 25.62 3.98 M6.28 27.79 C10.75 22.43, 14.55 17.88, 25.46 5.06 M10.23 29.98 C12.79 22.82, 20.47 18.92, 28.98 8.44 M8.8 28.61 C16.1 21.31, 23.15 13.86, 29.57 7.84 M15.17 31.02 C16.72 25.99, 23.43 18.98, 29.24 11.09 M14.16 30.49 C18.87 25.36, 23.77 19.68, 30.63 12.28 M16.95 31.42 C22.66 30.55, 21.75 27.06, 30.88 14.8 M18.08 31.87 C24.42 25.38, 29.35 20.83, 31 17.51" stroke="#7950f2" stroke-width="0.5" fill="none"></path><path d="M9.45 1.62 C12.26 -0.22, 15.84 -1.46, 19.02 -0.57 C22.21 0.31, 26.57 4.14, 28.58 6.96 C30.59 9.77, 31.17 13.13, 31.08 16.31 C30.99 19.48, 30.24 23.55, 28.03 26.02 C25.81 28.49, 21.22 30.78, 17.81 31.11 C14.4 31.45, 10.41 29.97, 7.56 28.03 C4.71 26.08, 1.73 22.69, 0.71 19.45 C-0.31 16.2, -0.49 11.85, 1.45 8.57 C3.38 5.28, 10.11 1.01, 12.32 -0.24 C14.53 -1.49, 14.66 0.65, 14.69 1.05 M15.3 -1.46 C18.95 -1.85, 24.8 1.39, 27.36 3.81 C29.91 6.23, 30.32 9.48, 30.65 13.04 C30.97 16.6, 30.85 22.2, 29.3 25.16 C27.75 28.12, 24.33 30.13, 21.35 30.81 C18.37 31.49, 14.55 30.74, 11.43 29.24 C8.3 27.74, 4.31 24.77, 2.61 21.83 C0.91 18.89, 0.7 14.78, 1.22 11.61 C1.75 8.44, 3.18 4.56, 5.76 2.81 C8.33 1.06, 15.08 1.56, 16.67 1.1 C18.26 0.64, 15.21 0.04, 15.27 0.07" stroke="#495057" stroke-width="1" fill="none"></path></g><g stroke-linecap="round"><g transform="translate(51.888825002686644 237.57095856463457) rotate(0 -0.688890708218139 22.562083072679798)" fill-rule="evenodd"><path d="M-10.54 0.11 C-10.54 0.11, -10.54 0.11, -10.54 0.11 M-10.54 0.11 C-10.54 0.11, -10.54 0.11, -10.54 0.11 M-15.06 13.32 C-13.32 8.76, -10.43 5.26, -5.92 -0.45 M-15.84 11.66 C-12.19 8.45, -10.43 5.61, -4.89 0.27 M-18.3 21.94 C-12.61 14.07, -3.86 2.69, 0.8 0.87 M-17.76 21.07 C-13.43 14.41, -8.91 8.78, 0.1 -0.8 M-21.56 31.79 C-12.88 19.92, -3.73 8.22, 8.62 -1.1 M-20.54 30.17 C-11.19 19.41, -1.32 7.08, 7.68 -3.28 M-19.93 36.31 C-11.66 25.48, -4.13 14.52, 9.86 -0.34 M-21.01 35.57 C-13.24 28.75, -7.67 21, 10.8 0.53 M-22.33 43.14 C-11.61 35.81, -6.5 25.46, 12.32 5.17 M-20.47 41.99 C-8.62 28.75, 1.09 16.7, 11.41 5.55 M-15.52 45.59 C-10.26 35.08, -5.06 28.73, 12.17 7.58 M-17.55 44.58 C-5.07 30.14, 6.36 16.26, 13.77 8.6 M-11.69 45.7 C-2.82 35.52, 7.88 23.28, 18.67 9.21 M-13.58 46.15 C-5.87 38.83, -0.92 30.86, 16.55 11.52 M-9.79 46.87 C-1.96 37.24, 8.36 26.75, 17.69 16.15 M-10.61 49.03 C-1.83 39.57, 4.76 30.59, 18.62 15.14 M-6.79 49.99 C1.14 38.46, 10.55 31.68, 18.4 19.48 M-4.39 49.43 C1.86 40.85, 10.7 31.09, 18.96 19.53 M2.63 47.21 C9.34 41.12, 14.91 33.18, 21.55 25.17 M1.22 48.44 C9.08 38.72, 14.55 31.1, 21.3 24.33 M8.83 47.87 C12.97 42.45, 15.65 34.92, 21.59 28.59 M7.28 46.15 C9.95 42.42, 13.99 37.77, 23.41 28.3 M14.28 47.03 C13.94 43.89, 18.24 39.92, 23.81 34.08 M12.66 45.82 C16.01 43.67, 18.18 40.54, 22.97 34.91" stroke="#7950f2" stroke-width="0.5" fill="none"></path><path d="M-1.12 -0.68 C0.66 -0.66, 7.19 -6.04, 10.85 0.98 C14.5 8, 26.29 34.56, 20.8 41.41 C15.32 48.26, -16.99 49.04, -22.06 42.06 C-27.13 35.09, -13.25 6.41, -9.62 -0.43 C-5.98 -7.28, -1.79 0.86, -0.26 0.98 M0.49 1.57 C2.14 1.2, 6.86 -7.46, 10.11 -0.63 C13.36 6.2, 25.42 35.22, 19.99 42.54 C14.57 49.87, -17.33 50.46, -22.44 43.33 C-27.55 36.19, -14.56 6.88, -10.66 -0.27 C-6.75 -7.42, -0.76 0.57, 1.01 0.45" stroke="#495057" stroke-width="1" fill="none"></path></g></g><mask></mask><g stroke-linecap="round"><g transform="translate(332.11229843265664 76.65331363976748) rotate(0 0 246.21634200643985)"><path d="M0 0 C0 82.07, 0 410.36, 0 492.43 M0 0 C0 82.07, 0 410.36, 0 492.43" stroke="#000000" stroke-width="1" fill="none"></path></g></g><mask></mask><g transform="translate(10 297.19182292555524) rotate(0 34.49181416158808 20.246447535221705)"><text x="34.49181416158808" y="0" font-family="Virgil, Segoe UI Emoji" font-size="16.197158028177277px" fill="#5f3dc4" text-anchor="middle" style="white-space: pre;" direction="ltr" dominant-baseline="text-before-edge">Platform</text><text x="34.49181416158808" y="20.2464475352216" font-family="Virgil, Segoe UI Emoji" font-size="16.197158028177277px" fill="#5f3dc4" text-anchor="middle" style="white-space: pre;" direction="ltr" dominant-baseline="text-before-edge">Engineer</text></g><g stroke-linecap="round" transform="translate(615.7499232007164 26.667078933986886) rotate(358.92972393214535 3.768036411032398 19.555950473086796)"><path d="M1.88 0 L5.65 0 L7.07 0.47 L7.54 1.88 L7.54 37.23 L7.07 38.64 L5.65 39.11 L0.47 38.64 L0 37.23 L0 1.88 L0.47 0.47 L1.88 0" stroke="none" stroke-width="0" fill="#7950f2"></path><path d="M1.88 0 M1.88 0 C2.64 0, 3.41 0, 5.65 0 M1.88 0 C2.94 0, 4.01 0, 5.65 0 M5.65 0 C6.91 0, 7.54 0.63, 7.54 1.88 M5.65 0 C6.91 0, 7.54 0.63, 7.54 1.88 M7.54 1.88 C7.54 10.51, 7.54 19.14, 7.54 37.23 M7.54 1.88 C7.54 14.93, 7.54 27.97, 7.54 37.23 M7.54 37.23 C7.54 38.48, 6.91 39.11, 5.65 39.11 M7.54 37.23 C7.54 38.48, 6.91 39.11, 5.65 39.11 M5.65 39.11 C4.33 39.11, 3 39.11, 1.88 39.11 M5.65 39.11 C4.85 39.11, 4.05 39.11, 1.88 39.11 M1.88 39.11 C0.63 39.11, 0 38.48, 0 37.23 M1.88 39.11 C0.63 39.11, 0 38.48, 0 37.23 M0 37.23 C0 26.75, 0 16.27, 0 1.88 M0 37.23 C0 29.09, 0 20.95, 0 1.88 M0 1.88 C0 0.63, 0.63 0, 1.88 0 M0 1.88 C0 0.63, 0.63 0, 1.88 0" stroke="transparent" stroke-width="1" fill="none"></path></g><g stroke-linecap="round" transform="translate(629.7865626340023 21.6720660105957) rotate(40.41727686562419 3.768036411032398 24.785791502693428)"><path d="M1.88 0 L5.65 0 L7.07 0.47 L7.54 1.88 L7.54 47.69 L7.07 49.1 L5.65 49.57 L0.47 49.1 L0 47.69 L0 1.88 L0.47 0.47 L1.88 0" stroke="none" stroke-width="0" fill="#7950f2"></path><path d="M1.88 0 M1.88 0 C2.81 0, 3.73 0, 5.65 0 M1.88 0 C3.35 0, 4.82 0, 5.65 0 M5.65 0 C6.91 0, 7.54 0.63, 7.54 1.88 M5.65 0 C6.91 0, 7.54 0.63, 7.54 1.88 M7.54 1.88 C7.54 18.62, 7.54 35.36, 7.54 47.69 M7.54 1.88 C7.54 16.18, 7.54 30.47, 7.54 47.69 M7.54 47.69 C7.54 48.94, 6.91 49.57, 5.65 49.57 M7.54 47.69 C7.54 48.94, 6.91 49.57, 5.65 49.57 M5.65 49.57 C4.66 49.57, 3.68 49.57, 1.88 49.57 M5.65 49.57 C4.72 49.57, 3.79 49.57, 1.88 49.57 M1.88 49.57 C0.63 49.57, 0 48.94, 0 47.69 M1.88 49.57 C0.63 49.57, 0 48.94, 0 47.69 M0 47.69 C0 36.42, 0 25.16, 0 1.88 M0 47.69 C0 36.49, 0 25.3, 0 1.88 M0 1.88 C0 0.63, 0.63 0, 1.88 0 M0 1.88 C0 0.63, 0.63 0, 1.88 0" stroke="transparent" stroke-width="1" fill="none"></path></g><g stroke-linecap="round" transform="translate(638.429086898857 40.22708201860132) rotate(139.22073182693399 3.768036411032398 14.147647249566944)"><path d="M1.88 0 L5.65 0 L7.07 0.47 L7.54 1.88 L7.54 26.41 L7.07 27.82 L5.65 28.3 L0.47 27.82 L0 26.41 L0 1.88 L0.47 0.47 L1.88 0" stroke="none" stroke-width="0" fill="#7950f2"></path><path d="M1.88 0 M1.88 0 C3.32 0, 4.76 0, 5.65 0 M1.88 0 C3.09 0, 4.3 0, 5.65 0 M5.65 0 C6.91 0, 7.54 0.63, 7.54 1.88 M5.65 0 C6.91 0, 7.54 0.63, 7.54 1.88 M7.54 1.88 C7.54 7.92, 7.54 13.95, 7.54 26.41 M7.54 1.88 C7.54 9.22, 7.54 16.55, 7.54 26.41 M7.54 26.41 C7.54 27.67, 6.91 28.3, 5.65 28.3 M7.54 26.41 C7.54 27.67, 6.91 28.3, 5.65 28.3 M5.65 28.3 C4.9 28.3, 4.14 28.3, 1.88 28.3 M5.65 28.3 C4.72 28.3, 3.79 28.3, 1.88 28.3 M1.88 28.3 C0.63 28.3, 0 27.67, 0 26.41 M1.88 28.3 C0.63 28.3, 0 27.67, 0 26.41 M0 26.41 C0 19.61, 0 12.82, 0 1.88 M0 26.41 C0 18.82, 0 11.24, 0 1.88 M0 1.88 C0 0.63, 0.63 0, 1.88 0 M0 1.88 C0 0.63, 0.63 0, 1.88 0" stroke="transparent" stroke-width="1" fill="none"></path></g><g stroke-linecap="round" transform="translate(614.8825783476428 24.7125580306556) rotate(358.1310915065084 4.2070221584956755 4.569555668486828)"><path d="M8.41 4.57 C8.41 4.83, 8.39 5.1, 8.35 5.36 C8.31 5.62, 8.24 5.88, 8.16 6.13 C8.08 6.38, 7.97 6.63, 7.85 6.85 C7.73 7.08, 7.59 7.3, 7.43 7.51 C7.27 7.71, 7.1 7.9, 6.91 8.07 C6.72 8.24, 6.52 8.39, 6.31 8.53 C6.1 8.66, 5.87 8.77, 5.65 8.86 C5.42 8.95, 5.18 9.02, 4.94 9.07 C4.7 9.12, 4.45 9.14, 4.21 9.14 C3.96 9.14, 3.72 9.12, 3.48 9.07 C3.24 9.02, 3 8.95, 2.77 8.86 C2.54 8.77, 2.31 8.66, 2.1 8.53 C1.89 8.39, 1.69 8.24, 1.5 8.07 C1.32 7.9, 1.14 7.71, 0.98 7.51 C0.83 7.3, 0.69 7.08, 0.56 6.85 C0.44 6.63, 0.34 6.38, 0.25 6.13 C0.17 5.88, 0.11 5.62, 0.06 5.36 C0.02 5.1, 0 4.83, 0 4.57 C0 4.31, 0.02 4.04, 0.06 3.78 C0.11 3.52, 0.17 3.26, 0.25 3.01 C0.34 2.76, 0.44 2.51, 0.56 2.28 C0.69 2.06, 0.83 1.83, 0.98 1.63 C1.14 1.43, 1.32 1.24, 1.5 1.07 C1.69 0.9, 1.89 0.74, 2.1 0.61 C2.31 0.48, 2.54 0.37, 2.77 0.28 C3 0.19, 3.24 0.12, 3.48 0.07 C3.72 0.02, 3.96 0, 4.21 0 C4.45 0, 4.7 0.02, 4.94 0.07 C5.18 0.12, 5.42 0.19, 5.65 0.28 C5.87 0.37, 6.1 0.48, 6.31 0.61 C6.52 0.74, 6.72 0.9, 6.91 1.07 C7.1 1.24, 7.27 1.43, 7.43 1.63 C7.59 1.83, 7.73 2.06, 7.85 2.28 C7.97 2.51, 8.08 2.76, 8.16 3.01 C8.24 3.26, 8.31 3.52, 8.35 3.78 C8.39 4.04, 8.4 4.44, 8.41 4.57 C8.42 4.7, 8.42 4.44, 8.41 4.57" stroke="none" stroke-width="0" fill="#7950f2"></path><path d="M8.41 4.57 C8.41 4.83, 8.39 5.1, 8.35 5.36 C8.31 5.62, 8.24 5.88, 8.16 6.13 C8.08 6.38, 7.97 6.63, 7.85 6.85 C7.73 7.08, 7.59 7.3, 7.43 7.51 C7.27 7.71, 7.1 7.9, 6.91 8.07 C6.72 8.24, 6.52 8.39, 6.31 8.53 C6.1 8.66, 5.87 8.77, 5.65 8.86 C5.42 8.95, 5.18 9.02, 4.94 9.07 C4.7 9.12, 4.45 9.14, 4.21 9.14 C3.96 9.14, 3.72 9.12, 3.48 9.07 C3.24 9.02, 3 8.95, 2.77 8.86 C2.54 8.77, 2.31 8.66, 2.1 8.53 C1.89 8.39, 1.69 8.24, 1.5 8.07 C1.32 7.9, 1.14 7.71, 0.98 7.51 C0.83 7.3, 0.69 7.08, 0.56 6.85 C0.44 6.63, 0.34 6.38, 0.25 6.13 C0.17 5.88, 0.11 5.62, 0.06 5.36 C0.02 5.1, 0 4.83, 0 4.57 C0 4.31, 0.02 4.04, 0.06 3.78 C0.11 3.52, 0.17 3.26, 0.25 3.01 C0.34 2.76, 0.44 2.51, 0.56 2.28 C0.69 2.06, 0.83 1.83, 0.98 1.63 C1.14 1.43, 1.32 1.24, 1.5 1.07 C1.69 0.9, 1.89 0.74, 2.1 0.61 C2.31 0.48, 2.54 0.37, 2.77 0.28 C3 0.19, 3.24 0.12, 3.48 0.07 C3.72 0.02, 3.96 0, 4.21 0 C4.45 0, 4.7 0.02, 4.94 0.07 C5.18 0.12, 5.42 0.19, 5.65 0.28 C5.87 0.37, 6.1 0.48, 6.31 0.61 C6.52 0.74, 6.72 0.9, 6.91 1.07 C7.1 1.24, 7.27 1.43, 7.43 1.63 C7.59 1.83, 7.73 2.06, 7.85 2.28 C7.97 2.51, 8.08 2.76, 8.16 3.01 C8.24 3.26, 8.31 3.52, 8.35 3.78 C8.39 4.04, 8.4 4.44, 8.41 4.57 C8.42 4.7, 8.42 4.44, 8.41 4.57" stroke="#5f3dc4" stroke-width="1" fill="none"></path></g><g stroke-linecap="round" transform="translate(615.843214374661 56.960594666278666) rotate(358.1310915065084 4.2070221584956755 4.569555668486828)"><path d="M8.41 4.57 C8.41 4.83, 8.39 5.1, 8.35 5.36 C8.31 5.62, 8.24 5.88, 8.16 6.13 C8.08 6.38, 7.97 6.63, 7.85 6.85 C7.73 7.08, 7.59 7.3, 7.43 7.51 C7.27 7.71, 7.1 7.9, 6.91 8.07 C6.72 8.24, 6.52 8.39, 6.31 8.53 C6.1 8.66, 5.87 8.77, 5.65 8.86 C5.42 8.95, 5.18 9.02, 4.94 9.07 C4.7 9.12, 4.45 9.14, 4.21 9.14 C3.96 9.14, 3.72 9.12, 3.48 9.07 C3.24 9.02, 3 8.95, 2.77 8.86 C2.54 8.77, 2.31 8.66, 2.1 8.53 C1.89 8.39, 1.69 8.24, 1.5 8.07 C1.32 7.9, 1.14 7.71, 0.98 7.51 C0.83 7.3, 0.69 7.08, 0.56 6.85 C0.44 6.63, 0.34 6.38, 0.25 6.13 C0.17 5.88, 0.11 5.62, 0.06 5.36 C0.02 5.1, 0 4.83, 0 4.57 C0 4.31, 0.02 4.04, 0.06 3.78 C0.11 3.52, 0.17 3.26, 0.25 3.01 C0.34 2.76, 0.44 2.51, 0.56 2.28 C0.69 2.06, 0.83 1.83, 0.98 1.63 C1.14 1.43, 1.32 1.24, 1.5 1.07 C1.69 0.9, 1.89 0.74, 2.1 0.61 C2.31 0.48, 2.54 0.37, 2.77 0.28 C3 0.19, 3.24 0.12, 3.48 0.07 C3.72 0.02, 3.96 0, 4.21 0 C4.45 0, 4.7 0.02, 4.94 0.07 C5.18 0.12, 5.42 0.19, 5.65 0.28 C5.87 0.37, 6.1 0.48, 6.31 0.61 C6.52 0.74, 6.72 0.9, 6.91 1.07 C7.1 1.24, 7.27 1.43, 7.43 1.63 C7.59 1.83, 7.73 2.06, 7.85 2.28 C7.97 2.51, 8.08 2.76, 8.16 3.01 C8.24 3.26, 8.31 3.52, 8.35 3.78 C8.39 4.04, 8.4 4.44, 8.41 4.57 C8.42 4.7, 8.42 4.44, 8.41 4.57" stroke="none" stroke-width="0" fill="#7950f2"></path><path d="M8.41 4.57 C8.41 4.83, 8.39 5.1, 8.35 5.36 C8.31 5.62, 8.24 5.88, 8.16 6.13 C8.08 6.38, 7.97 6.63, 7.85 6.85 C7.73 7.08, 7.59 7.3, 7.43 7.51 C7.27 7.71, 7.1 7.9, 6.91 8.07 C6.72 8.24, 6.52 8.39, 6.31 8.53 C6.1 8.66, 5.87 8.77, 5.65 8.86 C5.42 8.95, 5.18 9.02, 4.94 9.07 C4.7 9.12, 4.45 9.14, 4.21 9.14 C3.96 9.14, 3.72 9.12, 3.48 9.07 C3.24 9.02, 3 8.95, 2.77 8.86 C2.54 8.77, 2.31 8.66, 2.1 8.53 C1.89 8.39, 1.69 8.24, 1.5 8.07 C1.32 7.9, 1.14 7.71, 0.98 7.51 C0.83 7.3, 0.69 7.08, 0.56 6.85 C0.44 6.63, 0.34 6.38, 0.25 6.13 C0.17 5.88, 0.11 5.62, 0.06 5.36 C0.02 5.1, 0 4.83, 0 4.57 C0 4.31, 0.02 4.04, 0.06 3.78 C0.11 3.52, 0.17 3.26, 0.25 3.01 C0.34 2.76, 0.44 2.51, 0.56 2.28 C0.69 2.06, 0.83 1.83, 0.98 1.63 C1.14 1.43, 1.32 1.24, 1.5 1.07 C1.69 0.9, 1.89 0.74, 2.1 0.61 C2.31 0.48, 2.54 0.37, 2.77 0.28 C3 0.19, 3.24 0.12, 3.48 0.07 C3.72 0.02, 3.96 0, 4.21 0 C4.45 0, 4.7 0.02, 4.94 0.07 C5.18 0.12, 5.42 0.19, 5.65 0.28 C5.87 0.37, 6.1 0.48, 6.31 0.61 C6.52 0.74, 6.72 0.9, 6.91 1.07 C7.1 1.24, 7.27 1.43, 7.43 1.63 C7.59 1.83, 7.73 2.06, 7.85 2.28 C7.97 2.51, 8.08 2.76, 8.16 3.01 C8.24 3.26, 8.31 3.52, 8.35 3.78 C8.39 4.04, 8.4 4.44, 8.41 4.57 C8.42 4.7, 8.42 4.44, 8.41 4.57" stroke="#5f3dc4" stroke-width="1" fill="none"></path></g><g stroke-linecap="round" transform="translate(630.3806087498057 42.86270576055813) rotate(358.1310915065084 4.171683969157698 4.569555668486828)"><path d="M8.34 4.57 C8.34 4.83, 8.32 5.1, 8.28 5.36 C8.24 5.62, 8.17 5.88, 8.09 6.13 C8.01 6.38, 7.91 6.63, 7.78 6.85 C7.66 7.08, 7.52 7.3, 7.37 7.51 C7.21 7.71, 7.04 7.9, 6.85 8.07 C6.67 8.24, 6.47 8.39, 6.26 8.53 C6.05 8.66, 5.83 8.77, 5.6 8.86 C5.37 8.95, 5.13 9.02, 4.9 9.07 C4.66 9.12, 4.41 9.14, 4.17 9.14 C3.93 9.14, 3.69 9.12, 3.45 9.07 C3.21 9.02, 2.97 8.95, 2.74 8.86 C2.52 8.77, 2.29 8.66, 2.09 8.53 C1.88 8.39, 1.68 8.24, 1.49 8.07 C1.31 7.9, 1.13 7.71, 0.98 7.51 C0.82 7.3, 0.68 7.08, 0.56 6.85 C0.44 6.63, 0.33 6.38, 0.25 6.13 C0.17 5.88, 0.11 5.62, 0.06 5.36 C0.02 5.1, 0 4.83, 0 4.57 C0 4.31, 0.02 4.04, 0.06 3.78 C0.11 3.52, 0.17 3.26, 0.25 3.01 C0.33 2.76, 0.44 2.51, 0.56 2.28 C0.68 2.06, 0.82 1.83, 0.98 1.63 C1.13 1.43, 1.31 1.24, 1.49 1.07 C1.68 0.9, 1.88 0.74, 2.09 0.61 C2.29 0.48, 2.52 0.37, 2.74 0.28 C2.97 0.19, 3.21 0.12, 3.45 0.07 C3.69 0.02, 3.93 0, 4.17 0 C4.41 0, 4.66 0.02, 4.9 0.07 C5.13 0.12, 5.37 0.19, 5.6 0.28 C5.83 0.37, 6.05 0.48, 6.26 0.61 C6.47 0.74, 6.67 0.9, 6.85 1.07 C7.04 1.24, 7.21 1.43, 7.37 1.63 C7.52 1.83, 7.66 2.06, 7.78 2.28 C7.91 2.51, 8.01 2.76, 8.09 3.01 C8.17 3.26, 8.24 3.52, 8.28 3.78 C8.32 4.04, 8.33 4.44, 8.34 4.57 C8.35 4.7, 8.35 4.44, 8.34 4.57" stroke="none" stroke-width="0" fill="#7950f2"></path><path d="M8.34 4.57 C8.34 4.83, 8.32 5.1, 8.28 5.36 C8.24 5.62, 8.17 5.88, 8.09 6.13 C8.01 6.38, 7.91 6.63, 7.78 6.85 C7.66 7.08, 7.52 7.3, 7.37 7.51 C7.21 7.71, 7.04 7.9, 6.85 8.07 C6.67 8.24, 6.47 8.39, 6.26 8.53 C6.05 8.66, 5.83 8.77, 5.6 8.86 C5.37 8.95, 5.13 9.02, 4.9 9.07 C4.66 9.12, 4.41 9.14, 4.17 9.14 C3.93 9.14, 3.69 9.12, 3.45 9.07 C3.21 9.02, 2.97 8.95, 2.74 8.86 C2.52 8.77, 2.29 8.66, 2.09 8.53 C1.88 8.39, 1.68 8.24, 1.49 8.07 C1.31 7.9, 1.13 7.71, 0.98 7.51 C0.82 7.3, 0.68 7.08, 0.56 6.85 C0.44 6.63, 0.33 6.38, 0.25 6.13 C0.17 5.88, 0.11 5.62, 0.06 5.36 C0.02 5.1, 0 4.83, 0 4.57 C0 4.31, 0.02 4.04, 0.06 3.78 C0.11 3.52, 0.17 3.26, 0.25 3.01 C0.33 2.76, 0.44 2.51, 0.56 2.28 C0.68 2.06, 0.82 1.83, 0.98 1.63 C1.13 1.43, 1.31 1.24, 1.49 1.07 C1.68 0.9, 1.88 0.74, 2.09 0.61 C2.29 0.48, 2.52 0.37, 2.74 0.28 C2.97 0.19, 3.21 0.12, 3.45 0.07 C3.69 0.02, 3.93 0, 4.17 0 C4.41 0, 4.66 0.02, 4.9 0.07 C5.13 0.12, 5.37 0.19, 5.6 0.28 C5.83 0.37, 6.05 0.48, 6.26 0.61 C6.47 0.74, 6.67 0.9, 6.85 1.07 C7.04 1.24, 7.21 1.43, 7.37 1.63 C7.52 1.83, 7.66 2.06, 7.78 2.28 C7.91 2.51, 8.01 2.76, 8.09 3.01 C8.17 3.26, 8.24 3.52, 8.28 3.78 C8.32 4.04, 8.33 4.44, 8.34 4.57 C8.35 4.7, 8.35 4.44, 8.34 4.57" stroke="#5f3dc4" stroke-width="1" fill="none"></path></g><g stroke-linecap="round" transform="translate(643.5265134173247 25.513809128161483) rotate(358.1310915065084 4.2070221584956755 4.569555668486828)"><path d="M8.41 4.57 C8.41 4.83, 8.39 5.1, 8.35 5.36 C8.31 5.62, 8.24 5.88, 8.16 6.13 C8.08 6.38, 7.97 6.63, 7.85 6.85 C7.73 7.08, 7.59 7.3, 7.43 7.51 C7.27 7.71, 7.1 7.9, 6.91 8.07 C6.72 8.24, 6.52 8.39, 6.31 8.53 C6.1 8.66, 5.87 8.77, 5.65 8.86 C5.42 8.95, 5.18 9.02, 4.94 9.07 C4.7 9.12, 4.45 9.14, 4.21 9.14 C3.96 9.14, 3.72 9.12, 3.48 9.07 C3.24 9.02, 3 8.95, 2.77 8.86 C2.54 8.77, 2.31 8.66, 2.1 8.53 C1.89 8.39, 1.69 8.24, 1.5 8.07 C1.32 7.9, 1.14 7.71, 0.98 7.51 C0.83 7.3, 0.69 7.08, 0.56 6.85 C0.44 6.63, 0.34 6.38, 0.25 6.13 C0.17 5.88, 0.11 5.62, 0.06 5.36 C0.02 5.1, 0 4.83, 0 4.57 C0 4.31, 0.02 4.04, 0.06 3.78 C0.11 3.52, 0.17 3.26, 0.25 3.01 C0.34 2.76, 0.44 2.51, 0.56 2.28 C0.69 2.06, 0.83 1.83, 0.98 1.63 C1.14 1.43, 1.32 1.24, 1.5 1.07 C1.69 0.9, 1.89 0.74, 2.1 0.61 C2.31 0.48, 2.54 0.37, 2.77 0.28 C3 0.19, 3.24 0.12, 3.48 0.07 C3.72 0.02, 3.96 0, 4.21 0 C4.45 0, 4.7 0.02, 4.94 0.07 C5.18 0.12, 5.42 0.19, 5.65 0.28 C5.87 0.37, 6.1 0.48, 6.31 0.61 C6.52 0.74, 6.72 0.9, 6.91 1.07 C7.1 1.24, 7.27 1.43, 7.43 1.63 C7.59 1.83, 7.73 2.06, 7.85 2.28 C7.97 2.51, 8.08 2.76, 8.16 3.01 C8.24 3.26, 8.31 3.52, 8.35 3.78 C8.39 4.04, 8.4 4.44, 8.41 4.57 C8.42 4.7, 8.42 4.44, 8.41 4.57" stroke="none" stroke-width="0" fill="#7950f2"></path><path d="M8.41 4.57 C8.41 4.83, 8.39 5.1, 8.35 5.36 C8.31 5.62, 8.24 5.88, 8.16 6.13 C8.08 6.38, 7.97 6.63, 7.85 6.85 C7.73 7.08, 7.59 7.3, 7.43 7.51 C7.27 7.71, 7.1 7.9, 6.91 8.07 C6.72 8.24, 6.52 8.39, 6.31 8.53 C6.1 8.66, 5.87 8.77, 5.65 8.86 C5.42 8.95, 5.18 9.02, 4.94 9.07 C4.7 9.12, 4.45 9.14, 4.21 9.14 C3.96 9.14, 3.72 9.12, 3.48 9.07 C3.24 9.02, 3 8.95, 2.77 8.86 C2.54 8.77, 2.31 8.66, 2.1 8.53 C1.89 8.39, 1.69 8.24, 1.5 8.07 C1.32 7.9, 1.14 7.71, 0.98 7.51 C0.83 7.3, 0.69 7.08, 0.56 6.85 C0.44 6.63, 0.34 6.38, 0.25 6.13 C0.17 5.88, 0.11 5.62, 0.06 5.36 C0.02 5.1, 0 4.83, 0 4.57 C0 4.31, 0.02 4.04, 0.06 3.78 C0.11 3.52, 0.17 3.26, 0.25 3.01 C0.34 2.76, 0.44 2.51, 0.56 2.28 C0.69 2.06, 0.83 1.83, 0.98 1.63 C1.14 1.43, 1.32 1.24, 1.5 1.07 C1.69 0.9, 1.89 0.74, 2.1 0.61 C2.31 0.48, 2.54 0.37, 2.77 0.28 C3 0.19, 3.24 0.12, 3.48 0.07 C3.72 0.02, 3.96 0, 4.21 0 C4.45 0, 4.7 0.02, 4.94 0.07 C5.18 0.12, 5.42 0.19, 5.65 0.28 C5.87 0.37, 6.1 0.48, 6.31 0.61 C6.52 0.74, 6.72 0.9, 6.91 1.07 C7.1 1.24, 7.27 1.43, 7.43 1.63 C7.59 1.83, 7.73 2.06, 7.85 2.28 C7.97 2.51, 8.08 2.76, 8.16 3.01 C8.24 3.26, 8.31 3.52, 8.35 3.78 C8.39 4.04, 8.4 4.44, 8.41 4.57 C8.42 4.7, 8.42 4.44, 8.41 4.57" stroke="#5f3dc4" stroke-width="1" fill="none"></path></g><g stroke-linecap="round" transform="translate(645.577522999493 58.527174155832654) rotate(358.1310915065084 4.2070221584956755 4.569555668486828)"><path d="M8.41 4.57 C8.41 4.83, 8.39 5.1, 8.35 5.36 C8.31 5.62, 8.24 5.88, 8.16 6.13 C8.08 6.38, 7.97 6.63, 7.85 6.85 C7.73 7.08, 7.59 7.3, 7.43 7.51 C7.27 7.71, 7.1 7.9, 6.91 8.07 C6.72 8.24, 6.52 8.39, 6.31 8.53 C6.1 8.66, 5.87 8.77, 5.65 8.86 C5.42 8.95, 5.18 9.02, 4.94 9.07 C4.7 9.12, 4.45 9.14, 4.21 9.14 C3.96 9.14, 3.72 9.12, 3.48 9.07 C3.24 9.02, 3 8.95, 2.77 8.86 C2.54 8.77, 2.31 8.66, 2.1 8.53 C1.89 8.39, 1.69 8.24, 1.5 8.07 C1.32 7.9, 1.14 7.71, 0.98 7.51 C0.83 7.3, 0.69 7.08, 0.56 6.85 C0.44 6.63, 0.34 6.38, 0.25 6.13 C0.17 5.88, 0.11 5.62, 0.06 5.36 C0.02 5.1, 0 4.83, 0 4.57 C0 4.31, 0.02 4.04, 0.06 3.78 C0.11 3.52, 0.17 3.26, 0.25 3.01 C0.34 2.76, 0.44 2.51, 0.56 2.28 C0.69 2.06, 0.83 1.83, 0.98 1.63 C1.14 1.43, 1.32 1.24, 1.5 1.07 C1.69 0.9, 1.89 0.74, 2.1 0.61 C2.31 0.48, 2.54 0.37, 2.77 0.28 C3 0.19, 3.24 0.12, 3.48 0.07 C3.72 0.02, 3.96 0, 4.21 0 C4.45 0, 4.7 0.02, 4.94 0.07 C5.18 0.12, 5.42 0.19, 5.65 0.28 C5.87 0.37, 6.1 0.48, 6.31 0.61 C6.52 0.74, 6.72 0.9, 6.91 1.07 C7.1 1.24, 7.27 1.43, 7.43 1.63 C7.59 1.83, 7.73 2.06, 7.85 2.28 C7.97 2.51, 8.08 2.76, 8.16 3.01 C8.24 3.26, 8.31 3.52, 8.35 3.78 C8.39 4.04, 8.4 4.44, 8.41 4.57 C8.42 4.7, 8.42 4.44, 8.41 4.57" stroke="none" stroke-width="0" fill="#7950f2"></path><path d="M8.41 4.57 C8.41 4.83, 8.39 5.1, 8.35 5.36 C8.31 5.62, 8.24 5.88, 8.16 6.13 C8.08 6.38, 7.97 6.63, 7.85 6.85 C7.73 7.08, 7.59 7.3, 7.43 7.51 C7.27 7.71, 7.1 7.9, 6.91 8.07 C6.72 8.24, 6.52 8.39, 6.31 8.53 C6.1 8.66, 5.87 8.77, 5.65 8.86 C5.42 8.95, 5.18 9.02, 4.94 9.07 C4.7 9.12, 4.45 9.14, 4.21 9.14 C3.96 9.14, 3.72 9.12, 3.48 9.07 C3.24 9.02, 3 8.95, 2.77 8.86 C2.54 8.77, 2.31 8.66, 2.1 8.53 C1.89 8.39, 1.69 8.24, 1.5 8.07 C1.32 7.9, 1.14 7.71, 0.98 7.51 C0.83 7.3, 0.69 7.08, 0.56 6.85 C0.44 6.63, 0.34 6.38, 0.25 6.13 C0.17 5.88, 0.11 5.62, 0.06 5.36 C0.02 5.1, 0 4.83, 0 4.57 C0 4.31, 0.02 4.04, 0.06 3.78 C0.11 3.52, 0.17 3.26, 0.25 3.01 C0.34 2.76, 0.44 2.51, 0.56 2.28 C0.69 2.06, 0.83 1.83, 0.98 1.63 C1.14 1.43, 1.32 1.24, 1.5 1.07 C1.69 0.9, 1.89 0.74, 2.1 0.61 C2.31 0.48, 2.54 0.37, 2.77 0.28 C3 0.19, 3.24 0.12, 3.48 0.07 C3.72 0.02, 3.96 0, 4.21 0 C4.45 0, 4.7 0.02, 4.94 0.07 C5.18 0.12, 5.42 0.19, 5.65 0.28 C5.87 0.37, 6.1 0.48, 6.31 0.61 C6.52 0.74, 6.72 0.9, 6.91 1.07 C7.1 1.24, 7.27 1.43, 7.43 1.63 C7.59 1.83, 7.73 2.06, 7.85 2.28 C7.97 2.51, 8.08 2.76, 8.16 3.01 C8.24 3.26, 8.31 3.52, 8.35 3.78 C8.39 4.04, 8.4 4.44, 8.41 4.57 C8.42 4.7, 8.42 4.44, 8.41 4.57" stroke="#5f3dc4" stroke-width="1" fill="none"></path></g><g stroke-linecap="round" transform="translate(615.4455547327385 25.85477014931439) rotate(358.1310915065084 3.729693932574918 3.867855952340051)"><path d="M7.46 3.87 C7.46 4.09, 7.44 4.32, 7.4 4.54 C7.37 4.76, 7.31 4.98, 7.23 5.19 C7.16 5.4, 7.07 5.61, 6.96 5.8 C6.85 6, 6.73 6.18, 6.59 6.35 C6.45 6.53, 6.29 6.69, 6.13 6.83 C5.96 6.97, 5.78 7.11, 5.59 7.22 C5.41 7.33, 5.21 7.43, 5.01 7.5 C4.8 7.58, 4.59 7.64, 4.38 7.68 C4.16 7.72, 3.95 7.74, 3.73 7.74 C3.51 7.74, 3.29 7.72, 3.08 7.68 C2.87 7.64, 2.66 7.58, 2.45 7.5 C2.25 7.43, 2.05 7.33, 1.86 7.22 C1.68 7.11, 1.5 6.97, 1.33 6.83 C1.17 6.69, 1.01 6.53, 0.87 6.35 C0.73 6.18, 0.61 6, 0.5 5.8 C0.39 5.61, 0.3 5.4, 0.22 5.19 C0.15 4.98, 0.09 4.76, 0.06 4.54 C0.02 4.32, 0 4.09, 0 3.87 C0 3.64, 0.02 3.42, 0.06 3.2 C0.09 2.98, 0.15 2.76, 0.22 2.54 C0.3 2.33, 0.39 2.13, 0.5 1.93 C0.61 1.74, 0.73 1.55, 0.87 1.38 C1.01 1.21, 1.17 1.05, 1.33 0.9 C1.5 0.76, 1.68 0.63, 1.86 0.52 C2.05 0.41, 2.25 0.31, 2.45 0.23 C2.66 0.16, 2.87 0.1, 3.08 0.06 C3.29 0.02, 3.51 0, 3.73 0 C3.95 0, 4.16 0.02, 4.38 0.06 C4.59 0.1, 4.8 0.16, 5.01 0.23 C5.21 0.31, 5.41 0.41, 5.59 0.52 C5.78 0.63, 5.96 0.76, 6.13 0.9 C6.29 1.05, 6.45 1.21, 6.59 1.38 C6.73 1.55, 6.85 1.74, 6.96 1.93 C7.07 2.13, 7.16 2.33, 7.23 2.54 C7.31 2.76, 7.37 2.98, 7.4 3.2 C7.44 3.42, 7.45 3.76, 7.46 3.87 C7.47 3.98, 7.47 3.76, 7.46 3.87" stroke="#fff" stroke-width="1" fill="none"></path></g><g stroke-linecap="round" transform="translate(616.2189047787475 58.067379198059825) rotate(358.1310915065084 3.729693932574918 3.867855952340051)"><path d="M7.46 3.87 C7.46 4.09, 7.44 4.32, 7.4 4.54 C7.37 4.76, 7.31 4.98, 7.23 5.19 C7.16 5.4, 7.07 5.61, 6.96 5.8 C6.85 6, 6.73 6.18, 6.59 6.35 C6.45 6.53, 6.29 6.69, 6.13 6.83 C5.96 6.97, 5.78 7.11, 5.59 7.22 C5.41 7.33, 5.21 7.43, 5.01 7.5 C4.8 7.58, 4.59 7.64, 4.38 7.68 C4.16 7.72, 3.95 7.74, 3.73 7.74 C3.51 7.74, 3.29 7.72, 3.08 7.68 C2.87 7.64, 2.66 7.58, 2.45 7.5 C2.25 7.43, 2.05 7.33, 1.86 7.22 C1.68 7.11, 1.5 6.97, 1.33 6.83 C1.17 6.69, 1.01 6.53, 0.87 6.35 C0.73 6.18, 0.61 6, 0.5 5.8 C0.39 5.61, 0.3 5.4, 0.22 5.19 C0.15 4.98, 0.09 4.76, 0.06 4.54 C0.02 4.32, 0 4.09, 0 3.87 C0 3.64, 0.02 3.42, 0.06 3.2 C0.09 2.98, 0.15 2.76, 0.22 2.54 C0.3 2.33, 0.39 2.13, 0.5 1.93 C0.61 1.74, 0.73 1.55, 0.87 1.38 C1.01 1.21, 1.17 1.05, 1.33 0.9 C1.5 0.76, 1.68 0.63, 1.86 0.52 C2.05 0.41, 2.25 0.31, 2.45 0.23 C2.66 0.16, 2.87 0.1, 3.08 0.06 C3.29 0.02, 3.51 0, 3.73 0 C3.95 0, 4.16 0.02, 4.38 0.06 C4.59 0.1, 4.8 0.16, 5.01 0.23 C5.21 0.31, 5.41 0.41, 5.59 0.52 C5.78 0.63, 5.96 0.76, 6.13 0.9 C6.29 1.05, 6.45 1.21, 6.59 1.38 C6.73 1.55, 6.85 1.74, 6.96 1.93 C7.07 2.13, 7.16 2.33, 7.23 2.54 C7.31 2.76, 7.37 2.98, 7.4 3.2 C7.44 3.42, 7.45 3.76, 7.46 3.87 C7.47 3.98, 7.47 3.76, 7.46 3.87" stroke="#fff" stroke-width="1" fill="none"></path></g><g stroke-linecap="round" transform="translate(630.7843841888349 43.33466178026629) rotate(358.1310915065084 3.7246862679370167 3.7725718007777687)"><path d="M7.45 3.77 C7.45 3.99, 7.43 4.21, 7.39 4.43 C7.36 4.64, 7.3 4.86, 7.22 5.06 C7.15 5.27, 7.06 5.47, 6.95 5.66 C6.84 5.85, 6.72 6.03, 6.58 6.2 C6.44 6.36, 6.28 6.52, 6.12 6.66 C5.95 6.8, 5.77 6.93, 5.59 7.04 C5.4 7.15, 5.2 7.24, 5 7.32 C4.8 7.39, 4.58 7.45, 4.37 7.49 C4.16 7.53, 3.94 7.55, 3.72 7.55 C3.51 7.55, 3.29 7.53, 3.08 7.49 C2.87 7.45, 2.65 7.39, 2.45 7.32 C2.25 7.24, 2.05 7.15, 1.86 7.04 C1.68 6.93, 1.5 6.8, 1.33 6.66 C1.17 6.52, 1.01 6.36, 0.87 6.2 C0.73 6.03, 0.61 5.85, 0.5 5.66 C0.39 5.47, 0.3 5.27, 0.22 5.06 C0.15 4.86, 0.09 4.64, 0.06 4.43 C0.02 4.21, 0 3.99, 0 3.77 C0 3.55, 0.02 3.33, 0.06 3.12 C0.09 2.9, 0.15 2.69, 0.22 2.48 C0.3 2.28, 0.39 2.08, 0.5 1.89 C0.61 1.7, 0.73 1.51, 0.87 1.35 C1.01 1.18, 1.17 1.02, 1.33 0.88 C1.5 0.74, 1.68 0.61, 1.86 0.51 C2.05 0.4, 2.25 0.3, 2.45 0.23 C2.65 0.15, 2.87 0.1, 3.08 0.06 C3.29 0.02, 3.51 0, 3.72 0 C3.94 0, 4.16 0.02, 4.37 0.06 C4.58 0.1, 4.8 0.15, 5 0.23 C5.2 0.3, 5.4 0.4, 5.59 0.51 C5.77 0.61, 5.95 0.74, 6.12 0.88 C6.28 1.02, 6.44 1.18, 6.58 1.35 C6.72 1.51, 6.84 1.7, 6.95 1.89 C7.06 2.08, 7.15 2.28, 7.22 2.48 C7.3 2.69, 7.36 2.9, 7.39 3.12 C7.43 3.33, 7.44 3.66, 7.45 3.77 C7.46 3.88, 7.46 3.66, 7.45 3.77" stroke="#fff" stroke-width="1" fill="none"></path></g><g stroke-linecap="round" transform="translate(644.3363110273091 26.41888164676766) rotate(358.1310915065084 3.3253647284176395 3.7725718007777687)"><path d="M6.65 3.77 C6.65 3.99, 6.63 4.21, 6.6 4.43 C6.57 4.64, 6.52 4.86, 6.45 5.06 C6.38 5.27, 6.3 5.47, 6.21 5.66 C6.11 5.85, 6 6.03, 5.87 6.2 C5.75 6.36, 5.61 6.52, 5.46 6.66 C5.32 6.8, 5.15 6.93, 4.99 7.04 C4.82 7.15, 4.64 7.24, 4.46 7.32 C4.28 7.39, 4.09 7.45, 3.9 7.49 C3.71 7.53, 3.52 7.55, 3.33 7.55 C3.13 7.55, 2.94 7.53, 2.75 7.49 C2.56 7.45, 2.37 7.39, 2.19 7.32 C2.01 7.24, 1.83 7.15, 1.66 7.04 C1.5 6.93, 1.34 6.8, 1.19 6.66 C1.04 6.52, 0.9 6.36, 0.78 6.2 C0.65 6.03, 0.54 5.85, 0.45 5.66 C0.35 5.47, 0.27 5.27, 0.2 5.06 C0.13 4.86, 0.08 4.64, 0.05 4.43 C0.02 4.21, 0 3.99, 0 3.77 C0 3.55, 0.02 3.33, 0.05 3.12 C0.08 2.9, 0.13 2.69, 0.2 2.48 C0.27 2.28, 0.35 2.08, 0.45 1.89 C0.54 1.7, 0.65 1.51, 0.78 1.35 C0.9 1.18, 1.04 1.02, 1.19 0.88 C1.34 0.74, 1.5 0.61, 1.66 0.51 C1.83 0.4, 2.01 0.3, 2.19 0.23 C2.37 0.15, 2.56 0.1, 2.75 0.06 C2.94 0.02, 3.13 0, 3.33 0 C3.52 0, 3.71 0.02, 3.9 0.06 C4.09 0.1, 4.28 0.15, 4.46 0.23 C4.64 0.3, 4.82 0.4, 4.99 0.51 C5.15 0.61, 5.32 0.74, 5.46 0.88 C5.61 1.02, 5.75 1.18, 5.87 1.35 C6 1.51, 6.11 1.7, 6.21 1.89 C6.3 2.08, 6.38 2.28, 6.45 2.48 C6.52 2.69, 6.57 2.9, 6.6 3.12 C6.63 3.33, 6.64 3.66, 6.65 3.77 C6.66 3.88, 6.66 3.66, 6.65 3.77" stroke="#fff" stroke-width="1" fill="none"></path></g><g stroke-linecap="round" transform="translate(646.8619036640781 59.22910646291439) rotate(358.1310915065084 2.941784745967027 3.7725718007777687)"><path d="M5.88 3.77 C5.88 3.99, 5.87 4.21, 5.84 4.43 C5.81 4.64, 5.76 4.86, 5.71 5.06 C5.65 5.27, 5.57 5.47, 5.49 5.66 C5.4 5.85, 5.3 6.03, 5.2 6.2 C5.09 6.36, 4.96 6.52, 4.83 6.66 C4.7 6.8, 4.56 6.93, 4.41 7.04 C4.27 7.15, 4.11 7.24, 3.95 7.32 C3.79 7.39, 3.62 7.45, 3.45 7.49 C3.28 7.53, 3.11 7.55, 2.94 7.55 C2.77 7.55, 2.6 7.53, 2.43 7.49 C2.26 7.45, 2.1 7.39, 1.94 7.32 C1.78 7.24, 1.62 7.15, 1.47 7.04 C1.32 6.93, 1.18 6.8, 1.05 6.66 C0.92 6.52, 0.8 6.36, 0.69 6.2 C0.58 6.03, 0.48 5.85, 0.39 5.66 C0.31 5.47, 0.24 5.27, 0.18 5.06 C0.12 4.86, 0.07 4.64, 0.04 4.43 C0.02 4.21, 0 3.99, 0 3.77 C0 3.55, 0.02 3.33, 0.04 3.12 C0.07 2.9, 0.12 2.69, 0.18 2.48 C0.24 2.28, 0.31 2.08, 0.39 1.89 C0.48 1.7, 0.58 1.51, 0.69 1.35 C0.8 1.18, 0.92 1.02, 1.05 0.88 C1.18 0.74, 1.32 0.61, 1.47 0.51 C1.62 0.4, 1.78 0.3, 1.94 0.23 C2.1 0.15, 2.26 0.1, 2.43 0.06 C2.6 0.02, 2.77 0, 2.94 0 C3.11 0, 3.28 0.02, 3.45 0.06 C3.62 0.1, 3.79 0.15, 3.95 0.23 C4.11 0.3, 4.27 0.4, 4.41 0.51 C4.56 0.61, 4.7 0.74, 4.83 0.88 C4.96 1.02, 5.09 1.18, 5.2 1.35 C5.3 1.51, 5.4 1.7, 5.49 1.89 C5.57 2.08, 5.65 2.28, 5.71 2.48 C5.76 2.69, 5.81 2.9, 5.84 3.12 C5.87 3.33, 5.88 3.66, 5.88 3.77 C5.89 3.88, 5.89 3.66, 5.88 3.77" stroke="#fff" stroke-width="1" fill="none"></path></g><g stroke-linecap="round" transform="translate(327.15462252515545 236.23535469087983) rotate(0 4.639756944444457 96.76677098469372)"><path d="M2.32 0 L8.7 0.58 L9.28 2.32 L9.28 191.21 L8.7 192.95 L6.96 193.53 L0.58 192.95 L0 191.21 L0 2.32 L0.58 0.58 L2.32 0" stroke="none" stroke-width="0" fill="#b2f2bb"></path><path d="M2.32 0 M2.32 0 C4.02 0, 5.71 0, 6.96 0 M2.32 0 C3.77 0, 5.22 0, 6.96 0 M6.96 0 C8.51 0, 9.28 0.77, 9.28 2.32 M6.96 0 C8.51 0, 9.28 0.77, 9.28 2.32 M9.28 2.32 C9.28 51.85, 9.28 101.38, 9.28 191.21 M9.28 2.32 C9.28 49.08, 9.28 95.84, 9.28 191.21 M9.28 191.21 C9.28 192.76, 8.51 193.53, 6.96 193.53 M9.28 191.21 C9.28 192.76, 8.51 193.53, 6.96 193.53 M6.96 193.53 C5.82 193.53, 4.68 193.53, 2.32 193.53 M6.96 193.53 C5.83 193.53, 4.69 193.53, 2.32 193.53 M2.32 193.53 C0.77 193.53, 0 192.76, 0 191.21 M2.32 193.53 C0.77 193.53, 0 192.76, 0 191.21 M0 191.21 C0 131.94, 0 72.67, 0 2.32 M0 191.21 C0 152.78, 0 114.36, 0 2.32 M0 2.32 C0 0.77, 0.77 0, 2.32 0 M0 2.32 C0 0.77, 0.77 0, 2.32 0" stroke="#2f9e44" stroke-width="1" fill="none"></path></g><g mask="url(#mask-XV-G6x_jaKPOiIIb7nZEh)" stroke-linecap="round"><g transform="translate(341.3725218577664 294.9383926867822) rotate(0 140.17547444325635 -1.000253981672813)"><path d="M0 0 C46.73 -0.33, 233.63 -1.67, 280.35 -2 M0 0 C46.73 -0.33, 233.63 -1.67, 280.35 -2" stroke="#000000" stroke-width="1" fill="none"></path></g><g transform="translate(341.3725218577664 294.9383926867822) rotate(0 140.17547444325635 -1.000253981672813)"><path d="M0 0 L13.55 -6.44 L13.64 6.24 L0 0" stroke="none" stroke-width="0" fill="#000000" fill-rule="evenodd"></path><path d="M0 0 C5.16 -2.45, 10.33 -4.91, 13.55 -6.44 M0 0 C2.87 -1.36, 5.73 -2.72, 13.55 -6.44 M13.55 -6.44 C13.57 -3.32, 13.59 -0.2, 13.64 6.24 M13.55 -6.44 C13.58 -2.58, 13.6 1.28, 13.64 6.24 M13.64 6.24 C10.91 4.99, 8.17 3.74, 0 0 M13.64 6.24 C9.96 4.56, 6.29 2.88, 0 0 M0 0 C0 0, 0 0, 0 0 M0 0 C0 0, 0 0, 0 0" stroke="#000000" stroke-width="1" fill="none"></path></g></g><mask id="mask-XV-G6x_jaKPOiIIb7nZEh"><rect x="0" y="0" fill="#fff" width="721.7234707442791" height="396.93890065012783"></rect><rect x="397.3800580686009" y="283.93813870511076" fill="#000" width="168.33587646484375" height="20" opacity="1"></rect></mask><g transform="translate(397.3800580686009 283.93813870511076) rotate(0 84.16793823242188 9.999999999999545)"><text x="84.16793823242188" y="0" font-family="Virgil, Segoe UI Emoji" font-size="16px" fill="#000000" text-anchor="middle" style="white-space: pre;" direction="ltr" dominant-baseline="text-before-edge">add EasyApp API</text></g><g transform="translate(292.92127245959034 17.923850052672606) rotate(0 42.58995819091797 25)"><text x="42.58995819091797" y="0" font-family="Virgil, Segoe UI Emoji" font-size="20px" fill="#000000" text-anchor="middle" style="white-space: pre;" direction="ltr" dominant-baseline="text-before-edge">Platform</text><text x="42.58995819091797" y="25" font-family="Virgil, Segoe UI Emoji" font-size="20px" fill="#000000" text-anchor="middle" style="white-space: pre;" direction="ltr" dominant-baseline="text-before-edge">Cluster</text></g><g stroke-linecap="round"><g transform="translate(632.2046482959607 76.05202090657895) rotate(0 0 246.24489816072764)"><path d="M0 0 C0 167.29, 0 334.57, 0 492.49 M0 0 C0 183.68, 0 367.36, 0 492.49" stroke="#000000" stroke-width="1" fill="none"></path></g></g><mask></mask><g mask="url(#mask-dTJZK0bx6C99_sL_KKQA3)" stroke-linecap="round"><g transform="translate(630.7935114140441 257.3506082637741) rotate(0 -147.33940868872935 0)"><path d="M0 0 C-49.11 0, -245.57 0, -294.68 0 M0 0 C-49.11 0, -245.57 0, -294.68 0" stroke="#000000" stroke-width="1" fill="none"></path></g><g transform="translate(630.7935114140441 257.3506082637741) rotate(0 -147.33940868872935 0)"><path d="M0 0 L-13.59 6.34 L-13.59 -6.34 L0 0" stroke="none" stroke-width="0" fill="#000000" fill-rule="evenodd"></path><path d="M0 0 C-5.38 2.51, -10.75 5.01, -13.59 6.34 M0 0 C-3.86 1.8, -7.71 3.6, -13.59 6.34 M-13.59 6.34 C-13.59 2.07, -13.59 -2.19, -13.59 -6.34 M-13.59 6.34 C-13.59 2.71, -13.59 -0.92, -13.59 -6.34 M-13.59 -6.34 C-8.21 -3.83, -2.83 -1.32, 0 0 M-13.59 -6.34 C-9.11 -4.25, -4.63 -2.16, 0 0 M0 0 C0 0, 0 0, 0 0 M0 0 C0 0, 0 0, 0 0" stroke="#000000" stroke-width="1" fill="none"></path></g></g><mask id="mask-dTJZK0bx6C99_sL_KKQA3"><rect x="0" y="0" fill="#fff" width="1025.4723287915028" height="357.3506082637741"></rect><rect x="380.06218072824447" y="247.35060826377503" fill="#000" width="206.78384399414062" height="20" opacity="1"></rect></mask><g transform="translate(380.06218072824447 247.35060826377503) rotate(0 103.39192199707031 10)"><text x="103.39192199707031" y="0" font-family="Virgil, Segoe UI Emoji" font-size="16px" fill="#000000" text-anchor="middle" style="white-space: pre;" direction="ltr" dominant-baseline="text-before-edge">install EasyApp Promise</text></g><g stroke-linecap="round" transform="translate(628.4030265358451 253.91133777165487) rotate(0 4.6397569444444 91.34122729265027)"><path d="M2.32 0 L8.7 0.58 L9.28 2.32 L9.28 180.36 L8.7 182.1 L6.96 182.68 L0.58 182.1 L0 180.36 L0 2.32 L0.58 0.58 L2.32 0" stroke="none" stroke-width="0" fill="#b2f2bb"></path><path d="M2.32 0 M2.32 0 C3.25 0, 4.18 0, 6.96 0 M2.32 0 C3.65 0, 4.98 0, 6.96 0 M6.96 0 C8.51 0, 9.28 0.77, 9.28 2.32 M6.96 0 C8.51 0, 9.28 0.77, 9.28 2.32 M9.28 2.32 C9.28 40.27, 9.28 78.21, 9.28 180.36 M9.28 2.32 C9.28 61.05, 9.28 119.78, 9.28 180.36 M9.28 180.36 C9.28 181.91, 8.51 182.68, 6.96 182.68 M9.28 180.36 C9.28 181.91, 8.51 182.68, 6.96 182.68 M6.96 182.68 C5.86 182.68, 4.76 182.68, 2.32 182.68 M6.96 182.68 C5.54 182.68, 4.13 182.68, 2.32 182.68 M2.32 182.68 C0.77 182.68, 0 181.91, 0 180.36 M2.32 182.68 C0.77 182.68, 0 181.91, 0 180.36 M0 180.36 C0 127.66, 0 74.96, 0 2.32 M0 180.36 C0 125.58, 0 70.8, 0 2.32 M0 2.32 C0 0.77, 0.77 0, 2.32 0 M0 2.32 C0 0.77, 0.77 0, 2.32 0" stroke="#2f9e44" stroke-width="1" fill="none"></path></g><g mask="url(#mask-LX8HGyH_uRYH45Sa2VcDZ)" stroke-linecap="round"><g transform="translate(339.73119733263957 356.7838533927379) rotate(0 141.6163987634543 0.15792290340050386)"><path d="M0 0 C47.21 0.05, 236.03 0.26, 283.23 0.32 M0 0 C47.21 0.05, 236.03 0.26, 283.23 0.32" stroke="#228be6" stroke-width="1" fill="none"></path></g><g transform="translate(339.73119733263957 356.7838533927379) rotate(0 141.6163987634543 0.15792290340050386)"><path d="M0 0 L13.6 -6.32 L13.59 6.35 L0 0" stroke="none" stroke-width="0" fill="#228be6" fill-rule="evenodd"></path><path d="M0 0 C3.93 -1.83, 7.87 -3.66, 13.6 -6.32 M0 0 C5.02 -2.33, 10.04 -4.67, 13.6 -6.32 M13.6 -6.32 C13.6 -2.02, 13.59 2.29, 13.59 6.35 M13.6 -6.32 C13.6 -3.63, 13.6 -0.94, 13.59 6.35 M13.59 6.35 C8.51 3.98, 3.43 1.6, 0 0 M13.59 6.35 C10.46 4.89, 7.33 3.43, 0 0 M0 0 C0 0, 0 0, 0 0 M0 0 C0 0, 0 0, 0 0" stroke="#228be6" stroke-width="1" fill="none"></path></g></g><mask id="mask-LX8HGyH_uRYH45Sa2VcDZ"><rect x="0" y="0" fill="#fff" width="722.9639948595482" height="457.0996991995389"></rect><rect x="391.6756600609376" y="336.9417762961384" fill="#000" width="179.3438720703125" height="40" opacity="1"></rect></mask><g transform="translate(391.6756600609376 336.9417762961375) rotate(0 89.67193603515625 20)"><text x="89.67193603515625" y="0" font-family="Virgil, Segoe UI Emoji" font-size="16px" fill="#228be6" text-anchor="middle" style="white-space: pre;" direction="ltr" dominant-baseline="text-before-edge">get clusters with label</text><text x="89.67193603515625" y="20" font-family="Virgil, Segoe UI Emoji" font-size="16px" fill="#228be6" text-anchor="middle" style="white-space: pre;" direction="ltr" dominant-baseline="text-before-edge">environment = platform</text></g><g mask="url(#mask-O9ypYrGle8NaAFMe8Cf02)" stroke-linecap="round"><g transform="translate(625.0481695478702 393.1359467845068) rotate(0 -143.92200940863341 -1.3898633662201973)"><path d="M0 0 C-47.97 -0.46, -239.87 -2.32, -287.84 -2.78" stroke="#4dabf7" stroke-width="1.5" fill="none" stroke-dasharray="8 9"></path></g><g transform="translate(625.0481695478702 393.1359467845068) rotate(0 -143.92200940863341 -1.3898633662201973)"><path d="M0 0 L-13.66 6.21 L-13.53 -6.47 L0 0" stroke="none" stroke-width="0" fill="#4dabf7" fill-rule="evenodd"></path><path d="M0 0 C-3.33 1.52, -6.67 3.03, -13.66 6.21 M-13.66 6.21 C-13.62 2.42, -13.58 -1.37, -13.53 -6.47 M-13.53 -6.47 C-8.78 -4.2, -4.02 -1.92, 0 0 M0 0 C0 0, 0 0, 0 0" stroke="#4dabf7" stroke-width="1.5" fill="none"></path></g></g><mask id="mask-O9ypYrGle8NaAFMe8Cf02"><rect x="0" y="0" fill="#fff" width="1012.892188365137" height="495.9156735169472"></rect><rect x="401.83822678962747" y="381.7460834182866" fill="#000" width="158.57586669921875" height="20" opacity="1"></rect></mask><g transform="translate(401.83822678962747 381.7460834182875) rotate(0 79.28793334960932 10)"><text x="79.28793334960938" y="0" font-family="Virgil, Segoe UI Emoji" font-size="16px" fill="#4dabf7" text-anchor="middle" style="white-space: pre;" direction="ltr" dominant-baseline="text-before-edge">[ platform-cluster ]</text></g><g stroke-linecap="round"><g transform="translate(962.6965213905427 76.82913022841967) rotate(0 -1.4210854715202004e-14 245.42166314446922)"><path d="M0 0 C0 81.81, 0 409.04, 0 490.84 M0 0 C0 81.81, 0 409.04, 0 490.84" stroke="#000000" stroke-width="1" fill="none"></path></g></g><mask></mask><g stroke-linecap="round" transform="translate(935.0837271450304 17.727902896870546) rotate(269.94514152181193 24.939647126504752 26.08095983199337)"><path d="M12.47 0 L40.33 0.19 L45.01 1.75 L48.13 4.87 L49.88 12.47 L49.68 42.61 L48.13 47.29 L45.01 50.41 L37.41 52.16 L9.55 51.97 L4.87 50.41 L1.75 47.29 L0 39.69 L0.19 9.55 L1.75 4.87 L3.12 3.12 L7.01 0.78 L12.47 0" stroke="none" stroke-width="0" fill="#ced4da"></path><path d="M12.47 0 M12.47 0 C21.1 0, 29.74 0, 37.41 0 M12.47 0 C21.29 0, 30.11 0, 37.41 0 M37.41 0 C45.72 0, 49.88 4.16, 49.88 12.47 M37.41 0 C45.72 0, 49.88 4.16, 49.88 12.47 M49.88 12.47 C49.88 18.56, 49.88 24.66, 49.88 39.69 M49.88 12.47 C49.88 22.54, 49.88 32.6, 49.88 39.69 M49.88 39.69 C49.88 48.01, 45.72 52.16, 37.41 52.16 M49.88 39.69 C49.88 48.01, 45.72 52.16, 37.41 52.16 M37.41 52.16 C30.49 52.16, 23.58 52.16, 12.47 52.16 M37.41 52.16 C29.27 52.16, 21.13 52.16, 12.47 52.16 M12.47 52.16 C4.16 52.16, 0 48.01, 0 39.69 M12.47 52.16 C4.16 52.16, 0 48.01, 0 39.69 M0 39.69 C0 32.9, 0 26.1, 0 12.47 M0 39.69 C0 33.69, 0 27.69, 0 12.47 M0 12.47 C0 4.16, 4.16 0, 12.47 0 M0 12.47 C0 4.16, 4.16 0, 12.47 0" stroke="#343a40" stroke-width="1" fill="none"></path></g><g stroke-linecap="round" transform="translate(950.4089946738519 -5.719051929998386) rotate(269.94514152181193 9.697990733946348 25.417068752512478)"><path d="M19.4 25.42 C19.4 26.89, 19.35 28.38, 19.25 29.83 C19.15 31.28, 19 32.73, 18.81 34.11 C18.62 35.49, 18.38 36.85, 18.1 38.13 C17.82 39.4, 17.49 40.63, 17.13 41.75 C16.77 42.88, 16.36 43.94, 15.93 44.89 C15.5 45.83, 15.03 46.69, 14.55 47.43 C14.06 48.16, 13.54 48.8, 13.01 49.3 C12.49 49.8, 11.93 50.19, 11.38 50.45 C10.83 50.7, 10.26 50.83, 9.7 50.83 C9.14 50.83, 8.57 50.7, 8.01 50.45 C7.46 50.19, 6.91 49.8, 6.38 49.3 C5.85 48.8, 5.34 48.16, 4.85 47.43 C4.36 46.69, 3.89 45.83, 3.46 44.89 C3.03 43.94, 2.63 42.88, 2.27 41.75 C1.91 40.63, 1.58 39.4, 1.3 38.13 C1.02 36.85, 0.78 35.49, 0.58 34.11 C0.39 32.73, 0.24 31.28, 0.15 29.83 C0.05 28.38, 0 26.89, 0 25.42 C0 23.95, 0.05 22.45, 0.15 21 C0.24 19.55, 0.39 18.11, 0.58 16.72 C0.78 15.34, 1.02 13.98, 1.3 12.71 C1.58 11.43, 1.91 10.21, 2.27 9.08 C2.63 7.95, 3.03 6.89, 3.46 5.95 C3.89 5, 4.36 4.14, 4.85 3.41 C5.34 2.67, 5.85 2.04, 6.38 1.53 C6.91 1.03, 7.46 0.64, 8.01 0.39 C8.57 0.13, 9.14 0, 9.7 0 C10.26 0, 10.83 0.13, 11.38 0.39 C11.93 0.64, 12.49 1.03, 13.01 1.53 C13.54 2.04, 14.06 2.67, 14.55 3.41 C15.03 4.14, 15.5 5, 15.93 5.95 C16.36 6.89, 16.77 7.95, 17.13 9.08 C17.49 10.21, 17.82 11.43, 18.1 12.71 C18.38 13.98, 18.62 15.34, 18.81 16.72 C19 18.11, 19.15 19.55, 19.25 21 C19.35 22.45, 19.37 24.68, 19.4 25.42 C19.42 26.15, 19.42 24.68, 19.4 25.42" stroke="none" stroke-width="0" fill="#868e96"></path><path d="M19.4 25.42 C19.4 26.89, 19.35 28.38, 19.25 29.83 C19.15 31.28, 19 32.73, 18.81 34.11 C18.62 35.49, 18.38 36.85, 18.1 38.13 C17.82 39.4, 17.49 40.63, 17.13 41.75 C16.77 42.88, 16.36 43.94, 15.93 44.89 C15.5 45.83, 15.03 46.69, 14.55 47.43 C14.06 48.16, 13.54 48.8, 13.01 49.3 C12.49 49.8, 11.93 50.19, 11.38 50.45 C10.83 50.7, 10.26 50.83, 9.7 50.83 C9.14 50.83, 8.57 50.7, 8.01 50.45 C7.46 50.19, 6.91 49.8, 6.38 49.3 C5.85 48.8, 5.34 48.16, 4.85 47.43 C4.36 46.69, 3.89 45.83, 3.46 44.89 C3.03 43.94, 2.63 42.88, 2.27 41.75 C1.91 40.63, 1.58 39.4, 1.3 38.13 C1.02 36.85, 0.78 35.49, 0.58 34.11 C0.39 32.73, 0.24 31.28, 0.15 29.83 C0.05 28.38, 0 26.89, 0 25.42 C0 23.95, 0.05 22.45, 0.15 21 C0.24 19.55, 0.39 18.11, 0.58 16.72 C0.78 15.34, 1.02 13.98, 1.3 12.71 C1.58 11.43, 1.91 10.21, 2.27 9.08 C2.63 7.95, 3.03 6.89, 3.46 5.95 C3.89 5, 4.36 4.14, 4.85 3.41 C5.34 2.67, 5.85 2.04, 6.38 1.53 C6.91 1.03, 7.46 0.64, 8.01 0.39 C8.57 0.13, 9.14 0, 9.7 0 C10.26 0, 10.83 0.13, 11.38 0.39 C11.93 0.64, 12.49 1.03, 13.01 1.53 C13.54 2.04, 14.06 2.67, 14.55 3.41 C15.03 4.14, 15.5 5, 15.93 5.95 C16.36 6.89, 16.77 7.95, 17.13 9.08 C17.49 10.21, 17.82 11.43, 18.1 12.71 C18.38 13.98, 18.62 15.34, 18.81 16.72 C19 18.11, 19.15 19.55, 19.25 21 C19.35 22.45, 19.37 24.68, 19.4 25.42 C19.42 26.15, 19.42 24.68, 19.4 25.42" stroke="#343a40" stroke-width="1" fill="none"></path></g><g transform="translate(943.2290711936818 35.40947556028186) rotate(0 17.379765240322456 14.718642303031174)"><text x="17.379765240322456" y="0" font-family="Virgil, Segoe UI Emoji" font-size="11.774913842424866px" fill="#343a40" text-anchor="middle" style="white-space: pre;" direction="ltr" dominant-baseline="text-before-edge">State</text><text x="17.379765240322456" y="14.718642303031082" font-family="Virgil, Segoe UI Emoji" font-size="11.774913842424866px" fill="#343a40" text-anchor="middle" style="white-space: pre;" direction="ltr" dominant-baseline="text-before-edge">Store</text></g><g mask="url(#mask-XKEiHJqbXZnVQxZNC1Lbc)" stroke-linecap="round"><g transform="translate(954.6857137360329 412.8354573633296) rotate(0 -156.784777662347 0)"><path d="M0 0 C-52.26 0, -261.31 0, -313.57 0 M0 0 C-52.26 0, -261.31 0, -313.57 0" stroke="#000000" stroke-width="1" fill="none"></path></g><g transform="translate(954.6857137360329 412.8354573633296) rotate(0 -156.784777662347 0)"><path d="M0 0 L-13.59 6.34 L-13.59 -6.34 L0 0" stroke="none" stroke-width="0" fill="#000000" fill-rule="evenodd"></path><path d="M0 0 C-3.04 1.42, -6.08 2.84, -13.59 6.34 M0 0 C-4.45 2.08, -8.91 4.15, -13.59 6.34 M-13.59 6.34 C-13.59 2.04, -13.59 -2.27, -13.59 -6.34 M-13.59 6.34 C-13.59 3.61, -13.59 0.87, -13.59 -6.34 M-13.59 -6.34 C-8.58 -4, -3.57 -1.66, 0 0 M-13.59 -6.34 C-8.92 -4.16, -4.24 -1.98, 0 0 M0 0 C0 0, 0 0, 0 0 M0 0 C0 0, 0 0, 0 0" stroke="#000000" stroke-width="1" fill="none"></path></g></g><mask id="mask-XKEiHJqbXZnVQxZNC1Lbc"><rect x="0" y="0" fill="#fff" width="1368.255269060727" height="512.8354573633296"></rect><rect x="713.4929923481" y="382.83545736333053" fill="#000" width="168.81588745117188" height="60" opacity="1"></rect></mask><g transform="translate(713.4929923481 382.8354573633296) rotate(0 84.40794372558591 30)"><text x="84.40794372558594" y="0" font-family="Virgil, Segoe UI Emoji" font-size="16px" fill="#000000" text-anchor="middle" style="white-space: pre;" direction="ltr" dominant-baseline="text-before-edge">schedule EasyApp </text><text x="84.40794372558594" y="20" font-family="Virgil, Segoe UI Emoji" font-size="16px" fill="#000000" text-anchor="middle" style="white-space: pre;" direction="ltr" dominant-baseline="text-before-edge">dependencies to </text><text x="84.40794372558594" y="40" font-family="Virgil, Segoe UI Emoji" font-size="16px" fill="#000000" text-anchor="middle" style="white-space: pre;" direction="ltr" dominant-baseline="text-before-edge">platform-cluster</text></g><g stroke-linecap="round" transform="translate(611.803372510236 456.7834002219124) rotate(0 22.85178004234973 37.76988497361708)"><path d="M11.43 0 L36.96 0.18 L42.85 2.86 L44.99 6.43 L45.7 11.43 L45.53 66.79 L44.1 71.08 L42.85 72.68 L39.28 74.83 L34.28 75.54 L8.75 75.36 L2.86 72.68 L0.71 69.11 L0 64.11 L0.18 8.75 L1.61 4.46 L4.46 1.61 L11.43 0" stroke="none" stroke-width="0" fill="white"></path><path d="M11.43 0 M11.43 0 C20.05 0, 28.68 0, 34.28 0 M11.43 0 C17.2 0, 22.98 0, 34.28 0 M34.28 0 C41.89 0, 45.7 3.81, 45.7 11.43 M34.28 0 C41.89 0, 45.7 3.81, 45.7 11.43 M45.7 11.43 C45.7 24.99, 45.7 38.55, 45.7 64.11 M45.7 11.43 C45.7 31.57, 45.7 51.72, 45.7 64.11 M45.7 64.11 C45.7 71.73, 41.89 75.54, 34.28 75.54 M45.7 64.11 C45.7 71.73, 41.89 75.54, 34.28 75.54 M34.28 75.54 C28.42 75.54, 22.56 75.54, 11.43 75.54 M34.28 75.54 C27.47 75.54, 20.66 75.54, 11.43 75.54 M11.43 75.54 C3.81 75.54, 0 71.73, 0 64.11 M11.43 75.54 C3.81 75.54, 0 71.73, 0 64.11 M0 64.11 C0 48.14, 0 32.16, 0 11.43 M0 64.11 C0 45.02, 0 25.92, 0 11.43 M0 11.43 C0 3.81, 3.81 0, 11.43 0 M0 11.43 C0 3.81, 3.81 0, 11.43 0" stroke="transparent" stroke-width="1" fill="none"></path></g><g mask="url(#mask-x1gM9hufOeGSZIa4yCezb)" stroke-linecap="round"><g transform="translate(333.7160053067216 479.2535919151733) rotate(0 311.0030180884812 0)"><path d="M0 0 C103.67 0, 518.34 0, 622.01 0 M0 0 C103.67 0, 518.34 0, 622.01 0" stroke="#000000" stroke-width="1" fill="none"></path></g><g transform="translate(333.7160053067216 479.2535919151733) rotate(0 311.0030180884812 0)"><path d="M0 0 L13.59 -6.34 L13.59 6.34 L0 0" stroke="none" stroke-width="0" fill="#000000" fill-rule="evenodd"></path><path d="M0 0 C3.41 -1.59, 6.82 -3.18, 13.59 -6.34 M0 0 C3.94 -1.84, 7.88 -3.68, 13.59 -6.34 M13.59 -6.34 C13.59 -3.59, 13.59 -0.84, 13.59 6.34 M13.59 -6.34 C13.59 -3.39, 13.59 -0.44, 13.59 6.34 M13.59 6.34 C8.51 3.97, 3.42 1.59, 0 0 M13.59 6.34 C8.64 4.03, 3.7 1.72, 0 0 M0 0 C0 0, 0 0, 0 0 M0 0 C0 0, 0 0, 0 0" stroke="#000000" stroke-width="1" fill="none"></path></g></g><mask id="mask-x1gM9hufOeGSZIa4yCezb"><rect x="0" y="0" fill="#fff" width="1055.722041483684" height="579.2535919151733"></rect><rect x="558.3670946842653" y="469.25359191517236" fill="#000" width="172.703857421875" height="20" opacity="1"></rect></mask><g transform="translate(558.3670946842653 469.25359191517236) rotate(0 86.3519287109375 10)"><text x="86.3519287109375" y="0" font-family="Virgil, Segoe UI Emoji" font-size="16px" fill="#000000" text-anchor="middle" style="white-space: pre;" direction="ltr" dominant-baseline="text-before-edge">install NGINX Promise</text></g><g mask="url(#mask-meExBL-g9pOWbfRxANjBs)" stroke-linecap="round"><g transform="translate(333.19534764391096 512.0528272016536) rotate(0 311.0030180884812 0)"><path d="M0 0 C103.67 0, 518.34 0, 622.01 0 M0 0 C103.67 0, 518.34 0, 622.01 0" stroke="#000000" stroke-width="1" fill="none"></path></g><g transform="translate(333.19534764391096 512.0528272016536) rotate(0 311.0030180884812 0)"><path d="M0 0 L13.59 -6.34 L13.59 6.34 L0 0" stroke="none" stroke-width="0" fill="#000000" fill-rule="evenodd"></path><path d="M0 0 C3.33 -1.55, 6.66 -3.1, 13.59 -6.34 M0 0 C4.64 -2.16, 9.27 -4.32, 13.59 -6.34 M13.59 -6.34 C13.59 -3.52, 13.59 -0.7, 13.59 6.34 M13.59 -6.34 C13.59 -1.65, 13.59 3.04, 13.59 6.34 M13.59 6.34 C8.66 4.04, 3.73 1.74, 0 0 M13.59 6.34 C9.72 4.53, 5.85 2.73, 0 0 M0 0 C0 0, 0 0, 0 0 M0 0 C0 0, 0 0, 0 0" stroke="#000000" stroke-width="1" fill="none"></path></g></g><mask id="mask-meExBL-g9pOWbfRxANjBs"><rect x="0" y="0" fill="#fff" width="1055.2013838208734" height="612.0528272016536"></rect><rect x="537.902436777314" y="502.0528272016527" fill="#000" width="212.59185791015625" height="20" opacity="1"></rect></mask><g transform="translate(537.902436777314 502.0528272016527) rotate(0 106.29592895507812 10)"><text x="106.29592895507812" y="0" font-family="Virgil, Segoe UI Emoji" font-size="16px" fill="#000000" text-anchor="middle" style="white-space: pre;" direction="ltr" dominant-baseline="text-before-edge">install PostgreSQL Promise</text></g></svg>
