<svg version="1.1" xmlns="http://www.w3.org/2000/svg" viewBox="0 0 987.2744493209943 813.2915187150738">
  <!-- svg-source:excalidraw -->
  
  <defs>
    <style class="style-fonts">
      @font-face {
        font-family: "Virgil";
        src: url("https://excalidraw.com/Virgil.woff2");
      }
      @font-face {
        font-family: "Cascadia";
        src: url("https://excalidraw.com/Cascadia.woff2");
      }
    </style>
    
  </defs>
  <g mask="url(#mask-v_C4l4Y6rtjOLNkiFloju)" stroke-linecap="round"><g transform="translate(84.53122011604455 128.47953452781258) rotate(0 113.07731245343825 1.6414632754340346)"><path d="M0 0 C37.69 0.55, 188.46 2.74, 226.15 3.28 M0 0 C37.69 0.55, 188.46 2.74, 226.15 3.28" stroke="#000000" stroke-width="1" fill="none"></path></g><g transform="translate(84.53122011604455 128.47953452781258) rotate(0 113.07731245343825 1.6414632754340346)"><path d="M226.15 3.28 L212.47 9.42 L212.65 -3.25 L226.15 3.28" stroke="none" stroke-width="0" fill="#000000" fill-rule="evenodd"></path><path d="M226.15 3.28 C221.87 5.21, 217.58 7.13, 212.47 9.42 M226.15 3.28 C222.63 4.86, 219.11 6.45, 212.47 9.42 M212.47 9.42 C212.52 5.94, 212.57 2.47, 212.65 -3.25 M212.47 9.42 C212.54 4.44, 212.61 -0.55, 212.65 -3.25 M212.65 -3.25 C215.79 -1.73, 218.93 -0.21, 226.15 3.28 M212.65 -3.25 C217.05 -1.12, 221.46 1.01, 226.15 3.28 M226.15 3.28 C226.15 3.28, 226.15 3.28, 226.15 3.28 M226.15 3.28 C226.15 3.28, 226.15 3.28, 226.15 3.28" stroke="#000000" stroke-width="1" fill="none"></path></g></g><mask id="mask-v_C4l4Y6rtjOLNkiFloju"><rect x="0" y="0" fill="#fff" width="410.68584502292106" height="231.76246107868155"></rect><rect x="134.68057694204117" y="110.1209978032457" fill="#000" width="125.85591125488281" height="40" opacity="1"></rect></mask><g transform="translate(134.68057694204117 110.1209978032457) rotate(0 62.927955627441634 20.00000000000091)"><text x="62.927955627441406" y="0" font-family="Virgil, Segoe UI Emoji" font-size="16px" fill="#000000" text-anchor="middle" style="white-space: pre;" direction="ltr" dominant-baseline="text-before-edge">install easyapp </text><text x="62.927955627441406" y="20" font-family="Virgil, Segoe UI Emoji" font-size="16px" fill="#000000" text-anchor="middle" style="white-space: pre;" direction="ltr" dominant-baseline="text-before-edge">promise</text></g><g stroke-linecap="round" transform="translate(26.159805246258202 78.38411388040004) rotate(0 15.733984669645906 15.65994634762228)"><path d="M2.28 7.28 C2.28 7.28, 2.28 7.28, 2.28 7.28 M2.28 7.28 C2.28 7.28, 2.28 7.28, 2.28 7.28 M0.4 15.41 C2.67 13.74, 3.82 10.46, 10.85 1.33 M-0.28 15.88 C4.3 12.05, 8.25 8.11, 12.87 1.62 M2.13 21.33 C7.79 14.12, 10.12 6.96, 17.92 1.29 M0.9 19.32 C5.52 16.05, 9.12 10.46, 18.1 1.27 M5.6 25.22 C9.77 19, 12.25 12.63, 22.85 3.71 M4.03 23.69 C9.59 18.74, 12.85 13.94, 23.45 2 M4.71 27.35 C14.3 21.85, 17.29 13.7, 24.5 5.22 M6.37 27.7 C12.41 19.09, 20.84 10.53, 26.04 4.93 M7.89 30.93 C16.76 20.72, 22.48 13.16, 28.29 6.32 M9.28 29.13 C15.32 22.18, 21.39 14.47, 29.51 7.15 M12.41 30.05 C17.12 26.55, 20.37 22.78, 30.45 9.31 M13.74 32.09 C20.27 24.12, 26.79 16.48, 32.64 10 M15.73 34.34 C22.69 26.22, 27.09 19.57, 32.77 15.96 M15.99 33.85 C20.62 28.13, 25.86 23.05, 33.34 13.86" stroke="#7950f2" stroke-width="0.5" fill="none"></path><path d="M21.01 1.23 C23.94 1.89, 27.37 4.13, 29.21 7.21 C31.05 10.28, 32.57 16.3, 32.05 19.7 C31.52 23.1, 28.88 25.59, 26.06 27.63 C23.24 29.66, 18.64 31.97, 15.12 31.89 C11.59 31.82, 7.52 29.58, 4.91 27.18 C2.29 24.77, -0.17 20.83, -0.57 17.47 C-0.97 14.11, 0.52 9.75, 2.51 7 C4.51 4.26, 8.14 1.89, 11.4 0.98 C14.66 0.06, 19.96 1.21, 22.08 1.52 C24.2 1.84, 23.97 2.63, 24.1 2.85 M11 1.95 C13.94 0.75, 18.11 -0.08, 21.27 1.05 C24.44 2.17, 28.48 6.04, 29.97 8.73 C31.46 11.42, 31.06 14.06, 30.2 17.18 C29.33 20.3, 27.17 25.26, 24.76 27.43 C22.36 29.6, 18.88 30.26, 15.76 30.19 C12.64 30.13, 8.47 28.95, 6.03 27.02 C3.59 25.08, 2 21.76, 1.11 18.61 C0.23 15.46, -0.88 10.94, 0.72 8.12 C2.33 5.3, 8.92 2.8, 10.74 1.68 C12.57 0.55, 11.56 1.2, 11.68 1.37" stroke="#495057" stroke-width="1" fill="none"></path></g><g stroke-linecap="round"><g transform="translate(41.81975159388048 109.70400657564642) rotate(0 -0.45193522431281963 22.055739918253494)" fill-rule="evenodd"><path d="M-10.54 0.11 C-10.54 0.11, -10.54 0.11, -10.54 0.11 M-10.54 0.11 C-10.54 0.11, -10.54 0.11, -10.54 0.11 M-15.71 11.95 C-14.05 9.59, -11.01 7.2, -4.53 -1.82 M-14.8 11.88 C-11.72 7.97, -9.09 4.44, -5.18 -0.25 M-17.51 21.06 C-11.92 13.02, -5.31 6.29, 1.24 -0.24 M-17.58 21.11 C-13.08 15.09, -6.8 7.11, -0.75 0.27 M-22.46 30.79 C-14.55 20.63, -5.12 13.92, 6.6 -3.26 M-19.63 30.64 C-12.06 20.25, -4.01 11.27, 8.54 -2.39 M-21.51 33.88 C-8.96 22.27, 0.41 8.82, 9.87 -0.9 M-20.5 34.65 C-12.68 26.93, -7.12 19.88, 10.89 1.54 M-20.96 41.28 C-7.77 28.83, 3.19 11.95, 10.89 4.75 M-20.67 42.56 C-9.33 29.51, 0.51 18.14, 11.38 4.38 M-18.52 45.19 C-9.15 33.55, 2.2 25.02, 12.21 9.4 M-16.13 43.42 C-6.39 32.81, 3.43 21.11, 13.25 7.51 M-14.98 46.19 C-2.59 32.25, 10.01 20.19, 15.88 10.51 M-13.74 45.1 C-4.46 36.74, 2.55 26.82, 17.93 10.55 M-11.53 49.84 C-5.02 40.43, 4.11 31.62, 18.91 16.97 M-9.29 48.19 C0.88 36.55, 11.16 23.64, 18.86 15.27 M-4.96 46.81 C3.3 40.16, 11.91 29.71, 20.01 18.24 M-4.46 48.37 C4.3 37.71, 13.11 28.28, 19.43 19.89 M0.55 46.67 C6.27 43.31, 10.01 36.76, 19.84 22.37 M0.8 47.36 C6.89 41.39, 10.59 36.31, 21.55 23.35 M8.29 47.79 C11.05 40.82, 17.87 37.74, 23.1 30.36 M7.24 47.08 C12.68 41.04, 17.79 34.11, 23.04 28.95 M12.55 46.18 C16.35 43.6, 16.31 42.15, 23.77 35.39 M13.1 45.8 C15.78 42.55, 18.2 39.99, 23.28 34.12" stroke="#7950f2" stroke-width="0.5" fill="none"></path><path d="M0.89 0.57 C3 0.52, 8.17 -7.31, 11.53 -0.51 C14.9 6.29, 26.66 34.16, 21.08 41.38 C15.49 48.6, -16.93 49.62, -21.99 42.82 C-27.05 36.02, -12.88 7.76, -9.26 0.57 C-5.65 -6.62, -1.96 -0.14, -0.3 -0.33 M-0.1 -0.17 C2.05 -0.04, 7.74 -6.35, 11.16 0.76 C14.58 7.87, 25.99 35.82, 20.41 42.5 C14.83 49.17, -17.24 47.69, -22.32 40.82 C-27.41 33.94, -14 8.32, -10.11 1.27 C-6.23 -5.79, -1.01 -1.58, 0.96 -1.54" stroke="#495057" stroke-width="1" fill="none"></path></g></g><mask></mask><g stroke-linecap="round"><g transform="translate(322.28280792147007 66.79429774806158) rotate(0 0 367.6597108642709)"><path d="M0 0 C0 122.55, 0 612.77, 0 735.32 M0 0 C0 122.55, 0 612.77, 0 735.32" stroke="#000000" stroke-width="1" fill="none"></path></g></g><mask></mask><g transform="translate(10 169.87358387175482) rotate(0 34.47657775878906 20.246447535221705)"><text x="34.47657775878906" y="0" font-family="Virgil, Segoe UI Emoji" font-size="16.197158028177277px" fill="#5f3dc4" text-anchor="middle" style="white-space: pre;" direction="ltr" dominant-baseline="text-before-edge">Platform</text><text x="34.47657775878906" y="20.2464475352216" font-family="Virgil, Segoe UI Emoji" font-size="16.197158028177277px" fill="#5f3dc4" text-anchor="middle" style="white-space: pre;" direction="ltr" dominant-baseline="text-before-edge">Engineer</text></g><g stroke-linecap="round" transform="translate(605.5250656881294 18.502235612206277) rotate(358.92972393214535 3.7680364110324263 19.55595047308725)"><path d="M1.88 0 L5.65 0 L7.07 0.47 L7.54 1.88 L7.54 37.23 L7.07 38.64 L5.65 39.11 L0.47 38.64 L0 37.23 L0 1.88 L0.47 0.47 L1.88 0" stroke="none" stroke-width="0" fill="#7950f2"></path><path d="M1.88 0 M1.88 0 C3.04 0, 4.2 0, 5.65 0 M1.88 0 C3.21 0, 4.54 0, 5.65 0 M5.65 0 C6.91 0, 7.54 0.63, 7.54 1.88 M5.65 0 C6.91 0, 7.54 0.63, 7.54 1.88 M7.54 1.88 C7.54 15.11, 7.54 28.34, 7.54 37.23 M7.54 1.88 C7.54 12.61, 7.54 23.34, 7.54 37.23 M7.54 37.23 C7.54 38.48, 6.91 39.11, 5.65 39.11 M7.54 37.23 C7.54 38.48, 6.91 39.11, 5.65 39.11 M5.65 39.11 C4.26 39.11, 2.86 39.11, 1.88 39.11 M5.65 39.11 C4.45 39.11, 3.25 39.11, 1.88 39.11 M1.88 39.11 C0.63 39.11, 0 38.48, 0 37.23 M1.88 39.11 C0.63 39.11, 0 38.48, 0 37.23 M0 37.23 C0 23.51, 0 9.78, 0 1.88 M0 37.23 C0 25.96, 0 14.69, 0 1.88 M0 1.88 C0 0.63, 0.63 0, 1.88 0 M0 1.88 C0 0.63, 0.63 0, 1.88 0" stroke="transparent" stroke-width="1" fill="none"></path></g><g stroke-linecap="round" transform="translate(619.5617051214153 13.50722268881509) rotate(40.41727686562419 3.7680364110324263 24.785791502693428)"><path d="M1.88 0 L5.65 0 L7.07 0.47 L7.54 1.88 L7.54 47.69 L7.07 49.1 L5.65 49.57 L0.47 49.1 L0 47.69 L0 1.88 L0.47 0.47 L1.88 0" stroke="none" stroke-width="0" fill="#7950f2"></path><path d="M1.88 0 M1.88 0 C3.15 0, 4.41 0, 5.65 0 M1.88 0 C2.68 0, 3.49 0, 5.65 0 M5.65 0 C6.91 0, 7.54 0.63, 7.54 1.88 M5.65 0 C6.91 0, 7.54 0.63, 7.54 1.88 M7.54 1.88 C7.54 17.2, 7.54 32.51, 7.54 47.69 M7.54 1.88 C7.54 14.51, 7.54 27.13, 7.54 47.69 M7.54 47.69 C7.54 48.94, 6.91 49.57, 5.65 49.57 M7.54 47.69 C7.54 48.94, 6.91 49.57, 5.65 49.57 M5.65 49.57 C4.86 49.57, 4.07 49.57, 1.88 49.57 M5.65 49.57 C4.56 49.57, 3.47 49.57, 1.88 49.57 M1.88 49.57 C0.63 49.57, 0 48.94, 0 47.69 M1.88 49.57 C0.63 49.57, 0 48.94, 0 47.69 M0 47.69 C0 32.22, 0 16.75, 0 1.88 M0 47.69 C0 31.18, 0 14.68, 0 1.88 M0 1.88 C0 0.63, 0.63 0, 1.88 0 M0 1.88 C0 0.63, 0.63 0, 1.88 0" stroke="transparent" stroke-width="1" fill="none"></path></g><g stroke-linecap="round" transform="translate(628.2042293862701 32.062238696820714) rotate(139.22073182693399 3.7680364110324263 14.147647249566944)"><path d="M1.88 0 L5.65 0 L7.07 0.47 L7.54 1.88 L7.54 26.41 L7.07 27.82 L5.65 28.3 L0.47 27.82 L0 26.41 L0 1.88 L0.47 0.47 L1.88 0" stroke="none" stroke-width="0" fill="#7950f2"></path><path d="M1.88 0 M1.88 0 C3.03 0, 4.17 0, 5.65 0 M1.88 0 C2.94 0, 3.99 0, 5.65 0 M5.65 0 C6.91 0, 7.54 0.63, 7.54 1.88 M5.65 0 C6.91 0, 7.54 0.63, 7.54 1.88 M7.54 1.88 C7.54 7.65, 7.54 13.42, 7.54 26.41 M7.54 1.88 C7.54 10.18, 7.54 18.48, 7.54 26.41 M7.54 26.41 C7.54 27.67, 6.91 28.3, 5.65 28.3 M7.54 26.41 C7.54 27.67, 6.91 28.3, 5.65 28.3 M5.65 28.3 C4.8 28.3, 3.96 28.3, 1.88 28.3 M5.65 28.3 C4.89 28.3, 4.13 28.3, 1.88 28.3 M1.88 28.3 C0.63 28.3, 0 27.67, 0 26.41 M1.88 28.3 C0.63 28.3, 0 27.67, 0 26.41 M0 26.41 C0 18.72, 0 11.03, 0 1.88 M0 26.41 C0 20.77, 0 15.13, 0 1.88 M0 1.88 C0 0.63, 0.63 0, 1.88 0 M0 1.88 C0 0.63, 0.63 0, 1.88 0" stroke="transparent" stroke-width="1" fill="none"></path></g><g stroke-linecap="round" transform="translate(604.6577208350559 16.54771470887499) rotate(358.1310915065084 4.207022158495647 4.569555668486828)"><path d="M8.41 4.57 C8.41 4.83, 8.39 5.1, 8.35 5.36 C8.31 5.62, 8.24 5.88, 8.16 6.13 C8.08 6.38, 7.97 6.63, 7.85 6.85 C7.73 7.08, 7.59 7.3, 7.43 7.51 C7.27 7.71, 7.1 7.9, 6.91 8.07 C6.72 8.24, 6.52 8.39, 6.31 8.53 C6.1 8.66, 5.87 8.77, 5.65 8.86 C5.42 8.95, 5.18 9.02, 4.94 9.07 C4.7 9.12, 4.45 9.14, 4.21 9.14 C3.96 9.14, 3.72 9.12, 3.48 9.07 C3.24 9.02, 3 8.95, 2.77 8.86 C2.54 8.77, 2.31 8.66, 2.1 8.53 C1.89 8.39, 1.69 8.24, 1.5 8.07 C1.32 7.9, 1.14 7.71, 0.98 7.51 C0.83 7.3, 0.69 7.08, 0.56 6.85 C0.44 6.63, 0.34 6.38, 0.25 6.13 C0.17 5.88, 0.11 5.62, 0.06 5.36 C0.02 5.1, 0 4.83, 0 4.57 C0 4.31, 0.02 4.04, 0.06 3.78 C0.11 3.52, 0.17 3.26, 0.25 3.01 C0.34 2.76, 0.44 2.51, 0.56 2.28 C0.69 2.06, 0.83 1.83, 0.98 1.63 C1.14 1.43, 1.32 1.24, 1.5 1.07 C1.69 0.9, 1.89 0.74, 2.1 0.61 C2.31 0.48, 2.54 0.37, 2.77 0.28 C3 0.19, 3.24 0.12, 3.48 0.07 C3.72 0.02, 3.96 0, 4.21 0 C4.45 0, 4.7 0.02, 4.94 0.07 C5.18 0.12, 5.42 0.19, 5.65 0.28 C5.87 0.37, 6.1 0.48, 6.31 0.61 C6.52 0.74, 6.72 0.9, 6.91 1.07 C7.1 1.24, 7.27 1.43, 7.43 1.63 C7.59 1.83, 7.73 2.06, 7.85 2.28 C7.97 2.51, 8.08 2.76, 8.16 3.01 C8.24 3.26, 8.31 3.52, 8.35 3.78 C8.39 4.04, 8.4 4.44, 8.41 4.57 C8.42 4.7, 8.42 4.44, 8.41 4.57" stroke="none" stroke-width="0" fill="#7950f2"></path><path d="M8.41 4.57 C8.41 4.83, 8.39 5.1, 8.35 5.36 C8.31 5.62, 8.24 5.88, 8.16 6.13 C8.08 6.38, 7.97 6.63, 7.85 6.85 C7.73 7.08, 7.59 7.3, 7.43 7.51 C7.27 7.71, 7.1 7.9, 6.91 8.07 C6.72 8.24, 6.52 8.39, 6.31 8.53 C6.1 8.66, 5.87 8.77, 5.65 8.86 C5.42 8.95, 5.18 9.02, 4.94 9.07 C4.7 9.12, 4.45 9.14, 4.21 9.14 C3.96 9.14, 3.72 9.12, 3.48 9.07 C3.24 9.02, 3 8.95, 2.77 8.86 C2.54 8.77, 2.31 8.66, 2.1 8.53 C1.89 8.39, 1.69 8.24, 1.5 8.07 C1.32 7.9, 1.14 7.71, 0.98 7.51 C0.83 7.3, 0.69 7.08, 0.56 6.85 C0.44 6.63, 0.34 6.38, 0.25 6.13 C0.17 5.88, 0.11 5.62, 0.06 5.36 C0.02 5.1, 0 4.83, 0 4.57 C0 4.31, 0.02 4.04, 0.06 3.78 C0.11 3.52, 0.17 3.26, 0.25 3.01 C0.34 2.76, 0.44 2.51, 0.56 2.28 C0.69 2.06, 0.83 1.83, 0.98 1.63 C1.14 1.43, 1.32 1.24, 1.5 1.07 C1.69 0.9, 1.89 0.74, 2.1 0.61 C2.31 0.48, 2.54 0.37, 2.77 0.28 C3 0.19, 3.24 0.12, 3.48 0.07 C3.72 0.02, 3.96 0, 4.21 0 C4.45 0, 4.7 0.02, 4.94 0.07 C5.18 0.12, 5.42 0.19, 5.65 0.28 C5.87 0.37, 6.1 0.48, 6.31 0.61 C6.52 0.74, 6.72 0.9, 6.91 1.07 C7.1 1.24, 7.27 1.43, 7.43 1.63 C7.59 1.83, 7.73 2.06, 7.85 2.28 C7.97 2.51, 8.08 2.76, 8.16 3.01 C8.24 3.26, 8.31 3.52, 8.35 3.78 C8.39 4.04, 8.4 4.44, 8.41 4.57 C8.42 4.7, 8.42 4.44, 8.41 4.57" stroke="#5f3dc4" stroke-width="1" fill="none"></path></g><g stroke-linecap="round" transform="translate(605.618356862074 48.79575134449988) rotate(358.1310915065084 4.207022158495647 4.569555668486828)"><path d="M8.41 4.57 C8.41 4.83, 8.39 5.1, 8.35 5.36 C8.31 5.62, 8.24 5.88, 8.16 6.13 C8.08 6.38, 7.97 6.63, 7.85 6.85 C7.73 7.08, 7.59 7.3, 7.43 7.51 C7.27 7.71, 7.1 7.9, 6.91 8.07 C6.72 8.24, 6.52 8.39, 6.31 8.53 C6.1 8.66, 5.87 8.77, 5.65 8.86 C5.42 8.95, 5.18 9.02, 4.94 9.07 C4.7 9.12, 4.45 9.14, 4.21 9.14 C3.96 9.14, 3.72 9.12, 3.48 9.07 C3.24 9.02, 3 8.95, 2.77 8.86 C2.54 8.77, 2.31 8.66, 2.1 8.53 C1.89 8.39, 1.69 8.24, 1.5 8.07 C1.32 7.9, 1.14 7.71, 0.98 7.51 C0.83 7.3, 0.69 7.08, 0.56 6.85 C0.44 6.63, 0.34 6.38, 0.25 6.13 C0.17 5.88, 0.11 5.62, 0.06 5.36 C0.02 5.1, 0 4.83, 0 4.57 C0 4.31, 0.02 4.04, 0.06 3.78 C0.11 3.52, 0.17 3.26, 0.25 3.01 C0.34 2.76, 0.44 2.51, 0.56 2.28 C0.69 2.06, 0.83 1.83, 0.98 1.63 C1.14 1.43, 1.32 1.24, 1.5 1.07 C1.69 0.9, 1.89 0.74, 2.1 0.61 C2.31 0.48, 2.54 0.37, 2.77 0.28 C3 0.19, 3.24 0.12, 3.48 0.07 C3.72 0.02, 3.96 0, 4.21 0 C4.45 0, 4.7 0.02, 4.94 0.07 C5.18 0.12, 5.42 0.19, 5.65 0.28 C5.87 0.37, 6.1 0.48, 6.31 0.61 C6.52 0.74, 6.72 0.9, 6.91 1.07 C7.1 1.24, 7.27 1.43, 7.43 1.63 C7.59 1.83, 7.73 2.06, 7.85 2.28 C7.97 2.51, 8.08 2.76, 8.16 3.01 C8.24 3.26, 8.31 3.52, 8.35 3.78 C8.39 4.04, 8.4 4.44, 8.41 4.57 C8.42 4.7, 8.42 4.44, 8.41 4.57" stroke="none" stroke-width="0" fill="#7950f2"></path><path d="M8.41 4.57 C8.41 4.83, 8.39 5.1, 8.35 5.36 C8.31 5.62, 8.24 5.88, 8.16 6.13 C8.08 6.38, 7.97 6.63, 7.85 6.85 C7.73 7.08, 7.59 7.3, 7.43 7.51 C7.27 7.71, 7.1 7.9, 6.91 8.07 C6.72 8.24, 6.52 8.39, 6.31 8.53 C6.1 8.66, 5.87 8.77, 5.65 8.86 C5.42 8.95, 5.18 9.02, 4.94 9.07 C4.7 9.12, 4.45 9.14, 4.21 9.14 C3.96 9.14, 3.72 9.12, 3.48 9.07 C3.24 9.02, 3 8.95, 2.77 8.86 C2.54 8.77, 2.31 8.66, 2.1 8.53 C1.89 8.39, 1.69 8.24, 1.5 8.07 C1.32 7.9, 1.14 7.71, 0.98 7.51 C0.83 7.3, 0.69 7.08, 0.56 6.85 C0.44 6.63, 0.34 6.38, 0.25 6.13 C0.17 5.88, 0.11 5.62, 0.06 5.36 C0.02 5.1, 0 4.83, 0 4.57 C0 4.31, 0.02 4.04, 0.06 3.78 C0.11 3.52, 0.17 3.26, 0.25 3.01 C0.34 2.76, 0.44 2.51, 0.56 2.28 C0.69 2.06, 0.83 1.83, 0.98 1.63 C1.14 1.43, 1.32 1.24, 1.5 1.07 C1.69 0.9, 1.89 0.74, 2.1 0.61 C2.31 0.48, 2.54 0.37, 2.77 0.28 C3 0.19, 3.24 0.12, 3.48 0.07 C3.72 0.02, 3.96 0, 4.21 0 C4.45 0, 4.7 0.02, 4.94 0.07 C5.18 0.12, 5.42 0.19, 5.65 0.28 C5.87 0.37, 6.1 0.48, 6.31 0.61 C6.52 0.74, 6.72 0.9, 6.91 1.07 C7.1 1.24, 7.27 1.43, 7.43 1.63 C7.59 1.83, 7.73 2.06, 7.85 2.28 C7.97 2.51, 8.08 2.76, 8.16 3.01 C8.24 3.26, 8.31 3.52, 8.35 3.78 C8.39 4.04, 8.4 4.44, 8.41 4.57 C8.42 4.7, 8.42 4.44, 8.41 4.57" stroke="#5f3dc4" stroke-width="1" fill="none"></path></g><g stroke-linecap="round" transform="translate(620.1557512372187 34.69786243877752) rotate(358.1310915065084 4.171683969157584 4.569555668486828)"><path d="M8.34 4.57 C8.34 4.83, 8.32 5.1, 8.28 5.36 C8.24 5.62, 8.17 5.88, 8.09 6.13 C8.01 6.38, 7.91 6.63, 7.78 6.85 C7.66 7.08, 7.52 7.3, 7.37 7.51 C7.21 7.71, 7.04 7.9, 6.85 8.07 C6.67 8.24, 6.47 8.39, 6.26 8.53 C6.05 8.66, 5.83 8.77, 5.6 8.86 C5.37 8.95, 5.13 9.02, 4.9 9.07 C4.66 9.12, 4.41 9.14, 4.17 9.14 C3.93 9.14, 3.69 9.12, 3.45 9.07 C3.21 9.02, 2.97 8.95, 2.74 8.86 C2.52 8.77, 2.29 8.66, 2.09 8.53 C1.88 8.39, 1.68 8.24, 1.49 8.07 C1.31 7.9, 1.13 7.71, 0.98 7.51 C0.82 7.3, 0.68 7.08, 0.56 6.85 C0.44 6.63, 0.33 6.38, 0.25 6.13 C0.17 5.88, 0.11 5.62, 0.06 5.36 C0.02 5.1, 0 4.83, 0 4.57 C0 4.31, 0.02 4.04, 0.06 3.78 C0.11 3.52, 0.17 3.26, 0.25 3.01 C0.33 2.76, 0.44 2.51, 0.56 2.28 C0.68 2.06, 0.82 1.83, 0.98 1.63 C1.13 1.43, 1.31 1.24, 1.49 1.07 C1.68 0.9, 1.88 0.74, 2.09 0.61 C2.29 0.48, 2.52 0.37, 2.74 0.28 C2.97 0.19, 3.21 0.12, 3.45 0.07 C3.69 0.02, 3.93 0, 4.17 0 C4.41 0, 4.66 0.02, 4.9 0.07 C5.13 0.12, 5.37 0.19, 5.6 0.28 C5.83 0.37, 6.05 0.48, 6.26 0.61 C6.47 0.74, 6.67 0.9, 6.85 1.07 C7.04 1.24, 7.21 1.43, 7.37 1.63 C7.52 1.83, 7.66 2.06, 7.78 2.28 C7.91 2.51, 8.01 2.76, 8.09 3.01 C8.17 3.26, 8.24 3.52, 8.28 3.78 C8.32 4.04, 8.33 4.44, 8.34 4.57 C8.35 4.7, 8.35 4.44, 8.34 4.57" stroke="none" stroke-width="0" fill="#7950f2"></path><path d="M8.34 4.57 C8.34 4.83, 8.32 5.1, 8.28 5.36 C8.24 5.62, 8.17 5.88, 8.09 6.13 C8.01 6.38, 7.91 6.63, 7.78 6.85 C7.66 7.08, 7.52 7.3, 7.37 7.51 C7.21 7.71, 7.04 7.9, 6.85 8.07 C6.67 8.24, 6.47 8.39, 6.26 8.53 C6.05 8.66, 5.83 8.77, 5.6 8.86 C5.37 8.95, 5.13 9.02, 4.9 9.07 C4.66 9.12, 4.41 9.14, 4.17 9.14 C3.93 9.14, 3.69 9.12, 3.45 9.07 C3.21 9.02, 2.97 8.95, 2.74 8.86 C2.52 8.77, 2.29 8.66, 2.09 8.53 C1.88 8.39, 1.68 8.24, 1.49 8.07 C1.31 7.9, 1.13 7.71, 0.98 7.51 C0.82 7.3, 0.68 7.08, 0.56 6.85 C0.44 6.63, 0.33 6.38, 0.25 6.13 C0.17 5.88, 0.11 5.62, 0.06 5.36 C0.02 5.1, 0 4.83, 0 4.57 C0 4.31, 0.02 4.04, 0.06 3.78 C0.11 3.52, 0.17 3.26, 0.25 3.01 C0.33 2.76, 0.44 2.51, 0.56 2.28 C0.68 2.06, 0.82 1.83, 0.98 1.63 C1.13 1.43, 1.31 1.24, 1.49 1.07 C1.68 0.9, 1.88 0.74, 2.09 0.61 C2.29 0.48, 2.52 0.37, 2.74 0.28 C2.97 0.19, 3.21 0.12, 3.45 0.07 C3.69 0.02, 3.93 0, 4.17 0 C4.41 0, 4.66 0.02, 4.9 0.07 C5.13 0.12, 5.37 0.19, 5.6 0.28 C5.83 0.37, 6.05 0.48, 6.26 0.61 C6.47 0.74, 6.67 0.9, 6.85 1.07 C7.04 1.24, 7.21 1.43, 7.37 1.63 C7.52 1.83, 7.66 2.06, 7.78 2.28 C7.91 2.51, 8.01 2.76, 8.09 3.01 C8.17 3.26, 8.24 3.52, 8.28 3.78 C8.32 4.04, 8.33 4.44, 8.34 4.57 C8.35 4.7, 8.35 4.44, 8.34 4.57" stroke="#5f3dc4" stroke-width="1" fill="none"></path></g><g stroke-linecap="round" transform="translate(633.3016559047378 17.348965806380875) rotate(358.1310915065084 4.207022158495647 4.569555668486828)"><path d="M8.41 4.57 C8.41 4.83, 8.39 5.1, 8.35 5.36 C8.31 5.62, 8.24 5.88, 8.16 6.13 C8.08 6.38, 7.97 6.63, 7.85 6.85 C7.73 7.08, 7.59 7.3, 7.43 7.51 C7.27 7.71, 7.1 7.9, 6.91 8.07 C6.72 8.24, 6.52 8.39, 6.31 8.53 C6.1 8.66, 5.87 8.77, 5.65 8.86 C5.42 8.95, 5.18 9.02, 4.94 9.07 C4.7 9.12, 4.45 9.14, 4.21 9.14 C3.96 9.14, 3.72 9.12, 3.48 9.07 C3.24 9.02, 3 8.95, 2.77 8.86 C2.54 8.77, 2.31 8.66, 2.1 8.53 C1.89 8.39, 1.69 8.24, 1.5 8.07 C1.32 7.9, 1.14 7.71, 0.98 7.51 C0.83 7.3, 0.69 7.08, 0.56 6.85 C0.44 6.63, 0.34 6.38, 0.25 6.13 C0.17 5.88, 0.11 5.62, 0.06 5.36 C0.02 5.1, 0 4.83, 0 4.57 C0 4.31, 0.02 4.04, 0.06 3.78 C0.11 3.52, 0.17 3.26, 0.25 3.01 C0.34 2.76, 0.44 2.51, 0.56 2.28 C0.69 2.06, 0.83 1.83, 0.98 1.63 C1.14 1.43, 1.32 1.24, 1.5 1.07 C1.69 0.9, 1.89 0.74, 2.1 0.61 C2.31 0.48, 2.54 0.37, 2.77 0.28 C3 0.19, 3.24 0.12, 3.48 0.07 C3.72 0.02, 3.96 0, 4.21 0 C4.45 0, 4.7 0.02, 4.94 0.07 C5.18 0.12, 5.42 0.19, 5.65 0.28 C5.87 0.37, 6.1 0.48, 6.31 0.61 C6.52 0.74, 6.72 0.9, 6.91 1.07 C7.1 1.24, 7.27 1.43, 7.43 1.63 C7.59 1.83, 7.73 2.06, 7.85 2.28 C7.97 2.51, 8.08 2.76, 8.16 3.01 C8.24 3.26, 8.31 3.52, 8.35 3.78 C8.39 4.04, 8.4 4.44, 8.41 4.57 C8.42 4.7, 8.42 4.44, 8.41 4.57" stroke="none" stroke-width="0" fill="#7950f2"></path><path d="M8.41 4.57 C8.41 4.83, 8.39 5.1, 8.35 5.36 C8.31 5.62, 8.24 5.88, 8.16 6.13 C8.08 6.38, 7.97 6.63, 7.85 6.85 C7.73 7.08, 7.59 7.3, 7.43 7.51 C7.27 7.71, 7.1 7.9, 6.91 8.07 C6.72 8.24, 6.52 8.39, 6.31 8.53 C6.1 8.66, 5.87 8.77, 5.65 8.86 C5.42 8.95, 5.18 9.02, 4.94 9.07 C4.7 9.12, 4.45 9.14, 4.21 9.14 C3.96 9.14, 3.72 9.12, 3.48 9.07 C3.24 9.02, 3 8.95, 2.77 8.86 C2.54 8.77, 2.31 8.66, 2.1 8.53 C1.89 8.39, 1.69 8.24, 1.5 8.07 C1.32 7.9, 1.14 7.71, 0.98 7.51 C0.83 7.3, 0.69 7.08, 0.56 6.85 C0.44 6.63, 0.34 6.38, 0.25 6.13 C0.17 5.88, 0.11 5.62, 0.06 5.36 C0.02 5.1, 0 4.83, 0 4.57 C0 4.31, 0.02 4.04, 0.06 3.78 C0.11 3.52, 0.17 3.26, 0.25 3.01 C0.34 2.76, 0.44 2.51, 0.56 2.28 C0.69 2.06, 0.83 1.83, 0.98 1.63 C1.14 1.43, 1.32 1.24, 1.5 1.07 C1.69 0.9, 1.89 0.74, 2.1 0.61 C2.31 0.48, 2.54 0.37, 2.77 0.28 C3 0.19, 3.24 0.12, 3.48 0.07 C3.72 0.02, 3.96 0, 4.21 0 C4.45 0, 4.7 0.02, 4.94 0.07 C5.18 0.12, 5.42 0.19, 5.65 0.28 C5.87 0.37, 6.1 0.48, 6.31 0.61 C6.52 0.74, 6.72 0.9, 6.91 1.07 C7.1 1.24, 7.27 1.43, 7.43 1.63 C7.59 1.83, 7.73 2.06, 7.85 2.28 C7.97 2.51, 8.08 2.76, 8.16 3.01 C8.24 3.26, 8.31 3.52, 8.35 3.78 C8.39 4.04, 8.4 4.44, 8.41 4.57 C8.42 4.7, 8.42 4.44, 8.41 4.57" stroke="#5f3dc4" stroke-width="1" fill="none"></path></g><g stroke-linecap="round" transform="translate(635.3526654869061 50.362330834053864) rotate(358.1310915065084 4.207022158495647 4.569555668486828)"><path d="M8.41 4.57 C8.41 4.83, 8.39 5.1, 8.35 5.36 C8.31 5.62, 8.24 5.88, 8.16 6.13 C8.08 6.38, 7.97 6.63, 7.85 6.85 C7.73 7.08, 7.59 7.3, 7.43 7.51 C7.27 7.71, 7.1 7.9, 6.91 8.07 C6.72 8.24, 6.52 8.39, 6.31 8.53 C6.1 8.66, 5.87 8.77, 5.65 8.86 C5.42 8.95, 5.18 9.02, 4.94 9.07 C4.7 9.12, 4.45 9.14, 4.21 9.14 C3.96 9.14, 3.72 9.12, 3.48 9.07 C3.24 9.02, 3 8.95, 2.77 8.86 C2.54 8.77, 2.31 8.66, 2.1 8.53 C1.89 8.39, 1.69 8.24, 1.5 8.07 C1.32 7.9, 1.14 7.71, 0.98 7.51 C0.83 7.3, 0.69 7.08, 0.56 6.85 C0.44 6.63, 0.34 6.38, 0.25 6.13 C0.17 5.88, 0.11 5.62, 0.06 5.36 C0.02 5.1, 0 4.83, 0 4.57 C0 4.31, 0.02 4.04, 0.06 3.78 C0.11 3.52, 0.17 3.26, 0.25 3.01 C0.34 2.76, 0.44 2.51, 0.56 2.28 C0.69 2.06, 0.83 1.83, 0.98 1.63 C1.14 1.43, 1.32 1.24, 1.5 1.07 C1.69 0.9, 1.89 0.74, 2.1 0.61 C2.31 0.48, 2.54 0.37, 2.77 0.28 C3 0.19, 3.24 0.12, 3.48 0.07 C3.72 0.02, 3.96 0, 4.21 0 C4.45 0, 4.7 0.02, 4.94 0.07 C5.18 0.12, 5.42 0.19, 5.65 0.28 C5.87 0.37, 6.1 0.48, 6.31 0.61 C6.52 0.74, 6.72 0.9, 6.91 1.07 C7.1 1.24, 7.27 1.43, 7.43 1.63 C7.59 1.83, 7.73 2.06, 7.85 2.28 C7.97 2.51, 8.08 2.76, 8.16 3.01 C8.24 3.26, 8.31 3.52, 8.35 3.78 C8.39 4.04, 8.4 4.44, 8.41 4.57 C8.42 4.7, 8.42 4.44, 8.41 4.57" stroke="none" stroke-width="0" fill="#7950f2"></path><path d="M8.41 4.57 C8.41 4.83, 8.39 5.1, 8.35 5.36 C8.31 5.62, 8.24 5.88, 8.16 6.13 C8.08 6.38, 7.97 6.63, 7.85 6.85 C7.73 7.08, 7.59 7.3, 7.43 7.51 C7.27 7.71, 7.1 7.9, 6.91 8.07 C6.72 8.24, 6.52 8.39, 6.31 8.53 C6.1 8.66, 5.87 8.77, 5.65 8.86 C5.42 8.95, 5.18 9.02, 4.94 9.07 C4.7 9.12, 4.45 9.14, 4.21 9.14 C3.96 9.14, 3.72 9.12, 3.48 9.07 C3.24 9.02, 3 8.95, 2.77 8.86 C2.54 8.77, 2.31 8.66, 2.1 8.53 C1.89 8.39, 1.69 8.24, 1.5 8.07 C1.32 7.9, 1.14 7.71, 0.98 7.51 C0.83 7.3, 0.69 7.08, 0.56 6.85 C0.44 6.63, 0.34 6.38, 0.25 6.13 C0.17 5.88, 0.11 5.62, 0.06 5.36 C0.02 5.1, 0 4.83, 0 4.57 C0 4.31, 0.02 4.04, 0.06 3.78 C0.11 3.52, 0.17 3.26, 0.25 3.01 C0.34 2.76, 0.44 2.51, 0.56 2.28 C0.69 2.06, 0.83 1.83, 0.98 1.63 C1.14 1.43, 1.32 1.24, 1.5 1.07 C1.69 0.9, 1.89 0.74, 2.1 0.61 C2.31 0.48, 2.54 0.37, 2.77 0.28 C3 0.19, 3.24 0.12, 3.48 0.07 C3.72 0.02, 3.96 0, 4.21 0 C4.45 0, 4.7 0.02, 4.94 0.07 C5.18 0.12, 5.42 0.19, 5.65 0.28 C5.87 0.37, 6.1 0.48, 6.31 0.61 C6.52 0.74, 6.72 0.9, 6.91 1.07 C7.1 1.24, 7.27 1.43, 7.43 1.63 C7.59 1.83, 7.73 2.06, 7.85 2.28 C7.97 2.51, 8.08 2.76, 8.16 3.01 C8.24 3.26, 8.31 3.52, 8.35 3.78 C8.39 4.04, 8.4 4.44, 8.41 4.57 C8.42 4.7, 8.42 4.44, 8.41 4.57" stroke="#5f3dc4" stroke-width="1" fill="none"></path></g><g stroke-linecap="round" transform="translate(605.2206972201516 17.68992682753378) rotate(358.1310915065084 3.7296939325749463 3.867855952339596)"><path d="M7.46 3.87 C7.46 4.09, 7.44 4.32, 7.4 4.54 C7.37 4.76, 7.31 4.98, 7.23 5.19 C7.16 5.4, 7.07 5.61, 6.96 5.8 C6.85 6, 6.73 6.18, 6.59 6.35 C6.45 6.53, 6.29 6.69, 6.13 6.83 C5.96 6.97, 5.78 7.11, 5.59 7.22 C5.41 7.33, 5.21 7.43, 5.01 7.5 C4.8 7.58, 4.59 7.64, 4.38 7.68 C4.16 7.72, 3.95 7.74, 3.73 7.74 C3.51 7.74, 3.29 7.72, 3.08 7.68 C2.87 7.64, 2.66 7.58, 2.45 7.5 C2.25 7.43, 2.05 7.33, 1.86 7.22 C1.68 7.11, 1.5 6.97, 1.33 6.83 C1.17 6.69, 1.01 6.53, 0.87 6.35 C0.73 6.18, 0.61 6, 0.5 5.8 C0.39 5.61, 0.3 5.4, 0.22 5.19 C0.15 4.98, 0.09 4.76, 0.06 4.54 C0.02 4.32, 0 4.09, 0 3.87 C0 3.64, 0.02 3.42, 0.06 3.2 C0.09 2.98, 0.15 2.76, 0.22 2.54 C0.3 2.33, 0.39 2.13, 0.5 1.93 C0.61 1.74, 0.73 1.55, 0.87 1.38 C1.01 1.21, 1.17 1.05, 1.33 0.9 C1.5 0.76, 1.68 0.63, 1.86 0.52 C2.05 0.41, 2.25 0.31, 2.45 0.23 C2.66 0.16, 2.87 0.1, 3.08 0.06 C3.29 0.02, 3.51 0, 3.73 0 C3.95 0, 4.16 0.02, 4.38 0.06 C4.59 0.1, 4.8 0.16, 5.01 0.23 C5.21 0.31, 5.41 0.41, 5.59 0.52 C5.78 0.63, 5.96 0.76, 6.13 0.9 C6.29 1.05, 6.45 1.21, 6.59 1.38 C6.73 1.55, 6.85 1.74, 6.96 1.93 C7.07 2.13, 7.16 2.33, 7.23 2.54 C7.31 2.76, 7.37 2.98, 7.4 3.2 C7.44 3.42, 7.45 3.76, 7.46 3.87 C7.47 3.98, 7.47 3.76, 7.46 3.87" stroke="#fff" stroke-width="1" fill="none"></path></g><g stroke-linecap="round" transform="translate(605.9940472661606 49.902535876281036) rotate(358.1310915065084 3.7296939325749463 3.867855952339596)"><path d="M7.46 3.87 C7.46 4.09, 7.44 4.32, 7.4 4.54 C7.37 4.76, 7.31 4.98, 7.23 5.19 C7.16 5.4, 7.07 5.61, 6.96 5.8 C6.85 6, 6.73 6.18, 6.59 6.35 C6.45 6.53, 6.29 6.69, 6.13 6.83 C5.96 6.97, 5.78 7.11, 5.59 7.22 C5.41 7.33, 5.21 7.43, 5.01 7.5 C4.8 7.58, 4.59 7.64, 4.38 7.68 C4.16 7.72, 3.95 7.74, 3.73 7.74 C3.51 7.74, 3.29 7.72, 3.08 7.68 C2.87 7.64, 2.66 7.58, 2.45 7.5 C2.25 7.43, 2.05 7.33, 1.86 7.22 C1.68 7.11, 1.5 6.97, 1.33 6.83 C1.17 6.69, 1.01 6.53, 0.87 6.35 C0.73 6.18, 0.61 6, 0.5 5.8 C0.39 5.61, 0.3 5.4, 0.22 5.19 C0.15 4.98, 0.09 4.76, 0.06 4.54 C0.02 4.32, 0 4.09, 0 3.87 C0 3.64, 0.02 3.42, 0.06 3.2 C0.09 2.98, 0.15 2.76, 0.22 2.54 C0.3 2.33, 0.39 2.13, 0.5 1.93 C0.61 1.74, 0.73 1.55, 0.87 1.38 C1.01 1.21, 1.17 1.05, 1.33 0.9 C1.5 0.76, 1.68 0.63, 1.86 0.52 C2.05 0.41, 2.25 0.31, 2.45 0.23 C2.66 0.16, 2.87 0.1, 3.08 0.06 C3.29 0.02, 3.51 0, 3.73 0 C3.95 0, 4.16 0.02, 4.38 0.06 C4.59 0.1, 4.8 0.16, 5.01 0.23 C5.21 0.31, 5.41 0.41, 5.59 0.52 C5.78 0.63, 5.96 0.76, 6.13 0.9 C6.29 1.05, 6.45 1.21, 6.59 1.38 C6.73 1.55, 6.85 1.74, 6.96 1.93 C7.07 2.13, 7.16 2.33, 7.23 2.54 C7.31 2.76, 7.37 2.98, 7.4 3.2 C7.44 3.42, 7.45 3.76, 7.46 3.87 C7.47 3.98, 7.47 3.76, 7.46 3.87" stroke="#fff" stroke-width="1" fill="none"></path></g><g stroke-linecap="round" transform="translate(620.559526676248 35.16981845848568) rotate(358.1310915065084 3.7246862679369315 3.7725718007777687)"><path d="M7.45 3.77 C7.45 3.99, 7.43 4.21, 7.39 4.43 C7.36 4.64, 7.3 4.86, 7.22 5.06 C7.15 5.27, 7.06 5.47, 6.95 5.66 C6.84 5.85, 6.72 6.03, 6.58 6.2 C6.44 6.36, 6.28 6.52, 6.12 6.66 C5.95 6.8, 5.77 6.93, 5.59 7.04 C5.4 7.15, 5.2 7.24, 5 7.32 C4.8 7.39, 4.58 7.45, 4.37 7.49 C4.16 7.53, 3.94 7.55, 3.72 7.55 C3.51 7.55, 3.29 7.53, 3.08 7.49 C2.87 7.45, 2.65 7.39, 2.45 7.32 C2.25 7.24, 2.05 7.15, 1.86 7.04 C1.68 6.93, 1.5 6.8, 1.33 6.66 C1.17 6.52, 1.01 6.36, 0.87 6.2 C0.73 6.03, 0.61 5.85, 0.5 5.66 C0.39 5.47, 0.3 5.27, 0.22 5.06 C0.15 4.86, 0.09 4.64, 0.06 4.43 C0.02 4.21, 0 3.99, 0 3.77 C0 3.55, 0.02 3.33, 0.06 3.12 C0.09 2.9, 0.15 2.69, 0.22 2.48 C0.3 2.28, 0.39 2.08, 0.5 1.89 C0.61 1.7, 0.73 1.51, 0.87 1.35 C1.01 1.18, 1.17 1.02, 1.33 0.88 C1.5 0.74, 1.68 0.61, 1.86 0.51 C2.05 0.4, 2.25 0.3, 2.45 0.23 C2.65 0.15, 2.87 0.1, 3.08 0.06 C3.29 0.02, 3.51 0, 3.72 0 C3.94 0, 4.16 0.02, 4.37 0.06 C4.58 0.1, 4.8 0.15, 5 0.23 C5.2 0.3, 5.4 0.4, 5.59 0.51 C5.77 0.61, 5.95 0.74, 6.12 0.88 C6.28 1.02, 6.44 1.18, 6.58 1.35 C6.72 1.51, 6.84 1.7, 6.95 1.89 C7.06 2.08, 7.15 2.28, 7.22 2.48 C7.3 2.69, 7.36 2.9, 7.39 3.12 C7.43 3.33, 7.44 3.66, 7.45 3.77 C7.46 3.88, 7.46 3.66, 7.45 3.77" stroke="#fff" stroke-width="1" fill="none"></path></g><g stroke-linecap="round" transform="translate(634.1114535147221 18.25403832498705) rotate(358.1310915065084 3.325364728417753 3.7725718007777687)"><path d="M6.65 3.77 C6.65 3.99, 6.63 4.21, 6.6 4.43 C6.57 4.64, 6.52 4.86, 6.45 5.06 C6.38 5.27, 6.3 5.47, 6.21 5.66 C6.11 5.85, 6 6.03, 5.87 6.2 C5.75 6.36, 5.61 6.52, 5.46 6.66 C5.32 6.8, 5.15 6.93, 4.99 7.04 C4.82 7.15, 4.64 7.24, 4.46 7.32 C4.28 7.39, 4.09 7.45, 3.9 7.49 C3.71 7.53, 3.52 7.55, 3.33 7.55 C3.13 7.55, 2.94 7.53, 2.75 7.49 C2.56 7.45, 2.37 7.39, 2.19 7.32 C2.01 7.24, 1.83 7.15, 1.66 7.04 C1.5 6.93, 1.34 6.8, 1.19 6.66 C1.04 6.52, 0.9 6.36, 0.78 6.2 C0.65 6.03, 0.54 5.85, 0.45 5.66 C0.35 5.47, 0.27 5.27, 0.2 5.06 C0.13 4.86, 0.08 4.64, 0.05 4.43 C0.02 4.21, 0 3.99, 0 3.77 C0 3.55, 0.02 3.33, 0.05 3.12 C0.08 2.9, 0.13 2.69, 0.2 2.48 C0.27 2.28, 0.35 2.08, 0.45 1.89 C0.54 1.7, 0.65 1.51, 0.78 1.35 C0.9 1.18, 1.04 1.02, 1.19 0.88 C1.34 0.74, 1.5 0.61, 1.66 0.51 C1.83 0.4, 2.01 0.3, 2.19 0.23 C2.37 0.15, 2.56 0.1, 2.75 0.06 C2.94 0.02, 3.13 0, 3.33 0 C3.52 0, 3.71 0.02, 3.9 0.06 C4.09 0.1, 4.28 0.15, 4.46 0.23 C4.64 0.3, 4.82 0.4, 4.99 0.51 C5.15 0.61, 5.32 0.74, 5.46 0.88 C5.61 1.02, 5.75 1.18, 5.87 1.35 C6 1.51, 6.11 1.7, 6.21 1.89 C6.3 2.08, 6.38 2.28, 6.45 2.48 C6.52 2.69, 6.57 2.9, 6.6 3.12 C6.63 3.33, 6.64 3.66, 6.65 3.77 C6.66 3.88, 6.66 3.66, 6.65 3.77" stroke="#fff" stroke-width="1" fill="none"></path></g><g stroke-linecap="round" transform="translate(636.6370461514912 51.0642631411356) rotate(358.1310915065084 2.94178474596697 3.7725718007777687)"><path d="M5.88 3.77 C5.88 3.99, 5.87 4.21, 5.84 4.43 C5.81 4.64, 5.76 4.86, 5.71 5.06 C5.65 5.27, 5.57 5.47, 5.49 5.66 C5.4 5.85, 5.3 6.03, 5.2 6.2 C5.09 6.36, 4.96 6.52, 4.83 6.66 C4.7 6.8, 4.56 6.93, 4.41 7.04 C4.27 7.15, 4.11 7.24, 3.95 7.32 C3.79 7.39, 3.62 7.45, 3.45 7.49 C3.28 7.53, 3.11 7.55, 2.94 7.55 C2.77 7.55, 2.6 7.53, 2.43 7.49 C2.26 7.45, 2.1 7.39, 1.94 7.32 C1.78 7.24, 1.62 7.15, 1.47 7.04 C1.32 6.93, 1.18 6.8, 1.05 6.66 C0.92 6.52, 0.8 6.36, 0.69 6.2 C0.58 6.03, 0.48 5.85, 0.39 5.66 C0.31 5.47, 0.24 5.27, 0.18 5.06 C0.12 4.86, 0.07 4.64, 0.04 4.43 C0.02 4.21, 0 3.99, 0 3.77 C0 3.55, 0.02 3.33, 0.04 3.12 C0.07 2.9, 0.12 2.69, 0.18 2.48 C0.24 2.28, 0.31 2.08, 0.39 1.89 C0.48 1.7, 0.58 1.51, 0.69 1.35 C0.8 1.18, 0.92 1.02, 1.05 0.88 C1.18 0.74, 1.32 0.61, 1.47 0.51 C1.62 0.4, 1.78 0.3, 1.94 0.23 C2.1 0.15, 2.26 0.1, 2.43 0.06 C2.6 0.02, 2.77 0, 2.94 0 C3.11 0, 3.28 0.02, 3.45 0.06 C3.62 0.1, 3.79 0.15, 3.95 0.23 C4.11 0.3, 4.27 0.4, 4.41 0.51 C4.56 0.61, 4.7 0.74, 4.83 0.88 C4.96 1.02, 5.09 1.18, 5.2 1.35 C5.3 1.51, 5.4 1.7, 5.49 1.89 C5.57 2.08, 5.65 2.28, 5.71 2.48 C5.76 2.69, 5.81 2.9, 5.84 3.12 C5.87 3.33, 5.88 3.66, 5.88 3.77 C5.89 3.88, 5.89 3.66, 5.88 3.77" stroke="#fff" stroke-width="1" fill="none"></path></g><g stroke-linecap="round" transform="translate(317.08554911634974 108.36840270189168) rotate(0 4.639756944444343 96.76677098469372)"><path d="M2.32 0 L8.7 0.58 L9.28 2.32 L9.28 191.21 L8.7 192.95 L6.96 193.53 L0.58 192.95 L0 191.21 L0 2.32 L0.58 0.58 L2.32 0" stroke="none" stroke-width="0" fill="#b2f2bb"></path><path d="M2.32 0 M2.32 0 C3.87 0, 5.42 0, 6.96 0 M2.32 0 C3.6 0, 4.88 0, 6.96 0 M6.96 0 C8.51 0, 9.28 0.77, 9.28 2.32 M6.96 0 C8.51 0, 9.28 0.77, 9.28 2.32 M9.28 2.32 C9.28 42, 9.28 81.68, 9.28 191.21 M9.28 2.32 C9.28 57, 9.28 111.68, 9.28 191.21 M9.28 191.21 C9.28 192.76, 8.51 193.53, 6.96 193.53 M9.28 191.21 C9.28 192.76, 8.51 193.53, 6.96 193.53 M6.96 193.53 C5.39 193.53, 3.83 193.53, 2.32 193.53 M6.96 193.53 C5.29 193.53, 3.62 193.53, 2.32 193.53 M2.32 193.53 C0.77 193.53, 0 192.76, 0 191.21 M2.32 193.53 C0.77 193.53, 0 192.76, 0 191.21 M0 191.21 C0 123.24, 0 55.27, 0 2.32 M0 191.21 C0 122.23, 0 53.24, 0 2.32 M0 2.32 C0 0.77, 0.77 0, 2.32 0 M0 2.32 C0 0.77, 0.77 0, 2.32 0" stroke="#2f9e44" stroke-width="1" fill="none"></path></g><g mask="url(#mask-jbj5nH4--5vhyYmRVzygw)" stroke-linecap="round"><g transform="translate(331.30344844896035 167.07144069779497) rotate(0 140.17547444325646 -1.0002539816732678)"><path d="M0 0 C46.73 -0.33, 233.63 -1.67, 280.35 -2 M0 0 C46.73 -0.33, 233.63 -1.67, 280.35 -2" stroke="#000000" stroke-width="1" fill="none"></path></g><g transform="translate(331.30344844896035 167.07144069779497) rotate(0 140.17547444325646 -1.0002539816732678)"><path d="M0 0 L13.55 -6.44 L13.64 6.24 L0 0" stroke="none" stroke-width="0" fill="#000000" fill-rule="evenodd"></path><path d="M0 0 C4.11 -1.95, 8.22 -3.9, 13.55 -6.44 M0 0 C3.55 -1.69, 7.11 -3.38, 13.55 -6.44 M13.55 -6.44 C13.57 -3.45, 13.59 -0.47, 13.64 6.24 M13.55 -6.44 C13.58 -2.3, 13.61 1.84, 13.64 6.24 M13.64 6.24 C10.57 4.84, 7.5 3.43, 0 0 M13.64 6.24 C9.54 4.36, 5.43 2.49, 0 0 M0 0 C0 0, 0 0, 0 0 M0 0 C0 0, 0 0, 0 0" stroke="#000000" stroke-width="1" fill="none"></path></g></g><mask id="mask-jbj5nH4--5vhyYmRVzygw"><rect x="0" y="0" fill="#fff" width="711.654397335473" height="269.0719486611406"></rect><rect x="403.1109800821582" y="156.0711867161226" fill="#000" width="136.7358856201172" height="20" opacity="1"></rect></mask><g transform="translate(403.1109800821582 156.0711867161226) rotate(0 68.3679428100586 9.99999999999909)"><text x="68.3679428100586" y="0" font-family="Virgil, Segoe UI Emoji" font-size="16px" fill="#000000" text-anchor="middle" style="white-space: pre;" direction="ltr" dominant-baseline="text-before-edge">add easyapp API</text></g><g transform="translate(284.74760024835723 10.422083971363463) rotate(0 42.58995819091797 25)"><text x="42.58995819091797" y="0" font-family="Virgil, Segoe UI Emoji" font-size="20px" fill="#000000" text-anchor="middle" style="white-space: pre;" direction="ltr" dominant-baseline="text-before-edge">Platform</text><text x="42.58995819091797" y="25" font-family="Virgil, Segoe UI Emoji" font-size="20px" fill="#000000" text-anchor="middle" style="white-space: pre;" direction="ltr" dominant-baseline="text-before-edge">Cluster</text></g><g stroke-linecap="round"><g transform="translate(621.8798461822448 66.61009681209543) rotate(0 0 368.3407109514892)"><path d="M0 0 C0 172.09, 0 344.19, 0 736.68 M0 0 C0 258.92, 0 517.84, 0 736.68" stroke="#000000" stroke-width="1" fill="none"></path></g></g><mask></mask><g mask="url(#mask-41RDYY2bdyHm41xovqR6y)" stroke-linecap="round"><g transform="translate(620.7244380052384 129.48365627478597) rotate(0 -147.33940868872924 0)"><path d="M0 0 C-49.11 0, -245.57 0, -294.68 0 M0 0 C-49.11 0, -245.57 0, -294.68 0" stroke="#000000" stroke-width="1" fill="none"></path></g><g transform="translate(620.7244380052384 129.48365627478597) rotate(0 -147.33940868872924 0)"><path d="M0 0 L-13.59 6.34 L-13.59 -6.34 L0 0" stroke="none" stroke-width="0" fill="#000000" fill-rule="evenodd"></path><path d="M0 0 C-4.21 1.96, -8.41 3.92, -13.59 6.34 M0 0 C-4.23 1.97, -8.46 3.94, -13.59 6.34 M-13.59 6.34 C-13.59 2.63, -13.59 -1.07, -13.59 -6.34 M-13.59 6.34 C-13.59 2.66, -13.59 -1.01, -13.59 -6.34 M-13.59 -6.34 C-8.9 -4.15, -4.2 -1.96, 0 0 M-13.59 -6.34 C-8.47 -3.95, -3.35 -1.56, 0 0 M0 0 C0 0, 0 0, 0 0 M0 0 C0 0, 0 0, 0 0" stroke="#000000" stroke-width="1" fill="none"></path></g></g><mask id="mask-41RDYY2bdyHm41xovqR6y"><rect x="0" y="0" fill="#fff" width="1015.4032553826971" height="229.48365627478597"></rect><rect x="383.1050992017631" y="119.48365627478597" fill="#000" width="180.5598602294922" height="20" opacity="1"></rect></mask><g transform="translate(383.1050992017631 119.48365627478597) rotate(0 90.2799301147461 10)"><text x="90.2799301147461" y="0" font-family="Virgil, Segoe UI Emoji" font-size="16px" fill="#000000" text-anchor="middle" style="white-space: pre;" direction="ltr" dominant-baseline="text-before-edge">install easyapp promise</text></g><g stroke-linecap="round" transform="translate(618.333953127039 126.04438578266672) rotate(0 4.639756944444343 91.34122729265073)"><path d="M2.32 0 L8.7 0.58 L9.28 2.32 L9.28 180.36 L8.7 182.1 L6.96 182.68 L0.58 182.1 L0 180.36 L0 2.32 L0.58 0.58 L2.32 0" stroke="none" stroke-width="0" fill="#b2f2bb"></path><path d="M2.32 0 M2.32 0 C3.59 0, 4.86 0, 6.96 0 M2.32 0 C3.67 0, 5.01 0, 6.96 0 M6.96 0 C8.51 0, 9.28 0.77, 9.28 2.32 M6.96 0 C8.51 0, 9.28 0.77, 9.28 2.32 M9.28 2.32 C9.28 72.07, 9.28 141.82, 9.28 180.36 M9.28 2.32 C9.28 69.39, 9.28 136.45, 9.28 180.36 M9.28 180.36 C9.28 181.91, 8.51 182.68, 6.96 182.68 M9.28 180.36 C9.28 181.91, 8.51 182.68, 6.96 182.68 M6.96 182.68 C5.92 182.68, 4.89 182.68, 2.32 182.68 M6.96 182.68 C5.97 182.68, 4.98 182.68, 2.32 182.68 M2.32 182.68 C0.77 182.68, 0 181.91, 0 180.36 M2.32 182.68 C0.77 182.68, 0 181.91, 0 180.36 M0 180.36 C0 137.09, 0 93.81, 0 2.32 M0 180.36 C0 115.4, 0 50.43, 0 2.32 M0 2.32 C0 0.77, 0.77 0, 2.32 0 M0 2.32 C0 0.77, 0.77 0, 2.32 0" stroke="#2f9e44" stroke-width="1" fill="none"></path></g><g mask="url(#mask-eJJkICXlma4-OHveXZ2nP)" stroke-linecap="round"><g transform="translate(329.6621239238334 228.91690140374885) rotate(0 141.6163987634543 0.15792290340050386)"><path d="M0 0 C47.21 0.05, 236.03 0.26, 283.23 0.32 M0 0 C47.21 0.05, 236.03 0.26, 283.23 0.32" stroke="#228be6" stroke-width="1" fill="none"></path></g><g transform="translate(329.6621239238334 228.91690140374885) rotate(0 141.6163987634543 0.15792290340050386)"><path d="M0 0 L13.6 -6.32 L13.59 6.35 L0 0" stroke="none" stroke-width="0" fill="#228be6" fill-rule="evenodd"></path><path d="M0 0 C2.77 -1.29, 5.54 -2.58, 13.6 -6.32 M0 0 C4.13 -1.92, 8.26 -3.84, 13.6 -6.32 M13.6 -6.32 C13.6 -2.72, 13.59 0.88, 13.59 6.35 M13.6 -6.32 C13.6 -2.28, 13.59 1.76, 13.59 6.35 M13.59 6.35 C9.98 4.67, 6.36 2.98, 0 0 M13.59 6.35 C9.25 4.33, 4.92 2.3, 0 0 M0 0 C0 0, 0 0, 0 0 M0 0 C0 0, 0 0, 0 0" stroke="#228be6" stroke-width="1" fill="none"></path></g></g><mask id="mask-eJJkICXlma4-OHveXZ2nP"><rect x="0" y="0" fill="#fff" width="712.894921450742" height="329.23274721054986"></rect><rect x="365.89458866629184" y="209.07482430715027" fill="#000" width="210.7678680419922" height="40" opacity="1"></rect></mask><g transform="translate(365.89458866629184 209.07482430715027) rotate(0 105.38393402099587 19.99999999999909)"><text x="105.3839340209961" y="0" font-family="Virgil, Segoe UI Emoji" font-size="16px" fill="#228be6" text-anchor="middle" style="white-space: pre;" direction="ltr" dominant-baseline="text-before-edge">get destinations with label</text><text x="105.3839340209961" y="20" font-family="Virgil, Segoe UI Emoji" font-size="16px" fill="#228be6" text-anchor="middle" style="white-space: pre;" direction="ltr" dominant-baseline="text-before-edge">environment = platform</text></g><g mask="url(#mask-QtPLxN9hED-5YjJWQtXHF)" stroke-linecap="round"><g transform="translate(614.979096139064 265.26899479551685) rotate(0 -143.92200940863336 -1.3898633662201973)"><path d="M0 0 C-47.97 -0.46, -239.87 -2.32, -287.84 -2.78" stroke="#4dabf7" stroke-width="1.5" fill="none" stroke-dasharray="8 9"></path></g><g transform="translate(614.979096139064 265.26899479551685) rotate(0 -143.92200940863336 -1.3898633662201973)"><path d="M0 0 L-13.66 6.21 L-13.53 -6.47 L0 0" stroke="none" stroke-width="0" fill="#4dabf7" fill-rule="evenodd"></path><path d="M0 0 C-5.11 2.32, -10.22 4.65, -13.66 6.21 M-13.66 6.21 C-13.61 1.92, -13.57 -2.37, -13.53 -6.47 M-13.53 -6.47 C-8.52 -4.07, -3.51 -1.68, 0 0 M0 0 C0 0, 0 0, 0 0" stroke="#4dabf7" stroke-width="1.5" fill="none"></path></g></g><mask id="mask-QtPLxN9hED-5YjJWQtXHF"><rect x="0" y="0" fill="#fff" width="1002.8231149563309" height="368.04872152795724"></rect><rect x="391.76915338082154" y="253.87913142929756" fill="#000" width="158.57586669921875" height="20" opacity="1"></rect></mask><g transform="translate(391.76915338082154 253.87913142929756) rotate(0 79.28793334960915 9.99999999999909)"><text x="79.28793334960938" y="0" font-family="Virgil, Segoe UI Emoji" font-size="16px" fill="#4dabf7" text-anchor="middle" style="white-space: pre;" direction="ltr" dominant-baseline="text-before-edge">[ platform-cluster ]</text></g><g stroke-linecap="round"><g transform="translate(952.6274479817371 69.47203860186892) rotate(0 0 366.3262855032226)"><path d="M0 0 C0 122.11, 0 610.54, 0 732.65 M0 0 C0 122.11, 0 610.54, 0 732.65" stroke="#000000" stroke-width="1" fill="none"></path></g></g><mask></mask><g stroke-linecap="round" transform="translate(924.8109360620488 7.465965870342188) rotate(269.94514152181193 24.939647126504724 27.5)"><path d="M12.47 0 L40.33 0.19 L45.01 1.75 L48.13 4.87 L49.88 12.47 L49.88 42.53 L49.1 47.99 L48.13 50.13 L45.01 53.25 L37.41 55 L9.55 54.81 L4.87 53.25 L1.75 50.13 L0 42.53 L0.19 9.55 L1.75 4.87 L3.12 3.12 L7.01 0.78 L12.47 0" stroke="none" stroke-width="0" fill="#ced4da"></path><path d="M12.47 0 M12.47 0 C21.52 0, 30.57 0, 37.41 0 M12.47 0 C18.5 0, 24.53 0, 37.41 0 M37.41 0 C45.72 0, 49.88 4.16, 49.88 12.47 M37.41 0 C45.72 0, 49.88 4.16, 49.88 12.47 M49.88 12.47 C49.88 24.14, 49.88 35.81, 49.88 42.53 M49.88 12.47 C49.88 19.75, 49.88 27.04, 49.88 42.53 M49.88 42.53 C49.88 50.84, 45.72 55, 37.41 55 M49.88 42.53 C49.88 50.84, 45.72 55, 37.41 55 M37.41 55 C30.22 55, 23.03 55, 12.47 55 M37.41 55 C28.11 55, 18.82 55, 12.47 55 M12.47 55 C4.16 55, 0 50.84, 0 42.53 M12.47 55 C4.16 55, 0 50.84, 0 42.53 M0 42.53 C0 31.29, 0 20.06, 0 12.47 M0 42.53 C0 32.87, 0 23.21, 0 12.47 M0 12.47 C0 4.16, 4.16 0, 12.47 0 M0 12.47 C0 4.16, 4.16 0, 12.47 0" stroke="#343a40" stroke-width="1" fill="none"></path></g><g transform="translate(931.9846082060344 25.123387444440596) rotate(0 17.47582244873047 14.807329586401465)"><text x="17.47582244873047" y="0" font-family="Virgil, Segoe UI Emoji" font-size="11.845863669120858px" fill="#343a40" text-anchor="middle" style="white-space: pre;" direction="ltr" dominant-baseline="text-before-edge">State</text><text x="17.47582244873047" y="14.807329586401073" font-family="Virgil, Segoe UI Emoji" font-size="11.845863669120858px" fill="#343a40" text-anchor="middle" style="white-space: pre;" direction="ltr" dominant-baseline="text-before-edge">Store</text></g><g mask="url(#mask-TIYsrObgCTtyoqG9LYoF9)" stroke-linecap="round"><g transform="translate(944.6166403272268 284.96850537433966) rotate(0 -156.7847776623471 0)"><path d="M0 0 C-52.26 0, -261.31 0, -313.57 0 M0 0 C-52.26 0, -261.31 0, -313.57 0" stroke="#000000" stroke-width="1" fill="none"></path></g><g transform="translate(944.6166403272268 284.96850537433966) rotate(0 -156.7847776623471 0)"><path d="M0 0 L-13.59 6.34 L-13.59 -6.34 L0 0" stroke="none" stroke-width="0" fill="#000000" fill-rule="evenodd"></path><path d="M0 0 C-4.28 1.99, -8.55 3.99, -13.59 6.34 M0 0 C-3.94 1.84, -7.87 3.67, -13.59 6.34 M-13.59 6.34 C-13.59 1.69, -13.59 -2.96, -13.59 -6.34 M-13.59 6.34 C-13.59 1.77, -13.59 -2.8, -13.59 -6.34 M-13.59 -6.34 C-9.76 -4.55, -5.92 -2.76, 0 0 M-13.59 -6.34 C-8.63 -4.02, -3.66 -1.71, 0 0 M0 0 C0 0, 0 0, 0 0 M0 0 C0 0, 0 0, 0 0" stroke="#000000" stroke-width="1" fill="none"></path></g></g><mask id="mask-TIYsrObgCTtyoqG9LYoF9"><rect x="0" y="0" fill="#fff" width="1358.1861956519208" height="384.96850537433966"></rect><rect x="716.535910821618" y="254.96850537433966" fill="#000" width="142.59190368652344" height="60" opacity="1"></rect></mask><g transform="translate(716.535910821618 254.96850537433966) rotate(0 71.29595184326172 30)"><text x="71.29595184326172" y="0" font-family="Virgil, Segoe UI Emoji" font-size="16px" fill="#000000" text-anchor="middle" style="white-space: pre;" direction="ltr" dominant-baseline="text-before-edge">schedule easyapp </text><text x="71.29595184326172" y="20" font-family="Virgil, Segoe UI Emoji" font-size="16px" fill="#000000" text-anchor="middle" style="white-space: pre;" direction="ltr" dominant-baseline="text-before-edge">dependencies to </text><text x="71.29595184326172" y="40" font-family="Virgil, Segoe UI Emoji" font-size="16px" fill="#000000" text-anchor="middle" style="white-space: pre;" direction="ltr" dominant-baseline="text-before-edge">platform-cluster</text></g><g stroke-linecap="round" transform="translate(601.7342991014307 328.91644823292336) rotate(0 22.851780042349674 15.474392658202305)"><path d="M7.74 0 L37.97 0 L41.35 0.48 L43.77 1.93 L45.22 4.35 L45.7 7.74 L45.7 23.21 L45.22 26.6 L43.77 29.01 L41.35 30.47 L37.97 30.95 L7.74 30.95 L4.35 30.47 L1.93 29.01 L0.48 26.6 L0 23.21 L0.48 4.35 L1.93 1.93 L4.35 0.48 L7.74 0" stroke="none" stroke-width="0" fill="white"></path><path d="M7.74 0 M7.74 0 C16.27 0, 24.81 0, 37.97 0 M7.74 0 C16.98 0, 26.22 0, 37.97 0 M37.97 0 C43.12 0, 45.7 2.58, 45.7 7.74 M37.97 0 C43.12 0, 45.7 2.58, 45.7 7.74 M45.7 7.74 C45.7 13.77, 45.7 19.8, 45.7 23.21 M45.7 7.74 C45.7 12.83, 45.7 17.92, 45.7 23.21 M45.7 23.21 C45.7 28.37, 43.12 30.95, 37.97 30.95 M45.7 23.21 C45.7 28.37, 43.12 30.95, 37.97 30.95 M37.97 30.95 C30.48 30.95, 22.99 30.95, 7.74 30.95 M37.97 30.95 C30.94 30.95, 23.92 30.95, 7.74 30.95 M7.74 30.95 C2.58 30.95, 0 28.37, 0 23.21 M7.74 30.95 C2.58 30.95, 0 28.37, 0 23.21 M0 23.21 C0 19.28, 0 15.34, 0 7.74 M0 23.21 C0 19.03, 0 14.84, 0 7.74 M0 7.74 C0 2.58, 2.58 0, 7.74 0 M0 7.74 C0 2.58, 2.58 0, 7.74 0" stroke="transparent" stroke-width="1" fill="none"></path></g><g stroke-linecap="round" transform="translate(598.4438657037804 566.427032097401) rotate(0 22.851780042349674 15.474392658202305)"><path d="M7.74 0 L37.97 0 L41.35 0.48 L43.77 1.93 L45.22 4.35 L45.7 7.74 L45.7 23.21 L45.22 26.6 L43.77 29.01 L41.35 30.47 L37.97 30.95 L7.74 30.95 L4.35 30.47 L1.93 29.01 L0.48 26.6 L0 23.21 L0.48 4.35 L1.93 1.93 L4.35 0.48 L7.74 0" stroke="none" stroke-width="0" fill="white"></path><path d="M7.74 0 M7.74 0 C18.07 0, 28.4 0, 37.97 0 M7.74 0 C19.23 0, 30.73 0, 37.97 0 M37.97 0 C43.12 0, 45.7 2.58, 45.7 7.74 M37.97 0 C43.12 0, 45.7 2.58, 45.7 7.74 M45.7 7.74 C45.7 12.93, 45.7 18.12, 45.7 23.21 M45.7 7.74 C45.7 12.51, 45.7 17.29, 45.7 23.21 M45.7 23.21 C45.7 28.37, 43.12 30.95, 37.97 30.95 M45.7 23.21 C45.7 28.37, 43.12 30.95, 37.97 30.95 M37.97 30.95 C30.68 30.95, 23.39 30.95, 7.74 30.95 M37.97 30.95 C30.11 30.95, 22.25 30.95, 7.74 30.95 M7.74 30.95 C2.58 30.95, 0 28.37, 0 23.21 M7.74 30.95 C2.58 30.95, 0 28.37, 0 23.21 M0 23.21 C0 17.6, 0 11.98, 0 7.74 M0 23.21 C0 18.01, 0 12.81, 0 7.74 M0 7.74 C0 2.58, 2.58 0, 7.74 0 M0 7.74 C0 2.58, 2.58 0, 7.74 0" stroke="transparent" stroke-width="1" fill="none"></path></g><g mask="url(#mask-zSa_8ape79RtK-QvwaPdn)" stroke-linecap="round"><g transform="translate(330.33693051624914 582.5837567916151) rotate(0 308.29515252319607 0)"><path d="M0 0 C102.77 0, 513.83 0, 616.59 0 M0 0 C102.77 0, 513.83 0, 616.59 0" stroke="#000000" stroke-width="1" fill="none"></path></g><g transform="translate(330.33693051624914 582.5837567916151) rotate(0 308.29515252319607 0)"><path d="M0 0 L13.59 -6.34 L13.59 6.34 L0 0" stroke="none" stroke-width="0" fill="#000000" fill-rule="evenodd"></path><path d="M0 0 C3.64 -1.7, 7.28 -3.39, 13.59 -6.34 M0 0 C3.84 -1.79, 7.68 -3.58, 13.59 -6.34 M13.59 -6.34 C13.59 -1.63, 13.59 3.09, 13.59 6.34 M13.59 -6.34 C13.59 -1.33, 13.59 3.67, 13.59 6.34 M13.59 6.34 C8.35 3.9, 3.11 1.45, 0 0 M13.59 6.34 C8.71 4.06, 3.83 1.79, 0 0 M0 0 C0 0, 0 0, 0 0 M0 0 C0 0, 0 0, 0 0" stroke="#000000" stroke-width="1" fill="none"></path></g></g><mask id="mask-zSa_8ape79RtK-QvwaPdn"><rect x="0" y="0" fill="#fff" width="1046.927235562641" height="682.5837567916151"></rect><rect x="532.3361540843671" y="572.5837567916151" fill="#000" width="212.59185791015625" height="20" opacity="1"></rect></mask><g transform="translate(532.3361540843671 572.5837567916151) rotate(0 106.29592895507812 10)"><text x="106.29592895507812" y="0" font-family="Virgil, Segoe UI Emoji" font-size="16px" fill="#000000" text-anchor="middle" style="white-space: pre;" direction="ltr" dominant-baseline="text-before-edge">install PostgreSQL Promise</text></g><g mask="url(#mask-un0NFUkjnyGeAsl86uw08)" stroke-linecap="round"><g transform="translate(332.39816444604776 648.000346518329) rotate(0 140.5165368712435 -0.07497783529834123)"><path d="M0 0 C46.84 -0.02, 234.19 -0.12, 281.03 -0.15 M0 0 C46.84 -0.02, 234.19 -0.12, 281.03 -0.15" stroke="#000000" stroke-width="1" fill="none"></path></g><g transform="translate(332.39816444604776 648.000346518329) rotate(0 140.5165368712435 -0.07497783529834123)"><path d="M0 0 L13.59 -6.35 L13.6 6.33 L0 0" stroke="none" stroke-width="0" fill="#000000" fill-rule="evenodd"></path><path d="M0 0 C2.97 -1.39, 5.95 -2.78, 13.59 -6.35 M0 0 C4.25 -1.99, 8.51 -3.97, 13.59 -6.35 M13.59 -6.35 C13.59 -3.13, 13.59 0.08, 13.6 6.33 M13.59 -6.35 C13.59 -3.75, 13.59 -1.16, 13.6 6.33 M13.6 6.33 C9.13 4.25, 4.67 2.17, 0 0 M13.6 6.33 C8.77 4.08, 3.94 1.83, 0 0 M0 0 C0 0, 0 0, 0 0 M0 0 C0 0, 0 0, 0 0" stroke="#000000" stroke-width="1" fill="none"></path></g></g><mask id="mask-un0NFUkjnyGeAsl86uw08"><rect x="0" y="0" fill="#fff" width="713.4312381885347" height="748.1503021889257"></rect><rect x="389.8747614369199" y="637.9253686830307" fill="#000" width="166.0798797607422" height="20" opacity="1"></rect></mask><g transform="translate(389.8747614369199 637.9253686830307) rotate(0 83.03993988037132 10)"><text x="83.0399398803711" y="0" font-family="Virgil, Segoe UI Emoji" font-size="16px" fill="#000000" text-anchor="middle" style="white-space: pre;" direction="ltr" dominant-baseline="text-before-edge">add PostgreSQL API</text></g><g stroke-linecap="round" transform="translate(318.02887166391474 563.4741577591594) rotate(0 4.639756944444343 93.73176676208641)"><path d="M2.32 0 L6.96 0 L8.7 0.58 L9.28 2.32 L9.28 185.14 L8.7 186.88 L6.96 187.46 L2.32 187.46 L0.58 186.88 L0 185.14 L0 2.32 L0.58 0.58 L2.32 0" stroke="none" stroke-width="0" fill="#a5d8ff"></path><path d="M2.32 0 M2.32 0 C4.09 0, 5.86 0, 6.96 0 M2.32 0 C3.33 0, 4.34 0, 6.96 0 M6.96 0 C8.51 0, 9.28 0.77, 9.28 2.32 M6.96 0 C8.51 0, 9.28 0.77, 9.28 2.32 M9.28 2.32 C9.28 44.29, 9.28 86.27, 9.28 185.14 M9.28 2.32 C9.28 67.03, 9.28 131.75, 9.28 185.14 M9.28 185.14 C9.28 186.69, 8.51 187.46, 6.96 187.46 M9.28 185.14 C9.28 186.69, 8.51 187.46, 6.96 187.46 M6.96 187.46 C5.97 187.46, 4.99 187.46, 2.32 187.46 M6.96 187.46 C5.76 187.46, 4.56 187.46, 2.32 187.46 M2.32 187.46 C0.77 187.46, 0 186.69, 0 185.14 M2.32 187.46 C0.77 187.46, 0 186.69, 0 185.14 M0 185.14 C0 120.05, 0 54.96, 0 2.32 M0 185.14 C0 147.05, 0 108.96, 0 2.32 M0 2.32 C0 0.77, 0.77 0, 2.32 0 M0 2.32 C0 0.77, 0.77 0, 2.32 0" stroke="#1971c2" stroke-width="1" fill="none"></path></g><g mask="url(#mask-pTqXjOme9TG93W5hhShGI)" stroke-linecap="round"><g transform="translate(615.164011553411 621.8493234453781) rotate(0 -141.92258748178847 0.07648836841872253)"><path d="M0 0 C-47.31 0.03, -236.54 0.13, -283.85 0.15 M0 0 C-47.31 0.03, -236.54 0.13, -283.85 0.15" stroke="#000000" stroke-width="1" fill="none"></path></g><g transform="translate(615.164011553411 621.8493234453781) rotate(0 -141.92258748178847 0.07648836841872253)"><path d="M0 0 L-13.59 6.35 L-13.6 -6.33 L0 0" stroke="none" stroke-width="0" fill="#000000" fill-rule="evenodd"></path><path d="M0 0 C-3.43 1.6, -6.86 3.2, -13.59 6.35 M0 0 C-3.71 1.73, -7.42 3.46, -13.59 6.35 M-13.59 6.35 C-13.59 1.83, -13.6 -2.68, -13.6 -6.33 M-13.59 6.35 C-13.59 1.89, -13.6 -2.57, -13.6 -6.33 M-13.6 -6.33 C-8.93 -4.16, -4.27 -1.99, 0 0 M-13.6 -6.33 C-9.53 -4.44, -5.46 -2.54, 0 0 M0 0 C0 0, 0 0, 0 0 M0 0 C0 0, 0 0, 0 0" stroke="#000000" stroke-width="1" fill="none"></path></g></g><mask id="mask-pTqXjOme9TG93W5hhShGI"><rect x="0" y="0" fill="#fff" width="999.0091865169879" height="722.0023001822155"></rect><rect x="368.28949688656394" y="611.9258118137968" fill="#000" width="209.9038543701172" height="20" opacity="1"></rect></mask><g transform="translate(368.28949688656394 611.9258118137968) rotate(0 104.9519271850586 10)"><text x="104.9519271850586" y="0" font-family="Virgil, Segoe UI Emoji" font-size="16px" fill="#000000" text-anchor="middle" style="white-space: pre;" direction="ltr" dominant-baseline="text-before-edge">install PostgreSQL promise</text></g><g mask="url(#mask-GzC_QsRJ_lbbL44T917zA)" stroke-linecap="round"><g transform="translate(953.3440155343692 755.6859029800562) rotate(0 -161.78493126552075 -0.07723247002832068)"><path d="M0 0 C-53.93 -0.03, -269.64 -0.13, -323.57 -0.15 M0 0 C-53.93 -0.03, -269.64 -0.13, -323.57 -0.15" stroke="#000000" stroke-width="1" fill="none"></path></g><g transform="translate(953.3440155343692 755.6859029800562) rotate(0 -161.78493126552075 -0.07723247002832068)"><path d="M0 0 L-13.6 6.33 L-13.59 -6.35 L0 0" stroke="none" stroke-width="0" fill="#000000" fill-rule="evenodd"></path><path d="M0 0 C-4.53 2.11, -9.06 4.22, -13.6 6.33 M0 0 C-5.02 2.34, -10.03 4.67, -13.6 6.33 M-13.6 6.33 C-13.6 3.15, -13.59 -0.03, -13.59 -6.35 M-13.6 6.33 C-13.6 2.27, -13.59 -1.79, -13.59 -6.35 M-13.59 -6.35 C-8.92 -4.17, -4.26 -1.99, 0 0 M-13.59 -6.35 C-10.42 -4.86, -7.25 -3.38, 0 0 M0 0 C0 0, 0 0, 0 0 M0 0 C0 0, 0 0, 0 0" stroke="#000000" stroke-width="1" fill="none"></path></g></g><mask id="mask-GzC_QsRJ_lbbL44T917zA"><rect x="0" y="0" fill="#fff" width="1376.913878065411" height="855.8403679201128"></rect><rect x="705.5911353552742" y="725.6086705100279" fill="#000" width="171.93589782714844" height="60" opacity="1"></rect></mask><g transform="translate(705.5911353552742 725.6086705100279) rotate(0 85.96794891357422 30)"><text x="85.96794891357422" y="0" font-family="Virgil, Segoe UI Emoji" font-size="16px" fill="#000000" text-anchor="middle" style="white-space: pre;" direction="ltr" dominant-baseline="text-before-edge">schedule PostgreSQL </text><text x="85.96794891357422" y="20" font-family="Virgil, Segoe UI Emoji" font-size="16px" fill="#000000" text-anchor="middle" style="white-space: pre;" direction="ltr" dominant-baseline="text-before-edge">dependencies to </text><text x="85.96794891357422" y="40" font-family="Virgil, Segoe UI Emoji" font-size="16px" fill="#000000" text-anchor="middle" style="white-space: pre;" direction="ltr" dominant-baseline="text-before-edge">worker-cluster</text></g><g stroke-linecap="round" transform="translate(617.6527943804408 617.3222015691244) rotate(0 4.639756944444343 72.17862661749132)"><path d="M2.32 0 L8.7 0.58 L9.28 2.32 L9.28 142.04 L8.7 143.78 L6.96 144.36 L0.58 143.78 L0 142.04 L0 2.32 L0.58 0.58 L2.32 0" stroke="none" stroke-width="0" fill="#a5d8ff"></path><path d="M2.32 0 M2.32 0 C4.11 0, 5.9 0, 6.96 0 M2.32 0 C3.3 0, 4.29 0, 6.96 0 M6.96 0 C8.51 0, 9.28 0.77, 9.28 2.32 M6.96 0 C8.51 0, 9.28 0.77, 9.28 2.32 M9.28 2.32 C9.28 48.68, 9.28 95.04, 9.28 142.04 M9.28 2.32 C9.28 32.49, 9.28 62.65, 9.28 142.04 M9.28 142.04 C9.28 143.58, 8.51 144.36, 6.96 144.36 M9.28 142.04 C9.28 143.58, 8.51 144.36, 6.96 144.36 M6.96 144.36 C5.3 144.36, 3.64 144.36, 2.32 144.36 M6.96 144.36 C5.79 144.36, 4.62 144.36, 2.32 144.36 M2.32 144.36 C0.77 144.36, 0 143.58, 0 142.04 M2.32 144.36 C0.77 144.36, 0 143.58, 0 142.04 M0 142.04 C0 103.47, 0 64.91, 0 2.32 M0 142.04 C0 93.11, 0 44.17, 0 2.32 M0 2.32 C0 0.77, 0.77 0, 2.32 0 M0 2.32 C0 0.77, 0.77 0, 2.32 0" stroke="#1971c2" stroke-width="1" fill="none"></path></g><g mask="url(#mask-8G1JyG5qu0M6m93PlQ4v3)" stroke-linecap="round"><g transform="translate(330.62314038448267 699.2929997927931) rotate(0 141.80871807616973 0.364922743337047)"><path d="M0 0 C47.27 0.12, 236.35 0.61, 283.62 0.73 M0 0 C47.27 0.12, 236.35 0.61, 283.62 0.73" stroke="#228be6" stroke-width="1" fill="none"></path></g><g transform="translate(330.62314038448267 699.2929997927931) rotate(0 141.80871807616973 0.364922743337047)"><path d="M0 0 L13.61 -6.3 L13.58 6.37 L0 0" stroke="none" stroke-width="0" fill="#228be6" fill-rule="evenodd"></path><path d="M0 0 C5.02 -2.32, 10.04 -4.65, 13.61 -6.3 M0 0 C2.79 -1.29, 5.58 -2.59, 13.61 -6.3 M13.61 -6.3 C13.6 -3.75, 13.6 -1.2, 13.58 6.37 M13.61 -6.3 C13.6 -3.32, 13.6 -0.34, 13.58 6.37 M13.58 6.37 C9.22 4.33, 4.86 2.28, 0 0 M13.58 6.37 C9 4.23, 4.43 2.08, 0 0 M0 0 C0 0, 0 0, 0 0 M0 0 C0 0, 0 0, 0 0" stroke="#228be6" stroke-width="1" fill="none"></path></g></g><mask id="mask-8G1JyG5qu0M6m93PlQ4v3"><rect x="0" y="0" fill="#fff" width="714.2405765368221" height="800.0228452794672"></rect><rect x="367.0479244396561" y="679.6579225361311" fill="#000" width="210.7678680419922" height="40" opacity="1"></rect></mask><g transform="translate(367.0479244396561 679.6579225361311) rotate(0 105.38393402099632 19.99999999999909)"><text x="105.3839340209961" y="0" font-family="Virgil, Segoe UI Emoji" font-size="16px" fill="#228be6" text-anchor="middle" style="white-space: pre;" direction="ltr" dominant-baseline="text-before-edge">get destinations with label</text><text x="105.3839340209961" y="20" font-family="Virgil, Segoe UI Emoji" font-size="16px" fill="#228be6" text-anchor="middle" style="white-space: pre;" direction="ltr" dominant-baseline="text-before-edge">environment = dev</text></g><g mask="url(#mask-Kmb4KbgEzpp_W58aAnnx3)" stroke-linecap="round"><g transform="translate(610.263252821243 746.6428739228613) rotate(0 -144.11432872134878 -1.5982187802646877)"><path d="M0 0 C-48.04 -0.53, -240.19 -2.66, -288.23 -3.2" stroke="#4dabf7" stroke-width="1.5" fill="none" stroke-dasharray="8 9"></path></g><g transform="translate(610.263252821243 746.6428739228613) rotate(0 -144.11432872134878 -1.5982187802646877)"><path d="M0 0 L-13.66 6.19 L-13.52 -6.49 L0 0" stroke="none" stroke-width="0" fill="#4dabf7" fill-rule="evenodd"></path><path d="M0 0 C-3.25 1.47, -6.49 2.94, -13.66 6.19 M-13.66 6.19 C-13.63 3.04, -13.59 -0.11, -13.52 -6.49 M-13.52 -6.49 C-8.82 -4.23, -4.12 -1.98, 0 0 M0 0 C0 0, 0 0, 0 0" stroke="#4dabf7" stroke-width="1.5" fill="none"></path></g></g><mask id="mask-Kmb4KbgEzpp_W58aAnnx3"><rect x="0" y="0" fill="#fff" width="998.4919102639407" height="849.8393114833907"></rect><rect x="395.13297866532366" y="735.0446551425957" fill="#000" width="142.03189086914062" height="20" opacity="1"></rect></mask><g transform="translate(395.13297866532366 735.0446551425957) rotate(0 71.01594543457054 10.00000000000091)"><text x="71.01594543457031" y="0" font-family="Virgil, Segoe UI Emoji" font-size="16px" fill="#4dabf7" text-anchor="middle" style="white-space: pre;" direction="ltr" dominant-baseline="text-before-edge">[ worker-cluster ]</text></g><g stroke-linecap="round" transform="translate(595.9762583228089 315.9001602732096) rotate(0 22.851780042349674 15.474392658202305)"><path d="M7.74 0 L37.97 0 L41.35 0.48 L43.77 1.93 L45.22 4.35 L45.7 7.74 L45.7 23.21 L45.22 26.6 L43.77 29.01 L41.35 30.47 L37.97 30.95 L7.74 30.95 L4.35 30.47 L1.93 29.01 L0.48 26.6 L0 23.21 L0.48 4.35 L1.93 1.93 L4.35 0.48 L7.74 0" stroke="none" stroke-width="0" fill="white"></path><path d="M7.74 0 M7.74 0 C16.3 0, 24.87 0, 37.97 0 M7.74 0 C16.67 0, 25.6 0, 37.97 0 M37.97 0 C43.12 0, 45.7 2.58, 45.7 7.74 M37.97 0 C43.12 0, 45.7 2.58, 45.7 7.74 M45.7 7.74 C45.7 11.95, 45.7 16.17, 45.7 23.21 M45.7 7.74 C45.7 11.95, 45.7 16.16, 45.7 23.21 M45.7 23.21 C45.7 28.37, 43.12 30.95, 37.97 30.95 M45.7 23.21 C45.7 28.37, 43.12 30.95, 37.97 30.95 M37.97 30.95 C26.74 30.95, 15.52 30.95, 7.74 30.95 M37.97 30.95 C27.87 30.95, 17.78 30.95, 7.74 30.95 M7.74 30.95 C2.58 30.95, 0 28.37, 0 23.21 M7.74 30.95 C2.58 30.95, 0 28.37, 0 23.21 M0 23.21 C0 19.56, 0 15.92, 0 7.74 M0 23.21 C0 19.2, 0 15.2, 0 7.74 M0 7.74 C0 2.58, 2.58 0, 7.74 0 M0 7.74 C0 2.58, 2.58 0, 7.74 0" stroke="transparent" stroke-width="1" fill="none"></path></g><g mask="url(#mask-m5sW6cX2lzrN8nCxp9MoB)" stroke-linecap="round"><g transform="translate(329.57924405647054 340.1755260988539) rotate(0 307.9010338975636 0.15897336609305057)"><path d="M0 0 C102.63 0.05, 513.17 0.26, 615.8 0.32 M0 0 C102.63 0.05, 513.17 0.26, 615.8 0.32" stroke="#000000" stroke-width="1" fill="none"></path></g><g transform="translate(329.57924405647054 340.1755260988539) rotate(0 307.9010338975636 0.15897336609305057)"><path d="M0 0 L13.6 -6.33 L13.59 6.35 L0 0" stroke="none" stroke-width="0" fill="#000000" fill-rule="evenodd"></path><path d="M0 0 C4.62 -2.15, 9.25 -4.31, 13.6 -6.33 M0 0 C4.66 -2.17, 9.32 -4.34, 13.6 -6.33 M13.6 -6.33 C13.6 -1.72, 13.59 2.89, 13.59 6.35 M13.6 -6.33 C13.6 -1.9, 13.59 2.53, 13.59 6.35 M13.59 6.35 C8.37 3.91, 3.14 1.47, 0 0 M13.59 6.35 C8.6 4.01, 3.6 1.68, 0 0 M0 0 C0 0, 0 0, 0 0 M0 0 C0 0, 0 0, 0 0" stroke="#000000" stroke-width="1" fill="none"></path></g></g><mask id="mask-m5sW6cX2lzrN8nCxp9MoB"><rect x="0" y="0" fill="#fff" width="1045.3813118515975" height="440.49347283104"></rect><rect x="551.1283492430966" y="330.33449946494693" fill="#000" width="172.703857421875" height="20" opacity="1"></rect></mask><g transform="translate(551.1283492430966 330.33449946494693) rotate(0 86.3519287109375 10)"><text x="86.3519287109375" y="0" font-family="Virgil, Segoe UI Emoji" font-size="16px" fill="#000000" text-anchor="middle" style="white-space: pre;" direction="ltr" dominant-baseline="text-before-edge">install NGINX Promise</text></g><g mask="url(#mask-Addy4SSCiSWzc5vQuq0Wp)" stroke-linecap="round"><g transform="translate(331.64047798627007 405.52605814961134) rotate(0 140.91204318064047 0.08251721400210954)"><path d="M0 0 C46.97 0.03, 234.85 0.14, 281.82 0.17 M0 0 C46.97 0.03, 234.85 0.14, 281.82 0.17" stroke="#000000" stroke-width="1" fill="none"></path></g><g transform="translate(331.64047798627007 405.52605814961134) rotate(0 140.91204318064047 0.08251721400210954)"><path d="M0 0 L13.6 -6.33 L13.59 6.35 L0 0" stroke="none" stroke-width="0" fill="#000000" fill-rule="evenodd"></path><path d="M0 0 C4.77 -2.22, 9.55 -4.45, 13.6 -6.33 M0 0 C3.77 -1.75, 7.53 -3.51, 13.6 -6.33 M13.6 -6.33 C13.6 -2.01, 13.59 2.31, 13.59 6.35 M13.6 -6.33 C13.6 -3.2, 13.59 -0.07, 13.59 6.35 M13.59 6.35 C10.42 4.87, 7.25 3.39, 0 0 M13.59 6.35 C9.95 4.65, 6.31 2.95, 0 0 M0 0 C0 0, 0 0, 0 0 M0 0 C0 0, 0 0, 0 0" stroke="#000000" stroke-width="1" fill="none"></path></g></g><mask id="mask-Addy4SSCiSWzc5vQuq0Wp"><rect x="0" y="0" fill="#fff" width="713.464564347551" height="505.69109257761556"></rect><rect x="409.45658153068007" y="395.60857536361436" fill="#000" width="126.19187927246094" height="20" opacity="1"></rect></mask><g transform="translate(409.45658153068007 395.60857536361436) rotate(0 63.09593963623047 9.99999999999909)"><text x="63.09593963623047" y="0" font-family="Virgil, Segoe UI Emoji" font-size="16px" fill="#000000" text-anchor="middle" style="white-space: pre;" direction="ltr" dominant-baseline="text-before-edge">add NGINX API</text></g><g stroke-linecap="round" transform="translate(317.27118520413615 320.9849051907113) rotate(0 4.639756944444343 93.73176676208641)"><path d="M2.32 0 L6.96 0 L8.7 0.58 L9.28 2.32 L9.28 185.14 L8.7 186.88 L6.96 187.46 L2.32 187.46 L0.58 186.88 L0 185.14 L0 2.32 L0.58 0.58 L2.32 0" stroke="none" stroke-width="0" fill="#ffec99"></path><path d="M2.32 0 M2.32 0 C3.36 0, 4.4 0, 6.96 0 M2.32 0 C3.39 0, 4.46 0, 6.96 0 M6.96 0 C8.51 0, 9.28 0.77, 9.28 2.32 M6.96 0 C8.51 0, 9.28 0.77, 9.28 2.32 M9.28 2.32 C9.28 57.66, 9.28 113, 9.28 185.14 M9.28 2.32 C9.28 60.06, 9.28 117.81, 9.28 185.14 M9.28 185.14 C9.28 186.69, 8.51 187.46, 6.96 187.46 M9.28 185.14 C9.28 186.69, 8.51 187.46, 6.96 187.46 M6.96 187.46 C5.59 187.46, 4.22 187.46, 2.32 187.46 M6.96 187.46 C5.81 187.46, 4.67 187.46, 2.32 187.46 M2.32 187.46 C0.77 187.46, 0 186.69, 0 185.14 M2.32 187.46 C0.77 187.46, 0 186.69, 0 185.14 M0 185.14 C0 118.44, 0 51.73, 0 2.32 M0 185.14 C0 146.82, 0 108.49, 0 2.32 M0 2.32 C0 0.77, 0.77 0, 2.32 0 M0 2.32 C0 0.77, 0.77 0, 2.32 0" stroke="#f08c00" stroke-width="1" fill="none"></path></g><g mask="url(#mask-dHZrVlLQRRa8aHg0rMKH7)" stroke-linecap="round"><g transform="translate(615.1973377124264 379.6918603761951) rotate(0 -142.31809379118545 -0.08455383176988107)"><path d="M0 0 C-47.44 -0.03, -237.2 -0.14, -284.64 -0.17 M0 0 C-47.44 -0.03, -237.2 -0.14, -284.64 -0.17" stroke="#000000" stroke-width="1" fill="none"></path></g><g transform="translate(615.1973377124264 379.6918603761951) rotate(0 -142.31809379118545 -0.08455383176988107)"><path d="M0 0 L-13.6 6.33 L-13.59 -6.35 L0 0" stroke="none" stroke-width="0" fill="#000000" fill-rule="evenodd"></path><path d="M0 0 C-3.39 1.58, -6.79 3.16, -13.6 6.33 M0 0 C-5.17 2.41, -10.34 4.81, -13.6 6.33 M-13.6 6.33 C-13.6 2.29, -13.59 -1.75, -13.59 -6.35 M-13.6 6.33 C-13.6 3.02, -13.59 -0.29, -13.59 -6.35 M-13.59 -6.35 C-8.9 -4.16, -4.2 -1.96, 0 0 M-13.59 -6.35 C-8.54 -3.99, -3.48 -1.63, 0 0 M0 0 C0 0, 0 0, 0 0 M0 0 C0 0, 0 0, 0 0" stroke="#000000" stroke-width="1" fill="none"></path></g></g><mask id="mask-dHZrVlLQRRa8aHg0rMKH7"><rect x="0" y="0" fill="#fff" width="999.8335252947973" height="479.86096803973487"></rect><rect x="387.8713169803227" y="369.6073065444252" fill="#000" width="170.01585388183594" height="20" opacity="1"></rect></mask><g transform="translate(387.8713169803227 369.6073065444252) rotate(0 85.0079269409182 10)"><text x="85.00792694091797" y="0" font-family="Virgil, Segoe UI Emoji" font-size="16px" fill="#000000" text-anchor="middle" style="white-space: pre;" direction="ltr" dominant-baseline="text-before-edge">install NGINX promise</text></g><g mask="url(#mask-VTb1_vtgCxmgdmv2F5tPY)" stroke-linecap="round"><g transform="translate(951.7980918233256 513.516651237016) rotate(0 -160.99530633049153 -0.06756570455490873)"><path d="M0 0 C-53.67 -0.02, -268.33 -0.11, -321.99 -0.14 M0 0 C-53.67 -0.02, -268.33 -0.11, -321.99 -0.14" stroke="#000000" stroke-width="1" fill="none"></path></g><g transform="translate(951.7980918233256 513.516651237016) rotate(0 -160.99530633049153 -0.06756570455490873)"><path d="M0 0 L-13.6 6.33 L-13.59 -6.34 L0 0" stroke="none" stroke-width="0" fill="#000000" fill-rule="evenodd"></path><path d="M0 0 C-4.92 2.29, -9.85 4.59, -13.6 6.33 M0 0 C-3.42 1.59, -6.83 3.18, -13.6 6.33 M-13.6 6.33 C-13.6 3.56, -13.59 0.79, -13.59 -6.34 M-13.6 6.33 C-13.6 3.3, -13.59 0.27, -13.59 -6.34 M-13.59 -6.34 C-9.25 -4.32, -4.91 -2.29, 0 0 M-13.59 -6.34 C-10.61 -4.95, -7.63 -3.56, 0 0 M0 0 C0 0, 0 0, 0 0 M0 0 C0 0, 0 0, 0 0" stroke="#000000" stroke-width="1" fill="none"></path></g></g><mask id="mask-VTb1_vtgCxmgdmv2F5tPY"><rect x="0" y="0" fill="#fff" width="1373.7887044843085" height="613.6517826461259"></rect><rect x="728.7788368234005" y="483.44908553246205" fill="#000" width="124.04789733886719" height="60" opacity="1"></rect></mask><g transform="translate(728.7788368234005 483.44908553246205) rotate(0 62.023948669433594 29.99999999999909)"><text x="62.023948669433594" y="0" font-family="Virgil, Segoe UI Emoji" font-size="16px" fill="#000000" text-anchor="middle" style="white-space: pre;" direction="ltr" dominant-baseline="text-before-edge">schedule NGINX</text><text x="62.023948669433594" y="20" font-family="Virgil, Segoe UI Emoji" font-size="16px" fill="#000000" text-anchor="middle" style="white-space: pre;" direction="ltr" dominant-baseline="text-before-edge">dependencies to</text><text x="62.023948669433594" y="40" font-family="Virgil, Segoe UI Emoji" font-size="16px" fill="#000000" text-anchor="middle" style="white-space: pre;" direction="ltr" dominant-baseline="text-before-edge">worker-cluster</text></g><g stroke-linecap="round" transform="translate(617.6861205394566 375.17295996357643) rotate(0 4.639756944444343 72.17862661749132)"><path d="M2.32 0 L8.7 0.58 L9.28 2.32 L9.28 142.04 L8.7 143.78 L6.96 144.36 L0.58 143.78 L0 142.04 L0 2.32 L0.58 0.58 L2.32 0" stroke="none" stroke-width="0" fill="#ffec99"></path><path d="M2.32 0 M2.32 0 C4.08 0, 5.83 0, 6.96 0 M2.32 0 C3.43 0, 4.54 0, 6.96 0 M6.96 0 C8.51 0, 9.28 0.77, 9.28 2.32 M6.96 0 C8.51 0, 9.28 0.77, 9.28 2.32 M9.28 2.32 C9.28 41.57, 9.28 80.81, 9.28 142.04 M9.28 2.32 C9.28 32.97, 9.28 63.62, 9.28 142.04 M9.28 142.04 C9.28 143.58, 8.51 144.36, 6.96 144.36 M9.28 142.04 C9.28 143.58, 8.51 144.36, 6.96 144.36 M6.96 144.36 C5.84 144.36, 4.72 144.36, 2.32 144.36 M6.96 144.36 C5.89 144.36, 4.82 144.36, 2.32 144.36 M2.32 144.36 C0.77 144.36, 0 143.58, 0 142.04 M2.32 144.36 C0.77 144.36, 0 143.58, 0 142.04 M0 142.04 C0 87.6, 0 33.15, 0 2.32 M0 142.04 C0 86.54, 0 31.04, 0 2.32 M0 2.32 C0 0.77, 0.77 0, 2.32 0 M0 2.32 C0 0.77, 0.77 0, 2.32 0" stroke="#f08c00" stroke-width="1" fill="none"></path></g><g mask="url(#mask-6R3a79y6y2dTSNFdCQB5i)" stroke-linecap="round"><g transform="translate(330.1866085537008 456.8191443711876) rotate(0 142.2042243855667 0.5231533051701263)"><path d="M0 0 C47.4 0.17, 237.01 0.87, 284.41 1.05 M0 0 C47.4 0.17, 237.01 0.87, 284.41 1.05" stroke="#228be6" stroke-width="1" fill="none"></path></g><g transform="translate(330.1866085537008 456.8191443711876) rotate(0 142.2042243855667 0.5231533051701263)"><path d="M0 0 L13.62 -6.29 L13.57 6.39 L0 0" stroke="none" stroke-width="0" fill="#228be6" fill-rule="evenodd"></path><path d="M0 0 C5.17 -2.39, 10.34 -4.77, 13.62 -6.29 M0 0 C3.58 -1.66, 7.17 -3.31, 13.62 -6.29 M13.62 -6.29 C13.61 -3.43, 13.6 -0.56, 13.57 6.39 M13.62 -6.29 C13.6 -1.56, 13.58 3.17, 13.57 6.39 M13.57 6.39 C8.38 3.94, 3.18 1.5, 0 0 M13.57 6.39 C9.22 4.34, 4.87 2.29, 0 0 M0 0 C0 0, 0 0, 0 0 M0 0 C0 0, 0 0, 0 0" stroke="#228be6" stroke-width="1" fill="none"></path></g></g><mask id="mask-6R3a79y6y2dTSNFdCQB5i"><rect x="0" y="0" fill="#fff" width="714.5950573248342" height="557.8654509815278"></rect><rect x="367.0068989182714" y="437.3422976763577" fill="#000" width="210.7678680419922" height="40" opacity="1"></rect></mask><g transform="translate(367.0068989182714 437.3422976763577) rotate(0 105.3839340209961 20)"><text x="105.3839340209961" y="0" font-family="Virgil, Segoe UI Emoji" font-size="16px" fill="#228be6" text-anchor="middle" style="white-space: pre;" direction="ltr" dominant-baseline="text-before-edge">get destinations with label</text><text x="105.3839340209961" y="20" font-family="Virgil, Segoe UI Emoji" font-size="16px" fill="#228be6" text-anchor="middle" style="white-space: pre;" direction="ltr" dominant-baseline="text-before-edge">environment = dev</text></g><g mask="url(#mask-oLPrYJD_BSUl4nnHFXPbP)" stroke-linecap="round"><g transform="translate(610.2965789802588 504.49356240477573) rotate(0 -144.90395365637823 -1.6081888927428736)"><path d="M0 0 C-48.3 -0.54, -241.51 -2.68, -289.81 -3.22" stroke="#4dabf7" stroke-width="1.5" fill="none" stroke-dasharray="8 9"></path></g><g transform="translate(610.2965789802588 504.49356240477573) rotate(0 -144.90395365637823 -1.6081888927428736)"><path d="M0 0 L-13.66 6.19 L-13.52 -6.49 L0 0" stroke="none" stroke-width="0" fill="#4dabf7" fill-rule="evenodd"></path><path d="M0 0 C-2.84 1.29, -5.68 2.57, -13.66 6.19 M-13.66 6.19 C-13.63 2.94, -13.59 -0.3, -13.52 -6.49 M-13.52 -6.49 C-10.41 -5, -7.3 -3.5, 0 0 M0 0 C0 0, 0 0, 0 0" stroke="#4dabf7" stroke-width="1.5" fill="none"></path></g></g><mask id="mask-oLPrYJD_BSUl4nnHFXPbP"><rect x="0" y="0" fill="#fff" width="1000.1044862930154" height="607.7099401902615"></rect><rect x="394.37667988931025" y="492.88537351203195" fill="#000" width="142.03189086914062" height="20" opacity="1"></rect></mask><g transform="translate(394.37667988931025 492.88537351203195) rotate(0 71.01594543457031 10.00000000000091)"><text x="71.01594543457031" y="0" font-family="Virgil, Segoe UI Emoji" font-size="16px" fill="#4dabf7" text-anchor="middle" style="white-space: pre;" direction="ltr" dominant-baseline="text-before-edge">[ worker-cluster ]</text></g></svg>
