<svg version="1.1" xmlns="http://www.w3.org/2000/svg" viewBox="0 0 1308.4992816819881 827.3661412169176">
  <!-- svg-source:excalidraw -->

  <defs>
    <style class="style-fonts">
      @font-face {
        font-family: "Virgil";
        src: url("https://excalidraw.com/Virgil.woff2");
      }
      @font-face {
        font-family: "Cascadia";
        src: url("https://excalidraw.com/Cascadia.woff2");
      }
    </style>
  </defs>
  <rect x="0" y="0" width="1308.4992816819881" height="827.3661412169176" fill="#ffffff"></rect><g stroke-linecap="round"><g transform="translate(404.43146157754836 86.93632552856525) rotate(0 0 364.80391494215473)"><path d="M0 0 C0 121.6, 0 608.01, 0 729.61 M0 0 C0 121.6, 0 608.01, 0 729.61" stroke="#000000" stroke-width="1" fill="none"></path></g></g><mask></mask><g mask="url(#mask-jhYmZy_sbhtExz68LqGId)" stroke-linecap="round"><g transform="translate(114.46313282574215 250.00048312349645) rotate(0 139.6194348070875 -0.57421875)"><path d="M0 0 C46.54 -0.19, 232.7 -0.96, 279.24 -1.15 M0 0 C46.54 -0.19, 232.7 -0.96, 279.24 -1.15" stroke="#000000" stroke-width="1" fill="none"></path></g><g transform="translate(114.46313282574215 250.00048312349645) rotate(0 139.6194348070875 -0.57421875)"><path d="M251.09 9.23 C261.35 5.45, 271.6 1.67, 279.24 -1.15 M251.09 9.23 C261.47 5.4, 271.85 1.58, 279.24 -1.15" stroke="#000000" stroke-width="1" fill="none"></path></g><g transform="translate(114.46313282574215 250.00048312349645) rotate(0 139.6194348070875 -0.57421875)"><path d="M251.01 -11.29 C261.29 -7.6, 271.58 -3.9, 279.24 -1.15 M251.01 -11.29 C261.42 -7.55, 271.83 -3.81, 279.24 -1.15" stroke="#000000" stroke-width="1" fill="none"></path></g></g><mask id="mask-jhYmZy_sbhtExz68LqGId"><rect x="0" y="0" fill="#fff" width="493.7020024399171" height="351.14892062349645"></rect><rect x="178.04262012306413" y="229.42626437349645" fill="#000" width="152.07989501953125" height="40" opacity="1"></rect></mask><g transform="translate(178.04262012306413 229.42626437349645) rotate(0 76.03994750976551 20)"><text x="76.03994750976562" y="0" font-family="Virgil, Segoe UI Emoji" font-size="16px" fill="#000000" text-anchor="middle" style="white-space: pre;" direction="ltr" dominant-baseline="text-before-edge">install paved path </text><text x="76.03994750976562" y="20" font-family="Virgil, Segoe UI Emoji" font-size="16px" fill="#000000" text-anchor="middle" style="white-space: pre;" direction="ltr" dominant-baseline="text-before-edge">promise</text></g><g stroke-linecap="round" transform="translate(42.38701333830977 188.14343318885494) rotate(0 19.428080706842934 19.336659332926956)"><path d="M2.16 9.83 C2.16 9.83, 2.16 9.83, 2.16 9.83 M2.16 9.83 C2.16 9.83, 2.16 9.83, 2.16 9.83 M3 16.12 C4.59 14.27, 6.71 11.93, 16.27 2.34 M1.2 16.13 C5.26 12.52, 6.66 8.81, 13.83 2.61 M1.75 23.31 C8.03 14.95, 14.52 11.26, 18.18 1.8 M0.1 22.74 C4.76 17.45, 9.78 12.56, 19.98 2.22 M3.55 27.98 C8.43 20.81, 13.53 14.69, 26.52 0.88 M3.57 26.83 C7.52 22.24, 12.76 15.68, 25.83 1.12 M4.47 29.9 C10.15 24.13, 19.7 12.4, 30.01 0.87 M3.53 32.59 C12.46 23.37, 19.91 14.08, 30.75 1.54 M7.61 36.42 C13.55 28.06, 15.8 22.97, 31.76 4.61 M7.21 35.7 C14.16 26.12, 21.57 17.74, 32.29 6.16 M9.97 36.93 C20.09 26.51, 27.43 14.8, 34.72 7.63 M10.3 36.04 C20.52 25.59, 27.92 15.05, 34.94 8.45 M16.66 38.35 C19.83 30.17, 26.56 25.69, 39.24 10.67 M14.46 38.33 C21.83 29.02, 30.33 19.4, 38.01 11.43 M18.25 39.47 C25.46 35.31, 27.39 27.21, 37.85 17.32 M18.92 38.77 C27.52 30.34, 34.84 20.87, 37.61 16.49 M28.78 34.53 C30.09 33.07, 34.85 27.95, 39.2 22.54 M28.02 35.56 C30.14 31.99, 32.4 29.91, 38.98 22.24" stroke="#7950f2" stroke-width="0.5" fill="none"></path><path d="M14.07 1.95 C17.96 0.35, 23.62 -0.97, 27.42 0.43 C31.21 1.84, 35.1 6.73, 36.83 10.39 C38.57 14.05, 38.8 18.56, 37.83 22.4 C36.86 26.23, 34.11 30.74, 31.01 33.4 C27.9 36.07, 23.41 38.18, 19.2 38.37 C14.98 38.55, 8.87 37.07, 5.71 34.52 C2.55 31.97, 0.88 27.17, 0.26 23.08 C-0.35 18.99, -0.32 13.88, 2.02 9.99 C4.36 6.1, 12.07 1.44, 14.31 -0.25 C16.54 -1.94, 15.44 -0.71, 15.42 -0.15 M14.9 -0.31 C18.87 -1.74, 24.82 0.2, 28.22 1.74 C31.62 3.29, 33.5 5.26, 35.29 8.98 C37.07 12.69, 39.54 19.99, 38.93 24.03 C38.32 28.07, 34.86 30.98, 31.62 33.22 C28.38 35.46, 23.59 37.44, 19.48 37.45 C15.38 37.45, 10.27 36.04, 6.97 33.26 C3.68 30.48, 0.37 24.95, -0.29 20.77 C-0.95 16.59, 0.61 11.44, 3.02 8.19 C5.43 4.93, 12.34 2.64, 14.2 1.27 C16.06 -0.11, 14.42 -0.32, 14.19 -0.06" stroke="#495057" stroke-width="1" fill="none"></path></g><g stroke-linecap="round"><g transform="translate(61.72367267123627 226.81675185471158) rotate(0 -0.1844527875643962 27.10108032033304)" fill-rule="evenodd"><path d="M-12.59 -0.35 C-12.59 -0.35, -12.59 -0.35, -12.59 -0.35 M-12.59 -0.35 C-12.59 -0.35, -12.59 -0.35, -12.59 -0.35 M-19.06 12.3 C-15.13 7.73, -10.45 2.2, -7.59 -1.49 M-17.14 10.58 C-15.49 8.2, -11.17 4.35, -5.68 -1.74 M-21.59 22.27 C-16.22 13.68, -7.77 7.57, -2.78 0.71 M-22.54 23.79 C-16.18 16.61, -11.95 10.72, -2.2 1.26 M-21.01 29.04 C-13.55 21.52, -10.69 13.97, 2.69 1.41 M-22.24 27.15 C-17.05 23.1, -11.5 17.02, 1.2 1.87 M-21.55 37.79 C-15.45 25.55, -4.91 13.71, 11.02 -4.45 M-23.42 35.85 C-15.22 28.32, -7.45 18.62, 10.7 -2.25 M-25.73 45.02 C-11.38 29.53, -1.82 14.71, 14.51 2.47 M-24.43 43.52 C-15.41 33.53, -6.88 23.8, 13.21 0.74 M-23.52 47.31 C-14.66 37.52, -6.38 29.29, 14.97 2.35 M-23.4 48.89 C-7.44 30.15, 6.18 13.14, 15.37 4.5 M-24.85 54.73 C-9.04 36.39, 6.32 20.32, 15.63 9.11 M-23.46 54.41 C-8.18 38, 7.32 20.67, 17.71 7.65 M-20.99 55.76 C-6.77 40.22, 8.24 26.57, 21.09 10.01 M-19.81 55.36 C-8.84 43.56, 2.35 30.4, 19.95 12.54 M-14.86 58.51 C-2.03 43.55, 8.38 31.26, 20.91 15.87 M-14.76 56.33 C-2.63 43.57, 8.18 29.6, 20.85 15.73 M-11.01 56.35 C0.95 44.24, 14.6 31.95, 23.64 18.96 M-9.42 57.08 C0.28 44.08, 11.66 32.37, 21.47 21.09 M-4.08 57.92 C3.81 48.38, 8.73 38.5, 22.4 25.51 M-4.94 57.72 C6.24 45.17, 15.64 34.66, 23.1 24.52 M-0.71 57.76 C6.15 50.27, 13.55 43.14, 23.63 31.08 M-0.04 57.59 C9.95 48.63, 16.9 37.69, 25.24 30.52 M7.94 57.76 C9.94 52.67, 16.09 45.26, 26.62 34.8 M5.67 57.91 C12.89 49.36, 21.21 39.49, 25.44 34.7 M11.08 55.86 C19.48 52.16, 24.04 45.54, 27.57 39.5 M12.92 56.73 C16.64 51.99, 20.05 47.48, 28.65 39.09 M17.42 55.58 C22.14 48.89, 27.84 44.41, 28.15 41.52 M18.79 55.63 C23.04 49.6, 27.12 46.15, 29.65 42.04" stroke="#7950f2" stroke-width="0.5" fill="none"></path><path d="M-0.79 -0.44 C1.35 -0.14, 7.92 -7.75, 12.53 1.11 C17.14 9.98, 33.43 44.26, 26.87 52.75 C20.31 61.24, -20.27 60.96, -26.82 52.03 C-33.37 43.11, -16.76 8, -12.42 -0.79 C-8.09 -9.59, -2.68 -0.9, -0.81 -0.74 M1 -1.71 C2.98 -1.67, 7.11 -9.22, 11.39 -0.43 C15.67 8.36, 33.1 42.06, 26.68 51.03 C20.26 60, -20.4 62.03, -27.12 53.39 C-33.84 44.74, -18.2 7.83, -13.65 -0.82 C-9.1 -9.47, -1.9 1.53, 0.18 1.49" stroke="#495057" stroke-width="1" fill="none"></path></g></g><mask></mask><g transform="translate(10 300.43567223222544) rotate(0 42.58995819091797 25)"><text x="42.58995819091797" y="0" font-family="Virgil, Segoe UI Emoji" font-size="20px" fill="#5f3dc4" text-anchor="middle" style="white-space: pre;" direction="ltr" dominant-baseline="text-before-edge">Platform</text><text x="42.58995819091797" y="25" font-family="Virgil, Segoe UI Emoji" font-size="20px" fill="#5f3dc4" text-anchor="middle" style="white-space: pre;" direction="ltr" dominant-baseline="text-before-edge">Engineer</text></g><g stroke-linecap="round" transform="translate(681.4632077553515 42.31147402848728) rotate(358.92972393214535 3.7680364110324263 19.555950473086796)"><path d="M1.88 0 L5.65 0 L7.07 0.47 L7.54 1.88 L7.54 37.23 L7.07 38.64 L5.65 39.11 L0.47 38.64 L0 37.23 L0 1.88 L0.47 0.47 L1.88 0" stroke="none" stroke-width="0" fill="#7950f2"></path><path d="M1.88 0 M1.88 0 C2.73 0, 3.58 0, 5.65 0 M1.88 0 C3.03 0, 4.18 0, 5.65 0 M5.65 0 C6.91 0, 7.54 0.63, 7.54 1.88 M5.65 0 C6.91 0, 7.54 0.63, 7.54 1.88 M7.54 1.88 C7.54 14.18, 7.54 26.48, 7.54 37.23 M7.54 1.88 C7.54 11.74, 7.54 21.6, 7.54 37.23 M7.54 37.23 C7.54 38.48, 6.91 39.11, 5.65 39.11 M7.54 37.23 C7.54 38.48, 6.91 39.11, 5.65 39.11 M5.65 39.11 C4.89 39.11, 4.13 39.11, 1.88 39.11 M5.65 39.11 C4.54 39.11, 3.42 39.11, 1.88 39.11 M1.88 39.11 C0.63 39.11, 0 38.48, 0 37.23 M1.88 39.11 C0.63 39.11, 0 38.48, 0 37.23 M0 37.23 C0 23.49, 0 9.75, 0 1.88 M0 37.23 C0 25.06, 0 12.89, 0 1.88 M0 1.88 C0 0.63, 0.63 0, 1.88 0 M0 1.88 C0 0.63, 0.63 0, 1.88 0" stroke="transparent" stroke-width="1" fill="none"></path></g><g stroke-linecap="round" transform="translate(695.499847188637 37.316461105097915) rotate(40.41727686562419 3.7680364110324263 24.785791502693428)"><path d="M1.88 0 L5.65 0 L7.07 0.47 L7.54 1.88 L7.54 47.69 L7.07 49.1 L5.65 49.57 L0.47 49.1 L0 47.69 L0 1.88 L0.47 0.47 L1.88 0" stroke="none" stroke-width="0" fill="#7950f2"></path><path d="M1.88 0 M1.88 0 C3.26 0, 4.64 0, 5.65 0 M1.88 0 C3.19 0, 4.49 0, 5.65 0 M5.65 0 C6.91 0, 7.54 0.63, 7.54 1.88 M5.65 0 C6.91 0, 7.54 0.63, 7.54 1.88 M7.54 1.88 C7.54 12.83, 7.54 23.77, 7.54 47.69 M7.54 1.88 C7.54 12.36, 7.54 22.84, 7.54 47.69 M7.54 47.69 C7.54 48.94, 6.91 49.57, 5.65 49.57 M7.54 47.69 C7.54 48.94, 6.91 49.57, 5.65 49.57 M5.65 49.57 C4.33 49.57, 3 49.57, 1.88 49.57 M5.65 49.57 C4.42 49.57, 3.18 49.57, 1.88 49.57 M1.88 49.57 C0.63 49.57, 0 48.94, 0 47.69 M1.88 49.57 C0.63 49.57, 0 48.94, 0 47.69 M0 47.69 C0 35.81, 0 23.94, 0 1.88 M0 47.69 C0 36.87, 0 26.04, 0 1.88 M0 1.88 C0 0.63, 0.63 0, 1.88 0 M0 1.88 C0 0.63, 0.63 0, 1.88 0" stroke="transparent" stroke-width="1" fill="none"></path></g><g stroke-linecap="round" transform="translate(704.1423714534922 55.87147711310172) rotate(139.22073182693399 3.7680364110324263 14.147647249566944)"><path d="M1.88 0 L5.65 0 L7.07 0.47 L7.54 1.88 L7.54 26.41 L7.07 27.82 L5.65 28.3 L0.47 27.82 L0 26.41 L0 1.88 L0.47 0.47 L1.88 0" stroke="none" stroke-width="0" fill="#7950f2"></path><path d="M1.88 0 M1.88 0 C2.82 0, 3.75 0, 5.65 0 M1.88 0 C2.7 0, 3.52 0, 5.65 0 M5.65 0 C6.91 0, 7.54 0.63, 7.54 1.88 M5.65 0 C6.91 0, 7.54 0.63, 7.54 1.88 M7.54 1.88 C7.54 10.34, 7.54 18.79, 7.54 26.41 M7.54 1.88 C7.54 9.25, 7.54 16.62, 7.54 26.41 M7.54 26.41 C7.54 27.67, 6.91 28.3, 5.65 28.3 M7.54 26.41 C7.54 27.67, 6.91 28.3, 5.65 28.3 M5.65 28.3 C4.66 28.3, 3.67 28.3, 1.88 28.3 M5.65 28.3 C4.25 28.3, 2.85 28.3, 1.88 28.3 M1.88 28.3 C0.63 28.3, 0 27.67, 0 26.41 M1.88 28.3 C0.63 28.3, 0 27.67, 0 26.41 M0 26.41 C0 17.06, 0 7.71, 0 1.88 M0 26.41 C0 18.72, 0 11.02, 0 1.88 M0 1.88 C0 0.63, 0.63 0, 1.88 0 M0 1.88 C0 0.63, 0.63 0, 1.88 0" stroke="transparent" stroke-width="1" fill="none"></path></g><g stroke-linecap="round" transform="translate(680.5958629022775 40.356953125156) rotate(358.1310915065084 4.207022158495647 4.569555668486828)"><path d="M8.41 4.57 C8.41 4.83, 8.39 5.1, 8.35 5.36 C8.31 5.62, 8.24 5.88, 8.16 6.13 C8.08 6.38, 7.97 6.63, 7.85 6.85 C7.73 7.08, 7.59 7.3, 7.43 7.51 C7.27 7.71, 7.1 7.9, 6.91 8.07 C6.72 8.24, 6.52 8.39, 6.31 8.53 C6.1 8.66, 5.87 8.77, 5.65 8.86 C5.42 8.95, 5.18 9.02, 4.94 9.07 C4.7 9.12, 4.45 9.14, 4.21 9.14 C3.96 9.14, 3.72 9.12, 3.48 9.07 C3.24 9.02, 3 8.95, 2.77 8.86 C2.54 8.77, 2.31 8.66, 2.1 8.53 C1.89 8.39, 1.69 8.24, 1.5 8.07 C1.32 7.9, 1.14 7.71, 0.98 7.51 C0.83 7.3, 0.69 7.08, 0.56 6.85 C0.44 6.63, 0.34 6.38, 0.25 6.13 C0.17 5.88, 0.11 5.62, 0.06 5.36 C0.02 5.1, 0 4.83, 0 4.57 C0 4.31, 0.02 4.04, 0.06 3.78 C0.11 3.52, 0.17 3.26, 0.25 3.01 C0.34 2.76, 0.44 2.51, 0.56 2.28 C0.69 2.06, 0.83 1.83, 0.98 1.63 C1.14 1.43, 1.32 1.24, 1.5 1.07 C1.69 0.9, 1.89 0.74, 2.1 0.61 C2.31 0.48, 2.54 0.37, 2.77 0.28 C3 0.19, 3.24 0.12, 3.48 0.07 C3.72 0.02, 3.96 0, 4.21 0 C4.45 0, 4.7 0.02, 4.94 0.07 C5.18 0.12, 5.42 0.19, 5.65 0.28 C5.87 0.37, 6.1 0.48, 6.31 0.61 C6.52 0.74, 6.72 0.9, 6.91 1.07 C7.1 1.24, 7.27 1.43, 7.43 1.63 C7.59 1.83, 7.73 2.06, 7.85 2.28 C7.97 2.51, 8.08 2.76, 8.16 3.01 C8.24 3.26, 8.31 3.52, 8.35 3.78 C8.39 4.04, 8.4 4.44, 8.41 4.57 C8.42 4.7, 8.42 4.44, 8.41 4.57" stroke="none" stroke-width="0" fill="#7950f2"></path><path d="M8.41 4.57 C8.41 4.83, 8.39 5.1, 8.35 5.36 C8.31 5.62, 8.24 5.88, 8.16 6.13 C8.08 6.38, 7.97 6.63, 7.85 6.85 C7.73 7.08, 7.59 7.3, 7.43 7.51 C7.27 7.71, 7.1 7.9, 6.91 8.07 C6.72 8.24, 6.52 8.39, 6.31 8.53 C6.1 8.66, 5.87 8.77, 5.65 8.86 C5.42 8.95, 5.18 9.02, 4.94 9.07 C4.7 9.12, 4.45 9.14, 4.21 9.14 C3.96 9.14, 3.72 9.12, 3.48 9.07 C3.24 9.02, 3 8.95, 2.77 8.86 C2.54 8.77, 2.31 8.66, 2.1 8.53 C1.89 8.39, 1.69 8.24, 1.5 8.07 C1.32 7.9, 1.14 7.71, 0.98 7.51 C0.83 7.3, 0.69 7.08, 0.56 6.85 C0.44 6.63, 0.34 6.38, 0.25 6.13 C0.17 5.88, 0.11 5.62, 0.06 5.36 C0.02 5.1, 0 4.83, 0 4.57 C0 4.31, 0.02 4.04, 0.06 3.78 C0.11 3.52, 0.17 3.26, 0.25 3.01 C0.34 2.76, 0.44 2.51, 0.56 2.28 C0.69 2.06, 0.83 1.83, 0.98 1.63 C1.14 1.43, 1.32 1.24, 1.5 1.07 C1.69 0.9, 1.89 0.74, 2.1 0.61 C2.31 0.48, 2.54 0.37, 2.77 0.28 C3 0.19, 3.24 0.12, 3.48 0.07 C3.72 0.02, 3.96 0, 4.21 0 C4.45 0, 4.7 0.02, 4.94 0.07 C5.18 0.12, 5.42 0.19, 5.65 0.28 C5.87 0.37, 6.1 0.48, 6.31 0.61 C6.52 0.74, 6.72 0.9, 6.91 1.07 C7.1 1.24, 7.27 1.43, 7.43 1.63 C7.59 1.83, 7.73 2.06, 7.85 2.28 C7.97 2.51, 8.08 2.76, 8.16 3.01 C8.24 3.26, 8.31 3.52, 8.35 3.78 C8.39 4.04, 8.4 4.44, 8.41 4.57 C8.42 4.7, 8.42 4.44, 8.41 4.57" stroke="#5f3dc4" stroke-width="1" fill="none"></path></g><g stroke-linecap="round" transform="translate(681.5564989292957 72.60498976078088) rotate(358.1310915065084 4.207022158495647 4.569555668486828)"><path d="M8.41 4.57 C8.41 4.83, 8.39 5.1, 8.35 5.36 C8.31 5.62, 8.24 5.88, 8.16 6.13 C8.08 6.38, 7.97 6.63, 7.85 6.85 C7.73 7.08, 7.59 7.3, 7.43 7.51 C7.27 7.71, 7.1 7.9, 6.91 8.07 C6.72 8.24, 6.52 8.39, 6.31 8.53 C6.1 8.66, 5.87 8.77, 5.65 8.86 C5.42 8.95, 5.18 9.02, 4.94 9.07 C4.7 9.12, 4.45 9.14, 4.21 9.14 C3.96 9.14, 3.72 9.12, 3.48 9.07 C3.24 9.02, 3 8.95, 2.77 8.86 C2.54 8.77, 2.31 8.66, 2.1 8.53 C1.89 8.39, 1.69 8.24, 1.5 8.07 C1.32 7.9, 1.14 7.71, 0.98 7.51 C0.83 7.3, 0.69 7.08, 0.56 6.85 C0.44 6.63, 0.34 6.38, 0.25 6.13 C0.17 5.88, 0.11 5.62, 0.06 5.36 C0.02 5.1, 0 4.83, 0 4.57 C0 4.31, 0.02 4.04, 0.06 3.78 C0.11 3.52, 0.17 3.26, 0.25 3.01 C0.34 2.76, 0.44 2.51, 0.56 2.28 C0.69 2.06, 0.83 1.83, 0.98 1.63 C1.14 1.43, 1.32 1.24, 1.5 1.07 C1.69 0.9, 1.89 0.74, 2.1 0.61 C2.31 0.48, 2.54 0.37, 2.77 0.28 C3 0.19, 3.24 0.12, 3.48 0.07 C3.72 0.02, 3.96 0, 4.21 0 C4.45 0, 4.7 0.02, 4.94 0.07 C5.18 0.12, 5.42 0.19, 5.65 0.28 C5.87 0.37, 6.1 0.48, 6.31 0.61 C6.52 0.74, 6.72 0.9, 6.91 1.07 C7.1 1.24, 7.27 1.43, 7.43 1.63 C7.59 1.83, 7.73 2.06, 7.85 2.28 C7.97 2.51, 8.08 2.76, 8.16 3.01 C8.24 3.26, 8.31 3.52, 8.35 3.78 C8.39 4.04, 8.4 4.44, 8.41 4.57 C8.42 4.7, 8.42 4.44, 8.41 4.57" stroke="none" stroke-width="0" fill="#7950f2"></path><path d="M8.41 4.57 C8.41 4.83, 8.39 5.1, 8.35 5.36 C8.31 5.62, 8.24 5.88, 8.16 6.13 C8.08 6.38, 7.97 6.63, 7.85 6.85 C7.73 7.08, 7.59 7.3, 7.43 7.51 C7.27 7.71, 7.1 7.9, 6.91 8.07 C6.72 8.24, 6.52 8.39, 6.31 8.53 C6.1 8.66, 5.87 8.77, 5.65 8.86 C5.42 8.95, 5.18 9.02, 4.94 9.07 C4.7 9.12, 4.45 9.14, 4.21 9.14 C3.96 9.14, 3.72 9.12, 3.48 9.07 C3.24 9.02, 3 8.95, 2.77 8.86 C2.54 8.77, 2.31 8.66, 2.1 8.53 C1.89 8.39, 1.69 8.24, 1.5 8.07 C1.32 7.9, 1.14 7.71, 0.98 7.51 C0.83 7.3, 0.69 7.08, 0.56 6.85 C0.44 6.63, 0.34 6.38, 0.25 6.13 C0.17 5.88, 0.11 5.62, 0.06 5.36 C0.02 5.1, 0 4.83, 0 4.57 C0 4.31, 0.02 4.04, 0.06 3.78 C0.11 3.52, 0.17 3.26, 0.25 3.01 C0.34 2.76, 0.44 2.51, 0.56 2.28 C0.69 2.06, 0.83 1.83, 0.98 1.63 C1.14 1.43, 1.32 1.24, 1.5 1.07 C1.69 0.9, 1.89 0.74, 2.1 0.61 C2.31 0.48, 2.54 0.37, 2.77 0.28 C3 0.19, 3.24 0.12, 3.48 0.07 C3.72 0.02, 3.96 0, 4.21 0 C4.45 0, 4.7 0.02, 4.94 0.07 C5.18 0.12, 5.42 0.19, 5.65 0.28 C5.87 0.37, 6.1 0.48, 6.31 0.61 C6.52 0.74, 6.72 0.9, 6.91 1.07 C7.1 1.24, 7.27 1.43, 7.43 1.63 C7.59 1.83, 7.73 2.06, 7.85 2.28 C7.97 2.51, 8.08 2.76, 8.16 3.01 C8.24 3.26, 8.31 3.52, 8.35 3.78 C8.39 4.04, 8.4 4.44, 8.41 4.57 C8.42 4.7, 8.42 4.44, 8.41 4.57" stroke="#5f3dc4" stroke-width="1" fill="none"></path></g><g stroke-linecap="round" transform="translate(696.0938933044408 58.507100855058525) rotate(358.1310915065084 4.171683969157698 4.569555668486828)"><path d="M8.34 4.57 C8.34 4.83, 8.32 5.1, 8.28 5.36 C8.24 5.62, 8.17 5.88, 8.09 6.13 C8.01 6.38, 7.91 6.63, 7.78 6.85 C7.66 7.08, 7.52 7.3, 7.37 7.51 C7.21 7.71, 7.04 7.9, 6.85 8.07 C6.67 8.24, 6.47 8.39, 6.26 8.53 C6.05 8.66, 5.83 8.77, 5.6 8.86 C5.37 8.95, 5.13 9.02, 4.9 9.07 C4.66 9.12, 4.41 9.14, 4.17 9.14 C3.93 9.14, 3.69 9.12, 3.45 9.07 C3.21 9.02, 2.97 8.95, 2.74 8.86 C2.52 8.77, 2.29 8.66, 2.09 8.53 C1.88 8.39, 1.68 8.24, 1.49 8.07 C1.31 7.9, 1.13 7.71, 0.98 7.51 C0.82 7.3, 0.68 7.08, 0.56 6.85 C0.44 6.63, 0.33 6.38, 0.25 6.13 C0.17 5.88, 0.11 5.62, 0.06 5.36 C0.02 5.1, 0 4.83, 0 4.57 C0 4.31, 0.02 4.04, 0.06 3.78 C0.11 3.52, 0.17 3.26, 0.25 3.01 C0.33 2.76, 0.44 2.51, 0.56 2.28 C0.68 2.06, 0.82 1.83, 0.98 1.63 C1.13 1.43, 1.31 1.24, 1.49 1.07 C1.68 0.9, 1.88 0.74, 2.09 0.61 C2.29 0.48, 2.52 0.37, 2.74 0.28 C2.97 0.19, 3.21 0.12, 3.45 0.07 C3.69 0.02, 3.93 0, 4.17 0 C4.41 0, 4.66 0.02, 4.9 0.07 C5.13 0.12, 5.37 0.19, 5.6 0.28 C5.83 0.37, 6.05 0.48, 6.26 0.61 C6.47 0.74, 6.67 0.9, 6.85 1.07 C7.04 1.24, 7.21 1.43, 7.37 1.63 C7.52 1.83, 7.66 2.06, 7.78 2.28 C7.91 2.51, 8.01 2.76, 8.09 3.01 C8.17 3.26, 8.24 3.52, 8.28 3.78 C8.32 4.04, 8.33 4.44, 8.34 4.57 C8.35 4.7, 8.35 4.44, 8.34 4.57" stroke="none" stroke-width="0" fill="#7950f2"></path><path d="M8.34 4.57 C8.34 4.83, 8.32 5.1, 8.28 5.36 C8.24 5.62, 8.17 5.88, 8.09 6.13 C8.01 6.38, 7.91 6.63, 7.78 6.85 C7.66 7.08, 7.52 7.3, 7.37 7.51 C7.21 7.71, 7.04 7.9, 6.85 8.07 C6.67 8.24, 6.47 8.39, 6.26 8.53 C6.05 8.66, 5.83 8.77, 5.6 8.86 C5.37 8.95, 5.13 9.02, 4.9 9.07 C4.66 9.12, 4.41 9.14, 4.17 9.14 C3.93 9.14, 3.69 9.12, 3.45 9.07 C3.21 9.02, 2.97 8.95, 2.74 8.86 C2.52 8.77, 2.29 8.66, 2.09 8.53 C1.88 8.39, 1.68 8.24, 1.49 8.07 C1.31 7.9, 1.13 7.71, 0.98 7.51 C0.82 7.3, 0.68 7.08, 0.56 6.85 C0.44 6.63, 0.33 6.38, 0.25 6.13 C0.17 5.88, 0.11 5.62, 0.06 5.36 C0.02 5.1, 0 4.83, 0 4.57 C0 4.31, 0.02 4.04, 0.06 3.78 C0.11 3.52, 0.17 3.26, 0.25 3.01 C0.33 2.76, 0.44 2.51, 0.56 2.28 C0.68 2.06, 0.82 1.83, 0.98 1.63 C1.13 1.43, 1.31 1.24, 1.49 1.07 C1.68 0.9, 1.88 0.74, 2.09 0.61 C2.29 0.48, 2.52 0.37, 2.74 0.28 C2.97 0.19, 3.21 0.12, 3.45 0.07 C3.69 0.02, 3.93 0, 4.17 0 C4.41 0, 4.66 0.02, 4.9 0.07 C5.13 0.12, 5.37 0.19, 5.6 0.28 C5.83 0.37, 6.05 0.48, 6.26 0.61 C6.47 0.74, 6.67 0.9, 6.85 1.07 C7.04 1.24, 7.21 1.43, 7.37 1.63 C7.52 1.83, 7.66 2.06, 7.78 2.28 C7.91 2.51, 8.01 2.76, 8.09 3.01 C8.17 3.26, 8.24 3.52, 8.28 3.78 C8.32 4.04, 8.33 4.44, 8.34 4.57 C8.35 4.7, 8.35 4.44, 8.34 4.57" stroke="#5f3dc4" stroke-width="1" fill="none"></path></g><g stroke-linecap="round" transform="translate(709.2397979719599 41.15820422266188) rotate(358.1310915065084 4.207022158495647 4.569555668486828)"><path d="M8.41 4.57 C8.41 4.83, 8.39 5.1, 8.35 5.36 C8.31 5.62, 8.24 5.88, 8.16 6.13 C8.08 6.38, 7.97 6.63, 7.85 6.85 C7.73 7.08, 7.59 7.3, 7.43 7.51 C7.27 7.71, 7.1 7.9, 6.91 8.07 C6.72 8.24, 6.52 8.39, 6.31 8.53 C6.1 8.66, 5.87 8.77, 5.65 8.86 C5.42 8.95, 5.18 9.02, 4.94 9.07 C4.7 9.12, 4.45 9.14, 4.21 9.14 C3.96 9.14, 3.72 9.12, 3.48 9.07 C3.24 9.02, 3 8.95, 2.77 8.86 C2.54 8.77, 2.31 8.66, 2.1 8.53 C1.89 8.39, 1.69 8.24, 1.5 8.07 C1.32 7.9, 1.14 7.71, 0.98 7.51 C0.83 7.3, 0.69 7.08, 0.56 6.85 C0.44 6.63, 0.34 6.38, 0.25 6.13 C0.17 5.88, 0.11 5.62, 0.06 5.36 C0.02 5.1, 0 4.83, 0 4.57 C0 4.31, 0.02 4.04, 0.06 3.78 C0.11 3.52, 0.17 3.26, 0.25 3.01 C0.34 2.76, 0.44 2.51, 0.56 2.28 C0.69 2.06, 0.83 1.83, 0.98 1.63 C1.14 1.43, 1.32 1.24, 1.5 1.07 C1.69 0.9, 1.89 0.74, 2.1 0.61 C2.31 0.48, 2.54 0.37, 2.77 0.28 C3 0.19, 3.24 0.12, 3.48 0.07 C3.72 0.02, 3.96 0, 4.21 0 C4.45 0, 4.7 0.02, 4.94 0.07 C5.18 0.12, 5.42 0.19, 5.65 0.28 C5.87 0.37, 6.1 0.48, 6.31 0.61 C6.52 0.74, 6.72 0.9, 6.91 1.07 C7.1 1.24, 7.27 1.43, 7.43 1.63 C7.59 1.83, 7.73 2.06, 7.85 2.28 C7.97 2.51, 8.08 2.76, 8.16 3.01 C8.24 3.26, 8.31 3.52, 8.35 3.78 C8.39 4.04, 8.4 4.44, 8.41 4.57 C8.42 4.7, 8.42 4.44, 8.41 4.57" stroke="none" stroke-width="0" fill="#7950f2"></path><path d="M8.41 4.57 C8.41 4.83, 8.39 5.1, 8.35 5.36 C8.31 5.62, 8.24 5.88, 8.16 6.13 C8.08 6.38, 7.97 6.63, 7.85 6.85 C7.73 7.08, 7.59 7.3, 7.43 7.51 C7.27 7.71, 7.1 7.9, 6.91 8.07 C6.72 8.24, 6.52 8.39, 6.31 8.53 C6.1 8.66, 5.87 8.77, 5.65 8.86 C5.42 8.95, 5.18 9.02, 4.94 9.07 C4.7 9.12, 4.45 9.14, 4.21 9.14 C3.96 9.14, 3.72 9.12, 3.48 9.07 C3.24 9.02, 3 8.95, 2.77 8.86 C2.54 8.77, 2.31 8.66, 2.1 8.53 C1.89 8.39, 1.69 8.24, 1.5 8.07 C1.32 7.9, 1.14 7.71, 0.98 7.51 C0.83 7.3, 0.69 7.08, 0.56 6.85 C0.44 6.63, 0.34 6.38, 0.25 6.13 C0.17 5.88, 0.11 5.62, 0.06 5.36 C0.02 5.1, 0 4.83, 0 4.57 C0 4.31, 0.02 4.04, 0.06 3.78 C0.11 3.52, 0.17 3.26, 0.25 3.01 C0.34 2.76, 0.44 2.51, 0.56 2.28 C0.69 2.06, 0.83 1.83, 0.98 1.63 C1.14 1.43, 1.32 1.24, 1.5 1.07 C1.69 0.9, 1.89 0.74, 2.1 0.61 C2.31 0.48, 2.54 0.37, 2.77 0.28 C3 0.19, 3.24 0.12, 3.48 0.07 C3.72 0.02, 3.96 0, 4.21 0 C4.45 0, 4.7 0.02, 4.94 0.07 C5.18 0.12, 5.42 0.19, 5.65 0.28 C5.87 0.37, 6.1 0.48, 6.31 0.61 C6.52 0.74, 6.72 0.9, 6.91 1.07 C7.1 1.24, 7.27 1.43, 7.43 1.63 C7.59 1.83, 7.73 2.06, 7.85 2.28 C7.97 2.51, 8.08 2.76, 8.16 3.01 C8.24 3.26, 8.31 3.52, 8.35 3.78 C8.39 4.04, 8.4 4.44, 8.41 4.57 C8.42 4.7, 8.42 4.44, 8.41 4.57" stroke="#5f3dc4" stroke-width="1" fill="none"></path></g><g stroke-linecap="round" transform="translate(711.2908075541282 74.17156925033487) rotate(358.1310915065084 4.207022158495647 4.569555668486828)"><path d="M8.41 4.57 C8.41 4.83, 8.39 5.1, 8.35 5.36 C8.31 5.62, 8.24 5.88, 8.16 6.13 C8.08 6.38, 7.97 6.63, 7.85 6.85 C7.73 7.08, 7.59 7.3, 7.43 7.51 C7.27 7.71, 7.1 7.9, 6.91 8.07 C6.72 8.24, 6.52 8.39, 6.31 8.53 C6.1 8.66, 5.87 8.77, 5.65 8.86 C5.42 8.95, 5.18 9.02, 4.94 9.07 C4.7 9.12, 4.45 9.14, 4.21 9.14 C3.96 9.14, 3.72 9.12, 3.48 9.07 C3.24 9.02, 3 8.95, 2.77 8.86 C2.54 8.77, 2.31 8.66, 2.1 8.53 C1.89 8.39, 1.69 8.24, 1.5 8.07 C1.32 7.9, 1.14 7.71, 0.98 7.51 C0.83 7.3, 0.69 7.08, 0.56 6.85 C0.44 6.63, 0.34 6.38, 0.25 6.13 C0.17 5.88, 0.11 5.62, 0.06 5.36 C0.02 5.1, 0 4.83, 0 4.57 C0 4.31, 0.02 4.04, 0.06 3.78 C0.11 3.52, 0.17 3.26, 0.25 3.01 C0.34 2.76, 0.44 2.51, 0.56 2.28 C0.69 2.06, 0.83 1.83, 0.98 1.63 C1.14 1.43, 1.32 1.24, 1.5 1.07 C1.69 0.9, 1.89 0.74, 2.1 0.61 C2.31 0.48, 2.54 0.37, 2.77 0.28 C3 0.19, 3.24 0.12, 3.48 0.07 C3.72 0.02, 3.96 0, 4.21 0 C4.45 0, 4.7 0.02, 4.94 0.07 C5.18 0.12, 5.42 0.19, 5.65 0.28 C5.87 0.37, 6.1 0.48, 6.31 0.61 C6.52 0.74, 6.72 0.9, 6.91 1.07 C7.1 1.24, 7.27 1.43, 7.43 1.63 C7.59 1.83, 7.73 2.06, 7.85 2.28 C7.97 2.51, 8.08 2.76, 8.16 3.01 C8.24 3.26, 8.31 3.52, 8.35 3.78 C8.39 4.04, 8.4 4.44, 8.41 4.57 C8.42 4.7, 8.42 4.44, 8.41 4.57" stroke="none" stroke-width="0" fill="#7950f2"></path><path d="M8.41 4.57 C8.41 4.83, 8.39 5.1, 8.35 5.36 C8.31 5.62, 8.24 5.88, 8.16 6.13 C8.08 6.38, 7.97 6.63, 7.85 6.85 C7.73 7.08, 7.59 7.3, 7.43 7.51 C7.27 7.71, 7.1 7.9, 6.91 8.07 C6.72 8.24, 6.52 8.39, 6.31 8.53 C6.1 8.66, 5.87 8.77, 5.65 8.86 C5.42 8.95, 5.18 9.02, 4.94 9.07 C4.7 9.12, 4.45 9.14, 4.21 9.14 C3.96 9.14, 3.72 9.12, 3.48 9.07 C3.24 9.02, 3 8.95, 2.77 8.86 C2.54 8.77, 2.31 8.66, 2.1 8.53 C1.89 8.39, 1.69 8.24, 1.5 8.07 C1.32 7.9, 1.14 7.71, 0.98 7.51 C0.83 7.3, 0.69 7.08, 0.56 6.85 C0.44 6.63, 0.34 6.38, 0.25 6.13 C0.17 5.88, 0.11 5.62, 0.06 5.36 C0.02 5.1, 0 4.83, 0 4.57 C0 4.31, 0.02 4.04, 0.06 3.78 C0.11 3.52, 0.17 3.26, 0.25 3.01 C0.34 2.76, 0.44 2.51, 0.56 2.28 C0.69 2.06, 0.83 1.83, 0.98 1.63 C1.14 1.43, 1.32 1.24, 1.5 1.07 C1.69 0.9, 1.89 0.74, 2.1 0.61 C2.31 0.48, 2.54 0.37, 2.77 0.28 C3 0.19, 3.24 0.12, 3.48 0.07 C3.72 0.02, 3.96 0, 4.21 0 C4.45 0, 4.7 0.02, 4.94 0.07 C5.18 0.12, 5.42 0.19, 5.65 0.28 C5.87 0.37, 6.1 0.48, 6.31 0.61 C6.52 0.74, 6.72 0.9, 6.91 1.07 C7.1 1.24, 7.27 1.43, 7.43 1.63 C7.59 1.83, 7.73 2.06, 7.85 2.28 C7.97 2.51, 8.08 2.76, 8.16 3.01 C8.24 3.26, 8.31 3.52, 8.35 3.78 C8.39 4.04, 8.4 4.44, 8.41 4.57 C8.42 4.7, 8.42 4.44, 8.41 4.57" stroke="#5f3dc4" stroke-width="1" fill="none"></path></g><g stroke-linecap="round" transform="translate(681.1588392873732 41.49916524381479) rotate(358.1310915065084 3.7296939325749463 3.867855952340051)"><path d="M7.46 3.87 C7.46 4.09, 7.44 4.32, 7.4 4.54 C7.37 4.76, 7.31 4.98, 7.23 5.19 C7.16 5.4, 7.07 5.61, 6.96 5.8 C6.85 6, 6.73 6.18, 6.59 6.35 C6.45 6.53, 6.29 6.69, 6.13 6.83 C5.96 6.97, 5.78 7.11, 5.59 7.22 C5.41 7.33, 5.21 7.43, 5.01 7.5 C4.8 7.58, 4.59 7.64, 4.38 7.68 C4.16 7.72, 3.95 7.74, 3.73 7.74 C3.51 7.74, 3.29 7.72, 3.08 7.68 C2.87 7.64, 2.66 7.58, 2.45 7.5 C2.25 7.43, 2.05 7.33, 1.86 7.22 C1.68 7.11, 1.5 6.97, 1.33 6.83 C1.17 6.69, 1.01 6.53, 0.87 6.35 C0.73 6.18, 0.61 6, 0.5 5.8 C0.39 5.61, 0.3 5.4, 0.22 5.19 C0.15 4.98, 0.09 4.76, 0.06 4.54 C0.02 4.32, 0 4.09, 0 3.87 C0 3.64, 0.02 3.42, 0.06 3.2 C0.09 2.98, 0.15 2.76, 0.22 2.54 C0.3 2.33, 0.39 2.13, 0.5 1.93 C0.61 1.74, 0.73 1.55, 0.87 1.38 C1.01 1.21, 1.17 1.05, 1.33 0.9 C1.5 0.76, 1.68 0.63, 1.86 0.52 C2.05 0.41, 2.25 0.31, 2.45 0.23 C2.66 0.16, 2.87 0.1, 3.08 0.06 C3.29 0.02, 3.51 0, 3.73 0 C3.95 0, 4.16 0.02, 4.38 0.06 C4.59 0.1, 4.8 0.16, 5.01 0.23 C5.21 0.31, 5.41 0.41, 5.59 0.52 C5.78 0.63, 5.96 0.76, 6.13 0.9 C6.29 1.05, 6.45 1.21, 6.59 1.38 C6.73 1.55, 6.85 1.74, 6.96 1.93 C7.07 2.13, 7.16 2.33, 7.23 2.54 C7.31 2.76, 7.37 2.98, 7.4 3.2 C7.44 3.42, 7.45 3.76, 7.46 3.87 C7.47 3.98, 7.47 3.76, 7.46 3.87" stroke="#fff" stroke-width="1" fill="none"></path></g><g stroke-linecap="round" transform="translate(681.9321893333827 73.71177429256204) rotate(358.1310915065084 3.7296939325749463 3.867855952340051)"><path d="M7.46 3.87 C7.46 4.09, 7.44 4.32, 7.4 4.54 C7.37 4.76, 7.31 4.98, 7.23 5.19 C7.16 5.4, 7.07 5.61, 6.96 5.8 C6.85 6, 6.73 6.18, 6.59 6.35 C6.45 6.53, 6.29 6.69, 6.13 6.83 C5.96 6.97, 5.78 7.11, 5.59 7.22 C5.41 7.33, 5.21 7.43, 5.01 7.5 C4.8 7.58, 4.59 7.64, 4.38 7.68 C4.16 7.72, 3.95 7.74, 3.73 7.74 C3.51 7.74, 3.29 7.72, 3.08 7.68 C2.87 7.64, 2.66 7.58, 2.45 7.5 C2.25 7.43, 2.05 7.33, 1.86 7.22 C1.68 7.11, 1.5 6.97, 1.33 6.83 C1.17 6.69, 1.01 6.53, 0.87 6.35 C0.73 6.18, 0.61 6, 0.5 5.8 C0.39 5.61, 0.3 5.4, 0.22 5.19 C0.15 4.98, 0.09 4.76, 0.06 4.54 C0.02 4.32, 0 4.09, 0 3.87 C0 3.64, 0.02 3.42, 0.06 3.2 C0.09 2.98, 0.15 2.76, 0.22 2.54 C0.3 2.33, 0.39 2.13, 0.5 1.93 C0.61 1.74, 0.73 1.55, 0.87 1.38 C1.01 1.21, 1.17 1.05, 1.33 0.9 C1.5 0.76, 1.68 0.63, 1.86 0.52 C2.05 0.41, 2.25 0.31, 2.45 0.23 C2.66 0.16, 2.87 0.1, 3.08 0.06 C3.29 0.02, 3.51 0, 3.73 0 C3.95 0, 4.16 0.02, 4.38 0.06 C4.59 0.1, 4.8 0.16, 5.01 0.23 C5.21 0.31, 5.41 0.41, 5.59 0.52 C5.78 0.63, 5.96 0.76, 6.13 0.9 C6.29 1.05, 6.45 1.21, 6.59 1.38 C6.73 1.55, 6.85 1.74, 6.96 1.93 C7.07 2.13, 7.16 2.33, 7.23 2.54 C7.31 2.76, 7.37 2.98, 7.4 3.2 C7.44 3.42, 7.45 3.76, 7.46 3.87 C7.47 3.98, 7.47 3.76, 7.46 3.87" stroke="#fff" stroke-width="1" fill="none"></path></g><g stroke-linecap="round" transform="translate(696.4976687434701 58.9790568747685) rotate(358.1310915065084 3.724686267937045 3.7725718007777687)"><path d="M7.45 3.77 C7.45 3.99, 7.43 4.21, 7.39 4.43 C7.36 4.64, 7.3 4.86, 7.22 5.06 C7.15 5.27, 7.06 5.47, 6.95 5.66 C6.84 5.85, 6.72 6.03, 6.58 6.2 C6.44 6.36, 6.28 6.52, 6.12 6.66 C5.95 6.8, 5.77 6.93, 5.59 7.04 C5.4 7.15, 5.2 7.24, 5 7.32 C4.8 7.39, 4.58 7.45, 4.37 7.49 C4.16 7.53, 3.94 7.55, 3.72 7.55 C3.51 7.55, 3.29 7.53, 3.08 7.49 C2.87 7.45, 2.65 7.39, 2.45 7.32 C2.25 7.24, 2.05 7.15, 1.86 7.04 C1.68 6.93, 1.5 6.8, 1.33 6.66 C1.17 6.52, 1.01 6.36, 0.87 6.2 C0.73 6.03, 0.61 5.85, 0.5 5.66 C0.39 5.47, 0.3 5.27, 0.22 5.06 C0.15 4.86, 0.09 4.64, 0.06 4.43 C0.02 4.21, 0 3.99, 0 3.77 C0 3.55, 0.02 3.33, 0.06 3.12 C0.09 2.9, 0.15 2.69, 0.22 2.48 C0.3 2.28, 0.39 2.08, 0.5 1.89 C0.61 1.7, 0.73 1.51, 0.87 1.35 C1.01 1.18, 1.17 1.02, 1.33 0.88 C1.5 0.74, 1.68 0.61, 1.86 0.51 C2.05 0.4, 2.25 0.3, 2.45 0.23 C2.65 0.15, 2.87 0.1, 3.08 0.06 C3.29 0.02, 3.51 0, 3.72 0 C3.94 0, 4.16 0.02, 4.37 0.06 C4.58 0.1, 4.8 0.15, 5 0.23 C5.2 0.3, 5.4 0.4, 5.59 0.51 C5.77 0.61, 5.95 0.74, 6.12 0.88 C6.28 1.02, 6.44 1.18, 6.58 1.35 C6.72 1.51, 6.84 1.7, 6.95 1.89 C7.06 2.08, 7.15 2.28, 7.22 2.48 C7.3 2.69, 7.36 2.9, 7.39 3.12 C7.43 3.33, 7.44 3.66, 7.45 3.77 C7.46 3.88, 7.46 3.66, 7.45 3.77" stroke="#fff" stroke-width="1" fill="none"></path></g><g stroke-linecap="round" transform="translate(710.0495955819442 42.063276741268055) rotate(358.1310915065084 3.3253647284176395 3.7725718007777687)"><path d="M6.65 3.77 C6.65 3.99, 6.63 4.21, 6.6 4.43 C6.57 4.64, 6.52 4.86, 6.45 5.06 C6.38 5.27, 6.3 5.47, 6.21 5.66 C6.11 5.85, 6 6.03, 5.87 6.2 C5.75 6.36, 5.61 6.52, 5.46 6.66 C5.32 6.8, 5.15 6.93, 4.99 7.04 C4.82 7.15, 4.64 7.24, 4.46 7.32 C4.28 7.39, 4.09 7.45, 3.9 7.49 C3.71 7.53, 3.52 7.55, 3.33 7.55 C3.13 7.55, 2.94 7.53, 2.75 7.49 C2.56 7.45, 2.37 7.39, 2.19 7.32 C2.01 7.24, 1.83 7.15, 1.66 7.04 C1.5 6.93, 1.34 6.8, 1.19 6.66 C1.04 6.52, 0.9 6.36, 0.78 6.2 C0.65 6.03, 0.54 5.85, 0.45 5.66 C0.35 5.47, 0.27 5.27, 0.2 5.06 C0.13 4.86, 0.08 4.64, 0.05 4.43 C0.02 4.21, 0 3.99, 0 3.77 C0 3.55, 0.02 3.33, 0.05 3.12 C0.08 2.9, 0.13 2.69, 0.2 2.48 C0.27 2.28, 0.35 2.08, 0.45 1.89 C0.54 1.7, 0.65 1.51, 0.78 1.35 C0.9 1.18, 1.04 1.02, 1.19 0.88 C1.34 0.74, 1.5 0.61, 1.66 0.51 C1.83 0.4, 2.01 0.3, 2.19 0.23 C2.37 0.15, 2.56 0.1, 2.75 0.06 C2.94 0.02, 3.13 0, 3.33 0 C3.52 0, 3.71 0.02, 3.9 0.06 C4.09 0.1, 4.28 0.15, 4.46 0.23 C4.64 0.3, 4.82 0.4, 4.99 0.51 C5.15 0.61, 5.32 0.74, 5.46 0.88 C5.61 1.02, 5.75 1.18, 5.87 1.35 C6 1.51, 6.11 1.7, 6.21 1.89 C6.3 2.08, 6.38 2.28, 6.45 2.48 C6.52 2.69, 6.57 2.9, 6.6 3.12 C6.63 3.33, 6.64 3.66, 6.65 3.77 C6.66 3.88, 6.66 3.66, 6.65 3.77" stroke="#fff" stroke-width="1" fill="none"></path></g><g stroke-linecap="round" transform="translate(712.5751882187133 74.8735015574166) rotate(358.1310915065084 2.941784745967084 3.7725718007777687)"><path d="M5.88 3.77 C5.88 3.99, 5.87 4.21, 5.84 4.43 C5.81 4.64, 5.76 4.86, 5.71 5.06 C5.65 5.27, 5.57 5.47, 5.49 5.66 C5.4 5.85, 5.3 6.03, 5.2 6.2 C5.09 6.36, 4.96 6.52, 4.83 6.66 C4.7 6.8, 4.56 6.93, 4.41 7.04 C4.27 7.15, 4.11 7.24, 3.95 7.32 C3.79 7.39, 3.62 7.45, 3.45 7.49 C3.28 7.53, 3.11 7.55, 2.94 7.55 C2.77 7.55, 2.6 7.53, 2.43 7.49 C2.26 7.45, 2.1 7.39, 1.94 7.32 C1.78 7.24, 1.62 7.15, 1.47 7.04 C1.32 6.93, 1.18 6.8, 1.05 6.66 C0.92 6.52, 0.8 6.36, 0.69 6.2 C0.58 6.03, 0.48 5.85, 0.39 5.66 C0.31 5.47, 0.24 5.27, 0.18 5.06 C0.12 4.86, 0.07 4.64, 0.04 4.43 C0.02 4.21, 0 3.99, 0 3.77 C0 3.55, 0.02 3.33, 0.04 3.12 C0.07 2.9, 0.12 2.69, 0.18 2.48 C0.24 2.28, 0.31 2.08, 0.39 1.89 C0.48 1.7, 0.58 1.51, 0.69 1.35 C0.8 1.18, 0.92 1.02, 1.05 0.88 C1.18 0.74, 1.32 0.61, 1.47 0.51 C1.62 0.4, 1.78 0.3, 1.94 0.23 C2.1 0.15, 2.26 0.1, 2.43 0.06 C2.6 0.02, 2.77 0, 2.94 0 C3.11 0, 3.28 0.02, 3.45 0.06 C3.62 0.1, 3.79 0.15, 3.95 0.23 C4.11 0.3, 4.27 0.4, 4.41 0.51 C4.56 0.61, 4.7 0.74, 4.83 0.88 C4.96 1.02, 5.09 1.18, 5.2 1.35 C5.3 1.51, 5.4 1.7, 5.49 1.89 C5.57 2.08, 5.65 2.28, 5.71 2.48 C5.76 2.69, 5.81 2.9, 5.84 3.12 C5.87 3.33, 5.88 3.66, 5.88 3.77 C5.89 3.88, 5.89 3.66, 5.88 3.77" stroke="#fff" stroke-width="1" fill="none"></path></g><g stroke-linecap="round" transform="translate(400.11506686401344 249.14609154442678) rotate(0 4.639756944444457 55.61663203215039)"><path d="M2.32 0 L8.7 0.58 L9.28 2.32 L9.28 108.91 L8.7 110.65 L6.96 111.23 L2.32 111.23 L0.58 110.65 L0 108.91 L0 2.32 L0.58 0.58 L2.32 0" stroke="none" stroke-width="0" fill="#b2f2bb"></path><path d="M2.32 0 M2.32 0 C4.11 0, 5.91 0, 6.96 0 M2.32 0 C3.95 0, 5.59 0, 6.96 0 M6.96 0 C8.51 0, 9.28 0.77, 9.28 2.32 M6.96 0 C8.51 0, 9.28 0.77, 9.28 2.32 M9.28 2.32 C9.28 40.22, 9.28 78.12, 9.28 108.91 M9.28 2.32 C9.28 28.58, 9.28 54.84, 9.28 108.91 M9.28 108.91 C9.28 110.46, 8.51 111.23, 6.96 111.23 M9.28 108.91 C9.28 110.46, 8.51 111.23, 6.96 111.23 M6.96 111.23 C5.17 111.23, 3.38 111.23, 2.32 111.23 M6.96 111.23 C5.3 111.23, 3.64 111.23, 2.32 111.23 M2.32 111.23 C0.77 111.23, 0 110.46, 0 108.91 M2.32 111.23 C0.77 111.23, 0 110.46, 0 108.91 M0 108.91 C0 71.34, 0 33.76, 0 2.32 M0 108.91 C0 77.93, 0 46.95, 0 2.32 M0 2.32 C0 0.77, 0.77 0, 2.32 0 M0 2.32 C0 0.77, 0.77 0, 2.32 0" stroke="#2f9e44" stroke-width="1" fill="none"></path></g><g mask="url(#mask-dVlhSCO-zo19xivPprp3D)" stroke-linecap="round"><g transform="translate(412.93482951902183 350.87890625) rotate(0 143.45643811694026 0)"><path d="M0 0 C47.82 0, 239.09 0, 286.91 0 M0 0 C47.82 0, 239.09 0, 286.91 0" stroke="#000000" stroke-width="1" fill="none"></path></g><g transform="translate(412.93482951902183 350.87890625) rotate(0 143.45643811694026 0)"><path d="M0 0 L13.59 -6.34 L13.59 6.34 L0 0" stroke="none" stroke-width="0" fill="#000000" fill-rule="evenodd"></path><path d="M0 0 C3.67 -1.71, 7.35 -3.43, 13.59 -6.34 M0 0 C3.3 -1.54, 6.6 -3.08, 13.59 -6.34 M13.59 -6.34 C13.59 -1.77, 13.59 2.79, 13.59 6.34 M13.59 -6.34 C13.59 -1.28, 13.59 3.78, 13.59 6.34 M13.59 6.34 C8.82 4.11, 4.04 1.88, 0 0 M13.59 6.34 C10.2 4.76, 6.8 3.17, 0 0 M0 0 C0 0, 0 0, 0 0 M0 0 C0 0, 0 0, 0 0" stroke="#000000" stroke-width="1" fill="none"></path></g></g><mask id="mask-dVlhSCO-zo19xivPprp3D"><rect x="0" y="0" fill="#fff" width="799.8477057529024" height="450.87890625"></rect><rect x="472.2233294035402" y="340.87890625" fill="#000" width="168.33587646484375" height="20" opacity="1"></rect></mask><g transform="translate(472.2233294035402 340.87890625) rotate(0 84.16793823242188 10)"><text x="84.16793823242188" y="0" font-family="Virgil, Segoe UI Emoji" font-size="16px" fill="#000000" text-anchor="middle" style="white-space: pre;" direction="ltr" dominant-baseline="text-before-edge">add Paved Path API</text></g><g transform="translate(347.17192450290236 10) rotate(0 59.6259765625 35)"><text x="59.6259765625" y="0" font-family="Virgil, Segoe UI Emoji" font-size="28px" fill="#000000" text-anchor="middle" style="white-space: pre;" direction="ltr" dominant-baseline="text-before-edge">Platform</text><text x="59.6259765625" y="35" font-family="Virgil, Segoe UI Emoji" font-size="28px" fill="#000000" text-anchor="middle" style="white-space: pre;" direction="ltr" dominant-baseline="text-before-edge">Cluster</text></g><g stroke-linecap="round"><g transform="translate(705.0742682529021 95.7858530086196) rotate(0 0 360.790144104149)"><path d="M0 0 C0 120.26, 0 601.32, 0 721.58 M0 0 C0 120.26, 0 601.32, 0 721.58" stroke="#000000" stroke-width="1" fill="none"></path></g></g><mask></mask><g mask="url(#mask-monN6aWgTBfl4-vj872x3)" stroke-linecap="round"><g transform="translate(703.7539557529024 270.1015625) rotate(0 -146.2567757150074 0)"><path d="M0 0 C-48.75 0, -243.76 0, -292.51 0 M0 0 C-48.75 0, -243.76 0, -292.51 0" stroke="#000000" stroke-width="1" fill="none"></path></g><g transform="translate(703.7539557529024 270.1015625) rotate(0 -146.2567757150074 0)"><path d="M0 0 L-13.59 6.34 L-13.59 -6.34 L0 0" stroke="none" stroke-width="0" fill="#000000" fill-rule="evenodd"></path><path d="M0 0 C-4.9 2.28, -9.79 4.57, -13.59 6.34 M0 0 C-5.1 2.38, -10.2 4.76, -13.59 6.34 M-13.59 6.34 C-13.59 2.42, -13.59 -1.5, -13.59 -6.34 M-13.59 6.34 C-13.59 2.04, -13.59 -2.25, -13.59 -6.34 M-13.59 -6.34 C-9.66 -4.51, -5.73 -2.67, 0 0 M-13.59 -6.34 C-10.26 -4.79, -6.93 -3.23, 0 0 M0 0 C0 0, 0 0, 0 0 M0 0 C0 0, 0 0, 0 0" stroke="#000000" stroke-width="1" fill="none"></path></g></g><mask id="mask-monN6aWgTBfl4-vj872x3"><rect x="0" y="0" fill="#fff" width="1096.2675071829171" height="370.1015625"></rect><rect x="454.10525804082476" y="260.1015625" fill="#000" width="206.78384399414062" height="20" opacity="1"></rect></mask><g transform="translate(454.10525804082476 260.1015625) rotate(0 103.3919219970702 10)"><text x="103.39192199707031" y="0" font-family="Virgil, Segoe UI Emoji" font-size="16px" fill="#000000" text-anchor="middle" style="white-space: pre;" direction="ltr" dominant-baseline="text-before-edge">install paved path promise</text></g><g mask="url(#mask-B5wryxNg8QiZVcRoO6bC5)" stroke-linecap="round"><g transform="translate(997.0208448684859 375.75001881448406) rotate(0 -145.1953125000001 -0.458984375)"><path d="M0 0 C-48.4 -0.15, -241.99 -0.76, -290.39 -0.92 M0 0 C-48.4 -0.15, -241.99 -0.76, -290.39 -0.92" stroke="#000000" stroke-width="1" fill="none"></path></g><g transform="translate(997.0208448684859 375.75001881448406) rotate(0 -145.1953125000001 -0.458984375)"><path d="M0 0 L-13.61 6.3 L-13.57 -6.38 L0 0" stroke="none" stroke-width="0" fill="#000000" fill-rule="evenodd"></path><path d="M0 0 C-4.04 1.87, -8.09 3.74, -13.61 6.3 M0 0 C-2.83 1.31, -5.66 2.62, -13.61 6.3 M-13.61 6.3 C-13.6 2.42, -13.59 -1.45, -13.57 -6.38 M-13.61 6.3 C-13.6 1.6, -13.58 -3.09, -13.57 -6.38 M-13.57 -6.38 C-8.32 -3.91, -3.06 -1.44, 0 0 M-13.57 -6.38 C-10.49 -4.93, -7.41 -3.48, 0 0 M0 0 C0 0, 0 0, 0 0 M0 0 C0 0, 0 0, 0 0" stroke="#000000" stroke-width="1" fill="none"></path></g></g><mask id="mask-B5wryxNg8QiZVcRoO6bC5"><rect x="0" y="0" fill="#fff" width="1387.4114698684862" height="476.66798756448406"></rect><rect x="767.4175886429" y="355.29103443948406" fill="#000" width="168.81588745117188" height="40" opacity="1"></rect></mask><g transform="translate(767.4175886429 355.29103443948406) rotate(0 84.40794372558582 20)"><text x="84.40794372558594" y="0" font-family="Virgil, Segoe UI Emoji" font-size="16px" fill="#000000" text-anchor="middle" style="white-space: pre;" direction="ltr" dominant-baseline="text-before-edge">schedule paved path </text><text x="84.40794372558594" y="20" font-family="Virgil, Segoe UI Emoji" font-size="16px" fill="#000000" text-anchor="middle" style="white-space: pre;" direction="ltr" dominant-baseline="text-before-edge">dependencies</text></g><g mask="url(#mask-7g9QQEgQZXB50WUZVHeYk)" stroke-linecap="round"><g transform="translate(411.355510823671 424.65711805555566) rotate(0 296.3930701208659 0)"><path d="M0 0 C98.8 0, 493.99 0, 592.79 0 M0 0 C98.8 0, 493.99 0, 592.79 0" stroke="#000000" stroke-width="1" fill="none"></path></g><g transform="translate(411.355510823671 424.65711805555566) rotate(0 296.3930701208659 0)"><path d="M0 0 L13.59 -6.34 L13.59 6.34 L0 0" stroke="none" stroke-width="0" fill="#000000" fill-rule="evenodd"></path><path d="M0 0 C4.82 -2.25, 9.63 -4.49, 13.59 -6.34 M0 0 C5.38 -2.51, 10.77 -5.02, 13.59 -6.34 M13.59 -6.34 C13.59 -1.47, 13.59 3.39, 13.59 6.34 M13.59 -6.34 C13.59 -2.8, 13.59 0.75, 13.59 6.34 M13.59 6.34 C10.38 4.84, 7.17 3.34, 0 0 M13.59 6.34 C9.94 4.64, 6.3 2.94, 0 0 M0 0 C0 0, 0 0, 0 0 M0 0 C0 0, 0 0, 0 0" stroke="#000000" stroke-width="1" fill="none"></path></g></g><mask id="mask-7g9QQEgQZXB50WUZVHeYk"><rect x="0" y="0" fill="#fff" width="1104.1416510654028" height="524.6571180555557"></rect><rect x="621.3966522335993" y="414.65711805555566" fill="#000" width="172.703857421875" height="20" opacity="1"></rect></mask><g transform="translate(621.3966522335993 414.65711805555566) rotate(0 86.35192871093761 10)"><text x="86.3519287109375" y="0" font-family="Virgil, Segoe UI Emoji" font-size="16px" fill="#000000" text-anchor="middle" style="white-space: pre;" direction="ltr" dominant-baseline="text-before-edge">install NGINX Promise</text></g><g mask="url(#mask-mDTmeSjz_ZiePIsMWMowT)" stroke-linecap="round"><g transform="translate(413.2545446156962 510.52711648776585) rotate(0 141.75311654995505 0)"><path d="M0 0 C47.25 0, 236.26 0, 283.51 0 M0 0 C47.25 0, 236.26 0, 283.51 0" stroke="#000000" stroke-width="1" fill="none"></path></g><g transform="translate(413.2545446156962 510.52711648776585) rotate(0 141.75311654995505 0)"><path d="M0 0 L13.59 -6.34 L13.59 6.34 L0 0" stroke="none" stroke-width="0" fill="#000000" fill-rule="evenodd"></path><path d="M0 0 C4.25 -1.98, 8.49 -3.96, 13.59 -6.34 M0 0 C4.07 -1.9, 8.15 -3.8, 13.59 -6.34 M13.59 -6.34 C13.59 -3.47, 13.59 -0.59, 13.59 6.34 M13.59 -6.34 C13.59 -2.34, 13.59 1.67, 13.59 6.34 M13.59 6.34 C10.2 4.76, 6.81 3.18, 0 0 M13.59 6.34 C10.21 4.76, 6.83 3.18, 0 0 M0 0 C0 0, 0 0, 0 0 M0 0 C0 0, 0 0, 0 0" stroke="#000000" stroke-width="1" fill="none"></path></g></g><mask id="mask-mDTmeSjz_ZiePIsMWMowT"><rect x="0" y="0" fill="#fff" width="796.7607777156063" height="610.5271164877659"></rect><rect x="491.9117215294207" y="500.52711648776585" fill="#000" width="126.19187927246094" height="20" opacity="1"></rect></mask><g transform="translate(491.9117215294207 500.52711648776585) rotate(0 63.09593963623058 10)"><text x="63.09593963623047" y="0" font-family="Virgil, Segoe UI Emoji" font-size="16px" fill="#000000" text-anchor="middle" style="white-space: pre;" direction="ltr" dominant-baseline="text-before-edge">add NGINX API</text></g><g stroke-linecap="round"><g transform="translate(1005.9831224195691 102.30172602449147) rotate(0 0 356.3809971114929)"><path d="M0 0 C0 118.79, 0 593.97, 0 712.76 M0 0 C0 118.79, 0 593.97, 0 712.76" stroke="#000000" stroke-width="1" fill="none"></path></g></g><mask></mask><g stroke-linecap="round" transform="translate(976.8679423555252 44.1247331756058) rotate(269.94514152181193 26.296589557933316 26.734056477614104)"><path d="M13.15 0 L42.53 0.21 L47.46 1.85 L50.74 5.14 L52.59 13.15 L52.39 43.4 L50.74 48.33 L47.46 51.62 L39.44 53.47 L10.07 53.26 L5.14 51.62 L1.85 48.33 L0 40.32 L0 13.15 L0.82 7.4 L1.85 5.14 L5.14 1.85 L13.15 0" stroke="none" stroke-width="0" fill="#ced4da"></path><path d="M13.15 0 M13.15 0 C19.13 0, 25.11 0, 39.44 0 M13.15 0 C19.32 0, 25.49 0, 39.44 0 M39.44 0 C48.21 0, 52.59 4.38, 52.59 13.15 M39.44 0 C48.21 0, 52.59 4.38, 52.59 13.15 M52.59 13.15 C52.59 20.6, 52.59 28.04, 52.59 40.32 M52.59 13.15 C52.59 20.21, 52.59 27.26, 52.59 40.32 M52.59 40.32 C52.59 49.09, 48.21 53.47, 39.44 53.47 M52.59 40.32 C52.59 49.09, 48.21 53.47, 39.44 53.47 M39.44 53.47 C29.53 53.47, 19.62 53.47, 13.15 53.47 M39.44 53.47 C33.99 53.47, 28.54 53.47, 13.15 53.47 M13.15 53.47 C4.38 53.47, 0 49.09, 0 40.32 M13.15 53.47 C4.38 53.47, 0 49.09, 0 40.32 M0 40.32 C0 34.12, 0 27.92, 0 13.15 M0 40.32 C0 30.59, 0 20.86, 0 13.15 M0 13.15 C0 4.38, 4.38 0, 13.15 0 M0 13.15 C0 4.38, 4.38 0, 13.15 0" stroke="#343a40" stroke-width="1" fill="none"></path></g><g stroke-linecap="round" transform="translate(993.0270430848475 19.402051882721025) rotate(269.94514152181193 10.225649167112692 26.799987239605798)"><path d="M20.45 26.8 C20.45 28.35, 20.4 29.93, 20.3 31.45 C20.19 32.98, 20.04 34.51, 19.83 35.97 C19.63 37.42, 19.38 38.86, 19.08 40.2 C18.79 41.54, 18.44 42.84, 18.06 44.03 C17.68 45.22, 17.25 46.33, 16.8 47.33 C16.35 48.33, 15.85 49.23, 15.34 50.01 C14.83 50.79, 14.28 51.45, 13.72 51.98 C13.17 52.51, 12.58 52.92, 12 53.19 C11.42 53.46, 10.82 53.6, 10.23 53.6 C9.63 53.6, 9.03 53.46, 8.45 53.19 C7.87 52.92, 7.28 52.51, 6.73 51.98 C6.17 51.45, 5.63 50.79, 5.11 50.01 C4.6 49.23, 4.11 48.33, 3.65 47.33 C3.2 46.33, 2.77 45.22, 2.39 44.03 C2.01 42.84, 1.67 41.54, 1.37 40.2 C1.07 38.86, 0.82 37.42, 0.62 35.97 C0.41 34.51, 0.26 32.98, 0.16 31.45 C0.05 29.93, 0 28.35, 0 26.8 C0 25.25, 0.05 23.67, 0.16 22.15 C0.26 20.62, 0.41 19.09, 0.62 17.63 C0.82 16.18, 1.07 14.74, 1.37 13.4 C1.67 12.06, 2.01 10.76, 2.39 9.57 C2.77 8.38, 3.2 7.27, 3.65 6.27 C4.11 5.27, 4.6 4.37, 5.11 3.59 C5.63 2.81, 6.17 2.15, 6.73 1.62 C7.28 1.09, 7.87 0.68, 8.45 0.41 C9.03 0.14, 9.63 0, 10.23 0 C10.82 0, 11.42 0.14, 12 0.41 C12.58 0.68, 13.17 1.09, 13.72 1.62 C14.28 2.15, 14.83 2.81, 15.34 3.59 C15.85 4.37, 16.35 5.27, 16.8 6.27 C17.25 7.27, 17.68 8.38, 18.06 9.57 C18.44 10.76, 18.79 12.06, 19.08 13.4 C19.38 14.74, 19.63 16.18, 19.83 17.63 C20.04 19.09, 20.19 20.62, 20.3 22.15 C20.4 23.67, 20.43 26.02, 20.45 26.8 C20.48 27.58, 20.48 26.02, 20.45 26.8" stroke="none" stroke-width="0" fill="#868e96"></path><path d="M20.45 26.8 C20.45 28.35, 20.4 29.93, 20.3 31.45 C20.19 32.98, 20.04 34.51, 19.83 35.97 C19.63 37.42, 19.38 38.86, 19.08 40.2 C18.79 41.54, 18.44 42.84, 18.06 44.03 C17.68 45.22, 17.25 46.33, 16.8 47.33 C16.35 48.33, 15.85 49.23, 15.34 50.01 C14.83 50.79, 14.28 51.45, 13.72 51.98 C13.17 52.51, 12.58 52.92, 12 53.19 C11.42 53.46, 10.82 53.6, 10.23 53.6 C9.63 53.6, 9.03 53.46, 8.45 53.19 C7.87 52.92, 7.28 52.51, 6.73 51.98 C6.17 51.45, 5.63 50.79, 5.11 50.01 C4.6 49.23, 4.11 48.33, 3.65 47.33 C3.2 46.33, 2.77 45.22, 2.39 44.03 C2.01 42.84, 1.67 41.54, 1.37 40.2 C1.07 38.86, 0.82 37.42, 0.62 35.97 C0.41 34.51, 0.26 32.98, 0.16 31.45 C0.05 29.93, 0 28.35, 0 26.8 C0 25.25, 0.05 23.67, 0.16 22.15 C0.26 20.62, 0.41 19.09, 0.62 17.63 C0.82 16.18, 1.07 14.74, 1.37 13.4 C1.67 12.06, 2.01 10.76, 2.39 9.57 C2.77 8.38, 3.2 7.27, 3.65 6.27 C4.11 5.27, 4.6 4.37, 5.11 3.59 C5.63 2.81, 6.17 2.15, 6.73 1.62 C7.28 1.09, 7.87 0.68, 8.45 0.41 C9.03 0.14, 9.63 0, 10.23 0 C10.82 0, 11.42 0.14, 12 0.41 C12.58 0.68, 13.17 1.09, 13.72 1.62 C14.28 2.15, 14.83 2.81, 15.34 3.59 C15.85 4.37, 16.35 5.27, 16.8 6.27 C17.25 7.27, 17.68 8.38, 18.06 9.57 C18.44 10.76, 18.79 12.06, 19.08 13.4 C19.38 14.74, 19.63 16.18, 19.83 17.63 C20.04 19.09, 20.19 20.62, 20.3 22.15 C20.4 23.67, 20.43 26.02, 20.45 26.8 C20.48 27.58, 20.48 26.02, 20.45 26.8" stroke="#343a40" stroke-width="1" fill="none"></path></g><g transform="translate(983.7976498491962 63.79086201265545) rotate(0 18.842349730988587 12.377477689335592)"><text x="18.842349730988566" y="0" font-family="Virgil, Segoe UI Emoji" font-size="6.601321434312271px" fill="#343a40" text-anchor="middle" style="white-space: pre;" direction="ltr" dominant-baseline="text-before-edge">Declarative</text><text x="18.842349730988566" y="8.251651792890339" font-family="Virgil, Segoe UI Emoji" font-size="6.601321434312271px" fill="#343a40" text-anchor="middle" style="white-space: pre;" direction="ltr" dominant-baseline="text-before-edge">State</text><text x="18.842349730988566" y="16.503303585780678" font-family="Virgil, Segoe UI Emoji" font-size="6.601321434312271px" fill="#343a40" text-anchor="middle" style="white-space: pre;" direction="ltr" dominant-baseline="text-before-edge">Store</text></g><g stroke-linecap="round" transform="translate(399.04745197133593 413.4074014684493) rotate(0 4.639756944444457 54.50805096928707)"><path d="M2.32 0 L8.7 0.58 L9.28 2.32 L9.28 106.7 L8.7 108.44 L6.96 109.02 L2.32 109.02 L0.58 108.44 L0 106.7 L0 2.32 L0.58 0.58 L2.32 0" stroke="none" stroke-width="0" fill="#ffec99"></path><path d="M2.32 0 M2.32 0 C3.96 0, 5.61 0, 6.96 0 M2.32 0 C3.54 0, 4.75 0, 6.96 0 M6.96 0 C8.51 0, 9.28 0.77, 9.28 2.32 M6.96 0 C8.51 0, 9.28 0.77, 9.28 2.32 M9.28 2.32 C9.28 35.33, 9.28 68.34, 9.28 106.7 M9.28 2.32 C9.28 37.18, 9.28 72.04, 9.28 106.7 M9.28 106.7 C9.28 108.24, 8.51 109.02, 6.96 109.02 M9.28 106.7 C9.28 108.24, 8.51 109.02, 6.96 109.02 M6.96 109.02 C5.78 109.02, 4.61 109.02, 2.32 109.02 M6.96 109.02 C5.43 109.02, 3.9 109.02, 2.32 109.02 M2.32 109.02 C0.77 109.02, 0 108.24, 0 106.7 M2.32 109.02 C0.77 109.02, 0 108.24, 0 106.7 M0 106.7 C0 71.22, 0 35.75, 0 2.32 M0 106.7 C0 75.86, 0 45.02, 0 2.32 M0 2.32 C0 0.77, 0.77 0, 2.32 0 M0 2.32 C0 0.77, 0.77 0, 2.32 0" stroke="#f08c00" stroke-width="1" fill="none"></path></g><g transform="translate(1198.819319523785 20.717256102257124) rotate(0 49.83998107910156 35)"><text x="49.83998107910156" y="0" font-family="Virgil, Segoe UI Emoji" font-size="28px" fill="#000000" text-anchor="middle" style="white-space: pre;" direction="ltr" dominant-baseline="text-before-edge">Worker</text><text x="49.83998107910156" y="35" font-family="Virgil, Segoe UI Emoji" font-size="28px" fill="#000000" text-anchor="middle" style="white-space: pre;" direction="ltr" dominant-baseline="text-before-edge">Cluster</text></g><g stroke-linecap="round"><g transform="translate(1252.3986605689431 103.02147100686489) rotate(0 -1.1368683772161603e-13 356.24921492195153)"><path d="M0 0 C0 118.75, 0 593.75, 0 712.5 M0 0 C0 118.75, 0 593.75, 0 712.5" stroke="#000000" stroke-width="1" fill="none"></path></g></g><mask></mask><g mask="url(#mask-vJMJDLBJjt6LjTnd4PWXw)" stroke-linecap="round"><g transform="translate(696.5724671368803 470.93474575952223) rotate(0 -142.0464016019306 0)"><path d="M0 0 C-47.35 0, -236.74 0, -284.09 0 M0 0 C-47.35 0, -236.74 0, -284.09 0" stroke="#000000" stroke-width="1" fill="none"></path></g><g transform="translate(696.5724671368803 470.93474575952223) rotate(0 -142.0464016019306 0)"><path d="M0 0 L-13.59 6.34 L-13.59 -6.34 L0 0" stroke="none" stroke-width="0" fill="#000000" fill-rule="evenodd"></path><path d="M0 0 C-4.1 1.91, -8.19 3.82, -13.59 6.34 M0 0 C-3 1.4, -5.99 2.79, -13.59 6.34 M-13.59 6.34 C-13.59 3.04, -13.59 -0.26, -13.59 -6.34 M-13.59 6.34 C-13.59 2.93, -13.59 -0.49, -13.59 -6.34 M-13.59 -6.34 C-8.19 -3.82, -2.79 -1.3, 0 0 M-13.59 -6.34 C-10.65 -4.96, -7.7 -3.59, 0 0 M0 0 C0 0, 0 0, 0 0 M0 0 C0 0, 0 0, 0 0" stroke="#000000" stroke-width="1" fill="none"></path></g></g><mask id="mask-vJMJDLBJjt6LjTnd4PWXw"><rect x="0" y="0" fill="#fff" width="1080.6652703407415" height="570.9347457595222"></rect><rect x="469.5181385940316" y="460.93474575952223" fill="#000" width="170.01585388183594" height="20" opacity="1"></rect></mask><g transform="translate(469.5181385940316 460.93474575952223) rotate(0 85.00792694091808 10)"><text x="85.00792694091797" y="0" font-family="Virgil, Segoe UI Emoji" font-size="16px" fill="#000000" text-anchor="middle" style="white-space: pre;" direction="ltr" dominant-baseline="text-before-edge">install NGINX promise</text></g><g mask="url(#mask-YXnbsoYRDvsTxOkLmtL0A)" stroke-linecap="round"><g transform="translate(1000.5416908230609 527.2057440682956) rotate(0 -145.1953125000001 -0.458984375)"><path d="M0 0 C-48.4 -0.15, -241.99 -0.76, -290.39 -0.92 M0 0 C-48.4 -0.15, -241.99 -0.76, -290.39 -0.92" stroke="#000000" stroke-width="1" fill="none"></path></g><g transform="translate(1000.5416908230609 527.2057440682956) rotate(0 -145.1953125000001 -0.458984375)"><path d="M0 0 L-13.61 6.3 L-13.57 -6.38 L0 0" stroke="none" stroke-width="0" fill="#000000" fill-rule="evenodd"></path><path d="M0 0 C-3.64 1.68, -7.28 3.37, -13.61 6.3 M0 0 C-4.72 2.18, -9.43 4.36, -13.61 6.3 M-13.61 6.3 C-13.6 2.86, -13.59 -0.58, -13.57 -6.38 M-13.61 6.3 C-13.6 2.46, -13.59 -1.37, -13.57 -6.38 M-13.57 -6.38 C-10.15 -4.77, -6.72 -3.16, 0 0 M-13.57 -6.38 C-10.54 -4.95, -7.5 -3.53, 0 0 M0 0 C0 0, 0 0, 0 0 M0 0 C0 0, 0 0, 0 0" stroke="#000000" stroke-width="1" fill="none"></path></g></g><mask id="mask-YXnbsoYRDvsTxOkLmtL0A"><rect x="0" y="0" fill="#fff" width="1390.9323158230611" height="628.1237128182956"></rect><rect x="789.3224296536271" y="506.74675969329564" fill="#000" width="132.0478973388672" height="40" opacity="1"></rect></mask><g transform="translate(789.3224296536271 506.74675969329564) rotate(0 66.02394866943371 20)"><text x="66.0239486694336" y="0" font-family="Virgil, Segoe UI Emoji" font-size="16px" fill="#000000" text-anchor="middle" style="white-space: pre;" direction="ltr" dominant-baseline="text-before-edge">schedule NGINX </text><text x="66.0239486694336" y="20" font-family="Virgil, Segoe UI Emoji" font-size="16px" fill="#000000" text-anchor="middle" style="white-space: pre;" direction="ltr" dominant-baseline="text-before-edge">dependencies</text></g><g mask="url(#mask-Wzz_NIl8dxuFoI5-fCmXE)" stroke-linecap="round"><g transform="translate(1243.6944865053033 556.849845540035) rotate(0 -118.2516675974997 0)"><path d="M0 0 C-39.42 0, -197.09 0, -236.5 0 M0 0 C-39.42 0, -197.09 0, -236.5 0" stroke="#000000" stroke-width="1" fill="none"></path></g><g transform="translate(1243.6944865053033 556.849845540035) rotate(0 -118.2516675974997 0)"><path d="M0 0 L-13.59 6.34 L-13.59 -6.34 L0 0" stroke="none" stroke-width="0" fill="#000000" fill-rule="evenodd"></path><path d="M0 0 C-3.88 1.81, -7.76 3.62, -13.59 6.34 M0 0 C-4.46 2.08, -8.91 4.16, -13.59 6.34 M-13.59 6.34 C-13.59 2.69, -13.59 -0.95, -13.59 -6.34 M-13.59 6.34 C-13.59 3.49, -13.59 0.63, -13.59 -6.34 M-13.59 -6.34 C-9.01 -4.2, -4.43 -2.07, 0 0 M-13.59 -6.34 C-9.79 -4.56, -5.98 -2.79, 0 0 M0 0 C0 0, 0 0, 0 0 M0 0 C0 0, 0 0, 0 0" stroke="#000000" stroke-width="1" fill="none"></path></g></g><mask id="mask-Wzz_NIl8dxuFoI5-fCmXE"><rect x="0" y="0" fill="#fff" width="1580.1978217003027" height="656.849845540035"></rect><rect x="1067.7868664541902" y="536.849845540035" fill="#000" width="115.31190490722656" height="40" opacity="1"></rect></mask><g transform="translate(1067.7868664541904 536.849845540035) rotate(0 57.65595245361328 20)"><text x="57.65595245361328" y="0" font-family="Virgil, Segoe UI Emoji" font-size="16px" fill="#000000" text-anchor="middle" style="white-space: pre;" direction="ltr" dominant-baseline="text-before-edge">install NGINX </text><text x="57.65595245361328" y="20" font-family="Virgil, Segoe UI Emoji" font-size="16px" fill="#000000" text-anchor="middle" style="white-space: pre;" direction="ltr" dominant-baseline="text-before-edge">dependencies</text></g><g stroke-linecap="round" transform="translate(701.4513395842205 266.7903990122504) rotate(0 4.639756944444457 53.909173090426975)"><path d="M2.32 0 L8.7 0.58 L9.28 2.32 L9.28 105.5 L8.7 107.24 L6.96 107.82 L0.58 107.24 L0 105.5 L0 2.32 L0.58 0.58 L2.32 0" stroke="none" stroke-width="0" fill="#b2f2bb"></path><path d="M2.32 0 M2.32 0 C4.05 0, 5.78 0, 6.96 0 M2.32 0 C3.46 0, 4.6 0, 6.96 0 M6.96 0 C8.51 0, 9.28 0.77, 9.28 2.32 M6.96 0 C8.51 0, 9.28 0.77, 9.28 2.32 M9.28 2.32 C9.28 43.22, 9.28 84.12, 9.28 105.5 M9.28 2.32 C9.28 38.49, 9.28 74.65, 9.28 105.5 M9.28 105.5 C9.28 107.05, 8.51 107.82, 6.96 107.82 M9.28 105.5 C9.28 107.05, 8.51 107.82, 6.96 107.82 M6.96 107.82 C5.13 107.82, 3.31 107.82, 2.32 107.82 M6.96 107.82 C5.23 107.82, 3.5 107.82, 2.32 107.82 M2.32 107.82 C0.77 107.82, 0 107.05, 0 105.5 M2.32 107.82 C0.77 107.82, 0 107.05, 0 105.5 M0 105.5 C0 71.1, 0 36.7, 0 2.32 M0 105.5 C0 70.5, 0 35.51, 0 2.32 M0 2.32 C0 0.77, 0.77 0, 2.32 0 M0 2.32 C0 0.77, 0.77 0, 2.32 0" stroke="#2f9e44" stroke-width="1" fill="none"></path></g><g stroke-linecap="round" transform="translate(698.5074855531207 467.02684230612704) rotate(0 4.639756944444457 32.49832182099499)"><path d="M2.32 0 L8.7 0.58 L9.28 2.32 L9.28 62.68 L8.7 64.42 L6.96 65 L2.32 65 L0.58 64.42 L0 62.68 L0 2.32 L0.58 0.58 L2.32 0" stroke="none" stroke-width="0" fill="#ffec99"></path><path d="M2.32 0 M2.32 0 C3.85 0, 5.39 0, 6.96 0 M2.32 0 C3.66 0, 5.01 0, 6.96 0 M6.96 0 C8.51 0, 9.28 0.77, 9.28 2.32 M6.96 0 C8.51 0, 9.28 0.77, 9.28 2.32 M9.28 2.32 C9.28 22.9, 9.28 43.48, 9.28 62.68 M9.28 2.32 C9.28 21.77, 9.28 41.22, 9.28 62.68 M9.28 62.68 C9.28 64.22, 8.51 65, 6.96 65 M9.28 62.68 C9.28 64.22, 8.51 65, 6.96 65 M6.96 65 C5.79 65, 4.61 65, 2.32 65 M6.96 65 C5.17 65, 3.38 65, 2.32 65 M2.32 65 C0.77 65, 0 64.22, 0 62.68 M2.32 65 C0.77 65, 0 64.22, 0 62.68 M0 62.68 C0 47.6, 0 32.52, 0 2.32 M0 62.68 C0 38.6, 0 14.52, 0 2.32 M0 2.32 C0 0.77, 0.77 0, 2.32 0 M0 2.32 C0 0.77, 0.77 0, 2.32 0" stroke="#f08c00" stroke-width="1" fill="none"></path></g><g mask="url(#mask-C_pmcBLxbGy55AHvtv5pr)" stroke-linecap="round"><g transform="translate(412.52591109120544 589.4695011961558) rotate(0 296.3930701208659 0)"><path d="M0 0 C98.8 0, 493.99 0, 592.79 0 M0 0 C98.8 0, 493.99 0, 592.79 0" stroke="#000000" stroke-width="1" fill="none"></path></g><g transform="translate(412.52591109120544 589.4695011961558) rotate(0 296.3930701208659 0)"><path d="M0 0 L13.59 -6.34 L13.59 6.34 L0 0" stroke="none" stroke-width="0" fill="#000000" fill-rule="evenodd"></path><path d="M0 0 C3.18 -1.49, 6.37 -2.97, 13.59 -6.34 M0 0 C5.07 -2.37, 10.15 -4.73, 13.59 -6.34 M13.59 -6.34 C13.59 -1.72, 13.59 2.91, 13.59 6.34 M13.59 -6.34 C13.59 -3.52, 13.59 -0.71, 13.59 6.34 M13.59 6.34 C8.2 3.82, 2.8 1.31, 0 0 M13.59 6.34 C9.23 4.3, 4.86 2.26, 0 0 M0 0 C0 0, 0 0, 0 0 M0 0 C0 0, 0 0, 0 0" stroke="#000000" stroke-width="1" fill="none"></path></g></g><mask id="mask-C_pmcBLxbGy55AHvtv5pr"><rect x="0" y="0" fill="#fff" width="1105.3120513329372" height="689.4695011961558"></rect><rect x="602.6230522569933" y="579.4695011961558" fill="#000" width="212.59185791015625" height="20" opacity="1"></rect></mask><g transform="translate(602.6230522569933 579.4695011961558) rotate(0 106.29592895507801 10)"><text x="106.29592895507812" y="0" font-family="Virgil, Segoe UI Emoji" font-size="16px" fill="#000000" text-anchor="middle" style="white-space: pre;" direction="ltr" dominant-baseline="text-before-edge">install PostgreSQL Promise</text></g><g mask="url(#mask-1R9flaAvxNrgEgc7xpukK)" stroke-linecap="round"><g transform="translate(414.42494488323086 675.3394996283678) rotate(0 141.75311654995505 0)"><path d="M0 0 C47.25 0, 236.26 0, 283.51 0 M0 0 C47.25 0, 236.26 0, 283.51 0" stroke="#000000" stroke-width="1" fill="none"></path></g><g transform="translate(414.42494488323086 675.3394996283678) rotate(0 141.75311654995505 0)"><path d="M0 0 L13.59 -6.34 L13.59 6.34 L0 0" stroke="none" stroke-width="0" fill="#000000" fill-rule="evenodd"></path><path d="M0 0 C4.96 -2.31, 9.92 -4.63, 13.59 -6.34 M0 0 C3.07 -1.43, 6.14 -2.86, 13.59 -6.34 M13.59 -6.34 C13.59 -2.49, 13.59 1.37, 13.59 6.34 M13.59 -6.34 C13.59 -3.07, 13.59 0.19, 13.59 6.34 M13.59 6.34 C9.16 4.27, 4.73 2.21, 0 0 M13.59 6.34 C9.46 4.41, 5.32 2.48, 0 0 M0 0 C0 0, 0 0, 0 0 M0 0 C0 0, 0 0, 0 0" stroke="#000000" stroke-width="1" fill="none"></path></g></g><mask id="mask-1R9flaAvxNrgEgc7xpukK"><rect x="0" y="0" fill="#fff" width="797.931177983141" height="775.3394996283678"></rect><rect x="473.1381215528147" y="665.3394996283678" fill="#000" width="166.0798797607422" height="20" opacity="1"></rect></mask><g transform="translate(473.1381215528147 665.3394996283678) rotate(0 83.03993988037121 10)"><text x="83.0399398803711" y="0" font-family="Virgil, Segoe UI Emoji" font-size="16px" fill="#000000" text-anchor="middle" style="white-space: pre;" direction="ltr" dominant-baseline="text-before-edge">add PostgreSQL API</text></g><g stroke-linecap="round" transform="translate(400.2178522388706 578.2197846090494) rotate(0 4.639756944444457 54.50805096928707)"><path d="M2.32 0 L8.7 0.58 L9.28 2.32 L9.28 106.7 L8.7 108.44 L6.96 109.02 L2.32 109.02 L0.58 108.44 L0 106.7 L0 2.32 L0.58 0.58 L2.32 0" stroke="none" stroke-width="0" fill="#a5d8ff"></path><path d="M2.32 0 M2.32 0 C3.65 0, 4.98 0, 6.96 0 M2.32 0 C4.06 0, 5.81 0, 6.96 0 M6.96 0 C8.51 0, 9.28 0.77, 9.28 2.32 M6.96 0 C8.51 0, 9.28 0.77, 9.28 2.32 M9.28 2.32 C9.28 40.31, 9.28 78.3, 9.28 106.7 M9.28 2.32 C9.28 33.53, 9.28 64.74, 9.28 106.7 M9.28 106.7 C9.28 108.24, 8.51 109.02, 6.96 109.02 M9.28 106.7 C9.28 108.24, 8.51 109.02, 6.96 109.02 M6.96 109.02 C6.01 109.02, 5.05 109.02, 2.32 109.02 M6.96 109.02 C5.13 109.02, 3.29 109.02, 2.32 109.02 M2.32 109.02 C0.77 109.02, 0 108.24, 0 106.7 M2.32 109.02 C0.77 109.02, 0 108.24, 0 106.7 M0 106.7 C0 68.2, 0 29.7, 0 2.32 M0 106.7 C0 66.1, 0 25.5, 0 2.32 M0 2.32 C0 0.77, 0.77 0, 2.32 0 M0 2.32 C0 0.77, 0.77 0, 2.32 0" stroke="#1971c2" stroke-width="1" fill="none"></path></g><g mask="url(#mask-VlpN2Q3wUHBzeODlU5X2i)" stroke-linecap="round"><g transform="translate(697.7428674044147 635.7471289001223) rotate(0 -142.0464016019306 0)"><path d="M0 0 C-47.35 0, -236.74 0, -284.09 0 M0 0 C-47.35 0, -236.74 0, -284.09 0" stroke="#000000" stroke-width="1" fill="none"></path></g><g transform="translate(697.7428674044147 635.7471289001223) rotate(0 -142.0464016019306 0)"><path d="M0 0 L-13.59 6.34 L-13.59 -6.34 L0 0" stroke="none" stroke-width="0" fill="#000000" fill-rule="evenodd"></path><path d="M0 0 C-3.54 1.65, -7.08 3.3, -13.59 6.34 M0 0 C-5.33 2.48, -10.66 4.97, -13.59 6.34 M-13.59 6.34 C-13.59 2.7, -13.59 -0.94, -13.59 -6.34 M-13.59 6.34 C-13.59 3.54, -13.59 0.75, -13.59 -6.34 M-13.59 -6.34 C-8.65 -4.03, -3.7 -1.72, 0 0 M-13.59 -6.34 C-9.11 -4.25, -4.62 -2.15, 0 0 M0 0 C0 0, 0 0, 0 0 M0 0 C0 0, 0 0, 0 0" stroke="#000000" stroke-width="1" fill="none"></path></g></g><mask id="mask-VlpN2Q3wUHBzeODlU5X2i"><rect x="0" y="0" fill="#fff" width="1081.835670608276" height="735.7471289001223"></rect><rect x="450.74453861742563" y="625.7471289001223" fill="#000" width="209.9038543701172" height="20" opacity="1"></rect></mask><g transform="translate(450.74453861742563 625.7471289001223) rotate(0 104.95192718505848 10)"><text x="104.9519271850586" y="0" font-family="Virgil, Segoe UI Emoji" font-size="16px" fill="#000000" text-anchor="middle" style="white-space: pre;" direction="ltr" dominant-baseline="text-before-edge">install PostgreSQL promise</text></g><g mask="url(#mask-MB0g-hzZ6FC_r5l02lsXF)" stroke-linecap="round"><g transform="translate(1001.7120910905958 692.0181272088957) rotate(0 -145.1953125000001 -0.458984375)"><path d="M0 0 C-48.4 -0.15, -241.99 -0.76, -290.39 -0.92 M0 0 C-48.4 -0.15, -241.99 -0.76, -290.39 -0.92" stroke="#000000" stroke-width="1" fill="none"></path></g><g transform="translate(1001.7120910905958 692.0181272088957) rotate(0 -145.1953125000001 -0.458984375)"><path d="M0 0 L-13.61 6.3 L-13.57 -6.38 L0 0" stroke="none" stroke-width="0" fill="#000000" fill-rule="evenodd"></path><path d="M0 0 C-5.27 2.43, -10.53 4.87, -13.61 6.3 M0 0 C-3.06 1.41, -6.12 2.83, -13.61 6.3 M-13.61 6.3 C-13.6 1.62, -13.59 -3.06, -13.57 -6.38 M-13.61 6.3 C-13.6 3.07, -13.59 -0.16, -13.57 -6.38 M-13.57 -6.38 C-8.65 -4.07, -3.73 -1.75, 0 0 M-13.57 -6.38 C-10.14 -4.77, -6.7 -3.15, 0 0 M0 0 C0 0, 0 0, 0 0 M0 0 C0 0, 0 0, 0 0" stroke="#000000" stroke-width="1" fill="none"></path></g></g><mask id="mask-MB0g-hzZ6FC_r5l02lsXF"><rect x="0" y="0" fill="#fff" width="1392.102716090596" height="792.9360959588957"></rect><rect x="770.5488296770216" y="671.5591428338957" fill="#000" width="171.93589782714844" height="40" opacity="1"></rect></mask><g transform="translate(770.5488296770216 671.5591428338957) rotate(0 85.9679489135741 20)"><text x="85.96794891357422" y="0" font-family="Virgil, Segoe UI Emoji" font-size="16px" fill="#000000" text-anchor="middle" style="white-space: pre;" direction="ltr" dominant-baseline="text-before-edge">schedule PostgreSQL </text><text x="85.96794891357422" y="20" font-family="Virgil, Segoe UI Emoji" font-size="16px" fill="#000000" text-anchor="middle" style="white-space: pre;" direction="ltr" dominant-baseline="text-before-edge">dependencies</text></g><g mask="url(#mask-SE7NKBi0NJZGY4ZuGRHDK)" stroke-linecap="round"><g transform="translate(1244.8648867728382 721.662228680636) rotate(0 -118.2516675974997 0)"><path d="M0 0 C-39.42 0, -197.09 0, -236.5 0 M0 0 C-39.42 0, -197.09 0, -236.5 0" stroke="#000000" stroke-width="1" fill="none"></path></g><g transform="translate(1244.8648867728382 721.662228680636) rotate(0 -118.2516675974997 0)"><path d="M0 0 L-13.59 6.34 L-13.59 -6.34 L0 0" stroke="none" stroke-width="0" fill="#000000" fill-rule="evenodd"></path><path d="M0 0 C-3.86 1.8, -7.71 3.6, -13.59 6.34 M0 0 C-3.18 1.48, -6.35 2.96, -13.59 6.34 M-13.59 6.34 C-13.59 3.25, -13.59 0.16, -13.59 -6.34 M-13.59 6.34 C-13.59 2.76, -13.59 -0.82, -13.59 -6.34 M-13.59 -6.34 C-9.08 -4.23, -4.56 -2.13, 0 0 M-13.59 -6.34 C-10.71 -4.99, -7.83 -3.65, 0 0 M0 0 C0 0, 0 0, 0 0 M0 0 C0 0, 0 0, 0 0" stroke="#000000" stroke-width="1" fill="none"></path></g></g><mask id="mask-SE7NKBi0NJZGY4ZuGRHDK"><rect x="0" y="0" fill="#fff" width="1581.3682219678376" height="821.662228680636"></rect><rect x="1049.0132664775847" y="701.662228680636" fill="#000" width="155.1999053955078" height="40" opacity="1"></rect></mask><g transform="translate(1049.0132664775847 701.662228680636) rotate(0 77.5999526977539 20)"><text x="77.5999526977539" y="0" font-family="Virgil, Segoe UI Emoji" font-size="16px" fill="#000000" text-anchor="middle" style="white-space: pre;" direction="ltr" dominant-baseline="text-before-edge">install PostgreSQL </text><text x="77.5999526977539" y="20" font-family="Virgil, Segoe UI Emoji" font-size="16px" fill="#000000" text-anchor="middle" style="white-space: pre;" direction="ltr" dominant-baseline="text-before-edge">dependencies</text></g><g stroke-linecap="round" transform="translate(699.6778858206551 631.839225446729) rotate(0 4.639756944444457 32.49832182099499)"><path d="M2.32 0 L8.7 0.58 L9.28 2.32 L9.28 62.68 L8.7 64.42 L6.96 65 L2.32 65 L0.58 64.42 L0 62.68 L0 2.32 L0.58 0.58 L2.32 0" stroke="none" stroke-width="0" fill="#a5d8ff"></path><path d="M2.32 0 M2.32 0 C3.93 0, 5.54 0, 6.96 0 M2.32 0 C3.52 0, 4.71 0, 6.96 0 M6.96 0 C8.51 0, 9.28 0.77, 9.28 2.32 M6.96 0 C8.51 0, 9.28 0.77, 9.28 2.32 M9.28 2.32 C9.28 24.81, 9.28 47.31, 9.28 62.68 M9.28 2.32 C9.28 20.99, 9.28 39.66, 9.28 62.68 M9.28 62.68 C9.28 64.22, 8.51 65, 6.96 65 M9.28 62.68 C9.28 64.22, 8.51 65, 6.96 65 M6.96 65 C5.98 65, 5 65, 2.32 65 M6.96 65 C5.79 65, 4.62 65, 2.32 65 M2.32 65 C0.77 65, 0 64.22, 0 62.68 M2.32 65 C0.77 65, 0 64.22, 0 62.68 M0 62.68 C0 43, 0 23.32, 0 2.32 M0 62.68 C0 49.11, 0 35.53, 0 2.32 M0 2.32 C0 0.77, 0.77 0, 2.32 0 M0 2.32 C0 0.77, 0.77 0, 2.32 0" stroke="#1971c2" stroke-width="1" fill="none"></path></g></svg>
