<svg version="1.1" xmlns="http://www.w3.org/2000/svg" viewBox="0 0 986.3892541197956 329.66036131927103">
  <!-- svg-source:excalidraw -->
  
  <defs>
    <style class="style-fonts">
      @font-face {
        font-family: "Virgil";
        src: url("https://excalidraw.com/Virgil.woff2");
      }
      @font-face {
        font-family: "Cascadia";
        src: url("https://excalidraw.com/Cascadia.woff2");
      }
    </style>
  </defs>
  <rect x="0" y="0" width="986.3892541197956" height="329.66036131927103" fill="#ffffff"></rect><g transform="translate(290 34.959433998388704) rotate(0 36.03831445045239 12.720156798221979)"><text x="0" y="0" font-family="Virgil, Segoe UI Emoji" font-size="20.093863545069876px" fill="#5f3dc4" text-anchor="start" style="white-space: pre;" direction="ltr" dominant-baseline="text-before-edge">Promise</text></g><g stroke-linecap="round" transform="translate(209.0792016917717 10) rotate(0 163.69224501623853 101.45394873267742)"><path d="M32 0 M32 0 C113.51 0, 195.02 0, 295.38 0 M32 0 C105.6 0, 179.2 0, 295.38 0 M295.38 0 C316.72 0, 327.38 10.67, 327.38 32 M295.38 0 C316.72 0, 327.38 10.67, 327.38 32 M327.38 32 C327.38 79.34, 327.38 126.67, 327.38 170.91 M327.38 32 C327.38 68.48, 327.38 104.95, 327.38 170.91 M327.38 170.91 C327.38 192.24, 316.72 202.91, 295.38 202.91 M327.38 170.91 C327.38 192.24, 316.72 202.91, 295.38 202.91 M295.38 202.91 C227.27 202.91, 159.15 202.91, 32 202.91 M295.38 202.91 C221.1 202.91, 146.81 202.91, 32 202.91 M32 202.91 C10.67 202.91, 0 192.24, 0 170.91 M32 202.91 C10.67 202.91, 0 192.24, 0 170.91 M0 170.91 C0 131.08, 0 91.24, 0 32 M0 170.91 C0 123.96, 0 77.02, 0 32 M0 32 C0 10.67, 10.67 0, 32 0 M0 32 C0 10.67, 10.67 0, 32 0" stroke="#343a40" stroke-width="2" fill="none"></path></g><g stroke-opacity="0.3" fill-opacity="0.3" stroke-linecap="round" transform="translate(370 74.9594339983887) rotate(0 71.01052550643544 31.290932502063697)"><path d="M15.65 0 L126.38 0 L133.22 0.98 L138.11 3.91 L139.82 6.11 L141.78 11.98 L142.02 46.94 L141.04 53.78 L139.82 56.47 L135.91 60.38 L133.22 61.6 L126.38 62.58 L15.65 62.58 L8.8 61.6 L6.11 60.38 L2.2 56.47 L0.24 50.6 L0.24 11.98 L2.2 6.11 L6.11 2.2 L8.8 0.98 L15.65 0" stroke="none" stroke-width="0" fill="#15aabf"></path><path d="M15.65 0 M15.65 0 C44.72 0, 73.79 0, 126.38 0 M15.65 0 C43.01 0, 70.38 0, 126.38 0 M126.38 0 C136.81 0, 142.02 5.22, 142.02 15.65 M126.38 0 C136.81 0, 142.02 5.22, 142.02 15.65 M142.02 15.65 C142.02 24.72, 142.02 33.79, 142.02 46.94 M142.02 15.65 C142.02 21.98, 142.02 28.32, 142.02 46.94 M142.02 46.94 C142.02 57.37, 136.81 62.58, 126.38 62.58 M142.02 46.94 C142.02 57.37, 136.81 62.58, 126.38 62.58 M126.38 62.58 C97.2 62.58, 68.02 62.58, 15.65 62.58 M126.38 62.58 C96.56 62.58, 66.75 62.58, 15.65 62.58 M15.65 62.58 C5.22 62.58, 0 57.37, 0 46.94 M15.65 62.58 C5.22 62.58, 0 57.37, 0 46.94 M0 46.94 C0 36.43, 0 25.93, 0 15.65 M0 46.94 C0 34.96, 0 22.99, 0 15.65 M0 15.65 C0 5.22, 5.22 0, 15.65 0 M0 15.65 C0 5.22, 5.22 0, 15.65 0" stroke="#343a40" stroke-width="1" fill="none"></path></g><g transform="translate(405.1926900633007 93.54721390484337) rotate(0 36.004608154296875 13.177785464074077)"><text x="36.004608154296875" y="0" font-family="Virgil, Segoe UI Emoji" font-size="21.084456742518437px" fill="#000000" text-anchor="middle" style="white-space: pre;" direction="ltr" dominant-baseline="text-before-edge">Pipeline</text></g><g stroke-opacity="0.4" fill-opacity="0.4" stroke-linecap="round" transform="translate(790 74.9594339983887) rotate(0 79.70216915175024 31.37013205864514)"><path d="M4.18 3.63 C4.18 3.63, 4.18 3.63, 4.18 3.63 M4.18 3.63 C4.18 3.63, 4.18 3.63, 4.18 3.63 M1.29 13.05 C4.76 9.06, 8.22 5.07, 10.47 2.48 M1.29 13.05 C4.64 9.2, 7.98 5.35, 10.47 2.48 M1.03 19.44 C4.9 14.99, 8.78 10.53, 16.77 1.33 M1.03 19.44 C4.19 15.81, 7.35 12.17, 16.77 1.33 M1.42 25.09 C8.1 17.41, 14.77 9.73, 22.42 0.94 M1.42 25.09 C5.96 19.87, 10.49 14.65, 22.42 0.94 M1.16 31.48 C8.25 23.33, 15.33 15.18, 27.4 1.3 M1.16 31.48 C7.71 23.95, 14.26 16.41, 27.4 1.3 M1.56 37.13 C9.97 27.44, 18.39 17.76, 33.05 0.9 M1.56 37.13 C10.17 27.22, 18.79 17.31, 33.05 0.9 M1.29 43.53 C15.88 26.75, 30.46 9.97, 38.03 1.26 M1.29 43.53 C8.94 34.73, 16.59 25.93, 38.03 1.26 M0.38 50.68 C9.14 40.59, 17.91 30.51, 43.68 0.87 M0.38 50.68 C10.65 38.86, 20.92 27.04, 43.68 0.87 M2.08 54.81 C16.92 37.75, 31.75 20.68, 48.66 1.23 M2.08 54.81 C12.53 42.8, 22.97 30.78, 48.66 1.23 M4.45 58.19 C14.66 46.44, 24.87 34.7, 54.31 0.83 M4.45 58.19 C15.79 45.15, 27.13 32.1, 54.31 0.83 M6.81 61.57 C26.8 38.57, 46.8 15.56, 59.29 1.19 M6.81 61.57 C23.39 42.5, 39.96 23.43, 59.29 1.19 M10.48 63.44 C30.12 40.85, 49.75 18.26, 64.94 0.8 M10.48 63.44 C25.99 45.6, 41.5 27.76, 64.94 0.8 M16.13 63.04 C31.49 45.37, 46.85 27.7, 69.92 1.16 M16.13 63.04 C30.73 46.24, 45.34 29.44, 69.92 1.16 M21.11 63.4 C35.31 47.07, 49.51 30.74, 75.57 0.76 M21.11 63.4 C35.84 46.46, 50.57 29.51, 75.57 0.76 M26.76 63.01 C47.63 39, 68.5 14.99, 80.55 1.12 M26.76 63.01 C45.57 41.36, 64.39 19.72, 80.55 1.12 M31.74 63.37 C47.93 44.75, 64.11 26.14, 85.54 1.48 M31.74 63.37 C51.43 40.73, 71.11 18.09, 85.54 1.48 M37.39 62.98 C58.83 38.31, 80.27 13.64, 91.18 1.09 M37.39 62.98 C57.82 39.47, 78.25 15.97, 91.18 1.09 M42.37 63.34 C62.87 39.75, 83.37 16.17, 96.17 1.45 M42.37 63.34 C62.42 40.28, 82.46 17.22, 96.17 1.45 M48.02 62.94 C63.22 45.45, 78.42 27.97, 101.81 1.05 M48.02 62.94 C62.05 46.8, 76.09 30.65, 101.81 1.05 M53 63.3 C64.11 50.52, 75.22 37.75, 106.8 1.41 M53 63.3 C64.44 50.14, 75.88 36.98, 106.8 1.41 M58.65 62.91 C77.99 40.65, 97.34 18.39, 112.44 1.02 M58.65 62.91 C72.78 46.65, 86.91 30.4, 112.44 1.02 M63.63 63.27 C84.44 39.34, 105.24 15.41, 117.43 1.38 M63.63 63.27 C75.92 49.14, 88.2 35, 117.43 1.38 M69.28 62.87 C80.27 50.23, 91.26 37.58, 123.07 0.99 M69.28 62.87 C86.77 42.75, 104.26 22.63, 123.07 0.99 M74.26 63.23 C92.34 42.44, 110.42 21.64, 128.06 1.35 M74.26 63.23 C89.45 45.76, 104.64 28.29, 128.06 1.35 M79.91 62.84 C98.51 41.43, 117.12 20.03, 133.7 0.95 M79.91 62.84 C99.2 40.65, 118.49 18.46, 133.7 0.95 M84.89 63.2 C104.99 40.09, 125.08 16.97, 138.69 1.31 M84.89 63.2 C98.75 47.26, 112.6 31.32, 138.69 1.31 M90.54 62.8 C110.34 40.03, 130.13 17.25, 144.33 0.92 M90.54 62.8 C109.02 41.54, 127.5 20.28, 144.33 0.92 M95.52 63.16 C107.51 49.38, 119.49 35.59, 149.32 1.28 M95.52 63.16 C114.74 41.06, 133.96 18.95, 149.32 1.28 M101.17 62.77 C112.02 50.28, 122.87 37.8, 153 3.15 M101.17 62.77 C113.14 49, 125.11 35.22, 153 3.15 M106.15 63.13 C121.93 44.98, 137.71 26.83, 156.67 5.02 M106.15 63.13 C116.51 51.22, 126.86 39.31, 156.67 5.02 M111.8 62.73 C124.06 48.63, 136.32 34.52, 158.38 9.15 M111.8 62.73 C123.07 49.76, 134.35 36.79, 158.38 9.15 M116.78 63.09 C128.7 49.39, 140.62 35.68, 160.08 13.28 M116.78 63.09 C131.7 45.93, 146.62 28.78, 160.08 13.28 M121.77 63.45 C132.51 51.1, 143.25 38.75, 160.48 18.93 M121.77 63.45 C136.03 47.05, 150.29 30.65, 160.48 18.93 M127.41 63.06 C135.59 53.66, 143.76 44.25, 160.22 25.32 M127.41 63.06 C138.57 50.22, 149.73 37.39, 160.22 25.32 M132.4 63.42 C139.58 55.16, 146.77 46.9, 160.61 30.97 M132.4 63.42 C140.07 54.6, 147.73 45.78, 160.61 30.97 M138.04 63.03 C146.45 53.36, 154.85 43.69, 160.35 37.36 M138.04 63.03 C144.21 55.93, 150.38 48.84, 160.35 37.36 M143.03 63.39 C149.27 56.21, 155.5 49.04, 160.75 43.01 M143.03 63.39 C149.84 55.56, 156.65 47.72, 160.75 43.01 M148.68 62.99 C152.48 58.62, 156.28 54.25, 161.14 48.65 M148.68 62.99 C151.89 59.29, 155.11 55.59, 161.14 48.65 M5.87 60.31 C5.87 60.31, 5.87 60.31, 5.87 60.31 M5.87 60.31 C5.87 60.31, 5.87 60.31, 5.87 60.31 M10.76 59.26 C7.74 56.64, 4.72 54.01, 0.19 50.08 M10.76 59.26 C7.48 56.41, 4.21 53.56, 0.19 50.08 M17.91 60.18 C12.52 55.49, 7.13 50.81, 0.55 45.09 M17.91 60.18 C14.14 56.9, 10.38 53.63, 0.55 45.09 M24.31 60.44 C17.87 54.84, 11.42 49.24, 0.91 40.1 M24.31 60.44 C17.8 54.78, 11.29 49.12, 0.91 40.1 M29.95 60.05 C19.37 50.85, 8.79 41.65, 0.52 34.46 M29.95 60.05 C19.56 51.01, 9.16 41.97, 0.52 34.46 M36.35 60.31 C28 53.05, 19.65 45.79, 0.88 29.47 M36.35 60.31 C24.72 50.19, 13.08 40.08, 0.88 29.47 M41.99 59.91 C29.34 48.92, 16.69 37.92, 0.49 23.83 M41.99 59.91 C28.28 48, 14.57 36.08, 0.49 23.83 M48.39 60.17 C37.38 50.6, 26.37 41.03, 0.85 18.84 M48.39 60.17 C36.72 50.03, 25.05 39.88, 0.85 18.84 M54.79 60.44 C34.29 42.62, 13.79 24.8, 0.45 13.2 M54.79 60.44 C36.75 44.75, 18.71 29.07, 0.45 13.2 M60.43 60.04 C40.74 42.93, 21.05 25.81, 1.57 8.87 M60.43 60.04 C40.59 42.79, 20.74 25.54, 1.57 8.87 M66.83 60.3 C43.87 40.34, 20.91 20.39, 3.44 5.19 M66.83 60.3 C47.03 43.09, 27.22 25.87, 3.44 5.19 M72.47 59.91 C51.26 41.47, 30.05 23.03, 6.06 2.18 M72.47 59.91 C50.59 40.88, 28.7 21.86, 6.06 2.18 M78.87 60.17 C58.06 42.08, 37.25 23.98, 9.44 -0.19 M78.87 60.17 C58.33 42.32, 37.79 24.46, 9.44 -0.19 M85.27 60.43 C59.85 38.33, 34.42 16.23, 15.84 0.07 M85.27 60.43 C66.54 44.15, 47.81 27.87, 15.84 0.07 M90.91 60.04 C64.2 36.81, 37.48 13.59, 21.48 -0.32 M90.91 60.04 C71.69 43.33, 52.46 26.61, 21.48 -0.32 M97.31 60.3 C72.34 38.6, 47.38 16.89, 27.88 -0.06 M97.31 60.3 C81.68 46.71, 66.05 33.12, 27.88 -0.06 M102.95 59.9 C84.64 43.98, 66.32 28.06, 34.27 0.2 M102.95 59.9 C80.94 40.76, 58.92 21.63, 34.27 0.2 M109.35 60.16 C82.35 36.69, 55.35 13.22, 39.92 -0.19 M109.35 60.16 C82.75 37.04, 56.14 13.91, 39.92 -0.19 M115.75 60.43 C91.47 39.32, 67.18 18.21, 46.32 0.07 M115.75 60.43 C97.54 44.6, 79.34 28.78, 46.32 0.07 M121.39 60.03 C104.16 45.05, 86.93 30.08, 51.96 -0.33 M121.39 60.03 C96.96 38.79, 72.52 17.55, 51.96 -0.33 M127.79 60.29 C107.46 42.63, 87.14 24.96, 58.36 -0.06 M127.79 60.29 C113.39 47.78, 99 35.27, 58.36 -0.06 M133.43 59.9 C110.35 39.84, 87.27 19.77, 64.75 0.2 M133.43 59.9 C115.6 44.4, 97.78 28.9, 64.75 0.2 M139.83 60.16 C118.36 41.5, 96.89 22.83, 70.4 -0.2 M139.83 60.16 C123.73 46.17, 107.64 32.17, 70.4 -0.2 M147.74 61.73 C122.48 39.78, 97.22 17.82, 76.8 0.06 M147.74 61.73 C129.67 46.03, 111.6 30.32, 76.8 0.06 M152.63 60.68 C133.85 44.36, 115.08 28.05, 82.44 -0.33 M152.63 60.68 C132.83 43.48, 113.04 26.27, 82.44 -0.33 M156.01 58.32 C141.49 45.7, 126.98 33.09, 88.84 -0.07 M156.01 58.32 C142.15 46.28, 128.3 34.24, 88.84 -0.07 M157.87 54.65 C133.42 33.39, 108.97 12.13, 95.23 0.19 M157.87 54.65 C140.69 39.71, 123.51 24.77, 95.23 0.19 M160.5 51.63 C140.88 34.57, 121.26 17.52, 100.88 -0.2 M160.5 51.63 C148.38 41.09, 136.27 30.56, 100.88 -0.2 M160.1 45.98 C141.32 29.66, 122.54 13.33, 107.27 0.06 M160.1 45.98 C139.21 27.82, 118.31 9.65, 107.27 0.06 M160.46 41 C145.61 28.09, 130.76 15.18, 112.92 -0.34 M160.46 41 C148.33 30.45, 136.19 19.9, 112.92 -0.34 M160.07 35.35 C143.96 21.35, 127.85 7.34, 119.32 -0.07 M160.07 35.35 C151.8 28.16, 143.52 20.97, 119.32 -0.07 M160.43 30.37 C150.43 21.67, 140.42 12.98, 125.71 0.19 M160.43 30.37 C146.82 18.53, 133.2 6.7, 125.71 0.19 M160.04 24.72 C148.66 14.84, 137.29 4.95, 131.36 -0.21 M160.04 24.72 C150.74 16.64, 141.45 8.57, 131.36 -0.21 M160.4 19.74 C151.72 12.19, 143.04 4.65, 137.75 0.05 M160.4 19.74 C152.15 12.57, 143.91 5.41, 137.75 0.05 M160 14.09 C156.66 11.19, 153.32 8.29, 143.4 -0.34 M160 14.09 C154.08 8.95, 148.16 3.8, 143.4 -0.34 M158.85 7.79 C156.95 6.14, 155.05 4.49, 150.55 0.58 M158.85 7.79 C156.02 5.33, 153.19 2.87, 150.55 0.58" stroke="#a5d8ff" stroke-width="0.5" fill="none"></path><path d="M15.69 0 M15.69 0 C54.78 0, 93.88 0, 143.72 0 M15.69 0 C62.85 0, 110.02 0, 143.72 0 M143.72 0 C154.18 0, 159.4 5.23, 159.4 15.69 M143.72 0 C154.18 0, 159.4 5.23, 159.4 15.69 M159.4 15.69 C159.4 28.18, 159.4 40.68, 159.4 47.06 M159.4 15.69 C159.4 24.48, 159.4 33.27, 159.4 47.06 M159.4 47.06 C159.4 57.51, 154.18 62.74, 143.72 62.74 M159.4 47.06 C159.4 57.51, 154.18 62.74, 143.72 62.74 M143.72 62.74 C107.59 62.74, 71.47 62.74, 15.69 62.74 M143.72 62.74 C111.41 62.74, 79.09 62.74, 15.69 62.74 M15.69 62.74 C5.23 62.74, 0 57.51, 0 47.06 M15.69 62.74 C5.23 62.74, 0 57.51, 0 47.06 M0 47.06 C0 38.46, 0 29.87, 0 15.69 M0 47.06 C0 36.88, 0 26.71, 0 15.69 M0 15.69 C0 5.23, 5.23 0, 15.69 0 M0 15.69 C0 5.23, 5.23 0, 15.69 0" stroke="#1971c2" stroke-width="1" fill="none"></path></g><g transform="translate(829.2500361183193 84.2486090954244) rotate(0 39.99634552001953 23.24335640461868)"><text x="39.99634552001953" y="0" font-family="Virgil, Segoe UI Emoji" font-size="18.59468512369525px" fill="#1971c2" text-anchor="middle" style="white-space: pre;" direction="ltr" dominant-baseline="text-before-edge">Jenkins</text><text x="39.99634552001953" y="23.243356404619064" font-family="Virgil, Segoe UI Emoji" font-size="18.59468512369525px" fill="#1971c2" text-anchor="middle" style="white-space: pre;" direction="ltr" dominant-baseline="text-before-edge">Instance</text></g><g stroke-linecap="round" transform="translate(770 14.959433998388704) rotate(0 103.19462705989781 84.68645903333254)"><path d="M32 0 M32 0 C73.07 0, 114.13 0, 174.39 0 M32 0 C77.88 0, 123.75 0, 174.39 0 M174.39 0 C195.72 0, 206.39 10.67, 206.39 32 M174.39 0 C195.72 0, 206.39 10.67, 206.39 32 M206.39 32 C206.39 65.72, 206.39 99.43, 206.39 137.37 M206.39 32 C206.39 71.1, 206.39 110.2, 206.39 137.37 M206.39 137.37 C206.39 158.71, 195.72 169.37, 174.39 169.37 M206.39 137.37 C206.39 158.71, 195.72 169.37, 174.39 169.37 M174.39 169.37 C124.91 169.37, 75.43 169.37, 32 169.37 M174.39 169.37 C132.26 169.37, 90.14 169.37, 32 169.37 M32 169.37 C10.67 169.37, 0 158.71, 0 137.37 M32 169.37 C10.67 169.37, 0 158.71, 0 137.37 M0 137.37 C0 113.14, 0 88.92, 0 32 M0 137.37 C0 98.14, 0 58.9, 0 32 M0 32 C0 10.67, 10.67 0, 32 0 M0 32 C0 10.67, 10.67 0, 32 0" stroke="#343a40" stroke-width="2" fill="none"></path></g><g stroke-linecap="round" transform="translate(591.1671353082129 185.80944535622803) rotate(269.94514152181193 66.34136172506032 67.44500868647901)"><path d="M32 0 L108.18 0.5 L114.68 2 L120.18 4.5 L124.68 8 L128.18 12.5 L130.68 18 L132.18 24.5 L132.68 32 L132.18 110.39 L130.68 116.89 L128.18 122.39 L124.68 126.89 L120.18 130.39 L114.68 132.89 L108.18 134.39 L100.68 134.89 L24.5 134.39 L18 132.89 L12.5 130.39 L8 126.89 L4.5 122.39 L2 116.89 L0.5 110.39 L0 102.89 L0.5 24.5 L2 18 L4.5 12.5 L8 8 L12.5 4.5 L18 2 L24.5 0.5 L32 0" stroke="none" stroke-width="0" fill="#ced4da"></path><path d="M32 0 M32 0 C53.43 0, 74.86 0, 100.68 0 M32 0 C52.08 0, 72.16 0, 100.68 0 M100.68 0 C122.02 0, 132.68 10.67, 132.68 32 M100.68 0 C122.02 0, 132.68 10.67, 132.68 32 M132.68 32 C132.68 46.35, 132.68 60.7, 132.68 102.89 M132.68 32 C132.68 48.82, 132.68 65.64, 132.68 102.89 M132.68 102.89 C132.68 124.22, 122.02 134.89, 100.68 134.89 M132.68 102.89 C132.68 124.22, 122.02 134.89, 100.68 134.89 M100.68 134.89 C86.63 134.89, 72.59 134.89, 32 134.89 M100.68 134.89 C75.7 134.89, 50.73 134.89, 32 134.89 M32 134.89 C10.67 134.89, 0 124.22, 0 102.89 M32 134.89 C10.67 134.89, 0 124.22, 0 102.89 M0 102.89 C0 87.76, 0 72.63, 0 32 M0 102.89 C0 82.81, 0 62.74, 0 32 M0 32 C0 10.67, 10.67 0, 32 0 M0 32 C0 10.67, 10.67 0, 32 0" stroke="#343a40" stroke-width="1" fill="none"></path></g><g stroke-linecap="round" transform="translate(631.9335147002603 123.4387588894042) rotate(269.94514152181193 25.79739432653264 67.61133962914664)"><path d="M51.59 67.61 C51.59 70.55, 51.52 73.52, 51.37 76.44 C51.23 79.35, 51.01 82.27, 50.72 85.11 C50.43 87.95, 50.06 90.77, 49.63 93.49 C49.2 96.2, 48.7 98.87, 48.14 101.42 C47.58 103.96, 46.95 106.44, 46.26 108.77 C45.58 111.1, 44.83 113.34, 44.04 115.42 C43.25 117.5, 42.39 119.46, 41.5 121.25 C40.61 123.04, 39.67 124.69, 38.7 126.16 C37.72 127.64, 36.71 128.95, 35.67 130.08 C34.63 131.2, 33.56 132.16, 32.47 132.92 C31.39 133.68, 30.28 134.26, 29.16 134.64 C28.05 135.03, 26.92 135.22, 25.8 135.22 C24.67 135.22, 23.54 135.03, 22.43 134.64 C21.32 134.26, 20.2 133.68, 19.12 132.92 C18.04 132.16, 16.96 131.2, 15.93 130.08 C14.89 128.95, 13.87 127.64, 12.9 126.16 C11.93 124.69, 10.98 123.04, 10.09 121.25 C9.2 119.46, 8.35 117.5, 7.56 115.42 C6.76 113.34, 6.01 111.1, 5.33 108.77 C4.65 106.44, 4.02 103.96, 3.46 101.42 C2.89 98.87, 2.39 96.2, 1.96 93.49 C1.53 90.77, 1.17 87.95, 0.88 85.11 C0.59 82.27, 0.37 79.35, 0.22 76.44 C0.07 73.52, 0 70.55, 0 67.61 C0 64.67, 0.07 61.7, 0.22 58.79 C0.37 55.87, 0.59 52.95, 0.88 50.11 C1.17 47.27, 1.53 44.46, 1.96 41.74 C2.39 39.02, 2.89 36.35, 3.46 33.81 C4.02 31.26, 4.65 28.79, 5.33 26.45 C6.01 24.12, 6.76 21.88, 7.56 19.8 C8.35 17.72, 9.2 15.76, 10.09 13.97 C10.98 12.18, 11.93 10.53, 12.9 9.06 C13.87 7.59, 14.89 6.27, 15.93 5.15 C16.96 4.02, 18.04 3.07, 19.12 2.3 C20.2 1.54, 21.32 0.96, 22.43 0.58 C23.54 0.19, 24.67 0, 25.8 0 C26.92 0, 28.05 0.19, 29.16 0.58 C30.28 0.96, 31.39 1.54, 32.47 2.3 C33.56 3.07, 34.63 4.02, 35.67 5.15 C36.71 6.27, 37.72 7.59, 38.7 9.06 C39.67 10.53, 40.61 12.18, 41.5 13.97 C42.39 15.76, 43.25 17.72, 44.04 19.8 C44.83 21.88, 45.58 24.12, 46.26 26.45 C46.95 28.79, 47.58 31.26, 48.14 33.81 C48.7 36.35, 49.2 39.02, 49.63 41.74 C50.06 44.46, 50.43 47.27, 50.72 50.11 C51.01 52.95, 51.23 55.87, 51.37 58.79 C51.52 61.7, 51.56 66.14, 51.59 67.61 C51.63 69.08, 51.63 66.14, 51.59 67.61" stroke="none" stroke-width="0" fill="#868e96"></path><path d="M51.59 67.61 C51.59 70.55, 51.52 73.52, 51.37 76.44 C51.23 79.35, 51.01 82.27, 50.72 85.11 C50.43 87.95, 50.06 90.77, 49.63 93.49 C49.2 96.2, 48.7 98.87, 48.14 101.42 C47.58 103.96, 46.95 106.44, 46.26 108.77 C45.58 111.1, 44.83 113.34, 44.04 115.42 C43.25 117.5, 42.39 119.46, 41.5 121.25 C40.61 123.04, 39.67 124.69, 38.7 126.16 C37.72 127.64, 36.71 128.95, 35.67 130.08 C34.63 131.2, 33.56 132.16, 32.47 132.92 C31.39 133.68, 30.28 134.26, 29.16 134.64 C28.05 135.03, 26.92 135.22, 25.8 135.22 C24.67 135.22, 23.54 135.03, 22.43 134.64 C21.32 134.26, 20.2 133.68, 19.12 132.92 C18.04 132.16, 16.96 131.2, 15.93 130.08 C14.89 128.95, 13.87 127.64, 12.9 126.16 C11.93 124.69, 10.98 123.04, 10.09 121.25 C9.2 119.46, 8.35 117.5, 7.56 115.42 C6.76 113.34, 6.01 111.1, 5.33 108.77 C4.65 106.44, 4.02 103.96, 3.46 101.42 C2.89 98.87, 2.39 96.2, 1.96 93.49 C1.53 90.77, 1.17 87.95, 0.88 85.11 C0.59 82.27, 0.37 79.35, 0.22 76.44 C0.07 73.52, 0 70.55, 0 67.61 C0 64.67, 0.07 61.7, 0.22 58.79 C0.37 55.87, 0.59 52.95, 0.88 50.11 C1.17 47.27, 1.53 44.46, 1.96 41.74 C2.39 39.02, 2.89 36.35, 3.46 33.81 C4.02 31.26, 4.65 28.79, 5.33 26.45 C6.01 24.12, 6.76 21.88, 7.56 19.8 C8.35 17.72, 9.2 15.76, 10.09 13.97 C10.98 12.18, 11.93 10.53, 12.9 9.06 C13.87 7.59, 14.89 6.27, 15.93 5.15 C16.96 4.02, 18.04 3.07, 19.12 2.3 C20.2 1.54, 21.32 0.96, 22.43 0.58 C23.54 0.19, 24.67 0, 25.8 0 C26.92 0, 28.05 0.19, 29.16 0.58 C30.28 0.96, 31.39 1.54, 32.47 2.3 C33.56 3.07, 34.63 4.02, 35.67 5.15 C36.71 6.27, 37.72 7.59, 38.7 9.06 C39.67 10.53, 40.61 12.18, 41.5 13.97 C42.39 15.76, 43.25 17.72, 44.04 19.8 C44.83 21.88, 45.58 24.12, 46.26 26.45 C46.95 28.79, 47.58 31.26, 48.14 33.81 C48.7 36.35, 49.2 39.02, 49.63 41.74 C50.06 44.46, 50.43 47.27, 50.72 50.11 C51.01 52.95, 51.23 55.87, 51.37 58.79 C51.52 61.7, 51.56 66.14, 51.59 67.61 C51.63 69.08, 51.63 66.14, 51.59 67.61" stroke="#343a40" stroke-width="1" fill="none"></path></g><g transform="translate(608.64948717265 235.42339868033014) rotate(0 47.53571319580078 31.226053965022402)"><text x="47.53571319580078" y="0" font-family="Virgil, Segoe UI Emoji" font-size="16.653895448011987px" fill="#343a40" text-anchor="middle" style="white-space: pre;" direction="ltr" dominant-baseline="text-before-edge">Declarative</text><text x="47.53571319580078" y="20.817369310014982" font-family="Virgil, Segoe UI Emoji" font-size="16.653895448011987px" fill="#343a40" text-anchor="middle" style="white-space: pre;" direction="ltr" dominant-baseline="text-before-edge">State</text><text x="47.53571319580078" y="41.634738620029964" font-family="Virgil, Segoe UI Emoji" font-size="16.653895448011987px" fill="#343a40" text-anchor="middle" style="white-space: pre;" direction="ltr" dominant-baseline="text-before-edge">Store</text></g><g stroke-linecap="round"><g transform="translate(327.5074313429577 110.61406499293298) rotate(0 20.746284328521142 -0.4929659793187966)"><path d="M0 0 C6.92 -0.16, 34.58 -0.82, 41.49 -0.99 M0 0 C6.92 -0.16, 34.58 -0.82, 41.49 -0.99" stroke="#2b8a3e" stroke-width="4" fill="none"></path></g><g transform="translate(327.5074313429577 110.61406499293298) rotate(0 20.746284328521142 -0.4929659793187966)"><path d="M22.17 6.57 C27.78 4.38, 33.39 2.18, 41.49 -0.99 M22.17 6.57 C27.03 4.67, 31.9 2.77, 41.49 -0.99" stroke="#2b8a3e" stroke-width="4" fill="none"></path></g><g transform="translate(327.5074313429577 110.61406499293298) rotate(0 20.746284328521142 -0.4929659793187966)"><path d="M21.83 -7.62 C27.54 -5.69, 33.25 -3.77, 41.49 -0.99 M21.83 -7.62 C26.78 -5.95, 31.73 -4.28, 41.49 -0.99" stroke="#2b8a3e" stroke-width="4" fill="none"></path></g></g><mask></mask><g stroke-linecap="round"><g transform="translate(513.6958170404696 106.74865800626321) rotate(0 60.61924899146243 20.118422824143636)"><path d="M0 0 C15.25 0.08, 71.3 -6.68, 91.51 0.5 C111.71 7.67, 116.28 35.95, 121.24 43.04 M0 0 C15.25 0.08, 71.3 -6.68, 91.51 0.5 C111.71 7.67, 116.28 35.95, 121.24 43.04" stroke="#2b8a3e" stroke-width="4" fill="none"></path></g><g transform="translate(513.6958170404696 106.74865800626321) rotate(0 60.61924899146243 20.118422824143636)"><path d="M103.34 24.25 C107.75 28.87, 112.15 33.5, 121.24 43.04 M103.34 24.25 C109.04 30.23, 114.74 36.21, 121.24 43.04" stroke="#2b8a3e" stroke-width="4" fill="none"></path></g><g transform="translate(513.6958170404696 106.74865800626321) rotate(0 60.61924899146243 20.118422824143636)"><path d="M119.61 17.14 C120.01 23.52, 120.41 29.89, 121.24 43.04 M119.61 17.14 C120.13 25.39, 120.65 33.63, 121.24 43.04" stroke="#2b8a3e" stroke-width="4" fill="none"></path></g></g><mask></mask><g stroke-linecap="round"><g transform="translate(764.6915117784092 102.33618502618629) rotate(181.0889909393324 -43.6950701929004 26.115459746501074)"><path d="M0 0 C-5.69 7.88, -19.6 38.77, -34.16 47.3 C-48.73 55.84, -78.52 50.55, -87.39 51.2 M0 0 C-5.69 7.88, -19.6 38.77, -34.16 47.3 C-48.73 55.84, -78.52 50.55, -87.39 51.2" stroke="#2b8a3e" stroke-width="4" fill="none"></path></g><g transform="translate(764.6915117784092 102.33618502618629) rotate(181.0889909393324 -43.6950701929004 26.115459746501074)"><path d="M-61.98 43.04 C-68.21 45.04, -74.43 47.04, -87.39 51.2 M-61.98 43.04 C-68.26 45.06, -74.54 47.07, -87.39 51.2" stroke="#2b8a3e" stroke-width="4" fill="none"></path></g><g transform="translate(764.6915117784092 102.33618502618629) rotate(181.0889909393324 -43.6950701929004 26.115459746501074)"><path d="M-62.68 61.28 C-68.73 58.81, -74.79 56.34, -87.39 51.2 M-62.68 61.28 C-68.79 58.79, -74.89 56.3, -87.39 51.2" stroke="#2b8a3e" stroke-width="4" fill="none"></path></g></g><mask></mask><g stroke-linecap="round" transform="translate(38.02859846383171 54.959433998388704) rotate(0 19.42808070684282 19.3366593329265)"><path d="M4.7 6.73 C4.7 6.73, 4.7 6.73, 4.7 6.73 M4.7 6.73 C4.7 6.73, 4.7 6.73, 4.7 6.73 M1.16 16.9 C6.21 11.09, 11.26 5.28, 14.28 1.81 M1.16 16.9 C5.2 12.26, 9.24 7.61, 14.28 1.81 M0.89 23.3 C8.71 14.32, 16.52 5.33, 20.58 0.66 M0.89 23.3 C6.87 16.42, 12.85 9.55, 20.58 0.66 M2.6 27.44 C9.18 19.86, 15.77 12.29, 24.91 1.78 M2.6 27.44 C9.29 19.74, 15.98 12.05, 24.91 1.78 M4.96 30.81 C12.97 21.61, 20.97 12.4, 29.24 2.89 M4.96 30.81 C14.29 20.09, 23.61 9.36, 29.24 2.89 M7.33 34.19 C14.34 26.12, 21.36 18.05, 32.91 4.76 M7.33 34.19 C14.61 25.81, 21.9 17.43, 32.91 4.76 M10.34 36.82 C19.64 26.12, 28.94 15.42, 35.28 8.14 M10.34 36.82 C17.16 28.98, 23.98 21.14, 35.28 8.14 M14.02 38.69 C23.18 28.15, 32.34 17.61, 37.64 11.52 M14.02 38.69 C22.71 28.68, 31.41 18.68, 37.64 11.52 M18.35 39.8 C25.36 31.74, 32.37 23.67, 38.69 16.41 M18.35 39.8 C23.17 34.26, 27.99 28.72, 38.69 16.41 M23.99 39.41 C30.24 32.22, 36.49 25.03, 40.4 20.54 M23.99 39.41 C27.28 35.63, 30.57 31.84, 40.4 20.54" stroke="#12b886" stroke-width="0.5" fill="none"></path><path d="M38.86 19.34 C38.86 20.46, 38.76 21.59, 38.56 22.69 C38.37 23.8, 38.07 24.9, 37.68 25.95 C37.3 27, 36.82 28.04, 36.25 29 C35.69 29.97, 35.03 30.91, 34.31 31.77 C33.59 32.62, 32.78 33.43, 31.92 34.15 C31.05 34.87, 30.12 35.52, 29.14 36.08 C28.17 36.64, 27.13 37.12, 26.07 37.51 C25.02 37.89, 23.91 38.19, 22.8 38.38 C21.69 38.57, 20.55 38.67, 19.43 38.67 C18.3 38.67, 17.16 38.57, 16.05 38.38 C14.95 38.19, 13.84 37.89, 12.78 37.51 C11.73 37.12, 10.69 36.64, 9.71 36.08 C8.74 35.52, 7.8 34.87, 6.94 34.15 C6.08 33.43, 5.27 32.62, 4.55 31.77 C3.82 30.91, 3.17 29.97, 2.6 29 C2.04 28.04, 1.56 27, 1.17 25.95 C0.79 24.9, 0.49 23.8, 0.3 22.69 C0.1 21.59, 0 20.46, 0 19.34 C0 18.22, 0.1 17.08, 0.3 15.98 C0.49 14.88, 0.79 13.77, 1.17 12.72 C1.56 11.67, 2.04 10.64, 2.6 9.67 C3.17 8.7, 3.82 7.76, 4.55 6.91 C5.27 6.05, 6.08 5.24, 6.94 4.52 C7.8 3.8, 8.74 3.15, 9.71 2.59 C10.69 2.03, 11.73 1.55, 12.78 1.17 C13.84 0.78, 14.95 0.49, 16.05 0.29 C17.16 0.1, 18.3 0, 19.43 0 C20.55 0, 21.69 0.1, 22.8 0.29 C23.91 0.49, 25.02 0.78, 26.07 1.17 C27.13 1.55, 28.17 2.03, 29.14 2.59 C30.12 3.15, 31.05 3.8, 31.92 4.52 C32.78 5.24, 33.59 6.05, 34.31 6.91 C35.03 7.76, 35.69 8.7, 36.25 9.67 C36.82 10.64, 37.3 11.67, 37.68 12.72 C38.07 13.77, 38.37 14.88, 38.56 15.98 C38.76 17.08, 38.81 18.78, 38.86 19.34 C38.91 19.9, 38.91 18.78, 38.86 19.34" stroke="#495057" stroke-width="1" fill="none"></path></g><g stroke-linecap="round"><g transform="translate(57.365257796759124 93.6327526642417) rotate(0 0 27.095195485027944)" fill-rule="evenodd"><path d="M-12.59 -0.35 C-12.59 -0.35, -12.59 -0.35, -12.59 -0.35 M-12.59 -0.35 C-12.59 -0.35, -12.59 -0.35, -12.59 -0.35 M-17.44 11.34 C-13.56 6.86, -9.67 2.39, -4.98 -3 M-17.44 11.34 C-14.09 7.47, -10.73 3.61, -4.98 -3 M-22.3 23.02 C-18.05 18.13, -13.8 13.24, -1.3 -1.13 M-22.3 23.02 C-14.26 13.77, -6.23 4.53, -1.3 -1.13 M-21.25 27.9 C-15.75 21.58, -10.24 15.25, 5.65 -3.04 M-21.25 27.9 C-13.77 19.3, -6.3 10.7, 5.65 -3.04 M-23.48 36.57 C-16.2 28.19, -8.91 19.81, 10.64 -2.68 M-23.48 36.57 C-13.49 25.07, -3.49 13.58, 10.64 -2.68 M-24.4 43.72 C-15.7 33.72, -7.01 23.72, 13 0.7 M-24.4 43.72 C-14.24 32.04, -4.09 20.36, 13 0.7 M-24.66 50.12 C-15.86 40, -7.07 29.89, 15.36 4.08 M-24.66 50.12 C-9.99 33.24, 4.68 16.36, 15.36 4.08 M-22.95 54.25 C-13.53 43.42, -4.11 32.58, 17.07 8.21 M-22.95 54.25 C-9.21 38.44, 4.54 22.63, 17.07 8.21 M-19.28 56.12 C-8.12 43.29, 3.03 30.46, 19.43 11.59 M-19.28 56.12 C-4.47 39.09, 10.33 22.06, 19.43 11.59 M-14.94 57.23 C-4.93 45.72, 5.08 34.2, 20.48 16.48 M-14.94 57.23 C-1.39 41.64, 12.17 26.04, 20.48 16.48 M-9.96 57.6 C-1.42 47.78, 7.11 37.96, 22.19 20.61 M-9.96 57.6 C1.76 44.11, 13.48 30.63, 22.19 20.61 M-4.97 57.96 C5.8 45.57, 16.57 33.18, 23.9 24.75 M-4.97 57.96 C5.81 45.55, 16.59 33.15, 23.9 24.75 M0.02 58.32 C7.31 49.92, 14.6 41.53, 26.26 28.13 M0.02 58.32 C7.43 49.79, 14.84 41.27, 26.26 28.13 M5.66 57.92 C12.93 49.56, 20.19 41.2, 27.31 33.02 M5.66 57.92 C12.05 50.57, 18.44 43.21, 27.31 33.02 M11.96 56.77 C15.76 52.4, 19.56 48.03, 28.36 37.9 M11.96 56.77 C17.71 50.16, 23.45 43.55, 28.36 37.9 M16.95 57.13 C21.04 52.42, 25.14 47.71, 29.41 42.79 M16.95 57.13 C19.72 53.93, 22.5 50.74, 29.41 42.79" stroke="#12b886" stroke-width="0.5" fill="none"></path><path d="M0 0 C2.15 0, 8.59 -8.59, 12.89 0 C17.19 8.59, 32.23 42.97, 25.78 51.56 C19.34 60.16, -19.34 60.16, -25.78 51.56 C-32.23 42.97, -17.19 8.59, -12.89 0 C-8.59 -8.59, -2.15 0, 0 0 M0 0 C2.15 0, 8.59 -8.59, 12.89 0 C17.19 8.59, 32.23 42.97, 25.78 51.56 C19.34 60.16, -19.34 60.16, -25.78 51.56 C-32.23 42.97, -17.19 8.59, -12.89 0 C-8.59 -8.59, -2.15 0, 0 0" stroke="#495057" stroke-width="1" fill="none"></path></g></g><mask></mask><g stroke-linecap="round" transform="translate(231.1339473369835 16.913584593141422) rotate(358.92972393214535 3.7680364110324263 19.55595047308725)"><path d="M1.88 0 L5.65 0 L7.07 0.47 L7.54 1.88 L7.54 37.23 L7.07 38.64 L5.65 39.11 L0.47 38.64 L0 37.23 L0 1.88 L0.47 0.47 L1.88 0" stroke="none" stroke-width="0" fill="#7950f2"></path><path d="M1.88 0 M1.88 0 C2.94 0, 3.99 0, 5.65 0 M1.88 0 C2.99 0, 4.09 0, 5.65 0 M5.65 0 C6.91 0, 7.54 0.63, 7.54 1.88 M5.65 0 C6.91 0, 7.54 0.63, 7.54 1.88 M7.54 1.88 C7.54 9.17, 7.54 16.45, 7.54 37.23 M7.54 1.88 C7.54 11.87, 7.54 21.85, 7.54 37.23 M7.54 37.23 C7.54 38.48, 6.91 39.11, 5.65 39.11 M7.54 37.23 C7.54 38.48, 6.91 39.11, 5.65 39.11 M5.65 39.11 C4.84 39.11, 4.03 39.11, 1.88 39.11 M5.65 39.11 C4.28 39.11, 2.91 39.11, 1.88 39.11 M1.88 39.11 C0.63 39.11, 0 38.48, 0 37.23 M1.88 39.11 C0.63 39.11, 0 38.48, 0 37.23 M0 37.23 C0 28.78, 0 20.32, 0 1.88 M0 37.23 C0 28.51, 0 19.8, 0 1.88 M0 1.88 C0 0.63, 0.63 0, 1.88 0 M0 1.88 C0 0.63, 0.63 0, 1.88 0" stroke="transparent" stroke-width="1" fill="none"></path></g><g stroke-linecap="round" transform="translate(245.17058677026853 11.918571669753874) rotate(40.41727686562419 3.7680364110324263 24.785791502693428)"><path d="M1.88 0 L5.65 0 L7.07 0.47 L7.54 1.88 L7.54 47.69 L7.07 49.1 L5.65 49.57 L0.47 49.1 L0 47.69 L0 1.88 L0.47 0.47 L1.88 0" stroke="none" stroke-width="0" fill="#7950f2"></path><path d="M1.88 0 M1.88 0 C2.79 0, 3.7 0, 5.65 0 M1.88 0 C3.04 0, 4.21 0, 5.65 0 M5.65 0 C6.91 0, 7.54 0.63, 7.54 1.88 M5.65 0 C6.91 0, 7.54 0.63, 7.54 1.88 M7.54 1.88 C7.54 18.21, 7.54 34.53, 7.54 47.69 M7.54 1.88 C7.54 15.8, 7.54 29.71, 7.54 47.69 M7.54 47.69 C7.54 48.94, 6.91 49.57, 5.65 49.57 M7.54 47.69 C7.54 48.94, 6.91 49.57, 5.65 49.57 M5.65 49.57 C4.38 49.57, 3.11 49.57, 1.88 49.57 M5.65 49.57 C4.52 49.57, 3.39 49.57, 1.88 49.57 M1.88 49.57 C0.63 49.57, 0 48.94, 0 47.69 M1.88 49.57 C0.63 49.57, 0 48.94, 0 47.69 M0 47.69 C0 32.82, 0 17.95, 0 1.88 M0 47.69 C0 30.09, 0 12.49, 0 1.88 M0 1.88 C0 0.63, 0.63 0, 1.88 0 M0 1.88 C0 0.63, 0.63 0, 1.88 0" stroke="transparent" stroke-width="1" fill="none"></path></g><g stroke-linecap="round" transform="translate(253.81311103512326 30.47358767775586) rotate(139.22073182693399 3.7680364110324263 14.147647249566944)"><path d="M1.88 0 L5.65 0 L7.07 0.47 L7.54 1.88 L7.54 26.41 L7.07 27.82 L5.65 28.3 L0.47 27.82 L0 26.41 L0 1.88 L0.47 0.47 L1.88 0" stroke="none" stroke-width="0" fill="#7950f2"></path><path d="M1.88 0 M1.88 0 C2.65 0, 3.41 0, 5.65 0 M1.88 0 C2.82 0, 3.75 0, 5.65 0 M5.65 0 C6.91 0, 7.54 0.63, 7.54 1.88 M5.65 0 C6.91 0, 7.54 0.63, 7.54 1.88 M7.54 1.88 C7.54 10.67, 7.54 19.46, 7.54 26.41 M7.54 1.88 C7.54 11.21, 7.54 20.53, 7.54 26.41 M7.54 26.41 C7.54 27.67, 6.91 28.3, 5.65 28.3 M7.54 26.41 C7.54 27.67, 6.91 28.3, 5.65 28.3 M5.65 28.3 C4.45 28.3, 3.25 28.3, 1.88 28.3 M5.65 28.3 C4.81 28.3, 3.96 28.3, 1.88 28.3 M1.88 28.3 C0.63 28.3, 0 27.67, 0 26.41 M1.88 28.3 C0.63 28.3, 0 27.67, 0 26.41 M0 26.41 C0 20.29, 0 14.17, 0 1.88 M0 26.41 C0 19.63, 0 12.85, 0 1.88 M0 1.88 C0 0.63, 0.63 0, 1.88 0 M0 1.88 C0 0.63, 0.63 0, 1.88 0" stroke="transparent" stroke-width="1" fill="none"></path></g><g stroke-linecap="round" transform="translate(230.26660248390908 14.959063689810137) rotate(358.1310915065084 4.207022158495647 4.569555668486828)"><path d="M8.41 4.57 C8.41 4.83, 8.39 5.1, 8.35 5.36 C8.31 5.62, 8.24 5.88, 8.16 6.13 C8.08 6.38, 7.97 6.63, 7.85 6.85 C7.73 7.08, 7.59 7.3, 7.43 7.51 C7.27 7.71, 7.1 7.9, 6.91 8.07 C6.72 8.24, 6.52 8.39, 6.31 8.53 C6.1 8.66, 5.87 8.77, 5.65 8.86 C5.42 8.95, 5.18 9.02, 4.94 9.07 C4.7 9.12, 4.45 9.14, 4.21 9.14 C3.96 9.14, 3.72 9.12, 3.48 9.07 C3.24 9.02, 3 8.95, 2.77 8.86 C2.54 8.77, 2.31 8.66, 2.1 8.53 C1.89 8.39, 1.69 8.24, 1.5 8.07 C1.32 7.9, 1.14 7.71, 0.98 7.51 C0.83 7.3, 0.69 7.08, 0.56 6.85 C0.44 6.63, 0.34 6.38, 0.25 6.13 C0.17 5.88, 0.11 5.62, 0.06 5.36 C0.02 5.1, 0 4.83, 0 4.57 C0 4.31, 0.02 4.04, 0.06 3.78 C0.11 3.52, 0.17 3.26, 0.25 3.01 C0.34 2.76, 0.44 2.51, 0.56 2.28 C0.69 2.06, 0.83 1.83, 0.98 1.63 C1.14 1.43, 1.32 1.24, 1.5 1.07 C1.69 0.9, 1.89 0.74, 2.1 0.61 C2.31 0.48, 2.54 0.37, 2.77 0.28 C3 0.19, 3.24 0.12, 3.48 0.07 C3.72 0.02, 3.96 0, 4.21 0 C4.45 0, 4.7 0.02, 4.94 0.07 C5.18 0.12, 5.42 0.19, 5.65 0.28 C5.87 0.37, 6.1 0.48, 6.31 0.61 C6.52 0.74, 6.72 0.9, 6.91 1.07 C7.1 1.24, 7.27 1.43, 7.43 1.63 C7.59 1.83, 7.73 2.06, 7.85 2.28 C7.97 2.51, 8.08 2.76, 8.16 3.01 C8.24 3.26, 8.31 3.52, 8.35 3.78 C8.39 4.04, 8.4 4.44, 8.41 4.57 C8.42 4.7, 8.42 4.44, 8.41 4.57" stroke="none" stroke-width="0" fill="#7950f2"></path><path d="M8.41 4.57 C8.41 4.83, 8.39 5.1, 8.35 5.36 C8.31 5.62, 8.24 5.88, 8.16 6.13 C8.08 6.38, 7.97 6.63, 7.85 6.85 C7.73 7.08, 7.59 7.3, 7.43 7.51 C7.27 7.71, 7.1 7.9, 6.91 8.07 C6.72 8.24, 6.52 8.39, 6.31 8.53 C6.1 8.66, 5.87 8.77, 5.65 8.86 C5.42 8.95, 5.18 9.02, 4.94 9.07 C4.7 9.12, 4.45 9.14, 4.21 9.14 C3.96 9.14, 3.72 9.12, 3.48 9.07 C3.24 9.02, 3 8.95, 2.77 8.86 C2.54 8.77, 2.31 8.66, 2.1 8.53 C1.89 8.39, 1.69 8.24, 1.5 8.07 C1.32 7.9, 1.14 7.71, 0.98 7.51 C0.83 7.3, 0.69 7.08, 0.56 6.85 C0.44 6.63, 0.34 6.38, 0.25 6.13 C0.17 5.88, 0.11 5.62, 0.06 5.36 C0.02 5.1, 0 4.83, 0 4.57 C0 4.31, 0.02 4.04, 0.06 3.78 C0.11 3.52, 0.17 3.26, 0.25 3.01 C0.34 2.76, 0.44 2.51, 0.56 2.28 C0.69 2.06, 0.83 1.83, 0.98 1.63 C1.14 1.43, 1.32 1.24, 1.5 1.07 C1.69 0.9, 1.89 0.74, 2.1 0.61 C2.31 0.48, 2.54 0.37, 2.77 0.28 C3 0.19, 3.24 0.12, 3.48 0.07 C3.72 0.02, 3.96 0, 4.21 0 C4.45 0, 4.7 0.02, 4.94 0.07 C5.18 0.12, 5.42 0.19, 5.65 0.28 C5.87 0.37, 6.1 0.48, 6.31 0.61 C6.52 0.74, 6.72 0.9, 6.91 1.07 C7.1 1.24, 7.27 1.43, 7.43 1.63 C7.59 1.83, 7.73 2.06, 7.85 2.28 C7.97 2.51, 8.08 2.76, 8.16 3.01 C8.24 3.26, 8.31 3.52, 8.35 3.78 C8.39 4.04, 8.4 4.44, 8.41 4.57 C8.42 4.7, 8.42 4.44, 8.41 4.57" stroke="#5f3dc4" stroke-width="1" fill="none"></path></g><g stroke-linecap="round" transform="translate(231.22723851092724 47.20710032543502) rotate(358.1310915065084 4.207022158495647 4.569555668486828)"><path d="M8.41 4.57 C8.41 4.83, 8.39 5.1, 8.35 5.36 C8.31 5.62, 8.24 5.88, 8.16 6.13 C8.08 6.38, 7.97 6.63, 7.85 6.85 C7.73 7.08, 7.59 7.3, 7.43 7.51 C7.27 7.71, 7.1 7.9, 6.91 8.07 C6.72 8.24, 6.52 8.39, 6.31 8.53 C6.1 8.66, 5.87 8.77, 5.65 8.86 C5.42 8.95, 5.18 9.02, 4.94 9.07 C4.7 9.12, 4.45 9.14, 4.21 9.14 C3.96 9.14, 3.72 9.12, 3.48 9.07 C3.24 9.02, 3 8.95, 2.77 8.86 C2.54 8.77, 2.31 8.66, 2.1 8.53 C1.89 8.39, 1.69 8.24, 1.5 8.07 C1.32 7.9, 1.14 7.71, 0.98 7.51 C0.83 7.3, 0.69 7.08, 0.56 6.85 C0.44 6.63, 0.34 6.38, 0.25 6.13 C0.17 5.88, 0.11 5.62, 0.06 5.36 C0.02 5.1, 0 4.83, 0 4.57 C0 4.31, 0.02 4.04, 0.06 3.78 C0.11 3.52, 0.17 3.26, 0.25 3.01 C0.34 2.76, 0.44 2.51, 0.56 2.28 C0.69 2.06, 0.83 1.83, 0.98 1.63 C1.14 1.43, 1.32 1.24, 1.5 1.07 C1.69 0.9, 1.89 0.74, 2.1 0.61 C2.31 0.48, 2.54 0.37, 2.77 0.28 C3 0.19, 3.24 0.12, 3.48 0.07 C3.72 0.02, 3.96 0, 4.21 0 C4.45 0, 4.7 0.02, 4.94 0.07 C5.18 0.12, 5.42 0.19, 5.65 0.28 C5.87 0.37, 6.1 0.48, 6.31 0.61 C6.52 0.74, 6.72 0.9, 6.91 1.07 C7.1 1.24, 7.27 1.43, 7.43 1.63 C7.59 1.83, 7.73 2.06, 7.85 2.28 C7.97 2.51, 8.08 2.76, 8.16 3.01 C8.24 3.26, 8.31 3.52, 8.35 3.78 C8.39 4.04, 8.4 4.44, 8.41 4.57 C8.42 4.7, 8.42 4.44, 8.41 4.57" stroke="none" stroke-width="0" fill="#7950f2"></path><path d="M8.41 4.57 C8.41 4.83, 8.39 5.1, 8.35 5.36 C8.31 5.62, 8.24 5.88, 8.16 6.13 C8.08 6.38, 7.97 6.63, 7.85 6.85 C7.73 7.08, 7.59 7.3, 7.43 7.51 C7.27 7.71, 7.1 7.9, 6.91 8.07 C6.72 8.24, 6.52 8.39, 6.31 8.53 C6.1 8.66, 5.87 8.77, 5.65 8.86 C5.42 8.95, 5.18 9.02, 4.94 9.07 C4.7 9.12, 4.45 9.14, 4.21 9.14 C3.96 9.14, 3.72 9.12, 3.48 9.07 C3.24 9.02, 3 8.95, 2.77 8.86 C2.54 8.77, 2.31 8.66, 2.1 8.53 C1.89 8.39, 1.69 8.24, 1.5 8.07 C1.32 7.9, 1.14 7.71, 0.98 7.51 C0.83 7.3, 0.69 7.08, 0.56 6.85 C0.44 6.63, 0.34 6.38, 0.25 6.13 C0.17 5.88, 0.11 5.62, 0.06 5.36 C0.02 5.1, 0 4.83, 0 4.57 C0 4.31, 0.02 4.04, 0.06 3.78 C0.11 3.52, 0.17 3.26, 0.25 3.01 C0.34 2.76, 0.44 2.51, 0.56 2.28 C0.69 2.06, 0.83 1.83, 0.98 1.63 C1.14 1.43, 1.32 1.24, 1.5 1.07 C1.69 0.9, 1.89 0.74, 2.1 0.61 C2.31 0.48, 2.54 0.37, 2.77 0.28 C3 0.19, 3.24 0.12, 3.48 0.07 C3.72 0.02, 3.96 0, 4.21 0 C4.45 0, 4.7 0.02, 4.94 0.07 C5.18 0.12, 5.42 0.19, 5.65 0.28 C5.87 0.37, 6.1 0.48, 6.31 0.61 C6.52 0.74, 6.72 0.9, 6.91 1.07 C7.1 1.24, 7.27 1.43, 7.43 1.63 C7.59 1.83, 7.73 2.06, 7.85 2.28 C7.97 2.51, 8.08 2.76, 8.16 3.01 C8.24 3.26, 8.31 3.52, 8.35 3.78 C8.39 4.04, 8.4 4.44, 8.41 4.57 C8.42 4.7, 8.42 4.44, 8.41 4.57" stroke="#5f3dc4" stroke-width="1" fill="none"></path></g><g stroke-linecap="round" transform="translate(245.76463288607283 33.109211419712665) rotate(358.1310915065084 4.171683969157584 4.569555668486828)"><path d="M8.34 4.57 C8.34 4.83, 8.32 5.1, 8.28 5.36 C8.24 5.62, 8.17 5.88, 8.09 6.13 C8.01 6.38, 7.91 6.63, 7.78 6.85 C7.66 7.08, 7.52 7.3, 7.37 7.51 C7.21 7.71, 7.04 7.9, 6.85 8.07 C6.67 8.24, 6.47 8.39, 6.26 8.53 C6.05 8.66, 5.83 8.77, 5.6 8.86 C5.37 8.95, 5.13 9.02, 4.9 9.07 C4.66 9.12, 4.41 9.14, 4.17 9.14 C3.93 9.14, 3.69 9.12, 3.45 9.07 C3.21 9.02, 2.97 8.95, 2.74 8.86 C2.52 8.77, 2.29 8.66, 2.09 8.53 C1.88 8.39, 1.68 8.24, 1.49 8.07 C1.31 7.9, 1.13 7.71, 0.98 7.51 C0.82 7.3, 0.68 7.08, 0.56 6.85 C0.44 6.63, 0.33 6.38, 0.25 6.13 C0.17 5.88, 0.11 5.62, 0.06 5.36 C0.02 5.1, 0 4.83, 0 4.57 C0 4.31, 0.02 4.04, 0.06 3.78 C0.11 3.52, 0.17 3.26, 0.25 3.01 C0.33 2.76, 0.44 2.51, 0.56 2.28 C0.68 2.06, 0.82 1.83, 0.98 1.63 C1.13 1.43, 1.31 1.24, 1.49 1.07 C1.68 0.9, 1.88 0.74, 2.09 0.61 C2.29 0.48, 2.52 0.37, 2.74 0.28 C2.97 0.19, 3.21 0.12, 3.45 0.07 C3.69 0.02, 3.93 0, 4.17 0 C4.41 0, 4.66 0.02, 4.9 0.07 C5.13 0.12, 5.37 0.19, 5.6 0.28 C5.83 0.37, 6.05 0.48, 6.26 0.61 C6.47 0.74, 6.67 0.9, 6.85 1.07 C7.04 1.24, 7.21 1.43, 7.37 1.63 C7.52 1.83, 7.66 2.06, 7.78 2.28 C7.91 2.51, 8.01 2.76, 8.09 3.01 C8.17 3.26, 8.24 3.52, 8.28 3.78 C8.32 4.04, 8.33 4.44, 8.34 4.57 C8.35 4.7, 8.35 4.44, 8.34 4.57" stroke="none" stroke-width="0" fill="#7950f2"></path><path d="M8.34 4.57 C8.34 4.83, 8.32 5.1, 8.28 5.36 C8.24 5.62, 8.17 5.88, 8.09 6.13 C8.01 6.38, 7.91 6.63, 7.78 6.85 C7.66 7.08, 7.52 7.3, 7.37 7.51 C7.21 7.71, 7.04 7.9, 6.85 8.07 C6.67 8.24, 6.47 8.39, 6.26 8.53 C6.05 8.66, 5.83 8.77, 5.6 8.86 C5.37 8.95, 5.13 9.02, 4.9 9.07 C4.66 9.12, 4.41 9.14, 4.17 9.14 C3.93 9.14, 3.69 9.12, 3.45 9.07 C3.21 9.02, 2.97 8.95, 2.74 8.86 C2.52 8.77, 2.29 8.66, 2.09 8.53 C1.88 8.39, 1.68 8.24, 1.49 8.07 C1.31 7.9, 1.13 7.71, 0.98 7.51 C0.82 7.3, 0.68 7.08, 0.56 6.85 C0.44 6.63, 0.33 6.38, 0.25 6.13 C0.17 5.88, 0.11 5.62, 0.06 5.36 C0.02 5.1, 0 4.83, 0 4.57 C0 4.31, 0.02 4.04, 0.06 3.78 C0.11 3.52, 0.17 3.26, 0.25 3.01 C0.33 2.76, 0.44 2.51, 0.56 2.28 C0.68 2.06, 0.82 1.83, 0.98 1.63 C1.13 1.43, 1.31 1.24, 1.49 1.07 C1.68 0.9, 1.88 0.74, 2.09 0.61 C2.29 0.48, 2.52 0.37, 2.74 0.28 C2.97 0.19, 3.21 0.12, 3.45 0.07 C3.69 0.02, 3.93 0, 4.17 0 C4.41 0, 4.66 0.02, 4.9 0.07 C5.13 0.12, 5.37 0.19, 5.6 0.28 C5.83 0.37, 6.05 0.48, 6.26 0.61 C6.47 0.74, 6.67 0.9, 6.85 1.07 C7.04 1.24, 7.21 1.43, 7.37 1.63 C7.52 1.83, 7.66 2.06, 7.78 2.28 C7.91 2.51, 8.01 2.76, 8.09 3.01 C8.17 3.26, 8.24 3.52, 8.28 3.78 C8.32 4.04, 8.33 4.44, 8.34 4.57 C8.35 4.7, 8.35 4.44, 8.34 4.57" stroke="#5f3dc4" stroke-width="1" fill="none"></path></g><g stroke-linecap="round" transform="translate(258.9105375535919 15.76031478731602) rotate(358.1310915065084 4.207022158495647 4.569555668486828)"><path d="M8.41 4.57 C8.41 4.83, 8.39 5.1, 8.35 5.36 C8.31 5.62, 8.24 5.88, 8.16 6.13 C8.08 6.38, 7.97 6.63, 7.85 6.85 C7.73 7.08, 7.59 7.3, 7.43 7.51 C7.27 7.71, 7.1 7.9, 6.91 8.07 C6.72 8.24, 6.52 8.39, 6.31 8.53 C6.1 8.66, 5.87 8.77, 5.65 8.86 C5.42 8.95, 5.18 9.02, 4.94 9.07 C4.7 9.12, 4.45 9.14, 4.21 9.14 C3.96 9.14, 3.72 9.12, 3.48 9.07 C3.24 9.02, 3 8.95, 2.77 8.86 C2.54 8.77, 2.31 8.66, 2.1 8.53 C1.89 8.39, 1.69 8.24, 1.5 8.07 C1.32 7.9, 1.14 7.71, 0.98 7.51 C0.83 7.3, 0.69 7.08, 0.56 6.85 C0.44 6.63, 0.34 6.38, 0.25 6.13 C0.17 5.88, 0.11 5.62, 0.06 5.36 C0.02 5.1, 0 4.83, 0 4.57 C0 4.31, 0.02 4.04, 0.06 3.78 C0.11 3.52, 0.17 3.26, 0.25 3.01 C0.34 2.76, 0.44 2.51, 0.56 2.28 C0.69 2.06, 0.83 1.83, 0.98 1.63 C1.14 1.43, 1.32 1.24, 1.5 1.07 C1.69 0.9, 1.89 0.74, 2.1 0.61 C2.31 0.48, 2.54 0.37, 2.77 0.28 C3 0.19, 3.24 0.12, 3.48 0.07 C3.72 0.02, 3.96 0, 4.21 0 C4.45 0, 4.7 0.02, 4.94 0.07 C5.18 0.12, 5.42 0.19, 5.65 0.28 C5.87 0.37, 6.1 0.48, 6.31 0.61 C6.52 0.74, 6.72 0.9, 6.91 1.07 C7.1 1.24, 7.27 1.43, 7.43 1.63 C7.59 1.83, 7.73 2.06, 7.85 2.28 C7.97 2.51, 8.08 2.76, 8.16 3.01 C8.24 3.26, 8.31 3.52, 8.35 3.78 C8.39 4.04, 8.4 4.44, 8.41 4.57 C8.42 4.7, 8.42 4.44, 8.41 4.57" stroke="none" stroke-width="0" fill="#7950f2"></path><path d="M8.41 4.57 C8.41 4.83, 8.39 5.1, 8.35 5.36 C8.31 5.62, 8.24 5.88, 8.16 6.13 C8.08 6.38, 7.97 6.63, 7.85 6.85 C7.73 7.08, 7.59 7.3, 7.43 7.51 C7.27 7.71, 7.1 7.9, 6.91 8.07 C6.72 8.24, 6.52 8.39, 6.31 8.53 C6.1 8.66, 5.87 8.77, 5.65 8.86 C5.42 8.95, 5.18 9.02, 4.94 9.07 C4.7 9.12, 4.45 9.14, 4.21 9.14 C3.96 9.14, 3.72 9.12, 3.48 9.07 C3.24 9.02, 3 8.95, 2.77 8.86 C2.54 8.77, 2.31 8.66, 2.1 8.53 C1.89 8.39, 1.69 8.24, 1.5 8.07 C1.32 7.9, 1.14 7.71, 0.98 7.51 C0.83 7.3, 0.69 7.08, 0.56 6.85 C0.44 6.63, 0.34 6.38, 0.25 6.13 C0.17 5.88, 0.11 5.62, 0.06 5.36 C0.02 5.1, 0 4.83, 0 4.57 C0 4.31, 0.02 4.04, 0.06 3.78 C0.11 3.52, 0.17 3.26, 0.25 3.01 C0.34 2.76, 0.44 2.51, 0.56 2.28 C0.69 2.06, 0.83 1.83, 0.98 1.63 C1.14 1.43, 1.32 1.24, 1.5 1.07 C1.69 0.9, 1.89 0.74, 2.1 0.61 C2.31 0.48, 2.54 0.37, 2.77 0.28 C3 0.19, 3.24 0.12, 3.48 0.07 C3.72 0.02, 3.96 0, 4.21 0 C4.45 0, 4.7 0.02, 4.94 0.07 C5.18 0.12, 5.42 0.19, 5.65 0.28 C5.87 0.37, 6.1 0.48, 6.31 0.61 C6.52 0.74, 6.72 0.9, 6.91 1.07 C7.1 1.24, 7.27 1.43, 7.43 1.63 C7.59 1.83, 7.73 2.06, 7.85 2.28 C7.97 2.51, 8.08 2.76, 8.16 3.01 C8.24 3.26, 8.31 3.52, 8.35 3.78 C8.39 4.04, 8.4 4.44, 8.41 4.57 C8.42 4.7, 8.42 4.44, 8.41 4.57" stroke="#5f3dc4" stroke-width="1" fill="none"></path></g><g stroke-linecap="round" transform="translate(260.96154713576016 48.77367981498901) rotate(358.1310915065084 4.207022158495647 4.569555668486828)"><path d="M8.41 4.57 C8.41 4.83, 8.39 5.1, 8.35 5.36 C8.31 5.62, 8.24 5.88, 8.16 6.13 C8.08 6.38, 7.97 6.63, 7.85 6.85 C7.73 7.08, 7.59 7.3, 7.43 7.51 C7.27 7.71, 7.1 7.9, 6.91 8.07 C6.72 8.24, 6.52 8.39, 6.31 8.53 C6.1 8.66, 5.87 8.77, 5.65 8.86 C5.42 8.95, 5.18 9.02, 4.94 9.07 C4.7 9.12, 4.45 9.14, 4.21 9.14 C3.96 9.14, 3.72 9.12, 3.48 9.07 C3.24 9.02, 3 8.95, 2.77 8.86 C2.54 8.77, 2.31 8.66, 2.1 8.53 C1.89 8.39, 1.69 8.24, 1.5 8.07 C1.32 7.9, 1.14 7.71, 0.98 7.51 C0.83 7.3, 0.69 7.08, 0.56 6.85 C0.44 6.63, 0.34 6.38, 0.25 6.13 C0.17 5.88, 0.11 5.62, 0.06 5.36 C0.02 5.1, 0 4.83, 0 4.57 C0 4.31, 0.02 4.04, 0.06 3.78 C0.11 3.52, 0.17 3.26, 0.25 3.01 C0.34 2.76, 0.44 2.51, 0.56 2.28 C0.69 2.06, 0.83 1.83, 0.98 1.63 C1.14 1.43, 1.32 1.24, 1.5 1.07 C1.69 0.9, 1.89 0.74, 2.1 0.61 C2.31 0.48, 2.54 0.37, 2.77 0.28 C3 0.19, 3.24 0.12, 3.48 0.07 C3.72 0.02, 3.96 0, 4.21 0 C4.45 0, 4.7 0.02, 4.94 0.07 C5.18 0.12, 5.42 0.19, 5.65 0.28 C5.87 0.37, 6.1 0.48, 6.31 0.61 C6.52 0.74, 6.72 0.9, 6.91 1.07 C7.1 1.24, 7.27 1.43, 7.43 1.63 C7.59 1.83, 7.73 2.06, 7.85 2.28 C7.97 2.51, 8.08 2.76, 8.16 3.01 C8.24 3.26, 8.31 3.52, 8.35 3.78 C8.39 4.04, 8.4 4.44, 8.41 4.57 C8.42 4.7, 8.42 4.44, 8.41 4.57" stroke="none" stroke-width="0" fill="#7950f2"></path><path d="M8.41 4.57 C8.41 4.83, 8.39 5.1, 8.35 5.36 C8.31 5.62, 8.24 5.88, 8.16 6.13 C8.08 6.38, 7.97 6.63, 7.85 6.85 C7.73 7.08, 7.59 7.3, 7.43 7.51 C7.27 7.71, 7.1 7.9, 6.91 8.07 C6.72 8.24, 6.52 8.39, 6.31 8.53 C6.1 8.66, 5.87 8.77, 5.65 8.86 C5.42 8.95, 5.18 9.02, 4.94 9.07 C4.7 9.12, 4.45 9.14, 4.21 9.14 C3.96 9.14, 3.72 9.12, 3.48 9.07 C3.24 9.02, 3 8.95, 2.77 8.86 C2.54 8.77, 2.31 8.66, 2.1 8.53 C1.89 8.39, 1.69 8.24, 1.5 8.07 C1.32 7.9, 1.14 7.71, 0.98 7.51 C0.83 7.3, 0.69 7.08, 0.56 6.85 C0.44 6.63, 0.34 6.38, 0.25 6.13 C0.17 5.88, 0.11 5.62, 0.06 5.36 C0.02 5.1, 0 4.83, 0 4.57 C0 4.31, 0.02 4.04, 0.06 3.78 C0.11 3.52, 0.17 3.26, 0.25 3.01 C0.34 2.76, 0.44 2.51, 0.56 2.28 C0.69 2.06, 0.83 1.83, 0.98 1.63 C1.14 1.43, 1.32 1.24, 1.5 1.07 C1.69 0.9, 1.89 0.74, 2.1 0.61 C2.31 0.48, 2.54 0.37, 2.77 0.28 C3 0.19, 3.24 0.12, 3.48 0.07 C3.72 0.02, 3.96 0, 4.21 0 C4.45 0, 4.7 0.02, 4.94 0.07 C5.18 0.12, 5.42 0.19, 5.65 0.28 C5.87 0.37, 6.1 0.48, 6.31 0.61 C6.52 0.74, 6.72 0.9, 6.91 1.07 C7.1 1.24, 7.27 1.43, 7.43 1.63 C7.59 1.83, 7.73 2.06, 7.85 2.28 C7.97 2.51, 8.08 2.76, 8.16 3.01 C8.24 3.26, 8.31 3.52, 8.35 3.78 C8.39 4.04, 8.4 4.44, 8.41 4.57 C8.42 4.7, 8.42 4.44, 8.41 4.57" stroke="#5f3dc4" stroke-width="1" fill="none"></path></g><g stroke-linecap="round" transform="translate(230.82957886900476 16.101275808468927) rotate(358.1310915065084 3.7296939325749463 3.867855952339596)"><path d="M7.46 3.87 C7.46 4.09, 7.44 4.32, 7.4 4.54 C7.37 4.76, 7.31 4.98, 7.23 5.19 C7.16 5.4, 7.07 5.61, 6.96 5.8 C6.85 6, 6.73 6.18, 6.59 6.35 C6.45 6.53, 6.29 6.69, 6.13 6.83 C5.96 6.97, 5.78 7.11, 5.59 7.22 C5.41 7.33, 5.21 7.43, 5.01 7.5 C4.8 7.58, 4.59 7.64, 4.38 7.68 C4.16 7.72, 3.95 7.74, 3.73 7.74 C3.51 7.74, 3.29 7.72, 3.08 7.68 C2.87 7.64, 2.66 7.58, 2.45 7.5 C2.25 7.43, 2.05 7.33, 1.86 7.22 C1.68 7.11, 1.5 6.97, 1.33 6.83 C1.17 6.69, 1.01 6.53, 0.87 6.35 C0.73 6.18, 0.61 6, 0.5 5.8 C0.39 5.61, 0.3 5.4, 0.22 5.19 C0.15 4.98, 0.09 4.76, 0.06 4.54 C0.02 4.32, 0 4.09, 0 3.87 C0 3.64, 0.02 3.42, 0.06 3.2 C0.09 2.98, 0.15 2.76, 0.22 2.54 C0.3 2.33, 0.39 2.13, 0.5 1.93 C0.61 1.74, 0.73 1.55, 0.87 1.38 C1.01 1.21, 1.17 1.05, 1.33 0.9 C1.5 0.76, 1.68 0.63, 1.86 0.52 C2.05 0.41, 2.25 0.31, 2.45 0.23 C2.66 0.16, 2.87 0.1, 3.08 0.06 C3.29 0.02, 3.51 0, 3.73 0 C3.95 0, 4.16 0.02, 4.38 0.06 C4.59 0.1, 4.8 0.16, 5.01 0.23 C5.21 0.31, 5.41 0.41, 5.59 0.52 C5.78 0.63, 5.96 0.76, 6.13 0.9 C6.29 1.05, 6.45 1.21, 6.59 1.38 C6.73 1.55, 6.85 1.74, 6.96 1.93 C7.07 2.13, 7.16 2.33, 7.23 2.54 C7.31 2.76, 7.37 2.98, 7.4 3.2 C7.44 3.42, 7.45 3.76, 7.46 3.87 C7.47 3.98, 7.47 3.76, 7.46 3.87" stroke="#fff" stroke-width="1" fill="none"></path></g><g stroke-linecap="round" transform="translate(231.60292891501467 48.313884857218) rotate(358.1310915065084 3.7296939325749463 3.867855952339596)"><path d="M7.46 3.87 C7.46 4.09, 7.44 4.32, 7.4 4.54 C7.37 4.76, 7.31 4.98, 7.23 5.19 C7.16 5.4, 7.07 5.61, 6.96 5.8 C6.85 6, 6.73 6.18, 6.59 6.35 C6.45 6.53, 6.29 6.69, 6.13 6.83 C5.96 6.97, 5.78 7.11, 5.59 7.22 C5.41 7.33, 5.21 7.43, 5.01 7.5 C4.8 7.58, 4.59 7.64, 4.38 7.68 C4.16 7.72, 3.95 7.74, 3.73 7.74 C3.51 7.74, 3.29 7.72, 3.08 7.68 C2.87 7.64, 2.66 7.58, 2.45 7.5 C2.25 7.43, 2.05 7.33, 1.86 7.22 C1.68 7.11, 1.5 6.97, 1.33 6.83 C1.17 6.69, 1.01 6.53, 0.87 6.35 C0.73 6.18, 0.61 6, 0.5 5.8 C0.39 5.61, 0.3 5.4, 0.22 5.19 C0.15 4.98, 0.09 4.76, 0.06 4.54 C0.02 4.32, 0 4.09, 0 3.87 C0 3.64, 0.02 3.42, 0.06 3.2 C0.09 2.98, 0.15 2.76, 0.22 2.54 C0.3 2.33, 0.39 2.13, 0.5 1.93 C0.61 1.74, 0.73 1.55, 0.87 1.38 C1.01 1.21, 1.17 1.05, 1.33 0.9 C1.5 0.76, 1.68 0.63, 1.86 0.52 C2.05 0.41, 2.25 0.31, 2.45 0.23 C2.66 0.16, 2.87 0.1, 3.08 0.06 C3.29 0.02, 3.51 0, 3.73 0 C3.95 0, 4.16 0.02, 4.38 0.06 C4.59 0.1, 4.8 0.16, 5.01 0.23 C5.21 0.31, 5.41 0.41, 5.59 0.52 C5.78 0.63, 5.96 0.76, 6.13 0.9 C6.29 1.05, 6.45 1.21, 6.59 1.38 C6.73 1.55, 6.85 1.74, 6.96 1.93 C7.07 2.13, 7.16 2.33, 7.23 2.54 C7.31 2.76, 7.37 2.98, 7.4 3.2 C7.44 3.42, 7.45 3.76, 7.46 3.87 C7.47 3.98, 7.47 3.76, 7.46 3.87" stroke="#fff" stroke-width="1" fill="none"></path></g><g stroke-linecap="round" transform="translate(246.16840832510115 33.58116743942446) rotate(358.1310915065084 3.7246862679369315 3.7725718007777687)"><path d="M7.45 3.77 C7.45 3.99, 7.43 4.21, 7.39 4.43 C7.36 4.64, 7.3 4.86, 7.22 5.06 C7.15 5.27, 7.06 5.47, 6.95 5.66 C6.84 5.85, 6.72 6.03, 6.58 6.2 C6.44 6.36, 6.28 6.52, 6.12 6.66 C5.95 6.8, 5.77 6.93, 5.59 7.04 C5.4 7.15, 5.2 7.24, 5 7.32 C4.8 7.39, 4.58 7.45, 4.37 7.49 C4.16 7.53, 3.94 7.55, 3.72 7.55 C3.51 7.55, 3.29 7.53, 3.08 7.49 C2.87 7.45, 2.65 7.39, 2.45 7.32 C2.25 7.24, 2.05 7.15, 1.86 7.04 C1.68 6.93, 1.5 6.8, 1.33 6.66 C1.17 6.52, 1.01 6.36, 0.87 6.2 C0.73 6.03, 0.61 5.85, 0.5 5.66 C0.39 5.47, 0.3 5.27, 0.22 5.06 C0.15 4.86, 0.09 4.64, 0.06 4.43 C0.02 4.21, 0 3.99, 0 3.77 C0 3.55, 0.02 3.33, 0.06 3.12 C0.09 2.9, 0.15 2.69, 0.22 2.48 C0.3 2.28, 0.39 2.08, 0.5 1.89 C0.61 1.7, 0.73 1.51, 0.87 1.35 C1.01 1.18, 1.17 1.02, 1.33 0.88 C1.5 0.74, 1.68 0.61, 1.86 0.51 C2.05 0.4, 2.25 0.3, 2.45 0.23 C2.65 0.15, 2.87 0.1, 3.08 0.06 C3.29 0.02, 3.51 0, 3.72 0 C3.94 0, 4.16 0.02, 4.37 0.06 C4.58 0.1, 4.8 0.15, 5 0.23 C5.2 0.3, 5.4 0.4, 5.59 0.51 C5.77 0.61, 5.95 0.74, 6.12 0.88 C6.28 1.02, 6.44 1.18, 6.58 1.35 C6.72 1.51, 6.84 1.7, 6.95 1.89 C7.06 2.08, 7.15 2.28, 7.22 2.48 C7.3 2.69, 7.36 2.9, 7.39 3.12 C7.43 3.33, 7.44 3.66, 7.45 3.77 C7.46 3.88, 7.46 3.66, 7.45 3.77" stroke="#fff" stroke-width="1" fill="none"></path></g><g stroke-linecap="round" transform="translate(259.7203351635753 16.665387305924014) rotate(358.1310915065084 3.325364728417753 3.7725718007777687)"><path d="M6.65 3.77 C6.65 3.99, 6.63 4.21, 6.6 4.43 C6.57 4.64, 6.52 4.86, 6.45 5.06 C6.38 5.27, 6.3 5.47, 6.21 5.66 C6.11 5.85, 6 6.03, 5.87 6.2 C5.75 6.36, 5.61 6.52, 5.46 6.66 C5.32 6.8, 5.15 6.93, 4.99 7.04 C4.82 7.15, 4.64 7.24, 4.46 7.32 C4.28 7.39, 4.09 7.45, 3.9 7.49 C3.71 7.53, 3.52 7.55, 3.33 7.55 C3.13 7.55, 2.94 7.53, 2.75 7.49 C2.56 7.45, 2.37 7.39, 2.19 7.32 C2.01 7.24, 1.83 7.15, 1.66 7.04 C1.5 6.93, 1.34 6.8, 1.19 6.66 C1.04 6.52, 0.9 6.36, 0.78 6.2 C0.65 6.03, 0.54 5.85, 0.45 5.66 C0.35 5.47, 0.27 5.27, 0.2 5.06 C0.13 4.86, 0.08 4.64, 0.05 4.43 C0.02 4.21, 0 3.99, 0 3.77 C0 3.55, 0.02 3.33, 0.05 3.12 C0.08 2.9, 0.13 2.69, 0.2 2.48 C0.27 2.28, 0.35 2.08, 0.45 1.89 C0.54 1.7, 0.65 1.51, 0.78 1.35 C0.9 1.18, 1.04 1.02, 1.19 0.88 C1.34 0.74, 1.5 0.61, 1.66 0.51 C1.83 0.4, 2.01 0.3, 2.19 0.23 C2.37 0.15, 2.56 0.1, 2.75 0.06 C2.94 0.02, 3.13 0, 3.33 0 C3.52 0, 3.71 0.02, 3.9 0.06 C4.09 0.1, 4.28 0.15, 4.46 0.23 C4.64 0.3, 4.82 0.4, 4.99 0.51 C5.15 0.61, 5.32 0.74, 5.46 0.88 C5.61 1.02, 5.75 1.18, 5.87 1.35 C6 1.51, 6.11 1.7, 6.21 1.89 C6.3 2.08, 6.38 2.28, 6.45 2.48 C6.52 2.69, 6.57 2.9, 6.6 3.12 C6.63 3.33, 6.64 3.66, 6.65 3.77 C6.66 3.88, 6.66 3.66, 6.65 3.77" stroke="#fff" stroke-width="1" fill="none"></path></g><g stroke-linecap="round" transform="translate(262.24592780034527 49.47561212207074) rotate(358.1310915065084 2.94178474596697 3.7725718007777687)"><path d="M5.88 3.77 C5.88 3.99, 5.87 4.21, 5.84 4.43 C5.81 4.64, 5.76 4.86, 5.71 5.06 C5.65 5.27, 5.57 5.47, 5.49 5.66 C5.4 5.85, 5.3 6.03, 5.2 6.2 C5.09 6.36, 4.96 6.52, 4.83 6.66 C4.7 6.8, 4.56 6.93, 4.41 7.04 C4.27 7.15, 4.11 7.24, 3.95 7.32 C3.79 7.39, 3.62 7.45, 3.45 7.49 C3.28 7.53, 3.11 7.55, 2.94 7.55 C2.77 7.55, 2.6 7.53, 2.43 7.49 C2.26 7.45, 2.1 7.39, 1.94 7.32 C1.78 7.24, 1.62 7.15, 1.47 7.04 C1.32 6.93, 1.18 6.8, 1.05 6.66 C0.92 6.52, 0.8 6.36, 0.69 6.2 C0.58 6.03, 0.48 5.85, 0.39 5.66 C0.31 5.47, 0.24 5.27, 0.18 5.06 C0.12 4.86, 0.07 4.64, 0.04 4.43 C0.02 4.21, 0 3.99, 0 3.77 C0 3.55, 0.02 3.33, 0.04 3.12 C0.07 2.9, 0.12 2.69, 0.18 2.48 C0.24 2.28, 0.31 2.08, 0.39 1.89 C0.48 1.7, 0.58 1.51, 0.69 1.35 C0.8 1.18, 0.92 1.02, 1.05 0.88 C1.18 0.74, 1.32 0.61, 1.47 0.51 C1.62 0.4, 1.78 0.3, 1.94 0.23 C2.1 0.15, 2.26 0.1, 2.43 0.06 C2.6 0.02, 2.77 0, 2.94 0 C3.11 0, 3.28 0.02, 3.45 0.06 C3.62 0.1, 3.79 0.15, 3.95 0.23 C4.11 0.3, 4.27 0.4, 4.41 0.51 C4.56 0.61, 4.7 0.74, 4.83 0.88 C4.96 1.02, 5.09 1.18, 5.2 1.35 C5.3 1.51, 5.4 1.7, 5.49 1.89 C5.57 2.08, 5.65 2.28, 5.71 2.48 C5.76 2.69, 5.81 2.9, 5.84 3.12 C5.87 3.33, 5.88 3.66, 5.88 3.77 C5.89 3.88, 5.89 3.66, 5.88 3.77" stroke="#fff" stroke-width="1" fill="none"></path></g><g transform="translate(10 154.9594339983887) rotate(0 50.979949951171875 25)"><text x="50.979949951171875" y="0" font-family="Virgil, Segoe UI Emoji" font-size="20px" fill="#087f5b" text-anchor="middle" style="white-space: pre;" direction="ltr" dominant-baseline="text-before-edge">Application</text><text x="50.979949951171875" y="25" font-family="Virgil, Segoe UI Emoji" font-size="20px" fill="#087f5b" text-anchor="middle" style="white-space: pre;" direction="ltr" dominant-baseline="text-before-edge">Engineer</text></g><g stroke-opacity="0.9" fill-opacity="0.9" stroke-linecap="round" transform="translate(270 74.9594339983887) rotate(0 26.539974486125857 33.628334800137964)"><path d="M13.27 0 L42.92 0.21 L47.9 1.87 L51.21 5.18 L53.08 13.27 L53.08 53.99 L52.25 59.79 L51.21 62.07 L47.9 65.39 L39.81 67.26 L10.16 67.05 L5.18 65.39 L1.87 62.07 L0 53.99 L0.21 10.16 L1.87 5.18 L5.18 1.87 L13.27 0" stroke="none" stroke-width="0" fill="#fab005"></path><path d="M13.27 0 M13.27 0 C18.58 0, 23.89 0, 39.81 0 M13.27 0 C20.05 0, 26.84 0, 39.81 0 M39.81 0 C48.66 0, 53.08 4.42, 53.08 13.27 M39.81 0 C48.66 0, 53.08 4.42, 53.08 13.27 M53.08 13.27 C53.08 21.61, 53.08 29.95, 53.08 53.99 M53.08 13.27 C53.08 22.53, 53.08 31.79, 53.08 53.99 M53.08 53.99 C53.08 62.83, 48.66 67.26, 39.81 67.26 M53.08 53.99 C53.08 62.83, 48.66 67.26, 39.81 67.26 M39.81 67.26 C29.65 67.26, 19.5 67.26, 13.27 67.26 M39.81 67.26 C33.88 67.26, 27.94 67.26, 13.27 67.26 M13.27 67.26 C4.42 67.26, 0 62.83, 0 53.99 M13.27 67.26 C4.42 67.26, 0 62.83, 0 53.99 M0 53.99 C0 40.34, 0 26.7, 0 13.27 M0 53.99 C0 41.66, 0 29.33, 0 13.27 M0 13.27 C0 4.42, 4.42 0, 13.27 0 M0 13.27 C0 4.42, 4.42 0, 13.27 0" stroke="#000000" stroke-width="1" fill="none"></path></g><g stroke-opacity="0.9" fill-opacity="0.9" transform="translate(277.53617376259353 95.94553826537413) rotate(0 18.61998748779297 12.5)"><text x="18.61998748779297" y="0" font-family="Virgil, Segoe UI Emoji" font-size="20px" fill="#000000" text-anchor="middle" style="white-space: pre;" direction="ltr" dominant-baseline="text-before-edge">API</text></g><g stroke-linecap="round"><g transform="translate(90 110.41919298706307) rotate(0 87.1068545017788 0)"><path d="M0 0 C29.04 0, 145.18 0, 174.21 0 M0 0 C29.04 0, 145.18 0, 174.21 0" stroke="#2b8a3e" stroke-width="4" fill="none"></path></g><g transform="translate(90 110.41919298706307) rotate(0 87.1068545017788 0)"><path d="M146.02 10.26 C154.3 7.25, 162.58 4.24, 174.21 0 M146.02 10.26 C156.48 6.45, 166.94 2.65, 174.21 0" stroke="#2b8a3e" stroke-width="4" fill="none"></path></g><g transform="translate(90 110.41919298706307) rotate(0 87.1068545017788 0)"><path d="M146.02 -10.26 C154.3 -7.25, 162.58 -4.24, 174.21 0 M146.02 -10.26 C156.48 -6.45, 166.94 -2.65, 174.21 0" stroke="#2b8a3e" stroke-width="4" fill="none"></path></g></g><mask></mask><g stroke-linecap="round" transform="translate(130.98374333901165 82.83506708816276) rotate(0 19.190538279596012 27.008905726838748)"><path d="M1.99 0.98 L38.26 -0.91 L38.34 55.19 L0.16 52.44" stroke="none" stroke-width="0" fill="#fff"></path><path d="M-0.05 -0.24 C14.63 0.35, 29.86 -0.93, 37.05 -1.73 M-0.85 -0.62 C15.35 0.33, 28.81 0.69, 38.88 -0.54 M37.37 1.99 C40.31 11.81, 40.82 22.77, 38.28 55.99 M38.67 0.61 C38.29 18.51, 38.2 36.28, 39.38 54.72 M40.32 53.87 C24.33 53.93, 8.66 56.03, 1.75 54.56 M37.74 53.83 C27.8 54.75, 18.79 54.36, 0.38 54.71 M-0.37 55.51 C-1.72 40.17, 1.07 30.12, -1.85 0.4 M-0.93 54.08 C-0.51 34.74, -0.6 17.31, 0.8 0.15" stroke="#000000" stroke-width="2" fill="none"></path></g><g transform="translate(138.20584442378322 101.84930336170873) rotate(0 11.968437194824219 7.994669453293682)"><text x="11.968437194824219" y="0" font-family="Virgil, Segoe UI Emoji" font-size="6.3957355626347905px" fill="#1e1e1e" text-anchor="middle" style="white-space: pre;" direction="ltr" dominant-baseline="text-before-edge">jenkins </text><text x="11.968437194824219" y="7.994669453293488" font-family="Virgil, Segoe UI Emoji" font-size="6.3957355626347905px" fill="#1e1e1e" text-anchor="middle" style="white-space: pre;" direction="ltr" dominant-baseline="text-before-edge">request</text></g><g stroke-linecap="round" transform="translate(637.6458374020572 154.9594339983887) rotate(0 19.190538279596012 27.008905726838748)"><path d="M-0.44 -1.14 L37.34 -0.25 L38.63 53.54 L1.9 55.46" stroke="none" stroke-width="0" fill="#fff"></path><path d="M-1.46 -0.82 C15.59 1.68, 31.33 1.16, 38.4 -0.28 M0.95 -0.35 C14.73 0.68, 26.83 0.95, 38.11 0.92 M36.7 1.47 C39.62 17.42, 39.42 34.79, 38.17 52.67 M39.28 0.39 C38.03 12.24, 39.36 23.48, 39.27 53.06 M37.62 55.05 C24.46 52.71, 11.92 55.29, -0.12 54.9 M37.75 54.02 C23.41 53.05, 10.89 53.3, -0.92 54.62 M1.57 52.15 C0.42 37.62, 1.18 21.12, -1.92 -1.74 M-0.45 54.13 C1.02 36.64, 0.33 19.33, -0.53 0.94" stroke="#000000" stroke-width="2" fill="none"></path></g><g transform="translate(643.6506609599733 173.97367027193468) rotate(0 13.185714721679688 7.994669453293682)"><text x="13.185714721679688" y="0" font-family="Virgil, Segoe UI Emoji" font-size="6.3957355626347905px" fill="#1e1e1e" text-anchor="middle" style="white-space: pre;" direction="ltr" dominant-baseline="text-before-edge">jenkins </text><text x="13.185714721679688" y="7.994669453293488" font-family="Virgil, Segoe UI Emoji" font-size="6.3957355626347905px" fill="#1e1e1e" text-anchor="middle" style="white-space: pre;" direction="ltr" dominant-baseline="text-before-edge">manifest</text></g><g transform="translate(790 34.959433998388704) rotate(0 58.031951904296875 10)"><text x="0" y="0" font-family="Virgil, Segoe UI Emoji" font-size="16px" fill="#1e1e1e" text-anchor="start" style="white-space: pre;" direction="ltr" dominant-baseline="text-before-edge">Worker Cluster</text></g></svg>