<svg version="1.1" xmlns="http://www.w3.org/2000/svg" viewBox="0 0 1047.9955601178153 355.1971416857614">
  <!-- svg-source:excalidraw -->
  
  <defs>
    <style class="style-fonts">
      @font-face {
        font-family: "Virgil";
        src: url("https://excalidraw.com/Virgil.woff2");
      }
      @font-face {
        font-family: "Cascadia";
        src: url("https://excalidraw.com/Cascadia.woff2");
      }
    </style>
  </defs>
  <rect x="0" y="0" width="1047.9955601178153" height="355.1971416857614" fill="#ffffff"></rect><g mask="url(#mask-EKdLGAgDoFor9W_HbYEgw)" stroke-linecap="round"><g transform="translate(579.5959105399397 106.52706464282528) rotate(0 63.12492468679466 36.74877300806838)"><path d="M0 0 C14.27 1, 64.57 -6.47, 85.61 6 C106.65 18.47, 119.48 63.35, 126.25 74.81 M0 0 C14.27 1, 64.57 -6.47, 85.61 6 C106.65 18.47, 119.48 63.35, 126.25 74.81" stroke="#1971c2" stroke-width="4" fill="none"></path></g><g transform="translate(579.5959105399397 106.52706464282528) rotate(0 63.12492468679466 36.74877300806838)"><path d="M126.25 74.81 L114.94 64.96 L126.53 59.82 L126.25 74.81" stroke="none" stroke-width="0" fill="#1971c2" fill-rule="evenodd"></path><path d="M126.25 74.81 C123.16 72.12, 120.07 69.43, 114.94 64.96 M126.25 74.81 C123.84 72.71, 121.42 70.61, 114.94 64.96 M114.94 64.96 C119.05 63.14, 123.16 61.31, 126.53 59.82 M114.94 64.96 C118.31 63.47, 121.67 61.98, 126.53 59.82 M126.53 59.82 C126.43 65.55, 126.32 71.28, 126.25 74.81 M126.53 59.82 C126.46 63.59, 126.39 67.36, 126.25 74.81 M126.25 74.81 C126.25 74.81, 126.25 74.81, 126.25 74.81 M126.25 74.81 C126.25 74.81, 126.25 74.81, 126.25 74.81" stroke="#1971c2" stroke-width="4" fill="none"></path></g></g><mask id="mask-EKdLGAgDoFor9W_HbYEgw"><rect x="0" y="0" fill="#fff" width="805.845759913529" height="281.34179585089987"></rect><rect x="632.1874390542466" y="92.52796161391416" fill="#000" width="66.03195190429688" height="40" opacity="1"></rect></mask><g transform="translate(632.1874390542466 92.52796161391416) rotate(0 10.533396172487755 50.747876036979505)"><text x="33.01597595214844" y="0" font-family="Virgil, Segoe UI Emoji" font-size="16px" fill="#1971c2" text-anchor="middle" style="white-space: pre;" direction="ltr" dominant-baseline="text-before-edge">jenkins</text><text x="33.01597595214844" y="20" font-family="Virgil, Segoe UI Emoji" font-size="16px" fill="#1971c2" text-anchor="middle" style="white-space: pre;" direction="ltr" dominant-baseline="text-before-edge">manifest</text></g><g stroke-linecap="round" transform="translate(95.57865078589566 71.69966214956366) rotate(0 26.36749200845952 40.011203957372345)"><path d="M-1.42 1.1 L52.26 1.81 L54.42 80.86 L-0.88 79.7" stroke="none" stroke-width="0" fill="#fff"></path><path d="M0.48 -0.23 C16.29 -0.56, 38.02 -1.55, 51.38 1.7 M0.53 -0.04 C17.66 0.84, 34.13 1.26, 53.42 -0.73 M51.07 -1.76 C51.79 19.33, 51.14 38.3, 52.8 80.63 M51.78 -0.87 C53.46 17.77, 52.28 35.35, 52.98 80.47 M53.76 79.82 C38.13 78.02, 25.98 80.22, 1.49 81.74 M52.66 79.45 C38.2 79.86, 24.67 80.47, -0.46 80.23 M0.36 80.23 C-1.68 62.68, -2.21 45.2, 0.8 -0.89 M-0.59 80.39 C-0.48 51.15, -0.85 20.57, -0.74 -0.84" stroke="#2f9e44" stroke-width="2" fill="none"></path></g><g stroke-linecap="round"><g transform="translate(103.35840926430865 105.72011317036959) rotate(0 17.13977931491013 -0.8910408689589531)"><path d="M-0.14 -1.04 C4.92 -0.87, 24.01 1.65, 29.64 1.31 C35.27 0.96, 32.62 -2.57, 33.64 -3.12 M-1.67 1.03 C3.25 0.87, 22.15 0.35, 28.41 -0.19 C34.68 -0.73, 34.59 -2.14, 35.95 -2.23" stroke="#2f9e44" stroke-width="1" fill="none"></path></g></g><mask></mask><g stroke-linecap="round"><g transform="translate(104.7426574504243 82.2431077386791) rotate(0 17.247908627486822 -0.695981172941174)"><path d="M-0.52 1.19 C1.41 0.88, 5.52 -2.72, 11.44 -2.91 C17.37 -3.1, 31.45 -0.21, 35.02 0.05 M1.4 0.77 C3.7 0.68, 8 -1.92, 13.57 -1.8 C19.13 -1.67, 31.63 1.36, 34.79 1.52" stroke="#2f9e44" stroke-width="1" fill="none"></path></g></g><mask></mask><g stroke-linecap="round"><g transform="translate(104.68550471430535 132.52766658549444) rotate(0 18.08007058349017 -0.23474813325810828)"><path d="M-1.12 -0.81 C2.43 -1, 16.05 -0.14, 20.73 0.1 C25.41 0.35, 24.29 0.9, 26.96 0.63 C29.62 0.36, 35.07 -1.24, 36.7 -1.52 M0.5 1.37 C4.02 1.32, 15.52 -1.86, 20.32 -1.86 C25.11 -1.86, 26.44 1.14, 29.27 1.37 C32.09 1.61, 36.22 -0.15, 37.28 -0.44" stroke="#2f9e44" stroke-width="1" fill="none"></path></g></g><mask></mask><g stroke-linecap="round"><g transform="translate(102.30981075462296 140.9164492380587) rotate(0 20.2808680294454 0.11743169740293524)"><path d="M1.02 0.3 C2.29 0.1, 4.53 -1.8, 6.47 -1.97 C8.41 -2.13, 7.88 -1.16, 12.67 -0.68 C17.45 -0.21, 30.54 0.9, 35.17 0.89 C39.8 0.87, 39.42 -0.2, 40.46 -0.78 M0.1 -0.6 C1.81 -0.61, 6.58 -1.21, 8.6 -1.01 C10.62 -0.81, 7.71 0.07, 12.23 0.61 C16.76 1.14, 31.31 2.3, 35.76 2.22 C40.21 2.13, 38.28 0.54, 38.92 0.1" stroke="#2f9e44" stroke-width="1" fill="none"></path></g></g><mask></mask><g stroke-linecap="round"><g transform="translate(102.52233886990325 93.48018373014929) rotate(0 17.27671653060702 0.3516928646085944)"><path d="M-1.11 -1.1 C1.08 -1.23, 8.08 -0.98, 14.21 -0.49 C20.34 -0.01, 32.22 1.36, 35.67 1.84 M0.5 0.94 C2.51 0.98, 7.8 1.22, 13.59 1.01 C19.38 0.81, 31.67 -0.16, 35.24 -0.28" stroke="#2f9e44" stroke-width="1" fill="none"></path></g></g><mask></mask><g stroke-linecap="round"><g transform="translate(102.60253839075631 119.20902247833146) rotate(0 18.009299581837695 0.05106988186980743)"><path d="M0.63 -0.05 C1.93 0.38, 4.56 1.4, 6.69 1.5 C8.83 1.59, 8.59 0.65, 13.44 0.49 C18.3 0.33, 32.38 0.57, 35.84 0.53 M-0.49 -1.13 C0.8 -0.97, 3.9 -0.36, 6.09 -0.4 C8.27 -0.44, 7.54 -1.62, 12.61 -1.36 C17.68 -1.1, 32.63 0.94, 36.51 1.18" stroke="#2f9e44" stroke-width="1" fill="none"></path></g></g><mask></mask><g transform="translate(355.46035637899513 34.959433998388704) rotate(0 36.03831445045239 12.720156798221979)"><text x="0" y="0" font-family="Virgil, Segoe UI Emoji" font-size="20.093863545069876px" fill="#5f3dc4" text-anchor="start" style="white-space: pre;" direction="ltr" dominant-baseline="text-before-edge">Promise</text></g><g stroke-linecap="round" transform="translate(274.53955807076636 10) rotate(0 163.69224501623853 101.45394873267742)"><path d="M32 0 M32 0 C125.34 0, 218.68 0, 295.38 0 M32 0 C86.56 0, 141.12 0, 295.38 0 M295.38 0 C316.72 0, 327.38 10.67, 327.38 32 M295.38 0 C316.72 0, 327.38 10.67, 327.38 32 M327.38 32 C327.38 85.08, 327.38 138.17, 327.38 170.91 M327.38 32 C327.38 77.95, 327.38 123.89, 327.38 170.91 M327.38 170.91 C327.38 192.24, 316.72 202.91, 295.38 202.91 M327.38 170.91 C327.38 192.24, 316.72 202.91, 295.38 202.91 M295.38 202.91 C228.58 202.91, 161.77 202.91, 32 202.91 M295.38 202.91 C208.7 202.91, 122.02 202.91, 32 202.91 M32 202.91 C10.67 202.91, 0 192.24, 0 170.91 M32 202.91 C10.67 202.91, 0 192.24, 0 170.91 M0 170.91 C0 131.1, 0 91.29, 0 32 M0 170.91 C0 121.56, 0 72.22, 0 32 M0 32 C0 10.67, 10.67 0, 32 0 M0 32 C0 10.67, 10.67 0, 32 0" stroke="#343a40" stroke-width="2" fill="none"></path></g><g stroke-opacity="0.4" fill-opacity="0.4" stroke-linecap="round" transform="translate(855.4603563789951 74.9594339983887) rotate(0 79.70216915175024 31.37013205864514)"><path d="M4.18 3.63 C4.18 3.63, 4.18 3.63, 4.18 3.63 M4.18 3.63 C4.18 3.63, 4.18 3.63, 4.18 3.63 M1.29 13.05 C4.32 9.55, 7.36 6.06, 10.47 2.48 M1.29 13.05 C3.84 10.11, 6.4 7.17, 10.47 2.48 M1.03 19.44 C5.38 14.44, 9.73 9.43, 16.77 1.33 M1.03 19.44 C6.93 12.66, 12.83 5.87, 16.77 1.33 M1.42 25.09 C6.75 18.96, 12.07 12.84, 22.42 0.94 M1.42 25.09 C8.33 17.14, 15.24 9.19, 22.42 0.94 M1.16 31.48 C8.67 22.85, 16.17 14.21, 27.4 1.3 M1.16 31.48 C10.01 21.3, 18.86 11.12, 27.4 1.3 M1.56 37.13 C8.76 28.83, 15.97 20.54, 33.05 0.9 M1.56 37.13 C10.5 26.84, 19.44 16.56, 33.05 0.9 M1.29 43.53 C8.77 34.92, 16.25 26.32, 38.03 1.26 M1.29 43.53 C14.45 28.39, 27.61 13.25, 38.03 1.26 M0.38 50.68 C14.73 34.17, 29.08 17.65, 43.68 0.87 M0.38 50.68 C16.36 32.29, 32.35 13.9, 43.68 0.87 M2.08 54.81 C19.27 35.04, 36.46 15.27, 48.66 1.23 M2.08 54.81 C18.93 35.43, 35.78 16.04, 48.66 1.23 M4.45 58.19 C16.48 44.35, 28.51 30.51, 54.31 0.83 M4.45 58.19 C21 39.15, 37.55 20.11, 54.31 0.83 M6.81 61.57 C21.36 44.83, 35.9 28.1, 59.29 1.19 M6.81 61.57 C19.55 46.92, 32.28 32.26, 59.29 1.19 M10.48 63.44 C29.16 41.95, 47.84 20.46, 64.94 0.8 M10.48 63.44 C28.97 42.17, 47.46 20.91, 64.94 0.8 M16.13 63.04 C31.06 45.87, 45.99 28.69, 69.92 1.16 M16.13 63.04 C35.81 40.4, 55.5 17.75, 69.92 1.16 M21.11 63.4 C33.42 49.25, 45.73 35.09, 75.57 0.76 M21.11 63.4 C36.33 45.9, 51.55 28.39, 75.57 0.76 M26.76 63.01 C41.52 46.03, 56.28 29.04, 80.55 1.12 M26.76 63.01 C41.11 46.5, 55.47 29.98, 80.55 1.12 M31.74 63.37 C52.41 39.59, 73.08 15.81, 85.54 1.48 M31.74 63.37 C45.72 47.29, 59.7 31.21, 85.54 1.48 M37.39 62.98 C49.57 48.96, 61.76 34.94, 91.18 1.09 M37.39 62.98 C56.26 41.26, 75.14 19.54, 91.18 1.09 M42.37 63.34 C59.4 43.76, 76.42 24.17, 96.17 1.45 M42.37 63.34 C58.99 44.23, 75.6 25.12, 96.17 1.45 M48.02 62.94 C61.33 47.63, 74.64 32.32, 101.81 1.05 M48.02 62.94 C69.22 38.55, 90.41 14.17, 101.81 1.05 M53 63.3 C65.16 49.32, 77.31 35.34, 106.8 1.41 M53 63.3 C67.79 46.29, 82.58 29.28, 106.8 1.41 M58.65 62.91 C75.08 44.01, 91.5 25.11, 112.44 1.02 M58.65 62.91 C71.69 47.9, 84.74 32.89, 112.44 1.02 M63.63 63.27 C80.9 43.41, 98.16 23.55, 117.43 1.38 M63.63 63.27 C81.23 43.03, 98.82 22.79, 117.43 1.38 M69.28 62.87 C86.67 42.86, 104.07 22.85, 123.07 0.99 M69.28 62.87 C86.11 43.51, 102.93 24.15, 123.07 0.99 M74.26 63.23 C91.16 43.8, 108.05 24.36, 128.06 1.35 M74.26 63.23 C87.95 47.49, 101.63 31.75, 128.06 1.35 M79.91 62.84 C94.91 45.58, 109.91 28.32, 133.7 0.95 M79.91 62.84 C95.61 44.78, 111.3 26.72, 133.7 0.95 M84.89 63.2 C102.26 43.22, 119.63 23.24, 138.69 1.31 M84.89 63.2 C104.61 40.52, 124.32 17.84, 138.69 1.31 M90.54 62.8 C106.91 43.97, 123.28 25.14, 144.33 0.92 M90.54 62.8 C103.27 48.16, 115.99 33.52, 144.33 0.92 M95.52 63.16 C115.4 40.3, 135.27 17.44, 149.32 1.28 M95.52 63.16 C116.67 38.84, 137.81 14.51, 149.32 1.28 M101.17 62.77 C121.21 39.72, 141.24 16.67, 153 3.15 M101.17 62.77 C115.41 46.39, 129.64 30.01, 153 3.15 M106.15 63.13 C120.33 46.82, 134.51 30.51, 156.67 5.02 M106.15 63.13 C125.57 40.8, 144.98 18.46, 156.67 5.02 M111.8 62.73 C124.26 48.4, 136.72 34.07, 158.38 9.15 M111.8 62.73 C125.95 46.45, 140.11 30.17, 158.38 9.15 M116.78 63.09 C133.59 43.76, 150.39 24.43, 160.08 13.28 M116.78 63.09 C125.9 52.6, 135.02 42.11, 160.08 13.28 M121.77 63.45 C135.06 48.17, 148.35 32.88, 160.48 18.93 M121.77 63.45 C133.08 50.44, 144.4 37.43, 160.48 18.93 M127.41 63.06 C134.89 54.46, 142.36 45.87, 160.22 25.32 M127.41 63.06 C136.03 53.14, 144.65 43.23, 160.22 25.32 M132.4 63.42 C142.7 51.57, 153 39.73, 160.61 30.97 M132.4 63.42 C143.07 51.15, 153.74 38.88, 160.61 30.97 M138.04 63.03 C143.42 56.85, 148.79 50.67, 160.35 37.36 M138.04 63.03 C145.89 54, 153.74 44.97, 160.35 37.36 M143.03 63.39 C149.03 56.49, 155.02 49.59, 160.75 43.01 M143.03 63.39 C149.59 55.84, 156.15 48.29, 160.75 43.01 M148.68 62.99 C152.07 59.08, 155.47 55.17, 161.14 48.65 M148.68 62.99 C151.28 59.99, 153.89 56.99, 161.14 48.65 M5.87 60.31 C5.87 60.31, 5.87 60.31, 5.87 60.31 M5.87 60.31 C5.87 60.31, 5.87 60.31, 5.87 60.31 M10.76 59.26 C7.87 56.75, 4.98 54.24, 0.19 50.08 M10.76 59.26 C6.68 55.71, 2.6 52.16, 0.19 50.08 M17.91 60.18 C13.8 56.61, 9.69 53.03, 0.55 45.09 M17.91 60.18 C13.4 56.26, 8.88 52.33, 0.55 45.09 M24.31 60.44 C14.99 52.33, 5.66 44.23, 0.91 40.1 M24.31 60.44 C15.99 53.21, 7.67 45.98, 0.91 40.1 M29.95 60.05 C19.75 51.17, 9.54 42.3, 0.52 34.46 M29.95 60.05 C23.29 54.25, 16.62 48.45, 0.52 34.46 M36.35 60.31 C25.45 50.83, 14.55 41.36, 0.88 29.47 M36.35 60.31 C28.94 53.86, 21.52 47.42, 0.88 29.47 M41.99 59.91 C26.3 46.27, 10.6 32.62, 0.49 23.83 M41.99 59.91 C32.14 51.35, 22.3 42.79, 0.49 23.83 M48.39 60.17 C35.84 49.26, 23.29 38.35, 0.85 18.84 M48.39 60.17 C31.31 45.32, 14.22 30.47, 0.85 18.84 M54.79 60.44 C37.93 45.78, 21.07 31.13, 0.45 13.2 M54.79 60.44 C35.63 43.78, 16.47 27.13, 0.45 13.2 M60.43 60.04 C46.44 47.88, 32.45 35.71, 1.57 8.87 M60.43 60.04 C46.34 47.79, 32.24 35.53, 1.57 8.87 M66.83 60.3 C42.94 39.53, 19.04 18.76, 3.44 5.19 M66.83 60.3 C47.62 43.6, 28.41 26.9, 3.44 5.19 M72.47 59.91 C59.04 48.23, 45.61 36.56, 6.06 2.18 M72.47 59.91 C59.01 48.21, 45.56 36.51, 6.06 2.18 M78.87 60.17 C53.41 38.04, 27.95 15.91, 9.44 -0.19 M78.87 60.17 C51.82 36.66, 24.78 13.15, 9.44 -0.19 M85.27 60.43 C68.89 46.19, 52.51 31.96, 15.84 0.07 M85.27 60.43 C69.82 47, 54.38 33.58, 15.84 0.07 M90.91 60.04 C68.5 40.55, 46.09 21.07, 21.48 -0.32 M90.91 60.04 C64.3 36.9, 37.69 13.77, 21.48 -0.32 M97.31 60.3 C81.91 46.91, 66.51 33.53, 27.88 -0.06 M97.31 60.3 C70.04 36.59, 42.77 12.89, 27.88 -0.06 M102.95 59.9 C86.25 45.38, 69.55 30.86, 34.27 0.2 M102.95 59.9 C87.44 46.42, 71.93 32.94, 34.27 0.2 M109.35 60.16 C85.21 39.18, 61.07 18.2, 39.92 -0.19 M109.35 60.16 C93.54 46.42, 77.73 32.68, 39.92 -0.19 M115.75 60.43 C89.33 37.46, 62.91 14.49, 46.32 0.07 M115.75 60.43 C92.9 40.57, 70.06 20.71, 46.32 0.07 M121.39 60.03 C107.09 47.6, 92.78 35.16, 51.96 -0.33 M121.39 60.03 C96.27 38.19, 71.15 16.36, 51.96 -0.33 M127.79 60.29 C104.04 39.65, 80.3 19.01, 58.36 -0.06 M127.79 60.29 C108.7 43.7, 89.6 27.1, 58.36 -0.06 M133.43 59.9 C113.24 42.35, 93.06 24.8, 64.75 0.2 M133.43 59.9 C116.27 44.98, 99.1 30.06, 64.75 0.2 M139.83 60.16 C112.78 36.64, 85.72 13.12, 70.4 -0.2 M139.83 60.16 C117.88 41.08, 95.92 21.99, 70.4 -0.2 M147.74 61.73 C125.51 42.41, 103.28 23.09, 76.8 0.06 M147.74 61.73 C128.79 45.26, 109.84 28.79, 76.8 0.06 M152.63 60.68 C128.75 39.93, 104.88 19.17, 82.44 -0.33 M152.63 60.68 C133.29 43.88, 113.96 27.07, 82.44 -0.33 M156.01 58.32 C137.83 42.52, 119.65 26.72, 88.84 -0.07 M156.01 58.32 C141.98 46.12, 127.95 33.93, 88.84 -0.07 M157.87 54.65 C141.28 40.22, 124.69 25.8, 95.23 0.19 M157.87 54.65 C142.48 41.26, 127.08 27.88, 95.23 0.19 M160.5 51.63 C138.02 32.08, 115.53 12.54, 100.88 -0.2 M160.5 51.63 C137.19 31.37, 113.89 11.11, 100.88 -0.2 M160.1 45.98 C139.51 28.08, 118.91 10.17, 107.27 0.06 M160.1 45.98 C144.75 32.63, 129.39 19.28, 107.27 0.06 M160.46 41 C143.89 26.59, 127.31 12.18, 112.92 -0.34 M160.46 41 C143.86 26.56, 127.25 12.13, 112.92 -0.34 M160.07 35.35 C143.94 21.33, 127.8 7.3, 119.32 -0.07 M160.07 35.35 C146.06 23.17, 132.05 10.99, 119.32 -0.07 M160.43 30.37 C149.82 21.14, 139.2 11.91, 125.71 0.19 M160.43 30.37 C148.61 20.1, 136.8 9.83, 125.71 0.19 M160.04 24.72 C150.91 16.79, 141.78 8.85, 131.36 -0.21 M160.04 24.72 C151.17 17.01, 142.3 9.31, 131.36 -0.21 M160.4 19.74 C154.2 14.35, 148 8.96, 137.75 0.05 M160.4 19.74 C154.94 15, 149.49 10.26, 137.75 0.05 M160 14.09 C155.9 10.52, 151.79 6.96, 143.4 -0.34 M160 14.09 C154 8.88, 148.01 3.67, 143.4 -0.34 M158.85 7.79 C156.5 5.75, 154.16 3.71, 150.55 0.58 M158.85 7.79 C156.8 6.01, 154.74 4.22, 150.55 0.58" stroke="#a5d8ff" stroke-width="0.5" fill="none"></path><path d="M15.69 0 M15.69 0 C44.82 0, 73.95 0, 143.72 0 M15.69 0 C46.98 0, 78.28 0, 143.72 0 M143.72 0 C154.18 0, 159.4 5.23, 159.4 15.69 M143.72 0 C154.18 0, 159.4 5.23, 159.4 15.69 M159.4 15.69 C159.4 23.53, 159.4 31.37, 159.4 47.06 M159.4 15.69 C159.4 22.3, 159.4 28.91, 159.4 47.06 M159.4 47.06 C159.4 57.51, 154.18 62.74, 143.72 62.74 M159.4 47.06 C159.4 57.51, 154.18 62.74, 143.72 62.74 M143.72 62.74 C109.63 62.74, 75.54 62.74, 15.69 62.74 M143.72 62.74 C97.89 62.74, 52.07 62.74, 15.69 62.74 M15.69 62.74 C5.23 62.74, 0 57.51, 0 47.06 M15.69 62.74 C5.23 62.74, 0 57.51, 0 47.06 M0 47.06 C0 37.39, 0 27.73, 0 15.69 M0 47.06 C0 39.95, 0 32.85, 0 15.69 M0 15.69 C0 5.23, 5.23 0, 15.69 0 M0 15.69 C0 5.23, 5.23 0, 15.69 0" stroke="#1971c2" stroke-width="1" fill="none"></path></g><g transform="translate(894.7103924973144 84.24860909542258) rotate(0 39.99634552001953 23.24335640461868)"><text x="39.99634552001953" y="0" font-family="Virgil, Segoe UI Emoji" font-size="18.59468512369525px" fill="#1971c2" text-anchor="middle" style="white-space: pre;" direction="ltr" dominant-baseline="text-before-edge">Jenkins</text><text x="39.99634552001953" y="23.243356404619064" font-family="Virgil, Segoe UI Emoji" font-size="18.59468512369525px" fill="#1971c2" text-anchor="middle" style="white-space: pre;" direction="ltr" dominant-baseline="text-before-edge">Instance</text></g><g stroke-linecap="round" transform="translate(835.4603563789951 14.959433998388704) rotate(0 101.2676018694101 84.68645903333254)"><path d="M32 0 M32 0 C61.36 0, 90.73 0, 170.54 0 M32 0 C63.15 0, 94.29 0, 170.54 0 M170.54 0 C191.87 0, 202.54 10.67, 202.54 32 M170.54 0 C191.87 0, 202.54 10.67, 202.54 32 M202.54 32 C202.54 62.57, 202.54 93.13, 202.54 137.37 M202.54 32 C202.54 60.11, 202.54 88.22, 202.54 137.37 M202.54 137.37 C202.54 158.71, 191.87 169.37, 170.54 169.37 M202.54 137.37 C202.54 158.71, 191.87 169.37, 170.54 169.37 M170.54 169.37 C127.54 169.37, 84.54 169.37, 32 169.37 M170.54 169.37 C119.54 169.37, 68.54 169.37, 32 169.37 M32 169.37 C10.67 169.37, 0 158.71, 0 137.37 M32 169.37 C10.67 169.37, 0 158.71, 0 137.37 M0 137.37 C0 96.9, 0 56.43, 0 32 M0 137.37 C0 98.58, 0 59.78, 0 32 M0 32 C0 10.67, 10.67 0, 32 0 M0 32 C0 10.67, 10.67 0, 32 0" stroke="#343a40" stroke-width="2" fill="none"></path></g><g stroke-linecap="round" transform="translate(691.8217953248331 170.76039396479246) rotate(269.94514152181193 25.79739432653264 67.61133962914573)"><path d="M51.59 67.61 C51.59 70.55, 51.52 73.52, 51.37 76.44 C51.23 79.35, 51.01 82.27, 50.72 85.11 C50.43 87.95, 50.06 90.77, 49.63 93.49 C49.2 96.2, 48.7 98.87, 48.14 101.42 C47.58 103.96, 46.95 106.44, 46.26 108.77 C45.58 111.1, 44.83 113.34, 44.04 115.42 C43.25 117.5, 42.39 119.46, 41.5 121.25 C40.61 123.04, 39.67 124.69, 38.7 126.16 C37.72 127.64, 36.71 128.95, 35.67 130.08 C34.63 131.2, 33.56 132.16, 32.47 132.92 C31.39 133.68, 30.28 134.26, 29.16 134.64 C28.05 135.03, 26.92 135.22, 25.8 135.22 C24.67 135.22, 23.54 135.03, 22.43 134.64 C21.32 134.26, 20.2 133.68, 19.12 132.92 C18.04 132.16, 16.96 131.2, 15.93 130.08 C14.89 128.95, 13.87 127.64, 12.9 126.16 C11.93 124.69, 10.98 123.04, 10.09 121.25 C9.2 119.46, 8.35 117.5, 7.56 115.42 C6.76 113.34, 6.01 111.1, 5.33 108.77 C4.65 106.44, 4.02 103.96, 3.46 101.42 C2.89 98.87, 2.39 96.2, 1.96 93.49 C1.53 90.77, 1.17 87.95, 0.88 85.11 C0.59 82.27, 0.37 79.35, 0.22 76.44 C0.07 73.52, 0 70.55, 0 67.61 C0 64.67, 0.07 61.7, 0.22 58.79 C0.37 55.87, 0.59 52.95, 0.88 50.11 C1.17 47.27, 1.53 44.46, 1.96 41.74 C2.39 39.02, 2.89 36.35, 3.46 33.81 C4.02 31.26, 4.65 28.79, 5.33 26.45 C6.01 24.12, 6.76 21.88, 7.56 19.8 C8.35 17.72, 9.2 15.76, 10.09 13.97 C10.98 12.18, 11.93 10.53, 12.9 9.06 C13.87 7.59, 14.89 6.27, 15.93 5.15 C16.96 4.02, 18.04 3.07, 19.12 2.3 C20.2 1.54, 21.32 0.96, 22.43 0.58 C23.54 0.19, 24.67 0, 25.8 0 C26.92 0, 28.05 0.19, 29.16 0.58 C30.28 0.96, 31.39 1.54, 32.47 2.3 C33.56 3.07, 34.63 4.02, 35.67 5.15 C36.71 6.27, 37.72 7.59, 38.7 9.06 C39.67 10.53, 40.61 12.18, 41.5 13.97 C42.39 15.76, 43.25 17.72, 44.04 19.8 C44.83 21.88, 45.58 24.12, 46.26 26.45 C46.95 28.79, 47.58 31.26, 48.14 33.81 C48.7 36.35, 49.2 39.02, 49.63 41.74 C50.06 44.46, 50.43 47.27, 50.72 50.11 C51.01 52.95, 51.23 55.87, 51.37 58.79 C51.52 61.7, 51.56 66.14, 51.59 67.61 C51.63 69.08, 51.63 66.14, 51.59 67.61" stroke="none" stroke-width="0" fill="#868e96"></path><path d="M51.59 67.61 C51.59 70.55, 51.52 73.52, 51.37 76.44 C51.23 79.35, 51.01 82.27, 50.72 85.11 C50.43 87.95, 50.06 90.77, 49.63 93.49 C49.2 96.2, 48.7 98.87, 48.14 101.42 C47.58 103.96, 46.95 106.44, 46.26 108.77 C45.58 111.1, 44.83 113.34, 44.04 115.42 C43.25 117.5, 42.39 119.46, 41.5 121.25 C40.61 123.04, 39.67 124.69, 38.7 126.16 C37.72 127.64, 36.71 128.95, 35.67 130.08 C34.63 131.2, 33.56 132.16, 32.47 132.92 C31.39 133.68, 30.28 134.26, 29.16 134.64 C28.05 135.03, 26.92 135.22, 25.8 135.22 C24.67 135.22, 23.54 135.03, 22.43 134.64 C21.32 134.26, 20.2 133.68, 19.12 132.92 C18.04 132.16, 16.96 131.2, 15.93 130.08 C14.89 128.95, 13.87 127.64, 12.9 126.16 C11.93 124.69, 10.98 123.04, 10.09 121.25 C9.2 119.46, 8.35 117.5, 7.56 115.42 C6.76 113.34, 6.01 111.1, 5.33 108.77 C4.65 106.44, 4.02 103.96, 3.46 101.42 C2.89 98.87, 2.39 96.2, 1.96 93.49 C1.53 90.77, 1.17 87.95, 0.88 85.11 C0.59 82.27, 0.37 79.35, 0.22 76.44 C0.07 73.52, 0 70.55, 0 67.61 C0 64.67, 0.07 61.7, 0.22 58.79 C0.37 55.87, 0.59 52.95, 0.88 50.11 C1.17 47.27, 1.53 44.46, 1.96 41.74 C2.39 39.02, 2.89 36.35, 3.46 33.81 C4.02 31.26, 4.65 28.79, 5.33 26.45 C6.01 24.12, 6.76 21.88, 7.56 19.8 C8.35 17.72, 9.2 15.76, 10.09 13.97 C10.98 12.18, 11.93 10.53, 12.9 9.06 C13.87 7.59, 14.89 6.27, 15.93 5.15 C16.96 4.02, 18.04 3.07, 19.12 2.3 C20.2 1.54, 21.32 0.96, 22.43 0.58 C23.54 0.19, 24.67 0, 25.8 0 C26.92 0, 28.05 0.19, 29.16 0.58 C30.28 0.96, 31.39 1.54, 32.47 2.3 C33.56 3.07, 34.63 4.02, 35.67 5.15 C36.71 6.27, 37.72 7.59, 38.7 9.06 C39.67 10.53, 40.61 12.18, 41.5 13.97 C42.39 15.76, 43.25 17.72, 44.04 19.8 C44.83 21.88, 45.58 24.12, 46.26 26.45 C46.95 28.79, 47.58 31.26, 48.14 33.81 C48.7 36.35, 49.2 39.02, 49.63 41.74 C50.06 44.46, 50.43 47.27, 50.72 50.11 C51.01 52.95, 51.23 55.87, 51.37 58.79 C51.52 61.7, 51.56 66.14, 51.59 67.61 C51.63 69.08, 51.63 66.14, 51.59 67.61" stroke="#343a40" stroke-width="1" fill="none"></path></g><g transform="translate(668.5377677972228 282.7450337557166) rotate(0 47.53571319580078 31.226053965022402)"><text x="47.53571319580078" y="0" font-family="Virgil, Segoe UI Emoji" font-size="16.653895448011987px" fill="#343a40" text-anchor="middle" style="white-space: pre;" direction="ltr" dominant-baseline="text-before-edge">Declarative</text><text x="47.53571319580078" y="20.817369310014982" font-family="Virgil, Segoe UI Emoji" font-size="16.653895448011987px" fill="#343a40" text-anchor="middle" style="white-space: pre;" direction="ltr" dominant-baseline="text-before-edge">State</text><text x="47.53571319580078" y="41.634738620029964" font-family="Virgil, Segoe UI Emoji" font-size="16.653895448011987px" fill="#343a40" text-anchor="middle" style="white-space: pre;" direction="ltr" dominant-baseline="text-before-edge">Store</text></g><g stroke-linecap="round"><g transform="translate(851.9248015304292 102.14814938524069) rotate(181.0889909393324 -60.35803887004499 39.497038812635765)"><path d="M0 0 C-8 10.84, -27.87 51.88, -47.99 65.05 C-68.11 78.21, -108.6 76.67, -120.72 78.99 M0 0 C-8 10.84, -27.87 51.88, -47.99 65.05 C-68.11 78.21, -108.6 76.67, -120.72 78.99" stroke="#2b8a3e" stroke-width="4" fill="none"></path></g><g transform="translate(851.9248015304292 102.14814938524069) rotate(181.0889909393324 -60.35803887004499 39.497038812635765)"><path d="M-120.72 78.99 L-107.74 71.46 L-106.61 84.09 L-120.72 78.99" stroke="none" stroke-width="0" fill="#2b8a3e" fill-rule="evenodd"></path><path d="M-120.72 78.99 C-116.51 76.55, -112.3 74.11, -107.74 71.46 M-120.72 78.99 C-115.85 76.17, -110.99 73.35, -107.74 71.46 M-107.74 71.46 C-107.46 74.67, -107.17 77.87, -106.61 84.09 M-107.74 71.46 C-107.36 75.76, -106.97 80.06, -106.61 84.09 M-106.61 84.09 C-109.8 82.94, -112.99 81.79, -120.72 78.99 M-106.61 84.09 C-109.51 83.04, -112.41 82, -120.72 78.99 M-120.72 78.99 C-120.72 78.99, -120.72 78.99, -120.72 78.99 M-120.72 78.99 C-120.72 78.99, -120.72 78.99, -120.72 78.99" stroke="#2b8a3e" stroke-width="4" fill="none"></path></g></g><mask></mask><g stroke-linecap="round" transform="translate(38.02859846383217 65.19626498420257) rotate(0 19.42808070684282 19.3366593329265)"><path d="M4.7 6.73 C4.7 6.73, 4.7 6.73, 4.7 6.73 M4.7 6.73 C4.7 6.73, 4.7 6.73, 4.7 6.73 M1.16 16.9 C5.23 12.22, 9.3 7.53, 14.28 1.81 M1.16 16.9 C5.58 11.81, 10.01 6.72, 14.28 1.81 M0.89 23.3 C8.45 14.61, 16.01 5.91, 20.58 0.66 M0.89 23.3 C6.51 16.84, 12.13 10.37, 20.58 0.66 M2.6 27.44 C9.13 19.92, 15.67 12.41, 24.91 1.78 M2.6 27.44 C7.56 21.74, 12.51 16.04, 24.91 1.78 M4.96 30.81 C13.12 21.43, 21.28 12.05, 29.24 2.89 M4.96 30.81 C10.49 24.45, 16.02 18.09, 29.24 2.89 M7.33 34.19 C14.42 26.04, 21.51 17.88, 32.91 4.76 M7.33 34.19 C13.28 27.34, 19.24 20.49, 32.91 4.76 M10.34 36.82 C20.09 25.6, 29.84 14.39, 35.28 8.14 M10.34 36.82 C15.84 30.49, 21.34 24.17, 35.28 8.14 M14.02 38.69 C19 32.96, 23.97 27.24, 37.64 11.52 M14.02 38.69 C21.82 29.72, 29.61 20.75, 37.64 11.52 M18.35 39.8 C25.96 31.05, 33.56 22.3, 38.69 16.41 M18.35 39.8 C23.63 33.72, 28.92 27.64, 38.69 16.41 M23.99 39.41 C30.07 32.41, 36.15 25.42, 40.4 20.54 M23.99 39.41 C30.06 32.42, 36.13 25.44, 40.4 20.54" stroke="#12b886" stroke-width="0.5" fill="none"></path><path d="M38.86 19.34 C38.86 20.46, 38.76 21.59, 38.56 22.69 C38.37 23.8, 38.07 24.9, 37.68 25.95 C37.3 27, 36.82 28.04, 36.25 29 C35.69 29.97, 35.03 30.91, 34.31 31.77 C33.59 32.62, 32.78 33.43, 31.92 34.15 C31.05 34.87, 30.12 35.52, 29.14 36.08 C28.17 36.64, 27.13 37.12, 26.07 37.51 C25.02 37.89, 23.91 38.19, 22.8 38.38 C21.69 38.57, 20.55 38.67, 19.43 38.67 C18.3 38.67, 17.16 38.57, 16.05 38.38 C14.95 38.19, 13.84 37.89, 12.78 37.51 C11.73 37.12, 10.69 36.64, 9.71 36.08 C8.74 35.52, 7.8 34.87, 6.94 34.15 C6.08 33.43, 5.27 32.62, 4.55 31.77 C3.82 30.91, 3.17 29.97, 2.6 29 C2.04 28.04, 1.56 27, 1.17 25.95 C0.79 24.9, 0.49 23.8, 0.3 22.69 C0.1 21.59, 0 20.46, 0 19.34 C0 18.22, 0.1 17.08, 0.3 15.98 C0.49 14.88, 0.79 13.77, 1.17 12.72 C1.56 11.67, 2.04 10.64, 2.6 9.67 C3.17 8.7, 3.82 7.76, 4.55 6.91 C5.27 6.05, 6.08 5.24, 6.94 4.52 C7.8 3.8, 8.74 3.15, 9.71 2.59 C10.69 2.03, 11.73 1.55, 12.78 1.17 C13.84 0.78, 14.95 0.49, 16.05 0.29 C17.16 0.1, 18.3 0, 19.43 0 C20.55 0, 21.69 0.1, 22.8 0.29 C23.91 0.49, 25.02 0.78, 26.07 1.17 C27.13 1.55, 28.17 2.03, 29.14 2.59 C30.12 3.15, 31.05 3.8, 31.92 4.52 C32.78 5.24, 33.59 6.05, 34.31 6.91 C35.03 7.76, 35.69 8.7, 36.25 9.67 C36.82 10.64, 37.3 11.67, 37.68 12.72 C38.07 13.77, 38.37 14.88, 38.56 15.98 C38.76 17.08, 38.81 18.78, 38.86 19.34 C38.91 19.9, 38.91 18.78, 38.86 19.34" stroke="#495057" stroke-width="1" fill="none"></path></g><g stroke-linecap="round"><g transform="translate(57.36525779675867 103.86958365005557) rotate(0 0 27.095195485027944)" fill-rule="evenodd"><path d="M-12.59 -0.35 C-12.59 -0.35, -12.59 -0.35, -12.59 -0.35 M-12.59 -0.35 C-12.59 -0.35, -12.59 -0.35, -12.59 -0.35 M-17.44 11.34 C-14.34 7.76, -11.23 4.18, -4.98 -3 M-17.44 11.34 C-13.91 7.26, -10.37 3.19, -4.98 -3 M-22.3 23.02 C-17.4 17.39, -12.51 11.76, -1.3 -1.13 M-22.3 23.02 C-16.4 16.24, -10.51 9.45, -1.3 -1.13 M-21.25 27.9 C-11.74 16.97, -2.23 6.03, 5.65 -3.04 M-21.25 27.9 C-15.68 21.5, -10.11 15.09, 5.65 -3.04 M-23.48 36.57 C-16.38 28.4, -9.29 20.24, 10.64 -2.68 M-23.48 36.57 C-13.57 25.16, -3.65 13.76, 10.64 -2.68 M-24.4 43.72 C-11.57 28.96, 1.26 14.2, 13 0.7 M-24.4 43.72 C-10.41 27.63, 3.58 11.53, 13 0.7 M-24.66 50.12 C-16.63 40.88, -8.6 31.65, 15.36 4.08 M-24.66 50.12 C-15.89 40.03, -7.11 29.94, 15.36 4.08 M-22.95 54.25 C-8.34 37.45, 6.26 20.65, 17.07 8.21 M-22.95 54.25 C-10.59 40.03, 1.77 25.81, 17.07 8.21 M-19.28 56.12 C-7.28 42.32, 4.72 28.52, 19.43 11.59 M-19.28 56.12 C-5.69 40.5, 7.89 24.87, 19.43 11.59 M-14.94 57.23 C-6.25 47.23, 2.45 37.23, 20.48 16.48 M-14.94 57.23 C-4.99 45.79, 4.95 34.34, 20.48 16.48 M-9.96 57.6 C-1.45 47.81, 7.06 38.02, 22.19 20.61 M-9.96 57.6 C1.78 44.09, 13.52 30.58, 22.19 20.61 M-4.97 57.96 C6.31 44.98, 17.59 32.01, 23.9 24.75 M-4.97 57.96 C0.94 51.16, 6.84 44.36, 23.9 24.75 M0.02 58.32 C8.5 48.55, 16.99 38.79, 26.26 28.13 M0.02 58.32 C6.23 51.16, 12.45 44.01, 26.26 28.13 M5.66 57.92 C11.86 50.79, 18.06 43.66, 27.31 33.02 M5.66 57.92 C13.03 49.45, 20.39 40.97, 27.31 33.02 M11.96 56.77 C18.09 49.72, 24.22 42.67, 28.36 37.9 M11.96 56.77 C17.47 50.43, 22.99 44.08, 28.36 37.9 M16.95 57.13 C21.9 51.43, 26.86 45.73, 29.41 42.79 M16.95 57.13 C21.85 51.5, 26.74 45.86, 29.41 42.79" stroke="#12b886" stroke-width="0.5" fill="none"></path><path d="M0 0 C2.15 0, 8.59 -8.59, 12.89 0 C17.19 8.59, 32.23 42.97, 25.78 51.56 C19.34 60.16, -19.34 60.16, -25.78 51.56 C-32.23 42.97, -17.19 8.59, -12.89 0 C-8.59 -8.59, -2.15 0, 0 0 M0 0 C2.15 0, 8.59 -8.59, 12.89 0 C17.19 8.59, 32.23 42.97, 25.78 51.56 C19.34 60.16, -19.34 60.16, -25.78 51.56 C-32.23 42.97, -17.19 8.59, -12.89 0 C-8.59 -8.59, -2.15 0, 0 0" stroke="#495057" stroke-width="1" fill="none"></path></g></g><mask></mask><g stroke-linecap="round" transform="translate(296.59430371597864 16.913584593141422) rotate(358.92972393214535 3.7680364110324263 19.55595047308725)"><path d="M1.88 0 L5.65 0 L7.07 0.47 L7.54 1.88 L7.54 37.23 L7.07 38.64 L5.65 39.11 L0.47 38.64 L0 37.23 L0 1.88 L0.47 0.47 L1.88 0" stroke="none" stroke-width="0" fill="#7950f2"></path><path d="M1.88 0 M1.88 0 C3 0, 4.12 0, 5.65 0 M1.88 0 C3.34 0, 4.8 0, 5.65 0 M5.65 0 C6.91 0, 7.54 0.63, 7.54 1.88 M5.65 0 C6.91 0, 7.54 0.63, 7.54 1.88 M7.54 1.88 C7.54 10.93, 7.54 19.97, 7.54 37.23 M7.54 1.88 C7.54 14.83, 7.54 27.77, 7.54 37.23 M7.54 37.23 C7.54 38.48, 6.91 39.11, 5.65 39.11 M7.54 37.23 C7.54 38.48, 6.91 39.11, 5.65 39.11 M5.65 39.11 C4.4 39.11, 3.15 39.11, 1.88 39.11 M5.65 39.11 C4.26 39.11, 2.87 39.11, 1.88 39.11 M1.88 39.11 C0.63 39.11, 0 38.48, 0 37.23 M1.88 39.11 C0.63 39.11, 0 38.48, 0 37.23 M0 37.23 C0 25.64, 0 14.05, 0 1.88 M0 37.23 C0 24.22, 0 11.21, 0 1.88 M0 1.88 C0 0.63, 0.63 0, 1.88 0 M0 1.88 C0 0.63, 0.63 0, 1.88 0" stroke="transparent" stroke-width="1" fill="none"></path></g><g stroke-linecap="round" transform="translate(310.63094314926366 11.918571669753874) rotate(40.41727686562419 3.7680364110324263 24.785791502693428)"><path d="M1.88 0 L5.65 0 L7.07 0.47 L7.54 1.88 L7.54 47.69 L7.07 49.1 L5.65 49.57 L0.47 49.1 L0 47.69 L0 1.88 L0.47 0.47 L1.88 0" stroke="none" stroke-width="0" fill="#7950f2"></path><path d="M1.88 0 M1.88 0 C2.96 0, 4.04 0, 5.65 0 M1.88 0 C3.15 0, 4.43 0, 5.65 0 M5.65 0 C6.91 0, 7.54 0.63, 7.54 1.88 M5.65 0 C6.91 0, 7.54 0.63, 7.54 1.88 M7.54 1.88 C7.54 14.43, 7.54 26.97, 7.54 47.69 M7.54 1.88 C7.54 14.96, 7.54 28.04, 7.54 47.69 M7.54 47.69 C7.54 48.94, 6.91 49.57, 5.65 49.57 M7.54 47.69 C7.54 48.94, 6.91 49.57, 5.65 49.57 M5.65 49.57 C4.47 49.57, 3.3 49.57, 1.88 49.57 M5.65 49.57 C4.82 49.57, 3.98 49.57, 1.88 49.57 M1.88 49.57 C0.63 49.57, 0 48.94, 0 47.69 M1.88 49.57 C0.63 49.57, 0 48.94, 0 47.69 M0 47.69 C0 32.34, 0 16.99, 0 1.88 M0 47.69 C0 37.26, 0 26.82, 0 1.88 M0 1.88 C0 0.63, 0.63 0, 1.88 0 M0 1.88 C0 0.63, 0.63 0, 1.88 0" stroke="transparent" stroke-width="1" fill="none"></path></g><g stroke-linecap="round" transform="translate(319.2734674141184 30.47358767775586) rotate(139.22073182693399 3.7680364110324263 14.147647249566944)"><path d="M1.88 0 L5.65 0 L7.07 0.47 L7.54 1.88 L7.54 26.41 L7.07 27.82 L5.65 28.3 L0.47 27.82 L0 26.41 L0 1.88 L0.47 0.47 L1.88 0" stroke="none" stroke-width="0" fill="#7950f2"></path><path d="M1.88 0 M1.88 0 C2.85 0, 3.81 0, 5.65 0 M1.88 0 C3.23 0, 4.58 0, 5.65 0 M5.65 0 C6.91 0, 7.54 0.63, 7.54 1.88 M5.65 0 C6.91 0, 7.54 0.63, 7.54 1.88 M7.54 1.88 C7.54 11.42, 7.54 20.96, 7.54 26.41 M7.54 1.88 C7.54 10.8, 7.54 19.72, 7.54 26.41 M7.54 26.41 C7.54 27.67, 6.91 28.3, 5.65 28.3 M7.54 26.41 C7.54 27.67, 6.91 28.3, 5.65 28.3 M5.65 28.3 C4.79 28.3, 3.93 28.3, 1.88 28.3 M5.65 28.3 C4.48 28.3, 3.32 28.3, 1.88 28.3 M1.88 28.3 C0.63 28.3, 0 27.67, 0 26.41 M1.88 28.3 C0.63 28.3, 0 27.67, 0 26.41 M0 26.41 C0 17.69, 0 8.96, 0 1.88 M0 26.41 C0 18.7, 0 10.99, 0 1.88 M0 1.88 C0 0.63, 0.63 0, 1.88 0 M0 1.88 C0 0.63, 0.63 0, 1.88 0" stroke="transparent" stroke-width="1" fill="none"></path></g><g stroke-linecap="round" transform="translate(295.7269588629042 14.959063689810137) rotate(358.1310915065084 4.207022158495647 4.569555668486828)"><path d="M8.41 4.57 C8.41 4.83, 8.39 5.1, 8.35 5.36 C8.31 5.62, 8.24 5.88, 8.16 6.13 C8.08 6.38, 7.97 6.63, 7.85 6.85 C7.73 7.08, 7.59 7.3, 7.43 7.51 C7.27 7.71, 7.1 7.9, 6.91 8.07 C6.72 8.24, 6.52 8.39, 6.31 8.53 C6.1 8.66, 5.87 8.77, 5.65 8.86 C5.42 8.95, 5.18 9.02, 4.94 9.07 C4.7 9.12, 4.45 9.14, 4.21 9.14 C3.96 9.14, 3.72 9.12, 3.48 9.07 C3.24 9.02, 3 8.95, 2.77 8.86 C2.54 8.77, 2.31 8.66, 2.1 8.53 C1.89 8.39, 1.69 8.24, 1.5 8.07 C1.32 7.9, 1.14 7.71, 0.98 7.51 C0.83 7.3, 0.69 7.08, 0.56 6.85 C0.44 6.63, 0.34 6.38, 0.25 6.13 C0.17 5.88, 0.11 5.62, 0.06 5.36 C0.02 5.1, 0 4.83, 0 4.57 C0 4.31, 0.02 4.04, 0.06 3.78 C0.11 3.52, 0.17 3.26, 0.25 3.01 C0.34 2.76, 0.44 2.51, 0.56 2.28 C0.69 2.06, 0.83 1.83, 0.98 1.63 C1.14 1.43, 1.32 1.24, 1.5 1.07 C1.69 0.9, 1.89 0.74, 2.1 0.61 C2.31 0.48, 2.54 0.37, 2.77 0.28 C3 0.19, 3.24 0.12, 3.48 0.07 C3.72 0.02, 3.96 0, 4.21 0 C4.45 0, 4.7 0.02, 4.94 0.07 C5.18 0.12, 5.42 0.19, 5.65 0.28 C5.87 0.37, 6.1 0.48, 6.31 0.61 C6.52 0.74, 6.72 0.9, 6.91 1.07 C7.1 1.24, 7.27 1.43, 7.43 1.63 C7.59 1.83, 7.73 2.06, 7.85 2.28 C7.97 2.51, 8.08 2.76, 8.16 3.01 C8.24 3.26, 8.31 3.52, 8.35 3.78 C8.39 4.04, 8.4 4.44, 8.41 4.57 C8.42 4.7, 8.42 4.44, 8.41 4.57" stroke="none" stroke-width="0" fill="#7950f2"></path><path d="M8.41 4.57 C8.41 4.83, 8.39 5.1, 8.35 5.36 C8.31 5.62, 8.24 5.88, 8.16 6.13 C8.08 6.38, 7.97 6.63, 7.85 6.85 C7.73 7.08, 7.59 7.3, 7.43 7.51 C7.27 7.71, 7.1 7.9, 6.91 8.07 C6.72 8.24, 6.52 8.39, 6.31 8.53 C6.1 8.66, 5.87 8.77, 5.65 8.86 C5.42 8.95, 5.18 9.02, 4.94 9.07 C4.7 9.12, 4.45 9.14, 4.21 9.14 C3.96 9.14, 3.72 9.12, 3.48 9.07 C3.24 9.02, 3 8.95, 2.77 8.86 C2.54 8.77, 2.31 8.66, 2.1 8.53 C1.89 8.39, 1.69 8.24, 1.5 8.07 C1.32 7.9, 1.14 7.71, 0.98 7.51 C0.83 7.3, 0.69 7.08, 0.56 6.85 C0.44 6.63, 0.34 6.38, 0.25 6.13 C0.17 5.88, 0.11 5.62, 0.06 5.36 C0.02 5.1, 0 4.83, 0 4.57 C0 4.31, 0.02 4.04, 0.06 3.78 C0.11 3.52, 0.17 3.26, 0.25 3.01 C0.34 2.76, 0.44 2.51, 0.56 2.28 C0.69 2.06, 0.83 1.83, 0.98 1.63 C1.14 1.43, 1.32 1.24, 1.5 1.07 C1.69 0.9, 1.89 0.74, 2.1 0.61 C2.31 0.48, 2.54 0.37, 2.77 0.28 C3 0.19, 3.24 0.12, 3.48 0.07 C3.72 0.02, 3.96 0, 4.21 0 C4.45 0, 4.7 0.02, 4.94 0.07 C5.18 0.12, 5.42 0.19, 5.65 0.28 C5.87 0.37, 6.1 0.48, 6.31 0.61 C6.52 0.74, 6.72 0.9, 6.91 1.07 C7.1 1.24, 7.27 1.43, 7.43 1.63 C7.59 1.83, 7.73 2.06, 7.85 2.28 C7.97 2.51, 8.08 2.76, 8.16 3.01 C8.24 3.26, 8.31 3.52, 8.35 3.78 C8.39 4.04, 8.4 4.44, 8.41 4.57 C8.42 4.7, 8.42 4.44, 8.41 4.57" stroke="#5f3dc4" stroke-width="1" fill="none"></path></g><g stroke-linecap="round" transform="translate(296.68759488992237 47.20710032543502) rotate(358.1310915065084 4.207022158495647 4.569555668486828)"><path d="M8.41 4.57 C8.41 4.83, 8.39 5.1, 8.35 5.36 C8.31 5.62, 8.24 5.88, 8.16 6.13 C8.08 6.38, 7.97 6.63, 7.85 6.85 C7.73 7.08, 7.59 7.3, 7.43 7.51 C7.27 7.71, 7.1 7.9, 6.91 8.07 C6.72 8.24, 6.52 8.39, 6.31 8.53 C6.1 8.66, 5.87 8.77, 5.65 8.86 C5.42 8.95, 5.18 9.02, 4.94 9.07 C4.7 9.12, 4.45 9.14, 4.21 9.14 C3.96 9.14, 3.72 9.12, 3.48 9.07 C3.24 9.02, 3 8.95, 2.77 8.86 C2.54 8.77, 2.31 8.66, 2.1 8.53 C1.89 8.39, 1.69 8.24, 1.5 8.07 C1.32 7.9, 1.14 7.71, 0.98 7.51 C0.83 7.3, 0.69 7.08, 0.56 6.85 C0.44 6.63, 0.34 6.38, 0.25 6.13 C0.17 5.88, 0.11 5.62, 0.06 5.36 C0.02 5.1, 0 4.83, 0 4.57 C0 4.31, 0.02 4.04, 0.06 3.78 C0.11 3.52, 0.17 3.26, 0.25 3.01 C0.34 2.76, 0.44 2.51, 0.56 2.28 C0.69 2.06, 0.83 1.83, 0.98 1.63 C1.14 1.43, 1.32 1.24, 1.5 1.07 C1.69 0.9, 1.89 0.74, 2.1 0.61 C2.31 0.48, 2.54 0.37, 2.77 0.28 C3 0.19, 3.24 0.12, 3.48 0.07 C3.72 0.02, 3.96 0, 4.21 0 C4.45 0, 4.7 0.02, 4.94 0.07 C5.18 0.12, 5.42 0.19, 5.65 0.28 C5.87 0.37, 6.1 0.48, 6.31 0.61 C6.52 0.74, 6.72 0.9, 6.91 1.07 C7.1 1.24, 7.27 1.43, 7.43 1.63 C7.59 1.83, 7.73 2.06, 7.85 2.28 C7.97 2.51, 8.08 2.76, 8.16 3.01 C8.24 3.26, 8.31 3.52, 8.35 3.78 C8.39 4.04, 8.4 4.44, 8.41 4.57 C8.42 4.7, 8.42 4.44, 8.41 4.57" stroke="none" stroke-width="0" fill="#7950f2"></path><path d="M8.41 4.57 C8.41 4.83, 8.39 5.1, 8.35 5.36 C8.31 5.62, 8.24 5.88, 8.16 6.13 C8.08 6.38, 7.97 6.63, 7.85 6.85 C7.73 7.08, 7.59 7.3, 7.43 7.51 C7.27 7.71, 7.1 7.9, 6.91 8.07 C6.72 8.24, 6.52 8.39, 6.31 8.53 C6.1 8.66, 5.87 8.77, 5.65 8.86 C5.42 8.95, 5.18 9.02, 4.94 9.07 C4.7 9.12, 4.45 9.14, 4.21 9.14 C3.96 9.14, 3.72 9.12, 3.48 9.07 C3.24 9.02, 3 8.95, 2.77 8.86 C2.54 8.77, 2.31 8.66, 2.1 8.53 C1.89 8.39, 1.69 8.24, 1.5 8.07 C1.32 7.9, 1.14 7.71, 0.98 7.51 C0.83 7.3, 0.69 7.08, 0.56 6.85 C0.44 6.63, 0.34 6.38, 0.25 6.13 C0.17 5.88, 0.11 5.62, 0.06 5.36 C0.02 5.1, 0 4.83, 0 4.57 C0 4.31, 0.02 4.04, 0.06 3.78 C0.11 3.52, 0.17 3.26, 0.25 3.01 C0.34 2.76, 0.44 2.51, 0.56 2.28 C0.69 2.06, 0.83 1.83, 0.98 1.63 C1.14 1.43, 1.32 1.24, 1.5 1.07 C1.69 0.9, 1.89 0.74, 2.1 0.61 C2.31 0.48, 2.54 0.37, 2.77 0.28 C3 0.19, 3.24 0.12, 3.48 0.07 C3.72 0.02, 3.96 0, 4.21 0 C4.45 0, 4.7 0.02, 4.94 0.07 C5.18 0.12, 5.42 0.19, 5.65 0.28 C5.87 0.37, 6.1 0.48, 6.31 0.61 C6.52 0.74, 6.72 0.9, 6.91 1.07 C7.1 1.24, 7.27 1.43, 7.43 1.63 C7.59 1.83, 7.73 2.06, 7.85 2.28 C7.97 2.51, 8.08 2.76, 8.16 3.01 C8.24 3.26, 8.31 3.52, 8.35 3.78 C8.39 4.04, 8.4 4.44, 8.41 4.57 C8.42 4.7, 8.42 4.44, 8.41 4.57" stroke="#5f3dc4" stroke-width="1" fill="none"></path></g><g stroke-linecap="round" transform="translate(311.22498926506796 33.109211419712665) rotate(358.1310915065084 4.171683969157584 4.569555668486828)"><path d="M8.34 4.57 C8.34 4.83, 8.32 5.1, 8.28 5.36 C8.24 5.62, 8.17 5.88, 8.09 6.13 C8.01 6.38, 7.91 6.63, 7.78 6.85 C7.66 7.08, 7.52 7.3, 7.37 7.51 C7.21 7.71, 7.04 7.9, 6.85 8.07 C6.67 8.24, 6.47 8.39, 6.26 8.53 C6.05 8.66, 5.83 8.77, 5.6 8.86 C5.37 8.95, 5.13 9.02, 4.9 9.07 C4.66 9.12, 4.41 9.14, 4.17 9.14 C3.93 9.14, 3.69 9.12, 3.45 9.07 C3.21 9.02, 2.97 8.95, 2.74 8.86 C2.52 8.77, 2.29 8.66, 2.09 8.53 C1.88 8.39, 1.68 8.24, 1.49 8.07 C1.31 7.9, 1.13 7.71, 0.98 7.51 C0.82 7.3, 0.68 7.08, 0.56 6.85 C0.44 6.63, 0.33 6.38, 0.25 6.13 C0.17 5.88, 0.11 5.62, 0.06 5.36 C0.02 5.1, 0 4.83, 0 4.57 C0 4.31, 0.02 4.04, 0.06 3.78 C0.11 3.52, 0.17 3.26, 0.25 3.01 C0.33 2.76, 0.44 2.51, 0.56 2.28 C0.68 2.06, 0.82 1.83, 0.98 1.63 C1.13 1.43, 1.31 1.24, 1.49 1.07 C1.68 0.9, 1.88 0.74, 2.09 0.61 C2.29 0.48, 2.52 0.37, 2.74 0.28 C2.97 0.19, 3.21 0.12, 3.45 0.07 C3.69 0.02, 3.93 0, 4.17 0 C4.41 0, 4.66 0.02, 4.9 0.07 C5.13 0.12, 5.37 0.19, 5.6 0.28 C5.83 0.37, 6.05 0.48, 6.26 0.61 C6.47 0.74, 6.67 0.9, 6.85 1.07 C7.04 1.24, 7.21 1.43, 7.37 1.63 C7.52 1.83, 7.66 2.06, 7.78 2.28 C7.91 2.51, 8.01 2.76, 8.09 3.01 C8.17 3.26, 8.24 3.52, 8.28 3.78 C8.32 4.04, 8.33 4.44, 8.34 4.57 C8.35 4.7, 8.35 4.44, 8.34 4.57" stroke="none" stroke-width="0" fill="#7950f2"></path><path d="M8.34 4.57 C8.34 4.83, 8.32 5.1, 8.28 5.36 C8.24 5.62, 8.17 5.88, 8.09 6.13 C8.01 6.38, 7.91 6.63, 7.78 6.85 C7.66 7.08, 7.52 7.3, 7.37 7.51 C7.21 7.71, 7.04 7.9, 6.85 8.07 C6.67 8.24, 6.47 8.39, 6.26 8.53 C6.05 8.66, 5.83 8.77, 5.6 8.86 C5.37 8.95, 5.13 9.02, 4.9 9.07 C4.66 9.12, 4.41 9.14, 4.17 9.14 C3.93 9.14, 3.69 9.12, 3.45 9.07 C3.21 9.02, 2.97 8.95, 2.74 8.86 C2.52 8.77, 2.29 8.66, 2.09 8.53 C1.88 8.39, 1.68 8.24, 1.49 8.07 C1.31 7.9, 1.13 7.71, 0.98 7.51 C0.82 7.3, 0.68 7.08, 0.56 6.85 C0.44 6.63, 0.33 6.38, 0.25 6.13 C0.17 5.88, 0.11 5.62, 0.06 5.36 C0.02 5.1, 0 4.83, 0 4.57 C0 4.31, 0.02 4.04, 0.06 3.78 C0.11 3.52, 0.17 3.26, 0.25 3.01 C0.33 2.76, 0.44 2.51, 0.56 2.28 C0.68 2.06, 0.82 1.83, 0.98 1.63 C1.13 1.43, 1.31 1.24, 1.49 1.07 C1.68 0.9, 1.88 0.74, 2.09 0.61 C2.29 0.48, 2.52 0.37, 2.74 0.28 C2.97 0.19, 3.21 0.12, 3.45 0.07 C3.69 0.02, 3.93 0, 4.17 0 C4.41 0, 4.66 0.02, 4.9 0.07 C5.13 0.12, 5.37 0.19, 5.6 0.28 C5.83 0.37, 6.05 0.48, 6.26 0.61 C6.47 0.74, 6.67 0.9, 6.85 1.07 C7.04 1.24, 7.21 1.43, 7.37 1.63 C7.52 1.83, 7.66 2.06, 7.78 2.28 C7.91 2.51, 8.01 2.76, 8.09 3.01 C8.17 3.26, 8.24 3.52, 8.28 3.78 C8.32 4.04, 8.33 4.44, 8.34 4.57 C8.35 4.7, 8.35 4.44, 8.34 4.57" stroke="#5f3dc4" stroke-width="1" fill="none"></path></g><g stroke-linecap="round" transform="translate(324.370893932587 15.76031478731602) rotate(358.1310915065084 4.207022158495647 4.569555668486828)"><path d="M8.41 4.57 C8.41 4.83, 8.39 5.1, 8.35 5.36 C8.31 5.62, 8.24 5.88, 8.16 6.13 C8.08 6.38, 7.97 6.63, 7.85 6.85 C7.73 7.08, 7.59 7.3, 7.43 7.51 C7.27 7.71, 7.1 7.9, 6.91 8.07 C6.72 8.24, 6.52 8.39, 6.31 8.53 C6.1 8.66, 5.87 8.77, 5.65 8.86 C5.42 8.95, 5.18 9.02, 4.94 9.07 C4.7 9.12, 4.45 9.14, 4.21 9.14 C3.96 9.14, 3.72 9.12, 3.48 9.07 C3.24 9.02, 3 8.95, 2.77 8.86 C2.54 8.77, 2.31 8.66, 2.1 8.53 C1.89 8.39, 1.69 8.24, 1.5 8.07 C1.32 7.9, 1.14 7.71, 0.98 7.51 C0.83 7.3, 0.69 7.08, 0.56 6.85 C0.44 6.63, 0.34 6.38, 0.25 6.13 C0.17 5.88, 0.11 5.62, 0.06 5.36 C0.02 5.1, 0 4.83, 0 4.57 C0 4.31, 0.02 4.04, 0.06 3.78 C0.11 3.52, 0.17 3.26, 0.25 3.01 C0.34 2.76, 0.44 2.51, 0.56 2.28 C0.69 2.06, 0.83 1.83, 0.98 1.63 C1.14 1.43, 1.32 1.24, 1.5 1.07 C1.69 0.9, 1.89 0.74, 2.1 0.61 C2.31 0.48, 2.54 0.37, 2.77 0.28 C3 0.19, 3.24 0.12, 3.48 0.07 C3.72 0.02, 3.96 0, 4.21 0 C4.45 0, 4.7 0.02, 4.94 0.07 C5.18 0.12, 5.42 0.19, 5.65 0.28 C5.87 0.37, 6.1 0.48, 6.31 0.61 C6.52 0.74, 6.72 0.9, 6.91 1.07 C7.1 1.24, 7.27 1.43, 7.43 1.63 C7.59 1.83, 7.73 2.06, 7.85 2.28 C7.97 2.51, 8.08 2.76, 8.16 3.01 C8.24 3.26, 8.31 3.52, 8.35 3.78 C8.39 4.04, 8.4 4.44, 8.41 4.57 C8.42 4.7, 8.42 4.44, 8.41 4.57" stroke="none" stroke-width="0" fill="#7950f2"></path><path d="M8.41 4.57 C8.41 4.83, 8.39 5.1, 8.35 5.36 C8.31 5.62, 8.24 5.88, 8.16 6.13 C8.08 6.38, 7.97 6.63, 7.85 6.85 C7.73 7.08, 7.59 7.3, 7.43 7.51 C7.27 7.71, 7.1 7.9, 6.91 8.07 C6.72 8.24, 6.52 8.39, 6.31 8.53 C6.1 8.66, 5.87 8.77, 5.65 8.86 C5.42 8.95, 5.18 9.02, 4.94 9.07 C4.7 9.12, 4.45 9.14, 4.21 9.14 C3.96 9.14, 3.72 9.12, 3.48 9.07 C3.24 9.02, 3 8.95, 2.77 8.86 C2.54 8.77, 2.31 8.66, 2.1 8.53 C1.89 8.39, 1.69 8.24, 1.5 8.07 C1.32 7.9, 1.14 7.71, 0.98 7.51 C0.83 7.3, 0.69 7.08, 0.56 6.85 C0.44 6.63, 0.34 6.38, 0.25 6.13 C0.17 5.88, 0.11 5.62, 0.06 5.36 C0.02 5.1, 0 4.83, 0 4.57 C0 4.31, 0.02 4.04, 0.06 3.78 C0.11 3.52, 0.17 3.26, 0.25 3.01 C0.34 2.76, 0.44 2.51, 0.56 2.28 C0.69 2.06, 0.83 1.83, 0.98 1.63 C1.14 1.43, 1.32 1.24, 1.5 1.07 C1.69 0.9, 1.89 0.74, 2.1 0.61 C2.31 0.48, 2.54 0.37, 2.77 0.28 C3 0.19, 3.24 0.12, 3.48 0.07 C3.72 0.02, 3.96 0, 4.21 0 C4.45 0, 4.7 0.02, 4.94 0.07 C5.18 0.12, 5.42 0.19, 5.65 0.28 C5.87 0.37, 6.1 0.48, 6.31 0.61 C6.52 0.74, 6.72 0.9, 6.91 1.07 C7.1 1.24, 7.27 1.43, 7.43 1.63 C7.59 1.83, 7.73 2.06, 7.85 2.28 C7.97 2.51, 8.08 2.76, 8.16 3.01 C8.24 3.26, 8.31 3.52, 8.35 3.78 C8.39 4.04, 8.4 4.44, 8.41 4.57 C8.42 4.7, 8.42 4.44, 8.41 4.57" stroke="#5f3dc4" stroke-width="1" fill="none"></path></g><g stroke-linecap="round" transform="translate(326.4219035147553 48.77367981498901) rotate(358.1310915065084 4.207022158495647 4.569555668486828)"><path d="M8.41 4.57 C8.41 4.83, 8.39 5.1, 8.35 5.36 C8.31 5.62, 8.24 5.88, 8.16 6.13 C8.08 6.38, 7.97 6.63, 7.85 6.85 C7.73 7.08, 7.59 7.3, 7.43 7.51 C7.27 7.71, 7.1 7.9, 6.91 8.07 C6.72 8.24, 6.52 8.39, 6.31 8.53 C6.1 8.66, 5.87 8.77, 5.65 8.86 C5.42 8.95, 5.18 9.02, 4.94 9.07 C4.7 9.12, 4.45 9.14, 4.21 9.14 C3.96 9.14, 3.72 9.12, 3.48 9.07 C3.24 9.02, 3 8.95, 2.77 8.86 C2.54 8.77, 2.31 8.66, 2.1 8.53 C1.89 8.39, 1.69 8.24, 1.5 8.07 C1.32 7.9, 1.14 7.71, 0.98 7.51 C0.83 7.3, 0.69 7.08, 0.56 6.85 C0.44 6.63, 0.34 6.38, 0.25 6.13 C0.17 5.88, 0.11 5.62, 0.06 5.36 C0.02 5.1, 0 4.83, 0 4.57 C0 4.31, 0.02 4.04, 0.06 3.78 C0.11 3.52, 0.17 3.26, 0.25 3.01 C0.34 2.76, 0.44 2.51, 0.56 2.28 C0.69 2.06, 0.83 1.83, 0.98 1.63 C1.14 1.43, 1.32 1.24, 1.5 1.07 C1.69 0.9, 1.89 0.74, 2.1 0.61 C2.31 0.48, 2.54 0.37, 2.77 0.28 C3 0.19, 3.24 0.12, 3.48 0.07 C3.72 0.02, 3.96 0, 4.21 0 C4.45 0, 4.7 0.02, 4.94 0.07 C5.18 0.12, 5.42 0.19, 5.65 0.28 C5.87 0.37, 6.1 0.48, 6.31 0.61 C6.52 0.74, 6.72 0.9, 6.91 1.07 C7.1 1.24, 7.27 1.43, 7.43 1.63 C7.59 1.83, 7.73 2.06, 7.85 2.28 C7.97 2.51, 8.08 2.76, 8.16 3.01 C8.24 3.26, 8.31 3.52, 8.35 3.78 C8.39 4.04, 8.4 4.44, 8.41 4.57 C8.42 4.7, 8.42 4.44, 8.41 4.57" stroke="none" stroke-width="0" fill="#7950f2"></path><path d="M8.41 4.57 C8.41 4.83, 8.39 5.1, 8.35 5.36 C8.31 5.62, 8.24 5.88, 8.16 6.13 C8.08 6.38, 7.97 6.63, 7.85 6.85 C7.73 7.08, 7.59 7.3, 7.43 7.51 C7.27 7.71, 7.1 7.9, 6.91 8.07 C6.72 8.24, 6.52 8.39, 6.31 8.53 C6.1 8.66, 5.87 8.77, 5.65 8.86 C5.42 8.95, 5.18 9.02, 4.94 9.07 C4.7 9.12, 4.45 9.14, 4.21 9.14 C3.96 9.14, 3.72 9.12, 3.48 9.07 C3.24 9.02, 3 8.95, 2.77 8.86 C2.54 8.77, 2.31 8.66, 2.1 8.53 C1.89 8.39, 1.69 8.24, 1.5 8.07 C1.32 7.9, 1.14 7.71, 0.98 7.51 C0.83 7.3, 0.69 7.08, 0.56 6.85 C0.44 6.63, 0.34 6.38, 0.25 6.13 C0.17 5.88, 0.11 5.62, 0.06 5.36 C0.02 5.1, 0 4.83, 0 4.57 C0 4.31, 0.02 4.04, 0.06 3.78 C0.11 3.52, 0.17 3.26, 0.25 3.01 C0.34 2.76, 0.44 2.51, 0.56 2.28 C0.69 2.06, 0.83 1.83, 0.98 1.63 C1.14 1.43, 1.32 1.24, 1.5 1.07 C1.69 0.9, 1.89 0.74, 2.1 0.61 C2.31 0.48, 2.54 0.37, 2.77 0.28 C3 0.19, 3.24 0.12, 3.48 0.07 C3.72 0.02, 3.96 0, 4.21 0 C4.45 0, 4.7 0.02, 4.94 0.07 C5.18 0.12, 5.42 0.19, 5.65 0.28 C5.87 0.37, 6.1 0.48, 6.31 0.61 C6.52 0.74, 6.72 0.9, 6.91 1.07 C7.1 1.24, 7.27 1.43, 7.43 1.63 C7.59 1.83, 7.73 2.06, 7.85 2.28 C7.97 2.51, 8.08 2.76, 8.16 3.01 C8.24 3.26, 8.31 3.52, 8.35 3.78 C8.39 4.04, 8.4 4.44, 8.41 4.57 C8.42 4.7, 8.42 4.44, 8.41 4.57" stroke="#5f3dc4" stroke-width="1" fill="none"></path></g><g stroke-linecap="round" transform="translate(296.2899352479999 16.101275808468927) rotate(358.1310915065084 3.7296939325749463 3.867855952339596)"><path d="M7.46 3.87 C7.46 4.09, 7.44 4.32, 7.4 4.54 C7.37 4.76, 7.31 4.98, 7.23 5.19 C7.16 5.4, 7.07 5.61, 6.96 5.8 C6.85 6, 6.73 6.18, 6.59 6.35 C6.45 6.53, 6.29 6.69, 6.13 6.83 C5.96 6.97, 5.78 7.11, 5.59 7.22 C5.41 7.33, 5.21 7.43, 5.01 7.5 C4.8 7.58, 4.59 7.64, 4.38 7.68 C4.16 7.72, 3.95 7.74, 3.73 7.74 C3.51 7.74, 3.29 7.72, 3.08 7.68 C2.87 7.64, 2.66 7.58, 2.45 7.5 C2.25 7.43, 2.05 7.33, 1.86 7.22 C1.68 7.11, 1.5 6.97, 1.33 6.83 C1.17 6.69, 1.01 6.53, 0.87 6.35 C0.73 6.18, 0.61 6, 0.5 5.8 C0.39 5.61, 0.3 5.4, 0.22 5.19 C0.15 4.98, 0.09 4.76, 0.06 4.54 C0.02 4.32, 0 4.09, 0 3.87 C0 3.64, 0.02 3.42, 0.06 3.2 C0.09 2.98, 0.15 2.76, 0.22 2.54 C0.3 2.33, 0.39 2.13, 0.5 1.93 C0.61 1.74, 0.73 1.55, 0.87 1.38 C1.01 1.21, 1.17 1.05, 1.33 0.9 C1.5 0.76, 1.68 0.63, 1.86 0.52 C2.05 0.41, 2.25 0.31, 2.45 0.23 C2.66 0.16, 2.87 0.1, 3.08 0.06 C3.29 0.02, 3.51 0, 3.73 0 C3.95 0, 4.16 0.02, 4.38 0.06 C4.59 0.1, 4.8 0.16, 5.01 0.23 C5.21 0.31, 5.41 0.41, 5.59 0.52 C5.78 0.63, 5.96 0.76, 6.13 0.9 C6.29 1.05, 6.45 1.21, 6.59 1.38 C6.73 1.55, 6.85 1.74, 6.96 1.93 C7.07 2.13, 7.16 2.33, 7.23 2.54 C7.31 2.76, 7.37 2.98, 7.4 3.2 C7.44 3.42, 7.45 3.76, 7.46 3.87 C7.47 3.98, 7.47 3.76, 7.46 3.87" stroke="#fff" stroke-width="1" fill="none"></path></g><g stroke-linecap="round" transform="translate(297.0632852940098 48.31388485721618) rotate(358.1310915065084 3.7296939325749463 3.867855952339596)"><path d="M7.46 3.87 C7.46 4.09, 7.44 4.32, 7.4 4.54 C7.37 4.76, 7.31 4.98, 7.23 5.19 C7.16 5.4, 7.07 5.61, 6.96 5.8 C6.85 6, 6.73 6.18, 6.59 6.35 C6.45 6.53, 6.29 6.69, 6.13 6.83 C5.96 6.97, 5.78 7.11, 5.59 7.22 C5.41 7.33, 5.21 7.43, 5.01 7.5 C4.8 7.58, 4.59 7.64, 4.38 7.68 C4.16 7.72, 3.95 7.74, 3.73 7.74 C3.51 7.74, 3.29 7.72, 3.08 7.68 C2.87 7.64, 2.66 7.58, 2.45 7.5 C2.25 7.43, 2.05 7.33, 1.86 7.22 C1.68 7.11, 1.5 6.97, 1.33 6.83 C1.17 6.69, 1.01 6.53, 0.87 6.35 C0.73 6.18, 0.61 6, 0.5 5.8 C0.39 5.61, 0.3 5.4, 0.22 5.19 C0.15 4.98, 0.09 4.76, 0.06 4.54 C0.02 4.32, 0 4.09, 0 3.87 C0 3.64, 0.02 3.42, 0.06 3.2 C0.09 2.98, 0.15 2.76, 0.22 2.54 C0.3 2.33, 0.39 2.13, 0.5 1.93 C0.61 1.74, 0.73 1.55, 0.87 1.38 C1.01 1.21, 1.17 1.05, 1.33 0.9 C1.5 0.76, 1.68 0.63, 1.86 0.52 C2.05 0.41, 2.25 0.31, 2.45 0.23 C2.66 0.16, 2.87 0.1, 3.08 0.06 C3.29 0.02, 3.51 0, 3.73 0 C3.95 0, 4.16 0.02, 4.38 0.06 C4.59 0.1, 4.8 0.16, 5.01 0.23 C5.21 0.31, 5.41 0.41, 5.59 0.52 C5.78 0.63, 5.96 0.76, 6.13 0.9 C6.29 1.05, 6.45 1.21, 6.59 1.38 C6.73 1.55, 6.85 1.74, 6.96 1.93 C7.07 2.13, 7.16 2.33, 7.23 2.54 C7.31 2.76, 7.37 2.98, 7.4 3.2 C7.44 3.42, 7.45 3.76, 7.46 3.87 C7.47 3.98, 7.47 3.76, 7.46 3.87" stroke="#fff" stroke-width="1" fill="none"></path></g><g stroke-linecap="round" transform="translate(311.6287647040963 33.58116743942446) rotate(358.1310915065084 3.7246862679369315 3.7725718007777687)"><path d="M7.45 3.77 C7.45 3.99, 7.43 4.21, 7.39 4.43 C7.36 4.64, 7.3 4.86, 7.22 5.06 C7.15 5.27, 7.06 5.47, 6.95 5.66 C6.84 5.85, 6.72 6.03, 6.58 6.2 C6.44 6.36, 6.28 6.52, 6.12 6.66 C5.95 6.8, 5.77 6.93, 5.59 7.04 C5.4 7.15, 5.2 7.24, 5 7.32 C4.8 7.39, 4.58 7.45, 4.37 7.49 C4.16 7.53, 3.94 7.55, 3.72 7.55 C3.51 7.55, 3.29 7.53, 3.08 7.49 C2.87 7.45, 2.65 7.39, 2.45 7.32 C2.25 7.24, 2.05 7.15, 1.86 7.04 C1.68 6.93, 1.5 6.8, 1.33 6.66 C1.17 6.52, 1.01 6.36, 0.87 6.2 C0.73 6.03, 0.61 5.85, 0.5 5.66 C0.39 5.47, 0.3 5.27, 0.22 5.06 C0.15 4.86, 0.09 4.64, 0.06 4.43 C0.02 4.21, 0 3.99, 0 3.77 C0 3.55, 0.02 3.33, 0.06 3.12 C0.09 2.9, 0.15 2.69, 0.22 2.48 C0.3 2.28, 0.39 2.08, 0.5 1.89 C0.61 1.7, 0.73 1.51, 0.87 1.35 C1.01 1.18, 1.17 1.02, 1.33 0.88 C1.5 0.74, 1.68 0.61, 1.86 0.51 C2.05 0.4, 2.25 0.3, 2.45 0.23 C2.65 0.15, 2.87 0.1, 3.08 0.06 C3.29 0.02, 3.51 0, 3.72 0 C3.94 0, 4.16 0.02, 4.37 0.06 C4.58 0.1, 4.8 0.15, 5 0.23 C5.2 0.3, 5.4 0.4, 5.59 0.51 C5.77 0.61, 5.95 0.74, 6.12 0.88 C6.28 1.02, 6.44 1.18, 6.58 1.35 C6.72 1.51, 6.84 1.7, 6.95 1.89 C7.06 2.08, 7.15 2.28, 7.22 2.48 C7.3 2.69, 7.36 2.9, 7.39 3.12 C7.43 3.33, 7.44 3.66, 7.45 3.77 C7.46 3.88, 7.46 3.66, 7.45 3.77" stroke="#fff" stroke-width="1" fill="none"></path></g><g stroke-linecap="round" transform="translate(325.18069154257046 16.665387305922195) rotate(358.1310915065084 3.325364728417526 3.7725718007777687)"><path d="M6.65 3.77 C6.65 3.99, 6.63 4.21, 6.6 4.43 C6.57 4.64, 6.52 4.86, 6.45 5.06 C6.38 5.27, 6.3 5.47, 6.21 5.66 C6.11 5.85, 6 6.03, 5.87 6.2 C5.75 6.36, 5.61 6.52, 5.46 6.66 C5.32 6.8, 5.15 6.93, 4.99 7.04 C4.82 7.15, 4.64 7.24, 4.46 7.32 C4.28 7.39, 4.09 7.45, 3.9 7.49 C3.71 7.53, 3.52 7.55, 3.33 7.55 C3.13 7.55, 2.94 7.53, 2.75 7.49 C2.56 7.45, 2.37 7.39, 2.19 7.32 C2.01 7.24, 1.83 7.15, 1.66 7.04 C1.5 6.93, 1.34 6.8, 1.19 6.66 C1.04 6.52, 0.9 6.36, 0.78 6.2 C0.65 6.03, 0.54 5.85, 0.45 5.66 C0.35 5.47, 0.27 5.27, 0.2 5.06 C0.13 4.86, 0.08 4.64, 0.05 4.43 C0.02 4.21, 0 3.99, 0 3.77 C0 3.55, 0.02 3.33, 0.05 3.12 C0.08 2.9, 0.13 2.69, 0.2 2.48 C0.27 2.28, 0.35 2.08, 0.45 1.89 C0.54 1.7, 0.65 1.51, 0.78 1.35 C0.9 1.18, 1.04 1.02, 1.19 0.88 C1.34 0.74, 1.5 0.61, 1.66 0.51 C1.83 0.4, 2.01 0.3, 2.19 0.23 C2.37 0.15, 2.56 0.1, 2.75 0.06 C2.94 0.02, 3.13 0, 3.33 0 C3.52 0, 3.71 0.02, 3.9 0.06 C4.09 0.1, 4.28 0.15, 4.46 0.23 C4.64 0.3, 4.82 0.4, 4.99 0.51 C5.15 0.61, 5.32 0.74, 5.46 0.88 C5.61 1.02, 5.75 1.18, 5.87 1.35 C6 1.51, 6.11 1.7, 6.21 1.89 C6.3 2.08, 6.38 2.28, 6.45 2.48 C6.52 2.69, 6.57 2.9, 6.6 3.12 C6.63 3.33, 6.64 3.66, 6.65 3.77 C6.66 3.88, 6.66 3.66, 6.65 3.77" stroke="#fff" stroke-width="1" fill="none"></path></g><g stroke-linecap="round" transform="translate(327.7062841793404 49.47561212207074) rotate(358.1310915065084 2.94178474596697 3.7725718007777687)"><path d="M5.88 3.77 C5.88 3.99, 5.87 4.21, 5.84 4.43 C5.81 4.64, 5.76 4.86, 5.71 5.06 C5.65 5.27, 5.57 5.47, 5.49 5.66 C5.4 5.85, 5.3 6.03, 5.2 6.2 C5.09 6.36, 4.96 6.52, 4.83 6.66 C4.7 6.8, 4.56 6.93, 4.41 7.04 C4.27 7.15, 4.11 7.24, 3.95 7.32 C3.79 7.39, 3.62 7.45, 3.45 7.49 C3.28 7.53, 3.11 7.55, 2.94 7.55 C2.77 7.55, 2.6 7.53, 2.43 7.49 C2.26 7.45, 2.1 7.39, 1.94 7.32 C1.78 7.24, 1.62 7.15, 1.47 7.04 C1.32 6.93, 1.18 6.8, 1.05 6.66 C0.92 6.52, 0.8 6.36, 0.69 6.2 C0.58 6.03, 0.48 5.85, 0.39 5.66 C0.31 5.47, 0.24 5.27, 0.18 5.06 C0.12 4.86, 0.07 4.64, 0.04 4.43 C0.02 4.21, 0 3.99, 0 3.77 C0 3.55, 0.02 3.33, 0.04 3.12 C0.07 2.9, 0.12 2.69, 0.18 2.48 C0.24 2.28, 0.31 2.08, 0.39 1.89 C0.48 1.7, 0.58 1.51, 0.69 1.35 C0.8 1.18, 0.92 1.02, 1.05 0.88 C1.18 0.74, 1.32 0.61, 1.47 0.51 C1.62 0.4, 1.78 0.3, 1.94 0.23 C2.1 0.15, 2.26 0.1, 2.43 0.06 C2.6 0.02, 2.77 0, 2.94 0 C3.11 0, 3.28 0.02, 3.45 0.06 C3.62 0.1, 3.79 0.15, 3.95 0.23 C4.11 0.3, 4.27 0.4, 4.41 0.51 C4.56 0.61, 4.7 0.74, 4.83 0.88 C4.96 1.02, 5.09 1.18, 5.2 1.35 C5.3 1.51, 5.4 1.7, 5.49 1.89 C5.57 2.08, 5.65 2.28, 5.71 2.48 C5.76 2.69, 5.81 2.9, 5.84 3.12 C5.87 3.33, 5.88 3.66, 5.88 3.77 C5.89 3.88, 5.89 3.66, 5.88 3.77" stroke="#fff" stroke-width="1" fill="none"></path></g><g transform="translate(10 165.19626498420257) rotate(0 50.979949951171875 25)"><text x="50.979949951171875" y="0" font-family="Virgil, Segoe UI Emoji" font-size="20px" fill="#087f5b" text-anchor="middle" style="white-space: pre;" direction="ltr" dominant-baseline="text-before-edge">Application</text><text x="50.979949951171875" y="25" font-family="Virgil, Segoe UI Emoji" font-size="20px" fill="#087f5b" text-anchor="middle" style="white-space: pre;" direction="ltr" dominant-baseline="text-before-edge">Engineer</text></g><g stroke-opacity="0.9" fill-opacity="0.9" stroke-linecap="round" transform="translate(306.1902988281681 77.19441562573775) rotate(0 26.539974486125857 33.628334800137964)"><path d="M13.27 0 L42.92 0.21 L47.9 1.87 L51.21 5.18 L53.08 13.27 L53.08 53.99 L52.25 59.79 L51.21 62.07 L47.9 65.39 L39.81 67.26 L10.16 67.05 L5.18 65.39 L1.87 62.07 L0 53.99 L0.21 10.16 L1.87 5.18 L5.18 1.87 L13.27 0" stroke="none" stroke-width="0" fill="#fab005"></path><path d="M13.27 0 M13.27 0 C23.12 0, 32.96 0, 39.81 0 M13.27 0 C21.01 0, 28.75 0, 39.81 0 M39.81 0 C48.66 0, 53.08 4.42, 53.08 13.27 M39.81 0 C48.66 0, 53.08 4.42, 53.08 13.27 M53.08 13.27 C53.08 22.4, 53.08 31.52, 53.08 53.99 M53.08 13.27 C53.08 27.05, 53.08 40.82, 53.08 53.99 M53.08 53.99 C53.08 62.83, 48.66 67.26, 39.81 67.26 M53.08 53.99 C53.08 62.83, 48.66 67.26, 39.81 67.26 M39.81 67.26 C29.86 67.26, 19.92 67.26, 13.27 67.26 M39.81 67.26 C31.67 67.26, 23.53 67.26, 13.27 67.26 M13.27 67.26 C4.42 67.26, 0 62.83, 0 53.99 M13.27 67.26 C4.42 67.26, 0 62.83, 0 53.99 M0 53.99 C0 40.43, 0 26.87, 0 13.27 M0 53.99 C0 42.49, 0 30.99, 0 13.27 M0 13.27 C0 4.42, 4.42 0, 13.27 0 M0 13.27 C0 4.42, 4.42 0, 13.27 0" stroke="#000000" stroke-width="1" fill="none"></path></g><g stroke-opacity="0.9" fill-opacity="0.9" transform="translate(313.72647259076166 98.18051989272135) rotate(0 18.61998748779297 12.5)"><text x="18.61998748779297" y="0" font-family="Virgil, Segoe UI Emoji" font-size="20px" fill="#000000" text-anchor="middle" style="white-space: pre;" direction="ltr" dominant-baseline="text-before-edge">API</text></g><g mask="url(#mask-zyMsH1skWsA5_YHHiX_3N)" stroke-linecap="round"><g transform="translate(155.2886318732235 110.24746848129143) rotate(0 73.47782376390455 -0.064076308123731)"><path d="M0 0 C24.49 -0.02, 122.46 -0.11, 146.96 -0.13 M0 0 C24.49 -0.02, 122.46 -0.11, 146.96 -0.13" stroke="#2b8a3e" stroke-width="4" fill="none"></path></g><g transform="translate(155.2886318732235 110.24746848129143) rotate(0 73.47782376390455 -0.064076308123731)"><path d="M146.96 -0.13 L133.37 6.22 L133.36 -6.46 L146.96 -0.13" stroke="none" stroke-width="0" fill="#2b8a3e" fill-rule="evenodd"></path><path d="M146.96 -0.13 C143.67 1.41, 140.39 2.94, 133.37 6.22 M146.96 -0.13 C141.65 2.35, 136.35 4.83, 133.37 6.22 M133.37 6.22 C133.36 3.64, 133.36 1.06, 133.36 -6.46 M133.37 6.22 C133.36 3.3, 133.36 0.38, 133.36 -6.46 M133.36 -6.46 C137.48 -4.53, 141.61 -2.61, 146.96 -0.13 M133.36 -6.46 C137.28 -4.63, 141.21 -2.8, 146.96 -0.13 M146.96 -0.13 C146.96 -0.13, 146.96 -0.13, 146.96 -0.13 M146.96 -0.13 C146.96 -0.13, 146.96 -0.13, 146.96 -0.13" stroke="#2b8a3e" stroke-width="4" fill="none"></path></g></g><mask id="mask-zyMsH1skWsA5_YHHiX_3N"><rect x="0" y="0" fill="#fff" width="402.2442794010326" height="210.3756210975389"></rect><rect x="198.79847620597548" y="90.1833921731668" fill="#000" width="59.93595886230469" height="40" opacity="1"></rect></mask><g transform="translate(198.79847620597548 90.1833921731668) rotate(0 29.96797943115257 20.00000000000091)"><text x="29.967979431152344" y="0" font-family="Virgil, Segoe UI Emoji" font-size="16px" fill="#2f9e44" text-anchor="middle" style="white-space: pre;" direction="ltr" dominant-baseline="text-before-edge">jenkins</text><text x="29.967979431152344" y="20" font-family="Virgil, Segoe UI Emoji" font-size="16px" fill="#2f9e44" text-anchor="middle" style="white-space: pre;" direction="ltr" dominant-baseline="text-before-edge">request</text></g><g transform="translate(855.4603563789951 34.959433998388704) rotate(0 58.031951904296875 10)"><text x="0" y="0" font-family="Virgil, Segoe UI Emoji" font-size="16px" fill="#1e1e1e" text-anchor="start" style="white-space: pre;" direction="ltr" dominant-baseline="text-before-edge">Worker Cluster</text></g><g stroke-linecap="round"><g stroke-opacity="0.5" fill-opacity="0.5" transform="translate(459.45807945624074 36.71168077063339) rotate(89.99999999999994 27.868490246853753 73.989978271582)" fill-rule="evenodd"><path d="M2.47 -5.8 C2.47 -5.8, 2.47 -5.8, 2.47 -5.8 M2.47 -5.8 C2.47 -5.8, 2.47 -5.8, 2.47 -5.8 M2.65 -0.33 C2.48 -0.02, 6.63 -4.6, 11.74 -13.04 M1.9 0.84 C5.27 -2.82, 8.11 -7.15, 13.66 -11.75 M2.27 6.05 C9.04 1.55, 14.14 -4.28, 20.71 -13.14 M1.07 8.46 C8.45 -0.37, 14.22 -8.26, 19.42 -11.97 M2.61 13.34 C6.13 6.69, 9.5 0.94, 23.81 -12.85 M1.23 13.68 C6.81 7.35, 12.01 1.83, 25.05 -14.22 M0.83 18.23 C10.72 9.13, 23.04 -1.87, 30.58 -10.37 M1.18 20.27 C10.38 10.32, 18.42 -0.31, 29.06 -10.96 M0.34 23.97 C11.39 16.03, 22.81 4.33, 31.59 -11.5 M2.05 24.51 C12.61 12.83, 24.29 0.56, 32.42 -11.51 M1.74 31.16 C9.89 20.4, 19.62 13.12, 38.51 -11.48 M1.56 31.16 C11.11 20.84, 22.12 7.9, 39.26 -9.7 M2.11 38.7 C12.88 26.01, 25.21 12.28, 42.13 -8.34 M1.7 38.44 C16.74 21.46, 32.08 2.73, 42.29 -10.05 M1.86 42.72 C21.44 23.68, 37.6 3.72, 45.69 -7.67 M1 44.14 C11.79 32.94, 20.25 22.87, 46.54 -8.54 M4 49.5 C18.49 32.21, 34.35 13.16, 50.34 -6.73 M2.23 48.58 C13.3 36.02, 24.37 23.15, 52.22 -7.54 M0.96 54.42 C18.09 38.61, 31.76 22.4, 52.54 -2.75 M2.61 56.68 C20.64 35.15, 38.62 15.82, 54.54 -4.08 M1.3 63.66 C23.81 37.02, 41.85 13.78, 55.39 0.29 M0.87 61.73 C20.73 41.49, 38.98 18.92, 56.43 -1.5 M3.71 69.34 C23.98 41.58, 44.99 19.48, 58.12 3.82 M2.78 67.67 C22.79 43.04, 45.22 19.76, 56.45 4.78 M1.19 74.8 C14.16 57.92, 28.69 45.49, 56.01 10.57 M1.6 74.4 C21.11 53.89, 37.46 31.36, 56.08 10.28 M1.67 78.18 C15.42 62.06, 31.83 45.39, 56.62 18.86 M2.21 80.5 C14.17 66.37, 25.8 54.02, 56.43 17.79 M0.81 85.42 C21.85 62.75, 40.36 42.71, 55.07 23.21 M2.24 86.32 C16.88 69.83, 32.32 52.43, 56.85 23.13 M3.34 93.19 C15.57 78.5, 25.78 65.21, 54.82 31.31 M2.88 91.97 C18.69 73.56, 34.49 54.74, 56.18 30.18 M3.84 97.83 C16.66 78.63, 32.74 61.74, 56.41 35.71 M2.04 98.4 C20.97 77.83, 38.69 57.29, 56.8 35.65 M4.09 102.26 C18.27 88.11, 32.05 68.53, 57.44 42.97 M3.08 103.36 C17.21 85.86, 33.72 66.7, 57.17 42.37 M1.86 108.96 C16.63 91.24, 32.28 73.83, 54.76 48.9 M2.06 110.51 C17.12 95.49, 29.4 80.56, 57.27 47.6 M4.22 114.85 C24.81 91.81, 45.17 66.89, 55.08 52.22 M2.4 115.39 C15.67 98.51, 31.68 82.27, 57.71 52.76 M0.37 124.31 C19.01 105.07, 32.16 87.85, 57.8 61.48 M2.16 122.49 C17.17 105.7, 32.39 87.19, 55.92 59.49 M2.28 128.77 C16.32 114.14, 29.09 96.53, 57.63 64.78 M2.06 128 C16.28 111.46, 32.39 95.47, 57.23 65.44 M0.78 135.99 C21.93 110.91, 42.15 85.32, 58.75 72.96 M2 135.12 C16.35 119.62, 29.6 103.02, 56.36 72.51 M3.68 141.17 C20.42 122.22, 35.67 104.43, 54.83 76.74 M2.56 140.31 C21.97 117.45, 43.57 93.74, 55.93 78.2 M2.39 144.69 C18.91 126.72, 36.83 105.4, 57.75 82.47 M2.03 147.12 C18.09 126.93, 35.74 107.45, 56.51 84.31 M2.77 151.04 C15.98 137.38, 27.82 121.89, 58.37 89.01 M2.7 152.16 C13.64 139.56, 24.62 126.88, 55.85 90.04 M7.05 154.7 C18.22 141.52, 31.26 125.13, 55.85 94.72 M5.12 155.16 C24.75 131.06, 44.82 109.13, 57.58 95.98 M8.74 160.19 C18.7 148.92, 27.9 134.65, 58.49 102.35 M8.51 158.04 C18.21 146.38, 30.35 134.06, 56.45 103.16 M13.18 160.39 C28.71 139.76, 45.95 119.25, 56.34 110.77 M11.62 159.37 C26.4 142.66, 40.26 126.86, 56.41 107.83 M14.42 162.31 C30.63 145.31, 43.4 128.2, 57.34 116.12 M17.09 161.21 C26.46 150.76, 35.57 137.73, 57.03 114.73 M20.51 161.74 C30.35 150.41, 36.5 144.28, 57.39 119.02 M21.07 161.86 C32.98 149.01, 43.75 134.47, 57.11 121.37 M25.59 160.7 C33.48 151.73, 41.71 144.59, 58.99 126.26 M26.83 162.39 C36.19 149.79, 46.66 138.23, 57.66 125.84 M29.33 164.86 C39.81 149.05, 49.95 137.5, 58.1 133.72 M30.48 162.19 C38.26 152.79, 47.55 144.72, 56.15 132.8 M36.23 160.72 C45.06 154.43, 52.12 147.86, 54.74 140.08 M37.74 161.21 C41.33 155.47, 48.57 149.54, 57.55 139.31 M41.79 159.63 C48.9 156.38, 51.35 148.99, 55.14 145.96 M42.56 160.07 C45.84 158.2, 49.71 153.82, 57.89 145.04" stroke="#b2f2bb" stroke-width="0.5" fill="none"></path><path d="M-0.85 0.66 C-0.72 23.2, -0.41 109.53, -0.1 134.21 C0.21 158.9, 0.61 145.38, 1.02 148.79 C1.42 152.19, 0.42 152.9, 2.34 154.64 C4.26 156.38, 7.8 157.86, 12.54 159.24 C17.28 160.62, 25.21 162.77, 30.78 162.92 C36.36 163.07, 42.23 161.86, 45.97 160.14 C49.71 158.42, 51.7 154.61, 53.24 152.58 C54.77 150.55, 54.91 150.8, 55.19 147.96 C55.48 145.13, 54.77 158.26, 54.97 135.58 C55.16 112.9, 56.27 34.67, 56.36 11.87 C56.45 -10.94, 56.15 2.04, 55.52 -1.25 C54.9 -4.55, 54.51 -6.33, 52.61 -7.91 C50.71 -9.48, 48.33 -9.64, 44.12 -10.7 C39.92 -11.76, 32.52 -14.02, 27.39 -14.27 C22.27 -14.53, 17.69 -13.73, 13.38 -12.24 C9.07 -10.75, 3.71 -7.5, 1.53 -5.33 C-0.65 -3.16, 0.54 0.02, 0.29 0.75 C0.04 1.48, -0.09 -0.83, 0.04 -0.93 M0.9 -0.04 C0.93 22.28, -1.18 108.2, -1.2 132.66 C-1.22 157.12, 0.2 142.88, 0.78 146.71 C1.37 150.54, 0.02 153.59, 2.31 155.64 C4.61 157.7, 10.1 157.93, 14.56 159.04 C19.03 160.15, 23.74 162.28, 29.1 162.31 C34.45 162.34, 42.33 160.9, 46.69 159.21 C51.05 157.52, 53.55 154.19, 55.26 152.15 C56.98 150.11, 56.96 149.77, 56.97 146.98 C56.98 144.2, 55.3 158.34, 55.31 135.43 C55.33 112.53, 57.24 32.47, 57.06 9.56 C56.87 -13.36, 54.83 0.46, 54.21 -2.05 C53.58 -4.56, 55.09 -4.05, 53.28 -5.51 C51.48 -6.97, 47.6 -9.23, 43.37 -10.81 C39.15 -12.38, 32.73 -14.91, 27.92 -14.95 C23.11 -14.99, 18.57 -12.8, 14.5 -11.04 C10.43 -9.28, 6.04 -6.49, 3.48 -4.39 C0.93 -2.29, -0.02 1.02, -0.82 1.55 C-1.62 2.09, -1.21 -0.64, -1.32 -1.17" stroke="#087f5b" stroke-width="1" fill="none"></path></g></g><mask></mask><g stroke-linecap="round"><g transform="translate(414.41452393930285 103.39558446267074) rotate(89.99999999999994 26.96127290446725 6.268553317318947)"><path d="M-0.28 1.08 C0.27 1.8, 1.21 3.8, 2.45 4.95 C3.68 6.1, 4.92 7.26, 7.11 7.99 C9.3 8.71, 11.79 8.73, 15.59 9.31 C19.38 9.89, 25.15 11.35, 29.9 11.46 C34.65 11.58, 40.46 11.28, 44.07 10 C47.69 8.72, 49.9 5.42, 51.59 3.8 C53.28 2.17, 53.84 0.87, 54.21 0.25 M1.77 0.61 C2.32 0.9, 1.31 1.66, 2.03 3.09 C2.75 4.52, 3.8 8.08, 6.07 9.2 C8.34 10.32, 11.85 9.3, 15.67 9.81 C19.49 10.33, 24.01 12.36, 28.99 12.28 C33.97 12.21, 41.79 11.03, 45.56 9.38 C49.33 7.72, 50.39 3.87, 51.62 2.36 C52.86 0.85, 52.34 0.87, 52.97 0.31" stroke="#2f9e44" stroke-width="1" fill="none"></path></g></g><mask></mask><g stroke-linecap="round"><g transform="translate(453.33908828952735 107.39041452453603) rotate(89.99999999999994 27.60409707693725 4.150747088263415)"><path d="M1.01 0.5 C1.21 0.77, -0.14 2.1, 0.91 2.72 C1.96 3.34, 4.64 3.4, 7.31 4.23 C9.98 5.05, 13.33 7.07, 16.93 7.66 C20.53 8.25, 24.62 8.07, 28.92 7.77 C33.21 7.47, 38.79 6.59, 42.68 5.86 C46.56 5.13, 50.39 4.3, 52.23 3.37 C54.06 2.43, 53.2 0.75, 53.69 0.25 M0.08 -0.28 C0.1 0.69, -1.37 3.29, -0.32 4.16 C0.73 5.03, 3.98 4.72, 6.38 4.95 C8.78 5.18, 10.56 4.93, 14.08 5.53 C17.6 6.14, 22.62 8.71, 27.52 8.58 C32.42 8.44, 39.29 5.76, 43.48 4.73 C47.67 3.7, 50.59 3.18, 52.66 2.42 C54.73 1.67, 55.7 0.72, 55.91 0.21" stroke="#2f9e44" stroke-width="1" fill="none"></path></g></g><mask></mask><g stroke-linecap="round"><g transform="translate(498.8471473703539 107.45859847396423) rotate(89.99999999999994 26.868435802703743 2.5968462045957494)"><path d="M-0.53 -0.19 C-0.51 -0.06, -0.42 0.39, 1.1 1.31 C2.61 2.23, 6.12 4.44, 8.56 5.31 C11 6.18, 12.64 6.47, 15.73 6.53 C18.82 6.59, 22.63 5.79, 27.11 5.68 C31.6 5.56, 38.7 6.31, 42.67 5.82 C46.63 5.34, 48.98 3.67, 50.91 2.76 C52.85 1.86, 53.8 1.04, 54.27 0.42 M1.39 -1.34 C1.13 -1.14, -1.18 1.46, -0.02 2.25 C1.14 3.04, 5.68 3.04, 8.35 3.4 C11.03 3.76, 12.66 3.96, 16.05 4.39 C19.44 4.82, 24.06 5.84, 28.7 5.98 C33.33 6.11, 40.13 5.89, 43.87 5.18 C47.61 4.48, 49.51 2.52, 51.13 1.72 C52.76 0.93, 53.45 0.58, 53.62 0.44" stroke="#2f9e44" stroke-width="1" fill="none"></path></g></g><mask></mask><g stroke-linecap="round"><g transform="translate(532.5147138197362 104.74259378917122) rotate(89.99999999999994 27.190757677088186 5.652535519317098)"><path d="M-0.31 -1.13 C0.19 -0.16, 1.15 3.86, 2.49 5.67 C3.84 7.47, 5.71 8.79, 7.73 9.71 C9.75 10.63, 11.21 10.76, 14.63 11.21 C18.04 11.65, 23.52 12.47, 28.22 12.37 C32.92 12.27, 38.67 11.84, 42.81 10.62 C46.95 9.39, 51.15 7.01, 53.09 5.03 C55.02 3.05, 54.07 -0.21, 54.4 -1.28 M1.72 0.88 C2.21 1.54, 1.22 2.82, 2.11 3.97 C2.99 5.12, 5.01 6.41, 7.04 7.78 C9.06 9.16, 10.41 11.32, 14.27 12.22 C18.13 13.11, 25.27 13.55, 30.2 13.16 C35.12 12.77, 39.82 11.4, 43.8 9.88 C47.79 8.37, 52.49 6.03, 54.11 4.05 C55.72 2.07, 53.52 -1.4, 53.47 -2" stroke="#087f5b" stroke-width="1" fill="none"></path></g></g><mask></mask><g stroke-linecap="round" transform="translate(702.1253543784824 194.20417323489528) rotate(0 19.315461524151033 29.310139558423543)"><path d="M0.68 -0.35 L38.18 1.43 L39.83 57.56 L-0.52 57.03" stroke="none" stroke-width="0" fill="#fff"></path><path d="M1.36 0.24 C11.9 -2.27, 20.87 -1.02, 39.9 -1.34 M0.15 -0.6 C14.17 -0.92, 26.85 -0.09, 38.95 -0.19 M39.25 0.54 C39.97 18.41, 37.02 38.5, 38.83 59.69 M37.92 0.95 C38.28 18.43, 39.4 37.69, 38.91 57.69 M39.59 57.45 C27.05 60.59, 11.3 59.33, 0.29 56.78 M37.7 57.79 C26.56 58.97, 12.76 57.95, -0.45 58.53 M-1.15 59.31 C-0.53 39.31, -1.38 21.91, 1.07 0.86 M-0.85 59.5 C0.76 38.72, 1.34 18.88, -0.26 0.74" stroke="#1971c2" stroke-width="2" fill="none"></path></g><g stroke-linecap="round" transform="translate(698.0001398939312 190.36719000268567) rotate(0 19.315461524151033 29.310139558423543)"><path d="M-0.45 1.43 L39.83 -1.06 L38.12 57.03 L0.82 59.94" stroke="none" stroke-width="0" fill="#fff"></path><path d="M1.32 -1.93 C14.73 -0.72, 31.32 -1.38, 39.6 1.2 M0.71 -0.7 C13.76 0.36, 27.99 0.04, 38.76 -0.08 M40.01 0.07 C37.25 15.23, 39.01 27.85, 38.96 60 M37.87 -0.11 C38.58 21.03, 38.49 39.89, 38.98 59 M39.99 60.37 C23.44 58.88, 11.43 56.55, 0.64 56.81 M39.38 58.73 C24.46 57.4, 10.3 58.21, 0.19 58.69 M-0.49 57.99 C-1.01 39.44, 1.41 19.8, 0.92 -1.47 M0.33 59.02 C1.41 39.02, 0.24 18.47, 0.34 -0.18" stroke="#1971c2" stroke-width="2" fill="none"></path></g><g stroke-linecap="round" transform="translate(692.8650485030339 185.85583714198583) rotate(0 19.315461524151033 29.310139558423543)"><path d="M1.2 -1.06 L38.12 -1.59 L39.45 59.94 L-1.99 58.24" stroke="none" stroke-width="0" fill="#fff"></path><path d="M-0.29 -0.68 C13.32 -0.96, 25.06 1.57, 39.79 0.31 M-0.07 0.13 C9.59 0.08, 18.67 0.19, 37.92 0.31 M37.07 1.84 C39.23 20.23, 39.36 39.71, 39.59 57.2 M38.99 0.62 C38.47 22.24, 38.54 46.73, 39.19 59.1 M37.19 59.11 C29.6 57.12, 20.63 57.14, 1.22 56.75 M38.4 57.72 C29.8 58.57, 22.05 58.73, 0.38 58.05 M-1.34 59.28 C1.21 39.87, 1.07 17.92, 0.98 -1.7 M0.91 59.47 C-0.45 36.6, 0.15 12.92, -0.22 0.71" stroke="#1971c2" stroke-width="2" fill="none"></path></g><g stroke-linecap="round"><g transform="translate(699.4164919329178 212.49970498393304) rotate(0 12.886915795789037 -1.0451217098707275)"><path d="M-0.41 0.76 C3.34 0.9, 16.86 0.96, 21.29 0.67 C25.72 0.38, 25.45 -0.48, 26.18 -0.99 M1.58 0.12 C5.81 -0.08, 19.55 -0.63, 23.58 -1.15 C27.62 -1.66, 25.39 -2.88, 25.79 -2.97" stroke="#1971c2" stroke-width="1" fill="none"></path></g></g><mask></mask><g stroke-linecap="round"><g transform="translate(700.4305205925339 195.30166449632816) rotate(0 12.14402608923865 -1.0045808047043465)"><path d="M-0.8 0.58 C0.92 0.32, 5.61 -0.59, 9.92 -0.83 C14.24 -1.08, 22.45 -0.87, 25.09 -0.9 M0.98 -0.16 C2.64 -0.84, 5.44 -2.62, 9.35 -2.59 C13.26 -2.56, 21.57 -0.33, 24.42 0.04" stroke="#1971c2" stroke-width="1" fill="none"></path></g></g><mask></mask><g stroke-linecap="round"><g transform="translate(700.3886534526819 232.13753274473856) rotate(0 13.087827657455136 0.1954630795535195)"><path d="M0.72 0.7 C3.29 0.46, 11.17 -0.81, 14.62 -0.86 C18.07 -0.9, 19.46 0.44, 21.41 0.43 C23.37 0.42, 25.44 -0.63, 26.33 -0.92 M-0.36 0.02 C2.14 -0.13, 10.19 0.09, 13.77 0.3 C17.35 0.51, 18.97 1.31, 21.1 1.31 C23.22 1.3, 25.8 0.66, 26.54 0.27" stroke="#1971c2" stroke-width="1" fill="none"></path></g></g><mask></mask><g stroke-linecap="round"><g transform="translate(698.6483428741594 238.2827212407865) rotate(0 14.356442270860043 0.017300351769335975)"><path d="M0.18 -0.72 C1.13 -1.08, 4.98 -1.54, 6.41 -1.47 C7.83 -1.41, 5.52 -0.56, 8.73 -0.3 C11.94 -0.04, 22.14 0.28, 25.66 0.1 C29.19 -0.07, 29.35 -1.19, 29.89 -1.36 M-1.18 1.52 C-0.38 1.22, 4.39 -0.31, 5.91 -0.38 C7.42 -0.45, 4.55 0.86, 7.92 1.1 C11.29 1.34, 22.68 1.44, 26.11 1.09 C29.54 0.73, 27.88 -0.55, 28.5 -1.02" stroke="#1971c2" stroke-width="1" fill="none"></path></g></g><mask></mask><g stroke-linecap="round"><g transform="translate(698.8040299843396 203.5333654441274) rotate(0 12.934272226437997 0.5792982341299648)"><path d="M0.85 -0.84 C2.46 -0.74, 5.66 -0.44, 9.86 -0.16 C14.05 0.11, 23.37 0.62, 26.03 0.8 M-0.16 1.34 C1.27 1.71, 4.6 1.35, 8.87 1.46 C13.14 1.57, 22.58 1.91, 25.46 2" stroke="#1971c2" stroke-width="1" fill="none"></path></g></g><mask></mask><g stroke-linecap="round"><g transform="translate(698.862780007239 222.38098260628612) rotate(0 11.600819636180859 0.9478884306972759)"><path d="M-0.09 0.16 C0.57 0.39, 3.1 0.65, 4.8 0.55 C6.5 0.45, 6.77 -0.57, 10.1 -0.42 C13.43 -0.28, 22.15 1.02, 24.79 1.4 M-1.59 -0.8 C-1.13 -0.32, 2.22 1.69, 4.05 1.97 C5.89 2.24, 5.99 0.72, 9.41 0.84 C12.83 0.96, 22.04 2.39, 24.59 2.7" stroke="#1971c2" stroke-width="1" fill="none"></path></g></g><mask></mask><g stroke-linecap="round"><g transform="translate(360.75774688161255 108.23085688001811) rotate(0 16.600889908643467 0)"><path d="M0 0 C5.53 0, 27.67 0, 33.2 0 M0 0 C5.53 0, 27.67 0, 33.2 0" stroke="#2f9e44" stroke-width="4" fill="none"></path></g><g transform="translate(360.75774688161255 108.23085688001811) rotate(0 16.600889908643467 0)"><path d="M33.2 0 L19.61 6.34 L19.61 -6.34 L33.2 0" stroke="none" stroke-width="0" fill="#2f9e44" fill-rule="evenodd"></path><path d="M33.2 0 C29.22 1.86, 25.24 3.71, 19.61 6.34 M33.2 0 C30.18 1.41, 27.16 2.82, 19.61 6.34 M19.61 6.34 C19.61 2.08, 19.61 -2.18, 19.61 -6.34 M19.61 6.34 C19.61 3.45, 19.61 0.56, 19.61 -6.34 M19.61 -6.34 C23.38 -4.58, 27.14 -2.83, 33.2 0 M19.61 -6.34 C22.77 -4.86, 25.94 -3.39, 33.2 0 M33.2 0 C33.2 0, 33.2 0, 33.2 0 M33.2 0 C33.2 0, 33.2 0, 33.2 0" stroke="#2f9e44" stroke-width="4" fill="none"></path></g></g><mask></mask></svg>