<svg version="1.1" xmlns="http://www.w3.org/2000/svg" viewBox="0 0 519.6644002669436 317.2429305191781" width="519.6644002669436" height="317.2429305191781">
  <!-- svg-source:excalidraw -->
  
  <defs>
    <style class="style-fonts">
      @font-face {
        font-family: "Virgil";
        src: url("https://excalidraw.com/Virgil.woff2");
      }
      @font-face {
        font-family: "Cascadia";
        src: url("https://excalidraw.com/Cascadia.woff2");
      }
    </style>
    
  </defs>
  <g stroke-opacity="0.2" fill-opacity="0.2" stroke-linecap="round" transform="translate(30.895455110749026 192.821457525366) rotate(0 141.2923237423488 35.08082347688105)"><path d="M0 0 L282.58 0 L282.58 70.16 L0 70.16" stroke="none" stroke-width="0" fill="#e64980"></path><path d="M0 0 C98.71 0, 197.43 0, 282.58 0 M0 0 C107.92 0, 215.83 0, 282.58 0 M282.58 0 C282.58 15.85, 282.58 31.71, 282.58 70.16 M282.58 0 C282.58 21.98, 282.58 43.97, 282.58 70.16 M282.58 70.16 C209.62 70.16, 136.65 70.16, 0 70.16 M282.58 70.16 C204.56 70.16, 126.53 70.16, 0 70.16 M0 70.16 C0 50.96, 0 31.76, 0 0 M0 70.16 C0 48.08, 0 26.01, 0 0" stroke="#a61e4d" stroke-width="1" fill="none"></path></g><g stroke-opacity="0.2" fill-opacity="0.2" transform="translate(112.0235493915061 215.87383228718318) rotate(0 62.279937744140625 12.62257644291185)"><text x="0" y="0" font-family="Virgil, Segoe UI Emoji" font-size="20px" fill="#000000" text-anchor="start" style="white-space: pre;" direction="ltr" dominant-baseline="text-before-edge">Dependencies</text></g><g transform="translate(81.20508178897217 31.045756739211356) rotate(0 50.217979431152344 17.72503279677221)"><text x="0" y="0" font-family="Virgil, Segoe UI Emoji" font-size="28px" fill="#5f3dc4" text-anchor="start" style="white-space: pre;" direction="ltr" dominant-baseline="text-before-edge">Promise</text></g><g stroke-linecap="round" transform="translate(10 10) rotate(0 163.69224501623876 138.02578233424447)"><path d="M32 0 M32 0 C94.74 0, 157.47 0, 295.38 0 M32 0 C98.47 0, 164.93 0, 295.38 0 M295.38 0 C316.72 0, 327.38 10.67, 327.38 32 M295.38 0 C316.72 0, 327.38 10.67, 327.38 32 M327.38 32 C327.38 96.36, 327.38 160.72, 327.38 244.05 M327.38 32 C327.38 91.77, 327.38 151.53, 327.38 244.05 M327.38 244.05 C327.38 265.38, 316.72 276.05, 295.38 276.05 M327.38 244.05 C327.38 265.38, 316.72 276.05, 295.38 276.05 M295.38 276.05 C198.98 276.05, 102.57 276.05, 32 276.05 M295.38 276.05 C216.17 276.05, 136.96 276.05, 32 276.05 M32 276.05 C10.67 276.05, 0 265.38, 0 244.05 M32 276.05 C10.67 276.05, 0 265.38, 0 244.05 M0 244.05 C0 199.61, 0 155.17, 0 32 M0 244.05 C0 173.09, 0 102.14, 0 32 M0 32 C0 10.67, 10.67 0, 32 0 M0 32 C0 10.67, 10.67 0, 32 0" stroke="#343a40" stroke-width="2" fill="none"></path></g><g stroke-linecap="round" transform="translate(165.68957876609784 104.38947480254501) rotate(0 71.01052550643544 31.290932502063697)"><path d="M15.65 0 L126.38 0 L133.22 0.98 L138.11 3.91 L139.82 6.11 L141.78 11.98 L142.02 46.94 L141.04 53.78 L139.82 56.47 L135.91 60.38 L133.22 61.6 L126.38 62.58 L15.65 62.58 L8.8 61.6 L6.11 60.38 L2.2 56.47 L0.24 50.6 L0.24 11.98 L2.2 6.11 L6.11 2.2 L8.8 0.98 L15.65 0" stroke="none" stroke-width="0" fill="#15aabf"></path><path d="M15.65 0 M15.65 0 C41.4 0, 67.16 0, 126.38 0 M15.65 0 C56.96 0, 98.27 0, 126.38 0 M126.38 0 C136.81 0, 142.02 5.22, 142.02 15.65 M126.38 0 C136.81 0, 142.02 5.22, 142.02 15.65 M142.02 15.65 C142.02 22.62, 142.02 29.59, 142.02 46.94 M142.02 15.65 C142.02 23.12, 142.02 30.59, 142.02 46.94 M142.02 46.94 C142.02 57.37, 136.81 62.58, 126.38 62.58 M142.02 46.94 C142.02 57.37, 136.81 62.58, 126.38 62.58 M126.38 62.58 C98.9 62.58, 71.43 62.58, 15.65 62.58 M126.38 62.58 C103.88 62.58, 81.38 62.58, 15.65 62.58 M15.65 62.58 C5.22 62.58, 0 57.37, 0 46.94 M15.65 62.58 C5.22 62.58, 0 57.37, 0 46.94 M0 46.94 C0 39.95, 0 32.96, 0 15.65 M0 46.94 C0 38.79, 0 30.64, 0 15.65 M0 15.65 C0 5.22, 5.22 0, 15.65 0 M0 15.65 C0 5.22, 5.22 0, 15.65 0" stroke="#343a40" stroke-width="1" fill="none"></path></g><g transform="translate(182.03439299307865 110.90434094551165) rotate(0 51.68994903564453 25)"><text x="51.68994903564453" y="0" font-family="Virgil, Segoe UI Emoji" font-size="20px" fill="#000000" text-anchor="middle" style="white-space: pre;" direction="ltr" dominant-baseline="text-before-edge">Imperative</text><text x="51.68994903564453" y="25" font-family="Virgil, Segoe UI Emoji" font-size="20px" fill="#000000" text-anchor="middle" style="white-space: pre;" direction="ltr" dominant-baseline="text-before-edge">Pipeline</text></g><g stroke-linecap="round" transform="translate(375.814541508611 173.3920145561351) rotate(269.94514152181193 66.34136172506032 67.44500868647901)"><path d="M32 0 L108.18 0.5 L114.68 2 L120.18 4.5 L124.68 8 L128.18 12.5 L130.68 18 L132.18 24.5 L132.68 32 L132.18 110.39 L130.68 116.89 L128.18 122.39 L124.68 126.89 L120.18 130.39 L114.68 132.89 L108.18 134.39 L100.68 134.89 L24.5 134.39 L18 132.89 L12.5 130.39 L8 126.89 L4.5 122.39 L2 116.89 L0.5 110.39 L0 102.89 L0.5 24.5 L2 18 L4.5 12.5 L8 8 L12.5 4.5 L18 2 L24.5 0.5 L32 0" stroke="none" stroke-width="0" fill="#ced4da"></path><path d="M32 0 M32 0 C46.83 0, 61.66 0, 100.68 0 M32 0 C49.66 0, 67.33 0, 100.68 0 M100.68 0 C122.02 0, 132.68 10.67, 132.68 32 M100.68 0 C122.02 0, 132.68 10.67, 132.68 32 M132.68 32 C132.68 49.7, 132.68 67.4, 132.68 102.89 M132.68 32 C132.68 51.82, 132.68 71.64, 132.68 102.89 M132.68 102.89 C132.68 124.22, 122.02 134.89, 100.68 134.89 M132.68 102.89 C132.68 124.22, 122.02 134.89, 100.68 134.89 M100.68 134.89 C82.32 134.89, 63.96 134.89, 32 134.89 M100.68 134.89 C78.9 134.89, 57.12 134.89, 32 134.89 M32 134.89 C10.67 134.89, 0 124.22, 0 102.89 M32 134.89 C10.67 134.89, 0 124.22, 0 102.89 M0 102.89 C0 79.66, 0 56.42, 0 32 M0 102.89 C0 80.17, 0 57.45, 0 32 M0 32 C0 10.67, 10.67 0, 32 0 M0 32 C0 10.67, 10.67 0, 32 0" stroke="transparent" stroke-width="1" fill="none"></path></g><g stroke-linecap="round" transform="translate(416.02592563768485 115.57046958909632) rotate(269.94514152181193 25.797394326532412 67.61133962914573)"><path d="M51.59 67.61 C51.59 70.55, 51.52 73.52, 51.37 76.44 C51.23 79.35, 51.01 82.27, 50.72 85.11 C50.43 87.95, 50.06 90.77, 49.63 93.49 C49.2 96.2, 48.7 98.87, 48.14 101.42 C47.58 103.96, 46.95 106.44, 46.26 108.77 C45.58 111.1, 44.83 113.34, 44.04 115.42 C43.25 117.5, 42.39 119.46, 41.5 121.25 C40.61 123.04, 39.67 124.69, 38.7 126.16 C37.72 127.64, 36.71 128.95, 35.67 130.08 C34.63 131.2, 33.56 132.16, 32.47 132.92 C31.39 133.68, 30.28 134.26, 29.16 134.64 C28.05 135.03, 26.92 135.22, 25.8 135.22 C24.67 135.22, 23.54 135.03, 22.43 134.64 C21.32 134.26, 20.2 133.68, 19.12 132.92 C18.04 132.16, 16.96 131.2, 15.93 130.08 C14.89 128.95, 13.87 127.64, 12.9 126.16 C11.93 124.69, 10.98 123.04, 10.09 121.25 C9.2 119.46, 8.35 117.5, 7.56 115.42 C6.76 113.34, 6.01 111.1, 5.33 108.77 C4.65 106.44, 4.02 103.96, 3.46 101.42 C2.89 98.87, 2.39 96.2, 1.96 93.49 C1.53 90.77, 1.17 87.95, 0.88 85.11 C0.59 82.27, 0.37 79.35, 0.22 76.44 C0.07 73.52, 0 70.55, 0 67.61 C0 64.67, 0.07 61.7, 0.22 58.79 C0.37 55.87, 0.59 52.95, 0.88 50.11 C1.17 47.27, 1.53 44.46, 1.96 41.74 C2.39 39.02, 2.89 36.35, 3.46 33.81 C4.02 31.26, 4.65 28.79, 5.33 26.45 C6.01 24.12, 6.76 21.88, 7.56 19.8 C8.35 17.72, 9.2 15.76, 10.09 13.97 C10.98 12.18, 11.93 10.53, 12.9 9.06 C13.87 7.59, 14.89 6.27, 15.93 5.15 C16.96 4.02, 18.04 3.07, 19.12 2.3 C20.2 1.54, 21.32 0.96, 22.43 0.58 C23.54 0.19, 24.67 0, 25.8 0 C26.92 0, 28.05 0.19, 29.16 0.58 C30.28 0.96, 31.39 1.54, 32.47 2.3 C33.56 3.07, 34.63 4.02, 35.67 5.15 C36.71 6.27, 37.72 7.59, 38.7 9.06 C39.67 10.53, 40.61 12.18, 41.5 13.97 C42.39 15.76, 43.25 17.72, 44.04 19.8 C44.83 21.88, 45.58 24.12, 46.26 26.45 C46.95 28.79, 47.58 31.26, 48.14 33.81 C48.7 36.35, 49.2 39.02, 49.63 41.74 C50.06 44.46, 50.43 47.27, 50.72 50.11 C51.01 52.95, 51.23 55.87, 51.37 58.79 C51.52 61.7, 51.56 66.14, 51.59 67.61 C51.63 69.08, 51.63 66.14, 51.59 67.61" stroke="none" stroke-width="0" fill="#868e96"></path><path d="M51.59 67.61 C51.59 70.55, 51.52 73.52, 51.37 76.44 C51.23 79.35, 51.01 82.27, 50.72 85.11 C50.43 87.95, 50.06 90.77, 49.63 93.49 C49.2 96.2, 48.7 98.87, 48.14 101.42 C47.58 103.96, 46.95 106.44, 46.26 108.77 C45.58 111.1, 44.83 113.34, 44.04 115.42 C43.25 117.5, 42.39 119.46, 41.5 121.25 C40.61 123.04, 39.67 124.69, 38.7 126.16 C37.72 127.64, 36.71 128.95, 35.67 130.08 C34.63 131.2, 33.56 132.16, 32.47 132.92 C31.39 133.68, 30.28 134.26, 29.16 134.64 C28.05 135.03, 26.92 135.22, 25.8 135.22 C24.67 135.22, 23.54 135.03, 22.43 134.64 C21.32 134.26, 20.2 133.68, 19.12 132.92 C18.04 132.16, 16.96 131.2, 15.93 130.08 C14.89 128.95, 13.87 127.64, 12.9 126.16 C11.93 124.69, 10.98 123.04, 10.09 121.25 C9.2 119.46, 8.35 117.5, 7.56 115.42 C6.76 113.34, 6.01 111.1, 5.33 108.77 C4.65 106.44, 4.02 103.96, 3.46 101.42 C2.89 98.87, 2.39 96.2, 1.96 93.49 C1.53 90.77, 1.17 87.95, 0.88 85.11 C0.59 82.27, 0.37 79.35, 0.22 76.44 C0.07 73.52, 0 70.55, 0 67.61 C0 64.67, 0.07 61.7, 0.22 58.79 C0.37 55.87, 0.59 52.95, 0.88 50.11 C1.17 47.27, 1.53 44.46, 1.96 41.74 C2.39 39.02, 2.89 36.35, 3.46 33.81 C4.02 31.26, 4.65 28.79, 5.33 26.45 C6.01 24.12, 6.76 21.88, 7.56 19.8 C8.35 17.72, 9.2 15.76, 10.09 13.97 C10.98 12.18, 11.93 10.53, 12.9 9.06 C13.87 7.59, 14.89 6.27, 15.93 5.15 C16.96 4.02, 18.04 3.07, 19.12 2.3 C20.2 1.54, 21.32 0.96, 22.43 0.58 C23.54 0.19, 24.67 0, 25.8 0 C26.92 0, 28.05 0.19, 29.16 0.58 C30.28 0.96, 31.39 1.54, 32.47 2.3 C33.56 3.07, 34.63 4.02, 35.67 5.15 C36.71 6.27, 37.72 7.59, 38.7 9.06 C39.67 10.53, 40.61 12.18, 41.5 13.97 C42.39 15.76, 43.25 17.72, 44.04 19.8 C44.83 21.88, 45.58 24.12, 46.26 26.45 C46.95 28.79, 47.58 31.26, 48.14 33.81 C48.7 36.35, 49.2 39.02, 49.63 41.74 C50.06 44.46, 50.43 47.27, 50.72 50.11 C51.01 52.95, 51.23 55.87, 51.37 58.79 C51.52 61.7, 51.56 66.14, 51.59 67.61 C51.63 69.08, 51.63 66.14, 51.59 67.61" stroke="#343a40" stroke-width="1" fill="none"></path></g><g transform="translate(393.2968933730499 223.0059678802354) rotate(0 47.53571319580078 31.226053965022402)"><text x="47.53571319580078" y="0" font-family="Virgil, Segoe UI Emoji" font-size="16.653895448011987px" fill="#343a40" text-anchor="middle" style="white-space: pre;" direction="ltr" dominant-baseline="text-before-edge">Declarative</text><text x="47.53571319580078" y="20.817369310014982" font-family="Virgil, Segoe UI Emoji" font-size="16.653895448011987px" fill="#343a40" text-anchor="middle" style="white-space: pre;" direction="ltr" dominant-baseline="text-before-edge">State</text><text x="47.53571319580078" y="41.634738620029964" font-family="Virgil, Segoe UI Emoji" font-size="16.653895448011987px" fill="#343a40" text-anchor="middle" style="white-space: pre;" direction="ltr" dominant-baseline="text-before-edge">Store</text></g><g stroke-linecap="round"><g transform="translate(88.55026402898602 137.8689729227499) rotate(0 38.06965736855591 -0.1523310440898058)"><path d="M0 0 C12.69 -0.05, 63.45 -0.25, 76.14 -0.3 M0 0 C12.69 -0.05, 63.45 -0.25, 76.14 -0.3" stroke="#2b8a3e" stroke-width="4" fill="none"></path></g><g transform="translate(88.55026402898602 137.8689729227499) rotate(0 38.06965736855591 -0.1523310440898058)"><path d="M47.99 10.07 C55.57 7.27, 63.16 4.48, 76.14 -0.3 M47.99 10.07 C53.77 7.94, 59.55 5.81, 76.14 -0.3" stroke="#2b8a3e" stroke-width="4" fill="none"></path></g><g transform="translate(88.55026402898602 137.8689729227499) rotate(0 38.06965736855591 -0.1523310440898058)"><path d="M47.91 -10.45 C55.51 -7.72, 63.12 -4.98, 76.14 -0.3 M47.91 -10.45 C53.71 -8.37, 59.5 -6.28, 76.14 -0.3" stroke="#2b8a3e" stroke-width="4" fill="none"></path></g></g><mask></mask><g stroke-linecap="round"><g transform="translate(309.58223183437076 138.58642313277596) rotate(0 40.21402388187562 11.881331278511425)"><path d="M0 0 C9.72 0.31, 44.93 -2.18, 58.33 1.86 C71.74 5.9, 76.75 20.51, 80.43 24.24 M0 0 C9.72 0.31, 44.93 -2.18, 58.33 1.86 C71.74 5.9, 76.75 20.51, 80.43 24.24" stroke="#2b8a3e" stroke-width="4" fill="none"></path></g><g transform="translate(309.58223183437076 138.58642313277596) rotate(0 40.21402388187562 11.881331278511425)"><path d="M67.7 15.01 C71.56 17.81, 75.42 20.61, 80.43 24.24 M67.7 15.01 C72.63 18.58, 77.55 22.16, 80.43 24.24" stroke="#2b8a3e" stroke-width="4" fill="none"></path></g><g transform="translate(309.58223183437076 138.58642313277596) rotate(0 40.21402388187562 11.881331278511425)"><path d="M76.61 8.99 C77.77 13.62, 78.93 18.24, 80.43 24.24 M76.61 8.99 C78.09 14.89, 79.57 20.8, 80.43 24.24" stroke="#2b8a3e" stroke-width="4" fill="none"></path></g></g><mask></mask><g stroke-linecap="round" transform="translate(36.17142127364059 24.91450099683425) rotate(358.92972393214535 3.7680364110324263 19.55595047308725)"><path d="M1.88 0 L5.65 0 L7.07 0.47 L7.54 1.88 L7.54 37.23 L7.07 38.64 L5.65 39.11 L0.47 38.64 L0 37.23 L0 1.88 L0.47 0.47 L1.88 0" stroke="none" stroke-width="0" fill="#7950f2"></path><path d="M1.88 0 M1.88 0 C2.69 0, 3.49 0, 5.65 0 M1.88 0 C2.99 0, 4.09 0, 5.65 0 M5.65 0 C6.91 0, 7.54 0.63, 7.54 1.88 M5.65 0 C6.91 0, 7.54 0.63, 7.54 1.88 M7.54 1.88 C7.54 9.52, 7.54 17.15, 7.54 37.23 M7.54 1.88 C7.54 10.97, 7.54 20.06, 7.54 37.23 M7.54 37.23 C7.54 38.48, 6.91 39.11, 5.65 39.11 M7.54 37.23 C7.54 38.48, 6.91 39.11, 5.65 39.11 M5.65 39.11 C4.71 39.11, 3.77 39.11, 1.88 39.11 M5.65 39.11 C4.6 39.11, 3.55 39.11, 1.88 39.11 M1.88 39.11 C0.63 39.11, 0 38.48, 0 37.23 M1.88 39.11 C0.63 39.11, 0 38.48, 0 37.23 M0 37.23 C0 27.78, 0 18.33, 0 1.88 M0 37.23 C0 26.02, 0 14.81, 0 1.88 M0 1.88 C0 0.63, 0.63 0, 1.88 0 M0 1.88 C0 0.63, 0.63 0, 1.88 0" stroke="transparent" stroke-width="1" fill="none"></path></g><g stroke-linecap="round" transform="translate(50.20806070692561 19.919488073443063) rotate(40.41727686562419 3.7680364110324263 24.785791502693428)"><path d="M1.88 0 L5.65 0 L7.07 0.47 L7.54 1.88 L7.54 47.69 L7.07 49.1 L5.65 49.57 L0.47 49.1 L0 47.69 L0 1.88 L0.47 0.47 L1.88 0" stroke="none" stroke-width="0" fill="#7950f2"></path><path d="M1.88 0 M1.88 0 C3.33 0, 4.78 0, 5.65 0 M1.88 0 C2.98 0, 4.08 0, 5.65 0 M5.65 0 C6.91 0, 7.54 0.63, 7.54 1.88 M5.65 0 C6.91 0, 7.54 0.63, 7.54 1.88 M7.54 1.88 C7.54 19.7, 7.54 37.52, 7.54 47.69 M7.54 1.88 C7.54 19.48, 7.54 37.07, 7.54 47.69 M7.54 47.69 C7.54 48.94, 6.91 49.57, 5.65 49.57 M7.54 47.69 C7.54 48.94, 6.91 49.57, 5.65 49.57 M5.65 49.57 C4.68 49.57, 3.71 49.57, 1.88 49.57 M5.65 49.57 C4.78 49.57, 3.91 49.57, 1.88 49.57 M1.88 49.57 C0.63 49.57, 0 48.94, 0 47.69 M1.88 49.57 C0.63 49.57, 0 48.94, 0 47.69 M0 47.69 C0 35.66, 0 23.63, 0 1.88 M0 47.69 C0 30.75, 0 13.82, 0 1.88 M0 1.88 C0 0.63, 0.63 0, 1.88 0 M0 1.88 C0 0.63, 0.63 0, 1.88 0" stroke="transparent" stroke-width="1" fill="none"></path></g><g stroke-linecap="round" transform="translate(58.850584971780336 38.47450408144505) rotate(139.22073182693399 3.7680364110324263 14.147647249566944)"><path d="M1.88 0 L5.65 0 L7.07 0.47 L7.54 1.88 L7.54 26.41 L7.07 27.82 L5.65 28.3 L0.47 27.82 L0 26.41 L0 1.88 L0.47 0.47 L1.88 0" stroke="none" stroke-width="0" fill="#7950f2"></path><path d="M1.88 0 M1.88 0 C3.35 0, 4.81 0, 5.65 0 M1.88 0 C2.78 0, 3.68 0, 5.65 0 M5.65 0 C6.91 0, 7.54 0.63, 7.54 1.88 M5.65 0 C6.91 0, 7.54 0.63, 7.54 1.88 M7.54 1.88 C7.54 7.26, 7.54 12.63, 7.54 26.41 M7.54 1.88 C7.54 7.31, 7.54 12.73, 7.54 26.41 M7.54 26.41 C7.54 27.67, 6.91 28.3, 5.65 28.3 M7.54 26.41 C7.54 27.67, 6.91 28.3, 5.65 28.3 M5.65 28.3 C4.51 28.3, 3.37 28.3, 1.88 28.3 M5.65 28.3 C4.15 28.3, 2.65 28.3, 1.88 28.3 M1.88 28.3 C0.63 28.3, 0 27.67, 0 26.41 M1.88 28.3 C0.63 28.3, 0 27.67, 0 26.41 M0 26.41 C0 20.78, 0 15.16, 0 1.88 M0 26.41 C0 19.38, 0 12.35, 0 1.88 M0 1.88 C0 0.63, 0.63 0, 1.88 0 M0 1.88 C0 0.63, 0.63 0, 1.88 0" stroke="transparent" stroke-width="1" fill="none"></path></g><g stroke-linecap="round" transform="translate(35.30407642056525 22.959980093502963) rotate(358.1310915065084 4.2070221584958745 4.569555668486828)"><path d="M8.41 4.57 C8.41 4.83, 8.39 5.1, 8.35 5.36 C8.31 5.62, 8.24 5.88, 8.16 6.13 C8.08 6.38, 7.97 6.63, 7.85 6.85 C7.73 7.08, 7.59 7.3, 7.43 7.51 C7.27 7.71, 7.1 7.9, 6.91 8.07 C6.72 8.24, 6.52 8.39, 6.31 8.53 C6.1 8.66, 5.87 8.77, 5.65 8.86 C5.42 8.95, 5.18 9.02, 4.94 9.07 C4.7 9.12, 4.45 9.14, 4.21 9.14 C3.96 9.14, 3.72 9.12, 3.48 9.07 C3.24 9.02, 3 8.95, 2.77 8.86 C2.54 8.77, 2.31 8.66, 2.1 8.53 C1.89 8.39, 1.69 8.24, 1.5 8.07 C1.32 7.9, 1.14 7.71, 0.98 7.51 C0.83 7.3, 0.69 7.08, 0.56 6.85 C0.44 6.63, 0.34 6.38, 0.25 6.13 C0.17 5.88, 0.11 5.62, 0.06 5.36 C0.02 5.1, 0 4.83, 0 4.57 C0 4.31, 0.02 4.04, 0.06 3.78 C0.11 3.52, 0.17 3.26, 0.25 3.01 C0.34 2.76, 0.44 2.51, 0.56 2.28 C0.69 2.06, 0.83 1.83, 0.98 1.63 C1.14 1.43, 1.32 1.24, 1.5 1.07 C1.69 0.9, 1.89 0.74, 2.1 0.61 C2.31 0.48, 2.54 0.37, 2.77 0.28 C3 0.19, 3.24 0.12, 3.48 0.07 C3.72 0.02, 3.96 0, 4.21 0 C4.45 0, 4.7 0.02, 4.94 0.07 C5.18 0.12, 5.42 0.19, 5.65 0.28 C5.87 0.37, 6.1 0.48, 6.31 0.61 C6.52 0.74, 6.72 0.9, 6.91 1.07 C7.1 1.24, 7.27 1.43, 7.43 1.63 C7.59 1.83, 7.73 2.06, 7.85 2.28 C7.97 2.51, 8.08 2.76, 8.16 3.01 C8.24 3.26, 8.31 3.52, 8.35 3.78 C8.39 4.04, 8.4 4.44, 8.41 4.57 C8.42 4.7, 8.42 4.44, 8.41 4.57" stroke="none" stroke-width="0" fill="#7950f2"></path><path d="M8.41 4.57 C8.41 4.83, 8.39 5.1, 8.35 5.36 C8.31 5.62, 8.24 5.88, 8.16 6.13 C8.08 6.38, 7.97 6.63, 7.85 6.85 C7.73 7.08, 7.59 7.3, 7.43 7.51 C7.27 7.71, 7.1 7.9, 6.91 8.07 C6.72 8.24, 6.52 8.39, 6.31 8.53 C6.1 8.66, 5.87 8.77, 5.65 8.86 C5.42 8.95, 5.18 9.02, 4.94 9.07 C4.7 9.12, 4.45 9.14, 4.21 9.14 C3.96 9.14, 3.72 9.12, 3.48 9.07 C3.24 9.02, 3 8.95, 2.77 8.86 C2.54 8.77, 2.31 8.66, 2.1 8.53 C1.89 8.39, 1.69 8.24, 1.5 8.07 C1.32 7.9, 1.14 7.71, 0.98 7.51 C0.83 7.3, 0.69 7.08, 0.56 6.85 C0.44 6.63, 0.34 6.38, 0.25 6.13 C0.17 5.88, 0.11 5.62, 0.06 5.36 C0.02 5.1, 0 4.83, 0 4.57 C0 4.31, 0.02 4.04, 0.06 3.78 C0.11 3.52, 0.17 3.26, 0.25 3.01 C0.34 2.76, 0.44 2.51, 0.56 2.28 C0.69 2.06, 0.83 1.83, 0.98 1.63 C1.14 1.43, 1.32 1.24, 1.5 1.07 C1.69 0.9, 1.89 0.74, 2.1 0.61 C2.31 0.48, 2.54 0.37, 2.77 0.28 C3 0.19, 3.24 0.12, 3.48 0.07 C3.72 0.02, 3.96 0, 4.21 0 C4.45 0, 4.7 0.02, 4.94 0.07 C5.18 0.12, 5.42 0.19, 5.65 0.28 C5.87 0.37, 6.1 0.48, 6.31 0.61 C6.52 0.74, 6.72 0.9, 6.91 1.07 C7.1 1.24, 7.27 1.43, 7.43 1.63 C7.59 1.83, 7.73 2.06, 7.85 2.28 C7.97 2.51, 8.08 2.76, 8.16 3.01 C8.24 3.26, 8.31 3.52, 8.35 3.78 C8.39 4.04, 8.4 4.44, 8.41 4.57 C8.42 4.7, 8.42 4.44, 8.41 4.57" stroke="#5f3dc4" stroke-width="1" fill="none"></path></g><g stroke-linecap="round" transform="translate(36.264712447584316 55.20801672912785) rotate(358.1310915065084 4.2070221584958745 4.569555668486828)"><path d="M8.41 4.57 C8.41 4.83, 8.39 5.1, 8.35 5.36 C8.31 5.62, 8.24 5.88, 8.16 6.13 C8.08 6.38, 7.97 6.63, 7.85 6.85 C7.73 7.08, 7.59 7.3, 7.43 7.51 C7.27 7.71, 7.1 7.9, 6.91 8.07 C6.72 8.24, 6.52 8.39, 6.31 8.53 C6.1 8.66, 5.87 8.77, 5.65 8.86 C5.42 8.95, 5.18 9.02, 4.94 9.07 C4.7 9.12, 4.45 9.14, 4.21 9.14 C3.96 9.14, 3.72 9.12, 3.48 9.07 C3.24 9.02, 3 8.95, 2.77 8.86 C2.54 8.77, 2.31 8.66, 2.1 8.53 C1.89 8.39, 1.69 8.24, 1.5 8.07 C1.32 7.9, 1.14 7.71, 0.98 7.51 C0.83 7.3, 0.69 7.08, 0.56 6.85 C0.44 6.63, 0.34 6.38, 0.25 6.13 C0.17 5.88, 0.11 5.62, 0.06 5.36 C0.02 5.1, 0 4.83, 0 4.57 C0 4.31, 0.02 4.04, 0.06 3.78 C0.11 3.52, 0.17 3.26, 0.25 3.01 C0.34 2.76, 0.44 2.51, 0.56 2.28 C0.69 2.06, 0.83 1.83, 0.98 1.63 C1.14 1.43, 1.32 1.24, 1.5 1.07 C1.69 0.9, 1.89 0.74, 2.1 0.61 C2.31 0.48, 2.54 0.37, 2.77 0.28 C3 0.19, 3.24 0.12, 3.48 0.07 C3.72 0.02, 3.96 0, 4.21 0 C4.45 0, 4.7 0.02, 4.94 0.07 C5.18 0.12, 5.42 0.19, 5.65 0.28 C5.87 0.37, 6.1 0.48, 6.31 0.61 C6.52 0.74, 6.72 0.9, 6.91 1.07 C7.1 1.24, 7.27 1.43, 7.43 1.63 C7.59 1.83, 7.73 2.06, 7.85 2.28 C7.97 2.51, 8.08 2.76, 8.16 3.01 C8.24 3.26, 8.31 3.52, 8.35 3.78 C8.39 4.04, 8.4 4.44, 8.41 4.57 C8.42 4.7, 8.42 4.44, 8.41 4.57" stroke="none" stroke-width="0" fill="#7950f2"></path><path d="M8.41 4.57 C8.41 4.83, 8.39 5.1, 8.35 5.36 C8.31 5.62, 8.24 5.88, 8.16 6.13 C8.08 6.38, 7.97 6.63, 7.85 6.85 C7.73 7.08, 7.59 7.3, 7.43 7.51 C7.27 7.71, 7.1 7.9, 6.91 8.07 C6.72 8.24, 6.52 8.39, 6.31 8.53 C6.1 8.66, 5.87 8.77, 5.65 8.86 C5.42 8.95, 5.18 9.02, 4.94 9.07 C4.7 9.12, 4.45 9.14, 4.21 9.14 C3.96 9.14, 3.72 9.12, 3.48 9.07 C3.24 9.02, 3 8.95, 2.77 8.86 C2.54 8.77, 2.31 8.66, 2.1 8.53 C1.89 8.39, 1.69 8.24, 1.5 8.07 C1.32 7.9, 1.14 7.71, 0.98 7.51 C0.83 7.3, 0.69 7.08, 0.56 6.85 C0.44 6.63, 0.34 6.38, 0.25 6.13 C0.17 5.88, 0.11 5.62, 0.06 5.36 C0.02 5.1, 0 4.83, 0 4.57 C0 4.31, 0.02 4.04, 0.06 3.78 C0.11 3.52, 0.17 3.26, 0.25 3.01 C0.34 2.76, 0.44 2.51, 0.56 2.28 C0.69 2.06, 0.83 1.83, 0.98 1.63 C1.14 1.43, 1.32 1.24, 1.5 1.07 C1.69 0.9, 1.89 0.74, 2.1 0.61 C2.31 0.48, 2.54 0.37, 2.77 0.28 C3 0.19, 3.24 0.12, 3.48 0.07 C3.72 0.02, 3.96 0, 4.21 0 C4.45 0, 4.7 0.02, 4.94 0.07 C5.18 0.12, 5.42 0.19, 5.65 0.28 C5.87 0.37, 6.1 0.48, 6.31 0.61 C6.52 0.74, 6.72 0.9, 6.91 1.07 C7.1 1.24, 7.27 1.43, 7.43 1.63 C7.59 1.83, 7.73 2.06, 7.85 2.28 C7.97 2.51, 8.08 2.76, 8.16 3.01 C8.24 3.26, 8.31 3.52, 8.35 3.78 C8.39 4.04, 8.4 4.44, 8.41 4.57 C8.42 4.7, 8.42 4.44, 8.41 4.57" stroke="#5f3dc4" stroke-width="1" fill="none"></path></g><g stroke-linecap="round" transform="translate(50.80210682272809 41.11012782340549) rotate(358.1310915065084 4.171683969157584 4.569555668486828)"><path d="M8.34 4.57 C8.34 4.83, 8.32 5.1, 8.28 5.36 C8.24 5.62, 8.17 5.88, 8.09 6.13 C8.01 6.38, 7.91 6.63, 7.78 6.85 C7.66 7.08, 7.52 7.3, 7.37 7.51 C7.21 7.71, 7.04 7.9, 6.85 8.07 C6.67 8.24, 6.47 8.39, 6.26 8.53 C6.05 8.66, 5.83 8.77, 5.6 8.86 C5.37 8.95, 5.13 9.02, 4.9 9.07 C4.66 9.12, 4.41 9.14, 4.17 9.14 C3.93 9.14, 3.69 9.12, 3.45 9.07 C3.21 9.02, 2.97 8.95, 2.74 8.86 C2.52 8.77, 2.29 8.66, 2.09 8.53 C1.88 8.39, 1.68 8.24, 1.49 8.07 C1.31 7.9, 1.13 7.71, 0.98 7.51 C0.82 7.3, 0.68 7.08, 0.56 6.85 C0.44 6.63, 0.33 6.38, 0.25 6.13 C0.17 5.88, 0.11 5.62, 0.06 5.36 C0.02 5.1, 0 4.83, 0 4.57 C0 4.31, 0.02 4.04, 0.06 3.78 C0.11 3.52, 0.17 3.26, 0.25 3.01 C0.33 2.76, 0.44 2.51, 0.56 2.28 C0.68 2.06, 0.82 1.83, 0.98 1.63 C1.13 1.43, 1.31 1.24, 1.49 1.07 C1.68 0.9, 1.88 0.74, 2.09 0.61 C2.29 0.48, 2.52 0.37, 2.74 0.28 C2.97 0.19, 3.21 0.12, 3.45 0.07 C3.69 0.02, 3.93 0, 4.17 0 C4.41 0, 4.66 0.02, 4.9 0.07 C5.13 0.12, 5.37 0.19, 5.6 0.28 C5.83 0.37, 6.05 0.48, 6.26 0.61 C6.47 0.74, 6.67 0.9, 6.85 1.07 C7.04 1.24, 7.21 1.43, 7.37 1.63 C7.52 1.83, 7.66 2.06, 7.78 2.28 C7.91 2.51, 8.01 2.76, 8.09 3.01 C8.17 3.26, 8.24 3.52, 8.28 3.78 C8.32 4.04, 8.33 4.44, 8.34 4.57 C8.35 4.7, 8.35 4.44, 8.34 4.57" stroke="none" stroke-width="0" fill="#7950f2"></path><path d="M8.34 4.57 C8.34 4.83, 8.32 5.1, 8.28 5.36 C8.24 5.62, 8.17 5.88, 8.09 6.13 C8.01 6.38, 7.91 6.63, 7.78 6.85 C7.66 7.08, 7.52 7.3, 7.37 7.51 C7.21 7.71, 7.04 7.9, 6.85 8.07 C6.67 8.24, 6.47 8.39, 6.26 8.53 C6.05 8.66, 5.83 8.77, 5.6 8.86 C5.37 8.95, 5.13 9.02, 4.9 9.07 C4.66 9.12, 4.41 9.14, 4.17 9.14 C3.93 9.14, 3.69 9.12, 3.45 9.07 C3.21 9.02, 2.97 8.95, 2.74 8.86 C2.52 8.77, 2.29 8.66, 2.09 8.53 C1.88 8.39, 1.68 8.24, 1.49 8.07 C1.31 7.9, 1.13 7.71, 0.98 7.51 C0.82 7.3, 0.68 7.08, 0.56 6.85 C0.44 6.63, 0.33 6.38, 0.25 6.13 C0.17 5.88, 0.11 5.62, 0.06 5.36 C0.02 5.1, 0 4.83, 0 4.57 C0 4.31, 0.02 4.04, 0.06 3.78 C0.11 3.52, 0.17 3.26, 0.25 3.01 C0.33 2.76, 0.44 2.51, 0.56 2.28 C0.68 2.06, 0.82 1.83, 0.98 1.63 C1.13 1.43, 1.31 1.24, 1.49 1.07 C1.68 0.9, 1.88 0.74, 2.09 0.61 C2.29 0.48, 2.52 0.37, 2.74 0.28 C2.97 0.19, 3.21 0.12, 3.45 0.07 C3.69 0.02, 3.93 0, 4.17 0 C4.41 0, 4.66 0.02, 4.9 0.07 C5.13 0.12, 5.37 0.19, 5.6 0.28 C5.83 0.37, 6.05 0.48, 6.26 0.61 C6.47 0.74, 6.67 0.9, 6.85 1.07 C7.04 1.24, 7.21 1.43, 7.37 1.63 C7.52 1.83, 7.66 2.06, 7.78 2.28 C7.91 2.51, 8.01 2.76, 8.09 3.01 C8.17 3.26, 8.24 3.52, 8.28 3.78 C8.32 4.04, 8.33 4.44, 8.34 4.57 C8.35 4.7, 8.35 4.44, 8.34 4.57" stroke="#5f3dc4" stroke-width="1" fill="none"></path></g><g stroke-linecap="round" transform="translate(63.948011490247154 23.76123119100521) rotate(358.1310915065084 4.2070221584958745 4.569555668486828)"><path d="M8.41 4.57 C8.41 4.83, 8.39 5.1, 8.35 5.36 C8.31 5.62, 8.24 5.88, 8.16 6.13 C8.08 6.38, 7.97 6.63, 7.85 6.85 C7.73 7.08, 7.59 7.3, 7.43 7.51 C7.27 7.71, 7.1 7.9, 6.91 8.07 C6.72 8.24, 6.52 8.39, 6.31 8.53 C6.1 8.66, 5.87 8.77, 5.65 8.86 C5.42 8.95, 5.18 9.02, 4.94 9.07 C4.7 9.12, 4.45 9.14, 4.21 9.14 C3.96 9.14, 3.72 9.12, 3.48 9.07 C3.24 9.02, 3 8.95, 2.77 8.86 C2.54 8.77, 2.31 8.66, 2.1 8.53 C1.89 8.39, 1.69 8.24, 1.5 8.07 C1.32 7.9, 1.14 7.71, 0.98 7.51 C0.83 7.3, 0.69 7.08, 0.56 6.85 C0.44 6.63, 0.34 6.38, 0.25 6.13 C0.17 5.88, 0.11 5.62, 0.06 5.36 C0.02 5.1, 0 4.83, 0 4.57 C0 4.31, 0.02 4.04, 0.06 3.78 C0.11 3.52, 0.17 3.26, 0.25 3.01 C0.34 2.76, 0.44 2.51, 0.56 2.28 C0.69 2.06, 0.83 1.83, 0.98 1.63 C1.14 1.43, 1.32 1.24, 1.5 1.07 C1.69 0.9, 1.89 0.74, 2.1 0.61 C2.31 0.48, 2.54 0.37, 2.77 0.28 C3 0.19, 3.24 0.12, 3.48 0.07 C3.72 0.02, 3.96 0, 4.21 0 C4.45 0, 4.7 0.02, 4.94 0.07 C5.18 0.12, 5.42 0.19, 5.65 0.28 C5.87 0.37, 6.1 0.48, 6.31 0.61 C6.52 0.74, 6.72 0.9, 6.91 1.07 C7.1 1.24, 7.27 1.43, 7.43 1.63 C7.59 1.83, 7.73 2.06, 7.85 2.28 C7.97 2.51, 8.08 2.76, 8.16 3.01 C8.24 3.26, 8.31 3.52, 8.35 3.78 C8.39 4.04, 8.4 4.44, 8.41 4.57 C8.42 4.7, 8.42 4.44, 8.41 4.57" stroke="none" stroke-width="0" fill="#7950f2"></path><path d="M8.41 4.57 C8.41 4.83, 8.39 5.1, 8.35 5.36 C8.31 5.62, 8.24 5.88, 8.16 6.13 C8.08 6.38, 7.97 6.63, 7.85 6.85 C7.73 7.08, 7.59 7.3, 7.43 7.51 C7.27 7.71, 7.1 7.9, 6.91 8.07 C6.72 8.24, 6.52 8.39, 6.31 8.53 C6.1 8.66, 5.87 8.77, 5.65 8.86 C5.42 8.95, 5.18 9.02, 4.94 9.07 C4.7 9.12, 4.45 9.14, 4.21 9.14 C3.96 9.14, 3.72 9.12, 3.48 9.07 C3.24 9.02, 3 8.95, 2.77 8.86 C2.54 8.77, 2.31 8.66, 2.1 8.53 C1.89 8.39, 1.69 8.24, 1.5 8.07 C1.32 7.9, 1.14 7.71, 0.98 7.51 C0.83 7.3, 0.69 7.08, 0.56 6.85 C0.44 6.63, 0.34 6.38, 0.25 6.13 C0.17 5.88, 0.11 5.62, 0.06 5.36 C0.02 5.1, 0 4.83, 0 4.57 C0 4.31, 0.02 4.04, 0.06 3.78 C0.11 3.52, 0.17 3.26, 0.25 3.01 C0.34 2.76, 0.44 2.51, 0.56 2.28 C0.69 2.06, 0.83 1.83, 0.98 1.63 C1.14 1.43, 1.32 1.24, 1.5 1.07 C1.69 0.9, 1.89 0.74, 2.1 0.61 C2.31 0.48, 2.54 0.37, 2.77 0.28 C3 0.19, 3.24 0.12, 3.48 0.07 C3.72 0.02, 3.96 0, 4.21 0 C4.45 0, 4.7 0.02, 4.94 0.07 C5.18 0.12, 5.42 0.19, 5.65 0.28 C5.87 0.37, 6.1 0.48, 6.31 0.61 C6.52 0.74, 6.72 0.9, 6.91 1.07 C7.1 1.24, 7.27 1.43, 7.43 1.63 C7.59 1.83, 7.73 2.06, 7.85 2.28 C7.97 2.51, 8.08 2.76, 8.16 3.01 C8.24 3.26, 8.31 3.52, 8.35 3.78 C8.39 4.04, 8.4 4.44, 8.41 4.57 C8.42 4.7, 8.42 4.44, 8.41 4.57" stroke="#5f3dc4" stroke-width="1" fill="none"></path></g><g stroke-linecap="round" transform="translate(65.99902107241724 56.774596218681836) rotate(358.1310915065084 4.2070221584958745 4.569555668486828)"><path d="M8.41 4.57 C8.41 4.83, 8.39 5.1, 8.35 5.36 C8.31 5.62, 8.24 5.88, 8.16 6.13 C8.08 6.38, 7.97 6.63, 7.85 6.85 C7.73 7.08, 7.59 7.3, 7.43 7.51 C7.27 7.71, 7.1 7.9, 6.91 8.07 C6.72 8.24, 6.52 8.39, 6.31 8.53 C6.1 8.66, 5.87 8.77, 5.65 8.86 C5.42 8.95, 5.18 9.02, 4.94 9.07 C4.7 9.12, 4.45 9.14, 4.21 9.14 C3.96 9.14, 3.72 9.12, 3.48 9.07 C3.24 9.02, 3 8.95, 2.77 8.86 C2.54 8.77, 2.31 8.66, 2.1 8.53 C1.89 8.39, 1.69 8.24, 1.5 8.07 C1.32 7.9, 1.14 7.71, 0.98 7.51 C0.83 7.3, 0.69 7.08, 0.56 6.85 C0.44 6.63, 0.34 6.38, 0.25 6.13 C0.17 5.88, 0.11 5.62, 0.06 5.36 C0.02 5.1, 0 4.83, 0 4.57 C0 4.31, 0.02 4.04, 0.06 3.78 C0.11 3.52, 0.17 3.26, 0.25 3.01 C0.34 2.76, 0.44 2.51, 0.56 2.28 C0.69 2.06, 0.83 1.83, 0.98 1.63 C1.14 1.43, 1.32 1.24, 1.5 1.07 C1.69 0.9, 1.89 0.74, 2.1 0.61 C2.31 0.48, 2.54 0.37, 2.77 0.28 C3 0.19, 3.24 0.12, 3.48 0.07 C3.72 0.02, 3.96 0, 4.21 0 C4.45 0, 4.7 0.02, 4.94 0.07 C5.18 0.12, 5.42 0.19, 5.65 0.28 C5.87 0.37, 6.1 0.48, 6.31 0.61 C6.52 0.74, 6.72 0.9, 6.91 1.07 C7.1 1.24, 7.27 1.43, 7.43 1.63 C7.59 1.83, 7.73 2.06, 7.85 2.28 C7.97 2.51, 8.08 2.76, 8.16 3.01 C8.24 3.26, 8.31 3.52, 8.35 3.78 C8.39 4.04, 8.4 4.44, 8.41 4.57 C8.42 4.7, 8.42 4.44, 8.41 4.57" stroke="none" stroke-width="0" fill="#7950f2"></path><path d="M8.41 4.57 C8.41 4.83, 8.39 5.1, 8.35 5.36 C8.31 5.62, 8.24 5.88, 8.16 6.13 C8.08 6.38, 7.97 6.63, 7.85 6.85 C7.73 7.08, 7.59 7.3, 7.43 7.51 C7.27 7.71, 7.1 7.9, 6.91 8.07 C6.72 8.24, 6.52 8.39, 6.31 8.53 C6.1 8.66, 5.87 8.77, 5.65 8.86 C5.42 8.95, 5.18 9.02, 4.94 9.07 C4.7 9.12, 4.45 9.14, 4.21 9.14 C3.96 9.14, 3.72 9.12, 3.48 9.07 C3.24 9.02, 3 8.95, 2.77 8.86 C2.54 8.77, 2.31 8.66, 2.1 8.53 C1.89 8.39, 1.69 8.24, 1.5 8.07 C1.32 7.9, 1.14 7.71, 0.98 7.51 C0.83 7.3, 0.69 7.08, 0.56 6.85 C0.44 6.63, 0.34 6.38, 0.25 6.13 C0.17 5.88, 0.11 5.62, 0.06 5.36 C0.02 5.1, 0 4.83, 0 4.57 C0 4.31, 0.02 4.04, 0.06 3.78 C0.11 3.52, 0.17 3.26, 0.25 3.01 C0.34 2.76, 0.44 2.51, 0.56 2.28 C0.69 2.06, 0.83 1.83, 0.98 1.63 C1.14 1.43, 1.32 1.24, 1.5 1.07 C1.69 0.9, 1.89 0.74, 2.1 0.61 C2.31 0.48, 2.54 0.37, 2.77 0.28 C3 0.19, 3.24 0.12, 3.48 0.07 C3.72 0.02, 3.96 0, 4.21 0 C4.45 0, 4.7 0.02, 4.94 0.07 C5.18 0.12, 5.42 0.19, 5.65 0.28 C5.87 0.37, 6.1 0.48, 6.31 0.61 C6.52 0.74, 6.72 0.9, 6.91 1.07 C7.1 1.24, 7.27 1.43, 7.43 1.63 C7.59 1.83, 7.73 2.06, 7.85 2.28 C7.97 2.51, 8.08 2.76, 8.16 3.01 C8.24 3.26, 8.31 3.52, 8.35 3.78 C8.39 4.04, 8.4 4.44, 8.41 4.57 C8.42 4.7, 8.42 4.44, 8.41 4.57" stroke="#5f3dc4" stroke-width="1" fill="none"></path></g><g stroke-linecap="round" transform="translate(35.86705280566093 24.102192212158116) rotate(358.1310915065084 3.729693932574719 3.867855952339596)"><path d="M7.46 3.87 C7.46 4.09, 7.44 4.32, 7.4 4.54 C7.37 4.76, 7.31 4.98, 7.23 5.19 C7.16 5.4, 7.07 5.61, 6.96 5.8 C6.85 6, 6.73 6.18, 6.59 6.35 C6.45 6.53, 6.29 6.69, 6.13 6.83 C5.96 6.97, 5.78 7.11, 5.59 7.22 C5.41 7.33, 5.21 7.43, 5.01 7.5 C4.8 7.58, 4.59 7.64, 4.38 7.68 C4.16 7.72, 3.95 7.74, 3.73 7.74 C3.51 7.74, 3.29 7.72, 3.08 7.68 C2.87 7.64, 2.66 7.58, 2.45 7.5 C2.25 7.43, 2.05 7.33, 1.86 7.22 C1.68 7.11, 1.5 6.97, 1.33 6.83 C1.17 6.69, 1.01 6.53, 0.87 6.35 C0.73 6.18, 0.61 6, 0.5 5.8 C0.39 5.61, 0.3 5.4, 0.22 5.19 C0.15 4.98, 0.09 4.76, 0.06 4.54 C0.02 4.32, 0 4.09, 0 3.87 C0 3.64, 0.02 3.42, 0.06 3.2 C0.09 2.98, 0.15 2.76, 0.22 2.54 C0.3 2.33, 0.39 2.13, 0.5 1.93 C0.61 1.74, 0.73 1.55, 0.87 1.38 C1.01 1.21, 1.17 1.05, 1.33 0.9 C1.5 0.76, 1.68 0.63, 1.86 0.52 C2.05 0.41, 2.25 0.31, 2.45 0.23 C2.66 0.16, 2.87 0.1, 3.08 0.06 C3.29 0.02, 3.51 0, 3.73 0 C3.95 0, 4.16 0.02, 4.38 0.06 C4.59 0.1, 4.8 0.16, 5.01 0.23 C5.21 0.31, 5.41 0.41, 5.59 0.52 C5.78 0.63, 5.96 0.76, 6.13 0.9 C6.29 1.05, 6.45 1.21, 6.59 1.38 C6.73 1.55, 6.85 1.74, 6.96 1.93 C7.07 2.13, 7.16 2.33, 7.23 2.54 C7.31 2.76, 7.37 2.98, 7.4 3.2 C7.44 3.42, 7.45 3.76, 7.46 3.87 C7.47 3.98, 7.47 3.76, 7.46 3.87" stroke="#fff" stroke-width="1" fill="none"></path></g><g stroke-linecap="round" transform="translate(36.64040285166993 56.31480126090901) rotate(358.1310915065084 3.729693932574719 3.867855952339596)"><path d="M7.46 3.87 C7.46 4.09, 7.44 4.32, 7.4 4.54 C7.37 4.76, 7.31 4.98, 7.23 5.19 C7.16 5.4, 7.07 5.61, 6.96 5.8 C6.85 6, 6.73 6.18, 6.59 6.35 C6.45 6.53, 6.29 6.69, 6.13 6.83 C5.96 6.97, 5.78 7.11, 5.59 7.22 C5.41 7.33, 5.21 7.43, 5.01 7.5 C4.8 7.58, 4.59 7.64, 4.38 7.68 C4.16 7.72, 3.95 7.74, 3.73 7.74 C3.51 7.74, 3.29 7.72, 3.08 7.68 C2.87 7.64, 2.66 7.58, 2.45 7.5 C2.25 7.43, 2.05 7.33, 1.86 7.22 C1.68 7.11, 1.5 6.97, 1.33 6.83 C1.17 6.69, 1.01 6.53, 0.87 6.35 C0.73 6.18, 0.61 6, 0.5 5.8 C0.39 5.61, 0.3 5.4, 0.22 5.19 C0.15 4.98, 0.09 4.76, 0.06 4.54 C0.02 4.32, 0 4.09, 0 3.87 C0 3.64, 0.02 3.42, 0.06 3.2 C0.09 2.98, 0.15 2.76, 0.22 2.54 C0.3 2.33, 0.39 2.13, 0.5 1.93 C0.61 1.74, 0.73 1.55, 0.87 1.38 C1.01 1.21, 1.17 1.05, 1.33 0.9 C1.5 0.76, 1.68 0.63, 1.86 0.52 C2.05 0.41, 2.25 0.31, 2.45 0.23 C2.66 0.16, 2.87 0.1, 3.08 0.06 C3.29 0.02, 3.51 0, 3.73 0 C3.95 0, 4.16 0.02, 4.38 0.06 C4.59 0.1, 4.8 0.16, 5.01 0.23 C5.21 0.31, 5.41 0.41, 5.59 0.52 C5.78 0.63, 5.96 0.76, 6.13 0.9 C6.29 1.05, 6.45 1.21, 6.59 1.38 C6.73 1.55, 6.85 1.74, 6.96 1.93 C7.07 2.13, 7.16 2.33, 7.23 2.54 C7.31 2.76, 7.37 2.98, 7.4 3.2 C7.44 3.42, 7.45 3.76, 7.46 3.87 C7.47 3.98, 7.47 3.76, 7.46 3.87" stroke="#fff" stroke-width="1" fill="none"></path></g><g stroke-linecap="round" transform="translate(51.205882261758234 41.58208384311729) rotate(358.1310915065084 3.724686267937159 3.7725718007777687)"><path d="M7.45 3.77 C7.45 3.99, 7.43 4.21, 7.39 4.43 C7.36 4.64, 7.3 4.86, 7.22 5.06 C7.15 5.27, 7.06 5.47, 6.95 5.66 C6.84 5.85, 6.72 6.03, 6.58 6.2 C6.44 6.36, 6.28 6.52, 6.12 6.66 C5.95 6.8, 5.77 6.93, 5.59 7.04 C5.4 7.15, 5.2 7.24, 5 7.32 C4.8 7.39, 4.58 7.45, 4.37 7.49 C4.16 7.53, 3.94 7.55, 3.72 7.55 C3.51 7.55, 3.29 7.53, 3.08 7.49 C2.87 7.45, 2.65 7.39, 2.45 7.32 C2.25 7.24, 2.05 7.15, 1.86 7.04 C1.68 6.93, 1.5 6.8, 1.33 6.66 C1.17 6.52, 1.01 6.36, 0.87 6.2 C0.73 6.03, 0.61 5.85, 0.5 5.66 C0.39 5.47, 0.3 5.27, 0.22 5.06 C0.15 4.86, 0.09 4.64, 0.06 4.43 C0.02 4.21, 0 3.99, 0 3.77 C0 3.55, 0.02 3.33, 0.06 3.12 C0.09 2.9, 0.15 2.69, 0.22 2.48 C0.3 2.28, 0.39 2.08, 0.5 1.89 C0.61 1.7, 0.73 1.51, 0.87 1.35 C1.01 1.18, 1.17 1.02, 1.33 0.88 C1.5 0.74, 1.68 0.61, 1.86 0.51 C2.05 0.4, 2.25 0.3, 2.45 0.23 C2.65 0.15, 2.87 0.1, 3.08 0.06 C3.29 0.02, 3.51 0, 3.72 0 C3.94 0, 4.16 0.02, 4.37 0.06 C4.58 0.1, 4.8 0.15, 5 0.23 C5.2 0.3, 5.4 0.4, 5.59 0.51 C5.77 0.61, 5.95 0.74, 6.12 0.88 C6.28 1.02, 6.44 1.18, 6.58 1.35 C6.72 1.51, 6.84 1.7, 6.95 1.89 C7.06 2.08, 7.15 2.28, 7.22 2.48 C7.3 2.69, 7.36 2.9, 7.39 3.12 C7.43 3.33, 7.44 3.66, 7.45 3.77 C7.46 3.88, 7.46 3.66, 7.45 3.77" stroke="#fff" stroke-width="1" fill="none"></path></g><g stroke-linecap="round" transform="translate(64.75780910023241 24.666303709615022) rotate(358.1310915065084 3.325364728417753 3.7725718007777687)"><path d="M6.65 3.77 C6.65 3.99, 6.63 4.21, 6.6 4.43 C6.57 4.64, 6.52 4.86, 6.45 5.06 C6.38 5.27, 6.3 5.47, 6.21 5.66 C6.11 5.85, 6 6.03, 5.87 6.2 C5.75 6.36, 5.61 6.52, 5.46 6.66 C5.32 6.8, 5.15 6.93, 4.99 7.04 C4.82 7.15, 4.64 7.24, 4.46 7.32 C4.28 7.39, 4.09 7.45, 3.9 7.49 C3.71 7.53, 3.52 7.55, 3.33 7.55 C3.13 7.55, 2.94 7.53, 2.75 7.49 C2.56 7.45, 2.37 7.39, 2.19 7.32 C2.01 7.24, 1.83 7.15, 1.66 7.04 C1.5 6.93, 1.34 6.8, 1.19 6.66 C1.04 6.52, 0.9 6.36, 0.78 6.2 C0.65 6.03, 0.54 5.85, 0.45 5.66 C0.35 5.47, 0.27 5.27, 0.2 5.06 C0.13 4.86, 0.08 4.64, 0.05 4.43 C0.02 4.21, 0 3.99, 0 3.77 C0 3.55, 0.02 3.33, 0.05 3.12 C0.08 2.9, 0.13 2.69, 0.2 2.48 C0.27 2.28, 0.35 2.08, 0.45 1.89 C0.54 1.7, 0.65 1.51, 0.78 1.35 C0.9 1.18, 1.04 1.02, 1.19 0.88 C1.34 0.74, 1.5 0.61, 1.66 0.51 C1.83 0.4, 2.01 0.3, 2.19 0.23 C2.37 0.15, 2.56 0.1, 2.75 0.06 C2.94 0.02, 3.13 0, 3.33 0 C3.52 0, 3.71 0.02, 3.9 0.06 C4.09 0.1, 4.28 0.15, 4.46 0.23 C4.64 0.3, 4.82 0.4, 4.99 0.51 C5.15 0.61, 5.32 0.74, 5.46 0.88 C5.61 1.02, 5.75 1.18, 5.87 1.35 C6 1.51, 6.11 1.7, 6.21 1.89 C6.3 2.08, 6.38 2.28, 6.45 2.48 C6.52 2.69, 6.57 2.9, 6.6 3.12 C6.63 3.33, 6.64 3.66, 6.65 3.77 C6.66 3.88, 6.66 3.66, 6.65 3.77" stroke="#fff" stroke-width="1" fill="none"></path></g><g stroke-linecap="round" transform="translate(67.28340173700053 57.47652852575993) rotate(358.1310915065084 2.9417847459671975 3.7725718007777687)"><path d="M5.88 3.77 C5.88 3.99, 5.87 4.21, 5.84 4.43 C5.81 4.64, 5.76 4.86, 5.71 5.06 C5.65 5.27, 5.57 5.47, 5.49 5.66 C5.4 5.85, 5.3 6.03, 5.2 6.2 C5.09 6.36, 4.96 6.52, 4.83 6.66 C4.7 6.8, 4.56 6.93, 4.41 7.04 C4.27 7.15, 4.11 7.24, 3.95 7.32 C3.79 7.39, 3.62 7.45, 3.45 7.49 C3.28 7.53, 3.11 7.55, 2.94 7.55 C2.77 7.55, 2.6 7.53, 2.43 7.49 C2.26 7.45, 2.1 7.39, 1.94 7.32 C1.78 7.24, 1.62 7.15, 1.47 7.04 C1.32 6.93, 1.18 6.8, 1.05 6.66 C0.92 6.52, 0.8 6.36, 0.69 6.2 C0.58 6.03, 0.48 5.85, 0.39 5.66 C0.31 5.47, 0.24 5.27, 0.18 5.06 C0.12 4.86, 0.07 4.64, 0.04 4.43 C0.02 4.21, 0 3.99, 0 3.77 C0 3.55, 0.02 3.33, 0.04 3.12 C0.07 2.9, 0.12 2.69, 0.18 2.48 C0.24 2.28, 0.31 2.08, 0.39 1.89 C0.48 1.7, 0.58 1.51, 0.69 1.35 C0.8 1.18, 0.92 1.02, 1.05 0.88 C1.18 0.74, 1.32 0.61, 1.47 0.51 C1.62 0.4, 1.78 0.3, 1.94 0.23 C2.1 0.15, 2.26 0.1, 2.43 0.06 C2.6 0.02, 2.77 0, 2.94 0 C3.11 0, 3.28 0.02, 3.45 0.06 C3.62 0.1, 3.79 0.15, 3.95 0.23 C4.11 0.3, 4.27 0.4, 4.41 0.51 C4.56 0.61, 4.7 0.74, 4.83 0.88 C4.96 1.02, 5.09 1.18, 5.2 1.35 C5.3 1.51, 5.4 1.7, 5.49 1.89 C5.57 2.08, 5.65 2.28, 5.71 2.48 C5.76 2.69, 5.81 2.9, 5.84 3.12 C5.87 3.33, 5.88 3.66, 5.88 3.77 C5.89 3.88, 5.89 3.66, 5.88 3.77" stroke="#fff" stroke-width="1" fill="none"></path></g><g stroke-opacity="0.3" fill-opacity="0.3" stroke-linecap="round" transform="translate(31.042832686028305 101.68223413766646) rotate(0 26.53997448612563 33.628334800137964)"><path d="M13.27 0 L42.92 0.21 L47.9 1.87 L51.21 5.18 L53.08 13.27 L53.08 53.99 L52.25 59.79 L51.21 62.07 L47.9 65.39 L39.81 67.26 L10.16 67.05 L5.18 65.39 L1.87 62.07 L0 53.99 L0.21 10.16 L1.87 5.18 L5.18 1.87 L13.27 0" stroke="none" stroke-width="0" fill="#fab005"></path><path d="M13.27 0 M13.27 0 C21.87 0, 30.48 0, 39.81 0 M13.27 0 C18.65 0, 24.04 0, 39.81 0 M39.81 0 C48.66 0, 53.08 4.42, 53.08 13.27 M39.81 0 C48.66 0, 53.08 4.42, 53.08 13.27 M53.08 13.27 C53.08 25.73, 53.08 38.2, 53.08 53.99 M53.08 13.27 C53.08 26.24, 53.08 39.2, 53.08 53.99 M53.08 53.99 C53.08 62.83, 48.66 67.26, 39.81 67.26 M53.08 53.99 C53.08 62.83, 48.66 67.26, 39.81 67.26 M39.81 67.26 C32.96 67.26, 26.12 67.26, 13.27 67.26 M39.81 67.26 C32.16 67.26, 24.51 67.26, 13.27 67.26 M13.27 67.26 C4.42 67.26, 0 62.83, 0 53.99 M13.27 67.26 C4.42 67.26, 0 62.83, 0 53.99 M0 53.99 C0 38.17, 0 22.36, 0 13.27 M0 53.99 C0 41.24, 0 28.5, 0 13.27 M0 13.27 C0 4.42, 4.42 0, 13.27 0 M0 13.27 C0 4.42, 4.42 0, 13.27 0" stroke="#000000" stroke-width="1" fill="none"></path></g><g stroke-opacity="0.3" fill-opacity="0.3" transform="translate(38.57900644862184 122.6683384046537) rotate(0 18.61998748779297 12.5)"><text x="18.61998748779297" y="0" font-family="Virgil, Segoe UI Emoji" font-size="20px" fill="#000000" text-anchor="middle" style="white-space: pre;" direction="ltr" dominant-baseline="text-before-edge">API</text></g></svg>