<svg version="1.1" xmlns="http://www.w3.org/2000/svg" viewBox="0 0 877.1437574091278 585.210198087414">
  <!-- svg-source:excalidraw -->

  <defs>
    <style class="style-fonts">
      @font-face {
        font-family: "Virgil";
        src: url("https://excalidraw.com/Virgil.woff2");
      }
      @font-face {
        font-family: "Cascadia";
        src: url("https://excalidraw.com/Cascadia.woff2");
      }
    </style>
  </defs>
  <rect x="0" y="0" width="877.1437574091278" height="585.210198087414" fill="#ffffff"></rect><g stroke-opacity="0.3" fill-opacity="0.3" stroke-linecap="round" transform="translate(141.02146931381776 197.77193862932654) rotate(0 141.2923237423488 35.08082347688105)"><path d="M0 0 L282.58 0 L282.58 70.16 L0 70.16" stroke="none" stroke-width="0" fill="#e64980"></path><path d="M0 0 C79.43 0, 158.87 0, 282.58 0 M0 0 C90.29 0, 180.58 0, 282.58 0 M282.58 0 C282.58 23.79, 282.58 47.57, 282.58 70.16 M282.58 0 C282.58 16.38, 282.58 32.75, 282.58 70.16 M282.58 70.16 C211.74 70.16, 140.89 70.16, 0 70.16 M282.58 70.16 C209.04 70.16, 135.49 70.16, 0 70.16 M0 70.16 C0 45.41, 0 20.65, 0 0 M0 70.16 C0 44.99, 0 19.82, 0 0" stroke="#a61e4d" stroke-width="1" fill="none"></path></g><g transform="translate(222.1495635945762 220.82431339114464) rotate(0 62.279937744140625 12.622576442911395)"><text x="0" y="0" font-family="Virgil, Segoe UI Emoji" font-size="20px" fill="#000000" text-anchor="start" style="white-space: pre;" direction="ltr" dominant-baseline="text-before-edge">Dependencies</text></g><g transform="translate(242.22622066640088 26.664194672350277) rotate(0 50.217979431152344 17.725032796771757)"><text x="0" y="0" font-family="Virgil, Segoe UI Emoji" font-size="28px" fill="#5f3dc4" text-anchor="start" style="white-space: pre;" direction="ltr" dominant-baseline="text-before-edge">Promise</text></g><g stroke-linecap="round" transform="translate(120.12601420306828 14.950481103961465) rotate(0 163.6922450162383 164.77859215932858)"><path d="M32 0 M32 0 C127.35 0, 222.71 0, 295.38 0 M32 0 C95.24 0, 158.49 0, 295.38 0 M295.38 0 C316.72 0, 327.38 10.67, 327.38 32 M295.38 0 C316.72 0, 327.38 10.67, 327.38 32 M327.38 32 C327.38 114.97, 327.38 197.94, 327.38 297.56 M327.38 32 C327.38 91.21, 327.38 150.43, 327.38 297.56 M327.38 297.56 C327.38 318.89, 316.72 329.56, 295.38 329.56 M327.38 297.56 C327.38 318.89, 316.72 329.56, 295.38 329.56 M295.38 329.56 C202.33 329.56, 109.28 329.56, 32 329.56 M295.38 329.56 C220.95 329.56, 146.52 329.56, 32 329.56 M32 329.56 C10.67 329.56, 0 318.89, 0 297.56 M32 329.56 C10.67 329.56, 0 318.89, 0 297.56 M0 297.56 C0 196.05, 0 94.55, 0 32 M0 297.56 C0 229.11, 0 160.65, 0 32 M0 32 C0 10.67, 10.67 0, 32 0 M0 32 C0 10.67, 10.67 0, 32 0" stroke="#343a40" stroke-width="2" fill="none"></path></g><g stroke-opacity="0.4" fill-opacity="0.4" stroke-linecap="round" transform="translate(700.1040999676998 28.893759225287795) rotate(0 79.70216915175013 31.370132058644685)"><path d="M4.18 3.63 C4.18 3.63, 4.18 3.63, 4.18 3.63 M4.18 3.63 C4.18 3.63, 4.18 3.63, 4.18 3.63 M1.29 13.05 C4.4 9.46, 7.52 5.88, 10.47 2.48 M1.29 13.05 C3.79 10.17, 6.29 7.29, 10.47 2.48 M1.03 19.44 C5.83 13.92, 10.63 8.39, 16.77 1.33 M1.03 19.44 C7.3 12.23, 13.56 5.02, 16.77 1.33 M1.42 25.09 C8.84 16.55, 16.26 8.02, 22.42 0.94 M1.42 25.09 C7.36 18.26, 13.29 11.44, 22.42 0.94 M1.16 31.48 C9.95 21.38, 18.73 11.27, 27.4 1.3 M1.16 31.48 C10.32 20.95, 19.48 10.41, 27.4 1.3 M1.56 37.13 C11.88 25.25, 22.21 13.36, 33.05 0.9 M1.56 37.13 C8.77 28.83, 15.99 20.52, 33.05 0.9 M1.29 43.53 C15.69 26.97, 30.08 10.41, 38.03 1.26 M1.29 43.53 C14.52 28.31, 27.75 13.1, 38.03 1.26 M0.38 50.68 C9.86 39.77, 19.34 28.86, 43.68 0.87 M0.38 50.68 C12.54 36.69, 24.69 22.7, 43.68 0.87 M2.08 54.81 C15.54 39.33, 29.01 23.84, 48.66 1.23 M2.08 54.81 C12.8 42.49, 23.51 30.16, 48.66 1.23 M4.45 58.19 C20.46 39.76, 36.48 21.34, 54.31 0.83 M4.45 58.19 C16.52 44.3, 28.59 30.42, 54.31 0.83 M6.81 61.57 C18.79 47.79, 30.77 34, 59.29 1.19 M6.81 61.57 C24.88 40.78, 42.95 19.99, 59.29 1.19 M10.48 63.44 C30.57 40.34, 50.65 17.24, 64.94 0.8 M10.48 63.44 C24.3 47.55, 38.11 31.66, 64.94 0.8 M16.13 63.04 C32.31 44.43, 48.49 25.82, 69.92 1.16 M16.13 63.04 C36.24 39.91, 56.35 16.77, 69.92 1.16 M21.11 63.4 C33.89 48.7, 46.67 34.01, 75.57 0.76 M21.11 63.4 C37.02 45.11, 52.92 26.81, 75.57 0.76 M26.76 63.01 C47.55 39.09, 68.34 15.17, 80.55 1.12 M26.76 63.01 C46.97 39.75, 67.19 16.5, 80.55 1.12 M31.74 63.37 C44.17 49.07, 56.6 34.78, 85.54 1.48 M31.74 63.37 C46.26 46.67, 60.77 29.98, 85.54 1.48 M37.39 62.98 C51.09 47.21, 64.79 31.45, 91.18 1.09 M37.39 62.98 C53.15 44.85, 68.91 26.72, 91.18 1.09 M42.37 63.34 C53.62 50.4, 64.86 37.46, 96.17 1.45 M42.37 63.34 C60.41 42.59, 78.44 21.85, 96.17 1.45 M48.02 62.94 C62.19 46.63, 76.37 30.32, 101.81 1.05 M48.02 62.94 C61.7 47.21, 75.37 31.47, 101.81 1.05 M53 63.3 C66.94 47.27, 80.87 31.25, 106.8 1.41 M53 63.3 C73.05 40.24, 93.1 17.18, 106.8 1.41 M58.65 62.91 C72.65 46.8, 86.66 30.68, 112.44 1.02 M58.65 62.91 C73.42 45.92, 88.18 28.93, 112.44 1.02 M63.63 63.27 C74.94 50.26, 86.25 37.26, 117.43 1.38 M63.63 63.27 C79.91 44.55, 96.18 25.83, 117.43 1.38 M69.28 62.87 C84.42 45.45, 99.56 28.04, 123.07 0.99 M69.28 62.87 C88.35 40.93, 107.42 18.99, 123.07 0.99 M74.26 63.23 C92.07 42.75, 109.87 22.27, 128.06 1.35 M74.26 63.23 C94.75 39.66, 115.24 16.09, 128.06 1.35 M79.91 62.84 C93.48 47.22, 107.05 31.61, 133.7 0.95 M79.91 62.84 C100.4 39.26, 120.89 15.69, 133.7 0.95 M84.89 63.2 C97.21 49.03, 109.52 34.87, 138.69 1.31 M84.89 63.2 C101.03 44.63, 117.17 26.07, 138.69 1.31 M90.54 62.8 C105.99 45.02, 121.45 27.24, 144.33 0.92 M90.54 62.8 C102.72 48.79, 114.89 34.79, 144.33 0.92 M95.52 63.16 C114.37 41.48, 133.22 19.8, 149.32 1.28 M95.52 63.16 C111.02 45.34, 126.51 27.52, 149.32 1.28 M101.17 62.77 C121.39 39.51, 141.6 16.25, 153 3.15 M101.17 62.77 C114.09 47.9, 127.02 33.03, 153 3.15 M106.15 63.13 C120.35 46.8, 134.55 30.47, 156.67 5.02 M106.15 63.13 C116.7 50.99, 127.25 38.86, 156.67 5.02 M111.8 62.73 C128.25 43.81, 144.7 24.88, 158.38 9.15 M111.8 62.73 C130.18 41.59, 148.56 20.44, 158.38 9.15 M116.78 63.09 C127.41 50.87, 138.04 38.64, 160.08 13.28 M116.78 63.09 C128.15 50.02, 139.52 36.94, 160.08 13.28 M121.77 63.45 C131.77 51.95, 141.77 40.45, 160.48 18.93 M121.77 63.45 C133.09 50.44, 144.4 37.42, 160.48 18.93 M127.41 63.06 C134.22 55.23, 141.02 47.41, 160.22 25.32 M127.41 63.06 C136.76 52.31, 146.11 41.55, 160.22 25.32 M132.4 63.42 C143.01 51.21, 153.63 39, 160.61 30.97 M132.4 63.42 C142.53 51.77, 152.66 40.12, 160.61 30.97 M138.04 63.03 C146.29 53.54, 154.53 44.06, 160.35 37.36 M138.04 63.03 C143.58 56.66, 149.11 50.3, 160.35 37.36 M143.03 63.39 C147.75 57.95, 152.48 52.52, 160.75 43.01 M143.03 63.39 C148.29 57.33, 153.55 51.28, 160.75 43.01 M148.68 62.99 C152.09 59.06, 155.5 55.14, 161.14 48.65 M148.68 62.99 C153.16 57.84, 157.64 52.68, 161.14 48.65 M5.87 60.31 C5.87 60.31, 5.87 60.31, 5.87 60.31 M5.87 60.31 C5.87 60.31, 5.87 60.31, 5.87 60.31 M10.76 59.26 C7.58 56.5, 4.4 53.73, 0.19 50.08 M10.76 59.26 C6.92 55.93, 3.09 52.59, 0.19 50.08 M17.91 60.18 C13.58 56.42, 9.25 52.65, 0.55 45.09 M17.91 60.18 C13.99 56.77, 10.08 53.37, 0.55 45.09 M24.31 60.44 C15.63 52.89, 6.95 45.35, 0.91 40.1 M24.31 60.44 C18.73 55.59, 13.15 50.74, 0.91 40.1 M29.95 60.05 C23.87 54.76, 17.78 49.47, 0.52 34.46 M29.95 60.05 C19.63 51.07, 9.3 42.1, 0.52 34.46 M36.35 60.31 C27.73 52.81, 19.11 45.32, 0.88 29.47 M36.35 60.31 C25.66 51.02, 14.97 41.72, 0.88 29.47 M41.99 59.91 C30.94 50.3, 19.88 40.69, 0.49 23.83 M41.99 59.91 C33.04 52.13, 24.08 44.34, 0.49 23.83 M48.39 60.17 C38.17 51.29, 27.94 42.4, 0.85 18.84 M48.39 60.17 C33.98 47.65, 19.57 35.12, 0.85 18.84 M54.79 60.44 C36.67 44.69, 18.56 28.94, 0.45 13.2 M54.79 60.44 C41.06 48.5, 27.33 36.57, 0.45 13.2 M60.43 60.04 C47.24 48.57, 34.04 37.1, 1.57 8.87 M60.43 60.04 C40.94 43.09, 21.44 26.15, 1.57 8.87 M66.83 60.3 C54.02 49.17, 41.22 38.04, 3.44 5.19 M66.83 60.3 C42.78 39.39, 18.72 18.48, 3.44 5.19 M72.47 59.91 C49.46 39.9, 26.44 19.89, 6.06 2.18 M72.47 59.91 C51.94 42.06, 31.41 24.21, 6.06 2.18 M78.87 60.17 C61.13 44.75, 43.4 29.33, 9.44 -0.19 M78.87 60.17 C58.04 42.06, 37.22 23.96, 9.44 -0.19 M85.27 60.43 C64.61 42.47, 43.95 24.51, 15.84 0.07 M85.27 60.43 C64.7 42.55, 44.13 24.67, 15.84 0.07 M90.91 60.04 C65.5 37.95, 40.09 15.86, 21.48 -0.32 M90.91 60.04 C76.74 47.72, 62.58 35.4, 21.48 -0.32 M97.31 60.3 C74.3 40.3, 51.29 20.29, 27.88 -0.06 M97.31 60.3 C70.38 36.89, 43.45 13.48, 27.88 -0.06 M102.95 59.9 C75.83 36.32, 48.7 12.74, 34.27 0.2 M102.95 59.9 C84.58 43.93, 66.21 27.96, 34.27 0.2 M109.35 60.16 C85.64 39.55, 61.92 18.94, 39.92 -0.19 M109.35 60.16 C94.42 47.18, 79.48 34.2, 39.92 -0.19 M115.75 60.43 C95.42 42.75, 75.09 25.08, 46.32 0.07 M115.75 60.43 C91.31 39.18, 66.88 17.94, 46.32 0.07 M121.39 60.03 C96.37 38.28, 71.35 16.53, 51.96 -0.33 M121.39 60.03 C104.37 45.23, 87.34 30.43, 51.96 -0.33 M127.79 60.29 C100.09 36.21, 72.38 12.13, 58.36 -0.06 M127.79 60.29 C106.61 41.88, 85.43 23.47, 58.36 -0.06 M133.43 59.9 C115.61 44.41, 97.79 28.92, 64.75 0.2 M133.43 59.9 C114.11 43.11, 94.8 26.31, 64.75 0.2 M139.83 60.16 C116.08 39.52, 92.33 18.87, 70.4 -0.2 M139.83 60.16 C121.75 44.44, 103.67 28.73, 70.4 -0.2 M147.74 61.73 C130.05 46.36, 112.36 30.98, 76.8 0.06 M147.74 61.73 C122.03 39.39, 96.33 17.05, 76.8 0.06 M152.63 60.68 C128.79 39.96, 104.96 19.24, 82.44 -0.33 M152.63 60.68 C128.94 40.09, 105.26 19.51, 82.44 -0.33 M156.01 58.32 C130.5 36.15, 105 13.98, 88.84 -0.07 M156.01 58.32 C138.32 42.94, 120.63 27.57, 88.84 -0.07 M157.87 54.65 C139.19 38.4, 120.51 22.16, 95.23 0.19 M157.87 54.65 C136.47 36.04, 115.07 17.43, 95.23 0.19 M160.5 51.63 C146.24 39.23, 131.99 26.84, 100.88 -0.2 M160.5 51.63 C136.94 31.14, 113.37 10.66, 100.88 -0.2 M160.1 45.98 C143.52 31.57, 126.94 17.16, 107.27 0.06 M160.1 45.98 C146.13 33.84, 132.16 21.69, 107.27 0.06 M160.46 41 C148.32 30.44, 136.17 19.88, 112.92 -0.34 M160.46 41 C145.97 28.4, 131.48 15.8, 112.92 -0.34 M160.07 35.35 C144.95 22.21, 129.82 9.06, 119.32 -0.07 M160.07 35.35 C144.45 21.78, 128.84 8.21, 119.32 -0.07 M160.43 30.37 C146.7 18.43, 132.97 6.5, 125.71 0.19 M160.43 30.37 C147.41 19.05, 134.4 7.74, 125.71 0.19 M160.04 24.72 C153.04 18.64, 146.05 12.57, 131.36 -0.21 M160.04 24.72 C149.68 15.72, 139.33 6.73, 131.36 -0.21 M160.4 19.74 C154.39 14.52, 148.39 9.3, 137.75 0.05 M160.4 19.74 C153.05 13.35, 145.71 6.97, 137.75 0.05 M160 14.09 C153.44 8.39, 146.88 2.69, 143.4 -0.34 M160 14.09 C154.24 9.08, 148.47 4.07, 143.4 -0.34 M158.85 7.79 C157.11 6.28, 155.38 4.77, 150.55 0.58 M158.85 7.79 C156.3 5.57, 153.75 3.36, 150.55 0.58" stroke="#e64980" stroke-width="0.5" fill="none"></path><path d="M15.69 0 M15.69 0 C51.1 0, 86.52 0, 143.72 0 M15.69 0 C51.11 0, 86.53 0, 143.72 0 M143.72 0 C154.18 0, 159.4 5.23, 159.4 15.69 M143.72 0 C154.18 0, 159.4 5.23, 159.4 15.69 M159.4 15.69 C159.4 23.03, 159.4 30.37, 159.4 47.06 M159.4 15.69 C159.4 27.42, 159.4 39.16, 159.4 47.06 M159.4 47.06 C159.4 57.51, 154.18 62.74, 143.72 62.74 M159.4 47.06 C159.4 57.51, 154.18 62.74, 143.72 62.74 M143.72 62.74 C98.77 62.74, 53.83 62.74, 15.69 62.74 M143.72 62.74 C101.33 62.74, 58.94 62.74, 15.69 62.74 M15.69 62.74 C5.23 62.74, 0 57.51, 0 47.06 M15.69 62.74 C5.23 62.74, 0 57.51, 0 47.06 M0 47.06 C0 39.8, 0 32.54, 0 15.69 M0 47.06 C0 35.76, 0 24.46, 0 15.69 M0 15.69 C0 5.23, 5.23 0, 15.69 0 M0 15.69 C0 5.23, 5.23 0, 15.69 0" stroke="#343a40" stroke-width="1" fill="none"></path></g><g transform="translate(730.5177344657395 37.570373784379626) rotate(0 49.588775634765625 23.243356404619135)"><text x="49.588775634765625" y="0" font-family="Virgil, Segoe UI Emoji" font-size="18.59468512369525px" fill="#000000" text-anchor="middle" style="white-space: pre;" direction="ltr" dominant-baseline="text-before-edge">Kubernetes</text><text x="49.588775634765625" y="23.243356404619064" font-family="Virgil, Segoe UI Emoji" font-size="18.59468512369525px" fill="#000000" text-anchor="middle" style="white-space: pre;" direction="ltr" dominant-baseline="text-before-edge">Cluster(s)</text></g><g stroke-linecap="round" transform="translate(700.2346091765876 145.21760974672543) rotate(0 79.70216915175013 31.370132058644685)"><path d="M15.69 0 L143.72 0 L150.58 0.98 L155.48 3.92 L158.42 8.82 L159.16 12.01 L159.4 47.06 L158.42 53.92 L155.48 58.82 L153.28 60.53 L147.4 62.5 L143.72 62.74 L15.69 62.74 L8.82 61.76 L6.13 60.53 L2.21 56.61 L0.25 50.73 L0.25 12.01 L0.98 8.82 L3.92 3.92 L8.82 0.98 L15.69 0" stroke="none" stroke-width="0" fill="white"></path><path d="M15.69 0 M15.69 0 C51.69 0, 87.69 0, 143.72 0 M15.69 0 C58.03 0, 100.37 0, 143.72 0 M143.72 0 C154.18 0, 159.4 5.23, 159.4 15.69 M143.72 0 C154.18 0, 159.4 5.23, 159.4 15.69 M159.4 15.69 C159.4 25.97, 159.4 36.26, 159.4 47.06 M159.4 15.69 C159.4 22.87, 159.4 30.06, 159.4 47.06 M159.4 47.06 C159.4 57.51, 154.18 62.74, 143.72 62.74 M159.4 47.06 C159.4 57.51, 154.18 62.74, 143.72 62.74 M143.72 62.74 C110.42 62.74, 77.12 62.74, 15.69 62.74 M143.72 62.74 C101.13 62.74, 58.54 62.74, 15.69 62.74 M15.69 62.74 C5.23 62.74, 0 57.51, 0 47.06 M15.69 62.74 C5.23 62.74, 0 57.51, 0 47.06 M0 47.06 C0 37.04, 0 27.03, 0 15.69 M0 47.06 C0 39.02, 0 30.99, 0 15.69 M0 15.69 C0 5.23, 5.23 0, 15.69 0 M0 15.69 C0 5.23, 5.23 0, 15.69 0" stroke="#343a40" stroke-width="1" fill="none"></path></g><g transform="translate(733.3964266059438 154.91070280794702) rotate(0 46.084564208984375 23.243356404619135)"><text x="46.084564208984375" y="0" font-family="Virgil, Segoe UI Emoji" font-size="18.59468512369525px" fill="#343a40" text-anchor="middle" style="white-space: pre;" direction="ltr" dominant-baseline="text-before-edge">Virtual</text><text x="46.084564208984375" y="23.243356404619064" font-family="Virgil, Segoe UI Emoji" font-size="18.59468512369525px" fill="#343a40" text-anchor="middle" style="white-space: pre;" direction="ltr" dominant-baseline="text-before-edge">Machine(s)</text></g><g stroke-linecap="round" transform="translate(700.2346091765876 261.53924824767273) rotate(0 79.70216915175013 31.370132058644685)"><path d="M15.69 0 L143.72 0 L150.58 0.98 L155.48 3.92 L158.42 8.82 L159.16 12.01 L159.4 47.06 L158.42 53.92 L155.48 58.82 L153.28 60.53 L147.4 62.5 L143.72 62.74 L15.69 62.74 L8.82 61.76 L6.13 60.53 L2.21 56.61 L0.25 50.73 L0.25 12.01 L0.98 8.82 L3.92 3.92 L8.82 0.98 L15.69 0" stroke="none" stroke-width="0" fill="white"></path><path d="M15.69 0 M15.69 0 C56.58 0, 97.47 0, 143.72 0 M15.69 0 C62.22 0, 108.76 0, 143.72 0 M143.72 0 C154.18 0, 159.4 5.23, 159.4 15.69 M143.72 0 C154.18 0, 159.4 5.23, 159.4 15.69 M159.4 15.69 C159.4 27.58, 159.4 39.47, 159.4 47.06 M159.4 15.69 C159.4 26.69, 159.4 37.69, 159.4 47.06 M159.4 47.06 C159.4 57.51, 154.18 62.74, 143.72 62.74 M159.4 47.06 C159.4 57.51, 154.18 62.74, 143.72 62.74 M143.72 62.74 C105.28 62.74, 66.85 62.74, 15.69 62.74 M143.72 62.74 C96.56 62.74, 49.39 62.74, 15.69 62.74 M15.69 62.74 C5.23 62.74, 0 57.51, 0 47.06 M15.69 62.74 C5.23 62.74, 0 57.51, 0 47.06 M0 47.06 C0 38.96, 0 30.87, 0 15.69 M0 47.06 C0 40.35, 0 33.64, 0 15.69 M0 15.69 C0 5.23, 5.23 0, 15.69 0 M0 15.69 C0 5.23, 5.23 0, 15.69 0" stroke="#343a40" stroke-width="1" fill="none"></path></g><g transform="translate(730.8774751899282 271.23234130889614) rotate(0 48.603515625 23.243356404619135)"><text x="48.603515625" y="0" font-family="Virgil, Segoe UI Emoji" font-size="18.59468512369525px" fill="#343a40" text-anchor="middle" style="white-space: pre;" direction="ltr" dominant-baseline="text-before-edge">Cloud</text><text x="48.603515625" y="23.243356404619064" font-family="Virgil, Segoe UI Emoji" font-size="18.59468512369525px" fill="#343a40" text-anchor="middle" style="white-space: pre;" direction="ltr" dominant-baseline="text-before-edge">Provider(s)</text></g><g stroke-opacity="0.3" fill-opacity="0.3" stroke-linecap="round" transform="translate(273.52902802685367 109.33995590650557) rotate(0 71.01052550643544 31.290932502063697)"><path d="M15.65 0 L126.38 0 L133.22 0.98 L138.11 3.91 L139.82 6.11 L141.78 11.98 L142.02 46.94 L141.04 53.78 L139.82 56.47 L135.91 60.38 L133.22 61.6 L126.38 62.58 L15.65 62.58 L8.8 61.6 L6.11 60.38 L2.2 56.47 L0.24 50.6 L0.24 11.98 L2.2 6.11 L6.11 2.2 L8.8 0.98 L15.65 0" stroke="none" stroke-width="0" fill="#15aabf"></path><path d="M15.65 0 M15.65 0 C57.97 0, 100.3 0, 126.38 0 M15.65 0 C44.19 0, 72.73 0, 126.38 0 M126.38 0 C136.81 0, 142.02 5.22, 142.02 15.65 M126.38 0 C136.81 0, 142.02 5.22, 142.02 15.65 M142.02 15.65 C142.02 23.69, 142.02 31.74, 142.02 46.94 M142.02 15.65 C142.02 26.22, 142.02 36.8, 142.02 46.94 M142.02 46.94 C142.02 57.37, 136.81 62.58, 126.38 62.58 M142.02 46.94 C142.02 57.37, 136.81 62.58, 126.38 62.58 M126.38 62.58 C94.59 62.58, 62.81 62.58, 15.65 62.58 M126.38 62.58 C90.63 62.58, 54.89 62.58, 15.65 62.58 M15.65 62.58 C5.22 62.58, 0 57.37, 0 46.94 M15.65 62.58 C5.22 62.58, 0 57.37, 0 46.94 M0 46.94 C0 39.99, 0 33.04, 0 15.65 M0 46.94 C0 35.01, 0 23.08, 0 15.65 M0 15.65 C0 5.22, 5.22 0, 15.65 0 M0 15.65 C0 5.22, 5.22 0, 15.65 0" stroke="#343a40" stroke-width="1" fill="none"></path></g><g transform="translate(289.8738422538345 115.85482204947039) rotate(0 51.68994903564453 25)"><text x="51.68994903564453" y="0" font-family="Virgil, Segoe UI Emoji" font-size="20px" fill="#000000" text-anchor="middle" style="white-space: pre;" direction="ltr" dominant-baseline="text-before-edge">Imperative</text><text x="51.68994903564453" y="25" font-family="Virgil, Segoe UI Emoji" font-size="20px" fill="#000000" text-anchor="middle" style="white-space: pre;" direction="ltr" dominant-baseline="text-before-edge">Pipeline</text></g><g stroke-linecap="round" transform="translate(700.2346091765876 377.86088674862185) rotate(0 79.70216915175013 31.370132058644685)"><path d="M15.69 0 L143.72 0 L150.58 0.98 L155.48 3.92 L158.42 8.82 L159.16 12.01 L159.4 47.06 L158.42 53.92 L155.48 58.82 L153.28 60.53 L147.4 62.5 L143.72 62.74 L15.69 62.74 L8.82 61.76 L6.13 60.53 L2.21 56.61 L0.25 50.73 L0.25 12.01 L0.98 8.82 L3.92 3.92 L8.82 0.98 L15.69 0" stroke="none" stroke-width="0" fill="white"></path><path d="M15.69 0 M15.69 0 C58.55 0, 101.42 0, 143.72 0 M15.69 0 C60.38 0, 105.07 0, 143.72 0 M143.72 0 C154.18 0, 159.4 5.23, 159.4 15.69 M143.72 0 C154.18 0, 159.4 5.23, 159.4 15.69 M159.4 15.69 C159.4 22.28, 159.4 28.87, 159.4 47.06 M159.4 15.69 C159.4 26.59, 159.4 37.5, 159.4 47.06 M159.4 47.06 C159.4 57.51, 154.18 62.74, 143.72 62.74 M159.4 47.06 C159.4 57.51, 154.18 62.74, 143.72 62.74 M143.72 62.74 C96.68 62.74, 49.64 62.74, 15.69 62.74 M143.72 62.74 C98.66 62.74, 53.6 62.74, 15.69 62.74 M15.69 62.74 C5.23 62.74, 0 57.51, 0 47.06 M15.69 62.74 C5.23 62.74, 0 57.51, 0 47.06 M0 47.06 C0 35.21, 0 23.37, 0 15.69 M0 47.06 C0 38.31, 0 29.57, 0 15.69 M0 15.69 C0 5.23, 5.23 0, 15.69 0 M0 15.69 C0 5.23, 5.23 0, 15.69 0" stroke="#343a40" stroke-width="1" fill="none"></path></g><g transform="translate(730.2175325629751 387.34055549800723) rotate(0 49.263458251953125 23.243356404619135)"><text x="49.263458251953125" y="0" font-family="Virgil, Segoe UI Emoji" font-size="18.59468512369525px" fill="#343a40" text-anchor="middle" style="white-space: pre;" direction="ltr" dominant-baseline="text-before-edge">Edge</text><text x="49.263458251953125" y="23.243356404619064" font-family="Virgil, Segoe UI Emoji" font-size="18.59468512369525px" fill="#343a40" text-anchor="middle" style="white-space: pre;" direction="ltr" dominant-baseline="text-before-edge">Compute(s)</text></g><g stroke-opacity="0.4" fill-opacity="0.4" stroke-linecap="round" transform="translate(700.6875184735009 494.7484394683761) rotate(0 79.70216915175013 31.370132058644685)"><path d="M4.18 3.63 C4.18 3.63, 4.18 3.63, 4.18 3.63 M4.18 3.63 C4.18 3.63, 4.18 3.63, 4.18 3.63 M1.29 13.05 C3.64 10.34, 6 7.63, 10.47 2.48 M1.29 13.05 C3.22 10.83, 5.15 8.61, 10.47 2.48 M1.03 19.44 C6.11 13.6, 11.19 7.75, 16.77 1.33 M1.03 19.44 C6.95 12.63, 12.87 5.83, 16.77 1.33 M1.42 25.09 C8.83 16.57, 16.24 8.05, 22.42 0.94 M1.42 25.09 C8.72 16.69, 16.02 8.3, 22.42 0.94 M1.16 31.48 C11.24 19.88, 21.33 8.28, 27.4 1.3 M1.16 31.48 C10.98 20.19, 20.8 8.89, 27.4 1.3 M1.56 37.13 C9.66 27.81, 17.76 18.49, 33.05 0.9 M1.56 37.13 C12.2 24.88, 22.84 12.64, 33.05 0.9 M1.29 43.53 C14.79 28, 28.29 12.47, 38.03 1.26 M1.29 43.53 C14.22 28.65, 27.15 13.78, 38.03 1.26 M0.38 50.68 C14.2 34.78, 28.02 18.87, 43.68 0.87 M0.38 50.68 C11.47 37.92, 22.55 25.17, 43.68 0.87 M2.08 54.81 C15.08 39.87, 28.07 24.92, 48.66 1.23 M2.08 54.81 C12.08 43.31, 22.08 31.8, 48.66 1.23 M4.45 58.19 C15.79 45.14, 27.14 32.08, 54.31 0.83 M4.45 58.19 C15.06 45.98, 25.68 33.77, 54.31 0.83 M6.81 61.57 C23.31 42.58, 39.82 23.59, 59.29 1.19 M6.81 61.57 C20.13 46.24, 33.45 30.92, 59.29 1.19 M10.48 63.44 C27.36 44.02, 44.25 24.6, 64.94 0.8 M10.48 63.44 C24.38 47.45, 38.28 31.46, 64.94 0.8 M16.13 63.04 C35.43 40.83, 54.74 18.62, 69.92 1.16 M16.13 63.04 C29.39 47.78, 42.66 32.52, 69.92 1.16 M21.11 63.4 C33.82 48.79, 46.52 34.17, 75.57 0.76 M21.11 63.4 C35.59 46.75, 50.07 30.09, 75.57 0.76 M26.76 63.01 C42.14 45.31, 57.53 27.61, 80.55 1.12 M26.76 63.01 C45.93 40.95, 65.1 18.9, 80.55 1.12 M31.74 63.37 C48.07 44.59, 64.39 25.81, 85.54 1.48 M31.74 63.37 C45.93 47.05, 60.11 30.74, 85.54 1.48 M37.39 62.98 C51.31 46.96, 65.23 30.95, 91.18 1.09 M37.39 62.98 C49.88 48.6, 62.38 34.22, 91.18 1.09 M42.37 63.34 C62.02 40.73, 81.67 18.13, 96.17 1.45 M42.37 63.34 C58.68 44.58, 74.98 25.82, 96.17 1.45 M48.02 62.94 C60.34 48.76, 72.67 34.58, 101.81 1.05 M48.02 62.94 C64.67 43.79, 81.31 24.64, 101.81 1.05 M53 63.3 C69.29 44.56, 85.58 25.82, 106.8 1.41 M53 63.3 C73.17 40.11, 93.33 16.91, 106.8 1.41 M58.65 62.91 C71.46 48.17, 84.27 33.44, 112.44 1.02 M58.65 62.91 C75.27 43.78, 91.89 24.66, 112.44 1.02 M63.63 63.27 C81.88 42.28, 100.13 21.29, 117.43 1.38 M63.63 63.27 C80.06 44.37, 96.5 25.46, 117.43 1.38 M69.28 62.87 C86.27 43.33, 103.26 23.78, 123.07 0.99 M69.28 62.87 C87.45 41.96, 105.63 21.05, 123.07 0.99 M74.26 63.23 C92.37 42.41, 110.47 21.58, 128.06 1.35 M74.26 63.23 C88.11 47.31, 101.95 31.38, 128.06 1.35 M79.91 62.84 C100.43 39.23, 120.95 15.62, 133.7 0.95 M79.91 62.84 C100.84 38.76, 121.76 14.69, 133.7 0.95 M84.89 63.2 C100.81 44.88, 116.74 26.57, 138.69 1.31 M84.89 63.2 C97.21 49.02, 109.54 34.85, 138.69 1.31 M90.54 62.8 C109 41.56, 127.47 20.32, 144.33 0.92 M90.54 62.8 C103.52 47.87, 116.51 32.93, 144.33 0.92 M95.52 63.16 C109.39 47.21, 123.26 31.26, 149.32 1.28 M95.52 63.16 C114.61 41.21, 133.7 19.25, 149.32 1.28 M101.17 62.77 C121.82 39.01, 142.47 15.26, 153 3.15 M101.17 62.77 C119.81 41.32, 138.45 19.88, 153 3.15 M106.15 63.13 C116.33 51.43, 126.5 39.73, 156.67 5.02 M106.15 63.13 C116.51 51.22, 126.86 39.31, 156.67 5.02 M111.8 62.73 C127.33 44.87, 142.85 27.01, 158.38 9.15 M111.8 62.73 C130.19 41.58, 148.57 20.43, 158.38 9.15 M116.78 63.09 C131.72 45.91, 146.66 28.72, 160.08 13.28 M116.78 63.09 C129.15 48.86, 141.52 34.63, 160.08 13.28 M121.77 63.45 C130.42 53.5, 139.08 43.55, 160.48 18.93 M121.77 63.45 C132.74 50.84, 143.7 38.23, 160.48 18.93 M127.41 63.06 C135.49 53.77, 143.57 44.48, 160.22 25.32 M127.41 63.06 C138.54 50.26, 149.67 37.46, 160.22 25.32 M132.4 63.42 C141.81 52.6, 151.21 41.78, 160.61 30.97 M132.4 63.42 C142.22 52.13, 152.03 40.84, 160.61 30.97 M138.04 63.03 C144.77 55.29, 151.49 47.55, 160.35 37.36 M138.04 63.03 C143.48 56.77, 148.91 50.52, 160.35 37.36 M143.03 63.39 C146.86 58.98, 150.7 54.57, 160.75 43.01 M143.03 63.39 C150.07 55.29, 157.1 47.2, 160.75 43.01 M148.68 62.99 C151.75 59.46, 154.82 55.93, 161.14 48.65 M148.68 62.99 C152.57 58.5, 156.47 54.02, 161.14 48.65 M5.87 60.31 C5.87 60.31, 5.87 60.31, 5.87 60.31 M5.87 60.31 C5.87 60.31, 5.87 60.31, 5.87 60.31 M10.76 59.26 C8.06 56.92, 5.36 54.57, 0.19 50.08 M10.76 59.26 C6.56 55.62, 2.37 51.97, 0.19 50.08 M17.91 60.18 C11.64 54.72, 5.36 49.27, 0.55 45.09 M17.91 60.18 C12.47 55.45, 7.03 50.72, 0.55 45.09 M24.31 60.44 C18.63 55.51, 12.96 50.57, 0.91 40.1 M24.31 60.44 C15.37 52.67, 6.43 44.9, 0.91 40.1 M29.95 60.05 C21.83 52.98, 13.7 45.92, 0.52 34.46 M29.95 60.05 C20.31 51.67, 10.67 43.29, 0.52 34.46 M36.35 60.31 C23.57 49.19, 10.78 38.08, 0.88 29.47 M36.35 60.31 C26.08 51.38, 15.8 42.45, 0.88 29.47 M41.99 59.91 C30.85 50.22, 19.7 40.53, 0.49 23.83 M41.99 59.91 C32.87 51.98, 23.75 44.05, 0.49 23.83 M48.39 60.17 C34.09 47.74, 19.79 35.31, 0.85 18.84 M48.39 60.17 C30.43 44.56, 12.48 28.95, 0.85 18.84 M54.79 60.44 C41.86 49.2, 28.93 37.96, 0.45 13.2 M54.79 60.44 C36.93 44.91, 19.08 29.39, 0.45 13.2 M60.43 60.04 C37.2 39.85, 13.97 19.66, 1.57 8.87 M60.43 60.04 C46.31 47.76, 32.19 35.49, 1.57 8.87 M66.83 60.3 C43.24 39.8, 19.65 19.29, 3.44 5.19 M66.83 60.3 C49.2 44.97, 31.56 29.64, 3.44 5.19 M72.47 59.91 C51.77 41.91, 31.06 23.91, 6.06 2.18 M72.47 59.91 C52.15 42.24, 31.83 24.58, 6.06 2.18 M78.87 60.17 C61.65 45.2, 44.44 30.24, 9.44 -0.19 M78.87 60.17 C59.52 43.35, 40.18 26.53, 9.44 -0.19 M85.27 60.43 C60.18 38.63, 35.1 16.82, 15.84 0.07 M85.27 60.43 C61.56 39.82, 37.86 19.22, 15.84 0.07 M90.91 60.04 C67.89 40.02, 44.86 20.01, 21.48 -0.32 M90.91 60.04 C75.22 46.39, 59.52 32.75, 21.48 -0.32 M97.31 60.3 C70.14 36.68, 42.98 13.07, 27.88 -0.06 M97.31 60.3 C73.16 39.3, 49.01 18.31, 27.88 -0.06 M102.95 59.9 C83.85 43.3, 64.75 26.69, 34.27 0.2 M102.95 59.9 C89.05 47.82, 75.15 35.73, 34.27 0.2 M109.35 60.16 C89.3 42.73, 69.24 25.3, 39.92 -0.19 M109.35 60.16 C91.11 44.31, 72.87 28.45, 39.92 -0.19 M115.75 60.43 C99.66 46.44, 83.57 32.46, 46.32 0.07 M115.75 60.43 C89.66 37.75, 63.58 15.07, 46.32 0.07 M121.39 60.03 C101.94 43.12, 82.49 26.21, 51.96 -0.33 M121.39 60.03 C103.38 44.37, 85.37 28.72, 51.96 -0.33 M127.79 60.29 C105.18 40.64, 82.58 20.99, 58.36 -0.06 M127.79 60.29 C106.98 42.2, 86.16 24.11, 58.36 -0.06 M133.43 59.9 C117.6 46.14, 101.77 32.37, 64.75 0.2 M133.43 59.9 C116.45 45.13, 99.46 30.37, 64.75 0.2 M139.83 60.16 C113.31 37.1, 86.79 14.05, 70.4 -0.2 M139.83 60.16 C124.94 47.22, 110.06 34.28, 70.4 -0.2 M147.74 61.73 C123.31 40.5, 98.89 19.27, 76.8 0.06 M147.74 61.73 C121.37 38.81, 94.99 15.88, 76.8 0.06 M152.63 60.68 C137.72 47.73, 122.82 34.78, 82.44 -0.33 M152.63 60.68 C128.38 39.61, 104.14 18.53, 82.44 -0.33 M156.01 58.32 C138.22 42.86, 120.44 27.4, 88.84 -0.07 M156.01 58.32 C134.92 39.99, 113.84 21.67, 88.84 -0.07 M157.87 54.65 C138.02 37.39, 118.16 20.13, 95.23 0.19 M157.87 54.65 C145.06 43.51, 132.25 32.37, 95.23 0.19 M160.5 51.63 C138.18 32.22, 115.85 12.82, 100.88 -0.2 M160.5 51.63 C137.2 31.37, 113.89 11.11, 100.88 -0.2 M160.1 45.98 C139.74 28.28, 119.38 10.58, 107.27 0.06 M160.1 45.98 C144.82 32.7, 129.54 19.42, 107.27 0.06 M160.46 41 C146.45 28.81, 132.44 16.63, 112.92 -0.34 M160.46 41 C148.3 30.42, 136.14 19.85, 112.92 -0.34 M160.07 35.35 C143.92 21.31, 127.77 7.28, 119.32 -0.07 M160.07 35.35 C144.45 21.77, 128.83 8.2, 119.32 -0.07 M160.43 30.37 C147.02 18.71, 133.6 7.05, 125.71 0.19 M160.43 30.37 C146.62 18.36, 132.81 6.35, 125.71 0.19 M160.04 24.72 C150.94 16.82, 141.85 8.92, 131.36 -0.21 M160.04 24.72 C152.69 18.34, 145.35 11.96, 131.36 -0.21 M160.4 19.74 C154.76 14.84, 149.12 9.94, 137.75 0.05 M160.4 19.74 C154.92 14.98, 149.45 10.22, 137.75 0.05 M160 14.09 C156.61 11.14, 153.21 8.19, 143.4 -0.34 M160 14.09 C153.97 8.85, 147.95 3.61, 143.4 -0.34 M158.85 7.79 C157.02 6.2, 155.18 4.6, 150.55 0.58 M158.85 7.79 C156.79 6, 154.72 4.2, 150.55 0.58" stroke="#e64980" stroke-width="0.5" fill="none"></path><path d="M15.69 0 M15.69 0 C54.63 0, 93.57 0, 143.72 0 M15.69 0 C59.94 0, 104.19 0, 143.72 0 M143.72 0 C154.18 0, 159.4 5.23, 159.4 15.69 M143.72 0 C154.18 0, 159.4 5.23, 159.4 15.69 M159.4 15.69 C159.4 24.89, 159.4 34.1, 159.4 47.06 M159.4 15.69 C159.4 27.45, 159.4 39.22, 159.4 47.06 M159.4 47.06 C159.4 57.51, 154.18 62.74, 143.72 62.74 M159.4 47.06 C159.4 57.51, 154.18 62.74, 143.72 62.74 M143.72 62.74 C95.99 62.74, 48.27 62.74, 15.69 62.74 M143.72 62.74 C101.77 62.74, 59.82 62.74, 15.69 62.74 M15.69 62.74 C5.23 62.74, 0 57.51, 0 47.06 M15.69 62.74 C5.23 62.74, 0 57.51, 0 47.06 M0 47.06 C0 40.64, 0 34.23, 0 15.69 M0 47.06 C0 40.16, 0 33.26, 0 15.69 M0 15.69 C0 5.23, 5.23 0, 15.69 0 M0 15.69 C0 5.23, 5.23 0, 15.69 0" stroke="#343a40" stroke-width="1" fill="none"></path></g><g transform="translate(731.3303844868406 504.2281082177633) rotate(0 48.603515625 23.243356404619135)"><text x="48.603515625" y="0" font-family="Virgil, Segoe UI Emoji" font-size="18.59468512369525px" fill="#000000" text-anchor="middle" style="white-space: pre;" direction="ltr" dominant-baseline="text-before-edge">SaaS</text><text x="48.603515625" y="23.243356404619064" font-family="Virgil, Segoe UI Emoji" font-size="18.59468512369525px" fill="#000000" text-anchor="middle" style="white-space: pre;" direction="ltr" dominant-baseline="text-before-edge">Provider(s)</text></g><g stroke-linecap="round" transform="translate(694.0677877001372 10) rotate(0 86.53798485449533 282.605099043707)"><path d="M32 0 M32 0 C69.58 0, 107.16 0, 141.08 0 M32 0 C71.98 0, 111.96 0, 141.08 0 M141.08 0 C162.41 0, 173.08 10.67, 173.08 32 M141.08 0 C162.41 0, 173.08 10.67, 173.08 32 M173.08 32 C173.08 172.94, 173.08 313.88, 173.08 533.21 M173.08 32 C173.08 197.75, 173.08 363.5, 173.08 533.21 M173.08 533.21 C173.08 554.54, 162.41 565.21, 141.08 565.21 M173.08 533.21 C173.08 554.54, 162.41 565.21, 141.08 565.21 M141.08 565.21 C105.3 565.21, 69.53 565.21, 32 565.21 M141.08 565.21 C116.08 565.21, 91.08 565.21, 32 565.21 M32 565.21 C10.67 565.21, 0 554.54, 0 533.21 M32 565.21 C10.67 565.21, 0 554.54, 0 533.21 M0 533.21 C0 402.85, 0 272.49, 0 32 M0 533.21 C0 366.49, 0 199.78, 0 32 M0 32 C0 10.67, 10.67 0, 32 0 M0 32 C0 10.67, 10.67 0, 32 0" stroke="#343a40" stroke-width="2" fill="none"></path></g><g stroke-linecap="round" transform="translate(481.0816052092623 205.4287628725997) rotate(269.94514152181193 66.34136172506032 67.44500868647901)"><path d="M32 0 L108.18 0.5 L114.68 2 L120.18 4.5 L124.68 8 L128.18 12.5 L130.68 18 L132.18 24.5 L132.68 32 L132.18 110.39 L130.68 116.89 L128.18 122.39 L124.68 126.89 L120.18 130.39 L114.68 132.89 L108.18 134.39 L100.68 134.89 L24.5 134.39 L18 132.89 L12.5 130.39 L8 126.89 L4.5 122.39 L2 116.89 L0.5 110.39 L0 102.89 L0.5 24.5 L2 18 L4.5 12.5 L8 8 L12.5 4.5 L18 2 L24.5 0.5 L32 0" stroke="none" stroke-width="0" fill="#ced4da"></path><path d="M32 0 M32 0 C49.07 0, 66.14 0, 100.68 0 M32 0 C59.38 0, 86.75 0, 100.68 0 M100.68 0 C122.02 0, 132.68 10.67, 132.68 32 M100.68 0 C122.02 0, 132.68 10.67, 132.68 32 M132.68 32 C132.68 47.4, 132.68 62.79, 132.68 102.89 M132.68 32 C132.68 55.04, 132.68 78.09, 132.68 102.89 M132.68 102.89 C132.68 124.22, 122.02 134.89, 100.68 134.89 M132.68 102.89 C132.68 124.22, 122.02 134.89, 100.68 134.89 M100.68 134.89 C82.14 134.89, 63.61 134.89, 32 134.89 M100.68 134.89 C78.39 134.89, 56.1 134.89, 32 134.89 M32 134.89 C10.67 134.89, 0 124.22, 0 102.89 M32 134.89 C10.67 134.89, 0 124.22, 0 102.89 M0 102.89 C0 88.29, 0 73.7, 0 32 M0 102.89 C0 80.97, 0 59.05, 0 32 M0 32 C0 10.67, 10.67 0, 32 0 M0 32 C0 10.67, 10.67 0, 32 0" stroke="#343a40" stroke-width="1" fill="none"></path></g><g stroke-linecap="round" transform="translate(521.8479846013097 143.05807640577495) rotate(269.94514152181193 25.79739432653264 67.61133962914619)"><path d="M51.59 67.61 C51.59 70.55, 51.52 73.52, 51.37 76.44 C51.23 79.35, 51.01 82.27, 50.72 85.11 C50.43 87.95, 50.06 90.77, 49.63 93.49 C49.2 96.2, 48.7 98.87, 48.14 101.42 C47.58 103.96, 46.95 106.44, 46.26 108.77 C45.58 111.1, 44.83 113.34, 44.04 115.42 C43.25 117.5, 42.39 119.46, 41.5 121.25 C40.61 123.04, 39.67 124.69, 38.7 126.16 C37.72 127.64, 36.71 128.95, 35.67 130.08 C34.63 131.2, 33.56 132.16, 32.47 132.92 C31.39 133.68, 30.28 134.26, 29.16 134.64 C28.05 135.03, 26.92 135.22, 25.8 135.22 C24.67 135.22, 23.54 135.03, 22.43 134.64 C21.32 134.26, 20.2 133.68, 19.12 132.92 C18.04 132.16, 16.96 131.2, 15.93 130.08 C14.89 128.95, 13.87 127.64, 12.9 126.16 C11.93 124.69, 10.98 123.04, 10.09 121.25 C9.2 119.46, 8.35 117.5, 7.56 115.42 C6.76 113.34, 6.01 111.1, 5.33 108.77 C4.65 106.44, 4.02 103.96, 3.46 101.42 C2.89 98.87, 2.39 96.2, 1.96 93.49 C1.53 90.77, 1.17 87.95, 0.88 85.11 C0.59 82.27, 0.37 79.35, 0.22 76.44 C0.07 73.52, 0 70.55, 0 67.61 C0 64.67, 0.07 61.7, 0.22 58.79 C0.37 55.87, 0.59 52.95, 0.88 50.11 C1.17 47.27, 1.53 44.46, 1.96 41.74 C2.39 39.02, 2.89 36.35, 3.46 33.81 C4.02 31.26, 4.65 28.79, 5.33 26.45 C6.01 24.12, 6.76 21.88, 7.56 19.8 C8.35 17.72, 9.2 15.76, 10.09 13.97 C10.98 12.18, 11.93 10.53, 12.9 9.06 C13.87 7.59, 14.89 6.27, 15.93 5.15 C16.96 4.02, 18.04 3.07, 19.12 2.3 C20.2 1.54, 21.32 0.96, 22.43 0.58 C23.54 0.19, 24.67 0, 25.8 0 C26.92 0, 28.05 0.19, 29.16 0.58 C30.28 0.96, 31.39 1.54, 32.47 2.3 C33.56 3.07, 34.63 4.02, 35.67 5.15 C36.71 6.27, 37.72 7.59, 38.7 9.06 C39.67 10.53, 40.61 12.18, 41.5 13.97 C42.39 15.76, 43.25 17.72, 44.04 19.8 C44.83 21.88, 45.58 24.12, 46.26 26.45 C46.95 28.79, 47.58 31.26, 48.14 33.81 C48.7 36.35, 49.2 39.02, 49.63 41.74 C50.06 44.46, 50.43 47.27, 50.72 50.11 C51.01 52.95, 51.23 55.87, 51.37 58.79 C51.52 61.7, 51.56 66.14, 51.59 67.61 C51.63 69.08, 51.63 66.14, 51.59 67.61" stroke="none" stroke-width="0" fill="#868e96"></path><path d="M51.59 67.61 C51.59 70.55, 51.52 73.52, 51.37 76.44 C51.23 79.35, 51.01 82.27, 50.72 85.11 C50.43 87.95, 50.06 90.77, 49.63 93.49 C49.2 96.2, 48.7 98.87, 48.14 101.42 C47.58 103.96, 46.95 106.44, 46.26 108.77 C45.58 111.1, 44.83 113.34, 44.04 115.42 C43.25 117.5, 42.39 119.46, 41.5 121.25 C40.61 123.04, 39.67 124.69, 38.7 126.16 C37.72 127.64, 36.71 128.95, 35.67 130.08 C34.63 131.2, 33.56 132.16, 32.47 132.92 C31.39 133.68, 30.28 134.26, 29.16 134.64 C28.05 135.03, 26.92 135.22, 25.8 135.22 C24.67 135.22, 23.54 135.03, 22.43 134.64 C21.32 134.26, 20.2 133.68, 19.12 132.92 C18.04 132.16, 16.96 131.2, 15.93 130.08 C14.89 128.95, 13.87 127.64, 12.9 126.16 C11.93 124.69, 10.98 123.04, 10.09 121.25 C9.2 119.46, 8.35 117.5, 7.56 115.42 C6.76 113.34, 6.01 111.1, 5.33 108.77 C4.65 106.44, 4.02 103.96, 3.46 101.42 C2.89 98.87, 2.39 96.2, 1.96 93.49 C1.53 90.77, 1.17 87.95, 0.88 85.11 C0.59 82.27, 0.37 79.35, 0.22 76.44 C0.07 73.52, 0 70.55, 0 67.61 C0 64.67, 0.07 61.7, 0.22 58.79 C0.37 55.87, 0.59 52.95, 0.88 50.11 C1.17 47.27, 1.53 44.46, 1.96 41.74 C2.39 39.02, 2.89 36.35, 3.46 33.81 C4.02 31.26, 4.65 28.79, 5.33 26.45 C6.01 24.12, 6.76 21.88, 7.56 19.8 C8.35 17.72, 9.2 15.76, 10.09 13.97 C10.98 12.18, 11.93 10.53, 12.9 9.06 C13.87 7.59, 14.89 6.27, 15.93 5.15 C16.96 4.02, 18.04 3.07, 19.12 2.3 C20.2 1.54, 21.32 0.96, 22.43 0.58 C23.54 0.19, 24.67 0, 25.8 0 C26.92 0, 28.05 0.19, 29.16 0.58 C30.28 0.96, 31.39 1.54, 32.47 2.3 C33.56 3.07, 34.63 4.02, 35.67 5.15 C36.71 6.27, 37.72 7.59, 38.7 9.06 C39.67 10.53, 40.61 12.18, 41.5 13.97 C42.39 15.76, 43.25 17.72, 44.04 19.8 C44.83 21.88, 45.58 24.12, 46.26 26.45 C46.95 28.79, 47.58 31.26, 48.14 33.81 C48.7 36.35, 49.2 39.02, 49.63 41.74 C50.06 44.46, 50.43 47.27, 50.72 50.11 C51.01 52.95, 51.23 55.87, 51.37 58.79 C51.52 61.7, 51.56 66.14, 51.59 67.61 C51.63 69.08, 51.63 66.14, 51.59 67.61" stroke="#343a40" stroke-width="1" fill="none"></path></g><g transform="translate(498.5639570737003 256.3513099467018) rotate(0 47.53571319580078 31.226053965022402)"><text x="47.53571319580078" y="0" font-family="Virgil, Segoe UI Emoji" font-size="16.653895448011987px" fill="#343a40" text-anchor="middle" style="white-space: pre;" direction="ltr" dominant-baseline="text-before-edge">Declarative</text><text x="47.53571319580078" y="20.817369310014982" font-family="Virgil, Segoe UI Emoji" font-size="16.653895448011987px" fill="#343a40" text-anchor="middle" style="white-space: pre;" direction="ltr" dominant-baseline="text-before-edge">State</text><text x="47.53571319580078" y="41.634738620029964" font-family="Virgil, Segoe UI Emoji" font-size="16.653895448011987px" fill="#343a40" text-anchor="middle" style="white-space: pre;" direction="ltr" dominant-baseline="text-before-edge">Store</text></g><g stroke-linecap="round"><g transform="translate(65.90216085069187 141.7609567370073) rotate(0 47.94509659618279 -0.24127202894032962)"><path d="M0 0 C15.98 -0.08, 79.91 -0.4, 95.89 -0.48 M0 0 C15.98 -0.08, 79.91 -0.4, 95.89 -0.48" stroke="#2b8a3e" stroke-width="4" fill="none"></path></g><g transform="translate(65.90216085069187 141.7609567370073) rotate(0 47.94509659618279 -0.24127202894032962)"><path d="M67.75 9.92 C76.87 6.55, 86 3.18, 95.89 -0.48 M67.75 9.92 C74.07 7.58, 80.39 5.25, 95.89 -0.48" stroke="#2b8a3e" stroke-width="4" fill="none"></path></g><g transform="translate(65.90216085069187 141.7609567370073) rotate(0 47.94509659618279 -0.24127202894032962)"><path d="M67.65 -10.6 C76.8 -7.32, 85.96 -4.04, 95.89 -0.48 M67.65 -10.6 C73.99 -8.33, 80.33 -6.06, 95.89 -0.48" stroke="#2b8a3e" stroke-width="4" fill="none"></path></g></g><mask></mask><g stroke-linecap="round"><g transform="translate(225.5635069978607 142.71819146019698) rotate(0 23.482760514496476 -0.09692787371432132)"><path d="M0 0 C7.83 -0.03, 39.14 -0.16, 46.97 -0.19 M0 0 C7.83 -0.03, 39.14 -0.16, 46.97 -0.19" stroke="#2b8a3e" stroke-width="4" fill="none"></path></g><g transform="translate(225.5635069978607 142.71819146019698) rotate(0 23.482760514496476 -0.09692787371432132)"><path d="M24.93 7.93 C30.46 5.89, 35.98 3.86, 46.97 -0.19 M24.93 7.93 C30.67 5.81, 36.4 3.7, 46.97 -0.19" stroke="#2b8a3e" stroke-width="4" fill="none"></path></g><g transform="translate(225.5635069978607 142.71819146019698) rotate(0 23.482760514496476 -0.09692787371432132)"><path d="M24.87 -8.13 C30.41 -6.14, 35.95 -4.15, 46.97 -0.19 M24.87 -8.13 C30.62 -6.07, 36.37 -4, 46.97 -0.19" stroke="#2b8a3e" stroke-width="4" fill="none"></path></g></g><mask></mask><g stroke-linecap="round"><g transform="translate(417.4216810951243 143.5369042367356) rotate(0 43.519463034641376 22.156720292258797)"><path d="M0 0 C9.05 2.34, 39.82 6.68, 54.33 14.06 C68.84 21.45, 81.59 39.27, 87.04 44.31 M0 0 C9.05 2.34, 39.82 6.68, 54.33 14.06 C68.84 21.45, 81.59 39.27, 87.04 44.31" stroke="#2b8a3e" stroke-width="4" fill="none"></path></g><g transform="translate(417.4216810951243 143.5369042367356) rotate(0 43.519463034641376 22.156720292258797)"><path d="M67.29 34 C73.85 37.43, 80.41 40.85, 87.04 44.31 M67.29 34 C72.87 36.92, 78.45 39.83, 87.04 44.31" stroke="#2b8a3e" stroke-width="4" fill="none"></path></g><g transform="translate(417.4216810951243 143.5369042367356) rotate(0 43.519463034641376 22.156720292258797)"><path d="M78.54 23.72 C81.36 30.56, 84.19 37.4, 87.04 44.31 M78.54 23.72 C80.94 29.54, 83.34 35.36, 87.04 44.31" stroke="#2b8a3e" stroke-width="4" fill="none"></path></g></g><mask></mask><g stroke-linecap="round"><g transform="translate(699.4696805759613 54.70753242844967) rotate(181.0889909393324 -63.408893222032475 64.64920769174887)"><path d="M0 0 C-3.88 13.75, -2.14 60.97, -23.28 82.52 C-44.41 104.07, -109.56 121.5, -126.82 129.3 M0 0 C-3.88 13.75, -2.14 60.97, -23.28 82.52 C-44.41 104.07, -109.56 121.5, -126.82 129.3" stroke="#2b8a3e" stroke-width="4" fill="none"></path></g><g transform="translate(699.4696805759613 54.70753242844967) rotate(181.0889909393324 -63.408893222032475 64.64920769174887)"><path d="M-103.85 110 C-110.41 115.52, -116.97 121.03, -126.82 129.3 M-103.85 110 C-112.48 117.26, -121.12 124.51, -126.82 129.3" stroke="#2b8a3e" stroke-width="4" fill="none"></path></g><g transform="translate(699.4696805759613 54.70753242844967) rotate(181.0889909393324 -63.408893222032475 64.64920769174887)"><path d="M-96.82 129.28 C-105.39 129.29, -113.96 129.29, -126.82 129.3 M-96.82 129.28 C-108.1 129.29, -119.37 129.29, -126.82 129.3" stroke="#2b8a3e" stroke-width="4" fill="none"></path></g></g><mask></mask><g stroke-linecap="round"><g transform="translate(697.1263314247935 484.76972326305713) rotate(180.06542284358895 -50.45714882964489 -148.80603004314798)"><path d="M0 0 C-8.71 6.39, -42.53 71.86, -52.24 38.35 C-61.95 4.83, -57 -138.83, -58.27 -201.08 C-59.55 -263.32, -52.8 -312.55, -59.91 -335.12 C-67.01 -357.68, -94.08 -336.24, -100.91 -336.47 M0 0 C-8.71 6.39, -42.53 71.86, -52.24 38.35 C-61.95 4.83, -57 -138.83, -58.27 -201.08 C-59.55 -263.32, -52.8 -312.55, -59.91 -335.12 C-67.01 -357.68, -94.08 -336.24, -100.91 -336.47" stroke="#2b8a3e" stroke-width="4" fill="none"></path></g><g transform="translate(697.1263314247935 484.76972326305713) rotate(180.06542284358895 -50.45714882964489 -148.80603004314798)"><path d="M-85.24 -349.71 C-90.78 -345.03, -96.32 -340.35, -100.91 -336.47 M-85.24 -349.71 C-90.61 -345.17, -95.98 -340.64, -100.91 -336.47" stroke="#2b8a3e" stroke-width="4" fill="none"></path></g><g transform="translate(697.1263314247935 484.76972326305713) rotate(180.06542284358895 -50.45714882964489 -148.80603004314798)"><path d="M-80.4 -336.54 C-87.65 -336.51, -94.89 -336.49, -100.91 -336.47 M-80.4 -336.54 C-87.43 -336.52, -94.45 -336.49, -100.91 -336.47" stroke="#2b8a3e" stroke-width="4" fill="none"></path></g></g><mask></mask><g stroke-linecap="round" transform="translate(40.30143649502088 82.67556506418532) rotate(0 19.42808070684282 19.336659332926956)"><path d="M4.7 6.73 C4.7 6.73, 4.7 6.73, 4.7 6.73 M4.7 6.73 C4.7 6.73, 4.7 6.73, 4.7 6.73 M1.16 16.9 C5.46 11.95, 9.76 7, 14.28 1.81 M1.16 16.9 C5.76 11.61, 10.36 6.32, 14.28 1.81 M0.89 23.3 C6.01 17.41, 11.13 11.52, 20.58 0.66 M0.89 23.3 C8.14 14.96, 15.39 6.62, 20.58 0.66 M2.6 27.44 C9.72 19.24, 16.84 11.05, 24.91 1.78 M2.6 27.44 C7.37 21.95, 12.14 16.46, 24.91 1.78 M4.96 30.81 C12.35 22.32, 19.74 13.82, 29.24 2.89 M4.96 30.81 C13.32 21.2, 21.68 11.59, 29.24 2.89 M7.33 34.19 C16.58 23.54, 25.84 12.89, 32.91 4.76 M7.33 34.19 C13.38 27.23, 19.44 20.26, 32.91 4.76 M10.34 36.82 C17.25 28.88, 24.15 20.94, 35.28 8.14 M10.34 36.82 C16.49 29.74, 22.64 22.67, 35.28 8.14 M14.02 38.69 C20.24 31.54, 26.45 24.38, 37.64 11.52 M14.02 38.69 C22.71 28.69, 31.39 18.7, 37.64 11.52 M18.35 39.8 C23.53 33.84, 28.71 27.88, 38.69 16.41 M18.35 39.8 C24.28 32.98, 30.21 26.16, 38.69 16.41 M23.99 39.41 C28.83 33.84, 33.67 28.27, 40.4 20.54 M23.99 39.41 C30 32.5, 36.01 25.58, 40.4 20.54" stroke="#12b886" stroke-width="0.5" fill="none"></path><path d="M38.86 19.34 C38.86 20.46, 38.76 21.59, 38.56 22.69 C38.37 23.8, 38.07 24.9, 37.68 25.95 C37.3 27, 36.82 28.04, 36.25 29 C35.69 29.97, 35.03 30.91, 34.31 31.77 C33.59 32.62, 32.78 33.43, 31.92 34.15 C31.05 34.87, 30.12 35.52, 29.14 36.08 C28.17 36.64, 27.13 37.12, 26.07 37.51 C25.02 37.89, 23.91 38.19, 22.8 38.38 C21.69 38.57, 20.55 38.67, 19.43 38.67 C18.3 38.67, 17.16 38.57, 16.05 38.38 C14.95 38.19, 13.84 37.89, 12.78 37.51 C11.73 37.12, 10.69 36.64, 9.71 36.08 C8.74 35.52, 7.8 34.87, 6.94 34.15 C6.08 33.43, 5.27 32.62, 4.55 31.77 C3.82 30.91, 3.17 29.97, 2.6 29 C2.04 28.04, 1.56 27, 1.17 25.95 C0.79 24.9, 0.49 23.8, 0.3 22.69 C0.1 21.59, 0 20.46, 0 19.34 C0 18.22, 0.1 17.08, 0.3 15.98 C0.49 14.88, 0.79 13.77, 1.17 12.72 C1.56 11.67, 2.04 10.64, 2.6 9.67 C3.17 8.7, 3.82 7.76, 4.55 6.91 C5.27 6.05, 6.08 5.24, 6.94 4.52 C7.8 3.8, 8.74 3.15, 9.71 2.59 C10.69 2.03, 11.73 1.55, 12.78 1.17 C13.84 0.78, 14.95 0.49, 16.05 0.29 C17.16 0.1, 18.3 0, 19.43 0 C20.55 0, 21.69 0.1, 22.8 0.29 C23.91 0.49, 25.02 0.78, 26.07 1.17 C27.13 1.55, 28.17 2.03, 29.14 2.59 C30.12 3.15, 31.05 3.8, 31.92 4.52 C32.78 5.24, 33.59 6.05, 34.31 6.91 C35.03 7.76, 35.69 8.7, 36.25 9.67 C36.82 10.64, 37.3 11.67, 37.68 12.72 C38.07 13.77, 38.37 14.88, 38.56 15.98 C38.76 17.08, 38.81 18.78, 38.86 19.34 C38.91 19.9, 38.91 18.78, 38.86 19.34" stroke="#495057" stroke-width="1" fill="none"></path></g><g stroke-linecap="round"><g transform="translate(59.63809582794829 121.34888373003832) rotate(0 0 27.095195485027034)" fill-rule="evenodd"><path d="M-12.59 -0.35 C-12.59 -0.35, -12.59 -0.35, -12.59 -0.35 M-12.59 -0.35 C-12.59 -0.35, -12.59 -0.35, -12.59 -0.35 M-17.44 11.34 C-12.56 5.72, -7.68 0.1, -4.98 -3 M-17.44 11.34 C-12.78 5.96, -8.11 0.59, -4.98 -3 M-22.3 23.02 C-16.94 16.85, -11.57 10.68, -1.3 -1.13 M-22.3 23.02 C-18.09 18.18, -13.89 13.34, -1.3 -1.13 M-21.25 27.9 C-13.75 19.27, -6.24 10.64, 5.65 -3.04 M-21.25 27.9 C-15.37 21.15, -9.5 14.39, 5.65 -3.04 M-23.48 36.57 C-11.38 22.65, 0.72 8.73, 10.64 -2.68 M-23.48 36.57 C-14.82 26.61, -6.17 16.66, 10.64 -2.68 M-24.4 43.72 C-12.22 29.71, -0.04 15.7, 13 0.7 M-24.4 43.72 C-13.28 30.93, -2.17 18.15, 13 0.7 M-24.66 50.12 C-9.58 32.77, 5.5 15.43, 15.36 4.08 M-24.66 50.12 C-14.02 37.87, -3.37 25.63, 15.36 4.08 M-22.95 54.25 C-9.96 39.3, 3.04 24.36, 17.07 8.21 M-22.95 54.25 C-12.48 42.21, -2.01 30.16, 17.07 8.21 M-19.28 56.12 C-11.18 46.81, -3.09 37.51, 19.43 11.59 M-19.28 56.12 C-6.48 41.4, 6.32 26.67, 19.43 11.59 M-14.94 57.23 C-1.38 41.64, 12.18 26.04, 20.48 16.48 M-14.94 57.23 C-3.49 44.06, 7.96 30.89, 20.48 16.48 M-9.96 57.6 C-0.22 46.4, 9.51 35.2, 22.19 20.61 M-9.96 57.6 C-1.84 48.26, 6.28 38.92, 22.19 20.61 M-4.97 57.96 C1.4 50.62, 7.78 43.29, 23.9 24.75 M-4.97 57.96 C5.26 46.18, 15.5 34.41, 23.9 24.75 M0.02 58.32 C9.82 47.04, 19.62 35.77, 26.26 28.13 M0.02 58.32 C6.5 50.86, 12.98 43.4, 26.26 28.13 M5.66 57.92 C11.58 51.11, 17.5 44.29, 27.31 33.02 M5.66 57.92 C14.08 48.23, 22.5 38.54, 27.31 33.02 M11.96 56.77 C16.88 51.1, 21.81 45.44, 28.36 37.9 M11.96 56.77 C15.9 52.23, 19.85 47.7, 28.36 37.9 M16.95 57.13 C21.81 51.54, 26.67 45.94, 29.41 42.79 M16.95 57.13 C20.95 52.53, 24.95 47.92, 29.41 42.79" stroke="#12b886" stroke-width="0.5" fill="none"></path><path d="M0 0 C2.15 0, 8.59 -8.59, 12.89 0 C17.19 8.59, 32.23 42.97, 25.78 51.56 C19.34 60.16, -19.34 60.16, -25.78 51.56 C-32.23 42.97, -17.19 8.59, -12.89 0 C-8.59 -8.59, -2.15 0, 0 0 M0 0 C2.15 0, 8.59 -8.59, 12.89 0 C17.19 8.59, 32.23 42.97, 25.78 51.56 C19.34 60.16, -19.34 60.16, -25.78 51.56 C-32.23 42.97, -17.19 8.59, -12.89 0 C-8.59 -8.59, -2.15 0, 0 0" stroke="#495057" stroke-width="1" fill="none"></path></g></g><mask></mask><g stroke-linecap="round" transform="translate(188.90852591213934 22.833794903175658) rotate(358.92972393214535 3.7680364110324263 19.555950473086796)"><path d="M1.88 0 L5.65 0 L7.07 0.47 L7.54 1.88 L7.54 37.23 L7.07 38.64 L5.65 39.11 L0.47 38.64 L0 37.23 L0 1.88 L0.47 0.47 L1.88 0" stroke="none" stroke-width="0" fill="#7950f2"></path><path d="M1.88 0 M1.88 0 C3.3 0, 4.72 0, 5.65 0 M1.88 0 C3.24 0, 4.59 0, 5.65 0 M5.65 0 C6.91 0, 7.54 0.63, 7.54 1.88 M5.65 0 C6.91 0, 7.54 0.63, 7.54 1.88 M7.54 1.88 C7.54 13.57, 7.54 25.25, 7.54 37.23 M7.54 1.88 C7.54 10.08, 7.54 18.27, 7.54 37.23 M7.54 37.23 C7.54 38.48, 6.91 39.11, 5.65 39.11 M7.54 37.23 C7.54 38.48, 6.91 39.11, 5.65 39.11 M5.65 39.11 C4.84 39.11, 4.02 39.11, 1.88 39.11 M5.65 39.11 C4.16 39.11, 2.66 39.11, 1.88 39.11 M1.88 39.11 C0.63 39.11, 0 38.48, 0 37.23 M1.88 39.11 C0.63 39.11, 0 38.48, 0 37.23 M0 37.23 C0 23.56, 0 9.9, 0 1.88 M0 37.23 C0 25.53, 0 13.84, 0 1.88 M0 1.88 C0 0.63, 0.63 0, 1.88 0 M0 1.88 C0 0.63, 0.63 0, 1.88 0" stroke="transparent" stroke-width="1" fill="none"></path></g><g stroke-linecap="round" transform="translate(202.9451653454248 17.8387819797872) rotate(40.41727686562419 3.7680364110324263 24.785791502693428)"><path d="M1.88 0 L5.65 0 L7.07 0.47 L7.54 1.88 L7.54 47.69 L7.07 49.1 L5.65 49.57 L0.47 49.1 L0 47.69 L0 1.88 L0.47 0.47 L1.88 0" stroke="none" stroke-width="0" fill="#7950f2"></path><path d="M1.88 0 M1.88 0 C2.81 0, 3.74 0, 5.65 0 M1.88 0 C3.16 0, 4.44 0, 5.65 0 M5.65 0 C6.91 0, 7.54 0.63, 7.54 1.88 M5.65 0 C6.91 0, 7.54 0.63, 7.54 1.88 M7.54 1.88 C7.54 15.72, 7.54 29.55, 7.54 47.69 M7.54 1.88 C7.54 11.09, 7.54 20.3, 7.54 47.69 M7.54 47.69 C7.54 48.94, 6.91 49.57, 5.65 49.57 M7.54 47.69 C7.54 48.94, 6.91 49.57, 5.65 49.57 M5.65 49.57 C4.65 49.57, 3.64 49.57, 1.88 49.57 M5.65 49.57 C4.63 49.57, 3.61 49.57, 1.88 49.57 M1.88 49.57 C0.63 49.57, 0 48.94, 0 47.69 M1.88 49.57 C0.63 49.57, 0 48.94, 0 47.69 M0 47.69 C0 31.9, 0 16.12, 0 1.88 M0 47.69 C0 31.44, 0 15.2, 0 1.88 M0 1.88 C0 0.63, 0.63 0, 1.88 0 M0 1.88 C0 0.63, 0.63 0, 1.88 0" stroke="transparent" stroke-width="1" fill="none"></path></g><g stroke-linecap="round" transform="translate(211.58768961028 36.393797987790094) rotate(139.22073182693399 3.7680364110324263 14.147647249566944)"><path d="M1.88 0 L5.65 0 L7.07 0.47 L7.54 1.88 L7.54 26.41 L7.07 27.82 L5.65 28.3 L0.47 27.82 L0 26.41 L0 1.88 L0.47 0.47 L1.88 0" stroke="none" stroke-width="0" fill="#7950f2"></path><path d="M1.88 0 M1.88 0 C2.94 0, 4 0, 5.65 0 M1.88 0 C2.85 0, 3.82 0, 5.65 0 M5.65 0 C6.91 0, 7.54 0.63, 7.54 1.88 M5.65 0 C6.91 0, 7.54 0.63, 7.54 1.88 M7.54 1.88 C7.54 11.05, 7.54 20.21, 7.54 26.41 M7.54 1.88 C7.54 8.44, 7.54 14.99, 7.54 26.41 M7.54 26.41 C7.54 27.67, 6.91 28.3, 5.65 28.3 M7.54 26.41 C7.54 27.67, 6.91 28.3, 5.65 28.3 M5.65 28.3 C4.44 28.3, 3.22 28.3, 1.88 28.3 M5.65 28.3 C4.22 28.3, 2.79 28.3, 1.88 28.3 M1.88 28.3 C0.63 28.3, 0 27.67, 0 26.41 M1.88 28.3 C0.63 28.3, 0 27.67, 0 26.41 M0 26.41 C0 19.03, 0 11.65, 0 1.88 M0 26.41 C0 17.5, 0 8.6, 0 1.88 M0 1.88 C0 0.63, 0.63 0, 1.88 0 M0 1.88 C0 0.63, 0.63 0, 1.88 0" stroke="transparent" stroke-width="1" fill="none"></path></g><g stroke-linecap="round" transform="translate(188.04118105906537 20.879273999844372) rotate(358.1310915065084 4.207022158495647 4.569555668486828)"><path d="M8.41 4.57 C8.41 4.83, 8.39 5.1, 8.35 5.36 C8.31 5.62, 8.24 5.88, 8.16 6.13 C8.08 6.38, 7.97 6.63, 7.85 6.85 C7.73 7.08, 7.59 7.3, 7.43 7.51 C7.27 7.71, 7.1 7.9, 6.91 8.07 C6.72 8.24, 6.52 8.39, 6.31 8.53 C6.1 8.66, 5.87 8.77, 5.65 8.86 C5.42 8.95, 5.18 9.02, 4.94 9.07 C4.7 9.12, 4.45 9.14, 4.21 9.14 C3.96 9.14, 3.72 9.12, 3.48 9.07 C3.24 9.02, 3 8.95, 2.77 8.86 C2.54 8.77, 2.31 8.66, 2.1 8.53 C1.89 8.39, 1.69 8.24, 1.5 8.07 C1.32 7.9, 1.14 7.71, 0.98 7.51 C0.83 7.3, 0.69 7.08, 0.56 6.85 C0.44 6.63, 0.34 6.38, 0.25 6.13 C0.17 5.88, 0.11 5.62, 0.06 5.36 C0.02 5.1, 0 4.83, 0 4.57 C0 4.31, 0.02 4.04, 0.06 3.78 C0.11 3.52, 0.17 3.26, 0.25 3.01 C0.34 2.76, 0.44 2.51, 0.56 2.28 C0.69 2.06, 0.83 1.83, 0.98 1.63 C1.14 1.43, 1.32 1.24, 1.5 1.07 C1.69 0.9, 1.89 0.74, 2.1 0.61 C2.31 0.48, 2.54 0.37, 2.77 0.28 C3 0.19, 3.24 0.12, 3.48 0.07 C3.72 0.02, 3.96 0, 4.21 0 C4.45 0, 4.7 0.02, 4.94 0.07 C5.18 0.12, 5.42 0.19, 5.65 0.28 C5.87 0.37, 6.1 0.48, 6.31 0.61 C6.52 0.74, 6.72 0.9, 6.91 1.07 C7.1 1.24, 7.27 1.43, 7.43 1.63 C7.59 1.83, 7.73 2.06, 7.85 2.28 C7.97 2.51, 8.08 2.76, 8.16 3.01 C8.24 3.26, 8.31 3.52, 8.35 3.78 C8.39 4.04, 8.4 4.44, 8.41 4.57 C8.42 4.7, 8.42 4.44, 8.41 4.57" stroke="none" stroke-width="0" fill="#7950f2"></path><path d="M8.41 4.57 C8.41 4.83, 8.39 5.1, 8.35 5.36 C8.31 5.62, 8.24 5.88, 8.16 6.13 C8.08 6.38, 7.97 6.63, 7.85 6.85 C7.73 7.08, 7.59 7.3, 7.43 7.51 C7.27 7.71, 7.1 7.9, 6.91 8.07 C6.72 8.24, 6.52 8.39, 6.31 8.53 C6.1 8.66, 5.87 8.77, 5.65 8.86 C5.42 8.95, 5.18 9.02, 4.94 9.07 C4.7 9.12, 4.45 9.14, 4.21 9.14 C3.96 9.14, 3.72 9.12, 3.48 9.07 C3.24 9.02, 3 8.95, 2.77 8.86 C2.54 8.77, 2.31 8.66, 2.1 8.53 C1.89 8.39, 1.69 8.24, 1.5 8.07 C1.32 7.9, 1.14 7.71, 0.98 7.51 C0.83 7.3, 0.69 7.08, 0.56 6.85 C0.44 6.63, 0.34 6.38, 0.25 6.13 C0.17 5.88, 0.11 5.62, 0.06 5.36 C0.02 5.1, 0 4.83, 0 4.57 C0 4.31, 0.02 4.04, 0.06 3.78 C0.11 3.52, 0.17 3.26, 0.25 3.01 C0.34 2.76, 0.44 2.51, 0.56 2.28 C0.69 2.06, 0.83 1.83, 0.98 1.63 C1.14 1.43, 1.32 1.24, 1.5 1.07 C1.69 0.9, 1.89 0.74, 2.1 0.61 C2.31 0.48, 2.54 0.37, 2.77 0.28 C3 0.19, 3.24 0.12, 3.48 0.07 C3.72 0.02, 3.96 0, 4.21 0 C4.45 0, 4.7 0.02, 4.94 0.07 C5.18 0.12, 5.42 0.19, 5.65 0.28 C5.87 0.37, 6.1 0.48, 6.31 0.61 C6.52 0.74, 6.72 0.9, 6.91 1.07 C7.1 1.24, 7.27 1.43, 7.43 1.63 C7.59 1.83, 7.73 2.06, 7.85 2.28 C7.97 2.51, 8.08 2.76, 8.16 3.01 C8.24 3.26, 8.31 3.52, 8.35 3.78 C8.39 4.04, 8.4 4.44, 8.41 4.57 C8.42 4.7, 8.42 4.44, 8.41 4.57" stroke="#5f3dc4" stroke-width="1" fill="none"></path></g><g stroke-linecap="round" transform="translate(189.00181708608352 53.12731063546926) rotate(358.1310915065084 4.207022158495647 4.569555668486828)"><path d="M8.41 4.57 C8.41 4.83, 8.39 5.1, 8.35 5.36 C8.31 5.62, 8.24 5.88, 8.16 6.13 C8.08 6.38, 7.97 6.63, 7.85 6.85 C7.73 7.08, 7.59 7.3, 7.43 7.51 C7.27 7.71, 7.1 7.9, 6.91 8.07 C6.72 8.24, 6.52 8.39, 6.31 8.53 C6.1 8.66, 5.87 8.77, 5.65 8.86 C5.42 8.95, 5.18 9.02, 4.94 9.07 C4.7 9.12, 4.45 9.14, 4.21 9.14 C3.96 9.14, 3.72 9.12, 3.48 9.07 C3.24 9.02, 3 8.95, 2.77 8.86 C2.54 8.77, 2.31 8.66, 2.1 8.53 C1.89 8.39, 1.69 8.24, 1.5 8.07 C1.32 7.9, 1.14 7.71, 0.98 7.51 C0.83 7.3, 0.69 7.08, 0.56 6.85 C0.44 6.63, 0.34 6.38, 0.25 6.13 C0.17 5.88, 0.11 5.62, 0.06 5.36 C0.02 5.1, 0 4.83, 0 4.57 C0 4.31, 0.02 4.04, 0.06 3.78 C0.11 3.52, 0.17 3.26, 0.25 3.01 C0.34 2.76, 0.44 2.51, 0.56 2.28 C0.69 2.06, 0.83 1.83, 0.98 1.63 C1.14 1.43, 1.32 1.24, 1.5 1.07 C1.69 0.9, 1.89 0.74, 2.1 0.61 C2.31 0.48, 2.54 0.37, 2.77 0.28 C3 0.19, 3.24 0.12, 3.48 0.07 C3.72 0.02, 3.96 0, 4.21 0 C4.45 0, 4.7 0.02, 4.94 0.07 C5.18 0.12, 5.42 0.19, 5.65 0.28 C5.87 0.37, 6.1 0.48, 6.31 0.61 C6.52 0.74, 6.72 0.9, 6.91 1.07 C7.1 1.24, 7.27 1.43, 7.43 1.63 C7.59 1.83, 7.73 2.06, 7.85 2.28 C7.97 2.51, 8.08 2.76, 8.16 3.01 C8.24 3.26, 8.31 3.52, 8.35 3.78 C8.39 4.04, 8.4 4.44, 8.41 4.57 C8.42 4.7, 8.42 4.44, 8.41 4.57" stroke="none" stroke-width="0" fill="#7950f2"></path><path d="M8.41 4.57 C8.41 4.83, 8.39 5.1, 8.35 5.36 C8.31 5.62, 8.24 5.88, 8.16 6.13 C8.08 6.38, 7.97 6.63, 7.85 6.85 C7.73 7.08, 7.59 7.3, 7.43 7.51 C7.27 7.71, 7.1 7.9, 6.91 8.07 C6.72 8.24, 6.52 8.39, 6.31 8.53 C6.1 8.66, 5.87 8.77, 5.65 8.86 C5.42 8.95, 5.18 9.02, 4.94 9.07 C4.7 9.12, 4.45 9.14, 4.21 9.14 C3.96 9.14, 3.72 9.12, 3.48 9.07 C3.24 9.02, 3 8.95, 2.77 8.86 C2.54 8.77, 2.31 8.66, 2.1 8.53 C1.89 8.39, 1.69 8.24, 1.5 8.07 C1.32 7.9, 1.14 7.71, 0.98 7.51 C0.83 7.3, 0.69 7.08, 0.56 6.85 C0.44 6.63, 0.34 6.38, 0.25 6.13 C0.17 5.88, 0.11 5.62, 0.06 5.36 C0.02 5.1, 0 4.83, 0 4.57 C0 4.31, 0.02 4.04, 0.06 3.78 C0.11 3.52, 0.17 3.26, 0.25 3.01 C0.34 2.76, 0.44 2.51, 0.56 2.28 C0.69 2.06, 0.83 1.83, 0.98 1.63 C1.14 1.43, 1.32 1.24, 1.5 1.07 C1.69 0.9, 1.89 0.74, 2.1 0.61 C2.31 0.48, 2.54 0.37, 2.77 0.28 C3 0.19, 3.24 0.12, 3.48 0.07 C3.72 0.02, 3.96 0, 4.21 0 C4.45 0, 4.7 0.02, 4.94 0.07 C5.18 0.12, 5.42 0.19, 5.65 0.28 C5.87 0.37, 6.1 0.48, 6.31 0.61 C6.52 0.74, 6.72 0.9, 6.91 1.07 C7.1 1.24, 7.27 1.43, 7.43 1.63 C7.59 1.83, 7.73 2.06, 7.85 2.28 C7.97 2.51, 8.08 2.76, 8.16 3.01 C8.24 3.26, 8.31 3.52, 8.35 3.78 C8.39 4.04, 8.4 4.44, 8.41 4.57 C8.42 4.7, 8.42 4.44, 8.41 4.57" stroke="#5f3dc4" stroke-width="1" fill="none"></path></g><g stroke-linecap="round" transform="translate(203.53921146122866 39.0294217297469) rotate(358.1310915065084 4.171683969157584 4.569555668486828)"><path d="M8.34 4.57 C8.34 4.83, 8.32 5.1, 8.28 5.36 C8.24 5.62, 8.17 5.88, 8.09 6.13 C8.01 6.38, 7.91 6.63, 7.78 6.85 C7.66 7.08, 7.52 7.3, 7.37 7.51 C7.21 7.71, 7.04 7.9, 6.85 8.07 C6.67 8.24, 6.47 8.39, 6.26 8.53 C6.05 8.66, 5.83 8.77, 5.6 8.86 C5.37 8.95, 5.13 9.02, 4.9 9.07 C4.66 9.12, 4.41 9.14, 4.17 9.14 C3.93 9.14, 3.69 9.12, 3.45 9.07 C3.21 9.02, 2.97 8.95, 2.74 8.86 C2.52 8.77, 2.29 8.66, 2.09 8.53 C1.88 8.39, 1.68 8.24, 1.49 8.07 C1.31 7.9, 1.13 7.71, 0.98 7.51 C0.82 7.3, 0.68 7.08, 0.56 6.85 C0.44 6.63, 0.33 6.38, 0.25 6.13 C0.17 5.88, 0.11 5.62, 0.06 5.36 C0.02 5.1, 0 4.83, 0 4.57 C0 4.31, 0.02 4.04, 0.06 3.78 C0.11 3.52, 0.17 3.26, 0.25 3.01 C0.33 2.76, 0.44 2.51, 0.56 2.28 C0.68 2.06, 0.82 1.83, 0.98 1.63 C1.13 1.43, 1.31 1.24, 1.49 1.07 C1.68 0.9, 1.88 0.74, 2.09 0.61 C2.29 0.48, 2.52 0.37, 2.74 0.28 C2.97 0.19, 3.21 0.12, 3.45 0.07 C3.69 0.02, 3.93 0, 4.17 0 C4.41 0, 4.66 0.02, 4.9 0.07 C5.13 0.12, 5.37 0.19, 5.6 0.28 C5.83 0.37, 6.05 0.48, 6.26 0.61 C6.47 0.74, 6.67 0.9, 6.85 1.07 C7.04 1.24, 7.21 1.43, 7.37 1.63 C7.52 1.83, 7.66 2.06, 7.78 2.28 C7.91 2.51, 8.01 2.76, 8.09 3.01 C8.17 3.26, 8.24 3.52, 8.28 3.78 C8.32 4.04, 8.33 4.44, 8.34 4.57 C8.35 4.7, 8.35 4.44, 8.34 4.57" stroke="none" stroke-width="0" fill="#7950f2"></path><path d="M8.34 4.57 C8.34 4.83, 8.32 5.1, 8.28 5.36 C8.24 5.62, 8.17 5.88, 8.09 6.13 C8.01 6.38, 7.91 6.63, 7.78 6.85 C7.66 7.08, 7.52 7.3, 7.37 7.51 C7.21 7.71, 7.04 7.9, 6.85 8.07 C6.67 8.24, 6.47 8.39, 6.26 8.53 C6.05 8.66, 5.83 8.77, 5.6 8.86 C5.37 8.95, 5.13 9.02, 4.9 9.07 C4.66 9.12, 4.41 9.14, 4.17 9.14 C3.93 9.14, 3.69 9.12, 3.45 9.07 C3.21 9.02, 2.97 8.95, 2.74 8.86 C2.52 8.77, 2.29 8.66, 2.09 8.53 C1.88 8.39, 1.68 8.24, 1.49 8.07 C1.31 7.9, 1.13 7.71, 0.98 7.51 C0.82 7.3, 0.68 7.08, 0.56 6.85 C0.44 6.63, 0.33 6.38, 0.25 6.13 C0.17 5.88, 0.11 5.62, 0.06 5.36 C0.02 5.1, 0 4.83, 0 4.57 C0 4.31, 0.02 4.04, 0.06 3.78 C0.11 3.52, 0.17 3.26, 0.25 3.01 C0.33 2.76, 0.44 2.51, 0.56 2.28 C0.68 2.06, 0.82 1.83, 0.98 1.63 C1.13 1.43, 1.31 1.24, 1.49 1.07 C1.68 0.9, 1.88 0.74, 2.09 0.61 C2.29 0.48, 2.52 0.37, 2.74 0.28 C2.97 0.19, 3.21 0.12, 3.45 0.07 C3.69 0.02, 3.93 0, 4.17 0 C4.41 0, 4.66 0.02, 4.9 0.07 C5.13 0.12, 5.37 0.19, 5.6 0.28 C5.83 0.37, 6.05 0.48, 6.26 0.61 C6.47 0.74, 6.67 0.9, 6.85 1.07 C7.04 1.24, 7.21 1.43, 7.37 1.63 C7.52 1.83, 7.66 2.06, 7.78 2.28 C7.91 2.51, 8.01 2.76, 8.09 3.01 C8.17 3.26, 8.24 3.52, 8.28 3.78 C8.32 4.04, 8.33 4.44, 8.34 4.57 C8.35 4.7, 8.35 4.44, 8.34 4.57" stroke="#5f3dc4" stroke-width="1" fill="none"></path></g><g stroke-linecap="round" transform="translate(216.68511612874772 21.680525097351165) rotate(358.1310915065084 4.207022158495647 4.569555668486828)"><path d="M8.41 4.57 C8.41 4.83, 8.39 5.1, 8.35 5.36 C8.31 5.62, 8.24 5.88, 8.16 6.13 C8.08 6.38, 7.97 6.63, 7.85 6.85 C7.73 7.08, 7.59 7.3, 7.43 7.51 C7.27 7.71, 7.1 7.9, 6.91 8.07 C6.72 8.24, 6.52 8.39, 6.31 8.53 C6.1 8.66, 5.87 8.77, 5.65 8.86 C5.42 8.95, 5.18 9.02, 4.94 9.07 C4.7 9.12, 4.45 9.14, 4.21 9.14 C3.96 9.14, 3.72 9.12, 3.48 9.07 C3.24 9.02, 3 8.95, 2.77 8.86 C2.54 8.77, 2.31 8.66, 2.1 8.53 C1.89 8.39, 1.69 8.24, 1.5 8.07 C1.32 7.9, 1.14 7.71, 0.98 7.51 C0.83 7.3, 0.69 7.08, 0.56 6.85 C0.44 6.63, 0.34 6.38, 0.25 6.13 C0.17 5.88, 0.11 5.62, 0.06 5.36 C0.02 5.1, 0 4.83, 0 4.57 C0 4.31, 0.02 4.04, 0.06 3.78 C0.11 3.52, 0.17 3.26, 0.25 3.01 C0.34 2.76, 0.44 2.51, 0.56 2.28 C0.69 2.06, 0.83 1.83, 0.98 1.63 C1.14 1.43, 1.32 1.24, 1.5 1.07 C1.69 0.9, 1.89 0.74, 2.1 0.61 C2.31 0.48, 2.54 0.37, 2.77 0.28 C3 0.19, 3.24 0.12, 3.48 0.07 C3.72 0.02, 3.96 0, 4.21 0 C4.45 0, 4.7 0.02, 4.94 0.07 C5.18 0.12, 5.42 0.19, 5.65 0.28 C5.87 0.37, 6.1 0.48, 6.31 0.61 C6.52 0.74, 6.72 0.9, 6.91 1.07 C7.1 1.24, 7.27 1.43, 7.43 1.63 C7.59 1.83, 7.73 2.06, 7.85 2.28 C7.97 2.51, 8.08 2.76, 8.16 3.01 C8.24 3.26, 8.31 3.52, 8.35 3.78 C8.39 4.04, 8.4 4.44, 8.41 4.57 C8.42 4.7, 8.42 4.44, 8.41 4.57" stroke="none" stroke-width="0" fill="#7950f2"></path><path d="M8.41 4.57 C8.41 4.83, 8.39 5.1, 8.35 5.36 C8.31 5.62, 8.24 5.88, 8.16 6.13 C8.08 6.38, 7.97 6.63, 7.85 6.85 C7.73 7.08, 7.59 7.3, 7.43 7.51 C7.27 7.71, 7.1 7.9, 6.91 8.07 C6.72 8.24, 6.52 8.39, 6.31 8.53 C6.1 8.66, 5.87 8.77, 5.65 8.86 C5.42 8.95, 5.18 9.02, 4.94 9.07 C4.7 9.12, 4.45 9.14, 4.21 9.14 C3.96 9.14, 3.72 9.12, 3.48 9.07 C3.24 9.02, 3 8.95, 2.77 8.86 C2.54 8.77, 2.31 8.66, 2.1 8.53 C1.89 8.39, 1.69 8.24, 1.5 8.07 C1.32 7.9, 1.14 7.71, 0.98 7.51 C0.83 7.3, 0.69 7.08, 0.56 6.85 C0.44 6.63, 0.34 6.38, 0.25 6.13 C0.17 5.88, 0.11 5.62, 0.06 5.36 C0.02 5.1, 0 4.83, 0 4.57 C0 4.31, 0.02 4.04, 0.06 3.78 C0.11 3.52, 0.17 3.26, 0.25 3.01 C0.34 2.76, 0.44 2.51, 0.56 2.28 C0.69 2.06, 0.83 1.83, 0.98 1.63 C1.14 1.43, 1.32 1.24, 1.5 1.07 C1.69 0.9, 1.89 0.74, 2.1 0.61 C2.31 0.48, 2.54 0.37, 2.77 0.28 C3 0.19, 3.24 0.12, 3.48 0.07 C3.72 0.02, 3.96 0, 4.21 0 C4.45 0, 4.7 0.02, 4.94 0.07 C5.18 0.12, 5.42 0.19, 5.65 0.28 C5.87 0.37, 6.1 0.48, 6.31 0.61 C6.52 0.74, 6.72 0.9, 6.91 1.07 C7.1 1.24, 7.27 1.43, 7.43 1.63 C7.59 1.83, 7.73 2.06, 7.85 2.28 C7.97 2.51, 8.08 2.76, 8.16 3.01 C8.24 3.26, 8.31 3.52, 8.35 3.78 C8.39 4.04, 8.4 4.44, 8.41 4.57 C8.42 4.7, 8.42 4.44, 8.41 4.57" stroke="#5f3dc4" stroke-width="1" fill="none"></path></g><g stroke-linecap="round" transform="translate(218.73612571091599 54.693890125024154) rotate(358.1310915065084 4.207022158495647 4.569555668486828)"><path d="M8.41 4.57 C8.41 4.83, 8.39 5.1, 8.35 5.36 C8.31 5.62, 8.24 5.88, 8.16 6.13 C8.08 6.38, 7.97 6.63, 7.85 6.85 C7.73 7.08, 7.59 7.3, 7.43 7.51 C7.27 7.71, 7.1 7.9, 6.91 8.07 C6.72 8.24, 6.52 8.39, 6.31 8.53 C6.1 8.66, 5.87 8.77, 5.65 8.86 C5.42 8.95, 5.18 9.02, 4.94 9.07 C4.7 9.12, 4.45 9.14, 4.21 9.14 C3.96 9.14, 3.72 9.12, 3.48 9.07 C3.24 9.02, 3 8.95, 2.77 8.86 C2.54 8.77, 2.31 8.66, 2.1 8.53 C1.89 8.39, 1.69 8.24, 1.5 8.07 C1.32 7.9, 1.14 7.71, 0.98 7.51 C0.83 7.3, 0.69 7.08, 0.56 6.85 C0.44 6.63, 0.34 6.38, 0.25 6.13 C0.17 5.88, 0.11 5.62, 0.06 5.36 C0.02 5.1, 0 4.83, 0 4.57 C0 4.31, 0.02 4.04, 0.06 3.78 C0.11 3.52, 0.17 3.26, 0.25 3.01 C0.34 2.76, 0.44 2.51, 0.56 2.28 C0.69 2.06, 0.83 1.83, 0.98 1.63 C1.14 1.43, 1.32 1.24, 1.5 1.07 C1.69 0.9, 1.89 0.74, 2.1 0.61 C2.31 0.48, 2.54 0.37, 2.77 0.28 C3 0.19, 3.24 0.12, 3.48 0.07 C3.72 0.02, 3.96 0, 4.21 0 C4.45 0, 4.7 0.02, 4.94 0.07 C5.18 0.12, 5.42 0.19, 5.65 0.28 C5.87 0.37, 6.1 0.48, 6.31 0.61 C6.52 0.74, 6.72 0.9, 6.91 1.07 C7.1 1.24, 7.27 1.43, 7.43 1.63 C7.59 1.83, 7.73 2.06, 7.85 2.28 C7.97 2.51, 8.08 2.76, 8.16 3.01 C8.24 3.26, 8.31 3.52, 8.35 3.78 C8.39 4.04, 8.4 4.44, 8.41 4.57 C8.42 4.7, 8.42 4.44, 8.41 4.57" stroke="none" stroke-width="0" fill="#7950f2"></path><path d="M8.41 4.57 C8.41 4.83, 8.39 5.1, 8.35 5.36 C8.31 5.62, 8.24 5.88, 8.16 6.13 C8.08 6.38, 7.97 6.63, 7.85 6.85 C7.73 7.08, 7.59 7.3, 7.43 7.51 C7.27 7.71, 7.1 7.9, 6.91 8.07 C6.72 8.24, 6.52 8.39, 6.31 8.53 C6.1 8.66, 5.87 8.77, 5.65 8.86 C5.42 8.95, 5.18 9.02, 4.94 9.07 C4.7 9.12, 4.45 9.14, 4.21 9.14 C3.96 9.14, 3.72 9.12, 3.48 9.07 C3.24 9.02, 3 8.95, 2.77 8.86 C2.54 8.77, 2.31 8.66, 2.1 8.53 C1.89 8.39, 1.69 8.24, 1.5 8.07 C1.32 7.9, 1.14 7.71, 0.98 7.51 C0.83 7.3, 0.69 7.08, 0.56 6.85 C0.44 6.63, 0.34 6.38, 0.25 6.13 C0.17 5.88, 0.11 5.62, 0.06 5.36 C0.02 5.1, 0 4.83, 0 4.57 C0 4.31, 0.02 4.04, 0.06 3.78 C0.11 3.52, 0.17 3.26, 0.25 3.01 C0.34 2.76, 0.44 2.51, 0.56 2.28 C0.69 2.06, 0.83 1.83, 0.98 1.63 C1.14 1.43, 1.32 1.24, 1.5 1.07 C1.69 0.9, 1.89 0.74, 2.1 0.61 C2.31 0.48, 2.54 0.37, 2.77 0.28 C3 0.19, 3.24 0.12, 3.48 0.07 C3.72 0.02, 3.96 0, 4.21 0 C4.45 0, 4.7 0.02, 4.94 0.07 C5.18 0.12, 5.42 0.19, 5.65 0.28 C5.87 0.37, 6.1 0.48, 6.31 0.61 C6.52 0.74, 6.72 0.9, 6.91 1.07 C7.1 1.24, 7.27 1.43, 7.43 1.63 C7.59 1.83, 7.73 2.06, 7.85 2.28 C7.97 2.51, 8.08 2.76, 8.16 3.01 C8.24 3.26, 8.31 3.52, 8.35 3.78 C8.39 4.04, 8.4 4.44, 8.41 4.57 C8.42 4.7, 8.42 4.44, 8.41 4.57" stroke="#5f3dc4" stroke-width="1" fill="none"></path></g><g stroke-linecap="round" transform="translate(188.60415744416105 22.021486118504072) rotate(358.1310915065084 3.7296939325749463 3.867855952340051)"><path d="M7.46 3.87 C7.46 4.09, 7.44 4.32, 7.4 4.54 C7.37 4.76, 7.31 4.98, 7.23 5.19 C7.16 5.4, 7.07 5.61, 6.96 5.8 C6.85 6, 6.73 6.18, 6.59 6.35 C6.45 6.53, 6.29 6.69, 6.13 6.83 C5.96 6.97, 5.78 7.11, 5.59 7.22 C5.41 7.33, 5.21 7.43, 5.01 7.5 C4.8 7.58, 4.59 7.64, 4.38 7.68 C4.16 7.72, 3.95 7.74, 3.73 7.74 C3.51 7.74, 3.29 7.72, 3.08 7.68 C2.87 7.64, 2.66 7.58, 2.45 7.5 C2.25 7.43, 2.05 7.33, 1.86 7.22 C1.68 7.11, 1.5 6.97, 1.33 6.83 C1.17 6.69, 1.01 6.53, 0.87 6.35 C0.73 6.18, 0.61 6, 0.5 5.8 C0.39 5.61, 0.3 5.4, 0.22 5.19 C0.15 4.98, 0.09 4.76, 0.06 4.54 C0.02 4.32, 0 4.09, 0 3.87 C0 3.64, 0.02 3.42, 0.06 3.2 C0.09 2.98, 0.15 2.76, 0.22 2.54 C0.3 2.33, 0.39 2.13, 0.5 1.93 C0.61 1.74, 0.73 1.55, 0.87 1.38 C1.01 1.21, 1.17 1.05, 1.33 0.9 C1.5 0.76, 1.68 0.63, 1.86 0.52 C2.05 0.41, 2.25 0.31, 2.45 0.23 C2.66 0.16, 2.87 0.1, 3.08 0.06 C3.29 0.02, 3.51 0, 3.73 0 C3.95 0, 4.16 0.02, 4.38 0.06 C4.59 0.1, 4.8 0.16, 5.01 0.23 C5.21 0.31, 5.41 0.41, 5.59 0.52 C5.78 0.63, 5.96 0.76, 6.13 0.9 C6.29 1.05, 6.45 1.21, 6.59 1.38 C6.73 1.55, 6.85 1.74, 6.96 1.93 C7.07 2.13, 7.16 2.33, 7.23 2.54 C7.31 2.76, 7.37 2.98, 7.4 3.2 C7.44 3.42, 7.45 3.76, 7.46 3.87 C7.47 3.98, 7.47 3.76, 7.46 3.87" stroke="#fff" stroke-width="1" fill="none"></path></g><g stroke-linecap="round" transform="translate(189.3775074901705 54.234095167252235) rotate(358.1310915065084 3.7296939325749463 3.867855952340051)"><path d="M7.46 3.87 C7.46 4.09, 7.44 4.32, 7.4 4.54 C7.37 4.76, 7.31 4.98, 7.23 5.19 C7.16 5.4, 7.07 5.61, 6.96 5.8 C6.85 6, 6.73 6.18, 6.59 6.35 C6.45 6.53, 6.29 6.69, 6.13 6.83 C5.96 6.97, 5.78 7.11, 5.59 7.22 C5.41 7.33, 5.21 7.43, 5.01 7.5 C4.8 7.58, 4.59 7.64, 4.38 7.68 C4.16 7.72, 3.95 7.74, 3.73 7.74 C3.51 7.74, 3.29 7.72, 3.08 7.68 C2.87 7.64, 2.66 7.58, 2.45 7.5 C2.25 7.43, 2.05 7.33, 1.86 7.22 C1.68 7.11, 1.5 6.97, 1.33 6.83 C1.17 6.69, 1.01 6.53, 0.87 6.35 C0.73 6.18, 0.61 6, 0.5 5.8 C0.39 5.61, 0.3 5.4, 0.22 5.19 C0.15 4.98, 0.09 4.76, 0.06 4.54 C0.02 4.32, 0 4.09, 0 3.87 C0 3.64, 0.02 3.42, 0.06 3.2 C0.09 2.98, 0.15 2.76, 0.22 2.54 C0.3 2.33, 0.39 2.13, 0.5 1.93 C0.61 1.74, 0.73 1.55, 0.87 1.38 C1.01 1.21, 1.17 1.05, 1.33 0.9 C1.5 0.76, 1.68 0.63, 1.86 0.52 C2.05 0.41, 2.25 0.31, 2.45 0.23 C2.66 0.16, 2.87 0.1, 3.08 0.06 C3.29 0.02, 3.51 0, 3.73 0 C3.95 0, 4.16 0.02, 4.38 0.06 C4.59 0.1, 4.8 0.16, 5.01 0.23 C5.21 0.31, 5.41 0.41, 5.59 0.52 C5.78 0.63, 5.96 0.76, 6.13 0.9 C6.29 1.05, 6.45 1.21, 6.59 1.38 C6.73 1.55, 6.85 1.74, 6.96 1.93 C7.07 2.13, 7.16 2.33, 7.23 2.54 C7.31 2.76, 7.37 2.98, 7.4 3.2 C7.44 3.42, 7.45 3.76, 7.46 3.87 C7.47 3.98, 7.47 3.76, 7.46 3.87" stroke="#fff" stroke-width="1" fill="none"></path></g><g stroke-linecap="round" transform="translate(203.9429869002579 39.50137774945779) rotate(358.1310915065084 3.7246862679369315 3.7725718007777687)"><path d="M7.45 3.77 C7.45 3.99, 7.43 4.21, 7.39 4.43 C7.36 4.64, 7.3 4.86, 7.22 5.06 C7.15 5.27, 7.06 5.47, 6.95 5.66 C6.84 5.85, 6.72 6.03, 6.58 6.2 C6.44 6.36, 6.28 6.52, 6.12 6.66 C5.95 6.8, 5.77 6.93, 5.59 7.04 C5.4 7.15, 5.2 7.24, 5 7.32 C4.8 7.39, 4.58 7.45, 4.37 7.49 C4.16 7.53, 3.94 7.55, 3.72 7.55 C3.51 7.55, 3.29 7.53, 3.08 7.49 C2.87 7.45, 2.65 7.39, 2.45 7.32 C2.25 7.24, 2.05 7.15, 1.86 7.04 C1.68 6.93, 1.5 6.8, 1.33 6.66 C1.17 6.52, 1.01 6.36, 0.87 6.2 C0.73 6.03, 0.61 5.85, 0.5 5.66 C0.39 5.47, 0.3 5.27, 0.22 5.06 C0.15 4.86, 0.09 4.64, 0.06 4.43 C0.02 4.21, 0 3.99, 0 3.77 C0 3.55, 0.02 3.33, 0.06 3.12 C0.09 2.9, 0.15 2.69, 0.22 2.48 C0.3 2.28, 0.39 2.08, 0.5 1.89 C0.61 1.7, 0.73 1.51, 0.87 1.35 C1.01 1.18, 1.17 1.02, 1.33 0.88 C1.5 0.74, 1.68 0.61, 1.86 0.51 C2.05 0.4, 2.25 0.3, 2.45 0.23 C2.65 0.15, 2.87 0.1, 3.08 0.06 C3.29 0.02, 3.51 0, 3.72 0 C3.94 0, 4.16 0.02, 4.37 0.06 C4.58 0.1, 4.8 0.15, 5 0.23 C5.2 0.3, 5.4 0.4, 5.59 0.51 C5.77 0.61, 5.95 0.74, 6.12 0.88 C6.28 1.02, 6.44 1.18, 6.58 1.35 C6.72 1.51, 6.84 1.7, 6.95 1.89 C7.06 2.08, 7.15 2.28, 7.22 2.48 C7.3 2.69, 7.36 2.9, 7.39 3.12 C7.43 3.33, 7.44 3.66, 7.45 3.77 C7.46 3.88, 7.46 3.66, 7.45 3.77" stroke="#fff" stroke-width="1" fill="none"></path></g><g stroke-linecap="round" transform="translate(217.49491373873207 22.58559761595825) rotate(358.1310915065084 3.325364728417526 3.7725718007777687)"><path d="M6.65 3.77 C6.65 3.99, 6.63 4.21, 6.6 4.43 C6.57 4.64, 6.52 4.86, 6.45 5.06 C6.38 5.27, 6.3 5.47, 6.21 5.66 C6.11 5.85, 6 6.03, 5.87 6.2 C5.75 6.36, 5.61 6.52, 5.46 6.66 C5.32 6.8, 5.15 6.93, 4.99 7.04 C4.82 7.15, 4.64 7.24, 4.46 7.32 C4.28 7.39, 4.09 7.45, 3.9 7.49 C3.71 7.53, 3.52 7.55, 3.33 7.55 C3.13 7.55, 2.94 7.53, 2.75 7.49 C2.56 7.45, 2.37 7.39, 2.19 7.32 C2.01 7.24, 1.83 7.15, 1.66 7.04 C1.5 6.93, 1.34 6.8, 1.19 6.66 C1.04 6.52, 0.9 6.36, 0.78 6.2 C0.65 6.03, 0.54 5.85, 0.45 5.66 C0.35 5.47, 0.27 5.27, 0.2 5.06 C0.13 4.86, 0.08 4.64, 0.05 4.43 C0.02 4.21, 0 3.99, 0 3.77 C0 3.55, 0.02 3.33, 0.05 3.12 C0.08 2.9, 0.13 2.69, 0.2 2.48 C0.27 2.28, 0.35 2.08, 0.45 1.89 C0.54 1.7, 0.65 1.51, 0.78 1.35 C0.9 1.18, 1.04 1.02, 1.19 0.88 C1.34 0.74, 1.5 0.61, 1.66 0.51 C1.83 0.4, 2.01 0.3, 2.19 0.23 C2.37 0.15, 2.56 0.1, 2.75 0.06 C2.94 0.02, 3.13 0, 3.33 0 C3.52 0, 3.71 0.02, 3.9 0.06 C4.09 0.1, 4.28 0.15, 4.46 0.23 C4.64 0.3, 4.82 0.4, 4.99 0.51 C5.15 0.61, 5.32 0.74, 5.46 0.88 C5.61 1.02, 5.75 1.18, 5.87 1.35 C6 1.51, 6.11 1.7, 6.21 1.89 C6.3 2.08, 6.38 2.28, 6.45 2.48 C6.52 2.69, 6.57 2.9, 6.6 3.12 C6.63 3.33, 6.64 3.66, 6.65 3.77 C6.66 3.88, 6.66 3.66, 6.65 3.77" stroke="#fff" stroke-width="1" fill="none"></path></g><g stroke-linecap="round" transform="translate(220.0205063755011 55.39582243210589) rotate(358.1310915065084 2.94178474596697 3.7725718007777687)"><path d="M5.88 3.77 C5.88 3.99, 5.87 4.21, 5.84 4.43 C5.81 4.64, 5.76 4.86, 5.71 5.06 C5.65 5.27, 5.57 5.47, 5.49 5.66 C5.4 5.85, 5.3 6.03, 5.2 6.2 C5.09 6.36, 4.96 6.52, 4.83 6.66 C4.7 6.8, 4.56 6.93, 4.41 7.04 C4.27 7.15, 4.11 7.24, 3.95 7.32 C3.79 7.39, 3.62 7.45, 3.45 7.49 C3.28 7.53, 3.11 7.55, 2.94 7.55 C2.77 7.55, 2.6 7.53, 2.43 7.49 C2.26 7.45, 2.1 7.39, 1.94 7.32 C1.78 7.24, 1.62 7.15, 1.47 7.04 C1.32 6.93, 1.18 6.8, 1.05 6.66 C0.92 6.52, 0.8 6.36, 0.69 6.2 C0.58 6.03, 0.48 5.85, 0.39 5.66 C0.31 5.47, 0.24 5.27, 0.18 5.06 C0.12 4.86, 0.07 4.64, 0.04 4.43 C0.02 4.21, 0 3.99, 0 3.77 C0 3.55, 0.02 3.33, 0.04 3.12 C0.07 2.9, 0.12 2.69, 0.18 2.48 C0.24 2.28, 0.31 2.08, 0.39 1.89 C0.48 1.7, 0.58 1.51, 0.69 1.35 C0.8 1.18, 0.92 1.02, 1.05 0.88 C1.18 0.74, 1.32 0.61, 1.47 0.51 C1.62 0.4, 1.78 0.3, 1.94 0.23 C2.1 0.15, 2.26 0.1, 2.43 0.06 C2.6 0.02, 2.77 0, 2.94 0 C3.11 0, 3.28 0.02, 3.45 0.06 C3.62 0.1, 3.79 0.15, 3.95 0.23 C4.11 0.3, 4.27 0.4, 4.41 0.51 C4.56 0.61, 4.7 0.74, 4.83 0.88 C4.96 1.02, 5.09 1.18, 5.2 1.35 C5.3 1.51, 5.4 1.7, 5.49 1.89 C5.57 2.08, 5.65 2.28, 5.71 2.48 C5.76 2.69, 5.81 2.9, 5.84 3.12 C5.87 3.33, 5.88 3.66, 5.88 3.77 C5.89 3.88, 5.89 3.66, 5.88 3.77" stroke="#fff" stroke-width="1" fill="none"></path></g><g transform="translate(10 181.6153233983223) rotate(0 50.979949951171875 25)"><text x="50.979949951171875" y="0" font-family="Virgil, Segoe UI Emoji" font-size="20px" fill="#087f5b" text-anchor="middle" style="white-space: pre;" direction="ltr" dominant-baseline="text-before-edge">Application</text><text x="50.979949951171875" y="25" font-family="Virgil, Segoe UI Emoji" font-size="20px" fill="#087f5b" text-anchor="middle" style="white-space: pre;" direction="ltr" dominant-baseline="text-before-edge">Engineer</text></g><g stroke-opacity="0.9" fill-opacity="0.9" stroke-linecap="round" transform="translate(168.0560756549039 106.53030585826855) rotate(0 26.539974486125857 33.62833480013751)"><path d="M13.27 0 L42.92 0.21 L47.9 1.87 L51.21 5.18 L53.08 13.27 L53.08 53.99 L52.25 59.79 L51.21 62.07 L47.9 65.39 L39.81 67.26 L10.16 67.05 L5.18 65.39 L1.87 62.07 L0 53.99 L0.21 10.16 L1.87 5.18 L5.18 1.87 L13.27 0" stroke="none" stroke-width="0" fill="#fab005"></path><path d="M13.27 0 M13.27 0 C20.94 0, 28.61 0, 39.81 0 M13.27 0 C19.37 0, 25.48 0, 39.81 0 M39.81 0 C48.66 0, 53.08 4.42, 53.08 13.27 M39.81 0 C48.66 0, 53.08 4.42, 53.08 13.27 M53.08 13.27 C53.08 21.47, 53.08 29.66, 53.08 53.99 M53.08 13.27 C53.08 27.88, 53.08 42.5, 53.08 53.99 M53.08 53.99 C53.08 62.83, 48.66 67.26, 39.81 67.26 M53.08 53.99 C53.08 62.83, 48.66 67.26, 39.81 67.26 M39.81 67.26 C31.46 67.26, 23.12 67.26, 13.27 67.26 M39.81 67.26 C33.07 67.26, 26.34 67.26, 13.27 67.26 M13.27 67.26 C4.42 67.26, 0 62.83, 0 53.99 M13.27 67.26 C4.42 67.26, 0 62.83, 0 53.99 M0 53.99 C0 41.58, 0 29.18, 0 13.27 M0 53.99 C0 39.92, 0 25.86, 0 13.27 M0 13.27 C0 4.42, 4.42 0, 13.27 0 M0 13.27 C0 4.42, 4.42 0, 13.27 0" stroke="#000000" stroke-width="1" fill="none"></path></g><g stroke-opacity="0.9" fill-opacity="0.9" transform="translate(175.59224941749744 127.51641012525488) rotate(0 18.61998748779297 12.5)"><text x="18.61998748779297" y="0" font-family="Virgil, Segoe UI Emoji" font-size="20px" fill="#000000" text-anchor="middle" style="white-space: pre;" direction="ltr" dominant-baseline="text-before-edge">API</text></g><g stroke-linecap="round" transform="translate(152.40168102579264 78.19277698276983) rotate(0 18.5 21)"><path d="M37 21 C37 22.22, 36.9 23.45, 36.72 24.65 C36.53 25.84, 36.25 27.04, 35.88 28.18 C35.52 29.32, 35.06 30.45, 34.52 31.5 C33.99 32.55, 33.36 33.57, 32.67 34.5 C31.98 35.43, 31.21 36.31, 30.39 37.09 C29.57 37.87, 28.68 38.58, 27.75 39.19 C26.82 39.79, 25.83 40.32, 24.83 40.73 C23.82 41.15, 22.77 41.47, 21.71 41.68 C20.66 41.89, 19.57 42, 18.5 42 C17.43 42, 16.34 41.89, 15.29 41.68 C14.23 41.47, 13.18 41.15, 12.17 40.73 C11.17 40.32, 10.18 39.79, 9.25 39.19 C8.32 38.58, 7.43 37.87, 6.61 37.09 C5.79 36.31, 5.02 35.43, 4.33 34.5 C3.64 33.57, 3.01 32.55, 2.48 31.5 C1.94 30.45, 1.48 29.32, 1.12 28.18 C0.75 27.04, 0.47 25.84, 0.28 24.65 C0.1 23.45, 0 22.22, 0 21 C0 19.78, 0.1 18.55, 0.28 17.35 C0.47 16.16, 0.75 14.96, 1.12 13.82 C1.48 12.68, 1.94 11.55, 2.48 10.5 C3.01 9.45, 3.64 8.43, 4.33 7.5 C5.02 6.57, 5.79 5.69, 6.61 4.91 C7.43 4.13, 8.32 3.42, 9.25 2.81 C10.18 2.21, 11.17 1.68, 12.17 1.27 C13.18 0.85, 14.23 0.53, 15.29 0.32 C16.34 0.11, 17.43 0, 18.5 0 C19.57 0, 20.66 0.11, 21.71 0.32 C22.77 0.53, 23.82 0.85, 24.83 1.27 C25.83 1.68, 26.82 2.21, 27.75 2.81 C28.68 3.42, 29.57 4.13, 30.39 4.91 C31.21 5.69, 31.98 6.57, 32.67 7.5 C33.36 8.43, 33.99 9.45, 34.52 10.5 C35.06 11.55, 35.52 12.68, 35.88 13.82 C36.25 14.96, 36.53 16.16, 36.72 17.35 C36.9 18.55, 36.95 20.39, 37 21 C37.05 21.61, 37.05 20.39, 37 21" stroke="none" stroke-width="0" fill="#f08c00"></path><path d="M37 21 C37 22.22, 36.9 23.45, 36.72 24.65 C36.53 25.84, 36.25 27.04, 35.88 28.18 C35.52 29.32, 35.06 30.45, 34.52 31.5 C33.99 32.55, 33.36 33.57, 32.67 34.5 C31.98 35.43, 31.21 36.31, 30.39 37.09 C29.57 37.87, 28.68 38.58, 27.75 39.19 C26.82 39.79, 25.83 40.32, 24.83 40.73 C23.82 41.15, 22.77 41.47, 21.71 41.68 C20.66 41.89, 19.57 42, 18.5 42 C17.43 42, 16.34 41.89, 15.29 41.68 C14.23 41.47, 13.18 41.15, 12.17 40.73 C11.17 40.32, 10.18 39.79, 9.25 39.19 C8.32 38.58, 7.43 37.87, 6.61 37.09 C5.79 36.31, 5.02 35.43, 4.33 34.5 C3.64 33.57, 3.01 32.55, 2.48 31.5 C1.94 30.45, 1.48 29.32, 1.12 28.18 C0.75 27.04, 0.47 25.84, 0.28 24.65 C0.1 23.45, 0 22.22, 0 21 C0 19.78, 0.1 18.55, 0.28 17.35 C0.47 16.16, 0.75 14.96, 1.12 13.82 C1.48 12.68, 1.94 11.55, 2.48 10.5 C3.01 9.45, 3.64 8.43, 4.33 7.5 C5.02 6.57, 5.79 5.69, 6.61 4.91 C7.43 4.13, 8.32 3.42, 9.25 2.81 C10.18 2.21, 11.17 1.68, 12.17 1.27 C13.18 0.85, 14.23 0.53, 15.29 0.32 C16.34 0.11, 17.43 0, 18.5 0 C19.57 0, 20.66 0.11, 21.71 0.32 C22.77 0.53, 23.82 0.85, 24.83 1.27 C25.83 1.68, 26.82 2.21, 27.75 2.81 C28.68 3.42, 29.57 4.13, 30.39 4.91 C31.21 5.69, 31.98 6.57, 32.67 7.5 C33.36 8.43, 33.99 9.45, 34.52 10.5 C35.06 11.55, 35.52 12.68, 35.88 13.82 C36.25 14.96, 36.53 16.16, 36.72 17.35 C36.9 18.55, 36.95 20.39, 37 21 C37.05 21.61, 37.05 20.39, 37 21" stroke="#000000" stroke-width="1" fill="none"></path></g><g transform="translate(168.65220630626345 89.34353457785255) rotate(0 2.167999267578125 10)"><text x="2.167999267578125" y="0" font-family="Virgil, Segoe UI Emoji" font-size="16px" fill="#000000" text-anchor="middle" style="white-space: pre;" direction="ltr" dominant-baseline="text-before-edge">1</text></g><g stroke-linecap="round" transform="translate(259.66389440983994 76.69992378171355) rotate(0 18.5 21)"><path d="M37 21 C37 22.22, 36.9 23.45, 36.72 24.65 C36.53 25.84, 36.25 27.04, 35.88 28.18 C35.52 29.32, 35.06 30.45, 34.52 31.5 C33.99 32.55, 33.36 33.57, 32.67 34.5 C31.98 35.43, 31.21 36.31, 30.39 37.09 C29.57 37.87, 28.68 38.58, 27.75 39.19 C26.82 39.79, 25.83 40.32, 24.83 40.73 C23.82 41.15, 22.77 41.47, 21.71 41.68 C20.66 41.89, 19.57 42, 18.5 42 C17.43 42, 16.34 41.89, 15.29 41.68 C14.23 41.47, 13.18 41.15, 12.17 40.73 C11.17 40.32, 10.18 39.79, 9.25 39.19 C8.32 38.58, 7.43 37.87, 6.61 37.09 C5.79 36.31, 5.02 35.43, 4.33 34.5 C3.64 33.57, 3.01 32.55, 2.48 31.5 C1.94 30.45, 1.48 29.32, 1.12 28.18 C0.75 27.04, 0.47 25.84, 0.28 24.65 C0.1 23.45, 0 22.22, 0 21 C0 19.78, 0.1 18.55, 0.28 17.35 C0.47 16.16, 0.75 14.96, 1.12 13.82 C1.48 12.68, 1.94 11.55, 2.48 10.5 C3.01 9.45, 3.64 8.43, 4.33 7.5 C5.02 6.57, 5.79 5.69, 6.61 4.91 C7.43 4.13, 8.32 3.42, 9.25 2.81 C10.18 2.21, 11.17 1.68, 12.17 1.27 C13.18 0.85, 14.23 0.53, 15.29 0.32 C16.34 0.11, 17.43 0, 18.5 0 C19.57 0, 20.66 0.11, 21.71 0.32 C22.77 0.53, 23.82 0.85, 24.83 1.27 C25.83 1.68, 26.82 2.21, 27.75 2.81 C28.68 3.42, 29.57 4.13, 30.39 4.91 C31.21 5.69, 31.98 6.57, 32.67 7.5 C33.36 8.43, 33.99 9.45, 34.52 10.5 C35.06 11.55, 35.52 12.68, 35.88 13.82 C36.25 14.96, 36.53 16.16, 36.72 17.35 C36.9 18.55, 36.95 20.39, 37 21 C37.05 21.61, 37.05 20.39, 37 21" stroke="none" stroke-width="0" fill="#f08c00"></path><path d="M37 21 C37 22.22, 36.9 23.45, 36.72 24.65 C36.53 25.84, 36.25 27.04, 35.88 28.18 C35.52 29.32, 35.06 30.45, 34.52 31.5 C33.99 32.55, 33.36 33.57, 32.67 34.5 C31.98 35.43, 31.21 36.31, 30.39 37.09 C29.57 37.87, 28.68 38.58, 27.75 39.19 C26.82 39.79, 25.83 40.32, 24.83 40.73 C23.82 41.15, 22.77 41.47, 21.71 41.68 C20.66 41.89, 19.57 42, 18.5 42 C17.43 42, 16.34 41.89, 15.29 41.68 C14.23 41.47, 13.18 41.15, 12.17 40.73 C11.17 40.32, 10.18 39.79, 9.25 39.19 C8.32 38.58, 7.43 37.87, 6.61 37.09 C5.79 36.31, 5.02 35.43, 4.33 34.5 C3.64 33.57, 3.01 32.55, 2.48 31.5 C1.94 30.45, 1.48 29.32, 1.12 28.18 C0.75 27.04, 0.47 25.84, 0.28 24.65 C0.1 23.45, 0 22.22, 0 21 C0 19.78, 0.1 18.55, 0.28 17.35 C0.47 16.16, 0.75 14.96, 1.12 13.82 C1.48 12.68, 1.94 11.55, 2.48 10.5 C3.01 9.45, 3.64 8.43, 4.33 7.5 C5.02 6.57, 5.79 5.69, 6.61 4.91 C7.43 4.13, 8.32 3.42, 9.25 2.81 C10.18 2.21, 11.17 1.68, 12.17 1.27 C13.18 0.85, 14.23 0.53, 15.29 0.32 C16.34 0.11, 17.43 0, 18.5 0 C19.57 0, 20.66 0.11, 21.71 0.32 C22.77 0.53, 23.82 0.85, 24.83 1.27 C25.83 1.68, 26.82 2.21, 27.75 2.81 C28.68 3.42, 29.57 4.13, 30.39 4.91 C31.21 5.69, 31.98 6.57, 32.67 7.5 C33.36 8.43, 33.99 9.45, 34.52 10.5 C35.06 11.55, 35.52 12.68, 35.88 13.82 C36.25 14.96, 36.53 16.16, 36.72 17.35 C36.9 18.55, 36.95 20.39, 37 21 C37.05 21.61, 37.05 20.39, 37 21" stroke="#000000" stroke-width="1" fill="none"></path></g><g transform="translate(272.38641981238106 87.85068137679627) rotate(0 5.6959991455078125 10)"><text x="5.6959991455078125" y="0" font-family="Virgil, Segoe UI Emoji" font-size="16px" fill="#000000" text-anchor="middle" style="white-space: pre;" direction="ltr" dominant-baseline="text-before-edge">2</text></g><g stroke-linecap="round" transform="translate(468.9407637222912 188.4164906931228) rotate(0 18.5 21)"><path d="M37 21 C37 22.22, 36.9 23.45, 36.72 24.65 C36.53 25.84, 36.25 27.04, 35.88 28.18 C35.52 29.32, 35.06 30.45, 34.52 31.5 C33.99 32.55, 33.36 33.57, 32.67 34.5 C31.98 35.43, 31.21 36.31, 30.39 37.09 C29.57 37.87, 28.68 38.58, 27.75 39.19 C26.82 39.79, 25.83 40.32, 24.83 40.73 C23.82 41.15, 22.77 41.47, 21.71 41.68 C20.66 41.89, 19.57 42, 18.5 42 C17.43 42, 16.34 41.89, 15.29 41.68 C14.23 41.47, 13.18 41.15, 12.17 40.73 C11.17 40.32, 10.18 39.79, 9.25 39.19 C8.32 38.58, 7.43 37.87, 6.61 37.09 C5.79 36.31, 5.02 35.43, 4.33 34.5 C3.64 33.57, 3.01 32.55, 2.48 31.5 C1.94 30.45, 1.48 29.32, 1.12 28.18 C0.75 27.04, 0.47 25.84, 0.28 24.65 C0.1 23.45, 0 22.22, 0 21 C0 19.78, 0.1 18.55, 0.28 17.35 C0.47 16.16, 0.75 14.96, 1.12 13.82 C1.48 12.68, 1.94 11.55, 2.48 10.5 C3.01 9.45, 3.64 8.43, 4.33 7.5 C5.02 6.57, 5.79 5.69, 6.61 4.91 C7.43 4.13, 8.32 3.42, 9.25 2.81 C10.18 2.21, 11.17 1.68, 12.17 1.27 C13.18 0.85, 14.23 0.53, 15.29 0.32 C16.34 0.11, 17.43 0, 18.5 0 C19.57 0, 20.66 0.11, 21.71 0.32 C22.77 0.53, 23.82 0.85, 24.83 1.27 C25.83 1.68, 26.82 2.21, 27.75 2.81 C28.68 3.42, 29.57 4.13, 30.39 4.91 C31.21 5.69, 31.98 6.57, 32.67 7.5 C33.36 8.43, 33.99 9.45, 34.52 10.5 C35.06 11.55, 35.52 12.68, 35.88 13.82 C36.25 14.96, 36.53 16.16, 36.72 17.35 C36.9 18.55, 36.95 20.39, 37 21 C37.05 21.61, 37.05 20.39, 37 21" stroke="none" stroke-width="0" fill="#f08c00"></path><path d="M37 21 C37 22.22, 36.9 23.45, 36.72 24.65 C36.53 25.84, 36.25 27.04, 35.88 28.18 C35.52 29.32, 35.06 30.45, 34.52 31.5 C33.99 32.55, 33.36 33.57, 32.67 34.5 C31.98 35.43, 31.21 36.31, 30.39 37.09 C29.57 37.87, 28.68 38.58, 27.75 39.19 C26.82 39.79, 25.83 40.32, 24.83 40.73 C23.82 41.15, 22.77 41.47, 21.71 41.68 C20.66 41.89, 19.57 42, 18.5 42 C17.43 42, 16.34 41.89, 15.29 41.68 C14.23 41.47, 13.18 41.15, 12.17 40.73 C11.17 40.32, 10.18 39.79, 9.25 39.19 C8.32 38.58, 7.43 37.87, 6.61 37.09 C5.79 36.31, 5.02 35.43, 4.33 34.5 C3.64 33.57, 3.01 32.55, 2.48 31.5 C1.94 30.45, 1.48 29.32, 1.12 28.18 C0.75 27.04, 0.47 25.84, 0.28 24.65 C0.1 23.45, 0 22.22, 0 21 C0 19.78, 0.1 18.55, 0.28 17.35 C0.47 16.16, 0.75 14.96, 1.12 13.82 C1.48 12.68, 1.94 11.55, 2.48 10.5 C3.01 9.45, 3.64 8.43, 4.33 7.5 C5.02 6.57, 5.79 5.69, 6.61 4.91 C7.43 4.13, 8.32 3.42, 9.25 2.81 C10.18 2.21, 11.17 1.68, 12.17 1.27 C13.18 0.85, 14.23 0.53, 15.29 0.32 C16.34 0.11, 17.43 0, 18.5 0 C19.57 0, 20.66 0.11, 21.71 0.32 C22.77 0.53, 23.82 0.85, 24.83 1.27 C25.83 1.68, 26.82 2.21, 27.75 2.81 C28.68 3.42, 29.57 4.13, 30.39 4.91 C31.21 5.69, 31.98 6.57, 32.67 7.5 C33.36 8.43, 33.99 9.45, 34.52 10.5 C35.06 11.55, 35.52 12.68, 35.88 13.82 C36.25 14.96, 36.53 16.16, 36.72 17.35 C36.9 18.55, 36.95 20.39, 37 21 C37.05 21.61, 37.05 20.39, 37 21" stroke="#000000" stroke-width="1" fill="none"></path></g><g transform="translate(481.91129022346513 199.56724828820552) rotate(0 5.447998046875 10)"><text x="5.447998046875" y="0" font-family="Virgil, Segoe UI Emoji" font-size="16px" fill="#000000" text-anchor="middle" style="white-space: pre;" direction="ltr" dominant-baseline="text-before-edge">3</text></g><g stroke-linecap="round" transform="translate(398.337249349122 244.7074522185194) rotate(0 18.5 21)"><path d="M37 21 C37 22.22, 36.9 23.45, 36.72 24.65 C36.53 25.84, 36.25 27.04, 35.88 28.18 C35.52 29.32, 35.06 30.45, 34.52 31.5 C33.99 32.55, 33.36 33.57, 32.67 34.5 C31.98 35.43, 31.21 36.31, 30.39 37.09 C29.57 37.87, 28.68 38.58, 27.75 39.19 C26.82 39.79, 25.83 40.32, 24.83 40.73 C23.82 41.15, 22.77 41.47, 21.71 41.68 C20.66 41.89, 19.57 42, 18.5 42 C17.43 42, 16.34 41.89, 15.29 41.68 C14.23 41.47, 13.18 41.15, 12.17 40.73 C11.17 40.32, 10.18 39.79, 9.25 39.19 C8.32 38.58, 7.43 37.87, 6.61 37.09 C5.79 36.31, 5.02 35.43, 4.33 34.5 C3.64 33.57, 3.01 32.55, 2.48 31.5 C1.94 30.45, 1.48 29.32, 1.12 28.18 C0.75 27.04, 0.47 25.84, 0.28 24.65 C0.1 23.45, 0 22.22, 0 21 C0 19.78, 0.1 18.55, 0.28 17.35 C0.47 16.16, 0.75 14.96, 1.12 13.82 C1.48 12.68, 1.94 11.55, 2.48 10.5 C3.01 9.45, 3.64 8.43, 4.33 7.5 C5.02 6.57, 5.79 5.69, 6.61 4.91 C7.43 4.13, 8.32 3.42, 9.25 2.81 C10.18 2.21, 11.17 1.68, 12.17 1.27 C13.18 0.85, 14.23 0.53, 15.29 0.32 C16.34 0.11, 17.43 0, 18.5 0 C19.57 0, 20.66 0.11, 21.71 0.32 C22.77 0.53, 23.82 0.85, 24.83 1.27 C25.83 1.68, 26.82 2.21, 27.75 2.81 C28.68 3.42, 29.57 4.13, 30.39 4.91 C31.21 5.69, 31.98 6.57, 32.67 7.5 C33.36 8.43, 33.99 9.45, 34.52 10.5 C35.06 11.55, 35.52 12.68, 35.88 13.82 C36.25 14.96, 36.53 16.16, 36.72 17.35 C36.9 18.55, 36.95 20.39, 37 21 C37.05 21.61, 37.05 20.39, 37 21" stroke="none" stroke-width="0" fill="#f08c00"></path><path d="M37 21 C37 22.22, 36.9 23.45, 36.72 24.65 C36.53 25.84, 36.25 27.04, 35.88 28.18 C35.52 29.32, 35.06 30.45, 34.52 31.5 C33.99 32.55, 33.36 33.57, 32.67 34.5 C31.98 35.43, 31.21 36.31, 30.39 37.09 C29.57 37.87, 28.68 38.58, 27.75 39.19 C26.82 39.79, 25.83 40.32, 24.83 40.73 C23.82 41.15, 22.77 41.47, 21.71 41.68 C20.66 41.89, 19.57 42, 18.5 42 C17.43 42, 16.34 41.89, 15.29 41.68 C14.23 41.47, 13.18 41.15, 12.17 40.73 C11.17 40.32, 10.18 39.79, 9.25 39.19 C8.32 38.58, 7.43 37.87, 6.61 37.09 C5.79 36.31, 5.02 35.43, 4.33 34.5 C3.64 33.57, 3.01 32.55, 2.48 31.5 C1.94 30.45, 1.48 29.32, 1.12 28.18 C0.75 27.04, 0.47 25.84, 0.28 24.65 C0.1 23.45, 0 22.22, 0 21 C0 19.78, 0.1 18.55, 0.28 17.35 C0.47 16.16, 0.75 14.96, 1.12 13.82 C1.48 12.68, 1.94 11.55, 2.48 10.5 C3.01 9.45, 3.64 8.43, 4.33 7.5 C5.02 6.57, 5.79 5.69, 6.61 4.91 C7.43 4.13, 8.32 3.42, 9.25 2.81 C10.18 2.21, 11.17 1.68, 12.17 1.27 C13.18 0.85, 14.23 0.53, 15.29 0.32 C16.34 0.11, 17.43 0, 18.5 0 C19.57 0, 20.66 0.11, 21.71 0.32 C22.77 0.53, 23.82 0.85, 24.83 1.27 C25.83 1.68, 26.82 2.21, 27.75 2.81 C28.68 3.42, 29.57 4.13, 30.39 4.91 C31.21 5.69, 31.98 6.57, 32.67 7.5 C33.36 8.43, 33.99 9.45, 34.52 10.5 C35.06 11.55, 35.52 12.68, 35.88 13.82 C36.25 14.96, 36.53 16.16, 36.72 17.35 C36.9 18.55, 36.95 20.39, 37 21 C37.05 21.61, 37.05 20.39, 37 21" stroke="#000000" stroke-width="1" fill="none"></path></g><g transform="translate(411.6357787799834 255.85820981360212) rotate(0 5.1199951171875 10)"><text x="5.1199951171875" y="0" font-family="Virgil, Segoe UI Emoji" font-size="16px" fill="#000000" text-anchor="middle" style="white-space: pre;" direction="ltr" dominant-baseline="text-before-edge">4</text></g></svg>