<svg version="1.1" xmlns="http://www.w3.org/2000/svg" viewBox="0 0 877.1437574091278 585.210198087414">
  <title>A diagram showing the different components that make up a Kratix promise: API, Imperative Pipeline, Declarative State, and Dependencies</title>
  <!-- svg-source:excalidraw -->
  <defs>
    <style class="style-fonts">
      @font-face {
        font-family: "Virgil";
        src: url("https://excalidraw.com/Virgil.woff2");
      }
      @font-face {
        font-family: "Cascadia";
        src: url("https://excalidraw.com/Cascadia.woff2");
      }
    </style>
  </defs>
  <rect x="0" y="0" width="877.1437574091278" height="585.210198087414" fill="#ffffff"></rect><g stroke-opacity="0.3" fill-opacity="0.3" stroke-linecap="round" transform="translate(141.02146931381776 197.77193862932654) rotate(0 141.2923237423488 35.08082347688105)"><path d="M0.23 -2.4 L278.7 -0.34 L280.94 72.96 L0.01 73.88" stroke="none" stroke-width="0" fill="#e64980"></path><path d="M0.07 -1.27 C106.81 -2.55, 208.77 0.2, 280.85 0.96 M0.87 0.1 C110.14 -3.18, 218.34 -3.61, 281.89 0.53 M282.43 -3.41 C279.12 16.99, 283.98 31.11, 285.59 69.22 M284.17 1.3 C280.84 24.77, 283.65 50.74, 282.12 71.54 M280.12 67.13 C214.96 70.21, 144.81 68.02, 3.01 72.29 M281.74 70.03 C204.57 71.58, 124.76 72.01, -0.39 68.67 M3.38 67.52 C1.55 44.52, -0.73 22.57, -0.03 1.3 M-0.5 69.34 C-0.78 41.67, 0.76 16.58, -0.74 -1.76" stroke="#a61e4d" stroke-width="1" fill="none"></path></g><g transform="translate(222.1495635945762 220.82431339114464) rotate(0 62.279937744140625 12.622576442911395)"><text x="0" y="0" font-family="Virgil, Segoe UI Emoji" font-size="20px" fill="#000000" text-anchor="start" style="white-space: pre;" direction="ltr" dominant-baseline="text-before-edge">Dependencies</text></g><g transform="translate(244.56172379373675 37.05933282500064) rotate(0 50.217979431152344 17.725032796771757)"><text x="0" y="0" font-family="Virgil, Segoe UI Emoji" font-size="28px" fill="#5f3dc4" text-anchor="start" style="white-space: pre;" direction="ltr" dominant-baseline="text-before-edge">Promise</text></g><g stroke-linecap="round" transform="translate(120.12601420306828 14.950481103961465) rotate(0 163.6922450162383 164.77859215932858)"><path d="M32 0 M32 0 C105.49 -2.56, 180.06 -1.64, 295.38 0 M32 0 C119.8 -3.02, 205.87 -3.36, 295.38 0 M295.38 0 C318.66 1.5, 328.6 10.54, 327.38 32 M295.38 0 C314.97 -1.18, 324.19 14.74, 327.38 32 M327.38 32 C324.91 86.1, 326.32 136.29, 327.38 297.56 M327.38 32 C328.53 133.53, 328.81 233.41, 327.38 297.56 M327.38 297.56 C330.09 320.15, 316.68 325.72, 295.38 329.56 M327.38 297.56 C324.93 314.83, 318 328.98, 295.38 329.56 M295.38 329.56 C196.99 332.26, 97.26 328.58, 32 329.56 M295.38 329.56 C219.55 331.8, 141.95 331.19, 32 329.56 M32 329.56 C7.01 326.97, 2.08 315.43, 0 297.56 M32 329.56 C10.69 328.15, -0.93 319.94, 0 297.56 M0 297.56 C3.72 200.67, 0.32 105.74, 0 32 M0 297.56 C-3.22 212.49, -2.62 128.03, 0 32 M0 32 C3.55 12.57, 12.72 -1.53, 32 0 M0 32 C4.15 6.63, 6.86 3.6, 32 0" stroke="#343a40" stroke-width="2" fill="none"></path></g><g stroke-opacity="0.4" fill-opacity="0.4" stroke-linecap="round" transform="translate(700.1040999676998 28.893759225287795) rotate(0 79.70216915175013 31.370132058644685)"><path d="M4.18 3.63 C4.18 3.63, 4.18 3.63, 4.18 3.63 M4.18 3.63 C4.18 3.63, 4.18 3.63, 4.18 3.63 M1.29 13.05 C0.81 11.25, 6.66 8.6, 11.13 1.73 M1.29 13.05 C5.47 7.28, 9.35 4.99, 11.13 1.73 M1.03 19.44 C7.76 12.96, 8.08 4.62, 16.77 1.33 M1.03 19.44 C5.71 16.41, 8.11 11.62, 16.77 1.33 M1.42 25.09 C8.74 16.43, 17.17 10.38, 22.42 0.94 M1.42 25.09 C7.95 14.01, 19.11 4.03, 22.42 0.94 M1.16 31.48 C10.14 25.02, 16.43 16.29, 27.4 1.3 M1.16 31.48 C12.09 19.98, 23.77 6.13, 27.4 1.3 M1.56 37.13 C10.23 28.28, 24.59 14.81, 33.05 0.9 M1.56 37.13 C7.49 29.76, 15.9 17.58, 33.05 0.9 M1.29 43.53 C12.97 29.47, 24.36 21.06, 38.03 1.26 M1.29 43.53 C11.95 31.4, 20.81 23.34, 38.03 1.26 M0.38 50.68 C12.21 40.44, 21.09 22.91, 43.02 1.62 M0.38 50.68 C7.8 43.09, 18.85 30.98, 43.02 1.62 M2.08 54.81 C14.85 46.26, 25.17 28.32, 48.66 1.23 M2.08 54.81 C14.39 41.31, 26.22 26.62, 48.66 1.23 M4.45 58.19 C12.35 45.01, 26.48 28.05, 53.65 1.59 M4.45 58.19 C18.96 41.83, 35.46 22, 53.65 1.59 M7.47 60.81 C19.92 46.92, 35.46 27.47, 59.29 1.19 M7.47 60.81 C27.91 38.62, 45.42 20.07, 59.29 1.19 M10.48 63.44 C27.27 43.83, 44.16 19.75, 64.28 1.55 M10.48 63.44 C23.9 45.44, 39 30.1, 64.28 1.55 M16.13 63.04 C30.72 48.57, 43.04 35.27, 69.92 1.16 M16.13 63.04 C38.06 42.43, 55.15 17.29, 69.92 1.16 M21.11 63.4 C45.11 37.55, 63.77 13.88, 74.91 1.52 M21.11 63.4 C35.75 48.8, 46.11 38, 74.91 1.52 M26.1 63.76 C48.85 38.55, 65.8 19.96, 79.9 1.88 M26.1 63.76 C37.07 49.47, 49.36 38.17, 79.9 1.88 M31.74 63.37 C49.25 41.35, 64.16 22.33, 85.54 1.48 M31.74 63.37 C46.03 42.62, 63.03 24.68, 85.54 1.48 M36.73 63.73 C48.18 49.27, 57.21 37.9, 90.53 1.84 M36.73 63.73 C50.03 50.36, 63.77 35.96, 90.53 1.84 M42.37 63.34 C62.1 38.83, 78.8 15.07, 96.17 1.45 M42.37 63.34 C57.66 45.45, 73.59 25.62, 96.17 1.45 M47.36 63.7 C64.29 44.11, 81.06 19.01, 101.16 1.81 M47.36 63.7 C64.64 43.71, 83.58 21.02, 101.16 1.81 M53 63.3 C64.89 51.03, 84.37 27.69, 106.8 1.41 M53 63.3 C63.51 50.96, 78.03 35.51, 106.8 1.41 M57.99 63.66 C76.31 47.39, 88.83 26.16, 111.79 1.77 M57.99 63.66 C68.34 52.58, 81.36 37.88, 111.79 1.77 M62.98 64.02 C71.99 53.31, 86.14 42.14, 116.78 2.14 M62.98 64.02 C79.25 43.69, 99.31 21.75, 116.78 2.14 M68.62 63.63 C79.83 46.63, 89.22 40.57, 122.42 1.74 M68.62 63.63 C82.94 43.08, 100.16 28.14, 122.42 1.74 M73.61 63.99 C89.45 45.33, 110.95 28.04, 127.41 2.1 M73.61 63.99 C84.82 48.97, 96.09 34.17, 127.41 2.1 M79.25 63.59 C99.98 42.94, 113.2 22.76, 133.05 1.71 M79.25 63.59 C91.16 47.95, 103.3 30.96, 133.05 1.71 M84.24 63.95 C99.4 50.92, 111.41 33.14, 138.04 2.07 M84.24 63.95 C99.21 47.77, 111.51 31.33, 138.04 2.07 M89.88 63.56 C102.76 45.02, 116.82 34.28, 143.68 1.67 M89.88 63.56 C105.2 48.91, 116.95 32.83, 143.68 1.67 M94.87 63.92 C106.94 49.9, 119.97 39.04, 148.67 2.03 M94.87 63.92 C107.72 46.67, 121.18 30.63, 148.67 2.03 M99.86 64.28 C120.03 42.77, 138.76 22.68, 153 3.15 M99.86 64.28 C116.65 44.37, 134.07 22.93, 153 3.15 M105.5 63.88 C123.02 40.59, 142.5 24.46, 156.67 5.02 M105.5 63.88 C119.04 47.55, 132.64 35.77, 156.67 5.02 M110.49 64.24 C126.24 48.52, 135.65 28.4, 158.38 9.15 M110.49 64.24 C121.1 49.59, 133.45 39.8, 158.38 9.15 M116.13 63.85 C130.55 47.33, 144.64 33.09, 160.08 13.28 M116.13 63.85 C132.65 48.5, 145.87 27.67, 160.08 13.28 M121.12 64.21 C138.84 43.18, 153.63 33.07, 160.48 18.93 M121.12 64.21 C131.97 52.37, 146.23 38.95, 160.48 18.93 M126.76 63.81 C134.11 50.25, 149.23 40.38, 160.22 25.32 M126.76 63.81 C138.58 48.4, 153.17 36.52, 160.22 25.32 M131.75 64.17 C137.84 50.88, 151.43 43.1, 159.96 31.72 M131.75 64.17 C137.15 57.39, 146.68 48.95, 159.96 31.72 M136.73 64.53 C139.89 58.01, 146.9 54.57, 159.69 38.12 M136.73 64.53 C142.98 54.06, 152.11 45.56, 159.69 38.12 M142.38 64.14 C147.43 59.23, 155.33 50.39, 160.09 43.76 M142.38 64.14 C147.4 54.74, 157.11 46.99, 160.09 43.76 M146.71 65.25 C150.84 57.01, 155.34 54.04, 159.83 50.16 M146.71 65.25 C148.52 59.77, 154.28 55.83, 159.83 50.16 M2.35 56.74 C2.35 56.74, 2.35 56.74, 2.35 56.74 M2.35 56.74 C2.35 56.74, 2.35 56.74, 2.35 56.74 M11.01 58.97 C4.94 57.94, 1.09 54.7, 0.45 49.79 M11.01 58.97 C7.99 56.24, 7.15 54.37, 0.45 49.79 M17.41 59.23 C14.26 53.75, 8.78 48.68, 0.81 44.8 M17.41 59.23 C13.84 57.87, 11.02 51.7, 0.81 44.8 M23.81 59.49 C16.93 56.78, 11.68 49.51, 1.17 39.81 M23.81 59.49 C17.02 54.08, 5.55 44.93, 1.17 39.81 M29.45 59.1 C19.82 47.97, 8.89 40.9, 0.77 34.17 M29.45 59.1 C17.97 47.67, 7.27 41.05, 0.77 34.17 M35.85 59.36 C26.36 50.14, 20.72 48.25, 1.13 29.18 M35.85 59.36 C24.69 47.1, 10.45 37.02, 1.13 29.18 M42.25 59.62 C33.34 53.73, 20.47 45.43, 0.74 23.54 M42.25 59.62 C27.64 48.37, 16.83 39.37, 0.74 23.54 M47.89 59.23 C37.22 49.37, 28.06 37.96, 1.1 18.55 M47.89 59.23 C39.27 50.86, 30.27 42.46, 1.1 18.55 M54.29 59.49 C37.17 40.26, 15.17 28.38, 0.7 12.91 M54.29 59.49 C34.23 43.45, 20.41 29.03, 0.7 12.91 M60.69 59.75 C43.93 40.6, 24.03 25.24, 2.57 9.23 M60.69 59.75 C47.9 47.33, 31.77 36.21, 2.57 9.23 M66.33 59.35 C47.67 40.02, 23.87 20.71, 4.44 5.56 M66.33 59.35 C40.97 37.58, 19.54 15.56, 4.44 5.56 M72.73 59.62 C54.63 40.63, 33.27 22.03, 6.31 1.88 M72.73 59.62 C53.51 43.02, 35.12 26.75, 6.31 1.88 M79.13 59.88 C61.65 45.27, 39.8 26.25, 10.45 0.18 M79.13 59.88 C60.27 45.03, 44.68 29.39, 10.45 0.18 M84.77 59.48 C66.88 46.27, 55.04 35.17, 16.09 -0.22 M84.77 59.48 C59.47 36.97, 36.66 13.45, 16.09 -0.22 M91.17 59.74 C68.84 44.6, 51.5 25.92, 22.49 0.04 M91.17 59.74 C63.74 38.49, 38.97 13.55, 22.49 0.04 M97.56 60.01 C77.5 40.3, 47.02 22.59, 28.13 -0.35 M97.56 60.01 C73.58 37.65, 48.8 13.95, 28.13 -0.35 M103.21 59.61 C82.07 42.61, 58.41 17.81, 34.53 -0.09 M103.21 59.61 C82.54 41.31, 61.95 23.73, 34.53 -0.09 M109.6 59.87 C89.57 40.11, 66.84 21.28, 40.93 0.17 M109.6 59.87 C89.27 41.2, 67.44 18.83, 40.93 0.17 M116 60.13 C103.43 43.44, 87.07 31.28, 46.57 -0.22 M116 60.13 C99.3 44.05, 79.32 30.62, 46.57 -0.22 M121.65 59.74 C101.47 38.77, 78.91 20.47, 52.97 0.04 M121.65 59.74 C92.6 37.36, 67.85 13.85, 52.97 0.04 M128.04 60 C113.89 47.56, 105.12 36.86, 59.36 0.3 M128.04 60 C106.91 45.58, 87.64 29.27, 59.36 0.3 M134.44 60.26 C113.3 45.07, 96.29 24.76, 65.01 -0.09 M134.44 60.26 C114.54 45.26, 97.2 27.19, 65.01 -0.09 M140.08 59.87 C116.31 36.85, 91.15 11.65, 71.41 0.17 M140.08 59.87 C125.09 49.12, 110.03 35.39, 71.41 0.17 M146.48 60.13 C119.85 33.98, 93.43 10.67, 77.8 0.43 M146.48 60.13 C119.31 36.5, 95 14.64, 77.8 0.43 M151.37 59.08 C123.62 35.51, 99.23 7.88, 83.45 0.03 M151.37 59.08 C125.07 38.35, 99.02 13.64, 83.45 0.03 M155.5 57.37 C132.64 38.48, 113.02 23.37, 89.84 0.3 M155.5 57.37 C140.61 45.04, 123.31 30.07, 89.84 0.3 M158.13 54.35 C140.44 38.66, 114.63 19.61, 96.24 0.56 M158.13 54.35 C143.95 41.35, 129.04 30.35, 96.24 0.56 M160.75 51.33 C149.34 37.35, 135.81 30.66, 101.89 0.16 M160.75 51.33 C140.93 34.32, 118.95 16.52, 101.89 0.16 M161.11 46.35 C146.78 34.11, 127.01 19.85, 108.28 0.42 M161.11 46.35 C146.6 34.69, 137.33 23.58, 108.28 0.42 M160.72 40.7 C149.18 27.26, 134.17 22.8, 114.68 0.68 M160.72 40.7 C147.11 29.48, 133.69 16.32, 114.68 0.68 M161.08 35.72 C150.58 21.21, 142.41 15.67, 120.32 0.29 M161.08 35.72 C145.06 21.78, 131.92 10.25, 120.32 0.29 M161.44 30.73 C149.64 17.23, 135.77 6.95, 126.72 0.55 M161.44 30.73 C148.93 19.85, 136.51 9.84, 126.72 0.55 M161.04 25.09 C149.55 19, 141.15 7.02, 133.12 0.81 M161.04 25.09 C153.16 19.31, 145.79 8.96, 133.12 0.81 M161.4 20.1 C159.63 18.39, 152.79 12.1, 138.76 0.42 M161.4 20.1 C156.93 16.7, 153.21 9.39, 138.76 0.42 M161.01 14.46 C154.47 11.06, 152.31 5.43, 145.16 0.68 M161.01 14.46 C155.63 9.5, 149.57 3.98, 145.16 0.68 M161.37 9.47 C161.07 4.96, 159.03 2.49, 150.8 0.29 M161.37 9.47 C159.72 7.9, 156.9 6.02, 150.8 0.29" stroke="#e64980" stroke-width="0.5" fill="none"></path><path d="M15.69 0 M15.69 0 C56.67 -4.81, 102.28 -0.01, 143.72 0 M15.69 0 C43.1 -2.36, 71.42 -2.7, 143.72 0 M143.72 0 C151.64 -2.46, 160.9 8.32, 159.4 15.69 M143.72 0 C152.83 -3.84, 158.89 6.74, 159.4 15.69 M159.4 15.69 C157.27 26.78, 162.85 28.45, 159.4 47.06 M159.4 15.69 C158.3 24.42, 157.82 33.34, 159.4 47.06 M159.4 47.06 C162.97 54.24, 156.32 63.11, 143.72 62.74 M159.4 47.06 C162.9 55.96, 151.79 63.71, 143.72 62.74 M143.72 62.74 C108.2 63.27, 66.8 61.01, 15.69 62.74 M143.72 62.74 C94.36 61.89, 43.62 61.27, 15.69 62.74 M15.69 62.74 C1.78 63.51, 2.78 54.52, 0 47.06 M15.69 62.74 C2.22 64.36, 0.84 53.32, 0 47.06 M0 47.06 C-0.53 38.1, -1.74 28.33, 0 15.69 M0 47.06 C1.41 38.21, 0.54 27.09, 0 15.69 M0 15.69 C0.82 8.92, 8.22 1.19, 15.69 0 M0 15.69 C-1.16 3.95, 6.4 -0.94, 15.69 0" stroke="#343a40" stroke-width="1" fill="none"></path></g><g transform="translate(730.5177344657395 37.570373784379626) rotate(0 49.588775634765625 23.243356404619135)"><text x="49.588775634765625" y="0" font-family="Virgil, Segoe UI Emoji" font-size="18.59468512369525px" fill="#000000" text-anchor="middle" style="white-space: pre;" direction="ltr" dominant-baseline="text-before-edge">Kubernetes</text><text x="49.588775634765625" y="23.243356404619064" font-family="Virgil, Segoe UI Emoji" font-size="18.59468512369525px" fill="#000000" text-anchor="middle" style="white-space: pre;" direction="ltr" dominant-baseline="text-before-edge">Cluster(s)</text></g><g stroke-linecap="round" transform="translate(700.2346091765876 145.21760974672543) rotate(0 79.70216915175013 31.370132058644685)"><path d="M17.63 1.5 L151.8 0.85 L153.97 2.9 L156.38 15.55 L154.48 50.52 L154.11 61.91 L144.49 65.9 L5.44 64.94 L2.89 53.11 L1.33 52.56 L2.02 11.51 L6.63 5.18 L15.65 -3.84" stroke="none" stroke-width="0" fill="white"></path><path d="M15.69 0 M15.69 0 C46.77 2.18, 80.37 0.31, 143.72 0 M15.69 0 C51.54 1.4, 89.76 1.93, 143.72 0 M143.72 0 C156.17 3.81, 158.94 7.49, 159.4 15.69 M143.72 0 C149.97 -2.98, 161.79 1.25, 159.4 15.69 M159.4 15.69 C160.12 27.61, 158.52 37.37, 159.4 47.06 M159.4 15.69 C159.73 28.43, 161.04 38.88, 159.4 47.06 M159.4 47.06 C160.62 55.71, 156.9 60.68, 143.72 62.74 M159.4 47.06 C163.49 59.7, 156.54 60.98, 143.72 62.74 M143.72 62.74 C96.89 57.64, 41.54 60.34, 15.69 62.74 M143.72 62.74 C111.76 63.53, 82.68 62.23, 15.69 62.74 M15.69 62.74 C2.39 59.78, 0.93 54.24, 0 47.06 M15.69 62.74 C4.62 65.82, -1.19 56.68, 0 47.06 M0 47.06 C-2.85 35.63, -3.98 23.3, 0 15.69 M0 47.06 C1.43 39.63, -1.2 34.8, 0 15.69 M0 15.69 C1.79 8.5, 8.65 3.55, 15.69 0 M0 15.69 C-3.41 3.29, 9.6 3.22, 15.69 0" stroke="#343a40" stroke-width="1" fill="none"></path></g><g transform="translate(733.3964266059438 154.91070280794702) rotate(0 46.084564208984375 23.243356404619135)"><text x="46.084564208984375" y="0" font-family="Virgil, Segoe UI Emoji" font-size="18.59468512369525px" fill="#343a40" text-anchor="middle" style="white-space: pre;" direction="ltr" dominant-baseline="text-before-edge">Virtual</text><text x="46.084564208984375" y="23.243356404619064" font-family="Virgil, Segoe UI Emoji" font-size="18.59468512369525px" fill="#343a40" text-anchor="middle" style="white-space: pre;" direction="ltr" dominant-baseline="text-before-edge">Machine(s)</text></g><g stroke-linecap="round" transform="translate(700.2346091765876 261.53924824767273) rotate(0 79.70216915175013 31.370132058644685)"><path d="M14.17 -1.02 L147.81 4.53 L151.54 0.53 L159.99 13.39 L159.2 57.08 L149.89 63.72 L144.41 59.23 L9.91 63.59 L3.98 56.12 L2.95 51.99 L0.21 8.17 L1.79 0.39 L16.8 -0.5" stroke="none" stroke-width="0" fill="white"></path><path d="M15.69 0 M15.69 0 C62.97 1.4, 108.57 -3.23, 143.72 0 M15.69 0 C53.93 1.46, 89.95 0.69, 143.72 0 M143.72 0 C150.52 -2.59, 161.48 1.77, 159.4 15.69 M143.72 0 C154.2 -1.41, 158.47 6.27, 159.4 15.69 M159.4 15.69 C163.09 26.27, 158.79 39.33, 159.4 47.06 M159.4 15.69 C160.57 24.75, 161.32 34.59, 159.4 47.06 M159.4 47.06 C162.96 59.41, 156.23 61.21, 143.72 62.74 M159.4 47.06 C163.55 53.48, 150.37 66.34, 143.72 62.74 M143.72 62.74 C112.54 61.95, 86.37 60.79, 15.69 62.74 M143.72 62.74 C100.55 60.26, 60.68 60.1, 15.69 62.74 M15.69 62.74 C4.7 65.41, -1.03 56.79, 0 47.06 M15.69 62.74 C7.53 62.7, 4.18 54.23, 0 47.06 M0 47.06 C-2.9 34.87, 3.6 30.8, 0 15.69 M0 47.06 C1.43 40.51, 2.24 32.47, 0 15.69 M0 15.69 C-2.97 3.54, 9.03 2.8, 15.69 0 M0 15.69 C3.01 7.44, 7.83 0.23, 15.69 0" stroke="#343a40" stroke-width="1" fill="none"></path></g><g transform="translate(730.8774751899282 271.23234130889614) rotate(0 48.603515625 23.243356404619135)"><text x="48.603515625" y="0" font-family="Virgil, Segoe UI Emoji" font-size="18.59468512369525px" fill="#343a40" text-anchor="middle" style="white-space: pre;" direction="ltr" dominant-baseline="text-before-edge">Cloud</text><text x="48.603515625" y="23.243356404619064" font-family="Virgil, Segoe UI Emoji" font-size="18.59468512369525px" fill="#343a40" text-anchor="middle" style="white-space: pre;" direction="ltr" dominant-baseline="text-before-edge">Provider(s)</text></g><g stroke-linecap="round" transform="translate(700.2346091765876 377.86088674862185) rotate(0 79.70216915175013 31.370132058644685)"><path d="M11.74 -3.4 L151.41 2.36 L156.26 7.08 L155.77 15.19 L159.11 50.41 L154.36 62.37 L145.49 62.24 L11.53 63.02 L2.17 52.78 L-1.89 47.2 L1.36 11.51 L6.82 5.44 L16.71 -0.39" stroke="none" stroke-width="0" fill="white"></path><path d="M15.69 0 M15.69 0 C60.32 1.2, 106.37 3.64, 143.72 0 M15.69 0 C64.47 -2.74, 117.95 -3.18, 143.72 0 M143.72 0 C154.19 -1.22, 158.6 6.14, 159.4 15.69 M143.72 0 C157.05 -0.79, 162.67 9.59, 159.4 15.69 M159.4 15.69 C160.03 28.01, 156.16 34.5, 159.4 47.06 M159.4 15.69 C161.61 24.63, 160.86 30.92, 159.4 47.06 M159.4 47.06 C163.01 54, 150.86 65.87, 143.72 62.74 M159.4 47.06 C155.98 54.9, 153.86 60.1, 143.72 62.74 M143.72 62.74 C108.32 63.8, 69.28 58.76, 15.69 62.74 M143.72 62.74 C114.51 61.98, 85.31 60.28, 15.69 62.74 M15.69 62.74 C7.23 62.71, 3.64 54.66, 0 47.06 M15.69 62.74 C4.72 58.16, -2.07 53.45, 0 47.06 M0 47.06 C-2.04 36.72, 1.59 34.93, 0 15.69 M0 47.06 C-2.02 34.23, 1.36 24.5, 0 15.69 M0 15.69 C2.62 7.15, 7.49 0.2, 15.69 0 M0 15.69 C-2.88 9.3, 6.63 -3.2, 15.69 0" stroke="#343a40" stroke-width="1" fill="none"></path></g><g transform="translate(730.2175325629751 387.34055549800723) rotate(0 49.263458251953125 23.243356404619135)"><text x="49.263458251953125" y="0" font-family="Virgil, Segoe UI Emoji" font-size="18.59468512369525px" fill="#343a40" text-anchor="middle" style="white-space: pre;" direction="ltr" dominant-baseline="text-before-edge">Edge</text><text x="49.263458251953125" y="23.243356404619064" font-family="Virgil, Segoe UI Emoji" font-size="18.59468512369525px" fill="#343a40" text-anchor="middle" style="white-space: pre;" direction="ltr" dominant-baseline="text-before-edge">Compute(s)</text></g><g stroke-opacity="0.4" fill-opacity="0.4" stroke-linecap="round" transform="translate(700.6875184735009 494.7484394683761) rotate(0 79.70216915175013 31.370132058644685)"><path d="M4.18 3.63 C4.18 3.63, 4.18 3.63, 4.18 3.63 M4.18 3.63 C4.18 3.63, 4.18 3.63, 4.18 3.63 M1.29 13.05 C3.54 12.37, 7.48 8.17, 11.13 1.73 M1.29 13.05 C3.06 9.75, 6.72 6.86, 11.13 1.73 M1.03 19.44 C8.46 9.49, 9.11 8.88, 16.77 1.33 M1.03 19.44 C3.99 16.13, 9 11.46, 16.77 1.33 M1.42 25.09 C8.24 17.11, 17.24 10.78, 22.42 0.94 M1.42 25.09 C7.28 18.91, 12.32 15.56, 22.42 0.94 M1.16 31.48 C7.11 17.09, 22.97 6.82, 27.4 1.3 M1.16 31.48 C7.28 24.65, 13.08 17.62, 27.4 1.3 M1.56 37.13 C10.06 25.64, 20.92 11.32, 33.05 0.9 M1.56 37.13 C14.3 23.94, 26.67 9.24, 33.05 0.9 M1.29 43.53 C9.22 28.52, 26.34 21.31, 38.03 1.26 M1.29 43.53 C12.48 33.76, 22.87 22.88, 38.03 1.26 M0.38 50.68 C13.22 41.41, 21.98 29.97, 43.02 1.62 M0.38 50.68 C14.6 33.57, 27.28 19.84, 43.02 1.62 M2.08 54.81 C10.36 42.1, 24.35 32.49, 48.66 1.23 M2.08 54.81 C14.13 42.88, 24.04 32.21, 48.66 1.23 M4.45 58.19 C14.93 47.11, 26.93 30.2, 53.65 1.59 M4.45 58.19 C24.44 35.64, 42.91 13.4, 53.65 1.59 M7.47 60.81 C20.89 45.05, 28.74 33.3, 59.29 1.19 M7.47 60.81 C24.31 44.96, 38.71 27.69, 59.29 1.19 M10.48 63.44 C21.27 49.96, 42 27.41, 64.28 1.55 M10.48 63.44 C22.28 50.02, 34.87 33.73, 64.28 1.55 M16.13 63.04 C31.12 52.22, 41.79 34.24, 69.92 1.16 M16.13 63.04 C36.93 39.89, 57.06 13.75, 69.92 1.16 M21.11 63.4 C38.69 40.74, 56.2 20.9, 74.91 1.52 M21.11 63.4 C35.03 45.38, 50.35 26.44, 74.91 1.52 M26.1 63.76 C42.37 45.46, 49.61 32.15, 79.9 1.88 M26.1 63.76 C40.88 48.23, 54.3 31.04, 79.9 1.88 M31.74 63.37 C48.59 43.85, 68.17 26.59, 85.54 1.48 M31.74 63.37 C53.35 38.56, 72.9 12.42, 85.54 1.48 M36.73 63.73 C51.86 43.82, 69.66 24.81, 90.53 1.84 M36.73 63.73 C55.67 42.57, 73.09 21.46, 90.53 1.84 M42.37 63.34 C50.09 48.97, 64.46 37.67, 96.17 1.45 M42.37 63.34 C55.52 48.93, 68.86 37.97, 96.17 1.45 M47.36 63.7 C56.36 46.43, 73.67 37.07, 101.16 1.81 M47.36 63.7 C63.91 45.26, 82.03 24.19, 101.16 1.81 M53 63.3 C67.51 45.01, 86.8 31.39, 106.8 1.41 M53 63.3 C72.13 42.72, 89.08 24.99, 106.8 1.41 M57.99 63.66 C77.77 37.31, 99.31 17.82, 111.79 1.77 M57.99 63.66 C71.29 51.22, 79.31 37.78, 111.79 1.77 M62.98 64.02 C83.68 38.1, 98.53 17.97, 116.78 2.14 M62.98 64.02 C84.68 40.79, 103.99 19.98, 116.78 2.14 M68.62 63.63 C91.65 39.66, 108.76 14.73, 122.42 1.74 M68.62 63.63 C82.15 50.01, 95.01 32.38, 122.42 1.74 M73.61 63.99 C89.26 43.12, 106.02 21.57, 127.41 2.1 M73.61 63.99 C86.31 53.48, 96.79 41.19, 127.41 2.1 M79.25 63.59 C93.04 54.32, 100.55 40.27, 133.05 1.71 M79.25 63.59 C91.04 50.33, 100.94 37.58, 133.05 1.71 M84.24 63.95 C101.6 44.79, 124.49 18.42, 138.04 2.07 M84.24 63.95 C103.92 42.12, 123.18 20.78, 138.04 2.07 M89.88 63.56 C108.74 40.58, 124.36 18.7, 143.68 1.67 M89.88 63.56 C102.53 47.42, 118.85 30.13, 143.68 1.67 M94.87 63.92 C107.64 42.52, 128.41 21.4, 148.67 2.03 M94.87 63.92 C107.69 45.91, 122.77 29.32, 148.67 2.03 M99.86 64.28 C116.3 45.46, 129.93 28.03, 153 3.15 M99.86 64.28 C121.25 41.88, 140.62 16.34, 153 3.15 M105.5 63.88 C121.4 48.48, 130.06 35.58, 156.67 5.02 M105.5 63.88 C125.63 41.27, 145.45 18.36, 156.67 5.02 M110.49 64.24 C121.55 50.59, 140.64 30.83, 158.38 9.15 M110.49 64.24 C121.66 52.49, 131.17 38.95, 158.38 9.15 M116.13 63.85 C131.29 42.66, 153.01 27.84, 160.08 13.28 M116.13 63.85 C132.28 42.03, 149.96 24.35, 160.08 13.28 M121.12 64.21 C129.08 49.78, 140.36 40.74, 160.48 18.93 M121.12 64.21 C135.43 45.94, 147.86 31.63, 160.48 18.93 M126.76 63.81 C142.79 47.69, 154.11 39.43, 160.22 25.32 M126.76 63.81 C138.66 48.65, 150.99 35.54, 160.22 25.32 M131.75 64.17 C144.38 49.65, 149.63 40.78, 159.96 31.72 M131.75 64.17 C138.6 56.26, 144.61 49.92, 159.96 31.72 M136.73 64.53 C148.7 51.73, 150.37 48.18, 159.69 38.12 M136.73 64.53 C140.46 58.15, 145.09 52.13, 159.69 38.12 M142.38 64.14 C150.84 54.96, 150.33 53.65, 160.09 43.76 M142.38 64.14 C146.64 59.28, 149.48 54.83, 160.09 43.76 M146.71 65.25 C153.5 61.99, 154.9 60.68, 159.83 50.16 M146.71 65.25 C150.24 58.81, 156.43 53.95, 159.83 50.16 M2.35 56.74 C2.35 56.74, 2.35 56.74, 2.35 56.74 M2.35 56.74 C2.35 56.74, 2.35 56.74, 2.35 56.74 M11.01 58.97 C6.08 56.19, 7.5 54.44, 0.45 49.79 M11.01 58.97 C8.29 55.8, 6.57 53.41, 0.45 49.79 M17.41 59.23 C14.22 58.24, 11.86 48.17, 0.81 44.8 M17.41 59.23 C11.53 55.58, 6.52 50.8, 0.81 44.8 M23.81 59.49 C18.2 52.6, 7.76 48.66, 1.17 39.81 M23.81 59.49 C14.93 50.7, 5.74 44.44, 1.17 39.81 M29.45 59.1 C15.21 50.92, 5.71 38.31, 0.77 34.17 M29.45 59.1 C19.59 52.12, 13.37 42.88, 0.77 34.17 M35.85 59.36 C25.99 43.21, 7.11 35.99, 1.13 29.18 M35.85 59.36 C22.59 47.84, 9.3 37.39, 1.13 29.18 M42.25 59.62 C33.24 50.22, 18.67 41.23, 0.74 23.54 M42.25 59.62 C32.43 50.65, 17.62 39.3, 0.74 23.54 M47.89 59.23 C32.06 43.63, 16.94 37.84, 1.1 18.55 M47.89 59.23 C33.09 49.65, 19.22 37.38, 1.1 18.55 M54.29 59.49 C39.34 48.79, 23.46 30.49, 0.7 12.91 M54.29 59.49 C35.65 46.51, 20.41 30.1, 0.7 12.91 M60.69 59.75 C48.74 45.48, 31.25 40.14, 2.57 9.23 M60.69 59.75 C48.46 51.01, 36.39 39.98, 2.57 9.23 M66.33 59.35 C51.57 46.03, 38.53 34.95, 4.44 5.56 M66.33 59.35 C48.14 43.46, 28.01 26.18, 4.44 5.56 M72.73 59.62 C48.7 34.77, 22.6 14.9, 6.31 1.88 M72.73 59.62 C61.52 46.3, 46.28 36.45, 6.31 1.88 M79.13 59.88 C53.33 35.93, 30.75 20.14, 10.45 0.18 M79.13 59.88 C63.92 46.94, 51.69 35.84, 10.45 0.18 M84.77 59.48 C62.6 37.18, 37.07 19.93, 16.09 -0.22 M84.77 59.48 C67.95 46.95, 49.28 28.18, 16.09 -0.22 M91.17 59.74 C62.64 42.97, 41.84 21.8, 22.49 0.04 M91.17 59.74 C75.92 48.7, 61.83 34.68, 22.49 0.04 M97.56 60.01 C83.68 49.54, 68.84 37.43, 28.13 -0.35 M97.56 60.01 C77.93 41.16, 55.23 22.1, 28.13 -0.35 M103.21 59.61 C87.1 49.51, 77.55 38.06, 34.53 -0.09 M103.21 59.61 C88.31 47.1, 74.69 34.64, 34.53 -0.09 M109.6 59.87 C92.07 42.14, 64.63 19.88, 40.93 0.17 M109.6 59.87 C84.86 39.68, 62.16 19.16, 40.93 0.17 M116 60.13 C93.5 38.31, 75.9 24.84, 46.57 -0.22 M116 60.13 C92.16 36.49, 65.9 16.88, 46.57 -0.22 M121.65 59.74 C104.01 36.83, 80.83 18.15, 52.97 0.04 M121.65 59.74 C95.26 34.86, 70.93 13.53, 52.97 0.04 M128.04 60 C112.51 40.4, 92.76 28.95, 59.36 0.3 M128.04 60 C105.69 42.49, 83.74 23.97, 59.36 0.3 M134.44 60.26 C121.39 47.46, 110.02 32.71, 65.01 -0.09 M134.44 60.26 C112.6 41.68, 93.53 24.98, 65.01 -0.09 M140.08 59.87 C118.37 41.32, 105.97 30.8, 71.41 0.17 M140.08 59.87 C110.87 37.38, 85.67 15.33, 71.41 0.17 M146.48 60.13 C131.99 44.01, 120.02 31.7, 77.8 0.43 M146.48 60.13 C125.47 39.78, 106.8 22.96, 77.8 0.43 M151.37 59.08 C132.03 41.52, 107.37 20.79, 83.45 0.03 M151.37 59.08 C125.1 37.8, 102.35 13.21, 83.45 0.03 M155.5 57.37 C134.86 37.07, 113.28 16.96, 89.84 0.3 M155.5 57.37 C136.92 39.03, 112.99 21.28, 89.84 0.3 M158.13 54.35 C136.16 35.94, 110.54 13.03, 96.24 0.56 M158.13 54.35 C135.05 38.07, 117.2 17.8, 96.24 0.56 M160.75 51.33 C138.86 30.65, 118.73 19.02, 101.89 0.16 M160.75 51.33 C144.69 38.74, 127.3 23.25, 101.89 0.16 M161.11 46.35 C140.05 27.16, 121.3 8.94, 108.28 0.42 M161.11 46.35 C147.26 35.2, 134.56 26.02, 108.28 0.42 M160.72 40.7 C146.86 28.17, 129.72 19.72, 114.68 0.68 M160.72 40.7 C145.9 27.67, 128.57 14.06, 114.68 0.68 M161.08 35.72 C151.33 23.82, 138.29 13.93, 120.32 0.29 M161.08 35.72 C150.1 23.46, 137.34 12.89, 120.32 0.29 M161.44 30.73 C150.7 25.2, 151.25 20.71, 126.72 0.55 M161.44 30.73 C153.03 26.1, 147.41 18.31, 126.72 0.55 M161.04 25.09 C149.61 19.09, 145.41 13.42, 133.12 0.81 M161.04 25.09 C156.38 18.44, 149.8 14.01, 133.12 0.81 M161.4 20.1 C153.58 14.74, 150.77 8.05, 138.76 0.42 M161.4 20.1 C157.47 17.09, 150.68 13.34, 138.76 0.42 M161.01 14.46 C159.12 13.56, 156.35 9.86, 145.16 0.68 M161.01 14.46 C157.19 9.01, 148.41 5.74, 145.16 0.68 M161.37 9.47 C159.69 4.26, 153.13 0.44, 150.8 0.29 M161.37 9.47 C159.3 8.07, 155.65 3.46, 150.8 0.29" stroke="#e64980" stroke-width="0.5" fill="none"></path><path d="M15.69 0 M15.69 0 C51.98 -1.89, 87.61 4.55, 143.72 0 M15.69 0 C64.93 -0.2, 114.31 0.54, 143.72 0 M143.72 0 C151.34 0.37, 162.97 1.96, 159.4 15.69 M143.72 0 C156.64 0.43, 162.9 3.67, 159.4 15.69 M159.4 15.69 C159.62 24.01, 162.69 31.44, 159.4 47.06 M159.4 15.69 C158.47 25.52, 160.07 34.22, 159.4 47.06 M159.4 47.06 C160.61 54.35, 150.73 63.51, 143.72 62.74 M159.4 47.06 C162.6 54.07, 151.16 64.36, 143.72 62.74 M143.72 62.74 C103.67 61.09, 61.82 63.45, 15.69 62.74 M143.72 62.74 C109.63 61.67, 78.46 63.98, 15.69 62.74 M15.69 62.74 C5.74 61.95, 0.82 61.21, 0 47.06 M15.69 62.74 C8.67 64.11, -1.16 56.24, 0 47.06 M0 47.06 C1.63 38.78, 0.37 30.21, 0 15.69 M0 47.06 C1.23 34.79, -0.82 23.71, 0 15.69 M0 15.69 C-1.86 7.27, 3.56 -1.55, 15.69 0 M0 15.69 C-2.24 5.06, 3.87 4.23, 15.69 0" stroke="#343a40" stroke-width="1" fill="none"></path></g><g transform="translate(731.3303844868406 504.2281082177633) rotate(0 48.603515625 23.243356404619135)"><text x="48.603515625" y="0" font-family="Virgil, Segoe UI Emoji" font-size="18.59468512369525px" fill="#000000" text-anchor="middle" style="white-space: pre;" direction="ltr" dominant-baseline="text-before-edge">SaaS</text><text x="48.603515625" y="23.243356404619064" font-family="Virgil, Segoe UI Emoji" font-size="18.59468512369525px" fill="#000000" text-anchor="middle" style="white-space: pre;" direction="ltr" dominant-baseline="text-before-edge">Provider(s)</text></g><g stroke-opacity="0.3" fill-opacity="0.3" stroke-linecap="round" transform="translate(273.52902802685367 109.33995590650557) rotate(0 71.01052550643544 31.290932502063697)"><path d="M17.7 -2.47 L130.65 0.61 L139.38 6.81 L143.77 15.79 L140.58 56.05 L132.25 57.79 L128.45 59.13 L8.82 60.38 L1.39 57.38 L2.74 49.92 L3.08 15.78 L5.33 1.69 L16.55 0.71" stroke="none" stroke-width="0" fill="#15aabf"></path><path d="M15.65 0 M15.65 0 C56.83 2.05, 99.55 2.88, 126.38 0 M15.65 0 C55.93 -0.91, 90.94 2.41, 126.38 0 M126.38 0 C133.83 -2.27, 141.75 2.92, 142.02 15.65 M126.38 0 C136.1 0.48, 139.98 6.42, 142.02 15.65 M142.02 15.65 C138.82 27.69, 138.5 37.33, 142.02 46.94 M142.02 15.65 C142.86 27.11, 143.68 37.18, 142.02 46.94 M142.02 46.94 C141.58 53.38, 135.01 59.05, 126.38 62.58 M142.02 46.94 C138.43 60.79, 138.96 60.78, 126.38 62.58 M126.38 62.58 C105.77 66.99, 82.18 60.61, 15.65 62.58 M126.38 62.58 C99.13 65.09, 70.4 64.23, 15.65 62.58 M15.65 62.58 C2.71 66.13, 1.22 54.59, 0 46.94 M15.65 62.58 C5.86 62.2, -3.41 57.83, 0 46.94 M0 46.94 C1.66 37.99, -2.92 22.4, 0 15.65 M0 46.94 C0.71 40.22, -1.28 34.6, 0 15.65 M0 15.65 C-0.08 3.66, 8.74 -2.28, 15.65 0 M0 15.65 C1.44 9.28, 6.29 3.3, 15.65 0" stroke="#343a40" stroke-width="1" fill="none"></path></g><g stroke-opacity="0.7" fill-opacity="0.7" stroke-linecap="round" transform="translate(398.286606462897 108.54796034069477) rotate(0 18.106237089165006 31.368101300783565)"><path d="M14.34 -1.37 C18.56 -2.17, 26.24 2.49, 29.63 6.2 C33.02 9.9, 33.68 14.42, 34.7 20.86 C35.71 27.3, 36.87 38.13, 35.72 44.86 C34.57 51.58, 31.13 58.6, 27.77 61.19 C24.42 63.77, 19.79 61.92, 15.6 60.37 C11.42 58.81, 5.04 56.8, 2.68 51.85 C0.32 46.9, 0.89 37.51, 1.44 30.67 C1.98 23.83, 2.74 16.11, 5.97 10.84 C9.2 5.57, 17.34 0.27, 20.8 -0.93 C24.27 -2.13, 27.05 2.87, 26.76 3.65 M18.59 -1.5 C22.62 -2.31, 25.42 3.01, 28.57 6.75 C31.72 10.49, 36.72 15.03, 37.5 20.95 C38.28 26.86, 34.88 36.01, 33.27 42.24 C31.65 48.48, 30.86 55.12, 27.83 58.36 C24.8 61.61, 19.38 62.92, 15.07 61.7 C10.77 60.48, 4.49 56.77, 1.98 51.04 C-0.53 45.31, -0.99 34.6, 0.02 27.33 C1.02 20.05, 5.08 11.47, 8.01 7.38 C10.93 3.29, 15.99 3.51, 17.55 2.76 C19.11 2.01, 17.19 2.77, 17.34 2.88" stroke="none" stroke-width="0" fill="#15aabf"></path><path d="M27.91 2 C30.72 4.92, 32.73 14.4, 33.67 20.96 C34.61 27.53, 34.66 35.25, 33.54 41.38 C32.41 47.51, 29.87 54.03, 26.93 57.74 C23.98 61.45, 19.64 64.33, 15.85 63.63 C12.06 62.93, 6.51 58.84, 4.18 53.53 C1.86 48.21, 1.98 38.62, 1.9 31.74 C1.82 24.86, 1.54 17.14, 3.7 12.25 C5.86 7.36, 10.09 1.58, 14.88 2.38 C19.67 3.18, 29.11 11.58, 32.45 17.05 C35.78 22.52, 35.07 34.73, 34.89 35.18 M29.09 0.84 C31.8 3.98, 31.63 15.21, 32.31 21.56 C32.99 27.91, 33.94 33.2, 33.17 38.94 C32.4 44.69, 30.67 52.04, 27.71 56.02 C24.74 59.99, 19.41 63.23, 15.37 62.8 C11.34 62.38, 5.77 58.64, 3.49 53.46 C1.2 48.28, 1.99 38.94, 1.67 31.73 C1.35 24.52, -0.63 15.75, 1.56 10.18 C3.74 4.62, 10.72 -0.89, 14.8 -1.68 C18.87 -2.46, 24.21 4.62, 25.98 5.48 C27.76 6.34, 25.26 3.36, 25.44 3.48" stroke="#343a40" stroke-width="1" fill="none"></path></g><g transform="translate(289.8738422538345 115.85482204947039) rotate(0 51.68994903564453 25)"><text x="51.68994903564453" y="0" font-family="Virgil, Segoe UI Emoji" font-size="20px" fill="#000000" text-anchor="middle" style="white-space: pre;" direction="ltr" dominant-baseline="text-before-edge">Imperative</text><text x="51.68994903564453" y="25" font-family="Virgil, Segoe UI Emoji" font-size="20px" fill="#000000" text-anchor="middle" style="white-space: pre;" direction="ltr" dominant-baseline="text-before-edge">Pipeline</text></g><g stroke-linecap="round" transform="translate(694.0677877001372 10) rotate(0 86.53798485449533 282.605099043707)"><path d="M32 0 M32 0 C59.99 -2.15, 98.01 2.85, 141.08 0 M32 0 C61.34 0.51, 90.59 0.65, 141.08 0 M141.08 0 C159.44 -1.69, 176.88 13.46, 173.08 32 M141.08 0 C165.42 2.21, 175.67 10.89, 173.08 32 M173.08 32 C175.52 151.22, 176.5 268.8, 173.08 533.21 M173.08 32 C175.73 187.63, 176.23 342.07, 173.08 533.21 M173.08 533.21 C171.45 551.19, 165.27 563.22, 141.08 565.21 M173.08 533.21 C175.73 554.66, 160.5 567.97, 141.08 565.21 M141.08 565.21 C106.29 568.39, 79.6 568.07, 32 565.21 M141.08 565.21 C101.05 565.24, 58.49 564.67, 32 565.21 M32 565.21 C8.85 566.6, -2.87 552.17, 0 533.21 M32 565.21 C9.22 565.03, -3.92 551.52, 0 533.21 M0 533.21 C-1.03 370.32, -1.14 207.49, 0 32 M0 533.21 C-3.63 423.18, -2.5 313.63, 0 32 M0 32 C-0.92 13.43, 8.33 0.76, 32 0 M0 32 C-2.57 6.96, 6.1 0.99, 32 0" stroke="#343a40" stroke-width="2" fill="none"></path></g><g stroke-linecap="round" transform="translate(481.0816052092623 205.4287628725997) rotate(269.94514152181193 66.34136172506032 67.44500868647901)"><path d="M30.2 -3.53 L105.06 3.47 L122.06 2.93 L124.81 14.56 L134.47 35.27 L135.6 113.94 L125.22 120.7 L123.98 133.19 L103.3 136.82 L26.76 134.59 L10 133.93 L5.72 119.61 L0.56 102.56 L-2.46 24.9 L10.64 5.86 L18.01 3.32 L34.51 -3.25" stroke="none" stroke-width="0" fill="#ced4da"></path><path d="M32 0 M32 0 C47.83 1.33, 67.74 -2.64, 100.68 0 M32 0 C58.48 -0.6, 82.07 2.3, 100.68 0 M100.68 0 C122.95 2.87, 134.98 10.94, 132.68 32 M100.68 0 C123.2 -0.28, 129.2 9.09, 132.68 32 M132.68 32 C130.8 48.8, 133.02 64.7, 132.68 102.89 M132.68 32 C132.56 50.1, 132.56 66.57, 132.68 102.89 M132.68 102.89 C130.93 120.97, 125.18 137.49, 100.68 134.89 M132.68 102.89 C130.08 121.79, 125.88 132.76, 100.68 134.89 M100.68 134.89 C82.42 131.85, 59.41 130.12, 32 134.89 M100.68 134.89 C78.77 136.31, 57.92 133.92, 32 134.89 M32 134.89 C11.11 137.48, -2.21 123.87, 0 102.89 M32 134.89 C13.07 130.76, -0.64 121.38, 0 102.89 M0 102.89 C0.89 84.2, 4.77 61.32, 0 32 M0 102.89 C-0.06 79.17, 1.7 57.04, 0 32 M0 32 C-2.83 7.86, 9.66 -1.65, 32 0 M0 32 C-4.07 6.09, 10.12 -1.34, 32 0" stroke="#343a40" stroke-width="1" fill="none"></path></g><g stroke-linecap="round" transform="translate(521.8479846013097 143.05807640577495) rotate(269.94514152181193 25.79739432653264 67.61133962914619)"><path d="M20.29 0.66 C23.69 -2.86, 27.52 -2.81, 31.65 0.91 C35.77 4.62, 41.96 14.38, 45.04 22.95 C48.12 31.53, 48.87 41.43, 50.11 52.36 C51.35 63.3, 53.65 77.78, 52.47 88.57 C51.28 99.36, 46.28 109.84, 43.03 117.13 C39.78 124.43, 37.12 129.63, 32.98 132.34 C28.83 135.04, 22.79 136.5, 18.16 133.37 C13.53 130.25, 8.31 122.08, 5.19 113.6 C2.07 105.13, 0.45 93.37, -0.56 82.52 C-1.57 71.67, -2.26 59.15, -0.85 48.52 C0.56 37.88, 2.85 26.97, 7.9 18.7 C12.95 10.43, 24.78 1.22, 29.46 -1.12 C34.13 -3.46, 36.32 3.51, 35.93 4.67 M23.47 -2.1 C27.27 -3.76, 34.11 2.15, 37.76 7.55 C41.42 12.96, 43.14 20.58, 45.38 30.36 C47.63 40.13, 50.95 54.87, 51.24 66.19 C51.53 77.52, 49.16 88.66, 47.12 98.31 C45.09 107.96, 43.05 117.99, 39.04 124.1 C35.04 130.21, 27.62 134.23, 23.09 134.97 C18.56 135.71, 15.1 133.58, 11.85 128.53 C8.59 123.48, 5.15 114.54, 3.57 104.67 C1.98 94.81, 2.02 81.09, 2.34 69.34 C2.67 57.6, 3.82 44.65, 5.5 34.18 C7.19 23.71, 9.21 12.16, 12.47 6.51 C15.73 0.87, 22.75 1.16, 25.07 0.31 C27.39 -0.54, 26.57 -0.01, 26.39 1.4" stroke="none" stroke-width="0" fill="#868e96"></path><path d="M44.41 25.1 C47.31 33, 51.39 45.02, 52.51 55.95 C53.64 66.89, 52.77 80.46, 51.16 90.69 C49.55 100.92, 45.95 110.03, 42.84 117.34 C39.73 124.66, 36.98 132.16, 32.52 134.58 C28.05 136.99, 20.42 135.85, 16.03 131.84 C11.64 127.83, 8.74 118.86, 6.18 110.54 C3.62 102.21, 1.65 92.71, 0.68 81.9 C-0.3 71.09, -1.14 56.34, 0.33 45.67 C1.8 35, 6.37 25.42, 9.52 17.88 C12.66 10.34, 15.39 2.58, 19.22 0.44 C23.05 -1.69, 27.28 -7.23, 32.5 5.09 C37.71 17.41, 48.94 55.54, 50.51 74.35 C52.08 93.16, 41.98 118.22, 41.92 117.93 M16.96 7.7 C20.27 3.38, 25.58 1.66, 29.97 2.76 C34.36 3.87, 39.89 7.83, 43.3 14.34 C46.72 20.85, 49.48 31.58, 50.44 41.8 C51.4 52.02, 50.02 64.3, 49.09 75.67 C48.15 87.04, 47.45 101.24, 44.84 110.03 C42.23 118.82, 37.33 124.32, 33.43 128.4 C29.52 132.48, 25.72 136.04, 21.39 134.49 C17.06 132.94, 10.58 125.71, 7.45 119.11 C4.33 112.52, 3.97 104.63, 2.65 94.91 C1.33 85.18, -0.8 71.88, -0.46 60.77 C-0.12 49.67, 2.16 37.98, 4.69 28.29 C7.22 18.59, 12.39 5.95, 14.71 2.61 C17.02 -0.73, 18.49 7.06, 18.59 8.25" stroke="#343a40" stroke-width="1" fill="none"></path></g><g transform="translate(498.5535495192994 256.3513099467018) rotate(0 47.54612075020168 31.226053965022402)"><text x="47.54612075020171" y="0" font-family="Virgil, Segoe UI Emoji" font-size="16.653895448011987px" fill="#343a40" text-anchor="middle" style="white-space: pre;" direction="ltr" dominant-baseline="text-before-edge">Declarative</text><text x="47.54612075020171" y="20.817369310014982" font-family="Virgil, Segoe UI Emoji" font-size="16.653895448011987px" fill="#343a40" text-anchor="middle" style="white-space: pre;" direction="ltr" dominant-baseline="text-before-edge">State</text><text x="47.54612075020171" y="41.634738620029964" font-family="Virgil, Segoe UI Emoji" font-size="16.653895448011987px" fill="#343a40" text-anchor="middle" style="white-space: pre;" direction="ltr" dominant-baseline="text-before-edge">Store</text></g><g stroke-linecap="round"><g transform="translate(65.90216085069187 141.7609567370073) rotate(0 48.427246847489414 1.4929740492511883)"><path d="M1.83 1.35 C17.63 0.96, 82.09 -0.45, 97.47 -0.34 M-0.62 -0.39 C14.71 -0.45, 79.32 3.66, 96.09 3.36" stroke="#2b8a3e" stroke-width="4" fill="none"></path></g><g transform="translate(65.90216085069187 141.7609567370073) rotate(0 48.427246847489414 1.4929740492511883)"><path d="M69.56 15.11 C78.94 6.23, 93.53 6.2, 93.31 3.92 M68.96 11.78 C76.08 10.69, 85.63 5.63, 95.28 1.68" stroke="#2b8a3e" stroke-width="4" fill="none"></path></g><g transform="translate(65.90216085069187 141.7609567370073) rotate(0 48.427246847489414 1.4929740492511883)"><path d="M70.12 -5.4 C79.56 -6.18, 93.93 1.9, 93.31 3.92 M69.51 -8.73 C76.17 -3.84, 85.56 -2.92, 95.28 1.68" stroke="#2b8a3e" stroke-width="4" fill="none"></path></g></g><mask></mask><g stroke-linecap="round"><g transform="translate(225.5635069978607 142.71819146019698) rotate(0 24.82979954081634 -0.06997207777249059)"><path d="M1.58 0.14 C8.81 0.29, 37.51 2.67, 45.21 2.29 M-1 -2.26 C6.97 -2.95, 42.75 -1.74, 50.66 -1.38" stroke="#2b8a3e" stroke-width="4" fill="none"></path></g><g transform="translate(225.5635069978607 142.71819146019698) rotate(0 24.82979954081634 -0.06997207777249059)"><path d="M28.51 3.34 C39.96 4.17, 41.8 0.88, 50.33 -4.34 M28.32 6.5 C36.4 2.22, 41.26 -0.07, 52.09 -2.37" stroke="#2b8a3e" stroke-width="4" fill="none"></path></g><g transform="translate(225.5635069978607 142.71819146019698) rotate(0 24.82979954081634 -0.06997207777249059)"><path d="M29.1 -12.71 C40.49 -6.01, 42.11 -3.44, 50.33 -4.34 M28.91 -9.55 C37.02 -8.87, 41.7 -6.18, 52.09 -2.37" stroke="#2b8a3e" stroke-width="4" fill="none"></path></g></g><mask></mask><g stroke-linecap="round"><g transform="translate(395.1627601852106 142.74168691423802) rotate(0 53.969408351702214 24.55329967799844)"><path d="M-1.75 2.48 C10.89 4.59, 58.87 5.75, 77.44 12.8 C96.02 19.85, 104.73 39.35, 109.69 44.76 M2.49 1.36 C14.7 3.76, 58.07 7.64, 75.67 15.37 C93.27 23.1, 102.93 42.3, 108.1 47.75" stroke="#2b8a3e" stroke-width="4" fill="none"></path></g><g transform="translate(395.1627601852106 142.74168691423802) rotate(0 53.969408351702214 24.55329967799844)"><path d="M92.98 36.8 C93.32 40.72, 102.42 41.53, 108.5 50.39 M90.69 33.96 C93.23 36.79, 100.07 40.46, 109.25 47.8" stroke="#2b8a3e" stroke-width="4" fill="none"></path></g><g transform="translate(395.1627601852106 142.74168691423802) rotate(0 53.969408351702214 24.55329967799844)"><path d="M105.16 27.65 C101.17 34.68, 105.93 38.75, 108.5 50.39 M102.87 24.81 C102.41 29.97, 106.24 35.9, 109.25 47.8" stroke="#2b8a3e" stroke-width="4" fill="none"></path></g></g><mask></mask><g stroke-linecap="round"><g transform="translate(699.4696805759613 54.70753242844967) rotate(181.0889909393324 -64.01988601390872 65.4470216162631)"><path d="M0.85 -1.95 C-2.67 11.36, -1.26 60.37, -22.88 82.29 C-44.51 104.21, -111.88 121.99, -128.89 129.58 M-2.13 3.17 C-5.83 18.15, -4.73 64.18, -24.91 85.79 C-45.08 107.4, -106.77 125.54, -123.19 132.84" stroke="#2b8a3e" stroke-width="4" fill="none"></path></g><g transform="translate(699.4696805759613 54.70753242844967) rotate(181.0889909393324 -64.01988601390872 65.4470216162631)"><path d="M-103.21 113.85 C-105.82 115.11, -110.49 125.36, -125.32 132.85 M-101.24 111.62 C-106.33 118.44, -114.19 125.99, -124.02 134.04" stroke="#2b8a3e" stroke-width="4" fill="none"></path></g><g transform="translate(699.4696805759613 54.70753242844967) rotate(181.0889909393324 -64.01988601390872 65.4470216162631)"><path d="M-95.97 133.05 C-100.63 129.79, -107.03 135.48, -125.32 132.85 M-94 130.82 C-101.75 131.12, -112.01 132.28, -124.02 134.04" stroke="#2b8a3e" stroke-width="4" fill="none"></path></g></g><mask></mask><g stroke-linecap="round"><g transform="translate(695.6416057185297 483.22634901696165) rotate(180.06542284358895 -49.89922435993776 -146.2928361336858)"><path d="M0.39 -0.23 C-8.8 6.53, -44.85 72.35, -54.32 38.63 C-63.79 4.9, -55.49 -140.44, -56.42 -202.58 C-57.35 -264.71, -53.02 -312.4, -59.9 -334.19 C-66.77 -355.98, -90.9 -333.44, -97.67 -333.3 M-2.84 -2.83 C-11.23 4.62, -39.98 75.32, -49.04 42.41 C-58.11 9.5, -55.51 -138.03, -57.23 -200.28 C-58.94 -262.53, -52.15 -308.86, -59.31 -331.08 C-66.47 -353.3, -93.77 -334.06, -100.19 -333.62" stroke="#2b8a3e" stroke-width="4" fill="none"></path></g><g transform="translate(695.6416057185297 483.22634901696165) rotate(180.06542284358895 -49.89922435993776 -146.2928361336858)"><path d="M-85.4 -349.45 C-89.85 -339.58, -97.37 -337.94, -98.88 -331.13 M-83.65 -347.5 C-87.34 -343.89, -92.61 -339.93, -100.23 -334.39" stroke="#2b8a3e" stroke-width="4" fill="none"></path></g><g transform="translate(695.6416057185297 483.22634901696165) rotate(180.06542284358895 -49.89922435993776 -146.2928361336858)"><path d="M-80.65 -336.72 C-86.5 -331.04, -95.58 -333.6, -98.88 -331.13 M-78.9 -334.77 C-83.52 -334.03, -89.84 -332.85, -100.23 -334.39" stroke="#2b8a3e" stroke-width="4" fill="none"></path></g></g><mask></mask><g stroke-linecap="round" transform="translate(40.30143649502088 82.67556506418532) rotate(0 19.42808070684282 19.336659332926956)"><path d="M1.56 10.63 C1.56 10.63, 1.56 10.63, 1.56 10.63 M1.56 10.63 C1.56 10.63, 1.56 10.63, 1.56 10.63 M1.33 16.31 C4.46 11.7, 9.3 8.4, 15.98 0.52 M-0.24 16.79 C3.73 13.91, 6.65 9.68, 14.48 1.34 M1.78 24.19 C6.12 21.38, 8.92 16.81, 19.35 2.13 M0.65 24.2 C3.8 20.32, 7.34 15.5, 19.66 2.56 M2.25 25.68 C11.34 18.91, 16.93 8.83, 24.59 2.69 M3.06 26.83 C8.67 22.87, 11.64 15.97, 24.48 1.83 M5.37 30.84 C10.86 25.11, 16.03 20.91, 28.63 3.19 M4.86 31.84 C10.54 25.35, 14.05 20.05, 29.26 3.5 M8.04 35.35 C15.55 23.31, 24.48 15.68, 29.84 4.45 M6.5 33.95 C14.73 26.52, 20.83 19.03, 30.92 5.44 M8.72 38.46 C16.19 29.68, 25.49 22.71, 33.32 10.57 M9.95 36.43 C19.4 26.5, 27.97 17.76, 34.76 8.47 M14.15 37.5 C21.46 27.91, 26.99 20.05, 36.91 12.37 M13.82 37.5 C23.05 28.44, 32.82 17.63, 38.03 10.74 M19.32 36.97 C24.4 33.89, 28.72 27.43, 37.85 17.82 M18.94 38.46 C26.3 30.78, 33.01 23.47, 39.13 16.17 M26.85 34.18 C30.33 32.92, 32.42 26.95, 38.03 23.34 M27.97 35.04 C30.39 32.05, 33.29 28.15, 38.28 24.41" stroke="#12b886" stroke-width="0.5" fill="none"></path><path d="M26.06 1.67 C29.84 2.65, 33.3 5.39, 35.26 8.95 C37.21 12.52, 38.38 18.8, 37.78 23.06 C37.19 27.31, 34.69 31.96, 31.69 34.49 C28.7 37.03, 23.79 38.28, 19.81 38.25 C15.83 38.23, 11.12 36.75, 7.82 34.36 C4.51 31.97, 0.97 27.94, -0.03 23.93 C-1.02 19.92, -0.37 14.03, 1.86 10.29 C4.08 6.56, 8.91 2.84, 13.33 1.53 C17.75 0.21, 25.71 2.09, 28.38 2.4 C31.06 2.71, 29.64 3.32, 29.37 3.39 M15.04 -0.61 C18.93 -1.62, 25.16 0.49, 28.72 2.56 C32.29 4.63, 34.87 7.74, 36.42 11.79 C37.98 15.84, 39.31 22.6, 38.03 26.84 C36.75 31.08, 32.47 35.14, 28.74 37.24 C25.01 39.33, 19.79 40.51, 15.65 39.39 C11.5 38.27, 6.26 33.69, 3.85 30.5 C1.44 27.31, 1.21 24.33, 1.19 20.25 C1.17 16.18, 1.04 9.51, 3.73 6.07 C6.43 2.63, 15.36 0.32, 17.37 -0.41 C19.39 -1.14, 16.13 1.22, 15.83 1.7" stroke="#495057" stroke-width="1" fill="none"></path></g><g stroke-linecap="round"><g transform="translate(59.63809582794829 121.34888373003832) rotate(0 0.11542898247148514 26.608768367788798)" fill-rule="evenodd"><path d="M-12.59 -0.35 C-12.59 -0.35, -12.59 -0.35, -12.59 -0.35 M-12.59 -0.35 C-12.59 -0.35, -12.59 -0.35, -12.59 -0.35 M-16.17 10.94 C-12.74 6.46, -11.67 4.39, -5.19 -2.46 M-17.64 11.92 C-15.29 8.38, -12.51 4.36, -7.14 -1.31 M-20.32 24.41 C-15.14 14.61, -5.94 4.67, -2.79 1.42 M-22.55 22.04 C-17.9 18.26, -13.8 14.46, -3.28 0.72 M-21.26 28.55 C-14.44 20.65, -12.21 15.59, 0.89 -0.28 M-21.62 27.02 C-16.56 22.08, -12.98 17.29, 1.3 2.19 M-22.68 38 C-13.66 24.35, -5.24 12.39, 10.84 -2.15 M-24.39 36.92 C-12.73 24.77, -2.1 12.62, 10.94 -2.93 M-25.84 43.02 C-16.66 34.81, -10.69 25.05, 11.44 1.33 M-25.26 43.06 C-16.24 32.86, -8.82 24.54, 12.98 0.83 M-21.76 49.51 C-12.28 34.95, -2.5 23.37, 14.79 3.58 M-24.32 49.22 C-7.97 30.93, 7.17 14.4, 16.29 4.36 M-23.23 55.89 C-10.68 36.28, 4.85 23.12, 17.08 6.28 M-22.95 54.5 C-13.56 41.22, -2.43 30.84, 17.14 7.33 M-17.65 57.54 C-5.97 40.82, 11.12 22.43, 19.11 10.51 M-19.02 56.69 C-9.78 44.72, -0.1 33.71, 20.26 11.26 M-16.89 55.51 C-6.09 47.22, 5.98 35.7, 22.31 14.48 M-14.28 57 C-5.88 46.18, 2.04 36.95, 20.45 16.24 M-10.72 57.68 C-3.58 50.31, 5.74 39.56, 23.34 18.88 M-10.25 58.14 C0.23 45.94, 9.8 35.23, 21.57 20.26 M-6.84 56.23 C0.93 50.83, 6.61 45.03, 24.1 26.89 M-5.68 57.78 C1.49 52.04, 6.04 44.57, 22.26 26.19 M-0.21 57.78 C6.24 49.89, 16.99 41, 25.04 31.09 M-0.42 57.67 C9.01 49.53, 16.59 38.89, 25.62 30.61 M6.88 56.36 C13.3 50.05, 19.07 42.77, 25.13 35.15 M7.11 56.54 C14.53 48.78, 21.3 39.7, 26.83 34.57 M14.23 57.6 C19.88 50.15, 24.18 42.73, 26.48 37.52 M12.82 55.33 C17.81 48.9, 24.29 43.9, 28.24 39.11 M18.92 55.71 C21.68 51.81, 27.67 45.86, 30.74 44.06 M18.76 54.37 C22.72 50.28, 27.11 46.39, 29.58 43.19" stroke="#12b886" stroke-width="0.5" fill="none"></path><path d="M0.79 -0.64 C3.09 -0.6, 8.6 -8.14, 12.89 0.4 C17.18 8.94, 33.06 42.23, 26.53 50.59 C20.01 58.95, -19.84 59.09, -26.27 50.56 C-32.7 42.03, -16.53 7.82, -12.03 -0.6 C-7.54 -9.02, -1.23 -0.19, 0.69 0.03 M-0.25 1.64 C1.97 1.3, 7.55 -9.81, 11.95 -1.52 C16.35 6.78, 32.54 42.62, 26.16 51.39 C19.79 60.17, -19.74 59.79, -26.28 51.14 C-32.81 42.48, -17.23 8.17, -13.05 -0.52 C-8.87 -9.21, -3.35 -1.04, -1.19 -1" stroke="#495057" stroke-width="1" fill="none"></path></g></g><mask></mask><g stroke-linecap="round" transform="translate(184.43090550558827 33.5403368099569) rotate(0.7986324256369787 3.7680364110324263 19.555950473086796)"><path d="M0.28 1.57 C0.28 1.57, 0.28 1.57, 0.28 1.57 M0.28 1.57 C0.28 1.57, 0.28 1.57, 0.28 1.57 M0.02 7.96 C2.03 6.09, 3.63 4.47, 6.58 0.42 M0.02 7.96 C2.86 5.56, 4.6 2.2, 6.58 0.42 M-0.25 14.36 C4.62 9.16, 7.65 4.85, 9.59 3.04 M-0.25 14.36 C2.63 11.56, 4.25 10.11, 9.59 3.04 M0.15 20 C4.47 15.31, 6.84 12.91, 9.33 9.44 M0.15 20 C1.92 17.16, 4.19 15.53, 9.33 9.44 M-0.11 26.4 C3.21 22.05, 5.35 18.94, 9.07 15.84 M-0.11 26.4 C2.11 22.68, 5.17 19.72, 9.07 15.84 M0.28 32.05 C1.92 29.3, 3.04 27.66, 9.47 21.48 M0.28 32.05 C2.3 30.01, 4.8 27.63, 9.47 21.48 M0.68 37.69 C3.82 33.81, 5.86 29.98, 9.2 27.88 M0.68 37.69 C2.95 35.08, 5.35 31.83, 9.2 27.88 M3.04 41.07 C5.09 38.87, 7.04 35.18, 9.6 33.52 M3.04 41.07 C5.07 38.61, 7.47 35.62, 9.6 33.52 M0.69 38.83 C0.69 38.83, 0.69 38.83, 0.69 38.83 M0.69 38.83 C0.69 38.83, 0.69 38.83, 0.69 38.83 M6.34 38.44 C5.45 37.54, 3.61 35.93, 1.81 34.5 M6.34 38.44 C5.28 37.86, 4.55 36.79, 1.81 34.5 M8.96 35.42 C7.3 34.8, 6.67 33.9, 2.17 29.52 M8.96 35.42 C6.53 33.4, 4.84 31.1, 2.17 29.52 M9.32 30.43 C7.81 28.17, 5.9 28.47, 1.77 23.87 M9.32 30.43 C6.67 28.03, 4.74 26.94, 1.77 23.87 M8.93 24.79 C6.5 23.29, 5.54 21.86, 2.13 18.89 M8.93 24.79 C7.31 23.41, 5.54 21.91, 2.13 18.89 M9.29 19.8 C7.6 17.87, 4.36 15.97, 2.49 13.9 M9.29 19.8 C7.41 18.19, 5.4 16.38, 2.49 13.9 M8.89 14.16 C8.17 13.05, 6.84 10.76, 2.1 8.26 M8.89 14.16 C7.56 12.65, 5.71 10.91, 2.1 8.26 M9.25 9.17 C6.68 6.31, 4.52 5.79, 0.19 1.3 M9.25 9.17 C7.26 7.38, 4.19 5.35, 0.19 1.3 M8.86 3.53 C7.7 2.16, 6.72 1.51, 2.82 -1.72 M8.86 3.53 C7.01 2.01, 5.27 0.69, 2.82 -1.72" stroke="#7950f2" stroke-width="0.5" fill="none"></path><path d="M1.88 0 M1.88 0 C3.24 -0.05, 4.57 0.09, 5.65 0 M1.88 0 C3.12 0.04, 4.34 0, 5.65 0 M5.65 0 C7.81 1.8, 5.71 1.09, 7.54 1.88 M5.65 0 C4.66 1.57, 7.7 -0.46, 7.54 1.88 M7.54 1.88 C5.92 9.2, 9.02 16.3, 7.54 37.23 M7.54 1.88 C8.21 11.7, 7.35 22.77, 7.54 37.23 M7.54 37.23 C9.19 39.5, 7.17 37.9, 5.65 39.11 M7.54 37.23 C9.09 40.73, 6.84 38.57, 5.65 39.11 M5.65 39.11 C4.78 39.02, 3.68 38.91, 1.88 39.11 M5.65 39.11 C4.54 39.04, 3.87 39.03, 1.88 39.11 M1.88 39.11 C0.97 40.23, -1.86 39.53, 0 37.23 M1.88 39.11 C2.55 39.21, 1.07 37.54, 0 37.23 M0 37.23 C1.68 27.95, 0.75 17.18, 0 1.88 M0 37.23 C0.1 29.53, 0.4 19.65, 0 1.88 M0 1.88 C-0.57 -0.81, 2.1 1.12, 1.88 0 M0 1.88 C1.24 1.66, 1.53 -2.07, 1.88 0" stroke="transparent" stroke-width="1" fill="none"></path></g><g stroke-linecap="round" transform="translate(198.45241988735506 29.002973405561534) rotate(42.28618535911579 3.7680364110324263 24.785791502693428)"><path d="M0.28 1.57 C0.28 1.57, 0.28 1.57, 0.28 1.57 M0.28 1.57 C0.28 1.57, 0.28 1.57, 0.28 1.57 M0.02 7.96 C2.85 5.3, 4.91 2.65, 6.58 0.42 M0.02 7.96 C1.11 6.01, 3.25 4.39, 6.58 0.42 M-0.25 14.36 C2.69 10.44, 3.92 6.66, 9.59 3.04 M-0.25 14.36 C2.89 11.5, 6.51 6.96, 9.59 3.04 M0.15 20 C2.81 17.5, 4.54 13.29, 9.33 9.44 M0.15 20 C2.53 17.49, 4.69 15.65, 9.33 9.44 M-0.11 26.4 C1.68 23.22, 4.14 21.98, 9.07 15.84 M-0.11 26.4 C3.25 22.19, 6.28 17.79, 9.07 15.84 M0.28 32.05 C1.73 29.11, 4.77 24.63, 9.47 21.48 M0.28 32.05 C3 29.55, 6.23 26.1, 9.47 21.48 M0.02 38.44 C2.12 34.28, 6.99 30.97, 9.2 27.88 M0.02 38.44 C2.2 35.44, 5.79 32.19, 9.2 27.88 M-0.24 44.84 C2.94 39.32, 7.45 36.94, 9.6 33.52 M-0.24 44.84 C2.05 41.68, 3.96 39.1, 9.6 33.52 M0.81 49.73 C4.6 45.27, 5.68 43.25, 9.34 39.92 M0.81 49.73 C2.74 47.63, 4.58 45.8, 9.34 39.92 M0.8 49.38 C0.8 49.38, 0.8 49.38, 0.8 49.38 M0.8 49.38 C0.8 49.38, 0.8 49.38, 0.8 49.38 M6.44 48.99 C5.18 48.18, 3.42 46.54, 1.91 45.05 M6.44 48.99 C5.45 47.61, 3.67 46.75, 1.91 45.05 M9.06 45.97 C6.33 44.41, 4.24 41.74, 2.27 40.07 M9.06 45.97 C6.82 44.33, 4.73 41.67, 2.27 40.07 M8.67 40.33 C6.87 38.76, 2.94 36.6, 1.88 34.42 M8.67 40.33 C6.02 37.99, 3.99 35.86, 1.88 34.42 M9.03 35.34 C6.29 33.46, 4.13 32.25, 2.24 29.44 M9.03 35.34 C6.81 33.31, 5.04 31.98, 2.24 29.44 M9.39 30.35 C7.72 27.16, 3.7 25.53, 1.84 23.79 M9.39 30.35 C6.77 27.53, 3.71 25.54, 1.84 23.79 M9 24.71 C6.88 23.37, 4.64 21.2, 2.2 18.81 M9 24.71 C7.02 23.52, 5.16 21.8, 2.2 18.81 M9.36 19.72 C7.86 18.23, 4.93 16.27, 1.81 13.16 M9.36 19.72 C6.51 17.51, 4.87 15.07, 1.81 13.16 M8.96 14.08 C7.57 12.93, 6.44 12.17, 2.17 8.18 M8.96 14.08 C7.24 12.77, 6.33 12.01, 2.17 8.18 M9.32 9.09 C8.23 7.45, 4.96 4.56, 0.26 1.22 M9.32 9.09 C6.77 7.21, 4.13 4.51, 0.26 1.22 M8.93 3.45 C5.9 1.17, 3.89 0.23, 2.89 -1.8 M8.93 3.45 C7.07 1.96, 4.67 -0.36, 2.89 -1.8" stroke="#7950f2" stroke-width="0.5" fill="none"></path><path d="M1.88 0 M1.88 0 C3.17 -0.06, 4.24 -0.17, 5.65 0 M1.88 0 C2.7 -0.14, 3.97 -0.16, 5.65 0 M5.65 0 C7.25 1.11, 5.67 1.67, 7.54 1.88 M5.65 0 C8.83 0.1, 8.61 -0.32, 7.54 1.88 M7.54 1.88 C9.87 14.12, 8.94 24.86, 7.54 47.69 M7.54 1.88 C7.17 13.58, 7.48 23.08, 7.54 47.69 M7.54 47.69 C6.96 47.5, 8.38 50.69, 5.65 49.57 M7.54 47.69 C8.77 49.98, 7.81 47.51, 5.65 49.57 M5.65 49.57 C4.46 49.83, 4.05 49.39, 1.88 49.57 M5.65 49.57 C4.12 49.65, 2.73 49.48, 1.88 49.57 M1.88 49.57 C0.66 48.93, 1.65 49.35, 0 47.69 M1.88 49.57 C1.12 50.7, -1.14 46.89, 0 47.69 M0 47.69 C1.27 33.76, -0.49 18.35, 0 1.88 M0 47.69 C-0.03 36.04, -1.05 21.72, 0 1.88 M0 1.88 C1.63 -0.97, 2.12 1.12, 1.88 0 M0 1.88 C-1.08 0.27, -0.93 -0.59, 1.88 0" stroke="transparent" stroke-width="1" fill="none"></path></g><g stroke-linecap="round" transform="translate(206.83215531645783 47.8356352277724) rotate(141.0896403204256 3.7680364110324263 14.147647249566944)"><path d="M0.28 1.57 C0.28 1.57, 0.28 1.57, 0.28 1.57 M0.28 1.57 C0.28 1.57, 0.28 1.57, 0.28 1.57 M0.02 7.96 C2.46 5.45, 2.78 4.59, 6.58 0.42 M0.02 7.96 C2.87 5.01, 4.73 2.83, 6.58 0.42 M-0.25 14.36 C0.9 10.19, 4.81 10.15, 9.59 3.04 M-0.25 14.36 C2.82 11.16, 4.94 8.87, 9.59 3.04 M0.15 20 C1.15 17.18, 3.79 14.43, 9.33 9.44 M0.15 20 C2.12 18.47, 3.38 15.98, 9.33 9.44 M-0.11 26.4 C1.98 24.52, 5.15 20.69, 9.07 15.84 M-0.11 26.4 C1.41 23.31, 4.05 21.38, 9.07 15.84 M2.25 29.78 C3.56 26.53, 6.02 24.96, 9.47 21.48 M2.25 29.78 C5.35 26.86, 7.98 23.56, 9.47 21.48 M0.77 28.08 C0.77 28.08, 0.77 28.08, 0.77 28.08 M0.77 28.08 C0.77 28.08, 0.77 28.08, 0.77 28.08 M6.41 27.69 C5.15 26.46, 2.99 24.83, 1.88 23.75 M6.41 27.69 C4.88 26.2, 3.7 24.99, 1.88 23.75 M9.03 24.67 C5.68 22.32, 2.82 19, 2.24 18.76 M9.03 24.67 C6.55 22.8, 4.03 20.75, 2.24 18.76 M9.39 19.68 C5.92 17.88, 3.9 14.88, 1.85 13.12 M9.39 19.68 C5.93 17.44, 3.74 14.44, 1.85 13.12 M9 14.04 C6.78 12.44, 3.87 9.52, 2.21 8.13 M9 14.04 C6.57 12.18, 5.3 10.6, 2.21 8.13 M9.36 9.05 C7.51 7.51, 6.01 4.92, 0.3 1.18 M9.36 9.05 C7.56 6.98, 6.12 5.63, 0.3 1.18 M8.96 3.41 C6.36 2.35, 5.39 -0.04, 2.93 -1.84 M8.96 3.41 C7.4 1.65, 5.67 0.63, 2.93 -1.84" stroke="#7950f2" stroke-width="0.5" fill="none"></path><path d="M1.88 0 M1.88 0 C2.83 0.31, 4.02 -0.11, 5.65 0 M1.88 0 C2.76 -0.05, 4.03 0.18, 5.65 0 M5.65 0 C7.2 1.83, 5.54 -0.49, 7.54 1.88 M5.65 0 C5.93 1.34, 9.06 0.09, 7.54 1.88 M7.54 1.88 C6.93 9.78, 6.82 16.37, 7.54 26.41 M7.54 1.88 C7.7 8.42, 8.3 16.45, 7.54 26.41 M7.54 26.41 C6.48 28.81, 5.17 28.37, 5.65 28.3 M7.54 26.41 C6.82 28.04, 6.25 29.56, 5.65 28.3 M5.65 28.3 C4.47 28.07, 3.03 27.93, 1.88 28.3 M5.65 28.3 C4.44 28.27, 3.51 28.27, 1.88 28.3 M1.88 28.3 C0.92 29.16, 1.39 25.86, 0 26.41 M1.88 28.3 C-0.06 28.43, -1.63 27.27, 0 26.41 M0 26.41 C0.24 15.99, 1.14 9.62, 0 1.88 M0 26.41 C-0.03 19.43, 0.31 14.78, 0 1.88 M0 1.88 C0.06 0.72, 2.08 0.64, 1.88 0 M0 1.88 C0.96 -1.56, -0.38 -1.49, 1.88 0" stroke="transparent" stroke-width="1" fill="none"></path></g><g stroke-linecap="round" transform="translate(184.11627959429552 31.580857450690928) rotate(0 4.207022158495647 4.569555668486828)"><path d="M-0.23 2.45 C-0.23 2.45, -0.23 2.45, -0.23 2.45 M-0.23 2.45 C-0.23 2.45, -0.23 2.45, -0.23 2.45 M0.07 7.2 C2.86 5.31, 4.74 2.43, 6.6 0.57 M1.06 7.31 C2.69 5.2, 3.95 3.43, 6.15 1.01 M3.14 9.58 C4.7 8.44, 6.31 7.25, 10.36 2.39 M3.4 10.24 C5.21 8.48, 6.57 7.1, 9.66 3.53 M3.35 9.86 C3.35 9.86, 3.35 9.86, 3.35 9.86 M3.35 9.86 C3.35 9.86, 3.35 9.86, 3.35 9.86 M7.27 8.69 C4.67 4.61, 1.41 3.72, -0.09 1.6 M7.39 8.54 C5.12 5.51, 3.02 3.6, 0.08 2 M9.79 4.44 C7.02 2.15, 4.51 0.87, 2.85 -0.57 M9.37 4.28 C7.53 2.44, 4.93 0.6, 2.94 -1.16" stroke="#7950f2" stroke-width="0.5" fill="none"></path><path d="M2.69 -0.56 C3.46 -0.85, 4 0.07, 4.95 0.5 C5.9 0.93, 7.69 1.25, 8.39 2.02 C9.08 2.78, 9.23 4.16, 9.11 5.09 C8.98 6.02, 8.57 6.8, 7.62 7.6 C6.68 8.41, 4.34 9.94, 3.43 9.93 C2.53 9.92, 2.83 8.15, 2.18 7.53 C1.53 6.92, -0.11 7.15, -0.46 6.25 C-0.81 5.34, -0.66 3.21, 0.08 2.09 C0.83 0.97, 3.33 -0.05, 4 -0.48 C4.67 -0.9, 4.34 -0.46, 4.11 -0.46 M4.79 1.51 C5.62 1.6, 7.66 0.47, 8.29 1.09 C8.92 1.71, 8.82 4.23, 8.57 5.23 C8.32 6.24, 7.2 6.73, 6.78 7.13 C6.35 7.54, 6.77 7.56, 6 7.66 C5.22 7.76, 3.15 8.19, 2.15 7.74 C1.14 7.29, 0.25 5.72, -0.02 4.95 C-0.29 4.18, 0.15 3.6, 0.52 3.11 C0.88 2.63, 1.63 2.47, 2.15 2.04 C2.68 1.61, 3.44 0.92, 3.67 0.54 C3.9 0.16, 3.52 -0.21, 3.54 -0.22" stroke="#5f3dc4" stroke-width="1" fill="none"></path></g><g stroke-linecap="round" transform="translate(184.02470511926913 63.8430691316089) rotate(0 4.207022158495647 4.569555668486828)"><path d="M1.47 1.28 C1.47 1.28, 1.47 1.28, 1.47 1.28 M1.47 1.28 C1.47 1.28, 1.47 1.28, 1.47 1.28 M0.65 8.7 C2.55 5.7, 5.11 3.12, 7.47 1.14 M0.7 8.31 C2.18 6.17, 4.88 3.15, 6.94 0.93 M4.26 9.8 C5.93 8.54, 8.64 5.24, 9.6 3.57 M4.88 9.6 C6.06 8.44, 7.15 7.21, 10.31 3.49 M0.6 8.45 C0.6 8.45, 0.6 8.45, 0.6 8.45 M0.6 8.45 C0.6 8.45, 0.6 8.45, 0.6 8.45 M6.25 7.28 C4.73 7.55, 3.78 5.97, 0.41 2.15 M6.27 7.7 C5.32 6.85, 3.9 6.28, 0.49 2.52 M8.74 4.61 C6.15 3.29, 3.81 1.28, 3.29 -0.21 M9.2 4.91 C7.27 3.63, 5.52 2.05, 2.49 -0.38" stroke="#7950f2" stroke-width="0.5" fill="none"></path><path d="M2.89 0.3 C3.83 0.2, 5.92 0, 6.93 0.42 C7.94 0.85, 8.62 1.96, 8.94 2.85 C9.25 3.74, 9.4 4.69, 8.82 5.77 C8.23 6.86, 6.23 8.91, 5.43 9.36 C4.64 9.81, 4.89 8.67, 4.05 8.49 C3.22 8.31, 1.16 8.99, 0.41 8.28 C-0.34 7.58, -0.68 5.47, -0.46 4.26 C-0.24 3.04, 0.98 1.79, 1.72 0.99 C2.47 0.19, 3.74 -0.22, 4 -0.54 C4.26 -0.85, 3.26 -1.2, 3.27 -0.9 M4.42 -0.23 C5.25 -0.55, 5.9 1.03, 6.38 1.53 C6.86 2.02, 6.86 2.24, 7.29 2.76 C7.73 3.29, 9.16 3.88, 8.98 4.67 C8.8 5.47, 7.16 7.05, 6.2 7.54 C5.23 8.03, 4 7.64, 3.2 7.62 C2.41 7.6, 1.89 7.69, 1.41 7.41 C0.92 7.13, 0.54 6.82, 0.29 5.96 C0.05 5.09, -0.4 3.27, -0.07 2.24 C0.25 1.21, 1.82 0.1, 2.26 -0.25 C2.7 -0.59, 2.27 -0.16, 2.55 0.17" stroke="#5f3dc4" stroke-width="1" fill="none"></path></g><g stroke-linecap="round" transform="translate(199.01415722824368 50.225632438427965) rotate(0 4.171683969157584 4.569555668486828)"><path d="M0.69 1.93 C0.69 1.93, 0.69 1.93, 0.69 1.93 M0.69 1.93 C0.69 1.93, 0.69 1.93, 0.69 1.93 M2.41 5.69 C4.16 3.92, 5.24 3.24, 7.18 1.2 M2.07 6.2 C3.8 4.27, 4.96 3.01, 7 0.51 M3.67 10.79 C5.57 8.5, 5.77 7.9, 7.55 5.08 M4.09 10.37 C5.48 8.79, 7.1 6.89, 7.96 5.41 M1.09 7.89 C1.09 7.89, 1.09 7.89, 1.09 7.89 M1.09 7.89 C1.09 7.89, 1.09 7.89, 1.09 7.89 M6.51 7.89 C5.12 6.06, 3.68 4.18, 1.63 3.44 M6.96 7.36 C5.11 6.22, 3.53 4.27, 2.44 3.72 M8.25 4.02 C6.64 2.61, 5.89 1.08, 2.94 -0.74 M8.51 3.74 C6.91 2.31, 5.61 1.35, 3.45 -0.5" stroke="#7950f2" stroke-width="0.5" fill="none"></path><path d="M3 0.18 C3.99 -0.34, 5.16 -0.3, 6.04 -0.07 C6.92 0.16, 8.05 0.57, 8.29 1.55 C8.54 2.53, 7.6 4.85, 7.51 5.8 C7.42 6.76, 8.33 6.57, 7.74 7.27 C7.15 7.96, 5.04 9.83, 3.97 9.97 C2.89 10.1, 1.81 8.86, 1.28 8.06 C0.76 7.25, 0.94 6.13, 0.82 5.12 C0.71 4.12, 0.38 3.02, 0.6 2.04 C0.81 1.05, 1.6 -0.6, 2.11 -0.78 C2.61 -0.96, 3.54 0.72, 3.63 0.97 M6.31 1.52 C6.77 1.94, 6.78 2.22, 7.22 2.75 C7.65 3.27, 9.09 3.86, 8.92 4.66 C8.74 5.45, 7.11 7.03, 6.16 7.53 C5.2 8.02, 3.98 7.64, 3.19 7.62 C2.4 7.61, 1.89 7.7, 1.41 7.43 C0.93 7.15, 0.54 6.84, 0.29 5.97 C0.04 5.11, -0.41 3.29, -0.09 2.25 C0.23 1.22, 1.31 0.04, 2.21 -0.24 C3.12 -0.53, 4.59 0.19, 5.32 0.53 C6.05 0.87, 6.67 1.9, 6.59 1.79" stroke="#5f3dc4" stroke-width="1" fill="none"></path></g><g stroke-linecap="round" transform="translate(212.71884676112313 33.315841907323374) rotate(0 4.207022158495647 4.569555668486828)"><path d="M1.16 -0.32 C1.16 -0.32, 1.16 -0.32, 1.16 -0.32 M1.16 -0.32 C1.16 -0.32, 1.16 -0.32, 1.16 -0.32 M1.43 5.35 C2.89 4.34, 4.53 2.65, 6.1 0.29 M0.98 5.79 C2.26 4.44, 3.85 2.43, 5.98 -0.27 M3.88 8.68 C4.67 7.22, 6.48 4.01, 9.73 2.65 M3.18 9.82 C5.32 7.28, 6.83 4.78, 9.39 2.54 M1.91 8.47 C1.91 8.47, 1.91 8.47, 1.91 8.47 M1.91 8.47 C1.91 8.47, 1.91 8.47, 1.91 8.47 M6.77 7.43 C5.79 5.74, 3.6 5.17, 1.37 2.23 M6.91 7.75 C5.76 6, 4.51 5.4, 0.74 2.11 M8.2 3.95 C7.67 2.47, 5.28 1.22, 2.24 -0.84 M8.28 3.36 C6.73 2.16, 5.61 1.25, 2.69 -1.13" stroke="#7950f2" stroke-width="0.5" fill="none"></path><path d="M5.47 -0.2 C6.34 -0.18, 7.61 0.13, 7.96 1.01 C8.32 1.9, 7.55 4.16, 7.59 5.12 C7.64 6.07, 8.71 5.96, 8.22 6.75 C7.72 7.54, 5.69 9.58, 4.63 9.86 C3.57 10.14, 2.44 9.09, 1.84 8.41 C1.24 7.73, 1.27 6.73, 1.03 5.78 C0.78 4.82, 0.36 3.68, 0.37 2.68 C0.39 1.67, 0.31 0.05, 1.11 -0.25 C1.9 -0.55, 4.55 0.78, 5.16 0.88 C5.77 0.97, 4.64 0.24, 4.75 0.3 M2.93 -0.11 C3.88 -0.65, 6.49 -0.98, 7.34 -0.57 C8.19 -0.15, 7.99 1.46, 8.04 2.38 C8.1 3.3, 7.94 3.94, 7.67 4.96 C7.4 5.98, 7.1 7.6, 6.4 8.49 C5.71 9.38, 4.58 10.39, 3.48 10.27 C2.39 10.15, 0.58 8.83, -0.18 7.77 C-0.95 6.71, -1.19 4.98, -1.1 3.92 C-1.01 2.85, -0.55 1.84, 0.35 1.39 C1.24 0.93, 3.86 1.58, 4.25 1.19 C4.64 0.8, 2.85 -0.71, 2.71 -0.94" stroke="#5f3dc4" stroke-width="1" fill="none"></path></g><g stroke-linecap="round" transform="translate(213.69210630922134 66.3785350312728) rotate(0 4.207022158495647 4.569555668486828)"><path d="M-0.78 3.29 C-0.78 3.29, -0.78 3.29, -0.78 3.29 M-0.78 3.29 C-0.78 3.29, -0.78 3.29, -0.78 3.29 M1.82 6.85 C2.86 5.84, 3.76 4.32, 6 0.73 M1.46 6.71 C3.13 4.65, 4.53 2.86, 6.28 1.13 M4.07 9.36 C5.99 6.14, 9.25 4.5, 9.95 3.22 M4.78 9.28 C6.37 6.74, 8.57 4.81, 9.74 3.62 M0.88 6.61 C0.88 6.61, 0.88 6.61, 0.88 6.61 M0.88 6.61 C0.88 6.61, 0.88 6.61, 0.88 6.61 M7.47 6.21 C4.31 4.8, 3.48 3.09, 0.53 2.23 M7.56 6.59 C6.02 5.8, 4.15 4.17, 1.02 1.42 M9.37 3.2 C7.95 2.36, 6.98 1.81, 5.99 0.46 M8.97 3.11 C8.41 2.6, 7.53 1.9, 5.93 0.46" stroke="#7950f2" stroke-width="0.5" fill="none"></path><path d="M4.4 -0.41 C4.98 -0.4, 4.96 1.03, 5.71 1.54 C6.45 2.06, 8.58 1.75, 8.89 2.69 C9.19 3.64, 8.08 6.27, 7.54 7.22 C7 8.18, 6.24 8.22, 5.63 8.42 C5.03 8.62, 4.69 8.71, 3.93 8.43 C3.16 8.15, 1.81 7.59, 1.02 6.74 C0.23 5.89, -0.86 4.06, -0.8 3.31 C-0.74 2.56, 0.52 2.77, 1.36 2.24 C2.2 1.7, 3.38 0.31, 4.23 0.11 C5.09 -0.09, 6.46 0.94, 6.49 1.01 M6.33 -1.11 C7.26 -1, 7.31 0.44, 7.59 1.26 C7.86 2.07, 8.03 2.69, 7.99 3.78 C7.95 4.87, 7.91 6.71, 7.34 7.81 C6.78 8.91, 5.73 10.26, 4.6 10.41 C3.48 10.55, 1.53 9.54, 0.6 8.66 C-0.34 7.78, -0.87 6.18, -1.03 5.14 C-1.18 4.09, -1.02 2.98, -0.32 2.37 C0.38 1.76, 2.35 2.01, 3.15 1.48 C3.96 0.95, 4.15 -0.52, 4.49 -0.81 C4.82 -1.11, 5.21 -0.29, 5.14 -0.29" stroke="#5f3dc4" stroke-width="1" fill="none"></path></g><g stroke-linecap="round" transform="translate(184.6648440668605 32.72562847160134) rotate(0 3.7296939325749463 3.867855952340051)"><path d="M2.48 0.82 C3.22 0.66, 5.71 -0.39, 6.43 0.07 C7.14 0.53, 6.73 2.75, 6.77 3.6 C6.82 4.45, 6.81 4.64, 6.69 5.17 C6.58 5.69, 6.7 6.42, 6.1 6.74 C5.49 7.06, 4.09 7.33, 3.06 7.07 C2.04 6.81, 0.41 5.62, -0.07 5.19 C-0.54 4.75, 0.11 5.1, 0.22 4.45 C0.33 3.8, -0.19 1.92, 0.61 1.3 C1.41 0.68, 4.36 0.87, 5.01 0.71 C5.66 0.55, 4.58 0.48, 4.52 0.33 M3.36 -0.92 C3.92 -1.03, 4.89 -1.3, 5.62 -0.67 C6.34 -0.04, 7.44 1.58, 7.72 2.84 C8.01 4.11, 7.92 6.07, 7.33 6.92 C6.74 7.77, 5.14 7.91, 4.17 7.96 C3.2 8.01, 2.24 7.55, 1.5 7.22 C0.76 6.88, -0.08 6.38, -0.25 5.94 C-0.41 5.49, 0.45 5.53, 0.52 4.53 C0.58 3.54, -0.3 0.82, 0.15 -0.03 C0.59 -0.89, 2.84 -0.38, 3.19 -0.61 C3.54 -0.84, 2.21 -1.51, 2.24 -1.41" stroke="#fff" stroke-width="1" fill="none"></path></g><g stroke-linecap="round" transform="translate(184.38723862926054 64.94632348648247) rotate(0 3.7296939325749463 3.867855952340051)"><path d="M3.57 -0.47 C4.35 -0.68, 4.4 0.84, 4.92 1.28 C5.44 1.71, 6.2 1.63, 6.71 2.15 C7.22 2.68, 8.11 3.71, 7.98 4.44 C7.85 5.18, 6.85 6.19, 5.93 6.57 C5 6.95, 3.23 6.59, 2.44 6.71 C1.65 6.83, 1.67 7.72, 1.2 7.29 C0.72 6.86, -0.49 4.97, -0.4 4.13 C-0.3 3.28, 1.12 2.88, 1.76 2.21 C2.39 1.54, 2.88 0.55, 3.41 0.11 C3.95 -0.33, 4.94 -0.56, 4.97 -0.43 M1.73 -1.08 C2.49 -1.35, 4.11 -0.73, 5 -0.07 C5.89 0.59, 6.81 2.09, 7.05 2.88 C7.29 3.67, 6.75 4.11, 6.46 4.67 C6.17 5.23, 5.82 5.72, 5.29 6.23 C4.76 6.73, 3.8 7.37, 3.27 7.7 C2.74 8.04, 2.81 8.87, 2.12 8.23 C1.42 7.59, -0.56 4.96, -0.92 3.86 C-1.28 2.77, -0.33 2.49, -0.05 1.66 C0.24 0.83, 0.45 -0.83, 0.78 -1.11 C1.12 -1.38, 1.81 -0.07, 1.97 0.01" stroke="#fff" stroke-width="1" fill="none"></path></g><g stroke-linecap="round" transform="translate(199.42855573448924 50.696351753338604) rotate(0 3.7246862679369315 3.7725718007777687)"><path d="M4.63 1.13 C5.17 1.44, 6 1.33, 6.57 1.81 C7.14 2.29, 8.11 3.28, 8.05 4.02 C7.98 4.75, 7.06 5.79, 6.17 6.21 C5.29 6.64, 3.54 6.36, 2.74 6.55 C1.95 6.74, 1.93 7.72, 1.41 7.35 C0.9 6.98, -0.4 5.16, -0.37 4.34 C-0.34 3.52, 1.11 3.11, 1.58 2.43 C2.04 1.76, 1.67 0.72, 2.4 0.28 C3.14 -0.16, 5.48 -0.31, 5.98 -0.18 C6.47 -0.06, 5.66 0.92, 5.37 1.04 M2.94 -0.01 C3.76 0.17, 4.91 1.13, 5.43 1.55 C5.94 1.97, 5.89 2.08, 6.03 2.53 C6.17 2.98, 6.4 3.53, 6.25 4.24 C6.11 4.94, 5.54 6, 5.17 6.74 C4.81 7.49, 4.9 8.91, 4.06 8.71 C3.23 8.5, 0.89 6.35, 0.16 5.51 C-0.58 4.67, -0.19 4.54, -0.34 3.66 C-0.49 2.79, -1.21 0.92, -0.75 0.27 C-0.29 -0.39, 1.95 -0.04, 2.41 -0.26 C2.88 -0.48, 1.99 -1.05, 2.05 -1.07" stroke="#fff" stroke-width="1" fill="none"></path></g><g stroke-linecap="round" transform="translate(213.52515752017916 34.21851337772296) rotate(0 3.325364728417526 3.7725718007777687)"><path d="M1.93 -0.08 C2.78 -0.58, 4.6 -0.53, 5.36 -0.26 C6.12 0.01, 6.43 0.89, 6.5 1.55 C6.56 2.2, 5.91 2.67, 5.75 3.68 C5.58 4.69, 6.01 6.96, 5.5 7.62 C5 8.28, 3.29 7.69, 2.7 7.62 C2.12 7.55, 2.49 7.75, 2.01 7.19 C1.53 6.64, -0.06 5.3, -0.19 4.29 C-0.33 3.28, 0.64 1.75, 1.21 1.12 C1.78 0.49, 2.87 0.7, 3.21 0.52 C3.56 0.35, 3.38 0.14, 3.29 0.07 M2.05 1.71 C2.41 1.42, 2.56 0.7, 3.03 0.6 C3.49 0.5, 4.37 0.56, 4.84 1.11 C5.3 1.66, 5.58 2.83, 5.82 3.89 C6.06 4.95, 6.8 7.03, 6.28 7.46 C5.77 7.89, 3.58 6.64, 2.73 6.46 C1.88 6.27, 1.84 6.86, 1.19 6.35 C0.54 5.85, -0.98 4.19, -1.16 3.45 C-1.35 2.71, -0.33 2.64, 0.07 1.92 C0.46 1.2, 0.9 -0.49, 1.21 -0.88 C1.51 -1.26, 2 -0.64, 1.88 -0.39" stroke="#fff" stroke-width="1" fill="none"></path></g><g stroke-linecap="round" transform="translate(214.979576690449 67.08114221552842) rotate(0 2.94178474596697 3.7725718007777687)"><path d="M4.83 -0.26 C5.5 -0.04, 5.75 0.91, 5.78 1.57 C5.8 2.22, 5.14 2.69, 4.99 3.7 C4.84 4.71, 5.33 6.98, 4.88 7.63 C4.44 8.29, 2.83 7.7, 2.33 7.62 C1.83 7.55, 2.3 7.74, 1.88 7.18 C1.46 6.62, -0.07 5.28, -0.2 4.27 C-0.32 3.26, 0.78 1.71, 1.15 1.11 C1.53 0.5, 1.67 0.8, 2.05 0.67 C2.43 0.53, 3.13 0.35, 3.43 0.31 C3.73 0.26, 3.89 0.27, 3.86 0.39 M1.77 0.52 C2.13 0.16, 3.05 0.01, 3.58 0.4 C4.11 0.79, 4.56 1.84, 4.97 2.88 C5.38 3.91, 6.38 6.07, 6.06 6.62 C5.74 7.17, 3.78 6.15, 3.06 6.18 C2.33 6.21, 2.38 7.08, 1.73 6.77 C1.08 6.47, -0.52 5.01, -0.84 4.36 C-1.15 3.72, -0.36 3.68, -0.16 2.91 C0.04 2.13, -0.14 0.35, 0.36 -0.28 C0.86 -0.92, 2.69 -0.93, 2.85 -0.89 C3 -0.85, 1.42 -0.43, 1.31 -0.04" stroke="#fff" stroke-width="1" fill="none"></path></g><g transform="translate(10 181.6153233983223) rotate(0 50.979949951171875 25)"><text x="50.979949951171875" y="0" font-family="Virgil, Segoe UI Emoji" font-size="20px" fill="#087f5b" text-anchor="middle" style="white-space: pre;" direction="ltr" dominant-baseline="text-before-edge">Application</text><text x="50.979949951171875" y="25" font-family="Virgil, Segoe UI Emoji" font-size="20px" fill="#087f5b" text-anchor="middle" style="white-space: pre;" direction="ltr" dominant-baseline="text-before-edge">Engineer</text></g><g stroke-opacity="0.9" fill-opacity="0.9" stroke-linecap="round" transform="translate(168.0560756549039 106.53030585826855) rotate(0 26.539974486125857 33.62833480013751)"><path d="M16.17 1.52 L43.94 -0.19 L53.27 2.72 L50.51 12.91 L52.64 54.68 L54.25 63.6 L47.43 67.66 L36.15 64.67 L12.24 63.59 L1.88 60.85 L-0.81 54.9 L2.71 9.47 L8.02 5.66 L12.49 -0.51" stroke="none" stroke-width="0" fill="#fab005"></path><path d="M13.27 0 M13.27 0 C18.67 0.75, 28.59 2.26, 39.81 0 M13.27 0 C20.9 -1.02, 28.27 -2.01, 39.81 0 M39.81 0 C45.34 3.13, 50.1 2.15, 53.08 13.27 M39.81 0 C48.34 -2.64, 52.37 4.91, 53.08 13.27 M53.08 13.27 C51.73 20.84, 50.34 35.01, 53.08 53.99 M53.08 13.27 C52.46 21.79, 53.97 31.02, 53.08 53.99 M53.08 53.99 C56.72 59.98, 48.21 63.27, 39.81 67.26 M53.08 53.99 C51.01 58.77, 45.06 70.68, 39.81 67.26 M39.81 67.26 C32.66 68.6, 24.67 70.23, 13.27 67.26 M39.81 67.26 C31.39 68.43, 20.48 68, 13.27 67.26 M13.27 67.26 C6.68 67.45, -2.5 66.38, 0 53.99 M13.27 67.26 C5.82 64.06, 0.65 62.45, 0 53.99 M0 53.99 C-2.22 44.8, 1.24 38.1, 0 13.27 M0 53.99 C1.76 44.09, 1.49 36.23, 0 13.27 M0 13.27 C-1.66 6.82, 4.34 -1.55, 13.27 0 M0 13.27 C4.06 1.81, 5.86 4.07, 13.27 0" stroke="#000000" stroke-width="1" fill="none"></path></g><g stroke-opacity="0.9" fill-opacity="0.9" transform="translate(175.59224941749744 127.51641012525488) rotate(0 18.61998748779297 12.5)"><text x="18.61998748779297" y="0" font-family="Virgil, Segoe UI Emoji" font-size="20px" fill="#000000" text-anchor="middle" style="white-space: pre;" direction="ltr" dominant-baseline="text-before-edge">API</text></g><g stroke-linecap="round" transform="translate(152.40168102579264 78.19277698276983) rotate(0 18.5 21)"><path d="M10.97 1.74 C14.46 -0.25, 19.67 0.18, 23.5 1.18 C27.33 2.17, 31.53 4.15, 33.94 7.71 C36.35 11.27, 38.25 17.88, 37.96 22.55 C37.68 27.21, 35.1 32.62, 32.22 35.73 C29.33 38.84, 24.71 40.7, 20.65 41.19 C16.59 41.68, 11.28 41.01, 7.87 38.67 C4.46 36.34, 1.27 31.41, 0.18 27.19 C-0.91 22.98, -1.06 17.71, 1.32 13.39 C3.69 9.06, 11.68 3.36, 14.45 1.27 C17.22 -0.83, 17.73 0.53, 17.91 0.8 M24.18 1.66 C27.58 2.26, 30.83 4.92, 32.85 8.47 C34.87 12.02, 36.2 18.68, 36.28 22.98 C36.36 27.29, 35.88 31, 33.34 34.3 C30.79 37.6, 24.92 42.15, 21 42.79 C17.07 43.44, 13.23 40.53, 9.78 38.16 C6.33 35.79, 1.91 32.9, 0.31 28.57 C-1.29 24.23, -1.48 16.55, 0.2 12.14 C1.89 7.73, 6.45 3.82, 10.41 2.13 C14.37 0.44, 21.83 1.97, 23.96 2 C26.09 2.04, 23.38 2.11, 23.18 2.36" stroke="none" stroke-width="0" fill="#f08c00"></path><path d="M17.84 -0.46 C21.72 -0.94, 27.67 1.23, 30.94 4.29 C34.22 7.35, 36.98 13.52, 37.49 17.91 C37.99 22.31, 35.97 26.86, 33.97 30.66 C31.98 34.46, 29.04 38.95, 25.53 40.73 C22.02 42.51, 16.7 42.82, 12.92 41.35 C9.15 39.87, 4.9 35.8, 2.88 31.89 C0.87 27.98, 0.11 22.53, 0.84 17.9 C1.57 13.27, 4.08 7.19, 7.24 4.11 C10.39 1.03, 17.4 -0.02, 19.77 -0.59 C22.15 -1.15, 21.53 0.22, 21.49 0.73 M20.89 0.58 C24.45 1.1, 28.07 4.12, 30.97 7.47 C33.86 10.82, 38.12 16.23, 38.29 20.68 C38.46 25.13, 34.72 30.6, 32.01 34.16 C29.3 37.71, 25.75 40.92, 22.05 42.02 C18.35 43.11, 13.34 42.98, 9.8 40.71 C6.26 38.45, 2.35 32.58, 0.82 28.42 C-0.7 24.26, -0.88 19.96, 0.63 15.76 C2.15 11.57, 6.69 5.66, 9.92 3.23 C13.14 0.79, 18.08 1.59, 19.97 1.17 C21.86 0.75, 21.15 0.74, 21.25 0.73" stroke="#000000" stroke-width="1" fill="none"></path></g><g transform="translate(168.65220630626345 89.34353457785255) rotate(0 2.167999267578125 10)"><text x="2.167999267578125" y="0" font-family="Virgil, Segoe UI Emoji" font-size="16px" fill="#000000" text-anchor="middle" style="white-space: pre;" direction="ltr" dominant-baseline="text-before-edge">1</text></g><g stroke-linecap="round" transform="translate(259.66389440983994 76.69992378171355) rotate(0 18.5 21)"><path d="M25.66 1.95 C29.17 3.26, 32.2 7.17, 34.12 11.15 C36.04 15.13, 37.75 21.32, 37.18 25.85 C36.61 30.37, 34.07 35.73, 30.69 38.28 C27.31 40.84, 21.11 41.33, 16.89 41.18 C12.67 41.03, 8.2 40.44, 5.37 37.4 C2.53 34.36, 0.39 27.72, -0.12 22.94 C-0.63 18.16, 0.14 12.24, 2.28 8.74 C4.42 5.23, 8.3 2.63, 12.71 1.91 C17.13 1.19, 25.48 3.29, 28.78 4.44 C32.08 5.58, 32.4 8.65, 32.51 8.8 M17.29 1.3 C21.02 0.2, 25.92 0.36, 28.82 2.39 C31.73 4.42, 33.7 9.19, 34.71 13.48 C35.73 17.77, 35.95 23.96, 34.93 28.1 C33.91 32.24, 32.09 36.07, 28.6 38.31 C25.11 40.55, 18.22 42.39, 13.98 41.53 C9.73 40.67, 5.25 36.79, 3.13 33.13 C1.02 29.46, 0.81 23.92, 1.29 19.55 C1.76 15.18, 3.65 9.89, 5.97 6.9 C8.3 3.92, 13.76 2.56, 15.23 1.64 C16.71 0.71, 14.62 1.08, 14.82 1.38" stroke="none" stroke-width="0" fill="#f08c00"></path><path d="M10.61 1.27 C13.76 -0.89, 19.36 -0.73, 23.24 0.5 C27.12 1.72, 31.62 4.67, 33.9 8.61 C36.18 12.55, 37.35 19.63, 36.9 24.14 C36.46 28.65, 34.1 32.71, 31.22 35.67 C28.33 38.62, 23.66 41.41, 19.61 41.87 C15.55 42.33, 10.18 41.02, 6.88 38.41 C3.58 35.8, 0.64 30.51, -0.17 26.21 C-0.98 21.91, 0.05 16.75, 2.01 12.63 C3.98 8.5, 9.95 3.48, 11.61 1.46 C13.28 -0.56, 11.7 0.2, 12 0.52 M23.33 0.84 C26.9 1.77, 31.25 4.7, 33.45 8.51 C35.64 12.31, 36.7 18.97, 36.48 23.66 C36.27 28.34, 35.2 33.46, 32.14 36.61 C29.09 39.76, 22.34 42.65, 18.14 42.58 C13.94 42.5, 9.84 38.8, 6.96 36.17 C4.08 33.53, 1.8 30.91, 0.85 26.77 C-0.1 22.63, -0.58 15.64, 1.24 11.32 C3.05 7.01, 8.01 2.73, 11.76 0.86 C15.5 -1.02, 21.58 -0.12, 23.7 0.08 C25.82 0.28, 24.63 1.43, 24.47 2.07" stroke="#000000" stroke-width="1" fill="none"></path></g><g transform="translate(272.38641981238106 87.85068137679627) rotate(0 5.6959991455078125 10)"><text x="5.6959991455078125" y="0" font-family="Virgil, Segoe UI Emoji" font-size="16px" fill="#000000" text-anchor="middle" style="white-space: pre;" direction="ltr" dominant-baseline="text-before-edge">2</text></g><g stroke-linecap="round" transform="translate(468.9407637222912 188.4164906931228) rotate(0 18.5 21)"><path d="M12.45 1.58 C16.08 0.05, 22.69 0.52, 26.57 2.07 C30.45 3.62, 34 6.96, 35.72 10.89 C37.44 14.82, 37.85 21.33, 36.91 25.66 C35.96 29.99, 33.31 34.07, 30.07 36.89 C26.83 39.72, 21.44 42.52, 17.47 42.6 C13.5 42.68, 9.03 40.67, 6.24 37.39 C3.45 34.11, 1.44 27.63, 0.76 22.91 C0.07 18.19, -0.35 12.84, 2.12 9.05 C4.6 5.27, 13.34 1.7, 15.59 0.18 C17.84 -1.34, 15.88 -0.42, 15.63 -0.07 M26.46 2.95 C30.37 4.47, 35.21 7.8, 36.76 11.9 C38.31 16, 37.03 22.83, 35.74 27.53 C34.46 32.23, 32.11 37.63, 29.04 40.11 C25.96 42.6, 21.43 43.49, 17.29 42.46 C13.15 41.44, 7.25 37.48, 4.22 33.96 C1.19 30.43, -0.69 25.35, -0.87 21.3 C-1.06 17.25, 0.76 13.24, 3.11 9.65 C5.45 6.05, 9.23 1.1, 13.2 -0.27 C17.16 -1.63, 24.78 0.73, 26.88 1.44 C28.99 2.14, 26.12 3.28, 25.84 3.96" stroke="none" stroke-width="0" fill="#f08c00"></path><path d="M14.36 1.4 C17.92 0.17, 23.23 -0.56, 26.62 1.46 C30 3.48, 32.96 9.32, 34.69 13.53 C36.41 17.74, 38.08 22.6, 36.97 26.72 C35.87 30.83, 31.57 35.68, 28.07 38.2 C24.56 40.73, 19.9 42.37, 15.94 41.89 C11.98 41.41, 6.8 38.66, 4.3 35.35 C1.8 32.04, 1.1 26.53, 0.93 22.02 C0.75 17.5, 0.82 11.98, 3.24 8.23 C5.66 4.49, 13.12 0.96, 15.45 -0.44 C17.78 -1.85, 17.14 -0.69, 17.23 -0.2 M24.95 0.61 C28.74 2.16, 34.46 7.91, 36.52 12.19 C38.58 16.47, 38.63 22.07, 37.29 26.28 C35.96 30.48, 31.92 34.93, 28.5 37.43 C25.07 39.92, 20.8 41.56, 16.75 41.24 C12.7 40.92, 6.98 38.38, 4.18 35.5 C1.38 32.63, 0.07 28.63, -0.05 24.02 C-0.18 19.4, 1.05 11.76, 3.44 7.83 C5.83 3.91, 10.73 1.38, 14.3 0.47 C17.86 -0.44, 22.65 2.22, 24.84 2.38 C27.03 2.55, 27.29 1.17, 27.42 1.47" stroke="#000000" stroke-width="1" fill="none"></path></g><g transform="translate(481.91129022346513 199.56724828820552) rotate(0 5.447998046875 10)"><text x="5.447998046875" y="0" font-family="Virgil, Segoe UI Emoji" font-size="16px" fill="#000000" text-anchor="middle" style="white-space: pre;" direction="ltr" dominant-baseline="text-before-edge">3</text></g><g stroke-linecap="round" transform="translate(398.337249349122 244.7074522185194) rotate(0 18.5 21)"><path d="M10.81 1.56 C14 -0.71, 19.06 -1.52, 22.74 -0.34 C26.43 0.85, 30.6 4.9, 32.93 8.67 C35.26 12.43, 37.06 17.85, 36.73 22.26 C36.4 26.66, 33.64 31.75, 30.97 35.1 C28.31 38.45, 24.69 41.87, 20.74 42.33 C16.79 42.8, 10.48 40.56, 7.28 37.9 C4.08 35.25, 2.34 30.76, 1.54 26.4 C0.74 22.05, 0.95 16.08, 2.5 11.79 C4.04 7.5, 8.9 2.56, 10.81 0.68 C12.71 -1.21, 13.54 0.18, 13.92 0.5 M17.28 1.43 C20.94 0.88, 25.95 1.94, 29.08 4.06 C32.21 6.17, 35.19 9.98, 36.04 14.13 C36.9 18.27, 35.86 24.48, 34.2 28.91 C32.54 33.34, 29.48 38.85, 26.09 40.7 C22.7 42.56, 17.52 41.07, 13.84 40.04 C10.17 39.01, 6.15 37.98, 4.04 34.54 C1.92 31.1, 0.84 23.95, 1.15 19.4 C1.46 14.85, 3.33 10.28, 5.91 7.26 C8.5 4.23, 15.02 2.45, 16.68 1.22 C18.34 0, 15.93 -0.36, 15.86 -0.09" stroke="none" stroke-width="0" fill="#f08c00"></path><path d="M23.63 0.61 C27.46 1.53, 32.51 6, 34.81 9.92 C37.11 13.83, 38.24 19.49, 37.44 24.07 C36.64 28.66, 33.19 34.53, 30 37.45 C26.8 40.37, 21.92 41.41, 18.28 41.57 C14.63 41.72, 11.19 41.16, 8.15 38.38 C5.1 35.61, 1 29.52, 0.01 24.92 C-0.99 20.32, 0.1 14.77, 2.18 10.79 C4.25 6.81, 8.25 2.36, 12.47 1.02 C16.68 -0.31, 24.47 2.17, 27.46 2.76 C30.45 3.35, 30.69 4.22, 30.43 4.57 M12.86 2.32 C16.42 0.69, 20.19 0.94, 23.75 2.1 C27.3 3.26, 31.9 5.62, 34.17 9.29 C36.45 12.97, 37.92 19.59, 37.41 24.15 C36.9 28.71, 34 33.73, 31.13 36.62 C28.26 39.51, 24.21 41.48, 20.18 41.48 C16.16 41.49, 10.32 39.5, 6.98 36.65 C3.64 33.8, 0.72 28.52, 0.15 24.4 C-0.42 20.29, 1.73 15.55, 3.56 11.94 C5.39 8.34, 9.99 4.44, 11.12 2.78 C12.25 1.11, 10.14 1.86, 10.32 1.97" stroke="#000000" stroke-width="1" fill="none"></path></g><g transform="translate(411.6357787799834 255.85820981360212) rotate(0 5.1199951171875 10)"><text x="5.1199951171875" y="0" font-family="Virgil, Segoe UI Emoji" font-size="16px" fill="#000000" text-anchor="middle" style="white-space: pre;" direction="ltr" dominant-baseline="text-before-edge">4</text></g>
</svg>
