<svg version="1.1" xmlns="http://www.w3.org/2000/svg" viewBox="0 0 721.1914881106222 448.6635465268155" width="721.1914881106222" height="448.6635465268155">
  <!-- svg-source:excalidraw -->
  
  <defs>
    <style class="style-fonts">
      @font-face {
        font-family: "Virgil";
        src: url("https://excalidraw.com/Virgil.woff2");
      }
      @font-face {
        font-family: "Cascadia";
        src: url("https://excalidraw.com/Cascadia.woff2");
      }
    </style>
  </defs>
  <rect x="0" y="0" width="721.1914881106222" height="448.6635465268155" fill="#ffffff"></rect><g stroke-linecap="round" transform="translate(39.015279381033906 159.62144851112316) rotate(0 16.853622272392386 16.774315349240624)"><path d="M3.9 6.04 C3.9 6.04, 3.9 6.04, 3.9 6.04 M3.9 6.04 C3.9 6.04, 3.9 6.04, 3.9 6.04 M1.67 14.7 C5.6 10.18, 9.54 5.65, 14.14 0.36 M1.67 14.7 C6.04 9.67, 10.41 4.65, 14.14 0.36 M1.41 21.1 C4.97 17, 8.53 12.91, 18.47 1.48 M1.41 21.1 C8.04 13.48, 14.67 5.85, 18.47 1.48 M2.46 25.99 C9.1 18.35, 15.74 10.72, 23.45 1.84 M2.46 25.99 C10.42 16.84, 18.37 7.69, 23.45 1.84 M5.48 28.61 C10.95 22.32, 16.42 16.02, 27.13 3.71 M5.48 28.61 C11.47 21.73, 17.45 14.84, 27.13 3.71 M8.5 31.24 C13.49 25.5, 18.48 19.76, 30.15 6.33 M8.5 31.24 C15.6 23.07, 22.7 14.89, 30.15 6.33 M12.17 33.11 C19.4 24.79, 26.64 16.47, 32.51 9.71 M12.17 33.11 C16.76 27.83, 21.34 22.56, 32.51 9.71 M17.16 33.47 C20.85 29.22, 24.54 24.97, 33.56 14.6 M17.16 33.47 C23.04 26.7, 28.92 19.94, 33.56 14.6 M22.8 33.07 C25.3 30.2, 27.79 27.33, 33.96 20.24 M22.8 33.07 C26.91 28.35, 31.02 23.62, 33.96 20.24" stroke="#12b886" stroke-width="0.5" fill="none"></path><path d="M33.71 16.77 C33.71 17.75, 33.62 18.73, 33.45 19.69 C33.28 20.64, 33.02 21.6, 32.69 22.51 C32.36 23.42, 31.94 24.32, 31.45 25.16 C30.96 26, 30.39 26.81, 29.76 27.56 C29.14 28.3, 28.43 29, 27.69 29.62 C26.94 30.25, 26.13 30.82, 25.28 31.3 C24.44 31.79, 23.53 32.2, 22.62 32.54 C21.7 32.87, 20.74 33.13, 19.78 33.29 C18.82 33.46, 17.83 33.55, 16.85 33.55 C15.88 33.55, 14.89 33.46, 13.93 33.29 C12.97 33.13, 12.01 32.87, 11.09 32.54 C10.17 32.2, 9.27 31.79, 8.43 31.3 C7.58 30.82, 6.77 30.25, 6.02 29.62 C5.27 29, 4.57 28.3, 3.94 27.56 C3.32 26.81, 2.75 26, 2.26 25.16 C1.77 24.32, 1.35 23.42, 1.02 22.51 C0.68 21.6, 0.43 20.64, 0.26 19.69 C0.09 18.73, 0 17.75, 0 16.77 C0 15.8, 0.09 14.82, 0.26 13.86 C0.43 12.91, 0.68 11.95, 1.02 11.04 C1.35 10.12, 1.77 9.23, 2.26 8.39 C2.75 7.55, 3.32 6.74, 3.94 5.99 C4.57 5.25, 5.27 4.55, 6.02 3.92 C6.77 3.3, 7.58 2.73, 8.43 2.25 C9.27 1.76, 10.17 1.34, 11.09 1.01 C12.01 0.68, 12.97 0.42, 13.93 0.25 C14.89 0.09, 15.88 0, 16.85 0 C17.83 0, 18.82 0.09, 19.78 0.25 C20.74 0.42, 21.7 0.68, 22.62 1.01 C23.53 1.34, 24.44 1.76, 25.28 2.25 C26.13 2.73, 26.94 3.3, 27.69 3.92 C28.43 4.55, 29.14 5.25, 29.76 5.99 C30.39 6.74, 30.96 7.55, 31.45 8.39 C31.94 9.23, 32.36 10.12, 32.69 11.04 C33.02 11.95, 33.28 12.91, 33.45 13.86 C33.62 14.82, 33.66 16.29, 33.71 16.77 C33.75 17.26, 33.75 16.29, 33.71 16.77" stroke="#495057" stroke-width="1" fill="none"></path></g><g stroke-linecap="round"><g transform="translate(55.789594730275894 193.1700792096035) rotate(0 0 23.504750520231937)" fill-rule="evenodd"><path d="M-10.96 -0.25 C-10.96 -0.25, -10.96 -0.25, -10.96 -0.25 M-10.96 -0.25 C-10.96 -0.25, -10.96 -0.25, -10.96 -0.25 M-15.82 11.43 C-12.46 7.57, -9.11 3.71, -4.01 -2.16 M-15.82 11.43 C-13.29 8.52, -10.76 5.6, -4.01 -2.16 M-20.01 22.35 C-15.47 17.12, -10.92 11.89, -0.33 -0.29 M-20.01 22.35 C-12.58 13.8, -5.15 5.25, -0.33 -0.29 M-22.24 31.01 C-16.44 24.34, -10.63 17.66, 5.97 -1.44 M-22.24 31.01 C-14.22 21.78, -6.2 12.55, 5.97 -1.44 M-21.85 36.66 C-10.02 23.05, 1.81 9.45, 10.95 -1.08 M-21.85 36.66 C-12.92 26.39, -4 16.12, 10.95 -1.08 M-21.45 42.3 C-8.27 27.13, 4.92 11.96, 13.32 2.3 M-21.45 42.3 C-11.51 30.86, -1.56 19.41, 13.32 2.3 M-19.75 46.43 C-10.22 35.47, -0.69 24.51, 15.02 6.43 M-19.75 46.43 C-8.19 33.14, 3.37 19.84, 15.02 6.43 M-16.73 49.06 C-7.27 38.18, 2.18 27.3, 16.73 10.57 M-16.73 49.06 C-9.01 40.18, -1.3 31.31, 16.73 10.57 M-12.4 50.17 C-4.24 40.79, 3.92 31.4, 18.44 14.7 M-12.4 50.17 C-4.16 40.69, 4.09 31.21, 18.44 14.7 M-7.41 50.53 C3.58 37.89, 14.58 25.24, 20.14 18.84 M-7.41 50.53 C2.21 39.46, 11.83 28.39, 20.14 18.84 M-2.42 50.89 C6.56 40.56, 15.53 30.23, 21.19 23.72 M-2.42 50.89 C3.62 43.94, 9.67 36.98, 21.19 23.72 M1.91 52.01 C8.54 44.38, 15.17 36.75, 22.9 27.86 M1.91 52.01 C10.18 42.5, 18.44 32.99, 22.9 27.86 M7.55 51.61 C12.85 45.52, 18.15 39.42, 23.95 32.75 M7.55 51.61 C11.62 46.93, 15.69 42.25, 23.95 32.75 M14.51 49.71 C17.02 46.81, 19.54 43.92, 25.66 36.88 M14.51 49.71 C18.26 45.39, 22.01 41.07, 25.66 36.88" stroke="#12b886" stroke-width="0.5" fill="none"></path><path d="M0 0 C1.86 0, 7.46 -7.46, 11.18 0 C14.91 7.46, 27.96 37.28, 22.37 44.73 C16.77 52.19, -16.77 52.19, -22.37 44.73 C-27.96 37.28, -14.91 7.46, -11.18 0 C-7.46 -7.46, -1.86 0, 0 0 M0 0 C1.86 0, 7.46 -7.46, 11.18 0 C14.91 7.46, 27.96 37.28, 22.37 44.73 C16.77 52.19, -16.77 52.19, -22.37 44.73 C-27.96 37.28, -14.91 7.46, -11.18 0 C-7.46 -7.46, -1.86 0, 0 0" stroke="#495057" stroke-width="1" fill="none"></path></g></g><mask></mask><g transform="translate(10 251.1843550890926) rotate(0 44.22447612424003 21.687194075810112)"><text x="44.22447612424003" y="0" font-family="Virgil, Segoe UI Emoji" font-size="17.349755260648244px" fill="#087f5b" text-anchor="middle" style="white-space: pre;" direction="ltr" dominant-baseline="text-before-edge">Application</text><text x="44.22447612424003" y="21.687194075810304" font-family="Virgil, Segoe UI Emoji" font-size="17.349755260648244px" fill="#087f5b" text-anchor="middle" style="white-space: pre;" direction="ltr" dominant-baseline="text-before-edge">Engineer</text></g><g mask="url(#mask-tjSDiYhw4KNNGiCR8aIJr)" stroke-linecap="round"><g transform="translate(105.52223597540979 238.31783096486652) rotate(0 116.7008468182421 2.6394030252595257)"><path d="M0 0 C38.9 0.88, 194.5 4.4, 233.4 5.28 M0 0 C38.9 0.88, 194.5 4.4, 233.4 5.28" stroke="#000000" stroke-width="1" fill="none"></path></g><g transform="translate(105.52223597540979 238.31783096486652) rotate(0 116.7008468182421 2.6394030252595257)"><path d="M233.4 5.28 L219.67 11.31 L219.95 -1.37 L233.4 5.28" stroke="none" stroke-width="0" fill="#000000" fill-rule="evenodd"></path><path d="M233.4 5.28 C229.25 7.1, 225.1 8.92, 219.67 11.31 M233.4 5.28 C230.39 6.6, 227.38 7.92, 219.67 11.31 M219.67 11.31 C219.73 8.47, 219.8 5.64, 219.95 -1.37 M219.67 11.31 C219.74 7.9, 219.82 4.48, 219.95 -1.37 M219.95 -1.37 C223.42 0.35, 226.89 2.06, 233.4 5.28 M219.95 -1.37 C222.91 0.1, 225.87 1.56, 233.4 5.28 M233.4 5.28 C233.4 5.28, 233.4 5.28, 233.4 5.28 M233.4 5.28 C233.4 5.28, 233.4 5.28, 233.4 5.28" stroke="#000000" stroke-width="1" fill="none"></path></g></g><mask id="mask-tjSDiYhw4KNNGiCR8aIJr"><rect x="0" y="0" fill="#fff" width="438.923929611894" height="343.59663701538557"></rect><rect x="155.2871239313472" y="230.95723399012604" fill="#000" width="133.87191772460938" height="20" opacity="1"></rect></mask><g transform="translate(155.2871239313472 230.95723399012604) rotate(0 66.93595886230469 10)"><text x="66.93595886230469" y="0" font-family="Virgil, Segoe UI Emoji" font-size="16px" fill="#000000" text-anchor="middle" style="white-space: pre;" direction="ltr" dominant-baseline="text-before-edge">Resource definition</text></g><g stroke-linecap="round"><g transform="translate(351.39170972687134 71.89919399605424) rotate(0 -0.5649026250716815 167.9349989240336)"><path d="M0 0 C-0.19 55.98, -0.94 279.89, -1.13 335.87 M0 0 C-0.19 55.98, -0.94 279.89, -1.13 335.87" stroke="#000000" stroke-width="1" fill="none"></path></g></g><mask></mask><g stroke-linecap="round" transform="translate(633.0215677440428 19.977069595843204) rotate(358.92972393214535 3.7680364110324263 19.555950473086796)"><path d="M1.88 0 L5.65 0 L7.07 0.47 L7.54 1.88 L7.54 37.23 L7.07 38.64 L5.65 39.11 L0.47 38.64 L0 37.23 L0 1.88 L0.47 0.47 L1.88 0" stroke="none" stroke-width="0" fill="#7950f2"></path><path d="M1.88 0 M1.88 0 C3.14 0, 4.4 0, 5.65 0 M1.88 0 C3.37 0, 4.86 0, 5.65 0 M5.65 0 C6.91 0, 7.54 0.63, 7.54 1.88 M5.65 0 C6.91 0, 7.54 0.63, 7.54 1.88 M7.54 1.88 C7.54 14.9, 7.54 27.91, 7.54 37.23 M7.54 1.88 C7.54 10.45, 7.54 19.02, 7.54 37.23 M7.54 37.23 C7.54 38.48, 6.91 39.11, 5.65 39.11 M7.54 37.23 C7.54 38.48, 6.91 39.11, 5.65 39.11 M5.65 39.11 C4.86 39.11, 4.06 39.11, 1.88 39.11 M5.65 39.11 C4.79 39.11, 3.93 39.11, 1.88 39.11 M1.88 39.11 C0.63 39.11, 0 38.48, 0 37.23 M1.88 39.11 C0.63 39.11, 0 38.48, 0 37.23 M0 37.23 C0 29.24, 0 21.24, 0 1.88 M0 37.23 C0 26.62, 0 16.02, 0 1.88 M0 1.88 C0 0.63, 0.63 0, 1.88 0 M0 1.88 C0 0.63, 0.63 0, 1.88 0" stroke="transparent" stroke-width="1" fill="none"></path></g><g stroke-linecap="round" transform="translate(647.0582071773279 14.982056672452018) rotate(40.41727686562419 3.7680364110324263 24.785791502693428)"><path d="M1.88 0 L5.65 0 L7.07 0.47 L7.54 1.88 L7.54 47.69 L7.07 49.1 L5.65 49.57 L0.47 49.1 L0 47.69 L0 1.88 L0.47 0.47 L1.88 0" stroke="none" stroke-width="0" fill="#7950f2"></path><path d="M1.88 0 M1.88 0 C2.73 0, 3.57 0, 5.65 0 M1.88 0 C2.88 0, 3.87 0, 5.65 0 M5.65 0 C6.91 0, 7.54 0.63, 7.54 1.88 M5.65 0 C6.91 0, 7.54 0.63, 7.54 1.88 M7.54 1.88 C7.54 16.6, 7.54 31.31, 7.54 47.69 M7.54 1.88 C7.54 16.33, 7.54 30.77, 7.54 47.69 M7.54 47.69 C7.54 48.94, 6.91 49.57, 5.65 49.57 M7.54 47.69 C7.54 48.94, 6.91 49.57, 5.65 49.57 M5.65 49.57 C4.26 49.57, 2.88 49.57, 1.88 49.57 M5.65 49.57 C4.29 49.57, 2.93 49.57, 1.88 49.57 M1.88 49.57 C0.63 49.57, 0 48.94, 0 47.69 M1.88 49.57 C0.63 49.57, 0 48.94, 0 47.69 M0 47.69 C0 34.18, 0 20.68, 0 1.88 M0 47.69 C0 29.76, 0 11.83, 0 1.88 M0 1.88 C0 0.63, 0.63 0, 1.88 0 M0 1.88 C0 0.63, 0.63 0, 1.88 0" stroke="transparent" stroke-width="1" fill="none"></path></g><g stroke-linecap="round" transform="translate(655.7007314421826 33.53707268045764) rotate(139.22073182693399 3.7680364110324263 14.147647249566944)"><path d="M1.88 0 L5.65 0 L7.07 0.47 L7.54 1.88 L7.54 26.41 L7.07 27.82 L5.65 28.3 L0.47 27.82 L0 26.41 L0 1.88 L0.47 0.47 L1.88 0" stroke="none" stroke-width="0" fill="#7950f2"></path><path d="M1.88 0 M1.88 0 C3.18 0, 4.47 0, 5.65 0 M1.88 0 C3.03 0, 4.18 0, 5.65 0 M5.65 0 C6.91 0, 7.54 0.63, 7.54 1.88 M5.65 0 C6.91 0, 7.54 0.63, 7.54 1.88 M7.54 1.88 C7.54 7.57, 7.54 13.26, 7.54 26.41 M7.54 1.88 C7.54 7.46, 7.54 13.03, 7.54 26.41 M7.54 26.41 C7.54 27.67, 6.91 28.3, 5.65 28.3 M7.54 26.41 C7.54 27.67, 6.91 28.3, 5.65 28.3 M5.65 28.3 C4.72 28.3, 3.78 28.3, 1.88 28.3 M5.65 28.3 C4.17 28.3, 2.68 28.3, 1.88 28.3 M1.88 28.3 C0.63 28.3, 0 27.67, 0 26.41 M1.88 28.3 C0.63 28.3, 0 27.67, 0 26.41 M0 26.41 C0 17.56, 0 8.71, 0 1.88 M0 26.41 C0 21.06, 0 15.7, 0 1.88 M0 1.88 C0 0.63, 0.63 0, 1.88 0 M0 1.88 C0 0.63, 0.63 0, 1.88 0" stroke="transparent" stroke-width="1" fill="none"></path></g><g stroke-linecap="round" transform="translate(632.1542228909675 18.02254869251192) rotate(358.1310915065084 4.2070221584958745 4.569555668486828)"><path d="M8.41 4.57 C8.41 4.83, 8.39 5.1, 8.35 5.36 C8.31 5.62, 8.24 5.88, 8.16 6.13 C8.08 6.38, 7.97 6.63, 7.85 6.85 C7.73 7.08, 7.59 7.3, 7.43 7.51 C7.27 7.71, 7.1 7.9, 6.91 8.07 C6.72 8.24, 6.52 8.39, 6.31 8.53 C6.1 8.66, 5.87 8.77, 5.65 8.86 C5.42 8.95, 5.18 9.02, 4.94 9.07 C4.7 9.12, 4.45 9.14, 4.21 9.14 C3.96 9.14, 3.72 9.12, 3.48 9.07 C3.24 9.02, 3 8.95, 2.77 8.86 C2.54 8.77, 2.31 8.66, 2.1 8.53 C1.89 8.39, 1.69 8.24, 1.5 8.07 C1.32 7.9, 1.14 7.71, 0.98 7.51 C0.83 7.3, 0.69 7.08, 0.56 6.85 C0.44 6.63, 0.34 6.38, 0.25 6.13 C0.17 5.88, 0.11 5.62, 0.06 5.36 C0.02 5.1, 0 4.83, 0 4.57 C0 4.31, 0.02 4.04, 0.06 3.78 C0.11 3.52, 0.17 3.26, 0.25 3.01 C0.34 2.76, 0.44 2.51, 0.56 2.28 C0.69 2.06, 0.83 1.83, 0.98 1.63 C1.14 1.43, 1.32 1.24, 1.5 1.07 C1.69 0.9, 1.89 0.74, 2.1 0.61 C2.31 0.48, 2.54 0.37, 2.77 0.28 C3 0.19, 3.24 0.12, 3.48 0.07 C3.72 0.02, 3.96 0, 4.21 0 C4.45 0, 4.7 0.02, 4.94 0.07 C5.18 0.12, 5.42 0.19, 5.65 0.28 C5.87 0.37, 6.1 0.48, 6.31 0.61 C6.52 0.74, 6.72 0.9, 6.91 1.07 C7.1 1.24, 7.27 1.43, 7.43 1.63 C7.59 1.83, 7.73 2.06, 7.85 2.28 C7.97 2.51, 8.08 2.76, 8.16 3.01 C8.24 3.26, 8.31 3.52, 8.35 3.78 C8.39 4.04, 8.4 4.44, 8.41 4.57 C8.42 4.7, 8.42 4.44, 8.41 4.57" stroke="none" stroke-width="0" fill="#7950f2"></path><path d="M8.41 4.57 C8.41 4.83, 8.39 5.1, 8.35 5.36 C8.31 5.62, 8.24 5.88, 8.16 6.13 C8.08 6.38, 7.97 6.63, 7.85 6.85 C7.73 7.08, 7.59 7.3, 7.43 7.51 C7.27 7.71, 7.1 7.9, 6.91 8.07 C6.72 8.24, 6.52 8.39, 6.31 8.53 C6.1 8.66, 5.87 8.77, 5.65 8.86 C5.42 8.95, 5.18 9.02, 4.94 9.07 C4.7 9.12, 4.45 9.14, 4.21 9.14 C3.96 9.14, 3.72 9.12, 3.48 9.07 C3.24 9.02, 3 8.95, 2.77 8.86 C2.54 8.77, 2.31 8.66, 2.1 8.53 C1.89 8.39, 1.69 8.24, 1.5 8.07 C1.32 7.9, 1.14 7.71, 0.98 7.51 C0.83 7.3, 0.69 7.08, 0.56 6.85 C0.44 6.63, 0.34 6.38, 0.25 6.13 C0.17 5.88, 0.11 5.62, 0.06 5.36 C0.02 5.1, 0 4.83, 0 4.57 C0 4.31, 0.02 4.04, 0.06 3.78 C0.11 3.52, 0.17 3.26, 0.25 3.01 C0.34 2.76, 0.44 2.51, 0.56 2.28 C0.69 2.06, 0.83 1.83, 0.98 1.63 C1.14 1.43, 1.32 1.24, 1.5 1.07 C1.69 0.9, 1.89 0.74, 2.1 0.61 C2.31 0.48, 2.54 0.37, 2.77 0.28 C3 0.19, 3.24 0.12, 3.48 0.07 C3.72 0.02, 3.96 0, 4.21 0 C4.45 0, 4.7 0.02, 4.94 0.07 C5.18 0.12, 5.42 0.19, 5.65 0.28 C5.87 0.37, 6.1 0.48, 6.31 0.61 C6.52 0.74, 6.72 0.9, 6.91 1.07 C7.1 1.24, 7.27 1.43, 7.43 1.63 C7.59 1.83, 7.73 2.06, 7.85 2.28 C7.97 2.51, 8.08 2.76, 8.16 3.01 C8.24 3.26, 8.31 3.52, 8.35 3.78 C8.39 4.04, 8.4 4.44, 8.41 4.57 C8.42 4.7, 8.42 4.44, 8.41 4.57" stroke="#5f3dc4" stroke-width="1" fill="none"></path></g><g stroke-linecap="round" transform="translate(633.1148589179866 50.270585328136804) rotate(358.1310915065084 4.2070221584958745 4.569555668486828)"><path d="M8.41 4.57 C8.41 4.83, 8.39 5.1, 8.35 5.36 C8.31 5.62, 8.24 5.88, 8.16 6.13 C8.08 6.38, 7.97 6.63, 7.85 6.85 C7.73 7.08, 7.59 7.3, 7.43 7.51 C7.27 7.71, 7.1 7.9, 6.91 8.07 C6.72 8.24, 6.52 8.39, 6.31 8.53 C6.1 8.66, 5.87 8.77, 5.65 8.86 C5.42 8.95, 5.18 9.02, 4.94 9.07 C4.7 9.12, 4.45 9.14, 4.21 9.14 C3.96 9.14, 3.72 9.12, 3.48 9.07 C3.24 9.02, 3 8.95, 2.77 8.86 C2.54 8.77, 2.31 8.66, 2.1 8.53 C1.89 8.39, 1.69 8.24, 1.5 8.07 C1.32 7.9, 1.14 7.71, 0.98 7.51 C0.83 7.3, 0.69 7.08, 0.56 6.85 C0.44 6.63, 0.34 6.38, 0.25 6.13 C0.17 5.88, 0.11 5.62, 0.06 5.36 C0.02 5.1, 0 4.83, 0 4.57 C0 4.31, 0.02 4.04, 0.06 3.78 C0.11 3.52, 0.17 3.26, 0.25 3.01 C0.34 2.76, 0.44 2.51, 0.56 2.28 C0.69 2.06, 0.83 1.83, 0.98 1.63 C1.14 1.43, 1.32 1.24, 1.5 1.07 C1.69 0.9, 1.89 0.74, 2.1 0.61 C2.31 0.48, 2.54 0.37, 2.77 0.28 C3 0.19, 3.24 0.12, 3.48 0.07 C3.72 0.02, 3.96 0, 4.21 0 C4.45 0, 4.7 0.02, 4.94 0.07 C5.18 0.12, 5.42 0.19, 5.65 0.28 C5.87 0.37, 6.1 0.48, 6.31 0.61 C6.52 0.74, 6.72 0.9, 6.91 1.07 C7.1 1.24, 7.27 1.43, 7.43 1.63 C7.59 1.83, 7.73 2.06, 7.85 2.28 C7.97 2.51, 8.08 2.76, 8.16 3.01 C8.24 3.26, 8.31 3.52, 8.35 3.78 C8.39 4.04, 8.4 4.44, 8.41 4.57 C8.42 4.7, 8.42 4.44, 8.41 4.57" stroke="none" stroke-width="0" fill="#7950f2"></path><path d="M8.41 4.57 C8.41 4.83, 8.39 5.1, 8.35 5.36 C8.31 5.62, 8.24 5.88, 8.16 6.13 C8.08 6.38, 7.97 6.63, 7.85 6.85 C7.73 7.08, 7.59 7.3, 7.43 7.51 C7.27 7.71, 7.1 7.9, 6.91 8.07 C6.72 8.24, 6.52 8.39, 6.31 8.53 C6.1 8.66, 5.87 8.77, 5.65 8.86 C5.42 8.95, 5.18 9.02, 4.94 9.07 C4.7 9.12, 4.45 9.14, 4.21 9.14 C3.96 9.14, 3.72 9.12, 3.48 9.07 C3.24 9.02, 3 8.95, 2.77 8.86 C2.54 8.77, 2.31 8.66, 2.1 8.53 C1.89 8.39, 1.69 8.24, 1.5 8.07 C1.32 7.9, 1.14 7.71, 0.98 7.51 C0.83 7.3, 0.69 7.08, 0.56 6.85 C0.44 6.63, 0.34 6.38, 0.25 6.13 C0.17 5.88, 0.11 5.62, 0.06 5.36 C0.02 5.1, 0 4.83, 0 4.57 C0 4.31, 0.02 4.04, 0.06 3.78 C0.11 3.52, 0.17 3.26, 0.25 3.01 C0.34 2.76, 0.44 2.51, 0.56 2.28 C0.69 2.06, 0.83 1.83, 0.98 1.63 C1.14 1.43, 1.32 1.24, 1.5 1.07 C1.69 0.9, 1.89 0.74, 2.1 0.61 C2.31 0.48, 2.54 0.37, 2.77 0.28 C3 0.19, 3.24 0.12, 3.48 0.07 C3.72 0.02, 3.96 0, 4.21 0 C4.45 0, 4.7 0.02, 4.94 0.07 C5.18 0.12, 5.42 0.19, 5.65 0.28 C5.87 0.37, 6.1 0.48, 6.31 0.61 C6.52 0.74, 6.72 0.9, 6.91 1.07 C7.1 1.24, 7.27 1.43, 7.43 1.63 C7.59 1.83, 7.73 2.06, 7.85 2.28 C7.97 2.51, 8.08 2.76, 8.16 3.01 C8.24 3.26, 8.31 3.52, 8.35 3.78 C8.39 4.04, 8.4 4.44, 8.41 4.57 C8.42 4.7, 8.42 4.44, 8.41 4.57" stroke="#5f3dc4" stroke-width="1" fill="none"></path></g><g stroke-linecap="round" transform="translate(647.6522532931303 36.17269642241445) rotate(358.1310915065084 4.171683969157584 4.569555668486828)"><path d="M8.34 4.57 C8.34 4.83, 8.32 5.1, 8.28 5.36 C8.24 5.62, 8.17 5.88, 8.09 6.13 C8.01 6.38, 7.91 6.63, 7.78 6.85 C7.66 7.08, 7.52 7.3, 7.37 7.51 C7.21 7.71, 7.04 7.9, 6.85 8.07 C6.67 8.24, 6.47 8.39, 6.26 8.53 C6.05 8.66, 5.83 8.77, 5.6 8.86 C5.37 8.95, 5.13 9.02, 4.9 9.07 C4.66 9.12, 4.41 9.14, 4.17 9.14 C3.93 9.14, 3.69 9.12, 3.45 9.07 C3.21 9.02, 2.97 8.95, 2.74 8.86 C2.52 8.77, 2.29 8.66, 2.09 8.53 C1.88 8.39, 1.68 8.24, 1.49 8.07 C1.31 7.9, 1.13 7.71, 0.98 7.51 C0.82 7.3, 0.68 7.08, 0.56 6.85 C0.44 6.63, 0.33 6.38, 0.25 6.13 C0.17 5.88, 0.11 5.62, 0.06 5.36 C0.02 5.1, 0 4.83, 0 4.57 C0 4.31, 0.02 4.04, 0.06 3.78 C0.11 3.52, 0.17 3.26, 0.25 3.01 C0.33 2.76, 0.44 2.51, 0.56 2.28 C0.68 2.06, 0.82 1.83, 0.98 1.63 C1.13 1.43, 1.31 1.24, 1.49 1.07 C1.68 0.9, 1.88 0.74, 2.09 0.61 C2.29 0.48, 2.52 0.37, 2.74 0.28 C2.97 0.19, 3.21 0.12, 3.45 0.07 C3.69 0.02, 3.93 0, 4.17 0 C4.41 0, 4.66 0.02, 4.9 0.07 C5.13 0.12, 5.37 0.19, 5.6 0.28 C5.83 0.37, 6.05 0.48, 6.26 0.61 C6.47 0.74, 6.67 0.9, 6.85 1.07 C7.04 1.24, 7.21 1.43, 7.37 1.63 C7.52 1.83, 7.66 2.06, 7.78 2.28 C7.91 2.51, 8.01 2.76, 8.09 3.01 C8.17 3.26, 8.24 3.52, 8.28 3.78 C8.32 4.04, 8.33 4.44, 8.34 4.57 C8.35 4.7, 8.35 4.44, 8.34 4.57" stroke="none" stroke-width="0" fill="#7950f2"></path><path d="M8.34 4.57 C8.34 4.83, 8.32 5.1, 8.28 5.36 C8.24 5.62, 8.17 5.88, 8.09 6.13 C8.01 6.38, 7.91 6.63, 7.78 6.85 C7.66 7.08, 7.52 7.3, 7.37 7.51 C7.21 7.71, 7.04 7.9, 6.85 8.07 C6.67 8.24, 6.47 8.39, 6.26 8.53 C6.05 8.66, 5.83 8.77, 5.6 8.86 C5.37 8.95, 5.13 9.02, 4.9 9.07 C4.66 9.12, 4.41 9.14, 4.17 9.14 C3.93 9.14, 3.69 9.12, 3.45 9.07 C3.21 9.02, 2.97 8.95, 2.74 8.86 C2.52 8.77, 2.29 8.66, 2.09 8.53 C1.88 8.39, 1.68 8.24, 1.49 8.07 C1.31 7.9, 1.13 7.71, 0.98 7.51 C0.82 7.3, 0.68 7.08, 0.56 6.85 C0.44 6.63, 0.33 6.38, 0.25 6.13 C0.17 5.88, 0.11 5.62, 0.06 5.36 C0.02 5.1, 0 4.83, 0 4.57 C0 4.31, 0.02 4.04, 0.06 3.78 C0.11 3.52, 0.17 3.26, 0.25 3.01 C0.33 2.76, 0.44 2.51, 0.56 2.28 C0.68 2.06, 0.82 1.83, 0.98 1.63 C1.13 1.43, 1.31 1.24, 1.49 1.07 C1.68 0.9, 1.88 0.74, 2.09 0.61 C2.29 0.48, 2.52 0.37, 2.74 0.28 C2.97 0.19, 3.21 0.12, 3.45 0.07 C3.69 0.02, 3.93 0, 4.17 0 C4.41 0, 4.66 0.02, 4.9 0.07 C5.13 0.12, 5.37 0.19, 5.6 0.28 C5.83 0.37, 6.05 0.48, 6.26 0.61 C6.47 0.74, 6.67 0.9, 6.85 1.07 C7.04 1.24, 7.21 1.43, 7.37 1.63 C7.52 1.83, 7.66 2.06, 7.78 2.28 C7.91 2.51, 8.01 2.76, 8.09 3.01 C8.17 3.26, 8.24 3.52, 8.28 3.78 C8.32 4.04, 8.33 4.44, 8.34 4.57 C8.35 4.7, 8.35 4.44, 8.34 4.57" stroke="#5f3dc4" stroke-width="1" fill="none"></path></g><g stroke-linecap="round" transform="translate(660.7981579606494 18.8237997900178) rotate(358.1310915065084 4.2070221584958745 4.569555668486828)"><path d="M8.41 4.57 C8.41 4.83, 8.39 5.1, 8.35 5.36 C8.31 5.62, 8.24 5.88, 8.16 6.13 C8.08 6.38, 7.97 6.63, 7.85 6.85 C7.73 7.08, 7.59 7.3, 7.43 7.51 C7.27 7.71, 7.1 7.9, 6.91 8.07 C6.72 8.24, 6.52 8.39, 6.31 8.53 C6.1 8.66, 5.87 8.77, 5.65 8.86 C5.42 8.95, 5.18 9.02, 4.94 9.07 C4.7 9.12, 4.45 9.14, 4.21 9.14 C3.96 9.14, 3.72 9.12, 3.48 9.07 C3.24 9.02, 3 8.95, 2.77 8.86 C2.54 8.77, 2.31 8.66, 2.1 8.53 C1.89 8.39, 1.69 8.24, 1.5 8.07 C1.32 7.9, 1.14 7.71, 0.98 7.51 C0.83 7.3, 0.69 7.08, 0.56 6.85 C0.44 6.63, 0.34 6.38, 0.25 6.13 C0.17 5.88, 0.11 5.62, 0.06 5.36 C0.02 5.1, 0 4.83, 0 4.57 C0 4.31, 0.02 4.04, 0.06 3.78 C0.11 3.52, 0.17 3.26, 0.25 3.01 C0.34 2.76, 0.44 2.51, 0.56 2.28 C0.69 2.06, 0.83 1.83, 0.98 1.63 C1.14 1.43, 1.32 1.24, 1.5 1.07 C1.69 0.9, 1.89 0.74, 2.1 0.61 C2.31 0.48, 2.54 0.37, 2.77 0.28 C3 0.19, 3.24 0.12, 3.48 0.07 C3.72 0.02, 3.96 0, 4.21 0 C4.45 0, 4.7 0.02, 4.94 0.07 C5.18 0.12, 5.42 0.19, 5.65 0.28 C5.87 0.37, 6.1 0.48, 6.31 0.61 C6.52 0.74, 6.72 0.9, 6.91 1.07 C7.1 1.24, 7.27 1.43, 7.43 1.63 C7.59 1.83, 7.73 2.06, 7.85 2.28 C7.97 2.51, 8.08 2.76, 8.16 3.01 C8.24 3.26, 8.31 3.52, 8.35 3.78 C8.39 4.04, 8.4 4.44, 8.41 4.57 C8.42 4.7, 8.42 4.44, 8.41 4.57" stroke="none" stroke-width="0" fill="#7950f2"></path><path d="M8.41 4.57 C8.41 4.83, 8.39 5.1, 8.35 5.36 C8.31 5.62, 8.24 5.88, 8.16 6.13 C8.08 6.38, 7.97 6.63, 7.85 6.85 C7.73 7.08, 7.59 7.3, 7.43 7.51 C7.27 7.71, 7.1 7.9, 6.91 8.07 C6.72 8.24, 6.52 8.39, 6.31 8.53 C6.1 8.66, 5.87 8.77, 5.65 8.86 C5.42 8.95, 5.18 9.02, 4.94 9.07 C4.7 9.12, 4.45 9.14, 4.21 9.14 C3.96 9.14, 3.72 9.12, 3.48 9.07 C3.24 9.02, 3 8.95, 2.77 8.86 C2.54 8.77, 2.31 8.66, 2.1 8.53 C1.89 8.39, 1.69 8.24, 1.5 8.07 C1.32 7.9, 1.14 7.71, 0.98 7.51 C0.83 7.3, 0.69 7.08, 0.56 6.85 C0.44 6.63, 0.34 6.38, 0.25 6.13 C0.17 5.88, 0.11 5.62, 0.06 5.36 C0.02 5.1, 0 4.83, 0 4.57 C0 4.31, 0.02 4.04, 0.06 3.78 C0.11 3.52, 0.17 3.26, 0.25 3.01 C0.34 2.76, 0.44 2.51, 0.56 2.28 C0.69 2.06, 0.83 1.83, 0.98 1.63 C1.14 1.43, 1.32 1.24, 1.5 1.07 C1.69 0.9, 1.89 0.74, 2.1 0.61 C2.31 0.48, 2.54 0.37, 2.77 0.28 C3 0.19, 3.24 0.12, 3.48 0.07 C3.72 0.02, 3.96 0, 4.21 0 C4.45 0, 4.7 0.02, 4.94 0.07 C5.18 0.12, 5.42 0.19, 5.65 0.28 C5.87 0.37, 6.1 0.48, 6.31 0.61 C6.52 0.74, 6.72 0.9, 6.91 1.07 C7.1 1.24, 7.27 1.43, 7.43 1.63 C7.59 1.83, 7.73 2.06, 7.85 2.28 C7.97 2.51, 8.08 2.76, 8.16 3.01 C8.24 3.26, 8.31 3.52, 8.35 3.78 C8.39 4.04, 8.4 4.44, 8.41 4.57 C8.42 4.7, 8.42 4.44, 8.41 4.57" stroke="#5f3dc4" stroke-width="1" fill="none"></path></g><g stroke-linecap="round" transform="translate(662.8491675428195 51.83716481769079) rotate(358.1310915065084 4.2070221584958745 4.569555668486828)"><path d="M8.41 4.57 C8.41 4.83, 8.39 5.1, 8.35 5.36 C8.31 5.62, 8.24 5.88, 8.16 6.13 C8.08 6.38, 7.97 6.63, 7.85 6.85 C7.73 7.08, 7.59 7.3, 7.43 7.51 C7.27 7.71, 7.1 7.9, 6.91 8.07 C6.72 8.24, 6.52 8.39, 6.31 8.53 C6.1 8.66, 5.87 8.77, 5.65 8.86 C5.42 8.95, 5.18 9.02, 4.94 9.07 C4.7 9.12, 4.45 9.14, 4.21 9.14 C3.96 9.14, 3.72 9.12, 3.48 9.07 C3.24 9.02, 3 8.95, 2.77 8.86 C2.54 8.77, 2.31 8.66, 2.1 8.53 C1.89 8.39, 1.69 8.24, 1.5 8.07 C1.32 7.9, 1.14 7.71, 0.98 7.51 C0.83 7.3, 0.69 7.08, 0.56 6.85 C0.44 6.63, 0.34 6.38, 0.25 6.13 C0.17 5.88, 0.11 5.62, 0.06 5.36 C0.02 5.1, 0 4.83, 0 4.57 C0 4.31, 0.02 4.04, 0.06 3.78 C0.11 3.52, 0.17 3.26, 0.25 3.01 C0.34 2.76, 0.44 2.51, 0.56 2.28 C0.69 2.06, 0.83 1.83, 0.98 1.63 C1.14 1.43, 1.32 1.24, 1.5 1.07 C1.69 0.9, 1.89 0.74, 2.1 0.61 C2.31 0.48, 2.54 0.37, 2.77 0.28 C3 0.19, 3.24 0.12, 3.48 0.07 C3.72 0.02, 3.96 0, 4.21 0 C4.45 0, 4.7 0.02, 4.94 0.07 C5.18 0.12, 5.42 0.19, 5.65 0.28 C5.87 0.37, 6.1 0.48, 6.31 0.61 C6.52 0.74, 6.72 0.9, 6.91 1.07 C7.1 1.24, 7.27 1.43, 7.43 1.63 C7.59 1.83, 7.73 2.06, 7.85 2.28 C7.97 2.51, 8.08 2.76, 8.16 3.01 C8.24 3.26, 8.31 3.52, 8.35 3.78 C8.39 4.04, 8.4 4.44, 8.41 4.57 C8.42 4.7, 8.42 4.44, 8.41 4.57" stroke="none" stroke-width="0" fill="#7950f2"></path><path d="M8.41 4.57 C8.41 4.83, 8.39 5.1, 8.35 5.36 C8.31 5.62, 8.24 5.88, 8.16 6.13 C8.08 6.38, 7.97 6.63, 7.85 6.85 C7.73 7.08, 7.59 7.3, 7.43 7.51 C7.27 7.71, 7.1 7.9, 6.91 8.07 C6.72 8.24, 6.52 8.39, 6.31 8.53 C6.1 8.66, 5.87 8.77, 5.65 8.86 C5.42 8.95, 5.18 9.02, 4.94 9.07 C4.7 9.12, 4.45 9.14, 4.21 9.14 C3.96 9.14, 3.72 9.12, 3.48 9.07 C3.24 9.02, 3 8.95, 2.77 8.86 C2.54 8.77, 2.31 8.66, 2.1 8.53 C1.89 8.39, 1.69 8.24, 1.5 8.07 C1.32 7.9, 1.14 7.71, 0.98 7.51 C0.83 7.3, 0.69 7.08, 0.56 6.85 C0.44 6.63, 0.34 6.38, 0.25 6.13 C0.17 5.88, 0.11 5.62, 0.06 5.36 C0.02 5.1, 0 4.83, 0 4.57 C0 4.31, 0.02 4.04, 0.06 3.78 C0.11 3.52, 0.17 3.26, 0.25 3.01 C0.34 2.76, 0.44 2.51, 0.56 2.28 C0.69 2.06, 0.83 1.83, 0.98 1.63 C1.14 1.43, 1.32 1.24, 1.5 1.07 C1.69 0.9, 1.89 0.74, 2.1 0.61 C2.31 0.48, 2.54 0.37, 2.77 0.28 C3 0.19, 3.24 0.12, 3.48 0.07 C3.72 0.02, 3.96 0, 4.21 0 C4.45 0, 4.7 0.02, 4.94 0.07 C5.18 0.12, 5.42 0.19, 5.65 0.28 C5.87 0.37, 6.1 0.48, 6.31 0.61 C6.52 0.74, 6.72 0.9, 6.91 1.07 C7.1 1.24, 7.27 1.43, 7.43 1.63 C7.59 1.83, 7.73 2.06, 7.85 2.28 C7.97 2.51, 8.08 2.76, 8.16 3.01 C8.24 3.26, 8.31 3.52, 8.35 3.78 C8.39 4.04, 8.4 4.44, 8.41 4.57 C8.42 4.7, 8.42 4.44, 8.41 4.57" stroke="#5f3dc4" stroke-width="1" fill="none"></path></g><g stroke-linecap="round" transform="translate(632.7171992760632 19.16476081117071) rotate(358.1310915065084 3.729693932574719 3.867855952340051)"><path d="M7.46 3.87 C7.46 4.09, 7.44 4.32, 7.4 4.54 C7.37 4.76, 7.31 4.98, 7.23 5.19 C7.16 5.4, 7.07 5.61, 6.96 5.8 C6.85 6, 6.73 6.18, 6.59 6.35 C6.45 6.53, 6.29 6.69, 6.13 6.83 C5.96 6.97, 5.78 7.11, 5.59 7.22 C5.41 7.33, 5.21 7.43, 5.01 7.5 C4.8 7.58, 4.59 7.64, 4.38 7.68 C4.16 7.72, 3.95 7.74, 3.73 7.74 C3.51 7.74, 3.29 7.72, 3.08 7.68 C2.87 7.64, 2.66 7.58, 2.45 7.5 C2.25 7.43, 2.05 7.33, 1.86 7.22 C1.68 7.11, 1.5 6.97, 1.33 6.83 C1.17 6.69, 1.01 6.53, 0.87 6.35 C0.73 6.18, 0.61 6, 0.5 5.8 C0.39 5.61, 0.3 5.4, 0.22 5.19 C0.15 4.98, 0.09 4.76, 0.06 4.54 C0.02 4.32, 0 4.09, 0 3.87 C0 3.64, 0.02 3.42, 0.06 3.2 C0.09 2.98, 0.15 2.76, 0.22 2.54 C0.3 2.33, 0.39 2.13, 0.5 1.93 C0.61 1.74, 0.73 1.55, 0.87 1.38 C1.01 1.21, 1.17 1.05, 1.33 0.9 C1.5 0.76, 1.68 0.63, 1.86 0.52 C2.05 0.41, 2.25 0.31, 2.45 0.23 C2.66 0.16, 2.87 0.1, 3.08 0.06 C3.29 0.02, 3.51 0, 3.73 0 C3.95 0, 4.16 0.02, 4.38 0.06 C4.59 0.1, 4.8 0.16, 5.01 0.23 C5.21 0.31, 5.41 0.41, 5.59 0.52 C5.78 0.63, 5.96 0.76, 6.13 0.9 C6.29 1.05, 6.45 1.21, 6.59 1.38 C6.73 1.55, 6.85 1.74, 6.96 1.93 C7.07 2.13, 7.16 2.33, 7.23 2.54 C7.31 2.76, 7.37 2.98, 7.4 3.2 C7.44 3.42, 7.45 3.76, 7.46 3.87 C7.47 3.98, 7.47 3.76, 7.46 3.87" stroke="#fff" stroke-width="1" fill="none"></path></g><g stroke-linecap="round" transform="translate(633.4905493220722 51.37736985991796) rotate(358.1310915065084 3.729693932574719 3.867855952340051)"><path d="M7.46 3.87 C7.46 4.09, 7.44 4.32, 7.4 4.54 C7.37 4.76, 7.31 4.98, 7.23 5.19 C7.16 5.4, 7.07 5.61, 6.96 5.8 C6.85 6, 6.73 6.18, 6.59 6.35 C6.45 6.53, 6.29 6.69, 6.13 6.83 C5.96 6.97, 5.78 7.11, 5.59 7.22 C5.41 7.33, 5.21 7.43, 5.01 7.5 C4.8 7.58, 4.59 7.64, 4.38 7.68 C4.16 7.72, 3.95 7.74, 3.73 7.74 C3.51 7.74, 3.29 7.72, 3.08 7.68 C2.87 7.64, 2.66 7.58, 2.45 7.5 C2.25 7.43, 2.05 7.33, 1.86 7.22 C1.68 7.11, 1.5 6.97, 1.33 6.83 C1.17 6.69, 1.01 6.53, 0.87 6.35 C0.73 6.18, 0.61 6, 0.5 5.8 C0.39 5.61, 0.3 5.4, 0.22 5.19 C0.15 4.98, 0.09 4.76, 0.06 4.54 C0.02 4.32, 0 4.09, 0 3.87 C0 3.64, 0.02 3.42, 0.06 3.2 C0.09 2.98, 0.15 2.76, 0.22 2.54 C0.3 2.33, 0.39 2.13, 0.5 1.93 C0.61 1.74, 0.73 1.55, 0.87 1.38 C1.01 1.21, 1.17 1.05, 1.33 0.9 C1.5 0.76, 1.68 0.63, 1.86 0.52 C2.05 0.41, 2.25 0.31, 2.45 0.23 C2.66 0.16, 2.87 0.1, 3.08 0.06 C3.29 0.02, 3.51 0, 3.73 0 C3.95 0, 4.16 0.02, 4.38 0.06 C4.59 0.1, 4.8 0.16, 5.01 0.23 C5.21 0.31, 5.41 0.41, 5.59 0.52 C5.78 0.63, 5.96 0.76, 6.13 0.9 C6.29 1.05, 6.45 1.21, 6.59 1.38 C6.73 1.55, 6.85 1.74, 6.96 1.93 C7.07 2.13, 7.16 2.33, 7.23 2.54 C7.31 2.76, 7.37 2.98, 7.4 3.2 C7.44 3.42, 7.45 3.76, 7.46 3.87 C7.47 3.98, 7.47 3.76, 7.46 3.87" stroke="#fff" stroke-width="1" fill="none"></path></g><g stroke-linecap="round" transform="translate(648.0560287321605 36.644652442122606) rotate(358.1310915065084 3.724686267937159 3.7725718007777687)"><path d="M7.45 3.77 C7.45 3.99, 7.43 4.21, 7.39 4.43 C7.36 4.64, 7.3 4.86, 7.22 5.06 C7.15 5.27, 7.06 5.47, 6.95 5.66 C6.84 5.85, 6.72 6.03, 6.58 6.2 C6.44 6.36, 6.28 6.52, 6.12 6.66 C5.95 6.8, 5.77 6.93, 5.59 7.04 C5.4 7.15, 5.2 7.24, 5 7.32 C4.8 7.39, 4.58 7.45, 4.37 7.49 C4.16 7.53, 3.94 7.55, 3.72 7.55 C3.51 7.55, 3.29 7.53, 3.08 7.49 C2.87 7.45, 2.65 7.39, 2.45 7.32 C2.25 7.24, 2.05 7.15, 1.86 7.04 C1.68 6.93, 1.5 6.8, 1.33 6.66 C1.17 6.52, 1.01 6.36, 0.87 6.2 C0.73 6.03, 0.61 5.85, 0.5 5.66 C0.39 5.47, 0.3 5.27, 0.22 5.06 C0.15 4.86, 0.09 4.64, 0.06 4.43 C0.02 4.21, 0 3.99, 0 3.77 C0 3.55, 0.02 3.33, 0.06 3.12 C0.09 2.9, 0.15 2.69, 0.22 2.48 C0.3 2.28, 0.39 2.08, 0.5 1.89 C0.61 1.7, 0.73 1.51, 0.87 1.35 C1.01 1.18, 1.17 1.02, 1.33 0.88 C1.5 0.74, 1.68 0.61, 1.86 0.51 C2.05 0.4, 2.25 0.3, 2.45 0.23 C2.65 0.15, 2.87 0.1, 3.08 0.06 C3.29 0.02, 3.51 0, 3.72 0 C3.94 0, 4.16 0.02, 4.37 0.06 C4.58 0.1, 4.8 0.15, 5 0.23 C5.2 0.3, 5.4 0.4, 5.59 0.51 C5.77 0.61, 5.95 0.74, 6.12 0.88 C6.28 1.02, 6.44 1.18, 6.58 1.35 C6.72 1.51, 6.84 1.7, 6.95 1.89 C7.06 2.08, 7.15 2.28, 7.22 2.48 C7.3 2.69, 7.36 2.9, 7.39 3.12 C7.43 3.33, 7.44 3.66, 7.45 3.77 C7.46 3.88, 7.46 3.66, 7.45 3.77" stroke="#fff" stroke-width="1" fill="none"></path></g><g stroke-linecap="round" transform="translate(661.6079555706347 19.728872308623977) rotate(358.1310915065084 3.325364728417753 3.7725718007777687)"><path d="M6.65 3.77 C6.65 3.99, 6.63 4.21, 6.6 4.43 C6.57 4.64, 6.52 4.86, 6.45 5.06 C6.38 5.27, 6.3 5.47, 6.21 5.66 C6.11 5.85, 6 6.03, 5.87 6.2 C5.75 6.36, 5.61 6.52, 5.46 6.66 C5.32 6.8, 5.15 6.93, 4.99 7.04 C4.82 7.15, 4.64 7.24, 4.46 7.32 C4.28 7.39, 4.09 7.45, 3.9 7.49 C3.71 7.53, 3.52 7.55, 3.33 7.55 C3.13 7.55, 2.94 7.53, 2.75 7.49 C2.56 7.45, 2.37 7.39, 2.19 7.32 C2.01 7.24, 1.83 7.15, 1.66 7.04 C1.5 6.93, 1.34 6.8, 1.19 6.66 C1.04 6.52, 0.9 6.36, 0.78 6.2 C0.65 6.03, 0.54 5.85, 0.45 5.66 C0.35 5.47, 0.27 5.27, 0.2 5.06 C0.13 4.86, 0.08 4.64, 0.05 4.43 C0.02 4.21, 0 3.99, 0 3.77 C0 3.55, 0.02 3.33, 0.05 3.12 C0.08 2.9, 0.13 2.69, 0.2 2.48 C0.27 2.28, 0.35 2.08, 0.45 1.89 C0.54 1.7, 0.65 1.51, 0.78 1.35 C0.9 1.18, 1.04 1.02, 1.19 0.88 C1.34 0.74, 1.5 0.61, 1.66 0.51 C1.83 0.4, 2.01 0.3, 2.19 0.23 C2.37 0.15, 2.56 0.1, 2.75 0.06 C2.94 0.02, 3.13 0, 3.33 0 C3.52 0, 3.71 0.02, 3.9 0.06 C4.09 0.1, 4.28 0.15, 4.46 0.23 C4.64 0.3, 4.82 0.4, 4.99 0.51 C5.15 0.61, 5.32 0.74, 5.46 0.88 C5.61 1.02, 5.75 1.18, 5.87 1.35 C6 1.51, 6.11 1.7, 6.21 1.89 C6.3 2.08, 6.38 2.28, 6.45 2.48 C6.52 2.69, 6.57 2.9, 6.6 3.12 C6.63 3.33, 6.64 3.66, 6.65 3.77 C6.66 3.88, 6.66 3.66, 6.65 3.77" stroke="#fff" stroke-width="1" fill="none"></path></g><g stroke-linecap="round" transform="translate(664.1335482074028 52.539097124772525) rotate(358.1310915065084 2.9417847459671975 3.7725718007777687)"><path d="M5.88 3.77 C5.88 3.99, 5.87 4.21, 5.84 4.43 C5.81 4.64, 5.76 4.86, 5.71 5.06 C5.65 5.27, 5.57 5.47, 5.49 5.66 C5.4 5.85, 5.3 6.03, 5.2 6.2 C5.09 6.36, 4.96 6.52, 4.83 6.66 C4.7 6.8, 4.56 6.93, 4.41 7.04 C4.27 7.15, 4.11 7.24, 3.95 7.32 C3.79 7.39, 3.62 7.45, 3.45 7.49 C3.28 7.53, 3.11 7.55, 2.94 7.55 C2.77 7.55, 2.6 7.53, 2.43 7.49 C2.26 7.45, 2.1 7.39, 1.94 7.32 C1.78 7.24, 1.62 7.15, 1.47 7.04 C1.32 6.93, 1.18 6.8, 1.05 6.66 C0.92 6.52, 0.8 6.36, 0.69 6.2 C0.58 6.03, 0.48 5.85, 0.39 5.66 C0.31 5.47, 0.24 5.27, 0.18 5.06 C0.12 4.86, 0.07 4.64, 0.04 4.43 C0.02 4.21, 0 3.99, 0 3.77 C0 3.55, 0.02 3.33, 0.04 3.12 C0.07 2.9, 0.12 2.69, 0.18 2.48 C0.24 2.28, 0.31 2.08, 0.39 1.89 C0.48 1.7, 0.58 1.51, 0.69 1.35 C0.8 1.18, 0.92 1.02, 1.05 0.88 C1.18 0.74, 1.32 0.61, 1.47 0.51 C1.62 0.4, 1.78 0.3, 1.94 0.23 C2.1 0.15, 2.26 0.1, 2.43 0.06 C2.6 0.02, 2.77 0, 2.94 0 C3.11 0, 3.28 0.02, 3.45 0.06 C3.62 0.1, 3.79 0.15, 3.95 0.23 C4.11 0.3, 4.27 0.4, 4.41 0.51 C4.56 0.61, 4.7 0.74, 4.83 0.88 C4.96 1.02, 5.09 1.18, 5.2 1.35 C5.3 1.51, 5.4 1.7, 5.49 1.89 C5.57 2.08, 5.65 2.28, 5.71 2.48 C5.76 2.69, 5.81 2.9, 5.84 3.12 C5.87 3.33, 5.88 3.66, 5.88 3.77 C5.89 3.88, 5.89 3.66, 5.88 3.77" stroke="#fff" stroke-width="1" fill="none"></path></g><g stroke-linecap="round" transform="translate(346.4340338193688 223.0498217840468) rotate(0 5.444792078107639 85.80967495753066)"><path d="M2.72 0 L10.21 0.68 L10.89 2.72 L10.89 168.9 L10.21 170.94 L8.17 171.62 L0.68 170.94 L0 168.9 L0 2.72 L0.68 0.68 L2.72 0" stroke="none" stroke-width="0" fill="#b2f2bb"></path><path d="M2.72 0 M2.72 0 C4.47 0, 6.22 0, 8.17 0 M2.72 0 C4.44 0, 6.16 0, 8.17 0 M8.17 0 C9.98 0, 10.89 0.91, 10.89 2.72 M8.17 0 C9.98 0, 10.89 0.91, 10.89 2.72 M10.89 2.72 C10.89 63.94, 10.89 125.16, 10.89 168.9 M10.89 2.72 C10.89 62.75, 10.89 122.77, 10.89 168.9 M10.89 168.9 C10.89 170.71, 9.98 171.62, 8.17 171.62 M10.89 168.9 C10.89 170.71, 9.98 171.62, 8.17 171.62 M8.17 171.62 C6.56 171.62, 4.96 171.62, 2.72 171.62 M8.17 171.62 C6.04 171.62, 3.9 171.62, 2.72 171.62 M2.72 171.62 C0.91 171.62, 0 170.71, 0 168.9 M2.72 171.62 C0.91 171.62, 0 170.71, 0 168.9 M0 168.9 C0 134.79, 0 100.68, 0 2.72 M0 168.9 C0 128.78, 0 88.67, 0 2.72 M0 2.72 C0 0.91, 0.91 0, 2.72 0 M0 2.72 C0 0.91, 0.91 0, 2.72 0" stroke="#2f9e44" stroke-width="1" fill="none"></path></g><g mask="url(#mask-SuG8UWeyMtPW_aRD93xd4)" stroke-linecap="round"><g transform="translate(356.0739462916499 283.02658100642657) rotate(0 140.6825397108346 0.3328473313085851)"><path d="M0 0 C46.89 0.11, 234.47 0.55, 281.37 0.67 M0 0 C46.89 0.11, 234.47 0.55, 281.37 0.67" stroke="#000000" stroke-width="1" fill="none"></path></g><g transform="translate(356.0739462916499 283.02658100642657) rotate(0 140.6825397108346 0.3328473313085851)"><path d="M0 0 L13.61 -6.31 L13.58 6.37 L0 0" stroke="none" stroke-width="0" fill="#000000" fill-rule="evenodd"></path><path d="M0 0 C4.66 -2.16, 9.33 -4.32, 13.61 -6.31 M0 0 C5.27 -2.44, 10.55 -4.89, 13.61 -6.31 M13.61 -6.31 C13.6 -3.37, 13.6 -0.43, 13.58 6.37 M13.61 -6.31 C13.6 -1.89, 13.59 2.53, 13.58 6.37 M13.58 6.37 C10.2 4.79, 6.83 3.2, 0 0 M13.58 6.37 C9.77 4.58, 5.96 2.79, 0 0 M0 0 C0 0, 0 0, 0 0 M0 0 C0 0, 0 0, 0 0" stroke="#000000" stroke-width="1" fill="none"></path></g></g><mask id="mask-SuG8UWeyMtPW_aRD93xd4"><rect x="0" y="0" fill="#fff" width="737.4390257133191" height="383.69227566904374"></rect><rect x="436.88453776029746" y="273.35942833773515" fill="#000" width="119.743896484375" height="20" opacity="1"></rect></mask><g transform="translate(436.88453776029746 273.35942833773515) rotate(0 59.871948242187045 10)"><text x="59.8719482421875" y="0" font-family="Virgil, Segoe UI Emoji" font-size="16px" fill="#000000" text-anchor="middle" style="white-space: pre;" direction="ltr" dominant-baseline="text-before-edge">triggers pipeline</text></g><g transform="translate(312.69015170405874 10) rotate(0 42.58995056152344 25)"><text x="42.58995056152344" y="0" font-family="Virgil, Segoe UI Emoji" font-size="20px" fill="#000000" text-anchor="middle" style="white-space: pre;" direction="ltr" dominant-baseline="text-before-edge">Platform</text><text x="42.58995056152344" y="25" font-family="Virgil, Segoe UI Emoji" font-size="20px" fill="#000000" text-anchor="middle" style="white-space: pre;" direction="ltr" dominant-baseline="text-before-edge">Cluster</text></g><g stroke-linecap="round"><g transform="translate(651.7196538189673 69.84936586556069) rotate(0 0 168.52826532908148)"><path d="M0 0 C0 56.18, 0 280.88, 0 337.06 M0 0 C0 56.18, 0 280.88, 0 337.06" stroke="#000000" stroke-width="1" fill="none"></path></g></g><mask></mask><g mask="url(#mask-YYR02JjDCy7WuRkc0PlNk)" stroke-linecap="round"><g transform="translate(647.149172720241 244.1650753569411) rotate(0 -145.8775336947201 0)"><path d="M0 0 C-48.63 0, -243.13 0, -291.76 0 M0 0 C-48.63 0, -243.13 0, -291.76 0" stroke="#000000" stroke-width="1" fill="none"></path></g><g transform="translate(647.149172720241 244.1650753569411) rotate(0 -145.8775336947201 0)"><path d="M0 0 L-13.59 6.34 L-13.59 -6.34 L0 0" stroke="none" stroke-width="0" fill="#000000" fill-rule="evenodd"></path><path d="M0 0 C-3.14 1.46, -6.27 2.93, -13.59 6.34 M0 0 C-3.98 1.86, -7.97 3.72, -13.59 6.34 M-13.59 6.34 C-13.59 1.97, -13.59 -2.39, -13.59 -6.34 M-13.59 6.34 C-13.59 3.52, -13.59 0.7, -13.59 -6.34 M-13.59 -6.34 C-9.8 -4.57, -6 -2.8, 0 0 M-13.59 -6.34 C-9 -4.2, -4.41 -2.06, 0 0 M0 0 C0 0, 0 0, 0 0 M0 0 C0 0, 0 0, 0 0" stroke="#000000" stroke-width="1" fill="none"></path></g></g><mask id="mask-YYR02JjDCy7WuRkc0PlNk"><rect x="0" y="0" fill="#fff" width="1038.9042401096815" height="344.1650753569411"></rect><rect x="434.33568016321624" y="234.1650753569411" fill="#000" width="133.87191772460938" height="20" opacity="1"></rect></mask><g transform="translate(434.33568016321624 234.1650753569411) rotate(0 66.93595886230469 10)"><text x="66.93595886230469" y="0" font-family="Virgil, Segoe UI Emoji" font-size="16px" fill="#000000" text-anchor="middle" style="white-space: pre;" direction="ltr" dominant-baseline="text-before-edge">Resource definition</text></g><g mask="url(#mask-dvKKXGus9uJErmXi0x5IO)" stroke-linecap="round"><g transform="translate(361.4626892965398 349.5624100453624) rotate(0 137.476535779173 -1.2010736486699898)"><path d="M0 0 C45.83 -0.4, 229.13 -2, 274.95 -2.4 M0 0 C45.83 -0.4, 229.13 -2, 274.95 -2.4" stroke="#228be6" stroke-width="1" fill="none"></path></g><g transform="translate(361.4626892965398 349.5624100453624) rotate(0 137.476535779173 -1.2010736486699898)"><path d="M0 0 L13.54 -6.46 L13.65 6.22 L0 0" stroke="none" stroke-width="0" fill="#228be6" fill-rule="evenodd"></path><path d="M0 0 C4.89 -2.33, 9.79 -4.67, 13.54 -6.46 M0 0 C3.28 -1.57, 6.56 -3.13, 13.54 -6.46 M13.54 -6.46 C13.57 -3.03, 13.6 0.39, 13.65 6.22 M13.54 -6.46 C13.56 -3.56, 13.59 -0.66, 13.65 6.22 M13.65 6.22 C9.56 4.35, 5.46 2.49, 0 0 M13.65 6.22 C9.55 4.35, 5.46 2.49, 0 0 M0 0 C0 0, 0 0, 0 0 M0 0 C0 0, 0 0, 0 0" stroke="#228be6" stroke-width="1" fill="none"></path></g></g><mask id="mask-dvKKXGus9uJErmXi0x5IO"><rect x="0" y="0" fill="#fff" width="736.4157608548858" height="451.9645573427024"></rect><rect x="409.26728904055653" y="328.3613363966924" fill="#000" width="179.3438720703125" height="40" opacity="1"></rect></mask><g transform="translate(409.26728904055653 328.3613363966924) rotate(0 89.67193603515625 20)"><text x="89.67193603515625" y="0" font-family="Virgil, Segoe UI Emoji" font-size="16px" fill="#228be6" text-anchor="middle" style="white-space: pre;" direction="ltr" dominant-baseline="text-before-edge">get clusters with label</text><text x="89.67193603515625" y="20" font-family="Virgil, Segoe UI Emoji" font-size="16px" fill="#228be6" text-anchor="middle" style="white-space: pre;" direction="ltr" dominant-baseline="text-before-edge">pvCapacity=large</text></g><g mask="url(#mask-pgvNYIzU5twJSr8HGBTfW)" stroke-linecap="round"><g transform="translate(647.3268120544726 383.81790096659824) rotate(0 -144.02304214909054 0.6862244086023566)"><path d="M0 0 C-48.01 0.23, -240.04 1.14, -288.05 1.37" stroke="#e03131" stroke-width="1.5" fill="none" stroke-dasharray="8 9"></path></g><g transform="translate(647.3268120544726 383.81790096659824) rotate(0 -144.02304214909054 0.6862244086023566)"><path d="M0 0 L-13.56 6.4 L-13.62 -6.27 L0 0" stroke="none" stroke-width="0" fill="#e03131" fill-rule="evenodd"></path><path d="M0 0 C-4.99 2.36, -9.99 4.72, -13.56 6.4 M-13.56 6.4 C-13.58 3.52, -13.59 0.64, -13.62 -6.27 M-13.62 -6.27 C-10.75 -4.95, -7.87 -3.62, 0 0 M0 0 C0 0, 0 0, 0 0" stroke="#e03131" stroke-width="1.5" fill="none"></path></g></g><mask id="mask-pgvNYIzU5twJSr8HGBTfW"><rect x="0" y="0" fill="#fff" width="1035.3728963526537" height="485.19034978380296"></rect><rect x="434.295812446886" y="374.5041253752006" fill="#000" width="138.0159149169922" height="20" opacity="1"></rect></mask><g transform="translate(434.295812446886 374.5041253752006) rotate(0 69.0079574584961 10)"><text x="69.0079574584961" y="0" font-family="Virgil, Segoe UI Emoji" font-size="16px" fill="#e03131" text-anchor="middle" style="white-space: pre;" direction="ltr" dominant-baseline="text-before-edge">no clusters found</text></g><g stroke-linecap="round" transform="translate(498.30333236973365 396.65787045523757) rotate(0 106.44407787044429 21.002838035788955)"><path d="M10.5 0 L202.39 0 L206.98 0.66 L210.26 2.63 L212.23 5.91 L212.89 10.5 L212.89 31.5 L212.23 36.1 L210.26 39.38 L206.98 41.35 L202.39 42.01 L10.5 42.01 L5.91 41.35 L2.63 39.38 L0.66 36.1 L0 31.5 L0 10.5 L0.66 5.91 L2.63 2.63 L5.91 0.66 L10.5 0" stroke="none" stroke-width="0" fill="#ffc9c9"></path><path d="M10.5 0 M10.5 0 C67.07 0, 123.65 0, 202.39 0 M10.5 0 C85.61 0, 160.71 0, 202.39 0 M202.39 0 C209.39 0, 212.89 3.5, 212.89 10.5 M202.39 0 C209.39 0, 212.89 3.5, 212.89 10.5 M212.89 10.5 C212.89 14.81, 212.89 19.12, 212.89 31.5 M212.89 10.5 C212.89 15.57, 212.89 20.64, 212.89 31.5 M212.89 31.5 C212.89 38.51, 209.39 42.01, 202.39 42.01 M212.89 31.5 C212.89 38.51, 209.39 42.01, 202.39 42.01 M202.39 42.01 C130.12 42.01, 57.86 42.01, 10.5 42.01 M202.39 42.01 C155.41 42.01, 108.42 42.01, 10.5 42.01 M10.5 42.01 C3.5 42.01, 0 38.51, 0 31.5 M10.5 42.01 C3.5 42.01, 0 38.51, 0 31.5 M0 31.5 C0 24.05, 0 16.6, 0 10.5 M0 31.5 C0 23.38, 0 15.26, 0 10.5 M0 10.5 C0 3.5, 3.5 0, 10.5 0 M0 10.5 C0 3.5, 3.5 0, 10.5 0" stroke="#e64980" stroke-width="1" fill="none"></path></g><g transform="translate(530.2581896562015 410.58023880815745) rotate(0 81.06417083740234 10)"><text x="81.06417083740234" y="0" font-family="Virgil, Segoe UI Emoji" font-size="16px" fill="#e64980" text-anchor="middle" style="white-space: pre;" direction="ltr" dominant-baseline="text-before-edge">error: can't schedule</text></g><g mask="url(#mask-tEhfBSCdojvvysAPPslhi)" stroke-linecap="round"><g transform="translate(646.2252586984805 311.19003189977775) rotate(0 -145.8775336947201 0)"><path d="M0 0 C-48.63 0, -243.13 0, -291.76 0 M0 0 C-48.63 0, -243.13 0, -291.76 0" stroke="#000000" stroke-width="1" fill="none"></path></g><g transform="translate(646.2252586984805 311.19003189977775) rotate(0 -145.8775336947201 0)"><path d="M0 0 L-13.59 6.34 L-13.59 -6.34 L0 0" stroke="none" stroke-width="0" fill="#000000" fill-rule="evenodd"></path><path d="M0 0 C-3.98 1.86, -7.97 3.71, -13.59 6.34 M0 0 C-4.25 1.98, -8.5 3.96, -13.59 6.34 M-13.59 6.34 C-13.59 3.68, -13.59 1.01, -13.59 -6.34 M-13.59 6.34 C-13.59 1.97, -13.59 -2.41, -13.59 -6.34 M-13.59 -6.34 C-9.59 -4.47, -5.59 -2.6, 0 0 M-13.59 -6.34 C-10.76 -5.02, -7.92 -3.69, 0 0 M0 0 C0 0, 0 0, 0 0 M0 0 C0 0, 0 0, 0 0" stroke="#000000" stroke-width="1" fill="none"></path></g></g><mask id="mask-tEhfBSCdojvvysAPPslhi"><rect x="0" y="0" fill="#fff" width="1037.980326087921" height="411.19003189977775"></rect><rect x="447.4837647376471" y="301.19003189977775" fill="#000" width="105.72792053222656" height="20" opacity="1"></rect></mask><g transform="translate(447.4837647376471 301.19003189977775) rotate(0 52.86396026611328 10)"><text x="52.86396026611328" y="0" font-family="Virgil, Segoe UI Emoji" font-size="16px" fill="#000000" text-anchor="middle" style="white-space: pre;" direction="ltr" dominant-baseline="text-before-edge">Outputs work</text></g><g stroke-linecap="round" transform="translate(651.2521182202445 222.9138136698457) rotate(0 5.444792078107639 85.80967495753066)"><path d="M2.72 0 L10.21 0.68 L10.89 2.72 L10.89 168.9 L10.21 170.94 L8.17 171.62 L0.68 170.94 L0 168.9 L0 2.72 L0.68 0.68 L2.72 0" stroke="none" stroke-width="0" fill="#b2f2bb"></path><path d="M2.72 0 M2.72 0 C4.21 0, 5.7 0, 8.17 0 M2.72 0 C4.76 0, 6.8 0, 8.17 0 M8.17 0 C9.98 0, 10.89 0.91, 10.89 2.72 M8.17 0 C9.98 0, 10.89 0.91, 10.89 2.72 M10.89 2.72 C10.89 42.04, 10.89 81.35, 10.89 168.9 M10.89 2.72 C10.89 66.27, 10.89 129.81, 10.89 168.9 M10.89 168.9 C10.89 170.71, 9.98 171.62, 8.17 171.62 M10.89 168.9 C10.89 170.71, 9.98 171.62, 8.17 171.62 M8.17 171.62 C6.55 171.62, 4.94 171.62, 2.72 171.62 M8.17 171.62 C6.54 171.62, 4.9 171.62, 2.72 171.62 M2.72 171.62 C0.91 171.62, 0 170.71, 0 168.9 M2.72 171.62 C0.91 171.62, 0 170.71, 0 168.9 M0 168.9 C0 125.76, 0 82.63, 0 2.72 M0 168.9 C0 117.62, 0 66.34, 0 2.72 M0 2.72 C0 0.91, 0.91 0, 2.72 0 M0 2.72 C0 0.91, 0.91 0, 2.72 0" stroke="#2f9e44" stroke-width="1" fill="none"></path></g></svg>
