<svg width="170" height="68" viewBox="0 0 170 68" fill="none" xmlns="http://www.w3.org/2000/svg">
<g clip-path="url(#clip0_102_6924)">
<path fill-rule="evenodd" clip-rule="evenodd" d="M143.128 16.8148C141.338 16.8161 139.89 18.2654 139.891 20.0512C139.89 21.837 141.34 23.2862 143.129 23.2876H146.367V20.0525C146.368 18.2667 144.918 16.8175 143.128 16.8148C143.129 16.8148 143.129 16.8148 143.128 16.8148M143.128 25.4469H134.497C132.707 25.4482 131.258 26.8975 131.259 28.6833C131.257 30.4691 132.706 31.9183 134.495 31.921H143.128C144.917 31.9197 146.367 30.4704 146.365 28.6846C146.367 26.8975 144.917 25.4482 143.128 25.4469V25.4469Z" fill="#36C5F0"/>
<path fill-rule="evenodd" clip-rule="evenodd" d="M163.63 28.6833C163.631 26.8975 162.181 25.4482 160.392 25.4469C158.603 25.4482 157.153 26.8975 157.154 28.6833V31.921H160.392C162.181 31.9197 163.631 30.4704 163.63 28.6833ZM154.997 28.6833V20.0512C154.999 18.2667 153.551 16.8175 151.761 16.8148C149.972 16.8161 148.522 18.2654 148.524 20.0512V28.6833C148.521 30.4691 149.97 31.9183 151.76 31.921C153.549 31.9197 154.999 30.4704 154.997 28.6833Z" fill="#2EB67D"/>
<path fill-rule="evenodd" clip-rule="evenodd" d="M151.76 49.1852C153.549 49.1839 154.999 47.7346 154.997 45.9488C154.999 44.163 153.549 42.7137 151.76 42.7124H148.522V45.9488C148.521 47.7333 149.97 49.1825 151.76 49.1852ZM151.76 40.5518H160.392C162.181 40.5504 163.631 39.1012 163.63 37.3154C163.632 35.5296 162.183 34.0803 160.393 34.0777H151.761C149.972 34.079 148.522 35.5283 148.524 37.3141C148.522 39.1012 149.97 40.5504 151.76 40.5518V40.5518Z" fill="#ECB22E"/>
<path fill-rule="evenodd" clip-rule="evenodd" d="M131.259 37.3154C131.258 39.1012 132.707 40.5504 134.497 40.5518C136.286 40.5504 137.736 39.1012 137.734 37.3154V34.079H134.497C132.707 34.0803 131.258 35.5296 131.259 37.3154ZM139.891 37.3154V45.9475C139.889 47.7333 141.338 49.1825 143.128 49.1852C144.917 49.1839 146.367 47.7346 146.365 45.9488V37.318C146.368 35.5322 144.918 34.083 143.129 34.0803C141.338 34.0803 139.89 35.5296 139.891 37.3154C139.891 37.3167 139.891 37.3154 139.891 37.3154Z" fill="#E01E5A"/>
</g>
<path d="M118.046 41.7553C118.29 39.7233 118.217 39.426 119.731 39.7555L120.102 39.789C121.267 39.8423 122.787 39.6031 123.683 39.1868C125.607 38.2948 126.748 36.803 124.851 37.1945C120.522 38.0866 120.225 36.6221 120.225 36.6221C124.797 29.8398 126.705 21.23 125.057 19.1237C120.559 13.3748 112.771 16.0944 112.642 16.165L112.601 16.1724C111.746 15.9953 110.789 15.8875 109.715 15.8714C107.757 15.8391 106.27 16.3843 105.13 17.2405C105.13 17.2405 91.2386 11.5163 91.873 24.439C92.0092 27.1871 95.813 45.2369 100.348 39.7853C102.005 37.7905 103.606 36.1054 103.606 36.1054C104.402 36.6345 105.341 36.9034 106.353 36.8067L106.43 36.741C106.407 36.9998 106.417 37.2605 106.461 37.5167C105.293 38.8213 105.636 39.053 103.301 39.5325C100.939 40.0194 102.326 40.8867 103.233 41.1135C104.332 41.3885 106.876 41.7776 108.592 39.3727L108.524 39.6477C108.982 40.0145 108.951 42.2831 109.016 43.9037C109.08 45.5243 109.189 47.0384 109.52 47.9304C109.851 48.8225 110.239 51.1196 113.311 50.4617C115.876 49.9116 117.839 49.1211 118.017 41.7602" fill="#231F20"/>
<path d="M118.046 41.7553C118.29 39.7233 118.217 39.426 119.731 39.7555L120.102 39.789C121.267 39.8423 122.787 39.6031 123.683 39.1868C125.607 38.2948 126.748 36.803 124.851 37.1945C120.522 38.0866 120.225 36.6221 120.225 36.6221C124.797 29.8398 126.705 21.23 125.057 19.1237C120.559 13.3748 112.771 16.0944 112.642 16.165L112.601 16.1724C111.746 15.9953 110.789 15.8875 109.715 15.8714C107.757 15.8391 106.27 16.3843 105.13 17.2405C105.13 17.2405 91.2386 11.5163 91.873 24.439C92.0092 27.1871 95.813 45.2369 100.348 39.7853C102.005 37.7905 103.606 36.1054 103.606 36.1054C104.402 36.6345 105.341 36.9034 106.353 36.8067L106.43 36.741C106.407 36.9998 106.417 37.2605 106.461 37.5167C105.293 38.8213 105.636 39.053 103.301 39.5325C100.939 40.0194 102.326 40.8867 103.233 41.1135C104.332 41.3885 106.876 41.7776 108.592 39.3727L108.524 39.6477C108.982 40.0145 108.951 42.2831 109.016 43.9037C109.08 45.5243 109.189 47.0384 109.52 47.9304C109.851 48.8225 110.239 51.1196 113.311 50.4617C115.876 49.9116 117.839 49.1211 118.017 41.7602" stroke="#231F20" stroke-width="2.598"/>
<path d="M124.861 37.1915C120.532 38.0836 120.235 36.6191 120.235 36.6191C124.807 29.8368 126.715 21.227 125.067 19.1194C120.569 13.3705 112.781 16.0901 112.652 16.1607L112.61 16.1681C111.755 15.991 110.797 15.8832 109.723 15.8671C107.766 15.8349 106.279 16.38 105.139 17.2362C105.139 17.2362 91.2472 11.512 91.8816 24.4347C92.0178 27.1853 95.8216 45.2326 100.356 39.781C102.014 37.7862 103.615 36.1012 103.615 36.1012C104.41 36.6302 105.362 36.8991 106.361 36.8024L106.439 36.7368C106.414 36.9846 106.426 37.2262 106.47 37.5124C105.301 38.817 105.644 39.0487 103.31 39.5282C100.947 40.0152 102.335 40.8825 103.242 41.1092C104.341 41.3842 106.885 41.7733 108.601 39.3684L108.532 39.6435C108.991 40.0102 109.313 42.0285 109.257 43.856C109.202 45.6836 109.168 46.9412 109.53 47.9224C109.892 48.9037 110.248 51.1116 113.321 50.4537C115.886 49.9036 117.217 48.4788 117.401 46.1024C117.533 44.4124 117.83 44.6626 117.847 43.1535L118.085 42.4386C118.36 40.1465 118.129 39.4093 119.708 39.7537L120.08 39.7872C121.245 39.8405 122.766 39.6013 123.661 39.185C125.585 38.2929 126.726 36.8012 124.829 37.1927L124.861 37.1915Z" fill="#417BA2"/>
<path d="M109.242 38.5185C109.248 38.2794 109.06 38.0803 108.821 38.0736C108.582 38.0669 108.383 38.2553 108.376 38.4943L109.242 38.5185ZM113.636 50.516L113.545 50.0927L113.545 50.0927L113.636 50.516ZM117.539 46.5512L117.966 46.6246C117.967 46.6182 117.968 46.6118 117.968 46.6054L117.539 46.5512ZM118.916 39.0934C118.946 38.8561 118.778 38.6395 118.541 38.6096C118.304 38.5797 118.087 38.7477 118.057 38.985L118.916 39.0934ZM104.978 17.5432C105.199 17.6337 105.452 17.5276 105.542 17.3062C105.633 17.0848 105.527 16.832 105.305 16.7416L104.978 17.5432ZM91.8841 24.3806L92.3167 24.3611L92.3166 24.359L91.8841 24.3806ZM100.359 39.7281L100.027 39.4503L100.026 39.4512L100.359 39.7281ZM103.828 36.4707C103.993 36.2975 103.986 36.0234 103.813 35.8585C103.64 35.6936 103.366 35.7004 103.201 35.8736L103.828 36.4707ZM112.764 16.5195C112.992 16.4497 113.121 16.2077 113.052 15.979C112.982 15.7503 112.74 15.6214 112.511 15.6912L112.764 16.5195ZM125.037 19.0789L124.696 19.3455L124.696 19.3457L125.037 19.0789ZM119.846 36.3361C119.712 36.5342 119.765 36.8034 119.963 36.9373C120.161 37.0712 120.43 37.0191 120.564 36.821L119.846 36.3361ZM124.832 37.1398L124.919 37.5639L124.919 37.5638L124.832 37.1398ZM123.663 39.1321L123.845 39.525L123.846 39.5244L123.663 39.1321ZM118.487 39.0404L118.054 39.065L118.054 39.0658L118.487 39.0404ZM118.578 33.9568L118.979 33.7917L118.979 33.7915L118.578 33.9568ZM120.412 24.4735L120.344 24.9011L120.5 24.8975L120.412 24.4735ZM101.154 26.1354C101.16 26.3744 101.359 26.5631 101.598 26.5567C101.837 26.5504 102.026 26.3514 102.02 26.1124L101.154 26.1354ZM106.462 37.4595V37.0265C106.339 37.0265 106.222 37.0789 106.14 37.1706L106.462 37.4595ZM103.303 39.4753L103.216 39.0512L103.215 39.0512L103.303 39.4753ZM103.235 41.0563L103.34 40.6362L103.34 40.6362L103.235 41.0563ZM108.593 39.3155L108.241 39.0636L108.241 39.064L108.593 39.3155ZM107.872 37.1163L108.038 36.7164L108.038 36.7162L107.872 37.1163ZM106.465 37.4595V37.8925C106.588 37.8925 106.705 37.8401 106.787 37.7484L106.465 37.4595ZM105.957 37.5027C105.994 37.7391 106.215 37.9014 106.451 37.8652C106.687 37.8289 106.85 37.608 106.813 37.3716L105.957 37.5027ZM107.033 34.6866L106.627 34.536L106.627 34.5366L107.033 34.6866ZM107.904 26.3952L107.481 26.4866L107.481 26.4877L107.904 26.3952ZM101.494 31.1592L101.923 31.2194L101.923 31.219L101.494 31.1592ZM106.396 37.178C106.634 37.1549 106.808 36.9431 106.785 36.7051C106.762 36.4671 106.55 36.2929 106.312 36.3161L106.396 37.178ZM108.376 38.4943C108.316 40.6333 108.324 42.782 108.399 44.5301C108.436 45.4037 108.49 46.1822 108.563 46.8117C108.633 47.4265 108.725 47.9427 108.853 48.2629L109.657 47.942C109.577 47.7406 109.494 47.3293 109.423 46.713C109.354 46.1114 109.301 45.3552 109.264 44.493C109.19 42.7694 109.182 40.6417 109.242 38.5185L108.376 38.4943ZM108.853 48.2629C109.062 48.7862 109.421 49.6474 110.171 50.2788C110.947 50.9323 112.079 51.2929 113.727 50.9394L113.545 50.0927C112.121 50.3983 111.271 50.0737 110.729 49.6165C110.16 49.1371 109.865 48.4619 109.657 47.942L108.853 48.2629ZM113.727 50.9394C115.049 50.6558 116.02 50.2261 116.71 49.5089C117.4 48.7908 117.757 47.8386 117.966 46.6246L117.112 46.4779C116.917 47.6142 116.604 48.3694 116.086 48.9086C115.566 49.4486 114.788 49.8261 113.545 50.0927L113.727 50.9394ZM117.968 46.6054L118.916 39.0934L118.057 38.985L117.109 46.497L117.968 46.6054ZM105.141 17.1424C105.305 16.7416 105.305 16.7415 105.305 16.7414C105.305 16.7413 105.304 16.7412 105.304 16.741C105.303 16.7408 105.303 16.7404 105.301 16.74C105.299 16.7392 105.296 16.738 105.293 16.7365C105.285 16.7335 105.274 16.7291 105.26 16.7236C105.232 16.7126 105.191 16.6967 105.139 16.6767C105.033 16.6368 104.88 16.5806 104.686 16.5139C104.298 16.3807 103.746 16.2057 103.087 16.0369C101.772 15.7006 100.006 15.3833 98.2464 15.4841C96.4873 15.5849 94.6855 16.1074 93.369 17.5016C92.0487 18.8998 91.287 21.0995 91.4517 24.4022L92.3166 24.359C92.1591 21.2016 92.8935 19.2664 93.9986 18.0962C95.1074 16.9219 96.6602 16.4424 98.2959 16.3487C99.9311 16.255 101.6 16.5506 102.872 16.8759C103.505 17.0379 104.035 17.2059 104.405 17.333C104.59 17.3965 104.734 17.4497 104.832 17.4867C104.881 17.5052 104.918 17.5197 104.943 17.5293C104.955 17.5341 104.964 17.5378 104.97 17.5401C104.973 17.5413 104.975 17.5421 104.976 17.5427C104.977 17.5429 104.977 17.5431 104.978 17.5432C104.978 17.5432 104.978 17.5432 104.978 17.5432C104.978 17.5432 104.978 17.5432 105.141 17.1424ZM91.4516 24.4001C91.4844 25.1287 91.7538 26.8044 92.2003 28.8002C92.649 30.8056 93.2842 33.1689 94.0611 35.2797C94.8305 37.3703 95.7636 39.2848 96.8374 40.3274C97.3803 40.8545 98.0115 41.2091 98.7162 41.1792C99.4236 41.1492 100.083 40.7371 100.692 40.005L100.026 39.4512C99.5013 40.0819 99.0492 40.2983 98.6795 40.314C98.307 40.3298 97.8952 40.1474 97.4407 39.7061C96.5197 38.8118 95.6408 37.0645 94.8738 34.9806C94.1143 32.9169 93.4888 30.593 93.0454 28.6111C92.5999 26.6196 92.3458 25.0078 92.3167 24.3611L91.4516 24.4001ZM100.691 40.0058C101.515 39.0203 102.3 38.1359 102.879 37.4977C103.169 37.1787 103.406 36.9214 103.571 36.7442C103.654 36.6556 103.718 36.5869 103.762 36.5406C103.784 36.5174 103.801 36.4998 103.812 36.4881C103.817 36.4822 103.821 36.4778 103.824 36.4749C103.826 36.4734 103.827 36.4724 103.827 36.4717C103.828 36.4713 103.828 36.4711 103.828 36.4709C103.828 36.4708 103.828 36.4708 103.828 36.4707C103.828 36.4707 103.828 36.4707 103.828 36.4707C103.828 36.4707 103.828 36.4707 103.515 36.1721C103.201 35.8736 103.201 35.8736 103.201 35.8736C103.201 35.8736 103.201 35.8737 103.201 35.8737C103.201 35.8738 103.201 35.8739 103.201 35.874C103.2 35.8742 103.2 35.8745 103.2 35.8749C103.199 35.8758 103.198 35.877 103.196 35.8785C103.193 35.8817 103.189 35.8864 103.183 35.8925C103.171 35.9048 103.154 35.9229 103.132 35.9467C103.087 35.9941 103.022 36.0639 102.938 36.1538C102.77 36.3335 102.53 36.5936 102.238 36.9158C101.653 37.5599 100.86 38.4534 100.027 39.4503L100.691 40.0058ZM112.511 15.6912C112.505 15.6929 112.512 15.6905 112.525 15.6876C112.529 15.6867 112.537 15.6851 112.546 15.6835C112.553 15.6823 112.575 15.6788 112.602 15.6779C112.617 15.6777 112.655 15.6794 112.677 15.682C112.714 15.6889 112.813 15.7252 112.871 15.7608C112.954 15.8395 113.045 16.0548 113.044 16.177C113.025 16.2527 112.969 16.3603 112.943 16.3942C112.9 16.4437 112.855 16.4711 112.851 16.4739C112.837 16.4829 112.825 16.489 112.82 16.4918C112.809 16.4975 112.801 16.501 112.8 16.5017C112.796 16.5036 112.795 16.5036 112.801 16.5014C112.824 16.4925 112.88 16.4723 112.969 16.4436C113.145 16.387 113.432 16.3028 113.808 16.215C114.56 16.0393 115.655 15.8518 116.905 15.8409C119.405 15.8191 122.474 16.5017 124.696 19.3455L125.378 18.8123C122.932 15.6805 119.553 14.9518 116.897 14.9749C115.568 14.9865 114.408 15.1855 113.611 15.3717C113.212 15.465 112.901 15.5556 112.704 15.6192C112.606 15.6506 112.532 15.6768 112.486 15.6946C112.475 15.699 112.461 15.7045 112.448 15.7105C112.442 15.7132 112.43 15.7185 112.417 15.7256C112.41 15.7289 112.398 15.7357 112.383 15.7452C112.378 15.7485 112.333 15.7763 112.289 15.8262C112.262 15.8602 112.207 15.968 112.188 16.0438C112.187 16.1661 112.278 16.3816 112.361 16.4604C112.419 16.496 112.518 16.5323 112.555 16.5393C112.578 16.542 112.616 16.5437 112.631 16.5434C112.677 16.5419 112.714 16.5328 112.716 16.5324C112.736 16.5279 112.754 16.5225 112.764 16.5195L112.511 15.6912ZM124.696 19.3457C125.012 19.7489 125.206 20.5514 125.189 21.7418C125.172 22.907 124.954 24.3573 124.539 25.9672C123.71 29.1862 122.109 32.9885 119.846 36.3361L120.564 36.821C122.885 33.3863 124.525 29.492 125.378 26.1833C125.804 24.5293 126.037 23.0081 126.055 21.7544C126.073 20.5259 125.887 19.4621 125.378 18.8121L124.696 19.3457ZM120.204 36.5674C119.78 36.6535 119.78 36.6541 119.78 36.6547C119.78 36.6549 119.78 36.6556 119.78 36.656C119.78 36.6569 119.78 36.6578 119.781 36.6587C119.781 36.6605 119.781 36.6624 119.782 36.6645C119.783 36.6685 119.784 36.673 119.785 36.6778C119.788 36.6874 119.791 36.6985 119.794 36.7109C119.802 36.7358 119.813 36.7661 119.828 36.8006C119.858 36.8698 119.904 36.9552 119.976 37.0474C120.12 37.2346 120.356 37.4344 120.728 37.5887C121.461 37.8919 122.719 38.0176 124.919 37.5639L124.744 36.7157C122.613 37.1553 121.558 36.9948 121.059 36.7885C120.816 36.688 120.707 36.5772 120.66 36.5174C120.636 36.4862 120.626 36.4641 120.623 36.4566C120.621 36.4528 120.621 36.4525 120.622 36.4563C120.623 36.4582 120.624 36.4612 120.625 36.4653C120.625 36.4674 120.626 36.4698 120.626 36.4724C120.627 36.4737 120.627 36.4751 120.627 36.4766C120.627 36.4774 120.628 36.4781 120.628 36.4789C120.628 36.4793 120.628 36.4799 120.628 36.4801C120.628 36.4807 120.628 36.4813 120.204 36.5674ZM124.919 37.5638C125.137 37.5188 125.29 37.5057 125.389 37.5091C125.498 37.5129 125.494 37.5347 125.454 37.504C125.383 37.4495 125.364 37.3628 125.368 37.3186C125.37 37.3018 125.37 37.3314 125.315 37.414C125.209 37.5731 124.989 37.7964 124.66 38.0419C124.337 38.2827 123.932 38.5284 123.48 38.7398L123.846 39.5244C124.35 39.2891 124.806 39.0135 125.178 38.7359C125.543 38.4629 125.851 38.1705 126.035 37.8942C126.125 37.7592 126.211 37.5912 126.23 37.4065C126.251 37.1945 126.181 36.9697 125.981 36.8166C125.812 36.6872 125.602 36.6499 125.419 36.6436C125.226 36.637 125 36.6629 124.744 36.7157L124.919 37.5638ZM123.481 38.7392C122.765 39.0708 121.552 39.2952 120.5 39.307C119.976 39.3129 119.53 39.265 119.227 39.171C119.075 39.1239 118.987 39.0735 118.943 39.0359C118.923 39.0188 118.917 39.0089 118.917 39.0084C118.917 39.0082 118.918 39.0093 118.918 39.0114C118.918 39.0123 118.919 39.0132 118.919 39.0139C118.919 39.0147 118.919 39.0151 118.919 39.015L118.054 39.0658C118.087 39.6175 118.585 39.8786 118.97 39.9981C119.397 40.1305 119.945 40.1793 120.51 40.173C121.638 40.1603 122.983 39.9244 123.845 39.525L123.481 38.7392ZM118.919 39.0158C118.885 38.4126 118.979 38.0602 119.093 37.8505C119.202 37.6497 119.352 37.5401 119.522 37.4637C119.611 37.4238 119.705 37.3933 119.806 37.364C119.894 37.3385 120.022 37.3051 120.12 37.2706C120.214 37.2376 120.371 37.1753 120.49 37.0414C120.639 36.8732 120.669 36.6647 120.626 36.4729L119.781 36.6618C119.775 36.6336 119.774 36.5433 119.842 36.467C119.879 36.4251 119.905 36.4284 119.833 36.4537C119.765 36.4774 119.693 36.495 119.565 36.5321C119.45 36.5654 119.311 36.6091 119.167 36.674C118.87 36.8073 118.554 37.0299 118.333 37.4357C118.116 37.8326 118.014 38.3611 118.054 39.065L118.919 39.0158ZM120.627 36.4733C120.575 36.2425 120.456 36.04 120.333 35.8647C120.211 35.6914 120.053 35.5001 119.904 35.313C119.598 34.9263 119.253 34.458 118.979 33.7917L118.178 34.1219C118.498 34.8978 118.9 35.4399 119.225 35.8505C119.393 36.062 119.521 36.2161 119.624 36.3622C119.725 36.5064 119.767 36.5974 119.781 36.6615L120.627 36.4733ZM118.979 33.7915C118.901 33.6041 118.724 33.286 118.519 32.9179C118.305 32.5352 118.043 32.0655 117.77 31.5416C117.221 30.4888 116.646 29.2451 116.361 28.0999C116.069 26.9269 116.117 26.0092 116.599 25.4578C117.075 24.9136 118.134 24.5472 120.344 24.9011L120.481 24.046C118.211 23.6824 116.736 23.9852 115.947 24.8878C115.164 25.7831 115.217 27.0896 115.521 28.3093C115.832 29.5568 116.445 30.8741 117.002 31.9417C117.281 32.4781 117.55 32.9584 117.762 33.3395C117.983 33.7351 118.125 33.9945 118.178 34.1221L118.979 33.7915ZM120.5 24.8975C120.776 24.8401 120.844 24.5907 120.855 24.5444C120.874 24.466 120.873 24.3913 120.87 24.3433C120.865 24.2388 120.842 24.1147 120.81 23.9853C120.746 23.72 120.628 23.3618 120.454 22.9449C120.106 22.1093 119.523 21.0074 118.66 19.9037C116.93 17.6924 114.056 15.4539 109.699 15.3825L109.685 16.2483C113.712 16.3144 116.361 18.3709 117.978 20.4373C118.788 21.4724 119.333 22.5049 119.655 23.2776C119.816 23.6649 119.918 23.9793 119.969 24.1898C119.995 24.2983 120.004 24.363 120.005 24.3898C120.006 24.4075 120.003 24.3842 120.013 24.3418C120.015 24.3315 120.068 24.1027 120.324 24.0496L120.5 24.8975ZM109.699 15.3825C107.505 15.3465 105.849 16.0056 104.612 17.0353C103.384 18.0582 102.597 19.4238 102.091 20.7652C101.584 22.1077 101.351 23.4478 101.244 24.4476C101.19 24.9487 101.167 25.3673 101.158 25.662C101.154 25.8093 101.153 25.9259 101.153 26.0065C101.153 26.0468 101.153 26.0781 101.153 26.0998C101.153 26.1106 101.154 26.1191 101.154 26.125C101.154 26.128 101.154 26.1304 101.154 26.1321C101.154 26.133 101.154 26.1337 101.154 26.1342C101.154 26.1345 101.154 26.1348 101.154 26.1349C101.154 26.1352 101.154 26.1354 101.587 26.1239C102.02 26.1124 102.02 26.1125 102.02 26.1126C102.02 26.1126 102.02 26.1126 102.02 26.1126C102.02 26.1125 102.02 26.1122 102.02 26.1118C102.02 26.111 102.019 26.1096 102.019 26.1075C102.019 26.1035 102.019 26.0969 102.019 26.088C102.019 26.0702 102.019 26.0428 102.019 26.0067C102.019 25.9343 102.02 25.8266 102.024 25.6886C102.032 25.4125 102.054 25.0161 102.105 24.5401C102.207 23.5855 102.429 22.3228 102.901 21.0709C103.374 19.818 104.089 18.5979 105.166 17.7008C106.235 16.8106 107.688 16.2156 109.685 16.2483L109.699 15.3825ZM106.14 37.1706C105.837 37.5089 105.629 37.7808 105.465 37.9884C105.297 38.2003 105.183 38.3316 105.05 38.4384C104.788 38.6469 104.388 38.8103 103.216 39.0512L103.39 39.8995C104.551 39.6608 105.147 39.4686 105.59 39.1153C105.808 38.9411 105.974 38.7399 106.143 38.5264C106.316 38.3087 106.504 38.0623 106.785 37.7483L106.14 37.1706ZM103.215 39.0512C102.611 39.1757 102.167 39.3376 101.894 39.5603C101.75 39.6779 101.628 39.8336 101.582 40.0324C101.535 40.2358 101.582 40.4219 101.661 40.5688C101.805 40.8363 102.084 41.0313 102.322 41.1619C102.578 41.3017 102.87 41.4113 103.13 41.4763L103.34 40.6362C103.146 40.5878 102.924 40.504 102.738 40.4022C102.535 40.2913 102.444 40.1965 102.424 40.1579C102.42 40.1518 102.436 40.1809 102.426 40.227C102.416 40.2687 102.398 40.2672 102.441 40.2314C102.544 40.1475 102.813 40.0183 103.39 39.8994L103.215 39.0512ZM103.129 41.4763C104.261 41.7595 107.062 42.2065 108.946 39.567L108.241 39.064C106.692 41.2342 104.406 40.9032 103.34 40.6362L103.129 41.4763ZM108.945 39.5674C109.316 39.0489 109.292 38.4113 109.104 37.9035C108.918 37.3998 108.536 36.923 108.038 36.7164L107.706 37.5161C107.927 37.6081 108.167 37.8654 108.292 38.204C108.416 38.5383 108.393 38.8511 108.241 39.0636L108.945 39.5674ZM108.038 36.7162C107.868 36.646 107.575 36.5222 107.224 36.5531C106.853 36.5858 106.492 36.7794 106.142 37.1706L106.787 37.7484C107.033 37.4742 107.203 37.4243 107.3 37.4158C107.416 37.4055 107.529 37.4428 107.706 37.5163L108.038 36.7162ZM106.465 37.0265H106.462V37.8925H106.465V37.0265ZM106.813 37.3716C106.768 37.0764 106.813 36.7258 106.934 36.2912C107.055 35.8556 107.238 35.383 107.44 34.8366L106.627 34.5366C106.434 35.0607 106.233 35.5793 106.1 36.0592C105.966 36.5403 105.885 37.0297 105.957 37.5027L106.813 37.3716ZM107.439 34.8372C107.583 34.4486 107.765 34.0863 107.974 33.6012C108.176 33.1325 108.382 32.5963 108.531 31.9429C108.83 30.631 108.894 28.8931 108.327 26.3027L107.481 26.4877C108.027 28.9822 107.952 30.5883 107.686 31.7501C107.553 32.3335 107.37 32.8166 107.179 33.2582C106.996 33.6836 106.781 34.123 106.627 34.536L107.439 34.8372ZM108.328 26.3039C108.096 25.2284 107.508 24.5788 106.728 24.2776C105.982 23.9893 105.119 24.043 104.342 24.2221C103.557 24.4031 102.806 24.7246 102.248 25.0351C101.97 25.1901 101.729 25.3484 101.551 25.4931C101.463 25.5645 101.38 25.6416 101.314 25.7215C101.266 25.7793 101.153 25.9237 101.152 26.1181L102.018 26.1222C102.018 26.2523 101.948 26.313 101.982 26.2722C101.997 26.2536 102.033 26.2172 102.097 26.1648C102.224 26.0618 102.419 25.931 102.669 25.7917C103.169 25.5136 103.844 25.2256 104.536 25.066C105.237 24.9045 105.902 24.8866 106.416 25.0854C106.898 25.2713 107.304 25.6675 107.481 26.4866L108.328 26.3039ZM101.152 26.1181C101.15 26.7053 101.4 28.6999 101.065 31.0994L101.923 31.219C102.267 28.7492 102.016 26.5634 102.018 26.1222L101.152 26.1181ZM101.065 31.0989C100.585 34.5162 103.24 37.4849 106.396 37.178L106.312 36.3161C103.786 36.5617 101.51 34.1557 101.923 31.2194L101.065 31.0989Z" fill="white"/>
<path d="M105.077 26.044C105.052 26.22 105.399 26.6883 105.849 26.7503C106.299 26.8122 106.685 26.4467 106.709 26.272C106.732 26.0973 106.387 25.9028 105.936 25.8384C105.485 25.7739 105.099 25.8669 105.076 26.0428L105.077 26.044Z" fill="white"/>
<path d="M118.798 25.686C118.822 25.8619 118.475 26.3302 118.026 26.3922C117.576 26.4541 117.189 26.0886 117.165 25.9139C117.14 25.7392 117.487 25.5447 117.938 25.4828C118.389 25.4208 118.774 25.5113 118.799 25.6872L118.798 25.686Z" fill="white"/>
<path fill-rule="evenodd" clip-rule="evenodd" d="M118.515 25.5538C118.368 25.519 118.166 25.5116 117.946 25.5418C117.725 25.5721 117.533 25.6344 117.401 25.7084C117.334 25.7454 117.286 25.7839 117.256 25.8202C117.226 25.8566 117.218 25.8857 117.222 25.9079C117.226 25.9365 117.247 25.9824 117.291 26.037C117.334 26.0901 117.394 26.1464 117.468 26.1962C117.616 26.296 117.811 26.3658 118.018 26.3372C118.226 26.3086 118.414 26.1849 118.548 26.0442C118.615 25.9742 118.666 25.9015 118.7 25.8374C118.734 25.7708 118.744 25.7219 118.741 25.6961L118.739 25.6855C118.733 25.6657 118.717 25.6439 118.685 25.6217C118.646 25.595 118.589 25.5713 118.515 25.5538ZM118.837 25.8089C118.828 25.8359 118.816 25.8634 118.802 25.8904C118.763 25.9655 118.704 26.0468 118.631 26.1236C118.486 26.2765 118.275 26.418 118.034 26.4513C117.791 26.4847 117.568 26.4027 117.404 26.2915C117.321 26.2359 117.252 26.1719 117.202 26.1093C117.152 26.0482 117.116 25.9828 117.108 25.9241C117.098 25.8589 117.125 25.7982 117.167 25.747C117.209 25.6958 117.271 25.649 117.345 25.6079C117.492 25.5254 117.699 25.4595 117.93 25.4278C118.161 25.3961 118.377 25.403 118.541 25.4418C118.623 25.4612 118.695 25.4893 118.75 25.527C118.805 25.5648 118.847 25.616 118.856 25.6812L118.88 25.8517L118.837 25.8089ZM105.332 25.7965C105.496 25.7573 105.713 25.7505 105.944 25.7834C106.174 25.8164 106.381 25.8829 106.528 25.9657C106.602 26.007 106.663 26.0539 106.706 26.105C106.748 26.1562 106.774 26.2167 106.766 26.2818C106.758 26.3407 106.722 26.4061 106.672 26.4673C106.622 26.53 106.553 26.5939 106.471 26.6496C106.307 26.7607 106.084 26.8427 105.841 26.8093C105.599 26.776 105.389 26.6346 105.243 26.4816C105.17 26.4049 105.112 26.3235 105.073 26.2484C105.041 26.1874 105.019 26.1243 105.018 26.0688L105.015 26.0655L105.019 26.0372C105.027 25.9719 105.069 25.9205 105.124 25.8824C105.178 25.8444 105.25 25.8161 105.332 25.7965ZM105.136 26.0384L105.134 26.0541C105.13 26.0799 105.14 26.1288 105.175 26.1955C105.208 26.2596 105.26 26.3322 105.327 26.4023C105.461 26.543 105.649 26.6667 105.857 26.6953C106.064 26.7239 106.259 26.6541 106.406 26.5543C106.48 26.5045 106.54 26.4482 106.583 26.3951C106.627 26.3406 106.648 26.2948 106.652 26.2664C106.655 26.2441 106.647 26.2147 106.617 26.1783C106.587 26.1419 106.538 26.1033 106.472 26.0661C106.34 25.9918 106.148 25.9289 105.927 25.8974C105.707 25.8659 105.506 25.8734 105.359 25.9085C105.285 25.9261 105.228 25.9499 105.189 25.9768C105.159 25.9983 105.143 26.0193 105.136 26.0384Z" fill="white"/>
<path fill-rule="evenodd" clip-rule="evenodd" d="M120.391 24.1254C120.582 24.1151 120.745 24.2614 120.755 24.4523C120.794 25.1767 120.715 25.784 120.625 26.3789C120.615 26.4479 120.604 26.5167 120.594 26.5855C120.513 27.1115 120.432 27.6355 120.412 28.2608L120.412 28.2612C120.396 28.7657 120.448 29.295 120.514 29.8606C120.525 29.9519 120.536 30.0442 120.547 30.1375C120.604 30.6143 120.665 31.1148 120.69 31.6212C120.75 32.8446 120.608 34.1474 119.734 35.4516C119.628 35.6104 119.413 35.6529 119.254 35.5465C119.095 35.4401 119.053 35.2251 119.159 35.0663C119.921 33.9297 120.054 32.7935 119.998 31.6553C119.975 31.1755 119.918 30.7033 119.861 30.2266C119.849 30.1317 119.838 30.0366 119.827 29.9412C119.76 29.3743 119.702 28.7999 119.72 28.2389C119.741 27.5691 119.829 27.0035 119.91 26.479C119.92 26.4104 119.931 26.3425 119.941 26.2752C120.029 25.6905 120.099 25.1406 120.064 24.4897C120.054 24.2988 120.2 24.1357 120.391 24.1254Z" fill="white"/>
<path d="M23.6594 14.0883L9.90286 20.7044C9.7821 20.7624 9.67598 20.8469 9.59238 20.9515C9.50879 21.0561 9.44985 21.1782 9.41996 21.3087L6.02237 36.1746C5.99254 36.3051 5.99254 36.4406 6.02237 36.571C6.05219 36.7015 6.11107 36.8235 6.19464 36.9281L15.7146 48.8498C15.7981 48.9544 15.9042 49.0389 16.0249 49.0969C16.1456 49.155 16.2779 49.1851 16.4119 49.1852H31.6809C31.9523 49.1852 32.2089 49.0616 32.3782 48.8498L41.8982 36.9281C41.9817 36.8235 42.0406 36.7015 42.0705 36.571C42.1003 36.4406 42.1003 36.3051 42.0705 36.1746L38.6728 21.3087C38.643 21.1782 38.5841 21.0561 38.5005 20.9515C38.4169 20.8468 38.3107 20.7624 38.1899 20.7044L24.4334 14.0883C24.3127 14.0302 24.1804 14 24.0464 14C23.9124 14 23.7801 14.0302 23.6594 14.0883Z" fill="#0865AD"/>
<path d="M19.1687 26.4804H22.1993V32.4537H22.2597C22.5607 31.9322 22.8818 31.4515 23.1828 30.9704L26.2539 26.4804H30.0069L25.5313 32.2329L30.2477 39.9901H26.6755L23.3636 34.1573L22.1993 35.5803V39.9901H19.1687V26.4804Z" fill="white"/>
<path d="M40.7451 14.0775L35.3367 16.0432C35.2382 16.0792 35.1555 16.1485 35.1031 16.2392L32.2254 21.2166C32.173 21.3074 32.1542 21.4137 32.1725 21.5169L33.1718 27.1772C33.1899 27.2804 33.2439 27.3738 33.3243 27.4411L37.7334 31.1354C37.8136 31.2028 37.9151 31.2397 38.0199 31.2397H43.7753C43.8802 31.2397 43.9817 31.2028 44.0621 31.1354L48.471 27.4411C48.5513 27.3738 48.6053 27.2803 48.6234 27.1772L49.6229 21.5169C49.641 21.4137 49.6222 21.3074 49.5697 21.2166L46.6923 16.2392C46.6398 16.1485 46.5571 16.0791 46.4585 16.0432L41.0501 14.0775C40.9516 14.0417 40.8436 14.0417 40.7451 14.0775Z" fill="#6695CA"/>
<path d="M39.8489 20.6314C39.9547 20.5292 40.0668 20.4338 40.1846 20.3456C40.3003 20.2593 40.4241 20.1844 40.5543 20.122C40.6844 20.0596 40.8249 20.0113 40.9758 19.9766C41.1267 19.9419 41.2904 19.9247 41.4673 19.9247C41.7588 19.9247 42.0173 19.9749 42.2428 20.0754C42.4684 20.1758 42.6583 20.3164 42.8128 20.4963C42.9672 20.6765 43.0834 20.8913 43.1614 21.1407C43.2395 21.39 43.2787 21.6639 43.2787 21.9618V25.3659H41.8472V21.9618C41.8472 21.6639 41.7779 21.4325 41.6395 21.2679C41.5005 21.1034 41.296 21.0212 41.025 21.0212C40.8241 21.0212 40.6351 21.0644 40.4578 21.1511C40.2808 21.2378 40.1127 21.3588 39.9534 21.5149V25.3659H38.5167V20.0076H39.4014C39.5818 20.0076 39.7015 20.0908 39.7608 20.2572L39.8489 20.6314Z" fill="white"/>
<g clip-path="url(#clip1_102_6924)">
<path d="M84.7881 42.2056C82.8353 43.2242 72.7203 47.3829 70.5667 48.5053C68.4132 49.6277 67.2171 49.617 65.5155 48.8041C63.814 47.9911 53.05 43.6433 51.1099 42.7159C50.1398 42.2522 49.6315 41.8622 49.6315 41.4936V37.7947C49.6315 37.7947 63.6462 34.7438 65.9094 33.9318C68.1726 33.1199 68.9554 33.0908 70.882 33.796C72.8086 34.5012 84.3205 36.5782 86.2228 37.2757V40.9232C86.2228 41.2889 85.7843 41.6992 84.79 42.2075L84.7881 42.2056Z" fill="#A41E11"/>
<path d="M84.7881 38.5057C82.8353 39.5243 72.7203 43.683 70.5667 44.8054C68.4132 45.9278 67.2171 45.9171 65.5155 45.1042C63.814 44.2913 53.05 39.9434 51.1099 39.016C49.1697 38.0886 49.1309 37.4513 51.0352 36.7053L65.9084 30.9469C68.1706 30.1359 68.9545 30.1058 70.881 30.8111C72.8076 31.5163 82.8615 35.5179 84.7628 36.226C86.6642 36.9342 86.7389 37.4968 84.7861 38.5154L84.7881 38.5057Z" fill="#D82C20"/>
<path d="M84.7881 36.1737C82.8353 37.1922 72.7203 41.351 70.5667 42.4733C68.4132 43.5957 67.2171 43.5851 65.5155 42.7721C63.814 41.9592 53.05 37.6113 51.1099 36.6839C50.1398 36.2202 49.6315 35.8303 49.6315 35.4616V31.7627C49.6315 31.7627 63.6462 28.7118 65.9094 27.8999C68.1726 27.0879 68.9554 27.0588 70.882 27.7641C72.8086 28.4693 84.3205 30.5462 86.2228 31.2437V34.8912C86.2228 35.2569 85.7843 35.6673 84.79 36.1756L84.7881 36.1737Z" fill="#A41E11"/>
<path d="M84.7881 32.4747C82.8353 33.4933 72.7203 37.6521 70.5667 38.7744C68.4132 39.8968 67.2171 39.8861 65.5155 39.0732C63.814 38.2603 53.05 33.9124 51.1099 32.985C49.1697 32.0576 49.1309 31.4203 51.0352 30.6743L65.9084 24.9169C68.1706 24.1049 68.9545 24.0758 70.881 24.7811C72.8076 25.4863 82.8615 29.4888 84.7648 30.1844C86.6681 30.8799 86.7408 31.4552 84.7881 32.4738V32.4747Z" fill="#D82C20"/>
<path d="M84.7881 29.9186C82.8353 30.9372 72.7203 35.0959 70.5667 36.2193C68.4132 37.3426 67.2171 37.331 65.5155 36.518C63.814 35.7051 53.05 31.3572 51.1099 30.4298C50.1398 29.9661 49.6315 29.5762 49.6315 29.2075V25.5067C49.6315 25.5067 63.6462 22.4558 65.9094 21.6438C68.1726 20.8319 68.9554 20.8028 70.882 21.508C72.8086 22.2133 84.3205 24.2902 86.2228 24.9877V28.6352C86.2228 29.0009 85.7843 29.4113 84.79 29.9196L84.7881 29.9186Z" fill="#A41E11"/>
<path d="M84.7881 26.2187C82.8353 27.2373 72.7203 31.396 70.5667 32.5184C68.4132 33.6408 67.2171 33.6301 65.5155 32.8172C63.814 32.0043 53.05 27.6564 51.1099 26.729C49.1697 25.8016 49.1309 25.1642 51.0352 24.4183L65.9084 18.6608C68.1706 17.8489 68.9545 17.8198 70.881 18.525C72.8076 19.2303 82.8615 23.2328 84.7648 23.9284C86.6681 24.6239 86.7408 25.1992 84.7881 26.2178V26.2187Z" fill="#D82C20"/>
<path d="M68.84 24.6938L67.6934 22.7876L64.0323 22.4577L66.764 21.4721L65.9443 19.9588L68.5014 20.958L70.913 20.1683L70.2612 21.7321L72.7193 22.6537L69.5491 22.9835L68.84 24.6938ZM62.7324 28.4887L71.2109 27.1869L68.6499 30.943L62.7324 28.4887Z" fill="white"/>
<path d="M60.4469 27.1199C62.9499 27.1199 64.9791 26.3334 64.9791 25.3631C64.9791 24.3929 62.9499 23.6063 60.4469 23.6063C57.9438 23.6063 55.9147 24.3929 55.9147 25.3631C55.9147 26.3334 57.9438 27.1199 60.4469 27.1199Z" fill="white"/>
<path d="M81.4859 25.107L76.4706 27.0879L76.4667 23.1232L81.4859 25.107Z" fill="#7A0C00"/>
<path d="M76.4716 27.0879L75.9284 27.3013L70.9169 25.3204L76.4687 23.1242L76.4716 27.0879Z" fill="#AD2115"/>
</g>
<defs>
<clipPath id="clip0_102_6924">
<rect width="32.3704" height="32.3704" fill="white" transform="translate(131.259 16.8148)"/>
</clipPath>
<clipPath id="clip1_102_6924">
<rect width="36.5926" height="36.5926" fill="white" transform="translate(49.6296 15.4074)"/>
</clipPath>
</defs>
</svg>
