<svg width="170" height="68" viewBox="0 0 170 68" fill="none" xmlns="http://www.w3.org/2000/svg">
<path d="M83.9323 55.1475C83.9381 55.1475 83.944 55.165 83.944 55.2002C83.9498 55.446 83.9557 55.686 83.9615 55.9319C83.9967 55.7445 84.0318 55.5572 84.0728 55.3641C84.0435 55.007 83.7625 55.1885 83.9323 55.1475Z" fill="#FEFEFE"/>
<path d="M99.2898 35.1283C99.2845 35.1336 99.2739 35.1336 99.2686 35.1389C99.2739 35.1442 99.2845 35.1495 99.2898 35.1548C99.2845 35.1495 99.2898 35.1389 99.2898 35.1283Z" fill="#FEFEFE"/>
<path d="M89.6161 10.5551V10.5606H89.6329C89.6273 10.5606 89.6217 10.5551 89.6161 10.5551Z" fill="#FEFEFE"/>
<path d="M97.8403 59.9064C97.9164 59.0576 97.8754 58.1972 97.9808 57.3543C98.2149 55.4987 97.9925 53.6021 98.4784 51.77C98.7184 50.8217 97.9515 49.7095 98.9349 48.8783L98.6891 48.0705C98.414 47.6139 98.5544 47.1691 98.7183 46.7242C98.7008 45.0969 98.7183 43.4696 99.011 41.8599C99.0988 39.6238 99.1925 37.3878 99.2803 35.1459C99.2744 35.14 99.2627 35.1342 99.2569 35.1283C94.4745 37.3234 89.9673 34.2503 89.2005 30.5625C88.6971 28.1392 88.9663 25.8504 90.857 24.0007C91.1731 23.6905 91.4424 23.3334 91.7351 22.9939C92.5077 18.3637 91.9692 14.114 88.0122 10.8009C88.6034 10.4614 89.1361 10.6546 89.6161 10.5668L89.6161 10.5606C84.7635 9.34308 78.8748 12.6624 76.9256 17.7316C76.3194 19.2296 76.0458 20.8414 76.1236 22.4555C80.9353 20.2252 85.2493 22.8886 86.4376 26.9451C87.6727 31.1655 84.383 35.6318 80.0104 35.6962C78.7583 35.7022 77.5127 35.5167 76.3168 35.146C76.4046 37.4757 76.4944 39.8054 76.5861 42.1351C76.7558 43.6629 76.9373 45.1848 76.8612 46.7243C76.8729 47.0872 76.8846 47.4501 76.8963 47.813C76.8846 48.053 76.8729 48.293 76.8612 48.5389C77.2183 50.0023 77.2943 51.5066 77.4056 53.0051C77.395 52.9667 77.3871 52.9276 77.3822 52.8881C77.388 52.929 77.3997 52.9642 77.4056 53.0051C77.5226 55.5514 77.5929 58.1036 77.7743 60.6499C77.8504 61.7035 77.4699 62.2303 76.4983 62.4996C75.351 62.8216 74.2212 63.2079 73.0856 63.5708C74.5841 63.7592 76.0954 63.8258 77.6046 63.7698C79.226 63.7347 79.9636 63.0147 80.1216 61.405C80.2211 60.3806 80.3089 59.3562 80.4026 58.3319C80.5079 56.4763 80.6133 54.6149 80.7187 52.7593H80.947V58.0568C80.9762 58.8587 80.9879 59.6665 81.0406 60.4684C81.2748 64.2088 81.386 64.1854 77.6573 64.9405C77.5719 64.9671 77.4895 65.0024 77.4114 65.0459C77.6339 65.1922 77.8563 65.3386 78.0787 65.4908C78.1125 65.4962 78.1447 65.509 78.173 65.5282C78.2013 65.5475 78.2251 65.5726 78.2426 65.602C79.1324 65.6078 80.028 65.6839 80.906 65.602C82.504 65.4498 83.2591 64.5952 83.3762 63.0089C83.4464 61.9903 83.5518 60.9718 83.6396 59.9533C83.4991 58.6012 83.704 57.2724 83.9557 55.9436C83.9499 55.6978 83.944 55.4578 83.9381 55.2119C83.9381 55.1768 83.9264 55.1534 83.9264 55.1592C83.7567 55.2002 84.0376 55.0188 84.0669 55.3758C84.0962 55.2178 84.1313 55.0597 84.1606 54.9017V61.0362C84.1781 61.7562 84.2015 62.4703 84.2133 63.1903C84.2425 65.7952 84.0786 66.0293 81.5967 66.7727C80.9119 66.9776 80.1977 67.1005 79.5187 67.3288C79.027 67.4985 78.4007 67.4049 77.9383 67.9844C79.9577 67.9083 81.8484 68.1366 83.7274 67.8322C85.6708 67.5161 86.4435 66.7317 86.8415 64.8352C87.1342 63.442 87.2571 62.0079 87.7898 60.5972C87.8501 60.6936 87.9011 60.7955 87.942 60.9016C88.2112 62.2186 88.4805 63.5415 88.7381 64.8586C89.101 66.7025 89.8502 67.4868 91.7234 67.8146C93.6609 68.1483 95.6218 67.92 97.6296 67.9668C97.3428 67.4751 96.8921 67.5571 96.5291 67.4517C95.2823 67.0888 94.0121 66.7786 92.7887 66.3571C91.899 66.0469 91.2609 65.4791 91.2727 64.3845C91.3019 61.3874 91.2844 58.3904 91.2844 55.3934H91.6473C91.7761 57.2724 91.9283 59.1455 92.0278 61.0245C92.2561 65.3679 92.7712 65.842 97.1321 65.602C97.3779 65.1922 97.9808 65.5142 98.2091 65.0752C97.1613 65.0693 96.2482 64.5659 95.2882 64.244C95.0293 64.1548 94.8073 63.9824 94.6569 63.7536C94.5065 63.5248 94.4362 63.2526 94.457 62.9796C94.5038 59.9006 94.3867 56.81 94.8023 53.7427C95.054 56.3183 95.2531 58.8997 95.4521 61.4752C95.5457 62.6811 96.0901 63.6235 97.3545 63.7054C99.0637 63.8225 100.779 63.7347 102.494 63.7347C101.602 63.3208 100.678 62.9801 99.731 62.7162C97.6355 62.043 97.6471 62.0371 97.8403 59.9064ZM84.6581 15.9872C84.6543 16.399 84.4891 16.7928 84.1979 17.084C83.9067 17.3752 83.5129 17.5405 83.1011 17.5442C82.1821 17.5618 81.4913 17.035 81.4738 15.8409C81.5733 14.9745 82.0591 14.3833 83.0894 14.3599C84.184 14.3424 84.6757 15.0799 84.6581 15.9872ZM91.6941 41.5906C91.6999 43.9613 89.8853 46.0276 87.8132 46.0218C85.8581 46.0159 83.862 43.7096 83.9323 41.5321C83.8269 40.8882 83.7157 40.2385 83.5693 39.337C84.9683 40.2911 86.1449 41.2687 87.7195 41.3038C89.3292 41.3331 90.5936 40.5077 91.9107 39.5419C92.1916 40.3146 91.4833 40.9175 91.6941 41.5906Z" fill="#FE733E"/>
<path d="M76.867 46.7183C76.75 46.6774 76.6387 46.6247 76.5275 46.5837C74.9236 45.9281 73.5363 44.9213 72.2486 43.8033C67.6009 39.7877 64.5336 34.7595 63.7902 28.6601C62.9473 21.7295 64.4985 15.3316 69.1228 9.83511C73.3432 4.82447 78.7226 1.90355 85.144 1.23039C92.2794 0.486989 98.6891 2.48305 104.086 7.41174C108.587 11.5209 111.216 16.6135 111.889 22.6017C112.462 27.7002 111.543 32.6289 108.921 37.1068C106.539 41.1751 103.366 44.4765 99.0754 46.5662C98.9583 46.6247 98.8413 46.6832 98.7242 46.7359C98.5603 47.1808 98.414 47.6257 98.6949 48.0822C98.7865 47.9837 98.8886 47.8953 98.9993 47.8188C105.479 44.3887 109.975 39.2902 112.076 32.1957C112.258 31.5928 112.539 31.2943 113.212 31.3645C114.125 31.4582 114.371 30.8494 114.371 30.0884C114.377 27.1675 114.378 24.2485 114.377 21.3315C114.377 20.7052 114.224 20.0145 113.575 19.9442C112.38 19.8037 112.234 18.9315 111.994 18.0828C110.589 13.1424 107.885 9.03319 103.869 5.87812C95.6159 -0.60177 86.5546 -1.77248 77.0484 2.60598C69.9832 5.8547 65.4818 11.4917 63.4447 19.0369C63.316 19.5052 63.3745 20.0613 62.5784 19.8974C61.4428 19.6632 61.0155 20.3305 61.0097 21.3374C60.9921 24.2583 61.0038 27.1734 61.0038 30.0943C61.0038 31.066 61.4955 31.5811 62.4321 31.3528C63.2926 31.1421 63.4975 31.5694 63.6731 32.225C64.434 35.0001 65.7066 37.6086 67.4252 39.9165C69.9422 43.3292 73.0095 46.0686 76.9079 47.813C76.8962 47.4501 76.8846 47.0813 76.867 46.7183Z" fill="#B5D2F3"/>
<path d="M76.8729 48.533C76.0066 50.9622 73.7003 50.9036 71.7393 51.5124C73.2144 51.8929 74.7129 52.3319 76.188 52.0802C77.066 51.928 77.2358 52.2441 77.3646 52.7651C77.3763 52.8061 77.3821 52.847 77.3938 52.888C77.3997 52.9231 77.4114 52.9641 77.4173 53.0051C77.306 51.5007 77.2299 50.0022 76.8729 48.533Z" fill="#FE684B"/>
<path d="M98.4784 51.7758C100.351 52.6246 102.119 51.77 103.928 51.5241C102.16 50.7749 99.8715 51.1612 98.9408 48.8842C97.9515 49.7154 98.7183 50.8275 98.4784 51.7758Z" fill="#FE6446"/>
<path d="M75.228 65.5902H78.2485C78.1958 65.5551 78.1372 65.52 78.0846 65.479C77.8621 65.3327 77.6397 65.1863 77.4173 65.0341C76.7558 64.999 76.1353 65.1453 75.228 65.5902Z" fill="#FE733E"/>
<path d="M97.132 65.5902H100.071C99.4735 65.2449 98.8881 64.9522 98.2091 65.0634C97.9808 65.5083 97.372 65.1805 97.132 65.5902Z" fill="#FE733E"/>
<path d="M99.0813 46.5603C103.372 44.4764 106.539 41.175 108.927 37.101C111.549 32.623 112.468 27.6943 111.895 22.5959C111.222 16.6018 108.599 11.5092 104.092 7.40588C98.6949 2.48305 92.2853 0.48113 85.1498 1.23037C78.7343 1.89768 73.349 4.82445 69.1286 9.8351C64.4985 15.3316 62.9531 21.7295 63.796 28.6601C64.5394 34.7654 67.6067 39.7877 72.2544 43.8033C73.5481 44.9213 74.9354 45.934 76.5334 46.5837C76.6446 46.6305 76.7558 46.6774 76.8729 46.7183C76.949 45.1789 76.7675 43.6569 76.5978 42.1292C76.4807 42.0472 76.3636 41.9653 76.2466 41.8775C75.0583 41.017 74.0398 39.9575 73.0154 38.9156C72.7052 38.5995 72.3188 38.3302 72.3188 37.8151C71.6281 38.3126 71.1306 37.9673 70.7267 37.4171C68.4789 34.3498 67.1209 30.9489 66.9394 27.1206C66.7755 23.7373 67.0799 20.4476 68.5023 17.2808C70.3111 13.2594 73.0915 10.1863 76.8261 7.90343C77.4582 7.5171 77.8212 7.86248 78.2602 8.14928C78.4685 8.1411 78.6727 8.08887 78.8593 7.99605C79.046 7.90323 79.2109 7.77191 79.3431 7.61075L79.2904 7.48783C78.9158 6.6976 78.8982 5.80201 79.7997 5.59128C80.707 5.37469 81.2221 6.11225 81.2279 7.06637C88.0005 4.84203 94.2989 5.74347 99.9827 10.081C104.232 13.3238 106.667 17.673 107.411 22.9763C108.371 29.7957 106.065 35.4503 101.311 40.2326C100.75 40.808 100.107 41.2972 99.4032 41.6843C99.2803 41.7487 99.1574 41.8072 99.0344 41.8657C98.7418 43.4755 98.7242 45.1028 98.7418 46.73C98.8471 46.6774 98.9584 46.6188 99.0813 46.5603Z" fill="#E2F5FC"/>
<path d="M101.3 40.2385C106.047 35.4561 108.353 29.8016 107.399 22.9822C106.656 17.673 104.221 13.3238 99.971 10.0868C94.2872 5.74933 87.9829 4.85374 81.2162 7.07224C81.2045 7.07801 81.1928 7.0898 81.1811 7.09563C80.6484 7.43514 80.2328 8.16683 79.466 7.71025C79.4192 7.68096 79.3782 7.65756 79.3314 7.62245C79.1996 7.78409 79.0348 7.91574 78.8481 8.00861C78.6613 8.10148 78.4569 8.15342 78.2485 8.16096C78.2309 8.23121 78.2075 8.2956 78.1841 8.36584C77.6982 9.72972 76.2407 10.0868 75.2632 10.9063C72.6115 13.1248 70.6447 15.7823 69.4857 19.0018C67.6243 24.188 68.0047 29.2689 70.4984 34.1742C70.9124 34.9698 71.3921 35.7295 71.9325 36.4453C72.227 36.8354 72.3611 37.3234 72.3071 37.8092V37.8268C72.3071 38.336 72.6934 38.6111 73.0037 38.9272C74.0339 39.9692 75.0466 41.0287 76.2348 41.8891C76.3519 41.9711 76.469 42.0589 76.5861 42.1408C76.4982 39.8111 76.4085 37.4814 76.3168 35.1517C76.311 35.1517 76.311 35.1458 76.3051 35.1458C74.2797 33.8171 72.7929 32.1196 72.5354 29.5908C72.2134 26.4709 73.5246 24.1646 76.0768 22.4846C76.0885 22.4788 76.1002 22.4671 76.1119 22.4612C76.0331 20.847 76.3067 19.2351 76.9139 17.7374C78.8631 12.6741 84.7518 9.34924 89.6044 10.5668C89.6075 10.5664 89.6107 10.5667 89.6138 10.5677C89.6168 10.5687 89.6196 10.5704 89.6219 10.5726C92.8414 11.0935 95.4872 12.5628 97.3837 15.2613C98.8998 17.4212 99.6842 19.8036 99.5203 22.4611C101.347 23.8484 102.822 25.4757 103.062 27.8815C103.384 31.1185 102.002 33.4834 99.2803 35.1341V35.1633C99.1925 37.3994 99.0988 39.6354 99.011 41.8774C99.1398 41.8188 99.2627 41.7603 99.3798 41.6959C100.091 41.3118 100.739 40.8203 101.3 40.2385Z" fill="#CDECF6"/>
<path d="M93.415 22.1978C95.4228 21.2086 97.372 21.7412 99.3096 22.3793C99.3798 22.4027 99.4559 22.4261 99.5261 22.4495C99.69 19.7862 98.9057 17.4038 97.3896 15.2497C95.493 12.5512 92.8472 11.0819 89.6278 10.561H89.6102C89.1302 10.6546 88.5975 10.4556 88.0063 10.7951C91.9633 14.1082 92.5077 18.3579 91.7292 22.988C91.8521 22.9295 91.9692 22.8768 92.0921 22.8183C92.5428 22.6134 92.9819 22.4144 93.415 22.1978Z" fill="#FE6B3C"/>
<path d="M103.073 27.8758C102.833 25.47 101.358 23.8427 99.532 22.4554C99.4618 22.432 99.3857 22.4085 99.3154 22.3851C97.372 21.7471 95.4287 21.2144 93.4209 22.2037C92.9877 22.4203 92.5429 22.6251 92.1038 22.83C91.9809 22.8885 91.8638 22.9412 91.7409 22.9998C91.4482 23.3334 91.179 23.6963 90.8629 24.0066C88.9663 25.8563 88.7029 28.145 89.2063 30.5684C89.9731 34.262 94.4804 37.3351 99.2686 35.1459C99.2744 35.1401 99.2861 35.1401 99.292 35.1342C102.014 33.4776 103.401 31.1069 103.073 27.8758ZM95.9145 34.3439C95.1841 34.3377 94.462 34.1873 93.7898 33.9015C93.1176 33.6156 92.5085 33.1998 91.9973 32.678C91.4862 32.1561 91.0831 31.5385 90.8111 30.8606C90.5392 30.1826 90.4038 29.4576 90.4126 28.7272C90.4215 27.9968 90.5745 27.2753 90.8628 26.6042C91.1511 25.933 91.569 25.3254 92.0927 24.8161C92.6164 24.3068 93.2354 23.9059 93.9144 23.6364C94.5933 23.3669 95.3188 23.2341 96.0491 23.2456C99.1632 23.269 101.546 25.7217 101.522 28.8709C101.499 31.9967 99.0637 34.3732 95.9145 34.3439Z" fill="#FE6142"/>
<path d="M76.0827 22.4729C73.5305 24.1529 72.2193 26.4592 72.5413 29.5791C72.7988 32.1079 74.2856 33.8054 76.3109 35.1342C76.3168 35.1342 76.3168 35.14 76.3227 35.14C77.5185 35.5111 78.7642 35.6967 80.0162 35.6902C84.383 35.6258 87.6786 31.1654 86.4435 26.9392C85.2552 22.8827 80.9353 20.2193 76.1295 22.4495C76.1128 22.4548 76.097 22.4628 76.0827 22.4729ZM79.5714 34.3439C76.3812 34.3556 73.911 31.9089 73.9227 28.7362C73.9285 25.6221 76.3578 23.2105 79.4894 23.1929C80.2272 23.1787 80.9604 23.311 81.6466 23.5822C82.3329 23.8534 82.9584 24.2581 83.4871 24.7728C84.0158 25.2876 84.437 25.9021 84.7264 26.5809C85.0159 27.2597 85.1677 27.9891 85.1731 28.727C85.1785 29.4648 85.0374 30.1964 84.758 30.8793C84.4786 31.5623 84.0665 32.183 83.5454 32.7054C83.0244 33.2279 82.4048 33.6418 81.7226 33.923C81.0405 34.2043 80.3092 34.3474 79.5714 34.3439Z" fill="#FE6143"/>
<path d="M84.6698 42.0472C84.4532 41.8306 84.2952 41.538 83.9323 41.5321C83.862 43.7096 85.8522 46.0159 87.8132 46.0218C89.8912 46.0276 91.6999 43.9613 91.6941 41.5906C90.9097 41.9945 90.4122 42.8257 89.5107 43.0716C87.7137 43.5633 86.063 43.4403 84.6698 42.0472Z" fill="#070909"/>
<path d="M91.9107 39.5419C90.5936 40.5077 89.3351 41.3331 87.7195 41.3038C86.1391 41.2745 84.9683 40.2911 83.5693 39.337C83.7215 40.2385 83.8269 40.8824 83.9323 41.5321C84.2952 41.5438 84.4532 41.8306 84.6698 42.0472C86.0571 43.4404 87.7137 43.5633 89.5107 43.0716C90.4122 42.8257 90.9097 42.0004 91.6941 41.5906C91.4833 40.9175 92.1916 40.3146 91.9107 39.5419Z" fill="#FDFCFB"/>
<path d="M83.0894 14.3658C82.0533 14.3833 81.5674 14.9745 81.4738 15.8467C81.4913 17.0408 82.1821 17.5618 83.1011 17.5501C83.5128 17.5463 83.9067 17.381 84.1979 17.0899C84.4891 16.7987 84.6543 16.4048 84.6581 15.993C84.6757 15.0799 84.184 14.3423 83.0894 14.3658Z" fill="#FEA777"/>
<path d="M72.3071 37.8034C72.3611 37.3176 72.2271 36.8296 71.9325 36.4395C71.3941 35.7223 70.9145 34.9627 70.4984 34.1683C68.0048 29.2631 67.6184 24.1822 69.4857 18.9959C70.6447 15.7765 72.6115 13.119 75.2632 10.9005C76.2407 10.081 77.6982 9.72976 78.1841 8.36003C78.209 8.29288 78.2305 8.2245 78.2485 8.15515C77.8095 7.86833 77.4465 7.52297 76.8143 7.9093C73.0798 10.1922 70.2993 13.2653 68.4906 17.2867C67.0682 20.4534 66.7638 23.7432 66.9277 27.1265C67.115 30.9489 68.4672 34.3556 70.7149 37.4229C71.1188 37.9731 71.6222 38.3185 72.3071 37.821L72.3071 37.8034Z" fill="#FDFEFE"/>
<path d="M81.1752 7.09565C81.187 7.08988 81.1987 7.07809 81.2104 7.07226C81.1987 6.11812 80.6894 5.38057 79.7821 5.59715C78.8807 5.81374 78.8982 6.70934 79.2728 7.49371L79.3255 7.61663C79.3686 7.64865 79.4135 7.67797 79.4602 7.70444C80.227 8.16687 80.6426 7.4293 81.1752 7.09565Z" fill="#FBFDFE"/>
<path d="M101.522 28.8767C101.546 25.7334 99.1632 23.2807 96.0491 23.2515C95.3187 23.24 94.5933 23.3728 93.9144 23.6423C93.2354 23.9118 92.6164 24.3127 92.0927 24.8219C91.569 25.3312 91.1511 25.9388 90.8628 26.61C90.5745 27.2812 90.4215 28.0026 90.4126 28.7331C90.4038 29.4635 90.5392 30.1885 90.8111 30.8664C91.0831 31.5444 91.4862 32.162 91.9973 32.6838C92.5085 33.2056 93.1176 33.6214 93.7898 33.9073C94.462 34.1932 95.184 34.3436 95.9145 34.3498C99.0637 34.3732 101.499 31.9967 101.522 28.8767ZM96.1896 29.4855C95.136 29.503 94.5214 28.906 94.4277 27.8699C94.4131 27.6348 94.4476 27.3993 94.529 27.1782C94.6104 26.9572 94.7368 26.7555 94.9003 26.586C95.0638 26.4164 95.2608 26.2827 95.4787 26.1934C95.6966 26.1041 95.9307 26.061 96.1662 26.067C97.1964 26.1431 97.7759 26.746 97.8989 27.8231C97.7584 28.7831 97.2667 29.4679 96.1896 29.4855Z" fill="#FEFEFE"/>
<path d="M79.4894 23.1988C78.7581 23.1905 78.0324 23.328 77.3548 23.6033C76.6771 23.8787 76.0612 24.2863 75.5429 24.8024C75.0247 25.3185 74.6144 25.9327 74.3362 26.6092C74.058 27.2856 73.9175 28.0107 73.9227 28.7421C73.9169 31.9147 76.3812 34.3615 79.5714 34.3498C80.3092 34.3532 81.0405 34.2101 81.7226 33.9289C82.4048 33.6476 83.0244 33.2338 83.5454 32.7113C84.0665 32.1888 84.4786 31.5681 84.758 30.8852C85.0374 30.2023 85.1785 29.4707 85.1731 28.7328C85.1677 27.995 85.0159 27.2655 84.7264 26.5868C84.437 25.908 84.0158 25.2934 83.4871 24.7787C82.9584 24.2639 82.3329 23.8592 81.6466 23.588C80.9604 23.3168 80.2272 23.1845 79.4894 23.1988ZM79.4953 29.4855C78.4533 29.4972 77.827 28.9001 77.745 27.8523C77.7326 27.6169 77.7695 27.3814 77.8534 27.161C77.9373 26.9407 78.0663 26.7403 78.2322 26.5727C78.3982 26.4052 78.5973 26.2742 78.8168 26.1881C79.0363 26.102 79.2714 26.0628 79.507 26.0729C80.5255 26.1607 81.1225 26.7519 81.2162 27.8289C81.0874 28.8182 80.5489 29.4738 79.4953 29.4855Z" fill="#FEFEFE"/>
<path d="M96.1662 26.067C95.9305 26.06 95.6959 26.1024 95.4775 26.1914C95.2592 26.2804 95.0618 26.4141 94.8981 26.5839C94.7344 26.7536 94.608 26.9557 94.527 27.1772C94.446 27.3986 94.4122 27.6346 94.4277 27.8699C94.5214 28.9118 95.136 29.503 96.1896 29.4855C97.2608 29.4679 97.7584 28.7831 97.8989 27.8231C97.7759 26.746 97.1964 26.1431 96.1662 26.067Z" fill="#090B0B"/>
<path d="M79.507 26.0729C79.2714 26.0628 79.0363 26.102 78.8168 26.1881C78.5973 26.2742 78.3982 26.4052 78.2322 26.5727C78.0663 26.7403 77.9373 26.9407 77.8534 27.161C77.7695 27.3814 77.7326 27.6169 77.745 27.8523C77.827 28.9001 78.4533 29.4972 79.4953 29.4855C80.5489 29.4738 81.0874 28.8182 81.2162 27.8289C81.1167 26.746 80.5196 26.1548 79.507 26.0729Z" fill="#090C0C"/>
</svg>
