<svg width="170" height="68" viewBox="0 0 170 68" fill="none" xmlns="http://www.w3.org/2000/svg">
<path d="M88.6034 51.0916H80.6692V63.4426C80.6692 65.9775 82.4411 68 84.6363 68C86.8314 68 88.6034 65.9505 88.6034 63.4426V51.0916Z" fill="#F7D186"/>
<path d="M96.8226 5.66311L69 34.0055V43.7676C69.0076 45.5757 69.5354 47.3418 70.5179 48.847C71.5005 50.3522 72.8946 51.5303 74.5275 52.2353L100.605 25.6457V17.3399C100.605 17.1781 100.578 17.0432 100.578 16.8814C100.578 16.6387 100.605 16.3691 100.605 16.1263C100.609 15.8744 100.6 15.6223 100.578 15.3713C100.418 11.7997 99.0971 8.38407 96.8226 5.66311Z" fill="#FFCD3C"/>
<path d="M84.789 5.23239e-07C80.7244 0.00279065 76.8168 1.60099 73.877 4.46304C70.9372 7.32509 69.1907 11.2313 69 15.3712V16.1263C69 16.396 69 16.6657 69.0264 16.9353C69.0264 17.0702 69 17.205 69 17.3398V34.0055L96.7961 5.66309C95.3174 3.8876 93.4775 2.46143 91.4041 1.48352C89.3307 0.505622 87.0735 -0.000594096 84.789 5.23239e-07Z" fill="#F3807B"/>
<path d="M78.0185 52.9904H91.586C93.977 52.9874 96.2691 52.0176 97.9598 50.2937C99.6505 48.5698 100.602 46.2325 100.605 43.7946V25.5918L74.4746 52.2353C75.5923 52.7331 76.7988 52.9901 78.0185 52.9904Z" fill="#35D0BA"/>
<path d="M81.5668 52.9219H88.5683V60.06L84.9778 56.5825L81.5668 52.9219Z" fill="#D8AE64"/>
</svg>
