<svg width="170" height="68" viewBox="0 0 170 68" fill="none" xmlns="http://www.w3.org/2000/svg">
<path d="M55.4124 31.8247C54.7423 31.0206 53.9381 30.4845 53.268 30.2165C52.0619 29.6804 50.8557 29.4124 49.5155 29.4124C47.2371 29.4124 45.0928 30.2165 43.3505 31.6907C41.0722 33.567 40 36.2474 40 39.4639C40 42.6804 41.0722 45.2268 43.3505 47.2371C45.2268 48.8454 47.3711 49.6495 49.6495 49.6495C51.1237 49.6495 52.4639 49.3814 53.5361 48.7113C54.2062 48.3093 54.8763 47.7732 55.5464 46.9691V49.1134H62.2474V18.1546H55.5464V31.8247H55.4124ZM54.3402 42.6804C53.5361 43.4845 52.4639 43.8866 51.2577 43.8866C49.9175 43.8866 48.8454 43.3505 47.9072 42.4124C47.2371 41.6082 46.8351 40.6701 46.8351 39.5979C46.8351 38.5258 47.2371 37.5876 47.9072 36.7835C48.7113 35.8454 49.9175 35.3093 51.2577 35.3093C52.4639 35.3093 53.5361 35.7113 54.3402 36.5155C55.1443 37.3196 55.6804 38.3917 55.6804 39.5979C55.5464 40.8041 55.1443 41.7423 54.3402 42.6804Z" fill="#0D2192"/>
<path d="M80.7423 31.8247C80.0722 31.0206 79.2681 30.4845 78.598 30.2165C77.3918 29.6804 76.1856 29.4124 74.8454 29.4124C72.567 29.4124 70.4227 30.2165 68.6804 31.6907C66.4021 33.701 65.3299 36.2474 65.3299 39.4639C65.3299 42.6804 66.4021 45.2268 68.6804 47.2371C70.5567 48.8454 72.701 49.6495 74.9794 49.6495C76.4536 49.6495 77.7938 49.3815 78.866 48.7113C79.5361 48.3093 80.2062 47.7732 80.8763 46.9691V49.1134H87.5773V29.9485H80.8763V31.8247H80.7423ZM79.6701 42.6804C78.866 43.4845 77.7938 43.8866 76.5876 43.8866C75.2474 43.8866 74.1753 43.3505 73.2371 42.4124C72.567 41.6083 72.165 40.6701 72.165 39.5979C72.165 38.5258 72.567 37.5876 73.2371 36.7835C74.0413 35.8454 75.2474 35.3093 76.5876 35.3093C77.7938 35.3093 78.866 35.7113 79.6701 36.5155C80.4742 37.3196 81.0103 38.3918 81.0103 39.5979C80.8763 40.8041 80.4742 41.7423 79.6701 42.6804Z" fill="#0D2192"/>
<path d="M110.227 31.8247C108.351 30.2165 106.206 29.4124 103.928 29.4124C102.454 29.4124 101.113 29.6804 100.041 30.3505C99.3711 30.7526 98.701 31.2887 98.0309 32.0928V29.9485H91.3299V48.9794L90.6598 65.0619L94.6804 67.8763L98.701 65.0619L98.165 49.2474V47.1031C98.8351 47.9072 99.6392 48.4433 100.309 48.7113C101.515 49.2474 102.722 49.5155 104.062 49.5155C106.34 49.5155 108.485 48.7113 110.227 47.2371C112.505 45.2268 113.577 42.6804 113.577 39.4639C113.443 36.3814 112.371 33.701 110.227 31.8247ZM105.402 42.4124C104.598 43.3505 103.392 43.8866 102.052 43.8866C100.845 43.8866 99.7732 43.4845 98.9691 42.6804C98.165 41.8763 97.6289 40.8041 97.6289 39.5979C97.6289 38.3918 98.0309 37.3196 98.8351 36.5155C99.6392 35.7113 100.711 35.3093 101.918 35.3093C103.258 35.3093 104.33 35.8454 105.268 36.7835C105.938 37.5876 106.34 38.5258 106.34 39.5979C106.474 40.5361 106.206 41.4742 105.402 42.4124Z" fill="#0D2192"/>
<path d="M129.526 29.6804C128.052 29.6804 126.711 29.9485 125.639 30.6186C124.835 31.1546 124.031 31.9588 123.361 33.0309V29.9485H116.66V49.1134H123.361V40.9381C123.361 39.866 123.495 38.9278 123.763 38.2577C124.433 36.5155 125.907 35.5773 128.052 35.5773C128.99 35.5773 129.928 35.8454 131 36.2474V29.8144C130.33 29.6804 129.928 29.6804 129.526 29.6804Z" fill="#0D2192"/>
<path opacity="0.08" d="M76.4528 1.13402H75.9175V1.66931C75.9175 1.26784 76.1852 1.13402 76.4528 1.13402Z" fill="white"/>
<path d="M80.7423 18.0206V22.3093H108.619C109.155 22.3093 109.557 21.9072 109.557 21.3711V18.8247C109.557 18.2887 109.155 17.8866 108.619 17.8866H101.784V1.53608C101.784 1.26804 101.515 1 101.247 1H85.433V18.0206H80.7423Z" fill="#0D2192"/>
<path d="M68.6804 22.4433H80.6083V18.0206H85.433V1.13402H76.4536C76.1856 1.13402 75.9175 1.40206 75.9175 1.6701V18.1546H68.6804C68.1443 18.1546 67.7423 18.5567 67.7423 19.0928V21.6392C67.7423 22.0412 68.2784 22.4433 68.6804 22.4433Z" fill="#0D2192"/>
<path opacity="0.08" d="M68.6804 22.4433H80.6083V18.0206H85.433V1.13402H76.4536C76.1856 1.13402 75.9175 1.40206 75.9175 1.6701V18.1546H68.6804C68.1443 18.1546 67.7423 18.5567 67.7423 19.0928V21.6392C67.7423 22.0412 68.2784 22.4433 68.6804 22.4433Z" fill="white"/>
</svg>
