<svg width="170" height="68" viewBox="0 0 170 68" fill="none" xmlns="http://www.w3.org/2000/svg">
<path d="M102.756 23.8086H84.9884C85.0734 24.2336 85.2434 24.6588 85.3284 24.9988C85.9236 27.039 86.2636 29.1642 86.4336 31.3747C86.5186 32.2247 86.5186 33.1599 86.5186 34.0099C86.5186 34.8601 86.5186 35.7953 86.4336 36.6453C86.2636 38.8555 85.9236 40.9809 85.3284 43.0211C85.2434 43.4461 85.0734 43.8714 84.9884 44.2114H102.756C108.367 44.2114 112.872 39.6207 112.872 34.0099C112.872 28.3992 108.367 23.8086 102.756 23.8086Z" fill="#00A9E5"/>
<path d="M86.434 36.6453C86.519 35.7953 86.519 34.8601 86.519 34.0099C86.519 33.1599 86.519 32.2247 86.434 31.3747C86.264 29.1642 85.924 27.039 85.329 24.9988C85.244 24.5736 85.0738 24.1486 84.9888 23.8086H57.5302C56.5101 27.039 56 30.4394 56 34.0099C56 37.5805 56.5101 40.9809 57.5302 44.2114H84.9888C85.0738 43.7861 85.244 43.3611 85.329 43.0211C85.924 40.9809 86.264 38.8555 86.434 36.6453Z" fill="#353535"/>
<path d="M105.816 47.5977H83.7129C83.0327 49.1279 82.2677 50.5731 81.4175 51.9333C80.1425 54.0585 78.6123 55.9287 76.9121 57.7141C76.3169 58.3091 75.7219 58.8191 75.1267 59.4144C73.9366 60.5194 72.5764 61.4546 71.2162 62.3898C76.5719 65.9602 83.0327 68.0004 89.9188 68.0004C101.735 68.0004 112.107 61.9646 118.227 52.8685C115.082 49.6381 110.662 47.5977 105.816 47.5977Z" fill="#00BFB3"/>
<path d="M81.4174 51.9333C82.2676 50.5731 83.0326 49.1279 83.7128 47.5977H58.8044C61.4397 53.6335 65.7753 58.8191 71.301 62.3898C72.6612 61.4546 73.9364 60.5194 75.2115 59.4144C75.8067 58.9041 76.4017 58.3091 76.9967 57.7141C78.6119 56.0139 80.1421 54.0585 81.4174 51.9333Z" fill="#019B8F"/>
<path d="M76.9121 10.2811C76.3171 9.686 75.7221 9.17594 75.1269 8.58085C73.9368 7.47572 72.5766 6.5406 71.2164 5.60547C65.7757 9.17594 61.4401 14.3616 58.7198 20.3974H83.628C82.948 18.8672 82.183 17.422 81.3328 16.0619C80.1425 13.9366 78.6123 11.9813 76.9121 10.2811Z" fill="#F9B110"/>
<path d="M89.9186 0C83.0328 0 76.5719 2.04027 71.2162 5.61074C72.5764 6.54587 73.8515 7.481 75.1267 8.58615C75.7217 9.09621 76.3169 9.69127 76.9119 10.2864C78.6121 12.0716 80.1423 13.9418 81.4175 16.0671C82.2678 17.4273 83.0328 18.8725 83.7128 20.4027H105.816C110.661 20.4027 115.082 18.3624 118.227 15.132C112.107 6.03581 101.735 0 89.9186 0Z" fill="#FED10A"/>
</svg>
