<svg width="170" height="68" viewBox="0 0 170 68" fill="none" xmlns="http://www.w3.org/2000/svg">
<path d="M77.0831 0.170556L50.5326 12.9571C50.2996 13.0693 50.0947 13.2325 49.9334 13.4347C49.772 13.6369 49.6583 13.8728 49.6006 14.125L43.0432 42.8554C42.9856 43.1075 42.9856 43.3694 43.0432 43.6215C43.1007 43.8736 43.2144 44.1095 43.3757 44.3117L61.7494 67.3519C61.9107 67.554 62.1154 67.7172 62.3484 67.8294C62.5814 67.9416 62.8366 67.9999 63.0952 68H92.5649C93.0886 68 93.584 67.7611 93.9107 67.3519L112.284 44.3117C112.446 44.1095 112.559 43.8736 112.617 43.6215C112.675 43.3694 112.675 43.1075 112.617 42.8554L106.059 14.125C106.002 13.8728 105.888 13.6368 105.727 13.4346C105.565 13.2324 105.361 13.0692 105.127 12.9571L78.577 0.170556C78.344 0.0582964 78.0887 0 77.83 0C77.5714 0 77.3161 0.0582964 77.0831 0.170556Z" fill="#0865AD"/>
<path d="M68.416 24.1201H74.2651V35.6643H74.3816C74.9627 34.6563 75.5822 33.7273 76.1633 32.7975L82.0905 24.1201H89.334L80.6959 35.2375L89.7988 50.2292H82.9042L76.5123 38.9566L74.2651 41.7068V50.2292H68.416V24.1201Z" fill="white"/>
<path d="M110.059 0.149819L99.6206 3.94884C99.4305 4.01824 99.2709 4.15233 99.1698 4.3276L93.6158 13.9471C93.5145 14.1225 93.4783 14.328 93.5136 14.5275L95.4423 25.4666C95.4772 25.666 95.5814 25.8467 95.7366 25.9768L104.246 33.1164C104.401 33.2466 104.597 33.318 104.799 33.3181H115.907C116.11 33.318 116.306 33.2466 116.461 33.1164L124.97 25.9768C125.125 25.8466 125.229 25.666 125.264 25.4666L127.193 14.5275C127.228 14.3279 127.192 14.1225 127.091 13.9471L121.537 4.3276C121.436 4.15228 121.276 4.01819 121.086 3.94884L110.648 0.149819C110.458 0.0805129 110.249 0.0805129 110.059 0.149819Z" fill="#6695CA"/>
<path d="M108.329 12.8161C108.534 12.6186 108.75 12.4341 108.977 12.2637C109.2 12.097 109.439 11.9522 109.691 11.8315C109.942 11.711 110.213 11.6177 110.504 11.5506C110.795 11.4835 111.111 11.4502 111.453 11.4502C112.015 11.4502 112.514 11.5474 112.949 11.7414C113.385 11.9355 113.752 12.2074 114.05 12.555C114.348 12.9032 114.572 13.3183 114.723 13.8004C114.873 14.2822 114.949 14.8116 114.949 15.3873V21.966H112.186V15.3873C112.186 14.8116 112.052 14.3643 111.785 14.0462C111.517 13.7282 111.122 13.5693 110.599 13.5693C110.211 13.5693 109.847 13.653 109.504 13.8205C109.163 13.988 108.838 14.2219 108.531 14.5236V21.966H105.758V11.6105H107.466C107.814 11.6105 108.045 11.7712 108.159 12.0929L108.329 12.8161Z" fill="white"/>
</svg>
