<svg width="170" height="68" viewBox="0 0 170 68" fill="none" xmlns="http://www.w3.org/2000/svg">
<path d="M64.9191 51.3864C65.631 52.2827 66.6532 53.027 67.8832 53.5448C69.1133 54.0625 70.5081 54.3357 71.9283 54.3369C73.3045 54.3287 74.6542 54.0597 75.8449 53.5563C76.4726 53.2956 77.1825 53.1585 77.9049 53.1585C78.6272 53.1585 79.3371 53.2956 79.9648 53.5563C81.1232 54.0298 82.4241 54.2868 83.7516 54.3045C85.0792 54.3222 86.3921 54.1 87.5733 53.6578C88.1872 53.4226 88.8703 53.2997 89.5637 53.2997C90.2572 53.2997 90.9402 53.4226 91.5541 53.6578C93.408 54.348 95.5554 54.4898 97.549 54.0536C99.5426 53.6173 101.228 52.6367 102.255 51.3161L64.9191 51.3864Z" fill="black"/>
<path d="M106.514 41.2002L106.418 40.0528C105.444 28.7192 99.6549 18.0725 90.1202 10.0874V40.6538L106.514 41.2002Z" fill="#006FFF"/>
<path d="M87.8837 40.5758V16.4879C79.1136 22.8252 73.4914 31.1149 71.9069 40.045L87.8837 40.5758Z" fill="#006FFF"/>
<path d="M77.4369 43.7319L76.1528 41.5074L61 41L65.1627 48.2045C66.0936 49.3756 67.6156 50.2345 69.4034 50.5977C71.1911 50.9609 73.1028 50.7995 74.7295 50.1481C75.4936 49.8334 76.3562 49.6681 77.2336 49.6681C78.111 49.6681 78.9736 49.8334 79.7376 50.1481C80.7851 50.5683 81.9612 50.7886 83.1567 50.7886C84.3521 50.7886 85.5282 50.5683 86.5757 50.1481C87.3397 49.8334 88.2023 49.6681 89.0797 49.6681C89.9571 49.6681 90.8197 49.8334 91.5838 50.1481C92.6313 50.5683 93.8073 50.7886 95.0028 50.7886C96.1982 50.7886 97.3743 50.5683 98.4218 50.1481C99.1859 49.8334 100.048 49.6681 100.926 49.6681C101.803 49.6681 102.666 49.8334 103.43 50.1481C105.058 50.8064 106.976 50.9717 108.77 50.6081C110.563 50.2445 112.089 49.3812 113.018 48.2045L114.741 45.6677L78.903 44.4735C78.5868 44.4655 78.2804 44.3914 78.0205 44.2599C77.7605 44.1284 77.5579 43.9451 77.4369 43.7319Z" fill="black"/>
</svg>
