<svg width="154" height="62" viewBox="0 0 154 68" fill="none" xmlns="http://www.w3.org/2000/svg">
<g clip-path="url(#clip0_61_3264)">
<path fill-rule="evenodd" clip-rule="evenodd" d="M0 42.5234C5.45124 48.7989 11.8204 49.1923 11.8204 49.1923L11.8391 49.1736C12.6446 50.616 13.5813 51.9835 14.6303 53.276C15.0799 53.8193 15.5295 54.3251 16.0165 54.8309C14.0309 60.5256 16.2975 65.2463 16.2975 65.2463C22.3669 65.4711 26.357 62.5862 27.2 61.9306C27.7994 62.1366 28.4176 62.324 29.0358 62.4738C30.9091 62.9609 32.8198 63.2419 34.7306 63.3168C35.1989 63.3355 35.6859 63.3543 36.1543 63.3355H36.8286L37.1284 63.3168V63.3355C39.9945 67.4193 45.0149 68 45.0149 68C48.5928 64.2347 48.7989 60.4882 48.7989 59.6826V59.3455C49.5482 58.8209 50.26 58.259 50.9344 57.6408C52.3581 56.3482 53.6132 54.8683 54.6622 53.276L54.9432 52.8264C58.9895 53.0512 61.8556 50.3163 61.8556 50.3163C61.1813 46.1014 58.7835 44.0408 58.2777 43.6474C58.2417 43.6194 58.2108 43.5954 58.1843 43.5747C58.184 43.5733 58.184 43.5725 58.184 43.5725C58.1755 43.564 58.1632 43.5555 58.1487 43.547C58.1425 43.5422 58.1367 43.5376 58.1311 43.5332C58.1173 43.5222 58.1036 43.5114 58.0914 43.5018C58.1004 43.3755 58.1095 43.2534 58.1185 43.1313C58.1279 43.0052 58.1372 42.879 58.1465 42.7482C58.184 42.2986 58.184 41.8303 58.184 41.3807V40.6689L58.1653 40.3879L58.1465 40.0132C58.1465 39.8821 58.1278 39.7697 58.1091 39.6573C58.0997 39.6011 58.095 39.5402 58.0903 39.4793C58.0857 39.4184 58.081 39.3576 58.0716 39.3014L58.0341 38.9455L57.978 38.5895C57.903 38.1212 57.8281 37.6716 57.7157 37.2033C57.2848 35.3862 56.573 33.6628 55.6551 32.108C54.7184 30.5532 53.557 29.1857 52.227 28.0242C50.9157 26.8628 49.4358 25.9262 47.8997 25.2331C46.3449 24.5399 44.7339 24.0904 43.1229 23.8843C42.3173 23.7719 41.5118 23.7344 40.7063 23.7532H40.1069L39.8072 23.7719C39.7484 23.7719 39.6896 23.777 39.6336 23.7819C39.5824 23.7864 39.5334 23.7906 39.4887 23.7906C39.0766 23.8281 38.6645 23.8843 38.2711 23.9592C36.6601 24.259 35.1427 24.8397 33.8127 25.6452C32.4826 26.4507 31.3212 27.4435 30.3846 28.5675C29.4479 29.6915 28.7173 30.9466 28.2116 32.2391C27.7058 33.5317 27.4248 34.8804 27.3499 36.173C27.3311 36.4915 27.3311 36.8287 27.3311 37.1471V37.3906L27.3499 37.6529C27.3592 37.7278 27.3639 37.8074 27.3686 37.8871C27.3733 37.9667 27.378 38.0463 27.3873 38.1212C27.4435 38.7769 27.5747 39.4138 27.7432 40.0132C28.0992 41.2309 28.6611 42.3361 29.3543 43.2727C30.0474 44.2094 30.8904 44.9774 31.7708 45.5956C32.6512 46.195 33.6066 46.6259 34.5432 46.9069C35.4799 47.1879 36.4165 47.3003 37.297 47.3003H37.784C37.8402 47.3003 37.8964 47.3003 37.9526 47.2815C37.9994 47.2815 38.0463 47.2769 38.0931 47.2722C38.1399 47.2675 38.1868 47.2628 38.2336 47.2628C38.2523 47.2628 38.2898 47.2628 38.3085 47.2441L38.4022 47.2253C38.4303 47.2253 38.4584 47.2207 38.4865 47.216C38.5146 47.2113 38.5427 47.2066 38.5708 47.2066C38.627 47.1972 38.6785 47.1879 38.73 47.1785C38.7815 47.1691 38.8331 47.1598 38.8892 47.1504C39.0016 47.1317 39.0953 47.113 39.189 47.0755C39.3331 47.0493 39.4681 47.0047 39.6004 46.9611C39.6572 46.9423 39.7134 46.9238 39.7697 46.9069C40.1443 46.7758 40.519 46.6259 40.8375 46.4573C41.0958 46.3281 41.3322 46.1769 41.5635 46.029C41.634 45.9839 41.704 45.9391 41.7741 45.8953C41.7959 45.8789 41.8194 45.8625 41.8435 45.8457C41.9021 45.8048 41.9645 45.7611 42.0176 45.708C42.3173 45.4645 42.3735 45.0149 42.13 44.7152C41.924 44.4529 41.5493 44.378 41.2496 44.5466L41.0248 44.659C40.7625 44.7901 40.5003 44.9025 40.2193 44.9961C39.9383 45.0898 39.6386 45.1647 39.3388 45.2209L39.3381 45.221C39.1885 45.2397 39.0388 45.2584 38.8705 45.2771C38.8351 45.2771 38.7998 45.2813 38.7624 45.2857C38.7207 45.2906 38.6764 45.2959 38.627 45.2959H38.1774C38.0837 45.2959 37.9901 45.2959 37.8964 45.2771H37.784C37.7465 45.2771 37.6904 45.2771 37.6529 45.2584C37.6061 45.249 37.5639 45.2444 37.5218 45.2397C37.4796 45.235 37.4375 45.2303 37.3906 45.2209C36.6975 45.1273 36.0044 44.9212 35.3488 44.6215C34.6744 44.3218 34.0375 43.9096 33.4567 43.3851C32.876 42.8606 32.3702 42.2424 31.9769 41.5306C31.5835 40.8187 31.3025 40.032 31.1713 39.2077C31.1151 38.7956 31.0777 38.3647 31.0964 37.9526C31.0964 37.8964 31.1011 37.8402 31.1058 37.784C31.1105 37.7278 31.1151 37.6716 31.1151 37.6154V37.4656C31.1151 37.4375 31.1198 37.4094 31.1245 37.3813C31.1292 37.3532 31.1339 37.3251 31.1339 37.297C31.1526 37.0722 31.1901 36.8474 31.2275 36.6226C31.546 34.8242 32.4452 33.0634 33.8314 31.7333C34.1873 31.3961 34.562 31.0964 34.9554 30.8154C35.3488 30.5344 35.7796 30.2909 36.2292 30.0848C36.6788 29.8788 37.1284 29.7102 37.6154 29.5791C38.0837 29.4479 38.5708 29.373 39.0766 29.3168C39.3201 29.2981 39.5636 29.2793 39.8259 29.2793H40.4066L40.6127 29.2981C41.1559 29.3355 41.6804 29.4105 42.205 29.5416C43.254 29.7664 44.2843 30.1598 45.2397 30.6843C47.1504 31.7521 48.7802 33.4006 49.773 35.3862C50.2788 36.3791 50.6347 37.4468 50.8033 38.5521C50.8408 38.8331 50.8782 39.1141 50.897 39.395L50.9344 39.8072V40.6127C50.9344 40.6782 50.9297 40.7672 50.9251 40.8562C50.9204 40.9452 50.9157 41.0342 50.9157 41.0997C50.897 41.3994 50.8595 41.7179 50.822 42.0176C50.7846 42.3174 50.7284 42.6171 50.6722 42.9168C50.616 43.2165 50.541 43.5163 50.4661 43.7972C50.3162 44.378 50.1289 44.9587 49.9041 45.5394C49.4545 46.6634 48.8551 47.7499 48.1432 48.7427C46.7008 50.7284 44.7339 52.3394 42.4859 53.3697C41.362 53.8755 40.1818 54.2501 38.9642 54.4375C38.3647 54.5499 37.7465 54.6061 37.1284 54.6248H36.1917C35.8545 54.6248 35.5361 54.6061 35.1989 54.5686C33.8876 54.4749 32.595 54.2314 31.3212 53.8755C30.0661 53.5196 28.8485 53.0138 27.687 52.4143C25.3829 51.178 23.3036 49.492 21.6926 47.4501C20.887 46.4386 20.1752 45.3333 19.5945 44.1906C19.0138 43.0479 18.5455 41.8303 18.2083 40.6127C17.8711 39.3763 17.665 38.1212 17.5713 36.8474L17.5526 36.6039V34.9366C17.5713 34.3185 17.6275 33.6628 17.7025 33.0259C17.7774 32.389 17.8898 31.7333 18.0209 31.0964C18.1521 30.4595 18.3019 29.8226 18.4893 29.1857C18.8452 27.9306 19.2948 26.7129 19.8193 25.5702C20.887 23.2848 22.2733 21.243 23.9405 19.6132C24.3526 19.2011 24.7835 18.8264 25.2331 18.4518C25.6826 18.0959 26.151 17.7587 26.638 17.4402C27.1063 17.1218 27.6121 16.8408 28.1179 16.5785C28.3614 16.4474 28.6237 16.3163 28.8859 16.2039L29.6727 15.8667C30.1972 15.6419 30.7405 15.4545 31.3025 15.286C31.3259 15.2792 31.35 15.2725 31.3745 15.2657C31.4866 15.2345 31.6069 15.201 31.7146 15.1548C31.7802 15.1361 31.8504 15.1174 31.9207 15.0986C31.9909 15.0799 32.0612 15.0612 32.1267 15.0424L32.1269 15.0424C32.4078 14.9675 32.6887 14.8926 32.9697 14.8364C33.041 14.816 33.1179 14.8011 33.1973 14.7858C33.2639 14.773 33.3322 14.7598 33.4005 14.7427C33.4755 14.724 33.5457 14.7099 33.616 14.6959C33.6862 14.6818 33.7565 14.6678 33.8314 14.649C33.9063 14.6397 33.9766 14.6256 34.0468 14.6116C34.1171 14.5975 34.1873 14.5835 34.2622 14.5741L34.4683 14.5366L34.6931 14.4992C34.768 14.4898 34.8383 14.4804 34.9085 14.4711C34.9788 14.4617 35.049 14.4523 35.124 14.443C35.2083 14.4336 35.2879 14.4242 35.3675 14.4149C35.4471 14.4055 35.5267 14.3961 35.611 14.3868C35.6766 14.3774 35.7656 14.368 35.8545 14.3587C35.9435 14.3493 36.0325 14.3399 36.0981 14.3306C36.1449 14.3212 36.1964 14.3165 36.2479 14.3118C36.2994 14.3072 36.351 14.3025 36.3978 14.2931L36.6038 14.2744L36.6975 14.2556H36.8099C36.8942 14.2463 36.9738 14.2416 37.0534 14.2369C37.133 14.2322 37.2127 14.2275 37.297 14.2182L37.5405 14.1994H37.7278C37.7934 14.1994 37.8636 14.1948 37.9339 14.1901C38.0041 14.1854 38.0744 14.1807 38.1399 14.1807C38.6832 14.162 39.2452 14.162 39.7884 14.1807C40.8749 14.2182 41.9427 14.3493 42.973 14.5366C45.0523 14.93 47.0005 15.5857 48.7802 16.4661C50.5598 17.3278 52.1333 18.3956 53.5196 19.557C53.5664 19.5945 53.6085 19.632 53.6507 19.6694C53.6928 19.7069 53.735 19.7444 53.7818 19.7818C53.8193 19.8193 53.8614 19.8567 53.9036 19.8942C53.9457 19.9317 53.9879 19.9691 54.0253 20.0066C54.1096 20.0815 54.1892 20.1565 54.2688 20.2314C54.3485 20.3063 54.4281 20.3813 54.5124 20.4562C54.6809 20.606 54.8308 20.7558 54.9806 20.9057L54.9807 20.9058C55.1306 21.0556 55.2804 21.2055 55.4303 21.3741C56.011 21.9923 56.5543 22.6105 57.0413 23.2474C58.0154 24.5025 58.8022 25.7763 59.4204 26.9752L59.6452 27.4248C59.7201 27.5747 59.795 27.7245 59.8512 27.8744C59.8887 27.9493 59.9215 28.0196 59.9543 28.0898C59.987 28.1601 60.0198 28.2303 60.0573 28.3052C60.0854 28.3802 60.1182 28.4504 60.151 28.5207C60.1837 28.5909 60.2165 28.6612 60.2446 28.7361C60.2794 28.8231 60.3143 28.9097 60.3489 28.9958C60.5377 29.4655 60.7203 29.9197 60.8628 30.3471C61.1438 31.1714 61.3499 31.9019 61.5184 32.5388C61.5746 32.8011 61.8182 32.9697 62.0804 32.9322C62.3614 32.9135 62.5675 32.6887 62.5675 32.4077C62.5862 31.7333 62.5675 30.9278 62.4738 30.0099C62.3614 28.8672 62.1741 27.5559 61.7994 26.0948C61.4248 24.6523 60.8628 23.0601 60.0386 21.4116C59.2143 19.7631 58.1465 18.0584 56.7603 16.3912C56.2171 15.7355 55.6176 15.0986 54.9807 14.4804C55.9361 10.6777 53.8193 7.38072 53.8193 7.38072C50.1664 7.15592 47.8435 8.52342 46.9818 9.1416C46.9069 9.1135 46.8366 9.08072 46.7664 9.04793C46.6961 9.01515 46.6259 8.98237 46.551 8.95427C45.9328 8.71074 45.2959 8.46722 44.6215 8.26116C43.9658 8.0551 43.2914 7.86777 42.5983 7.69917C41.9052 7.53058 41.2121 7.39945 40.5003 7.28705C40.4347 7.27769 40.3738 7.26832 40.3129 7.25895C40.2521 7.24959 40.1912 7.24022 40.1256 7.23085C38.5333 2.13554 33.9625 0 33.9625 0C28.8485 3.24077 27.8931 7.7741 27.8931 7.7741C27.8931 7.7741 27.8744 7.86777 27.8369 8.03636C27.6964 8.07383 27.5559 8.11598 27.4154 8.15813C27.2749 8.20028 27.1344 8.24243 26.9939 8.27989C26.6005 8.39229 26.2072 8.54215 25.8325 8.69201C25.4391 8.84187 25.0645 8.99174 24.6711 9.16033C23.903 9.49752 23.135 9.87218 22.3857 10.2843C21.6551 10.6964 20.9432 11.146 20.2501 11.6143L20.0628 11.5394C12.9818 8.84187 6.70633 12.0826 6.70633 12.0826C6.12562 19.6132 9.53498 24.3526 10.2094 25.2143C10.0408 25.6826 9.89092 26.1509 9.74107 26.6192L9.74105 26.6193C9.21653 28.324 8.82314 30.0661 8.57961 31.8832C8.54215 32.1455 8.50468 32.4077 8.48595 32.67C1.92948 35.9107 0 42.5234 0 42.5234ZM58.0914 43.5022C58.0511 43.4707 58.0413 43.4628 58.0486 43.4685C58.0544 43.4729 58.0708 43.4857 58.0914 43.5018C58.0914 43.5019 58.0914 43.5021 58.0914 43.5022ZM58.0914 43.5022C58.1023 43.5107 58.1154 43.521 58.1311 43.5332C58.1365 43.5375 58.142 43.5419 58.1474 43.5462C58.1302 43.5362 58.1103 43.5262 58.0903 43.5163C58.0907 43.5116 58.091 43.5069 58.0914 43.5022ZM58.2215 43.6099C58.1944 43.5964 58.1869 43.5829 58.1848 43.5764C58.212 43.5986 58.2299 43.6141 58.2215 43.6099Z" fill="url(#paint0_linear_61_3264)"/>
<path d="M119.547 0C138.459 0 153.966 15.3286 153.941 33.9619C153.915 52.9002 138.459 68 119.14 68C100.278 67.9746 85 52.646 85 33.7077C85.0254 15.1761 100.583 0 119.547 0V0ZM109.099 11.9222C109.531 14.0322 109.099 16.015 108.463 17.9723C108.031 19.3196 107.396 20.6161 107.04 21.9888C106.43 24.2512 105.743 26.5136 105.489 28.8015C105.133 32.1062 106.43 35.0295 108.667 37.9275C105.031 37.1649 101.727 36.4785 98.3712 35.7667C98.3966 36.0972 98.3712 36.2243 98.3966 36.326C99.3626 39.1731 101.091 41.5626 103.023 43.8505C103.227 44.0793 103.684 44.2064 104.04 44.2064C114.31 44.2318 124.554 44.2318 134.824 44.2064C135.155 44.2064 135.561 44.1555 135.765 43.9521C137.976 41.6643 139.654 39.046 140.696 35.7413C136.934 36.4785 133.35 37.1649 129.791 37.8512C130.503 36.4531 131.342 35.2075 131.799 33.8602C133.401 29.2336 132.74 24.7596 130.427 20.5398C128.571 17.1589 126.842 13.7779 127.783 9.71065C125.825 11.6426 125.063 14.083 124.58 16.625C124.097 19.1163 123.843 21.6329 123.461 24.175C123.41 24.0987 123.334 24.0479 123.334 23.9716C123.283 23.7174 123.258 23.4378 123.233 23.1836C123.004 19.04 122.19 15.049 120.487 11.2613C119.47 9.0243 118.352 6.73645 119.394 4.06729C118.682 4.4486 118.047 4.80449 117.589 5.33832C116.216 6.91439 115.657 8.77009 115.53 10.8292C115.403 12.5832 115.225 14.3626 114.92 16.0912C114.564 17.8961 114.03 19.6755 112.81 21.3533C112.353 17.7181 112.302 14.1847 109.099 11.9222V11.9222ZM135.561 47.3331H103.379V52.9002H135.561V47.3331ZM109.76 55.7473C109.734 60.3738 114.488 63.831 120.335 63.5768C125.19 63.3735 129.486 59.5604 129.13 55.7473H109.76Z" fill="#E75225"/>
</g>
<defs>
<linearGradient id="paint0_linear_61_3264" x1="31.2858" y1="84.4393" x2="31.2858" y2="20.8788" gradientUnits="userSpaceOnUse">
<stop stop-color="#FFF200"/>
<stop offset="1" stop-color="#F15A29"/>
</linearGradient>
<clipPath id="clip0_61_3264">
<rect width="154" height="68" fill="white"/>
</clipPath>
</defs>
</svg>
