<svg width="170" height="68" viewBox="0 0 170 68" fill="none" xmlns="http://www.w3.org/2000/svg">
<path fill-rule="evenodd" clip-rule="evenodd" d="M8 42.5234C13.4512 48.7989 19.8204 49.1923 19.8204 49.1923L19.8391 49.1736C20.6446 50.616 21.5813 51.9835 22.6303 53.276C23.0799 53.8193 23.5295 54.3251 24.0165 54.8309C22.0309 60.5256 24.2975 65.2463 24.2975 65.2463C30.3669 65.4711 34.357 62.5862 35.2 61.9306C35.7994 62.1366 36.4176 62.324 37.0358 62.4738C38.9091 62.9609 40.8198 63.2419 42.7306 63.3168C43.1989 63.3355 43.6859 63.3543 44.1543 63.3355H44.8286L45.1284 63.3168V63.3355C47.9945 67.4193 53.0149 68 53.0149 68C56.5928 64.2347 56.7989 60.4882 56.7989 59.6826V59.3455C57.5482 58.8209 58.26 58.259 58.9344 57.6408C60.3581 56.3482 61.6132 54.8683 62.6622 53.276L62.9432 52.8264C66.9895 53.0512 69.8556 50.3163 69.8556 50.3163C69.1813 46.1014 66.7835 44.0408 66.2777 43.6474C66.2417 43.6194 66.2108 43.5954 66.1843 43.5747C66.184 43.5733 66.184 43.5725 66.184 43.5725C66.1755 43.564 66.1632 43.5555 66.1487 43.547C66.1425 43.5422 66.1367 43.5376 66.1311 43.5332C66.1173 43.5222 66.1036 43.5114 66.0914 43.5018C66.1004 43.3755 66.1095 43.2534 66.1185 43.1313C66.1279 43.0052 66.1372 42.879 66.1465 42.7482C66.184 42.2986 66.184 41.8303 66.184 41.3807V40.6689L66.1653 40.3879L66.1465 40.0132C66.1465 39.8821 66.1278 39.7697 66.1091 39.6573C66.0997 39.6011 66.095 39.5402 66.0903 39.4793C66.0857 39.4184 66.081 39.3576 66.0716 39.3014L66.0341 38.9455L65.978 38.5895C65.903 38.1212 65.8281 37.6716 65.7157 37.2033C65.2848 35.3862 64.573 33.6628 63.6551 32.108C62.7184 30.5532 61.557 29.1857 60.227 28.0242C58.9157 26.8628 57.4358 25.9262 55.8997 25.2331C54.3449 24.5399 52.7339 24.0904 51.1229 23.8843C50.3173 23.7719 49.5118 23.7344 48.7063 23.7532H48.1069L47.8072 23.7719C47.7484 23.7719 47.6896 23.777 47.6336 23.7819C47.5824 23.7864 47.5334 23.7906 47.4887 23.7906C47.0766 23.8281 46.6645 23.8843 46.2711 23.9592C44.6601 24.259 43.1427 24.8397 41.8127 25.6452C40.4826 26.4507 39.3212 27.4435 38.3846 28.5675C37.4479 29.6915 36.7173 30.9466 36.2116 32.2391C35.7058 33.5317 35.4248 34.8804 35.3499 36.173C35.3311 36.4915 35.3311 36.8287 35.3311 37.1471V37.3906L35.3499 37.6529C35.3592 37.7278 35.3639 37.8074 35.3686 37.8871C35.3733 37.9667 35.378 38.0463 35.3873 38.1212C35.4435 38.7769 35.5747 39.4138 35.7432 40.0132C36.0992 41.2309 36.6611 42.3361 37.3543 43.2727C38.0474 44.2094 38.8904 44.9774 39.7708 45.5956C40.6512 46.195 41.6066 46.6259 42.5432 46.9069C43.4799 47.1879 44.4165 47.3003 45.297 47.3003H45.784C45.8402 47.3003 45.8964 47.3003 45.9526 47.2815C45.9994 47.2815 46.0463 47.2769 46.0931 47.2722C46.1399 47.2675 46.1868 47.2628 46.2336 47.2628C46.2523 47.2628 46.2898 47.2628 46.3085 47.2441L46.4022 47.2253C46.4303 47.2253 46.4584 47.2207 46.4865 47.216C46.5146 47.2113 46.5427 47.2066 46.5708 47.2066C46.627 47.1972 46.6785 47.1879 46.73 47.1785C46.7815 47.1691 46.8331 47.1598 46.8892 47.1504C47.0016 47.1317 47.0953 47.113 47.189 47.0755C47.3331 47.0493 47.4681 47.0047 47.6004 46.9611C47.6572 46.9423 47.7134 46.9238 47.7697 46.9069C48.1443 46.7758 48.519 46.6259 48.8375 46.4573C49.0958 46.3281 49.3322 46.1769 49.5635 46.029C49.634 45.9839 49.704 45.9391 49.7741 45.8953C49.7959 45.8789 49.8194 45.8625 49.8435 45.8457C49.9021 45.8048 49.9645 45.7611 50.0176 45.708C50.3173 45.4645 50.3735 45.0149 50.13 44.7152C49.924 44.4529 49.5493 44.378 49.2496 44.5466L49.0248 44.659C48.7625 44.7901 48.5003 44.9025 48.2193 44.9961C47.9383 45.0898 47.6386 45.1647 47.3388 45.2209L47.3381 45.221C47.1885 45.2397 47.0388 45.2584 46.8705 45.2771C46.8351 45.2771 46.7998 45.2813 46.7624 45.2857C46.7207 45.2906 46.6764 45.2959 46.627 45.2959H46.1774C46.0837 45.2959 45.9901 45.2959 45.8964 45.2771H45.784C45.7465 45.2771 45.6904 45.2771 45.6529 45.2584C45.6061 45.249 45.5639 45.2444 45.5218 45.2397C45.4796 45.235 45.4375 45.2303 45.3906 45.2209C44.6975 45.1273 44.0044 44.9212 43.3488 44.6215C42.6744 44.3218 42.0375 43.9096 41.4567 43.3851C40.876 42.8606 40.3702 42.2424 39.9769 41.5306C39.5835 40.8187 39.3025 40.032 39.1713 39.2077C39.1151 38.7956 39.0777 38.3647 39.0964 37.9526C39.0964 37.8964 39.1011 37.8402 39.1058 37.784C39.1105 37.7278 39.1151 37.6716 39.1151 37.6154V37.4656C39.1151 37.4375 39.1198 37.4094 39.1245 37.3813C39.1292 37.3532 39.1339 37.3251 39.1339 37.297C39.1526 37.0722 39.1901 36.8474 39.2275 36.6226C39.546 34.8242 40.4452 33.0634 41.8314 31.7333C42.1873 31.3961 42.562 31.0964 42.9554 30.8154C43.3488 30.5344 43.7796 30.2909 44.2292 30.0848C44.6788 29.8788 45.1284 29.7102 45.6154 29.5791C46.0837 29.4479 46.5708 29.373 47.0766 29.3168C47.3201 29.2981 47.5636 29.2793 47.8259 29.2793H48.4066L48.6127 29.2981C49.1559 29.3355 49.6804 29.4105 50.205 29.5416C51.254 29.7664 52.2843 30.1598 53.2397 30.6843C55.1504 31.7521 56.7802 33.4006 57.773 35.3862C58.2788 36.3791 58.6347 37.4468 58.8033 38.5521C58.8408 38.8331 58.8782 39.1141 58.897 39.395L58.9344 39.8072V40.6127C58.9344 40.6782 58.9297 40.7672 58.9251 40.8562C58.9204 40.9452 58.9157 41.0342 58.9157 41.0997C58.897 41.3994 58.8595 41.7179 58.822 42.0176C58.7846 42.3174 58.7284 42.6171 58.6722 42.9168C58.616 43.2165 58.541 43.5163 58.4661 43.7972C58.3162 44.378 58.1289 44.9587 57.9041 45.5394C57.4545 46.6634 56.8551 47.7499 56.1432 48.7427C54.7008 50.7284 52.7339 52.3394 50.4859 53.3697C49.362 53.8755 48.1818 54.2501 46.9642 54.4375C46.3647 54.5499 45.7465 54.6061 45.1284 54.6248H44.1917C43.8545 54.6248 43.5361 54.6061 43.1989 54.5686C41.8876 54.4749 40.595 54.2314 39.3212 53.8755C38.0661 53.5196 36.8485 53.0138 35.687 52.4143C33.3829 51.178 31.3036 49.492 29.6926 47.4501C28.887 46.4386 28.1752 45.3333 27.5945 44.1906C27.0138 43.0479 26.5455 41.8303 26.2083 40.6127C25.8711 39.3763 25.665 38.1212 25.5713 36.8474L25.5526 36.6039V34.9366C25.5713 34.3185 25.6275 33.6628 25.7025 33.0259C25.7774 32.389 25.8898 31.7333 26.0209 31.0964C26.1521 30.4595 26.3019 29.8226 26.4893 29.1857C26.8452 27.9306 27.2948 26.7129 27.8193 25.5702C28.887 23.2848 30.2733 21.243 31.9405 19.6132C32.3526 19.2011 32.7835 18.8264 33.2331 18.4518C33.6826 18.0959 34.151 17.7587 34.638 17.4402C35.1063 17.1218 35.6121 16.8408 36.1179 16.5785C36.3614 16.4474 36.6237 16.3163 36.8859 16.2039L37.6727 15.8667C38.1972 15.6419 38.7405 15.4545 39.3025 15.286C39.3259 15.2792 39.35 15.2725 39.3745 15.2657C39.4866 15.2345 39.6069 15.201 39.7146 15.1548C39.7802 15.1361 39.8504 15.1174 39.9207 15.0986C39.9909 15.0799 40.0612 15.0612 40.1267 15.0424L40.1269 15.0424C40.4078 14.9675 40.6887 14.8926 40.9697 14.8364C41.041 14.816 41.1179 14.8011 41.1973 14.7858C41.2639 14.773 41.3322 14.7598 41.4005 14.7427C41.4755 14.724 41.5457 14.7099 41.616 14.6959C41.6862 14.6818 41.7565 14.6678 41.8314 14.649C41.9063 14.6397 41.9766 14.6256 42.0468 14.6116C42.1171 14.5975 42.1873 14.5835 42.2622 14.5741L42.4683 14.5366L42.6931 14.4992C42.768 14.4898 42.8383 14.4804 42.9085 14.4711C42.9788 14.4617 43.049 14.4523 43.124 14.443C43.2083 14.4336 43.2879 14.4242 43.3675 14.4149C43.4471 14.4055 43.5267 14.3961 43.611 14.3868C43.6766 14.3774 43.7656 14.368 43.8545 14.3587C43.9435 14.3493 44.0325 14.3399 44.0981 14.3306C44.1449 14.3212 44.1964 14.3165 44.2479 14.3118C44.2994 14.3072 44.351 14.3025 44.3978 14.2931L44.6038 14.2744L44.6975 14.2556H44.8099C44.8942 14.2463 44.9738 14.2416 45.0534 14.2369C45.133 14.2322 45.2127 14.2275 45.297 14.2182L45.5405 14.1994H45.7278C45.7934 14.1994 45.8636 14.1948 45.9339 14.1901C46.0041 14.1854 46.0744 14.1807 46.1399 14.1807C46.6832 14.162 47.2452 14.162 47.7884 14.1807C48.8749 14.2182 49.9427 14.3493 50.973 14.5366C53.0523 14.93 55.0005 15.5857 56.7802 16.4661C58.5598 17.3278 60.1333 18.3956 61.5196 19.557C61.5664 19.5945 61.6085 19.632 61.6507 19.6694C61.6928 19.7069 61.735 19.7444 61.7818 19.7818C61.8193 19.8193 61.8614 19.8567 61.9036 19.8942C61.9457 19.9317 61.9879 19.9691 62.0253 20.0066C62.1096 20.0815 62.1892 20.1565 62.2688 20.2314C62.3485 20.3063 62.4281 20.3813 62.5124 20.4562C62.6809 20.606 62.8308 20.7558 62.9806 20.9057L62.9807 20.9058C63.1306 21.0556 63.2804 21.2055 63.4303 21.3741C64.011 21.9923 64.5543 22.6105 65.0413 23.2474C66.0154 24.5025 66.8022 25.7763 67.4204 26.9752L67.6452 27.4248C67.7201 27.5747 67.795 27.7245 67.8512 27.8744C67.8887 27.9493 67.9215 28.0196 67.9543 28.0898C67.987 28.1601 68.0198 28.2303 68.0573 28.3052C68.0854 28.3802 68.1182 28.4504 68.151 28.5207C68.1837 28.5909 68.2165 28.6612 68.2446 28.7361C68.2794 28.8231 68.3143 28.9097 68.3489 28.9958C68.5377 29.4655 68.7203 29.9197 68.8628 30.3471C69.1438 31.1714 69.3499 31.9019 69.5184 32.5388C69.5746 32.8011 69.8182 32.9697 70.0804 32.9322C70.3614 32.9135 70.5675 32.6887 70.5675 32.4077C70.5862 31.7333 70.5675 30.9278 70.4738 30.0099C70.3614 28.8672 70.1741 27.5559 69.7994 26.0948C69.4248 24.6523 68.8628 23.0601 68.0386 21.4116C67.2143 19.7631 66.1465 18.0584 64.7603 16.3912C64.2171 15.7355 63.6176 15.0986 62.9807 14.4804C63.9361 10.6777 61.8193 7.38072 61.8193 7.38072C58.1664 7.15592 55.8435 8.52342 54.9818 9.1416C54.9069 9.1135 54.8366 9.08072 54.7664 9.04793C54.6961 9.01515 54.6259 8.98237 54.551 8.95427C53.9328 8.71074 53.2959 8.46722 52.6215 8.26116C51.9658 8.0551 51.2914 7.86777 50.5983 7.69917C49.9052 7.53058 49.2121 7.39945 48.5003 7.28705C48.4347 7.27769 48.3738 7.26832 48.3129 7.25895C48.2521 7.24959 48.1912 7.24022 48.1256 7.23085C46.5333 2.13554 41.9625 0 41.9625 0C36.8485 3.24077 35.8931 7.7741 35.8931 7.7741C35.8931 7.7741 35.8744 7.86777 35.8369 8.03636C35.6964 8.07383 35.5559 8.11598 35.4154 8.15813C35.2749 8.20028 35.1344 8.24243 34.9939 8.27989C34.6005 8.39229 34.2072 8.54215 33.8325 8.69201C33.4391 8.84187 33.0645 8.99174 32.6711 9.16033C31.903 9.49752 31.135 9.87218 30.3857 10.2843C29.6551 10.6964 28.9432 11.146 28.2501 11.6143L28.0628 11.5394C20.9818 8.84187 14.7063 12.0826 14.7063 12.0826C14.1256 19.6132 17.535 24.3526 18.2094 25.2143C18.0408 25.6826 17.8909 26.1509 17.7411 26.6192L17.741 26.6193C17.2165 28.324 16.8231 30.0661 16.5796 31.8832C16.5421 32.1455 16.5047 32.4077 16.4859 32.67C9.92948 35.9107 8 42.5234 8 42.5234ZM66.0914 43.5022C66.0511 43.4707 66.0413 43.4628 66.0486 43.4685C66.0544 43.4729 66.0708 43.4857 66.0914 43.5018C66.0914 43.5019 66.0914 43.5021 66.0914 43.5022ZM66.0914 43.5022C66.1023 43.5107 66.1154 43.521 66.1311 43.5332C66.1365 43.5375 66.142 43.5419 66.1474 43.5462C66.1302 43.5362 66.1103 43.5262 66.0903 43.5163C66.0907 43.5116 66.091 43.5069 66.0914 43.5022ZM66.2215 43.6099C66.1944 43.5964 66.1869 43.5829 66.1848 43.5764C66.212 43.5986 66.2299 43.6141 66.2215 43.6099Z" fill="url(#paint0_linear_102_6924)"/>
<path d="M127.547 0C146.459 0 161.966 15.3286 161.941 33.9619C161.915 52.9002 146.459 68 127.14 68C108.278 67.9746 93 52.646 93 33.7077C93.0254 15.1761 108.583 0 127.547 0V0ZM117.099 11.9222C117.531 14.0322 117.099 16.015 116.463 17.9723C116.031 19.3196 115.396 20.6161 115.04 21.9888C114.43 24.2512 113.743 26.5136 113.489 28.8015C113.133 32.1062 114.43 35.0295 116.667 37.9275C113.031 37.1649 109.727 36.4785 106.371 35.7667C106.397 36.0972 106.371 36.2243 106.397 36.326C107.363 39.1731 109.091 41.5626 111.023 43.8505C111.227 44.0793 111.684 44.2064 112.04 44.2064C122.31 44.2318 132.554 44.2318 142.824 44.2064C143.155 44.2064 143.561 44.1555 143.765 43.9521C145.976 41.6643 147.654 39.046 148.696 35.7413C144.934 36.4785 141.35 37.1649 137.791 37.8512C138.503 36.4531 139.342 35.2075 139.799 33.8602C141.401 29.2336 140.74 24.7596 138.427 20.5398C136.571 17.1589 134.842 13.7779 135.783 9.71065C133.825 11.6426 133.063 14.083 132.58 16.625C132.097 19.1163 131.843 21.6329 131.461 24.175C131.41 24.0987 131.334 24.0479 131.334 23.9716C131.283 23.7174 131.258 23.4378 131.233 23.1836C131.004 19.04 130.19 15.049 128.487 11.2613C127.47 9.0243 126.352 6.73645 127.394 4.06729C126.682 4.4486 126.047 4.80449 125.589 5.33832C124.216 6.91439 123.657 8.77009 123.53 10.8292C123.403 12.5832 123.225 14.3626 122.92 16.0912C122.564 17.8961 122.03 19.6755 120.81 21.3533C120.353 17.7181 120.302 14.1847 117.099 11.9222V11.9222ZM143.561 47.3331H111.379V52.9002H143.561V47.3331ZM117.76 55.7473C117.734 60.3738 122.488 63.831 128.335 63.5768C133.19 63.3735 137.486 59.5604 137.13 55.7473H117.76Z" fill="#E75225"/>
<defs>
<linearGradient id="paint0_linear_102_6924" x1="39.2858" y1="84.4393" x2="39.2858" y2="20.8788" gradientUnits="userSpaceOnUse">
<stop stop-color="#FFF200"/>
<stop offset="1" stop-color="#F15A29"/>
</linearGradient>
</defs>
</svg>
