<svg width="170" height="68" viewBox="0 0 170 68" fill="none" xmlns="http://www.w3.org/2000/svg">
<path d="M104.574 49.8542C105.017 46.1637 104.885 45.6236 107.634 46.2222L108.31 46.283C110.425 46.3797 113.186 45.9454 114.813 45.1893C118.308 43.5691 120.38 40.8597 116.935 41.5708C109.072 43.191 108.532 40.5312 108.532 40.5312C116.836 28.2129 120.302 12.5754 117.309 8.74989C109.14 -1.69159 94.9944 3.24786 94.7604 3.37613L94.6862 3.38963C93.1334 3.06783 91.3939 2.87206 89.4429 2.8428C85.8874 2.78429 83.187 3.77443 81.1167 5.3294C81.1167 5.3294 55.8861 -5.06707 57.0383 18.4038C57.2858 23.395 64.1943 56.1776 72.4305 46.2762C75.4414 42.6532 78.3488 39.5928 78.3488 39.5928C79.7935 40.5537 81.4993 41.042 83.3378 40.8665L83.4773 40.7472C83.4352 41.2172 83.4541 41.6907 83.5336 42.1559C81.4115 44.5255 82.0348 44.9463 77.7952 45.8172C73.5039 46.7015 76.0242 48.2768 77.6715 48.6886C79.6675 49.1881 84.2874 49.8947 87.4041 45.5269L87.2803 46.0264C88.113 46.6925 88.0567 50.8129 88.1737 53.7563C88.2907 56.6997 88.4888 59.4496 89.0896 61.0698C89.6904 62.6901 90.3948 66.8622 95.9756 65.6672C100.634 64.6681 104.198 63.2324 104.522 49.8632" fill="#231F20"/>
<path d="M104.574 49.8542C105.017 46.1637 104.885 45.6236 107.634 46.2222L108.31 46.283C110.425 46.3797 113.186 45.9454 114.813 45.1893C118.308 43.5691 120.38 40.8597 116.935 41.5708C109.072 43.191 108.532 40.5312 108.532 40.5312C116.836 28.2129 120.302 12.5754 117.309 8.74989C109.14 -1.69159 94.9944 3.24786 94.7604 3.37613L94.6862 3.38963C93.1334 3.06783 91.3939 2.87206 89.4429 2.8428C85.8874 2.78429 83.187 3.77443 81.1167 5.3294C81.1167 5.3294 55.8861 -5.06707 57.0383 18.4038C57.2858 23.395 64.1943 56.1776 72.4305 46.2762C75.4414 42.6532 78.3488 39.5928 78.3488 39.5928C79.7935 40.5537 81.4993 41.042 83.3378 40.8665L83.4773 40.7472C83.4352 41.2172 83.4541 41.6907 83.5336 42.1559C81.4115 44.5255 82.0348 44.9463 77.7952 45.8172C73.5039 46.7015 76.0242 48.2768 77.6715 48.6886C79.6675 49.1881 84.2874 49.8947 87.4041 45.5269L87.2803 46.0264C88.113 46.6925 88.0567 50.8129 88.1737 53.7563C88.2907 56.6997 88.4888 59.4496 89.0896 61.0698C89.6904 62.6901 90.3948 66.8622 95.9756 65.6672C100.634 64.6681 104.198 63.2324 104.522 49.8632" stroke="#231F20" stroke-width="2.598"/>
<path d="M116.953 41.5653C109.09 43.1855 108.55 40.5256 108.55 40.5256C116.854 28.2074 120.32 12.5699 117.327 8.74208C109.158 -1.69941 95.0124 3.24005 94.7784 3.36832L94.7018 3.38182C93.1491 3.06002 91.4096 2.86424 89.4586 2.83499C85.9031 2.77648 83.2027 3.76662 81.1324 5.32159C81.1324 5.32159 55.9018 -5.07489 57.054 18.396C57.3015 23.3917 64.21 56.1698 72.4462 46.2684C75.4571 42.6454 78.3645 39.585 78.3645 39.585C79.8092 40.5459 81.5375 41.0342 83.3512 40.8587L83.493 40.7394C83.448 41.1895 83.4705 41.6283 83.5493 42.1481C81.4272 44.5177 82.0505 44.9385 77.8109 45.8094C73.5196 46.6937 76.0399 48.269 77.6872 48.6808C79.6832 49.1803 84.3031 49.8869 87.4198 45.5191L87.296 46.0186C88.1287 46.6847 88.7137 50.3505 88.6125 53.6697C88.5112 56.989 88.4505 59.273 89.1075 61.0553C89.7646 62.8375 90.4127 66.8476 95.9935 65.6527C100.652 64.6535 103.069 62.0657 103.404 57.7496C103.642 54.6801 104.182 55.1347 104.214 52.3938L104.646 51.0954C105.146 46.9323 104.725 45.5933 107.594 46.2189L108.269 46.2797C110.384 46.3764 113.148 45.9421 114.772 45.186C118.267 43.5658 120.34 40.8564 116.895 41.5675L116.953 41.5653Z" fill="#417BA2"/>
<path d="M88.2308 43.9654C88.2375 43.7264 88.0491 43.5272 87.8101 43.5205C87.571 43.5139 87.3718 43.7022 87.3652 43.9413L88.2308 43.9654ZM96.5652 65.7657L96.4744 65.3423L96.4744 65.3424L96.5652 65.7657ZM103.654 58.5647L104.08 58.638C104.082 58.6317 104.083 58.6253 104.083 58.6189L103.654 58.5647ZM105.805 44.9752C105.835 44.738 105.667 44.5213 105.429 44.4914C105.192 44.4615 104.976 44.6295 104.946 44.8668L105.805 44.9752ZM80.9732 5.55191C81.1946 5.64239 81.4474 5.53629 81.5379 5.31493C81.6283 5.09356 81.5222 4.84077 81.3009 4.75029L80.9732 5.55191ZM57.0586 18.2975L57.4912 18.278L57.4911 18.2759L57.0586 18.2975ZM72.4508 46.1722L72.1187 45.8944L72.1179 45.8953L72.4508 46.1722ZM78.496 40.0123C78.6609 39.8391 78.6542 39.565 78.4809 39.4002C78.3077 39.2353 78.0337 39.242 77.8688 39.4152L78.496 40.0123ZM94.8778 3.68175C95.1065 3.61198 95.2354 3.37 95.1656 3.14126C95.0959 2.91253 94.8539 2.78365 94.6252 2.85342L94.8778 3.68175ZM117.273 8.66835L116.931 8.93493L116.932 8.93516L117.273 8.66835ZM108.138 40.2094C108.004 40.4075 108.056 40.6767 108.254 40.8106C108.452 40.9445 108.721 40.8925 108.855 40.6943L108.138 40.2094ZM116.899 41.4713L116.987 41.8953L116.987 41.8953L116.899 41.4713ZM114.777 45.0898L114.959 45.4827L114.96 45.4821L114.777 45.0898ZM105.375 44.9232L104.943 44.9478L104.943 44.9486L105.375 44.9232ZM105.542 35.6902L105.942 35.5251L105.942 35.5249L105.542 35.6902ZM108.872 18.4662L108.804 18.8938L108.96 18.8902L108.872 18.4662ZM74.248 21.4752C74.2544 21.7142 74.4533 21.9029 74.6924 21.8965C74.9314 21.8902 75.1201 21.6912 75.1137 21.4522L74.248 21.4752ZM83.5359 42.0518V41.6188C83.4127 41.6188 83.2954 41.6713 83.2133 41.763L83.5359 42.0518ZM77.7976 45.7131L77.7104 45.289L77.7102 45.289L77.7976 45.7131ZM77.6738 48.5845L77.7789 48.1645L77.7788 48.1644L77.6738 48.5845ZM87.4064 45.4228L87.0542 45.1709L87.0539 45.1713L87.4064 45.4228ZM86.0967 41.4285L86.2629 41.0286L86.2625 41.0285L86.0967 41.4285ZM83.5404 42.0518V42.4848C83.6635 42.4848 83.7808 42.4324 83.8629 42.3407L83.5404 42.0518ZM82.9683 42.0769C83.0046 42.3133 83.2256 42.4756 83.4619 42.4393C83.6983 42.4031 83.8606 42.1821 83.8244 41.9458L82.9683 42.0769ZM84.5733 37.0156L84.1673 36.865L84.1671 36.8657L84.5733 37.0156ZM86.1552 21.9565L85.732 22.0478L85.7322 22.0489L86.1552 21.9565ZM74.5121 30.609L74.9409 30.6692L74.9409 30.6688L74.5121 30.609ZM83.382 41.1889C83.62 41.1657 83.7942 40.954 83.7711 40.716C83.7479 40.478 83.5362 40.3038 83.2982 40.3269L83.382 41.1889ZM87.3652 43.9413C87.2569 47.8197 87.2704 51.7137 87.4059 54.8786C87.4737 56.4607 87.5721 57.8655 87.702 58.9975C87.8302 60.1147 87.9932 61.0094 88.206 61.5426L89.0103 61.2216C88.845 60.8074 88.6907 60.0175 88.5624 58.8987C88.4357 57.7947 88.3384 56.4122 88.2711 54.8416C88.1366 51.7012 88.123 47.8281 88.2308 43.9654L87.3652 43.9413ZM88.206 61.5426C88.5847 62.4916 89.2116 63.9798 90.4993 65.0645C91.8133 66.1714 93.7551 66.8116 96.6561 66.1891L96.4744 65.3424C93.7968 65.917 92.1382 65.3128 91.0572 64.4022C89.95 63.4695 89.3877 62.1673 89.0103 61.2216L88.206 61.5426ZM96.6561 66.1891C99.0247 65.681 100.71 64.9219 101.893 63.6915C103.077 62.4603 103.707 60.8113 104.08 58.638L103.227 58.4914C102.867 60.5869 102.281 62.0389 101.269 63.0912C100.256 64.1444 98.7639 64.8513 96.4744 65.3423L96.6561 66.1891ZM104.083 58.6189L105.805 44.9752L104.946 44.8668L103.224 58.5105L104.083 58.6189ZM81.1371 5.1511C81.3009 4.75029 81.3006 4.75019 81.3003 4.75005C81.3 4.74995 81.2996 4.74977 81.2991 4.74957C81.2981 4.74917 81.2968 4.74862 81.2951 4.74792C81.2916 4.74651 81.2866 4.74449 81.2801 4.74189C81.2671 4.73668 81.2482 4.72911 81.2234 4.71936C81.1739 4.69985 81.1012 4.6716 81.007 4.63595C80.8186 4.56465 80.5437 4.46372 80.1951 4.34398C79.4981 4.10457 78.5052 3.78957 77.3176 3.48577C74.9473 2.87944 71.7795 2.3119 68.6343 2.49212C65.4897 2.6723 62.3188 3.60379 60.0124 6.04621C57.7023 8.49263 56.33 12.3798 56.6262 18.319L57.4911 18.2759C57.2022 12.4819 58.5472 8.85926 60.6421 6.64077C62.7407 4.41828 65.6625 3.52982 68.6838 3.3567C71.7045 3.18362 74.7757 3.72942 77.1029 4.32476C78.2641 4.6218 79.2346 4.92971 79.9138 5.16301C80.2533 5.27963 80.5197 5.3775 80.7006 5.44592C80.791 5.48012 80.86 5.50695 80.9059 5.52506C80.9289 5.53412 80.9461 5.541 80.9574 5.54553C80.9631 5.5478 80.9672 5.54947 80.9699 5.55055C80.9712 5.55108 80.9721 5.55146 80.9727 5.55169C80.973 5.55181 80.9731 5.55186 80.9733 5.55192C80.9733 5.55193 80.9732 5.55191 81.1371 5.1511ZM56.6261 18.317C56.6842 19.6068 57.1673 22.6243 57.9778 26.2474C58.7906 29.8801 59.9403 34.1563 61.3442 37.9708C62.7406 41.7651 64.4133 45.1741 66.3012 47.0071C67.2511 47.9294 68.3081 48.5033 69.4523 48.4547C70.5994 48.4061 71.712 47.7375 72.7837 46.4491L72.1179 45.8953C71.1306 47.0822 70.225 47.5552 69.4156 47.5895C68.6036 47.624 67.766 47.2223 66.9044 46.3858C65.1693 44.7011 63.5509 41.4593 62.1569 37.6717C60.7704 33.9043 59.6304 29.6675 58.823 26.0583C58.0133 22.4394 57.5456 19.486 57.4912 18.278L56.6261 18.317ZM72.783 46.45C74.2837 44.6554 75.7126 43.0453 76.7664 41.8837C77.2932 41.303 77.7261 40.8347 78.027 40.5118C78.1775 40.3503 78.295 40.2252 78.3747 40.1406C78.4146 40.0983 78.445 40.0661 78.4655 40.0445C78.4757 40.0338 78.4834 40.0256 78.4885 40.0202C78.491 40.0176 78.4929 40.0155 78.4942 40.0142C78.4948 40.0136 78.4953 40.0131 78.4956 40.0127C78.4958 40.0126 78.4959 40.0125 78.4959 40.0124C78.496 40.0124 78.496 40.0123 78.496 40.0123C78.496 40.0123 78.496 40.0123 78.1824 39.7138C77.8688 39.4152 77.8688 39.4152 77.8687 39.4153C77.8687 39.4153 77.8687 39.4153 77.8686 39.4154C77.8685 39.4155 77.8684 39.4156 77.8682 39.4158C77.8678 39.4162 77.8673 39.4168 77.8666 39.4175C77.8652 39.4189 77.8632 39.4211 77.8605 39.4239C77.8552 39.4295 77.8472 39.4379 77.8368 39.449C77.8158 39.471 77.7849 39.5038 77.7445 39.5466C77.6637 39.6324 77.5451 39.7587 77.3935 39.9214C77.0902 40.2468 76.6547 40.718 76.125 41.3018C75.0658 42.4693 73.6289 44.0885 72.1187 45.8944L72.783 46.45ZM94.6252 2.85342C94.6131 2.8571 94.6156 2.856 94.6256 2.85373C94.6289 2.85299 94.6358 2.8515 94.6449 2.84996C94.6515 2.84886 94.6723 2.84543 94.6997 2.84452C94.7144 2.8443 94.7518 2.846 94.7743 2.84858C94.8113 2.85554 94.9103 2.8918 94.9679 2.92729C95.0503 3.00599 95.142 3.22128 95.1405 3.3434C95.1215 3.41911 95.0662 3.52663 95.0397 3.56046C94.9968 3.60981 94.9523 3.63702 94.9482 3.63965C94.9346 3.64843 94.9236 3.6543 94.919 3.65673C94.9135 3.65965 94.9093 3.66167 94.9072 3.66265C94.9049 3.66372 94.9035 3.66438 94.903 3.66457C94.9026 3.66477 94.9075 3.66261 94.9203 3.65762C94.971 3.63785 95.0803 3.59871 95.2457 3.54548C95.5736 3.43991 96.1052 3.28429 96.7968 3.12267C98.1809 2.79923 100.197 2.45397 102.499 2.43392C107.104 2.39381 112.804 3.65233 116.931 8.93493L117.614 8.40178C113.262 2.83108 107.252 1.52649 102.491 1.56795C100.11 1.58869 98.0291 1.94538 96.5998 2.27939C95.8847 2.44649 95.3303 2.60847 94.9803 2.72115C94.8066 2.77705 94.679 2.8222 94.6055 2.85086C94.5873 2.85798 94.5682 2.86568 94.551 2.87334C94.5431 2.87689 94.5299 2.88286 94.5154 2.89053C94.5084 2.8942 94.4955 2.90117 94.4804 2.91088C94.4749 2.91444 94.4294 2.94243 94.386 2.99239C94.3592 3.02653 94.3037 3.13432 94.2848 3.21025C94.2832 3.33259 94.3749 3.54807 94.4575 3.62692C94.5154 3.66255 94.6147 3.69892 94.6521 3.70593C94.675 3.70858 94.713 3.7103 94.7283 3.71005C94.7749 3.70851 94.813 3.69923 94.816 3.69855C94.8389 3.6934 94.8618 3.68664 94.8778 3.68175L94.6252 2.85342ZM116.932 8.93516C117.583 9.76813 117.934 11.3322 117.902 13.5099C117.871 15.6623 117.468 18.3254 116.71 21.2673C115.194 27.1504 112.271 34.0939 108.138 40.2094L108.855 40.6943C113.048 34.4916 116.01 27.4561 117.549 21.4834C118.318 18.4974 118.735 15.7634 118.768 13.5225C118.8 11.3068 118.458 9.48135 117.614 8.40154L116.932 8.93516ZM108.494 40.4316C108.07 40.5177 108.07 40.5183 108.07 40.519C108.07 40.5192 108.07 40.5198 108.07 40.5203C108.071 40.5212 108.071 40.5221 108.071 40.5231C108.071 40.5251 108.072 40.5272 108.072 40.5296C108.073 40.5342 108.075 40.5395 108.076 40.5454C108.079 40.5573 108.083 40.5717 108.088 40.5884C108.099 40.6219 108.114 40.6647 108.135 40.7148C108.179 40.8153 108.249 40.9446 108.359 41.0872C108.582 41.3751 108.958 41.7017 109.582 41.96C110.817 42.4712 113.02 42.7137 116.987 41.8953L116.812 41.0472C112.914 41.8513 110.914 41.574 109.913 41.1598C109.419 40.9553 109.168 40.7178 109.044 40.5572C108.981 40.4756 108.947 40.4096 108.93 40.3709C108.922 40.3514 108.917 40.3385 108.916 40.3338C108.915 40.3314 108.915 40.3311 108.916 40.333C108.916 40.3339 108.916 40.3354 108.917 40.3375C108.917 40.3385 108.917 40.3397 108.918 40.3411C108.918 40.3417 108.918 40.3424 108.918 40.3432C108.918 40.3436 108.918 40.3441 108.918 40.3443C108.918 40.3449 108.919 40.3455 108.494 40.4316ZM116.987 41.8953C117.398 41.8103 117.705 41.7812 117.924 41.7888C118.152 41.7966 118.233 41.8427 118.245 41.8521C118.245 41.8526 118.236 41.8441 118.229 41.8276C118.224 41.8133 118.228 41.8112 118.225 41.8319C118.22 41.8836 118.185 41.9938 118.071 42.1653C117.847 42.5021 117.411 42.9358 116.799 43.3929C116.193 43.8454 115.436 44.3038 114.594 44.6975L114.96 45.4821C115.854 45.0645 116.661 44.5761 117.317 44.0869C117.966 43.6023 118.489 43.0995 118.792 42.6455C118.941 42.4217 119.061 42.173 119.087 41.9198C119.116 41.6393 119.024 41.3582 118.772 41.1648C118.55 40.9952 118.256 40.9337 117.954 40.9233C117.641 40.9125 117.261 40.9544 116.812 41.0472L116.987 41.8953ZM114.595 44.6969C113.235 45.3268 110.977 45.7391 109.037 45.7609C108.068 45.7717 107.216 45.6844 106.615 45.498C105.973 45.2989 105.817 45.0589 105.807 44.8978L104.943 44.9486C104.988 45.7069 105.675 46.1132 106.358 46.3251C107.083 46.5498 108.037 46.6381 109.046 46.6268C111.063 46.6042 113.452 46.1804 114.959 45.4827L114.595 44.6969ZM105.808 44.8987C105.743 43.762 105.917 43.05 106.166 42.5927C106.411 42.1444 106.751 41.8993 107.111 41.7373C107.295 41.6545 107.484 41.5937 107.673 41.5389C107.85 41.4879 108.059 41.4337 108.224 41.3755C108.386 41.3186 108.597 41.2296 108.749 41.0582C108.932 40.8525 108.975 40.5957 108.917 40.3372L108.072 40.526C108.08 40.5646 108.067 40.5226 108.101 40.4838C108.105 40.4794 108.077 40.5095 107.937 40.5585C107.802 40.606 107.649 40.6444 107.432 40.707C107.229 40.7659 106.995 40.8399 106.755 40.9475C106.269 41.1664 105.762 41.5247 105.406 42.178C105.054 42.8224 104.873 43.7104 104.943 44.9478L105.808 44.8987ZM108.917 40.3375C108.839 39.9864 108.653 39.6641 108.439 39.3585C108.225 39.0548 107.95 38.7225 107.673 38.3727C107.109 37.6606 106.46 36.7799 105.942 35.5251L105.141 35.8553C105.704 37.2198 106.411 38.1743 106.994 38.9103C107.29 39.2845 107.536 39.5795 107.73 39.856C107.922 40.1305 108.03 40.3413 108.072 40.5257L108.917 40.3375ZM105.942 35.5249C105.811 35.2089 105.503 34.6552 105.124 33.9753C104.737 33.281 104.258 32.4235 103.759 31.4669C102.76 29.5488 101.7 27.2598 101.172 25.1381C100.636 22.9886 100.683 21.1631 101.681 20.0213C102.673 18.8867 104.767 18.2472 108.804 18.8938L108.941 18.0387C104.843 17.3824 102.335 17.9583 101.029 19.4513C99.73 20.9371 99.7839 23.1513 100.331 25.3475C100.885 27.5715 101.984 29.934 102.991 31.8671C103.496 32.8361 103.982 33.7041 104.368 34.397C104.762 35.1043 105.036 35.5993 105.142 35.8555L105.942 35.5249ZM108.96 18.8902C109.245 18.8311 109.318 18.5732 109.333 18.5123C109.355 18.4191 109.356 18.3236 109.351 18.2487C109.343 18.0906 109.307 17.8895 109.252 17.663C109.14 17.2035 108.933 16.5708 108.623 15.8257C108.002 14.3337 106.958 12.3607 105.412 10.3841C102.316 6.42701 97.1874 2.43566 89.4096 2.30806L89.3954 3.17394C96.8432 3.29613 101.747 7.10551 104.73 10.9177C106.222 12.8257 107.228 14.7294 107.823 16.1584C108.121 16.8739 108.312 17.4628 108.411 17.8675C108.461 18.0731 108.482 18.2148 108.487 18.2952C108.489 18.3397 108.484 18.3374 108.491 18.3096C108.494 18.2954 108.507 18.2495 108.544 18.1969C108.587 18.1375 108.666 18.0668 108.784 18.0423L108.96 18.8902ZM89.4096 2.30806C85.5049 2.244 82.5794 3.41503 80.4018 5.22829C78.2324 7.03471 76.8322 9.45562 75.9269 11.8559C75.0212 14.2571 74.6026 16.6595 74.4095 18.4569C74.3128 19.3568 74.2724 20.108 74.2561 20.6356C74.248 20.8995 74.2459 21.1076 74.2459 21.2506C74.2459 21.3221 74.2464 21.3773 74.2469 21.4151C74.2472 21.4341 74.2474 21.4486 74.2476 21.4587C74.2477 21.4637 74.2478 21.4676 74.2479 21.4703C74.2479 21.4717 74.248 21.4728 74.248 21.4736C74.248 21.474 74.248 21.4744 74.248 21.4746C74.248 21.4749 74.248 21.4752 74.6809 21.4637C75.1137 21.4522 75.1137 21.4523 75.1137 21.4523C75.1137 21.4522 75.1137 21.4521 75.1137 21.452C75.1137 21.4516 75.1137 21.451 75.1137 21.4501C75.1136 21.4482 75.1136 21.4453 75.1135 21.4412C75.1133 21.433 75.1131 21.4203 75.1128 21.4033C75.1124 21.3694 75.1119 21.3181 75.1119 21.2507C75.1119 21.1159 75.1139 20.9167 75.1217 20.6622C75.1374 20.1532 75.1766 19.4242 75.2705 18.5494C75.4587 16.7972 75.8657 14.4721 76.7372 12.1615C77.6091 9.84981 78.9376 7.57445 80.956 5.89378C82.9661 4.21997 85.6872 3.11311 89.3954 3.17394L89.4096 2.30806ZM83.2133 41.763C82.6719 42.3675 82.3031 42.8509 82.0009 43.2321C81.6953 43.6176 81.4682 43.8846 81.1907 44.1061C80.6421 44.5439 79.8358 44.8524 77.7104 45.289L77.8847 46.1373C79.9989 45.703 81.0007 45.3656 81.7309 44.7829C82.0928 44.4941 82.3727 44.1572 82.6795 43.7701C82.9897 43.3788 83.3388 42.921 83.8584 42.3407L83.2133 41.763ZM77.7102 45.289C76.6238 45.5129 75.8891 45.7935 75.4625 46.1414C75.2416 46.3215 75.0769 46.5414 75.0163 46.8044C74.9546 47.0719 75.0147 47.3222 75.1275 47.5315C75.339 47.9238 75.768 48.2371 76.1868 48.4663C76.6224 48.7047 77.1237 48.8933 77.5688 49.0046L77.7788 48.1644C77.4003 48.0698 76.9688 47.9071 76.6026 47.7067C76.2197 47.4971 75.978 47.2841 75.8899 47.1206C75.8529 47.052 75.856 47.017 75.8601 46.999C75.8653 46.9765 75.8892 46.9108 76.0098 46.8125C76.2661 46.6035 76.8256 46.3555 77.8849 46.1372L77.7102 45.289ZM77.5687 49.0046C79.597 49.5122 84.4748 50.2768 87.7589 45.6743L87.0539 45.1713C84.1047 49.3045 79.7426 48.656 77.7789 48.1645L77.5687 49.0046ZM87.7586 45.6747C88.3429 44.8579 88.3183 43.8325 88.0032 42.9809C87.6897 42.1335 87.0534 41.3571 86.2629 41.0286L85.9306 41.8284C86.4452 42.0422 86.9386 42.5991 87.191 43.2814C87.4419 43.9595 87.4196 44.6601 87.0542 45.1709L87.7586 45.6747ZM86.2625 41.0285C85.9513 40.8996 85.4927 40.71 84.9502 40.7578C84.388 40.8073 83.8114 41.1003 83.2178 41.7629L83.8629 42.3407C84.3517 41.795 84.7383 41.6458 85.0261 41.6205C85.3337 41.5934 85.6121 41.6964 85.931 41.8285L86.2625 41.0285ZM83.5404 41.6188H83.5359V42.4848H83.5404V41.6188ZM83.8244 41.9458C83.7311 41.3371 83.8279 40.6436 84.0526 39.8354C84.2777 39.026 84.6164 38.1489 84.9795 37.1656L84.1671 36.8657C83.8123 37.8266 83.4556 38.7498 83.2183 39.6034C82.9806 40.4582 82.8478 41.2904 82.9683 42.0769L83.8244 41.9458ZM84.9792 37.1662C85.2447 36.4505 85.5881 35.761 85.9576 34.9044C86.3201 34.0641 86.684 33.1119 86.9484 31.9537C87.4783 29.6323 87.598 26.5296 86.5783 21.864L85.7322 22.0489C86.731 26.6187 86.5998 29.5896 86.1041 31.761C85.8557 32.8491 85.5132 33.7481 85.1624 34.5614C84.8186 35.3584 84.4419 36.1248 84.1673 36.865L84.9792 37.1662ZM86.5785 21.8651C86.1795 20.0166 85.1865 18.94 83.8921 18.4401C82.6311 17.953 81.144 18.0359 79.7644 18.354C78.3767 18.674 77.0434 19.2442 76.0542 19.795C75.56 20.0701 75.1408 20.3464 74.8388 20.5921C74.689 20.7141 74.5568 20.8375 74.4577 20.9577C74.377 21.0557 74.2467 21.2343 74.2456 21.4548L75.1116 21.459C75.1111 21.5628 75.0593 21.5894 75.1261 21.5084C75.1746 21.4495 75.2588 21.3668 75.3854 21.2639C75.6362 21.0598 76.0096 20.811 76.4755 20.5516C77.4065 20.0332 78.6637 19.4965 79.9589 19.1979C81.2622 18.8974 82.5507 18.8503 83.5801 19.2479C84.5761 19.6326 85.3883 20.4557 85.732 22.0478L86.5785 21.8651ZM74.2456 21.4548C74.2408 22.4618 74.6949 26.1624 74.0832 30.5492L74.9409 30.6688C75.5624 26.2117 75.1075 22.3198 75.1116 21.459L74.2456 21.4548ZM74.0833 30.5488C73.2394 36.559 77.9071 41.7213 83.382 41.1889L83.2982 40.3269C78.4531 40.7981 74.1645 36.1986 74.9409 30.6692L74.0833 30.5488Z" fill="white"/>
<path d="M81.02 21.3185C80.975 21.638 81.605 22.4886 82.4219 22.6011C83.2388 22.7137 83.9409 22.0498 83.9836 21.7325C84.0264 21.4152 83.3985 21.0619 82.5794 20.9449C81.7603 20.8279 81.0605 20.9967 81.0177 21.3162L81.02 21.3185Z" fill="white"/>
<path d="M105.94 20.6681C105.985 20.9877 105.355 21.8383 104.538 21.9508C103.721 22.0633 103.019 21.3995 102.974 21.0822C102.929 20.7649 103.559 20.4116 104.378 20.2991C105.197 20.1866 105.897 20.3508 105.942 20.6704L105.94 20.6681Z" fill="white"/>
<path fill-rule="evenodd" clip-rule="evenodd" d="M105.426 20.4284C105.159 20.3651 104.793 20.3516 104.392 20.4066C103.993 20.4615 103.643 20.5748 103.403 20.709C103.283 20.7764 103.194 20.8462 103.14 20.9122C103.085 20.9782 103.072 21.0312 103.078 21.0714C103.085 21.1234 103.124 21.2067 103.204 21.3058C103.282 21.4023 103.391 21.5046 103.525 21.595C103.793 21.7763 104.147 21.903 104.524 21.8512C104.902 21.7992 105.243 21.5745 105.486 21.319C105.608 21.1918 105.702 21.0599 105.762 20.9434C105.825 20.8223 105.843 20.7335 105.836 20.6866L105.834 20.6675C105.822 20.6316 105.793 20.592 105.735 20.5517C105.664 20.503 105.561 20.4601 105.426 20.4284ZM106.012 20.8917C105.995 20.9407 105.973 20.9905 105.948 21.0396C105.877 21.1759 105.771 21.3237 105.638 21.4631C105.373 21.7409 104.991 21.9978 104.552 22.0583C104.112 22.119 103.706 21.97 103.408 21.7682C103.258 21.6671 103.133 21.551 103.041 21.4372C102.951 21.3262 102.886 21.2075 102.871 21.1008C102.854 20.9825 102.902 20.8722 102.979 20.7792C103.055 20.6863 103.167 20.6013 103.301 20.5265C103.569 20.3767 103.945 20.257 104.364 20.1995C104.783 20.1419 105.176 20.1543 105.475 20.2249C105.623 20.2601 105.754 20.3111 105.853 20.3797C105.953 20.4483 106.029 20.5412 106.046 20.6597L106.089 20.9693L106.012 20.8917ZM81.4831 20.8691C81.7815 20.7979 82.1749 20.7855 82.5941 20.8454C83.0132 20.9052 83.388 21.026 83.6558 21.1764C83.7895 21.2514 83.9013 21.3365 83.978 21.4295C84.0547 21.5224 84.1031 21.6323 84.0872 21.7504C84.0727 21.8574 84.0072 21.9763 83.9178 22.0874C83.8262 22.2012 83.701 22.3174 83.5516 22.4185C83.2534 22.6204 82.8481 22.7693 82.4076 22.7086C81.9686 22.6482 81.5865 22.3912 81.322 22.1135C81.1891 21.974 81.0829 21.8263 81.0123 21.6899C80.9549 21.5791 80.915 21.4644 80.9132 21.3636L80.9072 21.3577L80.914 21.3063C80.9299 21.1876 81.0057 21.0943 81.1047 21.0252C81.2035 20.9562 81.3342 20.9047 81.4831 20.8691ZM81.1274 21.3085L81.1234 21.337C81.1168 21.3839 81.1352 21.4727 81.1979 21.5937C81.2583 21.7102 81.3522 21.8421 81.4734 21.9693C81.7168 22.2249 82.0582 22.4495 82.4361 22.5015C82.8125 22.5534 83.1666 22.4267 83.4344 22.2454C83.5679 22.155 83.6774 22.0527 83.755 21.9563C83.8347 21.8572 83.873 21.7742 83.88 21.7225C83.8854 21.6819 83.8714 21.6287 83.8168 21.5625C83.7621 21.4963 83.6739 21.4263 83.5535 21.3587C83.3133 21.2239 82.9646 21.1095 82.5646 21.0523C82.1647 20.9952 81.7987 21.0087 81.5317 21.0725C81.3978 21.1044 81.2943 21.1477 81.2243 21.1966C81.1685 21.2356 81.1396 21.2737 81.1274 21.3085Z" fill="white"/>
<path fill-rule="evenodd" clip-rule="evenodd" d="M108.834 17.8339C109.181 17.8152 109.477 18.0811 109.496 18.4277C109.567 19.7434 109.423 20.8464 109.26 21.9268C109.241 22.0523 109.221 22.1772 109.202 22.3021C109.055 23.2575 108.908 24.2092 108.873 25.3448L108.873 25.3456C108.843 26.2619 108.937 27.2232 109.058 28.2504C109.077 28.4163 109.097 28.584 109.118 28.7533C109.222 29.6194 109.331 30.5285 109.376 31.4482C109.486 33.6702 109.229 36.0363 107.642 38.4051C107.448 38.6936 107.058 38.7707 106.769 38.5774C106.481 38.3842 106.404 37.9937 106.597 37.7053C107.98 35.641 108.223 33.5773 108.121 31.5102C108.078 30.6387 107.975 29.781 107.871 28.9151C107.85 28.7428 107.829 28.5701 107.809 28.3969C107.688 27.3673 107.583 26.3239 107.616 25.3051C107.654 24.0885 107.813 23.0613 107.96 22.1087C107.979 21.9841 107.998 21.8608 108.016 21.7385C108.177 20.6765 108.304 19.6778 108.24 18.4956C108.221 18.1489 108.487 17.8527 108.834 17.8339Z" fill="white"/>
</svg>
