<svg width="170" height="68" viewBox="0 0 170 68" fill="none" xmlns="http://www.w3.org/2000/svg">
<path d="M87.5465 0C106.459 0 121.966 15.3286 121.941 33.9619C121.915 52.9002 106.459 68 87.1398 68C68.2778 67.9746 53 52.646 53 33.7077C53.0254 15.1761 68.5828 0 87.5465 0V0ZM77.0987 11.9222C77.5308 14.0322 77.0987 16.015 76.4632 17.9723C76.031 19.3196 75.3955 20.6161 75.0396 21.9888C74.4295 24.2512 73.7432 26.5136 73.489 28.8015C73.1331 32.1062 74.4295 35.0295 76.6665 37.9275C73.0314 37.1649 69.7267 36.4785 66.3712 35.7667C66.3966 36.0972 66.3712 36.2243 66.3966 36.326C67.3626 39.1731 69.0912 41.5626 71.0232 43.8505C71.2265 44.0793 71.6841 44.2064 72.04 44.2064C82.3099 44.2318 92.5544 44.2318 102.824 44.2064C103.155 44.2064 103.561 44.1555 103.765 43.9521C105.976 41.6643 107.654 39.046 108.696 35.7413C104.934 36.4785 101.35 37.1649 97.791 37.8512C98.5028 36.4531 99.3417 35.2075 99.7993 33.8602C101.401 29.2336 100.74 24.7596 98.4265 20.5398C96.5708 17.1589 94.8422 13.7779 95.7828 9.71065C93.8254 11.6426 93.0628 14.083 92.5798 16.625C92.0968 19.1163 91.8426 21.6329 91.4613 24.175C91.4105 24.0987 91.3342 24.0479 91.3342 23.9716C91.2834 23.7174 91.2579 23.4378 91.2325 23.1836C91.0037 19.04 90.1903 15.049 88.4871 11.2613C87.4703 9.0243 86.3518 6.73645 87.394 4.06729C86.6822 4.4486 86.0467 4.80449 85.5892 5.33832C84.2164 6.91439 83.6572 8.77009 83.5301 10.8292C83.403 12.5832 83.225 14.3626 82.92 16.0912C82.5641 17.8961 82.0303 19.6755 80.8101 21.3533C80.3525 17.7181 80.3017 14.1847 77.0987 11.9222V11.9222ZM103.561 47.3331H71.3791V52.9002H103.561V47.3331ZM77.7596 55.7473C77.7342 60.3738 82.4879 63.831 88.3346 63.5768C93.1899 63.3735 97.486 59.5604 97.1301 55.7473H77.7596Z" fill="#E75225"/>
</svg>
