<svg width="170" height="68" viewBox="0 0 170 68" fill="none" xmlns="http://www.w3.org/2000/svg">
<path d="M119.333 49.9397C115.704 51.8325 96.9076 59.5607 92.9057 61.6464C88.9037 63.7321 86.681 63.7123 83.519 62.2016C80.3571 60.691 60.3544 52.6113 56.749 50.8879C54.9463 50.0262 54.0017 49.3016 54.0017 48.6165V41.7429C54.0017 41.7429 80.0452 36.0734 84.2509 34.5645C88.4566 33.0557 89.9114 33.0016 93.4915 34.3121C97.0717 35.6227 118.464 39.4823 121.999 40.7784V47.5565C121.999 48.2362 121.185 48.9987 119.337 49.9433L119.333 49.9397Z" fill="#A41E11"/>
<path d="M119.333 43.0646C115.704 44.9574 96.9077 52.6856 92.9057 54.7713C88.9037 56.857 86.681 56.8372 83.519 55.3265C80.3571 53.8159 60.3544 45.7362 56.749 44.0128C53.1436 42.2894 53.0715 41.1051 56.6102 39.7188L84.2491 29.018C88.453 27.5109 89.9096 27.4551 93.4898 28.7656C97.0699 30.0762 115.753 37.5123 119.286 38.8283C122.82 40.1442 122.958 41.1898 119.33 43.0826L119.333 43.0646Z" fill="#D82C20"/>
<path d="M119.333 38.7307C115.704 40.6236 96.9076 48.3517 92.9057 50.4374C88.9037 52.5231 86.681 52.5033 83.519 50.9927C80.3571 49.482 60.3544 41.4023 56.749 39.6789C54.9463 38.8173 54.0017 38.0926 54.0017 37.4075V30.5339C54.0017 30.5339 80.0452 24.8644 84.2509 23.3555C88.4566 21.8467 89.9114 21.7926 93.4915 23.1032C97.0717 24.4137 118.464 28.2733 121.999 29.5694V36.3476C121.999 37.0272 121.185 37.7897 119.337 38.7343L119.333 38.7307Z" fill="#A41E11"/>
<path d="M119.333 31.8574C115.704 33.7502 96.9076 41.4783 92.9057 43.5641C88.9037 45.6498 86.681 45.6299 83.519 44.1193C80.3571 42.6086 60.3544 34.529 56.749 32.8056C53.1436 31.0822 53.0715 29.8978 56.6102 28.5116L84.2491 17.8126C88.453 16.3037 89.9096 16.2496 93.4897 17.5602C97.0699 18.8708 115.753 26.3087 119.29 27.6012C122.827 28.8937 122.962 29.9627 119.333 31.8556V31.8574Z" fill="#D82C20"/>
<path d="M119.333 27.1065C115.704 28.9994 96.9076 36.7275 92.9057 38.815C88.9037 40.9026 86.681 40.8809 83.519 39.3703C80.3571 37.8596 60.3544 29.7799 56.749 28.0566C54.9463 27.1949 54.0017 26.4702 54.0017 25.7852V18.9079C54.0017 18.9079 80.0452 13.2384 84.2509 11.7296C88.4566 10.2207 89.9114 10.1666 93.4915 11.4772C97.0717 12.7877 118.464 16.6473 121.999 17.9435V24.7216C121.999 25.4012 121.185 26.1637 119.337 27.1084L119.333 27.1065Z" fill="#A41E11"/>
<path d="M119.333 20.2314C115.704 22.1242 96.9076 29.8524 92.9057 31.9381C88.9037 34.0238 86.681 34.004 83.519 32.4933C80.3571 30.9827 60.3544 22.903 56.749 21.1796C53.1436 19.4562 53.0715 18.2719 56.6102 16.8856L84.2491 6.18659C88.453 4.67774 89.9096 4.62366 93.4897 5.93422C97.0699 7.24478 115.753 14.6827 119.29 15.9752C122.827 17.2678 122.962 18.3368 119.333 20.2296V20.2314Z" fill="#D82C20"/>
<path d="M89.6969 17.3976L87.5661 13.8553L80.7627 13.2424L85.8391 11.4108L84.3158 8.59863L89.0677 10.4554L93.5492 8.98802L92.3378 11.894L96.9059 13.6065L91.0146 14.2194L89.6969 17.3976ZM78.3471 24.4497L94.1027 22.0305L89.3435 29.0105L78.3471 24.4497Z" fill="white"/>
<path d="M74.1 21.9063C78.7514 21.9063 82.5221 20.4447 82.5221 18.6416C82.5221 16.8386 78.7514 15.377 74.1 15.377C69.4485 15.377 65.6778 16.8386 65.6778 18.6416C65.6778 20.4447 69.4485 21.9063 74.1 21.9063Z" fill="white"/>
<path d="M113.197 18.165L103.877 21.8461L103.87 14.4785L113.197 18.165Z" fill="#7A0C00"/>
<path d="M103.879 21.8463L102.869 22.2429L93.5565 18.5618L103.873 14.4805L103.879 21.8463Z" fill="#AD2115"/>
</svg>
