<svg width="170" height="69" viewBox="0 0 170 69" fill="none" xmlns="http://www.w3.org/2000/svg">
<g clip-path="url(#clip0_102_6924)">
<path d="M84.8583 3.75057C84.2875 3.77933 83.7282 3.92086 83.2132 4.16687L60.7645 14.8931C60.1835 15.1706 59.673 15.5743 59.2709 16.0743C58.8688 16.5743 58.5854 17.1578 58.4419 17.7813L52.9036 41.8751C52.7758 42.4302 52.7614 43.0051 52.8616 43.5658C52.9617 44.1266 53.1742 44.6616 53.4865 45.1395C53.5622 45.2563 53.6436 45.3693 53.7305 45.4782L69.2686 64.7975C69.6708 65.2974 70.1813 65.701 70.7624 65.9783C71.3434 66.2557 71.98 66.3996 72.6248 66.3995L97.5425 66.3937C98.1871 66.3942 98.8236 66.2507 99.4046 65.9739C99.9856 65.697 100.496 65.2939 100.899 64.7946L116.431 45.4725C116.834 44.9724 117.117 44.3887 117.261 43.7649C117.404 43.1411 117.404 42.4932 117.261 41.8694L111.714 17.7756C111.57 17.1521 111.287 16.5686 110.885 16.0686C110.483 15.5686 109.972 15.1648 109.391 14.8873L86.9398 4.16687C86.2921 3.85741 85.5763 3.71426 84.8583 3.75057Z" fill="#326CE5"/>
<path d="M84.8462 2.00593C84.2443 2.03746 83.6548 2.18778 83.1121 2.44807L59.4117 13.7686C58.7984 14.0615 58.2595 14.4877 57.835 15.0156C57.4105 15.5435 57.1114 16.1594 56.9599 16.8176L51.1144 42.2521C50.979 42.8384 50.9636 43.4457 51.0692 44.038C51.1747 44.6303 51.399 45.1955 51.7288 45.7003C51.8091 45.823 51.8953 45.9418 51.9872 46.0563L68.3894 66.4521C68.814 66.9798 69.353 67.4058 69.9663 67.6986C70.5797 67.9913 71.2516 68.1433 71.9323 68.1432L98.2368 68.1374C98.9172 68.1379 99.589 67.9864 100.202 67.6941C100.816 67.4019 101.355 66.9764 101.78 66.4492L118.176 46.0505C118.601 45.5228 118.9 44.907 119.051 44.249C119.203 43.5909 119.203 42.9074 119.052 42.2493L113.198 16.8119C113.046 16.1542 112.747 15.5388 112.322 15.0115C111.898 14.4841 111.359 14.0584 110.746 13.7657L87.0455 2.4452C86.3611 2.11829 85.6049 1.96724 84.8462 2.00593ZM84.8577 3.75153C85.5758 3.71522 86.2915 3.85837 86.9392 4.16783L109.391 14.8883C109.972 15.1658 110.482 15.5695 110.884 16.0695C111.287 16.5696 111.57 17.153 111.713 17.7765L117.26 41.8703C117.404 42.4941 117.404 43.142 117.26 43.7658C117.117 44.3896 116.833 44.9733 116.431 45.4734L100.898 64.7955C100.496 65.2949 99.985 65.698 99.404 65.9748C98.823 66.2517 98.1866 66.3952 97.542 66.3947L72.6242 66.4005C71.9794 66.4006 71.3428 66.2566 70.7618 65.9793C70.1808 65.7019 69.6702 65.2983 69.268 64.7984L53.7299 45.4792C53.6431 45.3703 53.5616 45.2572 53.4859 45.1404C53.1736 44.6626 52.9611 44.1275 52.861 43.5668C52.7609 43.0061 52.7752 42.4312 52.9031 41.8761L58.4413 17.7823C58.5849 17.1588 58.8682 16.5753 59.2703 16.0753C59.6724 15.5753 60.183 15.1715 60.764 14.8941L83.2126 4.16785C83.7276 3.92184 84.2869 3.78028 84.8577 3.75153Z" fill="white"/>
<path d="M70.9752 60.5573C70.4904 60.5573 70.0623 60.4348 69.6911 60.1898C69.3199 59.9424 69.0295 59.5939 68.8199 59.1444C68.6103 58.6924 68.5055 58.1583 68.5055 57.5421C68.5055 56.931 68.6103 56.4007 68.8199 55.9512C69.0295 55.5017 69.3212 55.1545 69.6949 54.9095C70.0687 54.6646 70.5005 54.5421 70.9904 54.5421C71.3692 54.5421 71.6684 54.6052 71.8881 54.7315C72.1103 54.8552 72.2795 54.9967 72.3957 55.1557C72.5144 55.3123 72.6065 55.4411 72.6722 55.5421H72.748V52.6785H73.6419V60.4361H72.7783V59.5421H72.6722C72.6065 59.6482 72.5131 59.782 72.3919 59.9436C72.2707 60.1027 72.0977 60.2454 71.873 60.3717C71.6482 60.4954 71.349 60.5573 70.9752 60.5573ZM71.0964 59.7542C71.455 59.7542 71.7581 59.6608 72.0055 59.4739C72.253 59.2845 72.4411 59.0232 72.5699 58.6898C72.6987 58.354 72.7631 57.9664 72.7631 57.527C72.7631 57.0926 72.7 56.7126 72.5737 56.3868C72.4474 56.0585 72.2606 55.8035 72.0131 55.6217C71.7656 55.4373 71.4601 55.3451 71.0964 55.3451C70.7176 55.3451 70.402 55.4424 70.1495 55.6368C69.8995 55.8287 69.7113 56.0901 69.5851 56.4209C69.4613 56.7492 69.3995 57.1179 69.3995 57.527C69.3995 57.9411 69.4626 58.3174 69.5889 58.6557C69.7176 58.9916 69.907 59.2593 70.157 59.4588C70.4096 59.6557 70.7227 59.7542 71.0964 59.7542ZM77.8426 60.5573C77.282 60.5573 76.7985 60.4335 76.3919 60.1861C75.9879 59.9361 75.676 59.5876 75.4563 59.1406C75.2391 58.6911 75.1305 58.1684 75.1305 57.5724C75.1305 56.9765 75.2391 56.4512 75.4563 55.9967C75.676 55.5396 75.9815 55.1835 76.373 54.9285C76.7669 54.6709 77.2265 54.5421 77.7517 54.5421C78.0548 54.5421 78.354 54.5926 78.6495 54.6936C78.9449 54.7946 79.2139 54.9588 79.4563 55.1861C79.6987 55.4108 79.8919 55.7088 80.0358 56.08C80.1798 56.4512 80.2517 56.9083 80.2517 57.4512V57.83H75.7669V57.0573H79.3426C79.3426 56.729 79.277 56.4361 79.1457 56.1785C79.0169 55.9209 78.8325 55.7176 78.5926 55.5686C78.3553 55.4196 78.075 55.3451 77.7517 55.3451C77.3957 55.3451 77.0876 55.4335 76.8275 55.6103C76.5699 55.7845 76.3717 56.0118 76.2328 56.2921C76.0939 56.5724 76.0245 56.8729 76.0245 57.1936V57.7088C76.0245 58.1482 76.1002 58.5206 76.2517 58.8262C76.4058 59.1292 76.6192 59.3603 76.8919 59.5194C77.1646 59.6759 77.4815 59.7542 77.8426 59.7542C78.0775 59.7542 78.2896 59.7214 78.479 59.6557C78.6709 59.5876 78.8363 59.4866 78.9752 59.3527C79.1141 59.2164 79.2214 59.0472 79.2972 58.8451L80.1608 59.0876C80.0699 59.3805 79.9171 59.6381 79.7025 59.8603C79.4879 60.08 79.2227 60.2517 78.907 60.3754C78.5914 60.4967 78.2366 60.5573 77.8426 60.5573ZM81.6116 62.6179V54.6179H82.4752V55.5421H82.5813C82.6469 55.4411 82.7379 55.3123 82.854 55.1557C82.9727 54.9967 83.1419 54.8552 83.3616 54.7315C83.5838 54.6052 83.8843 54.5421 84.2631 54.5421C84.753 54.5421 85.1848 54.6646 85.5586 54.9095C85.9323 55.1545 86.224 55.5017 86.4336 55.9512C86.6432 56.4007 86.748 56.931 86.748 57.5421C86.748 58.1583 86.6432 58.6924 86.4336 59.1444C86.224 59.5939 85.9336 59.9424 85.5623 60.1898C85.1911 60.4348 84.7631 60.5573 84.2783 60.5573C83.9045 60.5573 83.6053 60.4954 83.3805 60.3717C83.1558 60.2454 82.9828 60.1027 82.8616 59.9436C82.7404 59.782 82.6469 59.6482 82.5813 59.5421H82.5055V62.6179H81.6116ZM82.4904 57.527C82.4904 57.9664 82.5548 58.354 82.6836 58.6898C82.8123 59.0232 83.0005 59.2845 83.248 59.4739C83.4954 59.6608 83.7985 59.7542 84.157 59.7542C84.5308 59.7542 84.8427 59.6557 85.0927 59.4588C85.3452 59.2593 85.5346 58.9916 85.6608 58.6557C85.7896 58.3174 85.854 57.9411 85.854 57.527C85.854 57.1179 85.7909 56.7492 85.6646 56.4209C85.5409 56.0901 85.3528 55.8287 85.1002 55.6368C84.8502 55.4424 84.5358 55.3451 84.157 55.3451C83.7934 55.3451 83.4879 55.4373 83.2404 55.6217C82.9929 55.8035 82.806 56.0585 82.6798 56.3868C82.5535 56.7126 82.4904 57.0926 82.4904 57.527ZM89.0055 52.6785V60.4361H88.1116V52.6785H89.0055ZM93.0065 60.5573C92.4812 60.5573 92.0204 60.4323 91.6239 60.1823C91.23 59.9323 90.9219 59.5825 90.6997 59.133C90.48 58.6835 90.3701 58.1583 90.3701 57.5573C90.3701 56.9512 90.48 56.4222 90.6997 55.9701C90.9219 55.5181 91.23 55.1671 91.6239 54.9171C92.0204 54.6671 92.4812 54.5421 93.0065 54.5421C93.5317 54.5421 93.9913 54.6671 94.3853 54.9171C94.7817 55.1671 95.0898 55.5181 95.3095 55.9701C95.5317 56.4222 95.6428 56.9512 95.6428 57.5573C95.6428 58.1583 95.5317 58.6835 95.3095 59.133C95.0898 59.5825 94.7817 59.9323 94.3853 60.1823C93.9913 60.4323 93.5317 60.5573 93.0065 60.5573ZM93.0065 59.7542C93.4055 59.7542 93.7337 59.652 93.9913 59.4474C94.2489 59.2429 94.4396 58.9739 94.5633 58.6406C94.687 58.3073 94.7489 57.9462 94.7489 57.5573C94.7489 57.1684 94.687 56.806 94.5633 56.4701C94.4396 56.1343 94.2489 55.8628 93.9913 55.6557C93.7337 55.4487 93.4055 55.3451 93.0065 55.3451C92.6075 55.3451 92.2792 55.4487 92.0216 55.6557C91.7641 55.8628 91.5734 56.1343 91.4497 56.4701C91.3259 56.806 91.2641 57.1684 91.2641 57.5573C91.2641 57.9462 91.3259 58.3073 91.4497 58.6406C91.5734 58.9739 91.7641 59.2429 92.0216 59.4474C92.2792 59.652 92.6075 59.7542 93.0065 59.7542ZM97.3748 62.6179C97.2233 62.6179 97.0882 62.6052 96.9695 62.58C96.8509 62.5573 96.7688 62.5345 96.7233 62.5118L96.9506 61.7239C97.1678 61.7795 97.3597 61.7997 97.5264 61.7845C97.693 61.7694 97.8408 61.6949 97.9695 61.5611C98.1009 61.4297 98.2208 61.2164 98.3294 60.9209L98.4961 60.4664L96.3445 54.6179H97.3142L98.9203 59.2542H98.9809L100.587 54.6179H101.557L99.087 61.2845C98.9759 61.585 98.8382 61.8338 98.6741 62.0307C98.5099 62.2302 98.3193 62.378 98.1021 62.4739C97.8875 62.5699 97.645 62.6179 97.3748 62.6179Z" fill="white"/>
<path fill-rule="evenodd" clip-rule="evenodd" d="M83.423 49.4612C74.191 49.8979 66.3393 42.797 65.8492 33.5677C65.3591 24.3384 72.4145 16.4458 81.6408 15.9022C90.8671 15.3587 98.8004 22.3683 99.3973 31.5913L92.7564 32.0211C92.3958 26.4508 87.6045 22.2173 82.0322 22.5455C76.4598 22.8738 72.1987 27.6406 72.4947 33.2148C72.7906 38.7889 77.5328 43.0776 83.1085 42.8138L83.423 49.4612Z" fill="white"/>
<path fill-rule="evenodd" clip-rule="evenodd" d="M86.8643 31.6112L92.146 44.5391L104.34 31.6112H86.8643Z" fill="white"/>
</g>
<defs>
<clipPath id="clip0_102_6924">
<rect width="68.165" height="66.1432" fill="white" transform="translate(51 2)"/>
</clipPath>
</defs>
</svg>
