<svg width="170" height="68" viewBox="0 0 170 68" fill="none" xmlns="http://www.w3.org/2000/svg">
<g clip-path="url(#clip0_102_6924)">
<path fill-rule="evenodd" clip-rule="evenodd" d="M73.7656 0C70.0317 0.00277268 67.0098 3.04718 67.0126 6.79861C67.0098 10.5501 70.0345 13.5945 73.7684 13.5972H80.5241V6.80139C80.5269 3.04995 77.5023 0.00554536 73.7656 0C73.7684 0 73.7684 0 73.7656 0M73.7656 18.1333H55.7557C52.0219 18.1361 48.9972 21.1805 49 24.9319C48.9945 28.6834 52.0191 31.7278 55.753 31.7333H73.7656C77.4995 31.7306 80.5241 28.6862 80.5214 24.9347C80.5241 21.1805 77.4995 18.1361 73.7656 18.1333V18.1333Z" fill="#36C5F0"/>
<path fill-rule="evenodd" clip-rule="evenodd" d="M116.547 24.9319C116.549 21.1805 113.525 18.1361 109.791 18.1333C106.057 18.1361 103.032 21.1805 103.035 24.9319V31.7333H109.791C113.525 31.7306 116.549 28.6862 116.547 24.9319ZM98.534 24.9319V6.79861C98.5368 3.04995 95.5149 0.00554536 91.781 0C88.0471 0.00277268 85.0225 3.04718 85.0252 6.79861V24.9319C85.0197 28.6834 88.0444 31.7278 91.7783 31.7333C95.5121 31.7306 98.5368 28.6862 98.534 24.9319Z" fill="#2EB67D"/>
<path fill-rule="evenodd" clip-rule="evenodd" d="M91.7783 68C95.5122 67.9972 98.5368 64.9528 98.534 61.2014C98.5368 57.45 95.5122 54.4055 91.7783 54.4028H85.0225V61.2014C85.0197 64.9501 88.0444 67.9945 91.7783 68ZM91.7783 49.8639H109.791C113.525 49.8611 116.549 46.8167 116.547 43.0653C116.552 39.3138 113.528 36.2694 109.794 36.2639H91.781C88.0471 36.2667 85.0225 39.3111 85.0253 43.0625C85.0225 46.8167 88.0444 49.8611 91.7783 49.8639V49.8639Z" fill="#ECB22E"/>
<path fill-rule="evenodd" clip-rule="evenodd" d="M49 43.0653C48.9972 46.8167 52.0219 49.8611 55.7558 49.8639C59.4897 49.8611 62.5143 46.8167 62.5115 43.0653V36.2667H55.7558C52.0219 36.2694 48.9972 39.3138 49 43.0653ZM67.0126 43.0653V61.1986C67.0071 64.95 70.0317 67.9945 73.7656 68C77.4995 67.9972 80.5242 64.9528 80.5214 61.2014V43.0708C80.5269 39.3194 77.5023 36.275 73.7684 36.2694C70.0317 36.2694 67.0099 39.3138 67.0126 43.0653C67.0126 43.068 67.0126 43.0653 67.0126 43.0653Z" fill="#E01E5A"/>
</g>
<defs>
<clipPath id="clip0_102_6924">
<rect width="67.5467" height="68" fill="white" transform="translate(49)"/>
</clipPath>
</defs>
</svg>
