<svg preserveAspectRatio="xMidYMid meet" data-bbox="47.89 15.5 104.049 169.05" viewBox="47.89 15.5 104.049 169.05" xmlns="http://www.w3.org/2000/svg" data-type="color" role="presentation" aria-hidden="true" aria-labelledby="svgcid--ojptgg-6iy5wp"><defs><style>#comp-l6nkp8ft svg [data-color="1"] {fill: #FFFFFF;}</style></defs><title id="svgcid--ojptgg-6iy5wp"></title>
    <g>
        <path d="M82.3 34.6c4.9-7.1 10.1-14.5 17.6-19.1 7.4 4.4 12.6 11.7 17.4 18.7 11.3 17.3 18.3 38.1 16.9 59 3.7 3.1 7.5 6.1 11 9.2 5.2 4.8 7.7 12.3 6.4 19.3-1.8 8.8-3.4 17.6-5.3 26.4-1 4.5-7.1 6.6-10.6 3.7-6-5-11.7-10.1-17.6-15.1-4.5 4.3-10.4 7.2-16.7 7.6-7.2.5-14.3-2.5-19.6-7.4-4.3 3.3-8.2 7.2-12.3 10.7-2 1.6-3.7 3.8-6.1 4.9-3.7 1.6-8.5-.8-9.3-4.8-1.9-8.6-3.9-17.1-5.8-25.7-1.5-7.3 1.2-15.2 6.8-20.1 3.2-2.7 6.5-5.4 9.7-8 .9-.5.5-1.6.5-2.4-.7-20.2 6.2-40.2 17-56.9zm5.9 26.6c-4.3 5.6-3.8 14.2 1.2 19.2 5.3 5.9 15.3 6.1 20.8.4 4.3-3.9 5.7-10.5 3.7-15.9-1.9-5.2-6.9-9.1-12.3-9.6-5.1-.6-10.4 1.7-13.4 5.9z" fill="#fff" data-color="1"></path>
        <path d="M80.2 154.8c-.1-2.5 3.1-4.3 5.2-2.9 9 4.6 20.1 4.6 29 0 2.1-1.3 5.1.3 5.2 2.7v16.1c0 2.6-3.4 4.3-5.5 2.7-1.5-1.4-2.9-2.9-4.4-4.3-2.4 4.6-4.6 9.3-7 13.8-1.1 2.2-4.7 2.2-5.9 0-2.4-4.6-4.6-9.3-7-13.9-1.5 1.5-2.9 3-4.4 4.3-2 1.7-5.5-.1-5.5-2.7.3-5.1.3-10.4.3-15.8z" fill="#fff" data-color="1"></path>
    </g>
</svg>