<svg preserveAspectRatio="xMidYMid meet" data-bbox="10.001 31.501 179.999 136.999" viewBox="10.001 31.501 179.999 136.999" height="200" width="200" xmlns="http://www.w3.org/2000/svg" data-type="color" role="presentation" aria-hidden="true" aria-labelledby="svgcid-3i5lv2-v6pajc"><defs><style>#comp-l76az16d svg [data-color="1"] {fill: #940DAE;}</style></defs><title id="svgcid-3i5lv2-v6pajc"></title>
    <g>
        <path d="M103.085 135.61v-8.463c5.945-.551 10.276-2.297 12.949-5.33 2.581-3.033 3.871-6.341 3.871-9.833 0-8.179-5.714-13.325-16.82-15.347V78.901c5.115.368 8.617 2.757 10.092 7.26l5.622-1.838c-2.581-6.525-7.926-10.2-15.714-10.936v-6.7h-5.53v6.7c-10.184 1.746-15.253 6.525-15.253 14.52 0 3.033.922 5.789 2.857 8.271 1.935 2.481 6.083 4.503 12.396 6.065v19.206c-5.852-.459-9.815-3.676-12.027-9.465l-5.622 2.206c2.581 7.627 8.479 11.946 17.649 12.957v8.463h5.53zm0-32.172c7.097 1.011 10.691 4.043 10.691 9.098 0 2.389-.922 4.411-2.857 6.157-1.843 1.746-4.516 2.665-7.834 2.757v-18.012zM88.154 87.264c0-2.297.829-4.227 2.581-5.789 1.659-1.562 3.963-2.389 6.82-2.573v17.001c-6.267-1.196-9.401-4.044-9.401-8.639z" fill="#940dae" data-color="1"></path>
        <path d="M61.013 87.18c-1.29-1.011-3.134-.919-4.147.368l-20.83 24.812c-2.581-14.703.276-29.774 8.203-42.915 9.216-15.347 24.331-26.466 41.473-30.51 22.488-5.238 45.989 2.206 61.381 19.574 1.106 1.195 2.949 1.287 4.147.276 1.198-1.103 1.29-2.941.276-4.135-16.774-18.931-42.487-27.109-67.095-21.32-18.617 4.319-35.114 16.449-45.16 33.174-7.373 12.314-10.691 26.098-9.769 39.883l-14.1-21.044c-.922-1.378-2.765-1.746-4.055-.827-1.382.919-1.751 2.665-.829 4.043l21.474 31.98c.553.735 1.382 1.287 2.304 1.287h.184a2.95 2.95 0 0 0 2.212-1.011l24.792-29.499c1.013-1.195.829-3.033-.461-4.136z" fill="#940dae" data-color="1"></path>
        <path d="M189.488 119.06l-21.29-31.704c0-.092-.092-.092-.092-.184l-.092-.092c-.092-.184-.276-.184-.369-.368-.092-.092-.184-.276-.369-.368-.461-.368-1.014-.643-1.567-.643-.922 0-1.843.368-2.396 1.011l-24.7 29.591c-1.014 1.195-.922 3.124.369 4.135 1.198 1.011 3.041.919 4.147-.368l20.552-24.444c2.12 29.223-19.262 58.262-49.307 65.338-21.105 4.962-42.948-1.195-58.431-16.449-1.106-1.103-3.041-1.103-4.147 0s-1.106 3.033 0 4.135c13.087 12.865 30.322 19.85 48.109 19.85 5.253 0 10.507-.643 15.76-1.838 31.151-7.26 53.731-36.299 54.008-66.625l15.023 22.331a2.9 2.9 0 0 0 2.396 1.287c.553 0 1.106-.184 1.659-.459 1.29-1.012 1.659-2.85.737-4.136z" fill="#940dae" data-color="1"></path>
    </g>
</svg>