<svg preserveAspectRatio="xMidYMid meet" data-bbox="32 20 136 160" viewBox="32 20 136 160" height="200" width="200" xmlns="http://www.w3.org/2000/svg" data-type="color" role="presentation" aria-hidden="true"><defs><style>#comp-l76aulmh svg [data-color="1"] {fill: #940DAE;}</style></defs>
    <g>
        <path d="M165.4 101.3h-16.3V66.6c2 1.5 4.4 2.3 7 2.3 6.5 0 11.9-5.3 11.9-11.9 0-.3-.1-.6-.2-.9l-2.2-5.5-8.2-28.8c-.3-1.1-1.3-1.8-2.4-1.8H44.3c-1.1 0-2.1.7-2.4 1.8l-9.4 32.9c-.1.2-.1.4-.1.5l-.3 1c-.1.3-.1.6-.1.8 0 6.5 5.3 11.9 11.9 11.9 2.5 0 4.8-.8 6.8-2.1v34.5H35c-1.4 0-2.5 1.1-2.5 2.5v73.7c0 1.4 1.1 2.5 2.5 2.5h130.4c1.4 0 2.5-1.1 2.5-2.5v-73.7c0-1.4-1.2-2.5-2.5-2.5zm-35.2-48.4V25h13.5v27.9h-13.5zm-5 0h-13.5V25h13.5v27.9zm-18.5 0H93.1V25h13.5v27.9zm-18.6 0H74.6V25h13.5v27.9zm-18.5 0H56V25h13.5v27.9zm-.3 5c-.4 3.4-3.3 6-6.8 6s-6.4-2.6-6.8-6h13.6zm18.6 0c-.4 3.4-3.3 6-6.8 6s-6.4-2.6-6.8-6h13.6zm18.7 0c-.4 3.4-3.3 6-6.8 6s-6.4-2.6-6.8-6h13.6zm18.6 0c-.4 3.4-3.3 6-6.8 6s-6.4-2.6-6.8-6h13.6zm18.7 0c-.4 3.4-3.3 6-6.8 6s-6.4-2.6-6.8-6h13.6zm12.2 6c-3.5 0-6.4-2.6-6.8-6h13.6c-.4 3.4-3.3 6-6.8 6zm4.9-11h-12.2V25h4.3l7.9 27.9zM46.2 25H51v27.9H38.5l-.2-.1L46.2 25zm-2.3 38.9c-3.5 0-6.4-2.6-6.8-6h13.6c-.5 3.4-3.4 6-6.8 6zm11.7 2.8c1.9 1.4 4.3 2.2 6.9 2.2 3.8 0 7.1-1.8 9.3-4.5 2.2 2.8 5.5 4.5 9.3 4.5s7.1-1.8 9.3-4.5c2.2 2.8 5.5 4.5 9.3 4.5 3.8 0 7.1-1.8 9.3-4.5 2.2 2.8 5.5 4.5 9.3 4.5 3.8 0 7.1-1.8 9.3-4.5 2.2 2.8 5.5 4.5 9.3 4.5 2.6 0 5-.9 7-2.3v34.7H55.6V66.7zm107.3 39.6v11.3H37.5v-11.3h125.4zM56 122.6h13.5v51.2c0 .4.1.8.3 1.2H55.7c.2-.4.3-.7.3-1.2v-51.2zm18.6 51.2v-51.2h13.5v51.2c0 .4.1.8.3 1.2H74.3c.2-.4.3-.8.3-1.2zm18.5 0v-51.2h13.5v51.2c0 .4.1.8.3 1.2H92.8c.2-.4.3-.8.3-1.2zm18.6 0v-51.2h13.5v51.2c0 .4.1.8.3 1.2h-14.2c.3-.4.4-.8.4-1.2zm18.5 0v-51.2h13.5v51.2c0 .4.1.8.3 1.2h-14.2c.3-.4.4-.8.4-1.2zm-92.7 0v-51.2H51v51.2c0 .4.1.8.3 1.2H37.5v-1.2zm125.4 1.2h-14.4c.2-.4.3-.7.3-1.2v-51.2h14.1V175z" fill="#940dae" data-color="1"></path>
    </g>
</svg>