<svg preserveAspectRatio="xMidYMid meet" data-bbox="20 20 160 160" viewBox="20 20 160 160" height="200" width="200" xmlns="http://www.w3.org/2000/svg" data-type="color" role="presentation" aria-hidden="true"><defs><style>#comp-l76awik1 svg [data-color="1"] {fill: #940DAE;}</style></defs>
    <g>
        <path d="M100 180c-44.112 0-80-35.888-80-80s35.888-80 80-80 80 35.888 80 80-35.888 80-80 80zm0-152.381c-39.911 0-72.381 32.47-72.381 72.381s32.47 72.381 72.381 72.381 72.381-32.47 72.381-72.381S139.911 27.619 100 27.619z" fill="#940dae" data-color="1"></path>
        <path d="M176.19 103.81H23.81a3.81 3.81 0 1 1 0-7.62h152.38a3.81 3.81 0 1 1 0 7.62z" fill="#940dae" data-color="1"></path>
        <path d="M100 180a3.81 3.81 0 0 1-3.81-3.81V23.81a3.81 3.81 0 1 1 7.62 0v152.38A3.81 3.81 0 0 1 100 180z" fill="#940dae" data-color="1"></path>
        <path d="M100 180c-23.498 0-41.905-35.14-41.905-80S76.502 20 100 20s41.905 35.14 41.905 80-18.407 80-41.905 80zm0-152.381c-18.584 0-34.286 33.146-34.286 72.381S81.416 172.381 100 172.381s34.286-33.146 34.286-72.381S118.584 27.619 100 27.619z" fill="#940dae" data-color="1"></path>
        <path d="M167.401 68.254H32.607a3.81 3.81 0 1 1 0-7.62h134.794a3.81 3.81 0 1 1 0 7.62z" fill="#940dae" data-color="1"></path>
        <path d="M167.397 139.365H32.607a3.81 3.81 0 1 1 0-7.62h134.79a3.81 3.81 0 1 1 0 7.62z" fill="#940dae" data-color="1"></path>
    </g>
</svg>