<svg version="1.1" xmlns="http://www.w3.org/2000/svg" viewBox="0 0 478.3089731261298 462.33045631377445">
  <!-- svg-source:excalidraw -->

  <defs>
    <style class="style-fonts">
      @font-face {
        font-family: "Virgil";
        src: url("https://excalidraw.com/Virgil.woff2");
      }
      @font-face {
        font-family: "Cascadia";
        src: url("https://excalidraw.com/Cascadia.woff2");
      }
    </style>
  </defs>
  <rect x="0" y="0" width="478.3089731261298" height="462.33045631377445" fill="#ffffff"></rect><g stroke-opacity="0.3" fill-opacity="0.3" stroke-linecap="round" transform="translate(80.38805514738306 347.5631131583086) rotate(0 69.62903732799441 17.287874547401316)"><path d="M0 0 L139.26 0 L139.26 34.58 L0 34.58" stroke="none" stroke-width="0" fill="#e64980"></path><path d="M0 0 C43.22 0, 86.44 0, 139.26 0 M0 0 C55.41 0, 110.81 0, 139.26 0 M139.26 0 C139.26 9.46, 139.26 18.91, 139.26 34.58 M139.26 0 C139.26 13.72, 139.26 27.44, 139.26 34.58 M139.26 34.58 C102.65 34.58, 66.03 34.58, 0 34.58 M139.26 34.58 C96.03 34.58, 52.81 34.58, 0 34.58 M0 34.58 C0 27.33, 0 20.09, 0 0 M0 34.58 C0 22.07, 0 9.56, 0 0" stroke="#a61e4d" stroke-width="1" fill="none"></path></g><g transform="translate(120.36808347025817 358.66944865193454) rotate(0 31.944414586293533 6.474325955740369)"><text x="0" y="0" font-family="Virgil, Segoe UI Emoji" font-size="10.258327188624651px" fill="#000000" text-anchor="start" style="white-space: pre;" direction="ltr" dominant-baseline="text-before-edge">Dependencies</text></g><g stroke-opacity="0.2" fill-opacity="0.2" stroke-linecap="round" transform="translate(45.93559295086334 203.69316450622136) rotate(0 193.5 105.5)"><path d="M0 0 L387 0 L387 211 L0 211" stroke="none" stroke-width="0" fill="#e64980"></path><path d="M0 0 C114 0, 228 0, 387 0 M0 0 C129.09 0, 258.19 0, 387 0 M387 0 C387 81.49, 387 162.98, 387 211 M387 0 C387 71.31, 387 142.62, 387 211 M387 211 C248.17 211, 109.34 211, 0 211 M387 211 C253.39 211, 119.77 211, 0 211 M0 211 C0 168.74, 0 126.48, 0 0 M0 211 C0 148.18, 0 85.37, 0 0" stroke="#a61e4d" stroke-width="1" fill="none"></path></g><g transform="translate(177.1556552067227 208.69316450622136) rotate(0 62.279937744140625 12.5)"><text x="62.279937744140625" y="0" font-family="Virgil, Segoe UI Emoji" font-size="20px" fill="#000000" text-anchor="middle" style="white-space: pre;" direction="ltr" dominant-baseline="text-before-edge">Dependencies</text></g><g stroke-opacity="0.3" fill-opacity="0.3" stroke-linecap="round" transform="translate(261.0860224819553 349.2860393238452) rotate(0 69.62903732799441 17.287874547401316)"><path d="M0 0 L139.26 0 L139.26 34.58 L0 34.58" stroke="none" stroke-width="0" fill="#e64980"></path><path d="M0 0 C50.24 0, 100.48 0, 139.26 0 M0 0 C34.51 0, 69.02 0, 139.26 0 M139.26 0 C139.26 10.12, 139.26 20.25, 139.26 34.58 M139.26 0 C139.26 12.22, 139.26 24.43, 139.26 34.58 M139.26 34.58 C102.52 34.58, 65.79 34.58, 0 34.58 M139.26 34.58 C96.06 34.58, 52.87 34.58, 0 34.58 M0 34.58 C0 26.7, 0 18.83, 0 0 M0 34.58 C0 23.35, 0 12.12, 0 0" stroke="#a61e4d" stroke-width="1" fill="none"></path></g><g transform="translate(301.0660508048304 360.39237481747114) rotate(0 31.944414586293533 6.474325955740369)"><text x="0" y="0" font-family="Virgil, Segoe UI Emoji" font-size="10.258327188624651px" fill="#000000" text-anchor="start" style="white-space: pre;" direction="ltr" dominant-baseline="text-before-edge">Dependencies</text></g><g transform="translate(118.24144716704768 265.3810948590526) rotate(0 37.448326110839844 6.493899494942525)"><text x="0" y="0" font-family="Virgil, Segoe UI Emoji" font-size="10.258327188624651px" fill="#5f3dc4" text-anchor="start" style="white-space: pre;" direction="ltr" dominant-baseline="text-before-edge">NGINX Promise</text></g><g transform="translate(112.37543246509222 42.588621584272914) rotate(0 139.1739501953125 17.725032796771757)"><text x="0" y="0" font-family="Virgil, Segoe UI Emoji" font-size="28px" fill="#5f3dc4" text-anchor="start" style="white-space: pre;" direction="ltr" dominant-baseline="text-before-edge">EasyApp Promise</text></g><g transform="translate(295.73836528325796 266.8105742918542) rotate(0 50.22492218017578 6.493899494942525)"><text x="0" y="0" font-family="Virgil, Segoe UI Emoji" font-size="10.258327188624651px" fill="#5f3dc4" text-anchor="start" style="white-space: pre;" direction="ltr" dominant-baseline="text-before-edge">PostgreSQL Promise</text></g><g stroke-linecap="round" transform="translate(63.7212575338599 246.20387912244587) rotate(0 86.6118779092701 74.54012144662966)"><path d="M32 0 M32 0 C59.78 0, 87.56 0, 141.22 0 M32 0 C60.33 0, 88.65 0, 141.22 0 M141.22 0 C162.56 0, 173.22 10.67, 173.22 32 M141.22 0 C162.56 0, 173.22 10.67, 173.22 32 M173.22 32 C173.22 56.1, 173.22 80.2, 173.22 117.08 M173.22 32 C173.22 51.27, 173.22 70.53, 173.22 117.08 M173.22 117.08 C173.22 138.41, 162.56 149.08, 141.22 149.08 M173.22 117.08 C173.22 138.41, 162.56 149.08, 141.22 149.08 M141.22 149.08 C101.32 149.08, 61.41 149.08, 32 149.08 M141.22 149.08 C99.9 149.08, 58.57 149.08, 32 149.08 M32 149.08 C10.67 149.08, 0 138.41, 0 117.08 M32 149.08 C10.67 149.08, 0 138.41, 0 117.08 M0 117.08 C0 89.2, 0 61.33, 0 32 M0 117.08 C0 98.44, 0 79.79, 0 32 M0 32 C0 10.67, 10.67 0, 32 0 M0 32 C0 10.67, 10.67 0, 32 0" stroke="#343a40" stroke-width="2" fill="none"></path></g><g stroke-linecap="round" transform="translate(10 10) rotate(0 229.1544865630649 221.16522815688722)"><path d="M32 0 M32 0 C122.27 0, 212.55 0, 426.31 0 M32 0 C184.29 0, 336.58 0, 426.31 0 M426.31 0 C447.64 0, 458.31 10.67, 458.31 32 M426.31 0 C447.64 0, 458.31 10.67, 458.31 32 M458.31 32 C458.31 129.9, 458.31 227.8, 458.31 410.33 M458.31 32 C458.31 167.72, 458.31 303.44, 458.31 410.33 M458.31 410.33 C458.31 431.66, 447.64 442.33, 426.31 442.33 M458.31 410.33 C458.31 431.66, 447.64 442.33, 426.31 442.33 M426.31 442.33 C325.07 442.33, 223.84 442.33, 32 442.33 M426.31 442.33 C347.34 442.33, 268.36 442.33, 32 442.33 M32 442.33 C10.67 442.33, 0 431.66, 0 410.33 M32 442.33 C10.67 442.33, 0 431.66, 0 410.33 M0 410.33 C0 313.21, 0 216.09, 0 32 M0 410.33 C0 311.65, 0 212.97, 0 32 M0 32 C0 10.67, 10.67 0, 32 0 M0 32 C0 10.67, 10.67 0, 32 0" stroke="#343a40" stroke-width="2" fill="none"></path></g><g stroke-linecap="round" transform="translate(244.24128855080562 247.92680528798246) rotate(0 86.6118779092701 74.54012144662966)"><path d="M32 0 M32 0 C63.84 0, 95.67 0, 141.22 0 M32 0 C65.41 0, 98.83 0, 141.22 0 M141.22 0 C162.56 0, 173.22 10.67, 173.22 32 M141.22 0 C162.56 0, 173.22 10.67, 173.22 32 M173.22 32 C173.22 55, 173.22 78, 173.22 117.08 M173.22 32 C173.22 63.56, 173.22 95.12, 173.22 117.08 M173.22 117.08 C173.22 138.41, 162.56 149.08, 141.22 149.08 M173.22 117.08 C173.22 138.41, 162.56 149.08, 141.22 149.08 M141.22 149.08 C103.52 149.08, 65.81 149.08, 32 149.08 M141.22 149.08 C110.95 149.08, 80.69 149.08, 32 149.08 M32 149.08 C10.67 149.08, 0 138.41, 0 117.08 M32 149.08 C10.67 149.08, 0 138.41, 0 117.08 M0 117.08 C0 89.39, 0 61.69, 0 32 M0 117.08 C0 95.46, 0 73.84, 0 32 M0 32 C0 10.67, 10.67 0, 32 0 M0 32 C0 10.67, 10.67 0, 32 0" stroke="#343a40" stroke-width="2" fill="none"></path></g><g stroke-opacity="0.3" fill-opacity="0.3" stroke-linecap="round" transform="translate(119.43210466449 295.91726129419476) rotate(0 49.68651692394178 21.89446474648048)"><path d="M10.95 0 L88.43 0 L93.22 0.68 L96.64 2.74 L98.69 6.16 L99.37 10.95 L99.37 32.84 L98.69 37.63 L96.64 41.05 L93.22 43.1 L88.43 43.79 L10.95 43.79 L6.16 43.1 L2.74 41.05 L0.68 37.63 L0 32.84 L0 10.95 L0.68 6.16 L2.74 2.74 L6.16 0.68 L10.95 0" stroke="none" stroke-width="0" fill="#15aabf"></path><path d="M10.95 0 M10.95 0 C37.7 0, 64.44 0, 88.43 0 M10.95 0 C32.42 0, 53.89 0, 88.43 0 M88.43 0 C95.72 0, 99.37 3.65, 99.37 10.95 M88.43 0 C95.72 0, 99.37 3.65, 99.37 10.95 M99.37 10.95 C99.37 18.07, 99.37 25.2, 99.37 32.84 M99.37 10.95 C99.37 16.51, 99.37 22.07, 99.37 32.84 M99.37 32.84 C99.37 40.14, 95.72 43.79, 88.43 43.79 M99.37 32.84 C99.37 40.14, 95.72 43.79, 88.43 43.79 M88.43 43.79 C60.75 43.79, 33.08 43.79, 10.95 43.79 M88.43 43.79 C66.69 43.79, 44.96 43.79, 10.95 43.79 M10.95 43.79 C3.65 43.79, 0 40.14, 0 32.84 M10.95 43.79 C3.65 43.79, 0 40.14, 0 32.84 M0 32.84 C0 27.07, 0 21.3, 0 10.95 M0 32.84 C0 26.41, 0 19.99, 0 10.95 M0 10.95 C0 3.65, 3.65 0, 10.95 0 M0 10.95 C0 3.65, 3.65 0, 10.95 0" stroke="#343a40" stroke-width="1" fill="none"></path></g><g transform="translate(140.5238364253396 305.1455048495427) rotate(0 26.512625370100295 12.822908985780941)"><text x="26.512625370100327" y="0" font-family="Virgil, Segoe UI Emoji" font-size="10.258327188624651px" fill="#000000" text-anchor="middle" style="white-space: pre;" direction="ltr" dominant-baseline="text-before-edge">Imperative</text><text x="26.512625370100327" y="12.822908985780813" font-family="Virgil, Segoe UI Emoji" font-size="10.258327188624651px" fill="#000000" text-anchor="middle" style="white-space: pre;" direction="ltr" dominant-baseline="text-before-edge">Pipeline</text></g><g stroke-opacity="0.3" fill-opacity="0.3" stroke-linecap="round" transform="translate(149.62249428615314 96.85740499025542) rotate(0 141.46667390269545 44.26838116608906)"><path d="M22.13 0 L260.8 0 L270.48 1.38 L277.4 5.53 L279.82 8.65 L282.59 16.95 L282.93 66.4 L281.55 76.09 L279.82 79.89 L274.29 85.42 L270.48 87.15 L260.8 88.54 L22.13 88.54 L12.45 87.15 L5.53 83 L1.38 76.09 L0.35 71.59 L0.35 16.95 L1.38 12.45 L5.53 5.53 L12.45 1.38 L22.13 0" stroke="none" stroke-width="0" fill="#15aabf"></path><path d="M22.13 0 M22.13 0 C112.43 0, 202.73 0, 260.8 0 M22.13 0 C76.47 0, 130.8 0, 260.8 0 M260.8 0 C275.56 0, 282.93 7.38, 282.93 22.13 M260.8 0 C275.56 0, 282.93 7.38, 282.93 22.13 M282.93 22.13 C282.93 31.83, 282.93 41.54, 282.93 66.4 M282.93 22.13 C282.93 33.89, 282.93 45.65, 282.93 66.4 M282.93 66.4 C282.93 81.16, 275.56 88.54, 260.8 88.54 M282.93 66.4 C282.93 81.16, 275.56 88.54, 260.8 88.54 M260.8 88.54 C195.44 88.54, 130.07 88.54, 22.13 88.54 M260.8 88.54 C206.57 88.54, 152.35 88.54, 22.13 88.54 M22.13 88.54 C7.38 88.54, 0 81.16, 0 66.4 M22.13 88.54 C7.38 88.54, 0 81.16, 0 66.4 M0 66.4 C0 48.78, 0 31.16, 0 22.13 M0 66.4 C0 54.43, 0 42.47, 0 22.13 M0 22.13 C0 7.38, 7.38 0, 22.13 0 M0 22.13 C0 7.38, 7.38 0, 22.13 0" stroke="#343a40" stroke-width="1" fill="none"></path></g><g transform="translate(249.73720133093843 121.12578615634447) rotate(0 41.351966857910156 20)"><text x="41.351966857910156" y="0" font-family="Virgil, Segoe UI Emoji" font-size="16px" fill="#000000" text-anchor="middle" style="white-space: pre;" direction="ltr" dominant-baseline="text-before-edge">Imperative</text><text x="41.351966857910156" y="20" font-family="Virgil, Segoe UI Emoji" font-size="16px" fill="#000000" text-anchor="middle" style="white-space: pre;" direction="ltr" dominant-baseline="text-before-edge">Pipeline</text></g><g stroke-opacity="0.3" fill-opacity="0.3" stroke-linecap="round" transform="translate(300.13007199906224 297.64018745973044) rotate(0 49.68651692394178 21.89446474648048)"><path d="M10.95 0 L88.43 0 L93.22 0.68 L96.64 2.74 L98.69 6.16 L99.37 10.95 L99.37 32.84 L98.69 37.63 L96.64 41.05 L93.22 43.1 L88.43 43.79 L10.95 43.79 L6.16 43.1 L2.74 41.05 L0.68 37.63 L0 32.84 L0 10.95 L0.68 6.16 L2.74 2.74 L6.16 0.68 L10.95 0" stroke="none" stroke-width="0" fill="#15aabf"></path><path d="M10.95 0 M10.95 0 C26.46 0, 41.98 0, 88.43 0 M10.95 0 C35.22 0, 59.5 0, 88.43 0 M88.43 0 C95.72 0, 99.37 3.65, 99.37 10.95 M88.43 0 C95.72 0, 99.37 3.65, 99.37 10.95 M99.37 10.95 C99.37 16.66, 99.37 22.37, 99.37 32.84 M99.37 10.95 C99.37 19.36, 99.37 27.78, 99.37 32.84 M99.37 32.84 C99.37 40.14, 95.72 43.79, 88.43 43.79 M99.37 32.84 C99.37 40.14, 95.72 43.79, 88.43 43.79 M88.43 43.79 C57.99 43.79, 27.56 43.79, 10.95 43.79 M88.43 43.79 C63.63 43.79, 38.83 43.79, 10.95 43.79 M10.95 43.79 C3.65 43.79, 0 40.14, 0 32.84 M10.95 43.79 C3.65 43.79, 0 40.14, 0 32.84 M0 32.84 C0 24.27, 0 15.69, 0 10.95 M0 32.84 C0 28.26, 0 23.68, 0 10.95 M0 10.95 C0 3.65, 3.65 0, 10.95 0 M0 10.95 C0 3.65, 3.65 0, 10.95 0" stroke="#343a40" stroke-width="1" fill="none"></path></g><g transform="translate(321.22180375991184 306.8684310150793) rotate(0 26.512625370100295 12.822908985780941)"><text x="26.512625370100327" y="0" font-family="Virgil, Segoe UI Emoji" font-size="10.258327188624651px" fill="#000000" text-anchor="middle" style="white-space: pre;" direction="ltr" dominant-baseline="text-before-edge">Imperative</text><text x="26.512625370100327" y="12.822908985780813" font-family="Virgil, Segoe UI Emoji" font-size="10.258327188624651px" fill="#000000" text-anchor="middle" style="white-space: pre;" direction="ltr" dominant-baseline="text-before-edge">Pipeline</text></g><g stroke-linecap="round" transform="translate(82.51488737217414 258.5788032339224) rotate(358.92972393214535 2.4158593976887914 12.538208652341382)"><path d="M1.21 0 L3.62 0 L4.83 1.21 L4.83 23.87 L3.62 25.08 L0.3 24.77 L0 23.87 L0 1.21 L1.21 0" stroke="none" stroke-width="0" fill="#7950f2"></path><path d="M1.21 0 M1.21 0 C2.02 0, 2.84 0, 3.62 0 M1.21 0 C2.04 0, 2.88 0, 3.62 0 M3.62 0 C4.43 0, 4.83 0.4, 4.83 1.21 M3.62 0 C4.43 0, 4.83 0.4, 4.83 1.21 M4.83 1.21 C4.83 7.06, 4.83 12.91, 4.83 23.87 M4.83 1.21 C4.83 7.95, 4.83 14.7, 4.83 23.87 M4.83 23.87 C4.83 24.67, 4.43 25.08, 3.62 25.08 M4.83 23.87 C4.83 24.67, 4.43 25.08, 3.62 25.08 M3.62 25.08 C2.84 25.08, 2.06 25.08, 1.21 25.08 M3.62 25.08 C3.1 25.08, 2.57 25.08, 1.21 25.08 M1.21 25.08 C0.4 25.08, 0 24.67, 0 23.87 M1.21 25.08 C0.4 25.08, 0 24.67, 0 23.87 M0 23.87 C0 15.13, 0 6.38, 0 1.21 M0 23.87 C0 18.92, 0 13.97, 0 1.21 M0 1.21 C0 0.4, 0.4 0, 1.21 0 M0 1.21 C0 0.4, 0.4 0, 1.21 0" stroke="transparent" stroke-width="1" fill="none"></path></g><g stroke-linecap="round" transform="translate(91.5144148681361 255.37627342895212) rotate(40.41727686562419 2.4158593976887914 15.89129742897876)"><path d="M1.21 0 L3.62 0 L4.83 1.21 L4.83 30.57 L3.62 31.78 L0.3 31.48 L0 30.57 L0 1.21 L1.21 0" stroke="none" stroke-width="0" fill="#7950f2"></path><path d="M1.21 0 M1.21 0 C1.76 0, 2.3 0, 3.62 0 M1.21 0 C2.05 0, 2.88 0, 3.62 0 M3.62 0 C4.43 0, 4.83 0.4, 4.83 1.21 M3.62 0 C4.43 0, 4.83 0.4, 4.83 1.21 M4.83 1.21 C4.83 12.83, 4.83 24.46, 4.83 30.57 M4.83 1.21 C4.83 7.71, 4.83 14.21, 4.83 30.57 M4.83 30.57 C4.83 31.38, 4.43 31.78, 3.62 31.78 M4.83 30.57 C4.83 31.38, 4.43 31.78, 3.62 31.78 M3.62 31.78 C2.9 31.78, 2.19 31.78, 1.21 31.78 M3.62 31.78 C2.94 31.78, 2.26 31.78, 1.21 31.78 M1.21 31.78 C0.4 31.78, 0 31.38, 0 30.57 M1.21 31.78 C0.4 31.78, 0 31.38, 0 30.57 M0 30.57 C0 19.68, 0 8.78, 0 1.21 M0 30.57 C0 19.79, 0 9.01, 0 1.21 M0 1.21 C0 0.4, 0.4 0, 1.21 0 M0 1.21 C0 0.4, 0.4 0, 1.21 0" stroke="transparent" stroke-width="1" fill="none"></path></g><g stroke-linecap="round" transform="translate(97.05552997091854 267.27273750396853) rotate(139.22073182693399 2.4158593976887914 9.070699652206258)"><path d="M1.21 0 L3.62 0 L4.83 1.21 L4.83 16.93 L3.62 18.14 L0.3 17.84 L0 16.93 L0 1.21 L1.21 0" stroke="none" stroke-width="0" fill="#7950f2"></path><path d="M1.21 0 M1.21 0 C1.85 0, 2.48 0, 3.62 0 M1.21 0 C2.13 0, 3.05 0, 3.62 0 M3.62 0 C4.43 0, 4.83 0.4, 4.83 1.21 M3.62 0 C4.43 0, 4.83 0.4, 4.83 1.21 M4.83 1.21 C4.83 4.79, 4.83 8.37, 4.83 16.93 M4.83 1.21 C4.83 7.21, 4.83 13.22, 4.83 16.93 M4.83 16.93 C4.83 17.74, 4.43 18.14, 3.62 18.14 M4.83 16.93 C4.83 17.74, 4.43 18.14, 3.62 18.14 M3.62 18.14 C2.98 18.14, 2.34 18.14, 1.21 18.14 M3.62 18.14 C3.09 18.14, 2.57 18.14, 1.21 18.14 M1.21 18.14 C0.4 18.14, 0 17.74, 0 16.93 M1.21 18.14 C0.4 18.14, 0 17.74, 0 16.93 M0 16.93 C0 13.36, 0 9.79, 0 1.21 M0 16.93 C0 12.77, 0 8.6, 0 1.21 M0 1.21 C0 0.4, 0.4 0, 1.21 0 M0 1.21 C0 0.4, 0.4 0, 1.21 0" stroke="transparent" stroke-width="1" fill="none"></path></g><g stroke-linecap="round" transform="translate(81.95879316666151 257.32567105121143) rotate(358.1310915065084 2.6973131119775644 2.9297498221230853)"><path d="M5.39 2.93 C5.39 3.1, 5.38 3.27, 5.35 3.44 C5.33 3.61, 5.29 3.77, 5.23 3.93 C5.18 4.09, 5.11 4.25, 5.03 4.39 C4.96 4.54, 4.86 4.68, 4.76 4.81 C4.66 4.94, 4.55 5.07, 4.43 5.17 C4.31 5.28, 4.18 5.38, 4.05 5.47 C3.91 5.55, 3.77 5.62, 3.62 5.68 C3.47 5.74, 3.32 5.79, 3.17 5.81 C3.01 5.84, 2.85 5.86, 2.7 5.86 C2.54 5.86, 2.38 5.84, 2.23 5.81 C2.08 5.79, 1.92 5.74, 1.77 5.68 C1.63 5.62, 1.48 5.55, 1.35 5.47 C1.21 5.38, 1.08 5.28, 0.96 5.17 C0.84 5.07, 0.73 4.94, 0.63 4.81 C0.53 4.68, 0.44 4.54, 0.36 4.39 C0.28 4.25, 0.22 4.09, 0.16 3.93 C0.11 3.77, 0.07 3.61, 0.04 3.44 C0.01 3.27, 0 3.1, 0 2.93 C0 2.76, 0.01 2.59, 0.04 2.42 C0.07 2.25, 0.11 2.09, 0.16 1.93 C0.22 1.77, 0.28 1.61, 0.36 1.46 C0.44 1.32, 0.53 1.18, 0.63 1.05 C0.73 0.92, 0.84 0.79, 0.96 0.69 C1.08 0.58, 1.21 0.48, 1.35 0.39 C1.48 0.31, 1.63 0.23, 1.77 0.18 C1.92 0.12, 2.08 0.07, 2.23 0.04 C2.38 0.02, 2.54 0, 2.7 0 C2.85 0, 3.01 0.02, 3.17 0.04 C3.32 0.07, 3.47 0.12, 3.62 0.18 C3.77 0.23, 3.91 0.31, 4.05 0.39 C4.18 0.48, 4.31 0.58, 4.43 0.69 C4.55 0.79, 4.66 0.92, 4.76 1.05 C4.86 1.18, 4.96 1.32, 5.03 1.46 C5.11 1.61, 5.18 1.77, 5.23 1.93 C5.29 2.09, 5.33 2.25, 5.35 2.42 C5.38 2.59, 5.39 2.84, 5.39 2.93 C5.4 3.01, 5.4 2.84, 5.39 2.93" stroke="none" stroke-width="0" fill="#7950f2"></path><path d="M5.39 2.93 C5.39 3.1, 5.38 3.27, 5.35 3.44 C5.33 3.61, 5.29 3.77, 5.23 3.93 C5.18 4.09, 5.11 4.25, 5.03 4.39 C4.96 4.54, 4.86 4.68, 4.76 4.81 C4.66 4.94, 4.55 5.07, 4.43 5.17 C4.31 5.28, 4.18 5.38, 4.05 5.47 C3.91 5.55, 3.77 5.62, 3.62 5.68 C3.47 5.74, 3.32 5.79, 3.17 5.81 C3.01 5.84, 2.85 5.86, 2.7 5.86 C2.54 5.86, 2.38 5.84, 2.23 5.81 C2.08 5.79, 1.92 5.74, 1.77 5.68 C1.63 5.62, 1.48 5.55, 1.35 5.47 C1.21 5.38, 1.08 5.28, 0.96 5.17 C0.84 5.07, 0.73 4.94, 0.63 4.81 C0.53 4.68, 0.44 4.54, 0.36 4.39 C0.28 4.25, 0.22 4.09, 0.16 3.93 C0.11 3.77, 0.07 3.61, 0.04 3.44 C0.01 3.27, 0 3.1, 0 2.93 C0 2.76, 0.01 2.59, 0.04 2.42 C0.07 2.25, 0.11 2.09, 0.16 1.93 C0.22 1.77, 0.28 1.61, 0.36 1.46 C0.44 1.32, 0.53 1.18, 0.63 1.05 C0.73 0.92, 0.84 0.79, 0.96 0.69 C1.08 0.58, 1.21 0.48, 1.35 0.39 C1.48 0.31, 1.63 0.23, 1.77 0.18 C1.92 0.12, 2.08 0.07, 2.23 0.04 C2.38 0.02, 2.54 0, 2.7 0 C2.85 0, 3.01 0.02, 3.17 0.04 C3.32 0.07, 3.47 0.12, 3.62 0.18 C3.77 0.23, 3.91 0.31, 4.05 0.39 C4.18 0.48, 4.31 0.58, 4.43 0.69 C4.55 0.79, 4.66 0.92, 4.76 1.05 C4.86 1.18, 4.96 1.32, 5.03 1.46 C5.11 1.61, 5.18 1.77, 5.23 1.93 C5.29 2.09, 5.33 2.25, 5.35 2.42 C5.38 2.59, 5.39 2.84, 5.39 2.93 C5.4 3.01, 5.4 2.84, 5.39 2.93" stroke="#5f3dc4" stroke-width="1" fill="none"></path></g><g stroke-linecap="round" transform="translate(82.5747005838075 278.00135298864825) rotate(358.1310915065084 2.6973131119775644 2.9297498221230853)"><path d="M5.39 2.93 C5.39 3.1, 5.38 3.27, 5.35 3.44 C5.33 3.61, 5.29 3.77, 5.23 3.93 C5.18 4.09, 5.11 4.25, 5.03 4.39 C4.96 4.54, 4.86 4.68, 4.76 4.81 C4.66 4.94, 4.55 5.07, 4.43 5.17 C4.31 5.28, 4.18 5.38, 4.05 5.47 C3.91 5.55, 3.77 5.62, 3.62 5.68 C3.47 5.74, 3.32 5.79, 3.17 5.81 C3.01 5.84, 2.85 5.86, 2.7 5.86 C2.54 5.86, 2.38 5.84, 2.23 5.81 C2.08 5.79, 1.92 5.74, 1.77 5.68 C1.63 5.62, 1.48 5.55, 1.35 5.47 C1.21 5.38, 1.08 5.28, 0.96 5.17 C0.84 5.07, 0.73 4.94, 0.63 4.81 C0.53 4.68, 0.44 4.54, 0.36 4.39 C0.28 4.25, 0.22 4.09, 0.16 3.93 C0.11 3.77, 0.07 3.61, 0.04 3.44 C0.01 3.27, 0 3.1, 0 2.93 C0 2.76, 0.01 2.59, 0.04 2.42 C0.07 2.25, 0.11 2.09, 0.16 1.93 C0.22 1.77, 0.28 1.61, 0.36 1.46 C0.44 1.32, 0.53 1.18, 0.63 1.05 C0.73 0.92, 0.84 0.79, 0.96 0.69 C1.08 0.58, 1.21 0.48, 1.35 0.39 C1.48 0.31, 1.63 0.23, 1.77 0.18 C1.92 0.12, 2.08 0.07, 2.23 0.04 C2.38 0.02, 2.54 0, 2.7 0 C2.85 0, 3.01 0.02, 3.17 0.04 C3.32 0.07, 3.47 0.12, 3.62 0.18 C3.77 0.23, 3.91 0.31, 4.05 0.39 C4.18 0.48, 4.31 0.58, 4.43 0.69 C4.55 0.79, 4.66 0.92, 4.76 1.05 C4.86 1.18, 4.96 1.32, 5.03 1.46 C5.11 1.61, 5.18 1.77, 5.23 1.93 C5.29 2.09, 5.33 2.25, 5.35 2.42 C5.38 2.59, 5.39 2.84, 5.39 2.93 C5.4 3.01, 5.4 2.84, 5.39 2.93" stroke="none" stroke-width="0" fill="#7950f2"></path><path d="M5.39 2.93 C5.39 3.1, 5.38 3.27, 5.35 3.44 C5.33 3.61, 5.29 3.77, 5.23 3.93 C5.18 4.09, 5.11 4.25, 5.03 4.39 C4.96 4.54, 4.86 4.68, 4.76 4.81 C4.66 4.94, 4.55 5.07, 4.43 5.17 C4.31 5.28, 4.18 5.38, 4.05 5.47 C3.91 5.55, 3.77 5.62, 3.62 5.68 C3.47 5.74, 3.32 5.79, 3.17 5.81 C3.01 5.84, 2.85 5.86, 2.7 5.86 C2.54 5.86, 2.38 5.84, 2.23 5.81 C2.08 5.79, 1.92 5.74, 1.77 5.68 C1.63 5.62, 1.48 5.55, 1.35 5.47 C1.21 5.38, 1.08 5.28, 0.96 5.17 C0.84 5.07, 0.73 4.94, 0.63 4.81 C0.53 4.68, 0.44 4.54, 0.36 4.39 C0.28 4.25, 0.22 4.09, 0.16 3.93 C0.11 3.77, 0.07 3.61, 0.04 3.44 C0.01 3.27, 0 3.1, 0 2.93 C0 2.76, 0.01 2.59, 0.04 2.42 C0.07 2.25, 0.11 2.09, 0.16 1.93 C0.22 1.77, 0.28 1.61, 0.36 1.46 C0.44 1.32, 0.53 1.18, 0.63 1.05 C0.73 0.92, 0.84 0.79, 0.96 0.69 C1.08 0.58, 1.21 0.48, 1.35 0.39 C1.48 0.31, 1.63 0.23, 1.77 0.18 C1.92 0.12, 2.08 0.07, 2.23 0.04 C2.38 0.02, 2.54 0, 2.7 0 C2.85 0, 3.01 0.02, 3.17 0.04 C3.32 0.07, 3.47 0.12, 3.62 0.18 C3.77 0.23, 3.91 0.31, 4.05 0.39 C4.18 0.48, 4.31 0.58, 4.43 0.69 C4.55 0.79, 4.66 0.92, 4.76 1.05 C4.86 1.18, 4.96 1.32, 5.03 1.46 C5.11 1.61, 5.18 1.77, 5.23 1.93 C5.29 2.09, 5.33 2.25, 5.35 2.42 C5.38 2.59, 5.39 2.84, 5.39 2.93 C5.4 3.01, 5.4 2.84, 5.39 2.93" stroke="#5f3dc4" stroke-width="1" fill="none"></path></g><g stroke-linecap="round" transform="translate(91.89528483195181 268.9625556721621) rotate(358.1310915065084 2.674656192697512 2.9297498221230853)"><path d="M5.35 2.93 C5.35 3.1, 5.34 3.27, 5.31 3.44 C5.28 3.61, 5.24 3.77, 5.19 3.93 C5.14 4.09, 5.07 4.25, 4.99 4.39 C4.91 4.54, 4.82 4.68, 4.72 4.81 C4.62 4.94, 4.51 5.07, 4.39 5.17 C4.28 5.28, 4.15 5.38, 4.01 5.47 C3.88 5.55, 3.73 5.62, 3.59 5.68 C3.44 5.74, 3.29 5.79, 3.14 5.81 C2.99 5.84, 2.83 5.86, 2.67 5.86 C2.52 5.86, 2.36 5.84, 2.21 5.81 C2.06 5.79, 1.91 5.74, 1.76 5.68 C1.61 5.62, 1.47 5.55, 1.34 5.47 C1.2 5.38, 1.07 5.28, 0.96 5.17 C0.84 5.07, 0.73 4.94, 0.63 4.81 C0.53 4.68, 0.44 4.54, 0.36 4.39 C0.28 4.25, 0.21 4.09, 0.16 3.93 C0.11 3.77, 0.07 3.61, 0.04 3.44 C0.01 3.27, 0 3.1, 0 2.93 C0 2.76, 0.01 2.59, 0.04 2.42 C0.07 2.25, 0.11 2.09, 0.16 1.93 C0.21 1.77, 0.28 1.61, 0.36 1.46 C0.44 1.32, 0.53 1.18, 0.63 1.05 C0.73 0.92, 0.84 0.79, 0.96 0.69 C1.07 0.58, 1.2 0.48, 1.34 0.39 C1.47 0.31, 1.61 0.23, 1.76 0.18 C1.91 0.12, 2.06 0.07, 2.21 0.04 C2.36 0.02, 2.52 0, 2.67 0 C2.83 0, 2.99 0.02, 3.14 0.04 C3.29 0.07, 3.44 0.12, 3.59 0.18 C3.73 0.23, 3.88 0.31, 4.01 0.39 C4.15 0.48, 4.28 0.58, 4.39 0.69 C4.51 0.79, 4.62 0.92, 4.72 1.05 C4.82 1.18, 4.91 1.32, 4.99 1.46 C5.07 1.61, 5.14 1.77, 5.19 1.93 C5.24 2.09, 5.28 2.25, 5.31 2.42 C5.34 2.59, 5.34 2.84, 5.35 2.93 C5.36 3.01, 5.36 2.84, 5.35 2.93" stroke="none" stroke-width="0" fill="#7950f2"></path><path d="M5.35 2.93 C5.35 3.1, 5.34 3.27, 5.31 3.44 C5.28 3.61, 5.24 3.77, 5.19 3.93 C5.14 4.09, 5.07 4.25, 4.99 4.39 C4.91 4.54, 4.82 4.68, 4.72 4.81 C4.62 4.94, 4.51 5.07, 4.39 5.17 C4.28 5.28, 4.15 5.38, 4.01 5.47 C3.88 5.55, 3.73 5.62, 3.59 5.68 C3.44 5.74, 3.29 5.79, 3.14 5.81 C2.99 5.84, 2.83 5.86, 2.67 5.86 C2.52 5.86, 2.36 5.84, 2.21 5.81 C2.06 5.79, 1.91 5.74, 1.76 5.68 C1.61 5.62, 1.47 5.55, 1.34 5.47 C1.2 5.38, 1.07 5.28, 0.96 5.17 C0.84 5.07, 0.73 4.94, 0.63 4.81 C0.53 4.68, 0.44 4.54, 0.36 4.39 C0.28 4.25, 0.21 4.09, 0.16 3.93 C0.11 3.77, 0.07 3.61, 0.04 3.44 C0.01 3.27, 0 3.1, 0 2.93 C0 2.76, 0.01 2.59, 0.04 2.42 C0.07 2.25, 0.11 2.09, 0.16 1.93 C0.21 1.77, 0.28 1.61, 0.36 1.46 C0.44 1.32, 0.53 1.18, 0.63 1.05 C0.73 0.92, 0.84 0.79, 0.96 0.69 C1.07 0.58, 1.2 0.48, 1.34 0.39 C1.47 0.31, 1.61 0.23, 1.76 0.18 C1.91 0.12, 2.06 0.07, 2.21 0.04 C2.36 0.02, 2.52 0, 2.67 0 C2.83 0, 2.99 0.02, 3.14 0.04 C3.29 0.07, 3.44 0.12, 3.59 0.18 C3.73 0.23, 3.88 0.31, 4.01 0.39 C4.15 0.48, 4.28 0.58, 4.39 0.69 C4.51 0.79, 4.62 0.92, 4.72 1.05 C4.82 1.18, 4.91 1.32, 4.99 1.46 C5.07 1.61, 5.14 1.77, 5.19 1.93 C5.24 2.09, 5.28 2.25, 5.31 2.42 C5.34 2.59, 5.34 2.84, 5.35 2.93 C5.36 3.01, 5.36 2.84, 5.35 2.93" stroke="#5f3dc4" stroke-width="1" fill="none"></path></g><g stroke-linecap="round" transform="translate(100.32372178631931 257.83938954611585) rotate(358.1310915065084 2.6973131119775644 2.9297498221230853)"><path d="M5.39 2.93 C5.39 3.1, 5.38 3.27, 5.35 3.44 C5.33 3.61, 5.29 3.77, 5.23 3.93 C5.18 4.09, 5.11 4.25, 5.03 4.39 C4.96 4.54, 4.86 4.68, 4.76 4.81 C4.66 4.94, 4.55 5.07, 4.43 5.17 C4.31 5.28, 4.18 5.38, 4.05 5.47 C3.91 5.55, 3.77 5.62, 3.62 5.68 C3.47 5.74, 3.32 5.79, 3.17 5.81 C3.01 5.84, 2.85 5.86, 2.7 5.86 C2.54 5.86, 2.38 5.84, 2.23 5.81 C2.08 5.79, 1.92 5.74, 1.77 5.68 C1.63 5.62, 1.48 5.55, 1.35 5.47 C1.21 5.38, 1.08 5.28, 0.96 5.17 C0.84 5.07, 0.73 4.94, 0.63 4.81 C0.53 4.68, 0.44 4.54, 0.36 4.39 C0.28 4.25, 0.22 4.09, 0.16 3.93 C0.11 3.77, 0.07 3.61, 0.04 3.44 C0.01 3.27, 0 3.1, 0 2.93 C0 2.76, 0.01 2.59, 0.04 2.42 C0.07 2.25, 0.11 2.09, 0.16 1.93 C0.22 1.77, 0.28 1.61, 0.36 1.46 C0.44 1.32, 0.53 1.18, 0.63 1.05 C0.73 0.92, 0.84 0.79, 0.96 0.69 C1.08 0.58, 1.21 0.48, 1.35 0.39 C1.48 0.31, 1.63 0.23, 1.77 0.18 C1.92 0.12, 2.08 0.07, 2.23 0.04 C2.38 0.02, 2.54 0, 2.7 0 C2.85 0, 3.01 0.02, 3.17 0.04 C3.32 0.07, 3.47 0.12, 3.62 0.18 C3.77 0.23, 3.91 0.31, 4.05 0.39 C4.18 0.48, 4.31 0.58, 4.43 0.69 C4.55 0.79, 4.66 0.92, 4.76 1.05 C4.86 1.18, 4.96 1.32, 5.03 1.46 C5.11 1.61, 5.18 1.77, 5.23 1.93 C5.29 2.09, 5.33 2.25, 5.35 2.42 C5.38 2.59, 5.39 2.84, 5.39 2.93 C5.4 3.01, 5.4 2.84, 5.39 2.93" stroke="none" stroke-width="0" fill="#7950f2"></path><path d="M5.39 2.93 C5.39 3.1, 5.38 3.27, 5.35 3.44 C5.33 3.61, 5.29 3.77, 5.23 3.93 C5.18 4.09, 5.11 4.25, 5.03 4.39 C4.96 4.54, 4.86 4.68, 4.76 4.81 C4.66 4.94, 4.55 5.07, 4.43 5.17 C4.31 5.28, 4.18 5.38, 4.05 5.47 C3.91 5.55, 3.77 5.62, 3.62 5.68 C3.47 5.74, 3.32 5.79, 3.17 5.81 C3.01 5.84, 2.85 5.86, 2.7 5.86 C2.54 5.86, 2.38 5.84, 2.23 5.81 C2.08 5.79, 1.92 5.74, 1.77 5.68 C1.63 5.62, 1.48 5.55, 1.35 5.47 C1.21 5.38, 1.08 5.28, 0.96 5.17 C0.84 5.07, 0.73 4.94, 0.63 4.81 C0.53 4.68, 0.44 4.54, 0.36 4.39 C0.28 4.25, 0.22 4.09, 0.16 3.93 C0.11 3.77, 0.07 3.61, 0.04 3.44 C0.01 3.27, 0 3.1, 0 2.93 C0 2.76, 0.01 2.59, 0.04 2.42 C0.07 2.25, 0.11 2.09, 0.16 1.93 C0.22 1.77, 0.28 1.61, 0.36 1.46 C0.44 1.32, 0.53 1.18, 0.63 1.05 C0.73 0.92, 0.84 0.79, 0.96 0.69 C1.08 0.58, 1.21 0.48, 1.35 0.39 C1.48 0.31, 1.63 0.23, 1.77 0.18 C1.92 0.12, 2.08 0.07, 2.23 0.04 C2.38 0.02, 2.54 0, 2.7 0 C2.85 0, 3.01 0.02, 3.17 0.04 C3.32 0.07, 3.47 0.12, 3.62 0.18 C3.77 0.23, 3.91 0.31, 4.05 0.39 C4.18 0.48, 4.31 0.58, 4.43 0.69 C4.55 0.79, 4.66 0.92, 4.76 1.05 C4.86 1.18, 4.96 1.32, 5.03 1.46 C5.11 1.61, 5.18 1.77, 5.23 1.93 C5.29 2.09, 5.33 2.25, 5.35 2.42 C5.38 2.59, 5.39 2.84, 5.39 2.93 C5.4 3.01, 5.4 2.84, 5.39 2.93" stroke="#5f3dc4" stroke-width="1" fill="none"></path></g><g stroke-linecap="round" transform="translate(101.63871724637465 279.00575829932677) rotate(358.1310915065084 2.6973131119775644 2.9297498221230853)"><path d="M5.39 2.93 C5.39 3.1, 5.38 3.27, 5.35 3.44 C5.33 3.61, 5.29 3.77, 5.23 3.93 C5.18 4.09, 5.11 4.25, 5.03 4.39 C4.96 4.54, 4.86 4.68, 4.76 4.81 C4.66 4.94, 4.55 5.07, 4.43 5.17 C4.31 5.28, 4.18 5.38, 4.05 5.47 C3.91 5.55, 3.77 5.62, 3.62 5.68 C3.47 5.74, 3.32 5.79, 3.17 5.81 C3.01 5.84, 2.85 5.86, 2.7 5.86 C2.54 5.86, 2.38 5.84, 2.23 5.81 C2.08 5.79, 1.92 5.74, 1.77 5.68 C1.63 5.62, 1.48 5.55, 1.35 5.47 C1.21 5.38, 1.08 5.28, 0.96 5.17 C0.84 5.07, 0.73 4.94, 0.63 4.81 C0.53 4.68, 0.44 4.54, 0.36 4.39 C0.28 4.25, 0.22 4.09, 0.16 3.93 C0.11 3.77, 0.07 3.61, 0.04 3.44 C0.01 3.27, 0 3.1, 0 2.93 C0 2.76, 0.01 2.59, 0.04 2.42 C0.07 2.25, 0.11 2.09, 0.16 1.93 C0.22 1.77, 0.28 1.61, 0.36 1.46 C0.44 1.32, 0.53 1.18, 0.63 1.05 C0.73 0.92, 0.84 0.79, 0.96 0.69 C1.08 0.58, 1.21 0.48, 1.35 0.39 C1.48 0.31, 1.63 0.23, 1.77 0.18 C1.92 0.12, 2.08 0.07, 2.23 0.04 C2.38 0.02, 2.54 0, 2.7 0 C2.85 0, 3.01 0.02, 3.17 0.04 C3.32 0.07, 3.47 0.12, 3.62 0.18 C3.77 0.23, 3.91 0.31, 4.05 0.39 C4.18 0.48, 4.31 0.58, 4.43 0.69 C4.55 0.79, 4.66 0.92, 4.76 1.05 C4.86 1.18, 4.96 1.32, 5.03 1.46 C5.11 1.61, 5.18 1.77, 5.23 1.93 C5.29 2.09, 5.33 2.25, 5.35 2.42 C5.38 2.59, 5.39 2.84, 5.39 2.93 C5.4 3.01, 5.4 2.84, 5.39 2.93" stroke="none" stroke-width="0" fill="#7950f2"></path><path d="M5.39 2.93 C5.39 3.1, 5.38 3.27, 5.35 3.44 C5.33 3.61, 5.29 3.77, 5.23 3.93 C5.18 4.09, 5.11 4.25, 5.03 4.39 C4.96 4.54, 4.86 4.68, 4.76 4.81 C4.66 4.94, 4.55 5.07, 4.43 5.17 C4.31 5.28, 4.18 5.38, 4.05 5.47 C3.91 5.55, 3.77 5.62, 3.62 5.68 C3.47 5.74, 3.32 5.79, 3.17 5.81 C3.01 5.84, 2.85 5.86, 2.7 5.86 C2.54 5.86, 2.38 5.84, 2.23 5.81 C2.08 5.79, 1.92 5.74, 1.77 5.68 C1.63 5.62, 1.48 5.55, 1.35 5.47 C1.21 5.38, 1.08 5.28, 0.96 5.17 C0.84 5.07, 0.73 4.94, 0.63 4.81 C0.53 4.68, 0.44 4.54, 0.36 4.39 C0.28 4.25, 0.22 4.09, 0.16 3.93 C0.11 3.77, 0.07 3.61, 0.04 3.44 C0.01 3.27, 0 3.1, 0 2.93 C0 2.76, 0.01 2.59, 0.04 2.42 C0.07 2.25, 0.11 2.09, 0.16 1.93 C0.22 1.77, 0.28 1.61, 0.36 1.46 C0.44 1.32, 0.53 1.18, 0.63 1.05 C0.73 0.92, 0.84 0.79, 0.96 0.69 C1.08 0.58, 1.21 0.48, 1.35 0.39 C1.48 0.31, 1.63 0.23, 1.77 0.18 C1.92 0.12, 2.08 0.07, 2.23 0.04 C2.38 0.02, 2.54 0, 2.7 0 C2.85 0, 3.01 0.02, 3.17 0.04 C3.32 0.07, 3.47 0.12, 3.62 0.18 C3.77 0.23, 3.91 0.31, 4.05 0.39 C4.18 0.48, 4.31 0.58, 4.43 0.69 C4.55 0.79, 4.66 0.92, 4.76 1.05 C4.86 1.18, 4.96 1.32, 5.03 1.46 C5.11 1.61, 5.18 1.77, 5.23 1.93 C5.29 2.09, 5.33 2.25, 5.35 2.42 C5.38 2.59, 5.39 2.84, 5.39 2.93 C5.4 3.01, 5.4 2.84, 5.39 2.93" stroke="#5f3dc4" stroke-width="1" fill="none"></path></g><g stroke-linecap="round" transform="translate(82.31974291402275 258.0579951532127) rotate(358.1310915065084 2.3912762921113426 2.4798582423482003)"><path d="M4.78 2.48 C4.78 2.62, 4.77 2.77, 4.75 2.91 C4.72 3.05, 4.69 3.19, 4.64 3.33 C4.59 3.46, 4.53 3.6, 4.46 3.72 C4.39 3.84, 4.31 3.96, 4.22 4.07 C4.13 4.18, 4.03 4.29, 3.93 4.38 C3.82 4.47, 3.71 4.56, 3.59 4.63 C3.47 4.7, 3.34 4.76, 3.21 4.81 C3.08 4.86, 2.94 4.9, 2.81 4.92 C2.67 4.95, 2.53 4.96, 2.39 4.96 C2.25 4.96, 2.11 4.95, 1.98 4.92 C1.84 4.9, 1.7 4.86, 1.57 4.81 C1.44 4.76, 1.32 4.7, 1.2 4.63 C1.08 4.56, 0.96 4.47, 0.85 4.38 C0.75 4.29, 0.65 4.18, 0.56 4.07 C0.47 3.96, 0.39 3.84, 0.32 3.72 C0.25 3.6, 0.19 3.46, 0.14 3.33 C0.1 3.19, 0.06 3.05, 0.04 2.91 C0.01 2.77, 0 2.62, 0 2.48 C0 2.34, 0.01 2.19, 0.04 2.05 C0.06 1.91, 0.1 1.77, 0.14 1.63 C0.19 1.5, 0.25 1.36, 0.32 1.24 C0.39 1.12, 0.47 1, 0.56 0.89 C0.65 0.78, 0.75 0.67, 0.85 0.58 C0.96 0.49, 1.08 0.4, 1.2 0.33 C1.32 0.26, 1.44 0.2, 1.57 0.15 C1.7 0.1, 1.84 0.06, 1.98 0.04 C2.11 0.01, 2.25 0, 2.39 0 C2.53 0, 2.67 0.01, 2.81 0.04 C2.94 0.06, 3.08 0.1, 3.21 0.15 C3.34 0.2, 3.47 0.26, 3.59 0.33 C3.71 0.4, 3.82 0.49, 3.93 0.58 C4.03 0.67, 4.13 0.78, 4.22 0.89 C4.31 1, 4.39 1.12, 4.46 1.24 C4.53 1.36, 4.59 1.5, 4.64 1.63 C4.69 1.77, 4.72 1.91, 4.75 2.05 C4.77 2.19, 4.78 2.41, 4.78 2.48 C4.79 2.55, 4.79 2.41, 4.78 2.48" stroke="#fff" stroke-width="1" fill="none"></path></g><g stroke-linecap="round" transform="translate(82.81557277672937 278.71096285454496) rotate(358.1310915065084 2.3912762921113426 2.4798582423482003)"><path d="M4.78 2.48 C4.78 2.62, 4.77 2.77, 4.75 2.91 C4.72 3.05, 4.69 3.19, 4.64 3.33 C4.59 3.46, 4.53 3.6, 4.46 3.72 C4.39 3.84, 4.31 3.96, 4.22 4.07 C4.13 4.18, 4.03 4.29, 3.93 4.38 C3.82 4.47, 3.71 4.56, 3.59 4.63 C3.47 4.7, 3.34 4.76, 3.21 4.81 C3.08 4.86, 2.94 4.9, 2.81 4.92 C2.67 4.95, 2.53 4.96, 2.39 4.96 C2.25 4.96, 2.11 4.95, 1.98 4.92 C1.84 4.9, 1.7 4.86, 1.57 4.81 C1.44 4.76, 1.32 4.7, 1.2 4.63 C1.08 4.56, 0.96 4.47, 0.85 4.38 C0.75 4.29, 0.65 4.18, 0.56 4.07 C0.47 3.96, 0.39 3.84, 0.32 3.72 C0.25 3.6, 0.19 3.46, 0.14 3.33 C0.1 3.19, 0.06 3.05, 0.04 2.91 C0.01 2.77, 0 2.62, 0 2.48 C0 2.34, 0.01 2.19, 0.04 2.05 C0.06 1.91, 0.1 1.77, 0.14 1.63 C0.19 1.5, 0.25 1.36, 0.32 1.24 C0.39 1.12, 0.47 1, 0.56 0.89 C0.65 0.78, 0.75 0.67, 0.85 0.58 C0.96 0.49, 1.08 0.4, 1.2 0.33 C1.32 0.26, 1.44 0.2, 1.57 0.15 C1.7 0.1, 1.84 0.06, 1.98 0.04 C2.11 0.01, 2.25 0, 2.39 0 C2.53 0, 2.67 0.01, 2.81 0.04 C2.94 0.06, 3.08 0.1, 3.21 0.15 C3.34 0.2, 3.47 0.26, 3.59 0.33 C3.71 0.4, 3.82 0.49, 3.93 0.58 C4.03 0.67, 4.13 0.78, 4.22 0.89 C4.31 1, 4.39 1.12, 4.46 1.24 C4.53 1.36, 4.59 1.5, 4.64 1.63 C4.69 1.77, 4.72 1.91, 4.75 2.05 C4.77 2.19, 4.78 2.41, 4.78 2.48 C4.79 2.55, 4.79 2.41, 4.78 2.48" stroke="#fff" stroke-width="1" fill="none"></path></g><g stroke-linecap="round" transform="translate(92.15416361722009 269.2651481264638) rotate(358.1310915065084 2.3880656507171807 2.418767242184913)"><path d="M4.78 2.42 C4.78 2.56, 4.76 2.7, 4.74 2.84 C4.72 2.98, 4.68 3.11, 4.63 3.25 C4.58 3.38, 4.53 3.51, 4.46 3.63 C4.39 3.75, 4.31 3.87, 4.22 3.97 C4.13 4.08, 4.03 4.18, 3.92 4.27 C3.82 4.36, 3.7 4.44, 3.58 4.51 C3.46 4.58, 3.33 4.64, 3.2 4.69 C3.07 4.74, 2.94 4.78, 2.8 4.8 C2.67 4.83, 2.53 4.84, 2.39 4.84 C2.25 4.84, 2.11 4.83, 1.97 4.8 C1.84 4.78, 1.7 4.74, 1.57 4.69 C1.44 4.64, 1.31 4.58, 1.19 4.51 C1.07 4.44, 0.96 4.36, 0.85 4.27 C0.75 4.18, 0.65 4.08, 0.56 3.97 C0.47 3.87, 0.39 3.75, 0.32 3.63 C0.25 3.51, 0.19 3.38, 0.14 3.25 C0.1 3.11, 0.06 2.98, 0.04 2.84 C0.01 2.7, 0 2.56, 0 2.42 C0 2.28, 0.01 2.14, 0.04 2 C0.06 1.86, 0.1 1.72, 0.14 1.59 C0.19 1.46, 0.25 1.33, 0.32 1.21 C0.39 1.09, 0.47 0.97, 0.56 0.86 C0.65 0.76, 0.75 0.66, 0.85 0.57 C0.96 0.48, 1.07 0.39, 1.19 0.32 C1.31 0.25, 1.44 0.19, 1.57 0.15 C1.7 0.1, 1.84 0.06, 1.97 0.04 C2.11 0.01, 2.25 0, 2.39 0 C2.53 0, 2.67 0.01, 2.8 0.04 C2.94 0.06, 3.07 0.1, 3.2 0.15 C3.33 0.19, 3.46 0.25, 3.58 0.32 C3.7 0.39, 3.82 0.48, 3.92 0.57 C4.03 0.66, 4.13 0.76, 4.22 0.86 C4.31 0.97, 4.39 1.09, 4.46 1.21 C4.53 1.33, 4.58 1.46, 4.63 1.59 C4.68 1.72, 4.72 1.86, 4.74 2 C4.76 2.14, 4.77 2.35, 4.78 2.42 C4.78 2.49, 4.78 2.35, 4.78 2.42" stroke="#fff" stroke-width="1" fill="none"></path></g><g stroke-linecap="round" transform="translate(100.84291983880576 258.41967267269683) rotate(358.1310915065084 2.1320424628513592 2.418767242184913)"><path d="M4.26 2.42 C4.26 2.56, 4.25 2.7, 4.23 2.84 C4.21 2.98, 4.18 3.11, 4.14 3.25 C4.09 3.38, 4.04 3.51, 3.98 3.63 C3.92 3.75, 3.84 3.87, 3.77 3.97 C3.69 4.08, 3.6 4.18, 3.5 4.27 C3.41 4.36, 3.3 4.44, 3.2 4.51 C3.09 4.58, 2.98 4.64, 2.86 4.69 C2.75 4.74, 2.62 4.78, 2.5 4.8 C2.38 4.83, 2.26 4.84, 2.13 4.84 C2.01 4.84, 1.88 4.83, 1.76 4.8 C1.64 4.78, 1.52 4.74, 1.4 4.69 C1.29 4.64, 1.17 4.58, 1.07 4.51 C0.96 4.44, 0.86 4.36, 0.76 4.27 C0.67 4.18, 0.58 4.08, 0.5 3.97 C0.42 3.87, 0.35 3.75, 0.29 3.63 C0.22 3.51, 0.17 3.38, 0.13 3.25 C0.09 3.11, 0.05 2.98, 0.03 2.84 C0.01 2.7, 0 2.56, 0 2.42 C0 2.28, 0.01 2.14, 0.03 2 C0.05 1.86, 0.09 1.72, 0.13 1.59 C0.17 1.46, 0.22 1.33, 0.29 1.21 C0.35 1.09, 0.42 0.97, 0.5 0.86 C0.58 0.76, 0.67 0.66, 0.76 0.57 C0.86 0.48, 0.96 0.39, 1.07 0.32 C1.17 0.25, 1.29 0.19, 1.4 0.15 C1.52 0.1, 1.64 0.06, 1.76 0.04 C1.88 0.01, 2.01 0, 2.13 0 C2.26 0, 2.38 0.01, 2.5 0.04 C2.62 0.06, 2.75 0.1, 2.86 0.15 C2.98 0.19, 3.09 0.25, 3.2 0.32 C3.3 0.39, 3.41 0.48, 3.5 0.57 C3.6 0.66, 3.69 0.76, 3.77 0.86 C3.84 0.97, 3.92 1.09, 3.98 1.21 C4.04 1.33, 4.09 1.46, 4.14 1.59 C4.18 1.72, 4.21 1.86, 4.23 2 C4.25 2.14, 4.26 2.35, 4.26 2.42 C4.27 2.49, 4.27 2.35, 4.26 2.42" stroke="#fff" stroke-width="1" fill="none"></path></g><g stroke-linecap="round" transform="translate(102.4621920646282 279.45579900372013) rotate(358.1310915065084 1.886111902664652 2.418767242184913)"><path d="M3.77 2.42 C3.77 2.56, 3.76 2.7, 3.74 2.84 C3.72 2.98, 3.7 3.11, 3.66 3.25 C3.62 3.38, 3.57 3.51, 3.52 3.63 C3.46 3.75, 3.4 3.87, 3.33 3.97 C3.26 4.08, 3.18 4.18, 3.1 4.27 C3.01 4.36, 2.92 4.44, 2.83 4.51 C2.73 4.58, 2.63 4.64, 2.53 4.69 C2.43 4.74, 2.32 4.78, 2.21 4.8 C2.11 4.83, 2 4.84, 1.89 4.84 C1.78 4.84, 1.67 4.83, 1.56 4.8 C1.45 4.78, 1.34 4.74, 1.24 4.69 C1.14 4.64, 1.04 4.58, 0.94 4.51 C0.85 4.44, 0.76 4.36, 0.67 4.27 C0.59 4.18, 0.51 4.08, 0.44 3.97 C0.37 3.87, 0.31 3.75, 0.25 3.63 C0.2 3.51, 0.15 3.38, 0.11 3.25 C0.08 3.11, 0.05 2.98, 0.03 2.84 C0.01 2.7, 0 2.56, 0 2.42 C0 2.28, 0.01 2.14, 0.03 2 C0.05 1.86, 0.08 1.72, 0.11 1.59 C0.15 1.46, 0.2 1.33, 0.25 1.21 C0.31 1.09, 0.37 0.97, 0.44 0.86 C0.51 0.76, 0.59 0.66, 0.67 0.57 C0.76 0.48, 0.85 0.39, 0.94 0.32 C1.04 0.25, 1.14 0.19, 1.24 0.15 C1.34 0.1, 1.45 0.06, 1.56 0.04 C1.67 0.01, 1.78 0, 1.89 0 C2 0, 2.11 0.01, 2.21 0.04 C2.32 0.06, 2.43 0.1, 2.53 0.15 C2.63 0.19, 2.73 0.25, 2.83 0.32 C2.92 0.39, 3.01 0.48, 3.1 0.57 C3.18 0.66, 3.26 0.76, 3.33 0.86 C3.4 0.97, 3.46 1.09, 3.52 1.21 C3.57 1.33, 3.62 1.46, 3.66 1.59 C3.7 1.72, 3.72 1.86, 3.74 2 C3.76 2.14, 3.77 2.35, 3.77 2.42 C3.78 2.49, 3.78 2.35, 3.77 2.42" stroke="#fff" stroke-width="1" fill="none"></path></g><g stroke-linecap="round" transform="translate(56.65241386690923 39.5754722184538) rotate(358.92972393214535 3.7680364110324263 19.555950473086796)"><path d="M1.88 0 L5.65 0 L7.07 0.47 L7.54 1.88 L7.54 37.23 L7.07 38.64 L5.65 39.11 L0.47 38.64 L0 37.23 L0 1.88 L0.47 0.47 L1.88 0" stroke="none" stroke-width="0" fill="#7950f2"></path><path d="M1.88 0 M1.88 0 C2.93 0, 3.97 0, 5.65 0 M1.88 0 C2.74 0, 3.59 0, 5.65 0 M5.65 0 C6.91 0, 7.54 0.63, 7.54 1.88 M5.65 0 C6.91 0, 7.54 0.63, 7.54 1.88 M7.54 1.88 C7.54 10.86, 7.54 19.84, 7.54 37.23 M7.54 1.88 C7.54 9.08, 7.54 16.27, 7.54 37.23 M7.54 37.23 C7.54 38.48, 6.91 39.11, 5.65 39.11 M7.54 37.23 C7.54 38.48, 6.91 39.11, 5.65 39.11 M5.65 39.11 C4.6 39.11, 3.54 39.11, 1.88 39.11 M5.65 39.11 C4.51 39.11, 3.37 39.11, 1.88 39.11 M1.88 39.11 C0.63 39.11, 0 38.48, 0 37.23 M1.88 39.11 C0.63 39.11, 0 38.48, 0 37.23 M0 37.23 C0 26.85, 0 16.48, 0 1.88 M0 37.23 C0 27.72, 0 18.21, 0 1.88 M0 1.88 C0 0.63, 0.63 0, 1.88 0 M0 1.88 C0 0.63, 0.63 0, 1.88 0" stroke="transparent" stroke-width="1" fill="none"></path></g><g stroke-linecap="round" transform="translate(70.6890533001947 34.58045929506534) rotate(40.41727686562419 3.7680364110324263 24.785791502693428)"><path d="M1.88 0 L5.65 0 L7.07 0.47 L7.54 1.88 L7.54 47.69 L7.07 49.1 L5.65 49.57 L0.47 49.1 L0 47.69 L0 1.88 L0.47 0.47 L1.88 0" stroke="none" stroke-width="0" fill="#7950f2"></path><path d="M1.88 0 M1.88 0 C2.67 0, 3.46 0, 5.65 0 M1.88 0 C3.25 0, 4.61 0, 5.65 0 M5.65 0 C6.91 0, 7.54 0.63, 7.54 1.88 M5.65 0 C6.91 0, 7.54 0.63, 7.54 1.88 M7.54 1.88 C7.54 11.32, 7.54 20.76, 7.54 47.69 M7.54 1.88 C7.54 16.81, 7.54 31.74, 7.54 47.69 M7.54 47.69 C7.54 48.94, 6.91 49.57, 5.65 49.57 M7.54 47.69 C7.54 48.94, 6.91 49.57, 5.65 49.57 M5.65 49.57 C4.34 49.57, 3.03 49.57, 1.88 49.57 M5.65 49.57 C4.75 49.57, 3.84 49.57, 1.88 49.57 M1.88 49.57 C0.63 49.57, 0 48.94, 0 47.69 M1.88 49.57 C0.63 49.57, 0 48.94, 0 47.69 M0 47.69 C0 37.66, 0 27.63, 0 1.88 M0 47.69 C0 37.98, 0 28.27, 0 1.88 M0 1.88 C0 0.63, 0.63 0, 1.88 0 M0 1.88 C0 0.63, 0.63 0, 1.88 0" stroke="transparent" stroke-width="1" fill="none"></path></g><g stroke-linecap="round" transform="translate(79.33157756504988 53.13547530306823) rotate(139.22073182693399 3.7680364110324263 14.147647249566944)"><path d="M1.88 0 L5.65 0 L7.07 0.47 L7.54 1.88 L7.54 26.41 L7.07 27.82 L5.65 28.3 L0.47 27.82 L0 26.41 L0 1.88 L0.47 0.47 L1.88 0" stroke="none" stroke-width="0" fill="#7950f2"></path><path d="M1.88 0 M1.88 0 C3.31 0, 4.73 0, 5.65 0 M1.88 0 C2.88 0, 3.87 0, 5.65 0 M5.65 0 C6.91 0, 7.54 0.63, 7.54 1.88 M5.65 0 C6.91 0, 7.54 0.63, 7.54 1.88 M7.54 1.88 C7.54 10.6, 7.54 19.32, 7.54 26.41 M7.54 1.88 C7.54 6.8, 7.54 11.71, 7.54 26.41 M7.54 26.41 C7.54 27.67, 6.91 28.3, 5.65 28.3 M7.54 26.41 C7.54 27.67, 6.91 28.3, 5.65 28.3 M5.65 28.3 C4.71 28.3, 3.77 28.3, 1.88 28.3 M5.65 28.3 C4.79 28.3, 3.94 28.3, 1.88 28.3 M1.88 28.3 C0.63 28.3, 0 27.67, 0 26.41 M1.88 28.3 C0.63 28.3, 0 27.67, 0 26.41 M0 26.41 C0 19.89, 0 13.37, 0 1.88 M0 26.41 C0 18.09, 0 9.76, 0 1.88 M0 1.88 C0 0.63, 0.63 0, 1.88 0 M0 1.88 C0 0.63, 0.63 0, 1.88 0" stroke="transparent" stroke-width="1" fill="none"></path></g><g stroke-linecap="round" transform="translate(55.785069013835255 37.62095131512251) rotate(358.1310915065084 4.207022158495647 4.569555668486828)"><path d="M8.41 4.57 C8.41 4.83, 8.39 5.1, 8.35 5.36 C8.31 5.62, 8.24 5.88, 8.16 6.13 C8.08 6.38, 7.97 6.63, 7.85 6.85 C7.73 7.08, 7.59 7.3, 7.43 7.51 C7.27 7.71, 7.1 7.9, 6.91 8.07 C6.72 8.24, 6.52 8.39, 6.31 8.53 C6.1 8.66, 5.87 8.77, 5.65 8.86 C5.42 8.95, 5.18 9.02, 4.94 9.07 C4.7 9.12, 4.45 9.14, 4.21 9.14 C3.96 9.14, 3.72 9.12, 3.48 9.07 C3.24 9.02, 3 8.95, 2.77 8.86 C2.54 8.77, 2.31 8.66, 2.1 8.53 C1.89 8.39, 1.69 8.24, 1.5 8.07 C1.32 7.9, 1.14 7.71, 0.98 7.51 C0.83 7.3, 0.69 7.08, 0.56 6.85 C0.44 6.63, 0.34 6.38, 0.25 6.13 C0.17 5.88, 0.11 5.62, 0.06 5.36 C0.02 5.1, 0 4.83, 0 4.57 C0 4.31, 0.02 4.04, 0.06 3.78 C0.11 3.52, 0.17 3.26, 0.25 3.01 C0.34 2.76, 0.44 2.51, 0.56 2.28 C0.69 2.06, 0.83 1.83, 0.98 1.63 C1.14 1.43, 1.32 1.24, 1.5 1.07 C1.69 0.9, 1.89 0.74, 2.1 0.61 C2.31 0.48, 2.54 0.37, 2.77 0.28 C3 0.19, 3.24 0.12, 3.48 0.07 C3.72 0.02, 3.96 0, 4.21 0 C4.45 0, 4.7 0.02, 4.94 0.07 C5.18 0.12, 5.42 0.19, 5.65 0.28 C5.87 0.37, 6.1 0.48, 6.31 0.61 C6.52 0.74, 6.72 0.9, 6.91 1.07 C7.1 1.24, 7.27 1.43, 7.43 1.63 C7.59 1.83, 7.73 2.06, 7.85 2.28 C7.97 2.51, 8.08 2.76, 8.16 3.01 C8.24 3.26, 8.31 3.52, 8.35 3.78 C8.39 4.04, 8.4 4.44, 8.41 4.57 C8.42 4.7, 8.42 4.44, 8.41 4.57" stroke="none" stroke-width="0" fill="#7950f2"></path><path d="M8.41 4.57 C8.41 4.83, 8.39 5.1, 8.35 5.36 C8.31 5.62, 8.24 5.88, 8.16 6.13 C8.08 6.38, 7.97 6.63, 7.85 6.85 C7.73 7.08, 7.59 7.3, 7.43 7.51 C7.27 7.71, 7.1 7.9, 6.91 8.07 C6.72 8.24, 6.52 8.39, 6.31 8.53 C6.1 8.66, 5.87 8.77, 5.65 8.86 C5.42 8.95, 5.18 9.02, 4.94 9.07 C4.7 9.12, 4.45 9.14, 4.21 9.14 C3.96 9.14, 3.72 9.12, 3.48 9.07 C3.24 9.02, 3 8.95, 2.77 8.86 C2.54 8.77, 2.31 8.66, 2.1 8.53 C1.89 8.39, 1.69 8.24, 1.5 8.07 C1.32 7.9, 1.14 7.71, 0.98 7.51 C0.83 7.3, 0.69 7.08, 0.56 6.85 C0.44 6.63, 0.34 6.38, 0.25 6.13 C0.17 5.88, 0.11 5.62, 0.06 5.36 C0.02 5.1, 0 4.83, 0 4.57 C0 4.31, 0.02 4.04, 0.06 3.78 C0.11 3.52, 0.17 3.26, 0.25 3.01 C0.34 2.76, 0.44 2.51, 0.56 2.28 C0.69 2.06, 0.83 1.83, 0.98 1.63 C1.14 1.43, 1.32 1.24, 1.5 1.07 C1.69 0.9, 1.89 0.74, 2.1 0.61 C2.31 0.48, 2.54 0.37, 2.77 0.28 C3 0.19, 3.24 0.12, 3.48 0.07 C3.72 0.02, 3.96 0, 4.21 0 C4.45 0, 4.7 0.02, 4.94 0.07 C5.18 0.12, 5.42 0.19, 5.65 0.28 C5.87 0.37, 6.1 0.48, 6.31 0.61 C6.52 0.74, 6.72 0.9, 6.91 1.07 C7.1 1.24, 7.27 1.43, 7.43 1.63 C7.59 1.83, 7.73 2.06, 7.85 2.28 C7.97 2.51, 8.08 2.76, 8.16 3.01 C8.24 3.26, 8.31 3.52, 8.35 3.78 C8.39 4.04, 8.4 4.44, 8.41 4.57 C8.42 4.7, 8.42 4.44, 8.41 4.57" stroke="#5f3dc4" stroke-width="1" fill="none"></path></g><g stroke-linecap="round" transform="translate(56.74570504085341 69.8689879507474) rotate(358.1310915065084 4.207022158495647 4.569555668486828)"><path d="M8.41 4.57 C8.41 4.83, 8.39 5.1, 8.35 5.36 C8.31 5.62, 8.24 5.88, 8.16 6.13 C8.08 6.38, 7.97 6.63, 7.85 6.85 C7.73 7.08, 7.59 7.3, 7.43 7.51 C7.27 7.71, 7.1 7.9, 6.91 8.07 C6.72 8.24, 6.52 8.39, 6.31 8.53 C6.1 8.66, 5.87 8.77, 5.65 8.86 C5.42 8.95, 5.18 9.02, 4.94 9.07 C4.7 9.12, 4.45 9.14, 4.21 9.14 C3.96 9.14, 3.72 9.12, 3.48 9.07 C3.24 9.02, 3 8.95, 2.77 8.86 C2.54 8.77, 2.31 8.66, 2.1 8.53 C1.89 8.39, 1.69 8.24, 1.5 8.07 C1.32 7.9, 1.14 7.71, 0.98 7.51 C0.83 7.3, 0.69 7.08, 0.56 6.85 C0.44 6.63, 0.34 6.38, 0.25 6.13 C0.17 5.88, 0.11 5.62, 0.06 5.36 C0.02 5.1, 0 4.83, 0 4.57 C0 4.31, 0.02 4.04, 0.06 3.78 C0.11 3.52, 0.17 3.26, 0.25 3.01 C0.34 2.76, 0.44 2.51, 0.56 2.28 C0.69 2.06, 0.83 1.83, 0.98 1.63 C1.14 1.43, 1.32 1.24, 1.5 1.07 C1.69 0.9, 1.89 0.74, 2.1 0.61 C2.31 0.48, 2.54 0.37, 2.77 0.28 C3 0.19, 3.24 0.12, 3.48 0.07 C3.72 0.02, 3.96 0, 4.21 0 C4.45 0, 4.7 0.02, 4.94 0.07 C5.18 0.12, 5.42 0.19, 5.65 0.28 C5.87 0.37, 6.1 0.48, 6.31 0.61 C6.52 0.74, 6.72 0.9, 6.91 1.07 C7.1 1.24, 7.27 1.43, 7.43 1.63 C7.59 1.83, 7.73 2.06, 7.85 2.28 C7.97 2.51, 8.08 2.76, 8.16 3.01 C8.24 3.26, 8.31 3.52, 8.35 3.78 C8.39 4.04, 8.4 4.44, 8.41 4.57 C8.42 4.7, 8.42 4.44, 8.41 4.57" stroke="none" stroke-width="0" fill="#7950f2"></path><path d="M8.41 4.57 C8.41 4.83, 8.39 5.1, 8.35 5.36 C8.31 5.62, 8.24 5.88, 8.16 6.13 C8.08 6.38, 7.97 6.63, 7.85 6.85 C7.73 7.08, 7.59 7.3, 7.43 7.51 C7.27 7.71, 7.1 7.9, 6.91 8.07 C6.72 8.24, 6.52 8.39, 6.31 8.53 C6.1 8.66, 5.87 8.77, 5.65 8.86 C5.42 8.95, 5.18 9.02, 4.94 9.07 C4.7 9.12, 4.45 9.14, 4.21 9.14 C3.96 9.14, 3.72 9.12, 3.48 9.07 C3.24 9.02, 3 8.95, 2.77 8.86 C2.54 8.77, 2.31 8.66, 2.1 8.53 C1.89 8.39, 1.69 8.24, 1.5 8.07 C1.32 7.9, 1.14 7.71, 0.98 7.51 C0.83 7.3, 0.69 7.08, 0.56 6.85 C0.44 6.63, 0.34 6.38, 0.25 6.13 C0.17 5.88, 0.11 5.62, 0.06 5.36 C0.02 5.1, 0 4.83, 0 4.57 C0 4.31, 0.02 4.04, 0.06 3.78 C0.11 3.52, 0.17 3.26, 0.25 3.01 C0.34 2.76, 0.44 2.51, 0.56 2.28 C0.69 2.06, 0.83 1.83, 0.98 1.63 C1.14 1.43, 1.32 1.24, 1.5 1.07 C1.69 0.9, 1.89 0.74, 2.1 0.61 C2.31 0.48, 2.54 0.37, 2.77 0.28 C3 0.19, 3.24 0.12, 3.48 0.07 C3.72 0.02, 3.96 0, 4.21 0 C4.45 0, 4.7 0.02, 4.94 0.07 C5.18 0.12, 5.42 0.19, 5.65 0.28 C5.87 0.37, 6.1 0.48, 6.31 0.61 C6.52 0.74, 6.72 0.9, 6.91 1.07 C7.1 1.24, 7.27 1.43, 7.43 1.63 C7.59 1.83, 7.73 2.06, 7.85 2.28 C7.97 2.51, 8.08 2.76, 8.16 3.01 C8.24 3.26, 8.31 3.52, 8.35 3.78 C8.39 4.04, 8.4 4.44, 8.41 4.57 C8.42 4.7, 8.42 4.44, 8.41 4.57" stroke="#5f3dc4" stroke-width="1" fill="none"></path></g><g stroke-linecap="round" transform="translate(71.28309941599855 55.77109904502504) rotate(358.1310915065084 4.171683969157584 4.569555668486828)"><path d="M8.34 4.57 C8.34 4.83, 8.32 5.1, 8.28 5.36 C8.24 5.62, 8.17 5.88, 8.09 6.13 C8.01 6.38, 7.91 6.63, 7.78 6.85 C7.66 7.08, 7.52 7.3, 7.37 7.51 C7.21 7.71, 7.04 7.9, 6.85 8.07 C6.67 8.24, 6.47 8.39, 6.26 8.53 C6.05 8.66, 5.83 8.77, 5.6 8.86 C5.37 8.95, 5.13 9.02, 4.9 9.07 C4.66 9.12, 4.41 9.14, 4.17 9.14 C3.93 9.14, 3.69 9.12, 3.45 9.07 C3.21 9.02, 2.97 8.95, 2.74 8.86 C2.52 8.77, 2.29 8.66, 2.09 8.53 C1.88 8.39, 1.68 8.24, 1.49 8.07 C1.31 7.9, 1.13 7.71, 0.98 7.51 C0.82 7.3, 0.68 7.08, 0.56 6.85 C0.44 6.63, 0.33 6.38, 0.25 6.13 C0.17 5.88, 0.11 5.62, 0.06 5.36 C0.02 5.1, 0 4.83, 0 4.57 C0 4.31, 0.02 4.04, 0.06 3.78 C0.11 3.52, 0.17 3.26, 0.25 3.01 C0.33 2.76, 0.44 2.51, 0.56 2.28 C0.68 2.06, 0.82 1.83, 0.98 1.63 C1.13 1.43, 1.31 1.24, 1.49 1.07 C1.68 0.9, 1.88 0.74, 2.09 0.61 C2.29 0.48, 2.52 0.37, 2.74 0.28 C2.97 0.19, 3.21 0.12, 3.45 0.07 C3.69 0.02, 3.93 0, 4.17 0 C4.41 0, 4.66 0.02, 4.9 0.07 C5.13 0.12, 5.37 0.19, 5.6 0.28 C5.83 0.37, 6.05 0.48, 6.26 0.61 C6.47 0.74, 6.67 0.9, 6.85 1.07 C7.04 1.24, 7.21 1.43, 7.37 1.63 C7.52 1.83, 7.66 2.06, 7.78 2.28 C7.91 2.51, 8.01 2.76, 8.09 3.01 C8.17 3.26, 8.24 3.52, 8.28 3.78 C8.32 4.04, 8.33 4.44, 8.34 4.57 C8.35 4.7, 8.35 4.44, 8.34 4.57" stroke="none" stroke-width="0" fill="#7950f2"></path><path d="M8.34 4.57 C8.34 4.83, 8.32 5.1, 8.28 5.36 C8.24 5.62, 8.17 5.88, 8.09 6.13 C8.01 6.38, 7.91 6.63, 7.78 6.85 C7.66 7.08, 7.52 7.3, 7.37 7.51 C7.21 7.71, 7.04 7.9, 6.85 8.07 C6.67 8.24, 6.47 8.39, 6.26 8.53 C6.05 8.66, 5.83 8.77, 5.6 8.86 C5.37 8.95, 5.13 9.02, 4.9 9.07 C4.66 9.12, 4.41 9.14, 4.17 9.14 C3.93 9.14, 3.69 9.12, 3.45 9.07 C3.21 9.02, 2.97 8.95, 2.74 8.86 C2.52 8.77, 2.29 8.66, 2.09 8.53 C1.88 8.39, 1.68 8.24, 1.49 8.07 C1.31 7.9, 1.13 7.71, 0.98 7.51 C0.82 7.3, 0.68 7.08, 0.56 6.85 C0.44 6.63, 0.33 6.38, 0.25 6.13 C0.17 5.88, 0.11 5.62, 0.06 5.36 C0.02 5.1, 0 4.83, 0 4.57 C0 4.31, 0.02 4.04, 0.06 3.78 C0.11 3.52, 0.17 3.26, 0.25 3.01 C0.33 2.76, 0.44 2.51, 0.56 2.28 C0.68 2.06, 0.82 1.83, 0.98 1.63 C1.13 1.43, 1.31 1.24, 1.49 1.07 C1.68 0.9, 1.88 0.74, 2.09 0.61 C2.29 0.48, 2.52 0.37, 2.74 0.28 C2.97 0.19, 3.21 0.12, 3.45 0.07 C3.69 0.02, 3.93 0, 4.17 0 C4.41 0, 4.66 0.02, 4.9 0.07 C5.13 0.12, 5.37 0.19, 5.6 0.28 C5.83 0.37, 6.05 0.48, 6.26 0.61 C6.47 0.74, 6.67 0.9, 6.85 1.07 C7.04 1.24, 7.21 1.43, 7.37 1.63 C7.52 1.83, 7.66 2.06, 7.78 2.28 C7.91 2.51, 8.01 2.76, 8.09 3.01 C8.17 3.26, 8.24 3.52, 8.28 3.78 C8.32 4.04, 8.33 4.44, 8.34 4.57 C8.35 4.7, 8.35 4.44, 8.34 4.57" stroke="#5f3dc4" stroke-width="1" fill="none"></path></g><g stroke-linecap="round" transform="translate(84.42900408351761 38.422202412629304) rotate(358.1310915065084 4.207022158495647 4.569555668486828)"><path d="M8.41 4.57 C8.41 4.83, 8.39 5.1, 8.35 5.36 C8.31 5.62, 8.24 5.88, 8.16 6.13 C8.08 6.38, 7.97 6.63, 7.85 6.85 C7.73 7.08, 7.59 7.3, 7.43 7.51 C7.27 7.71, 7.1 7.9, 6.91 8.07 C6.72 8.24, 6.52 8.39, 6.31 8.53 C6.1 8.66, 5.87 8.77, 5.65 8.86 C5.42 8.95, 5.18 9.02, 4.94 9.07 C4.7 9.12, 4.45 9.14, 4.21 9.14 C3.96 9.14, 3.72 9.12, 3.48 9.07 C3.24 9.02, 3 8.95, 2.77 8.86 C2.54 8.77, 2.31 8.66, 2.1 8.53 C1.89 8.39, 1.69 8.24, 1.5 8.07 C1.32 7.9, 1.14 7.71, 0.98 7.51 C0.83 7.3, 0.69 7.08, 0.56 6.85 C0.44 6.63, 0.34 6.38, 0.25 6.13 C0.17 5.88, 0.11 5.62, 0.06 5.36 C0.02 5.1, 0 4.83, 0 4.57 C0 4.31, 0.02 4.04, 0.06 3.78 C0.11 3.52, 0.17 3.26, 0.25 3.01 C0.34 2.76, 0.44 2.51, 0.56 2.28 C0.69 2.06, 0.83 1.83, 0.98 1.63 C1.14 1.43, 1.32 1.24, 1.5 1.07 C1.69 0.9, 1.89 0.74, 2.1 0.61 C2.31 0.48, 2.54 0.37, 2.77 0.28 C3 0.19, 3.24 0.12, 3.48 0.07 C3.72 0.02, 3.96 0, 4.21 0 C4.45 0, 4.7 0.02, 4.94 0.07 C5.18 0.12, 5.42 0.19, 5.65 0.28 C5.87 0.37, 6.1 0.48, 6.31 0.61 C6.52 0.74, 6.72 0.9, 6.91 1.07 C7.1 1.24, 7.27 1.43, 7.43 1.63 C7.59 1.83, 7.73 2.06, 7.85 2.28 C7.97 2.51, 8.08 2.76, 8.16 3.01 C8.24 3.26, 8.31 3.52, 8.35 3.78 C8.39 4.04, 8.4 4.44, 8.41 4.57 C8.42 4.7, 8.42 4.44, 8.41 4.57" stroke="none" stroke-width="0" fill="#7950f2"></path><path d="M8.41 4.57 C8.41 4.83, 8.39 5.1, 8.35 5.36 C8.31 5.62, 8.24 5.88, 8.16 6.13 C8.08 6.38, 7.97 6.63, 7.85 6.85 C7.73 7.08, 7.59 7.3, 7.43 7.51 C7.27 7.71, 7.1 7.9, 6.91 8.07 C6.72 8.24, 6.52 8.39, 6.31 8.53 C6.1 8.66, 5.87 8.77, 5.65 8.86 C5.42 8.95, 5.18 9.02, 4.94 9.07 C4.7 9.12, 4.45 9.14, 4.21 9.14 C3.96 9.14, 3.72 9.12, 3.48 9.07 C3.24 9.02, 3 8.95, 2.77 8.86 C2.54 8.77, 2.31 8.66, 2.1 8.53 C1.89 8.39, 1.69 8.24, 1.5 8.07 C1.32 7.9, 1.14 7.71, 0.98 7.51 C0.83 7.3, 0.69 7.08, 0.56 6.85 C0.44 6.63, 0.34 6.38, 0.25 6.13 C0.17 5.88, 0.11 5.62, 0.06 5.36 C0.02 5.1, 0 4.83, 0 4.57 C0 4.31, 0.02 4.04, 0.06 3.78 C0.11 3.52, 0.17 3.26, 0.25 3.01 C0.34 2.76, 0.44 2.51, 0.56 2.28 C0.69 2.06, 0.83 1.83, 0.98 1.63 C1.14 1.43, 1.32 1.24, 1.5 1.07 C1.69 0.9, 1.89 0.74, 2.1 0.61 C2.31 0.48, 2.54 0.37, 2.77 0.28 C3 0.19, 3.24 0.12, 3.48 0.07 C3.72 0.02, 3.96 0, 4.21 0 C4.45 0, 4.7 0.02, 4.94 0.07 C5.18 0.12, 5.42 0.19, 5.65 0.28 C5.87 0.37, 6.1 0.48, 6.31 0.61 C6.52 0.74, 6.72 0.9, 6.91 1.07 C7.1 1.24, 7.27 1.43, 7.43 1.63 C7.59 1.83, 7.73 2.06, 7.85 2.28 C7.97 2.51, 8.08 2.76, 8.16 3.01 C8.24 3.26, 8.31 3.52, 8.35 3.78 C8.39 4.04, 8.4 4.44, 8.41 4.57 C8.42 4.7, 8.42 4.44, 8.41 4.57" stroke="#5f3dc4" stroke-width="1" fill="none"></path></g><g stroke-linecap="round" transform="translate(86.48001366568587 71.4355674403023) rotate(358.1310915065084 4.207022158495647 4.569555668486828)"><path d="M8.41 4.57 C8.41 4.83, 8.39 5.1, 8.35 5.36 C8.31 5.62, 8.24 5.88, 8.16 6.13 C8.08 6.38, 7.97 6.63, 7.85 6.85 C7.73 7.08, 7.59 7.3, 7.43 7.51 C7.27 7.71, 7.1 7.9, 6.91 8.07 C6.72 8.24, 6.52 8.39, 6.31 8.53 C6.1 8.66, 5.87 8.77, 5.65 8.86 C5.42 8.95, 5.18 9.02, 4.94 9.07 C4.7 9.12, 4.45 9.14, 4.21 9.14 C3.96 9.14, 3.72 9.12, 3.48 9.07 C3.24 9.02, 3 8.95, 2.77 8.86 C2.54 8.77, 2.31 8.66, 2.1 8.53 C1.89 8.39, 1.69 8.24, 1.5 8.07 C1.32 7.9, 1.14 7.71, 0.98 7.51 C0.83 7.3, 0.69 7.08, 0.56 6.85 C0.44 6.63, 0.34 6.38, 0.25 6.13 C0.17 5.88, 0.11 5.62, 0.06 5.36 C0.02 5.1, 0 4.83, 0 4.57 C0 4.31, 0.02 4.04, 0.06 3.78 C0.11 3.52, 0.17 3.26, 0.25 3.01 C0.34 2.76, 0.44 2.51, 0.56 2.28 C0.69 2.06, 0.83 1.83, 0.98 1.63 C1.14 1.43, 1.32 1.24, 1.5 1.07 C1.69 0.9, 1.89 0.74, 2.1 0.61 C2.31 0.48, 2.54 0.37, 2.77 0.28 C3 0.19, 3.24 0.12, 3.48 0.07 C3.72 0.02, 3.96 0, 4.21 0 C4.45 0, 4.7 0.02, 4.94 0.07 C5.18 0.12, 5.42 0.19, 5.65 0.28 C5.87 0.37, 6.1 0.48, 6.31 0.61 C6.52 0.74, 6.72 0.9, 6.91 1.07 C7.1 1.24, 7.27 1.43, 7.43 1.63 C7.59 1.83, 7.73 2.06, 7.85 2.28 C7.97 2.51, 8.08 2.76, 8.16 3.01 C8.24 3.26, 8.31 3.52, 8.35 3.78 C8.39 4.04, 8.4 4.44, 8.41 4.57 C8.42 4.7, 8.42 4.44, 8.41 4.57" stroke="none" stroke-width="0" fill="#7950f2"></path><path d="M8.41 4.57 C8.41 4.83, 8.39 5.1, 8.35 5.36 C8.31 5.62, 8.24 5.88, 8.16 6.13 C8.08 6.38, 7.97 6.63, 7.85 6.85 C7.73 7.08, 7.59 7.3, 7.43 7.51 C7.27 7.71, 7.1 7.9, 6.91 8.07 C6.72 8.24, 6.52 8.39, 6.31 8.53 C6.1 8.66, 5.87 8.77, 5.65 8.86 C5.42 8.95, 5.18 9.02, 4.94 9.07 C4.7 9.12, 4.45 9.14, 4.21 9.14 C3.96 9.14, 3.72 9.12, 3.48 9.07 C3.24 9.02, 3 8.95, 2.77 8.86 C2.54 8.77, 2.31 8.66, 2.1 8.53 C1.89 8.39, 1.69 8.24, 1.5 8.07 C1.32 7.9, 1.14 7.71, 0.98 7.51 C0.83 7.3, 0.69 7.08, 0.56 6.85 C0.44 6.63, 0.34 6.38, 0.25 6.13 C0.17 5.88, 0.11 5.62, 0.06 5.36 C0.02 5.1, 0 4.83, 0 4.57 C0 4.31, 0.02 4.04, 0.06 3.78 C0.11 3.52, 0.17 3.26, 0.25 3.01 C0.34 2.76, 0.44 2.51, 0.56 2.28 C0.69 2.06, 0.83 1.83, 0.98 1.63 C1.14 1.43, 1.32 1.24, 1.5 1.07 C1.69 0.9, 1.89 0.74, 2.1 0.61 C2.31 0.48, 2.54 0.37, 2.77 0.28 C3 0.19, 3.24 0.12, 3.48 0.07 C3.72 0.02, 3.96 0, 4.21 0 C4.45 0, 4.7 0.02, 4.94 0.07 C5.18 0.12, 5.42 0.19, 5.65 0.28 C5.87 0.37, 6.1 0.48, 6.31 0.61 C6.52 0.74, 6.72 0.9, 6.91 1.07 C7.1 1.24, 7.27 1.43, 7.43 1.63 C7.59 1.83, 7.73 2.06, 7.85 2.28 C7.97 2.51, 8.08 2.76, 8.16 3.01 C8.24 3.26, 8.31 3.52, 8.35 3.78 C8.39 4.04, 8.4 4.44, 8.41 4.57 C8.42 4.7, 8.42 4.44, 8.41 4.57" stroke="#5f3dc4" stroke-width="1" fill="none"></path></g><g stroke-linecap="round" transform="translate(56.348045398930935 38.76316343378221) rotate(358.1310915065084 3.7296939325749463 3.867855952340051)"><path d="M7.46 3.87 C7.46 4.09, 7.44 4.32, 7.4 4.54 C7.37 4.76, 7.31 4.98, 7.23 5.19 C7.16 5.4, 7.07 5.61, 6.96 5.8 C6.85 6, 6.73 6.18, 6.59 6.35 C6.45 6.53, 6.29 6.69, 6.13 6.83 C5.96 6.97, 5.78 7.11, 5.59 7.22 C5.41 7.33, 5.21 7.43, 5.01 7.5 C4.8 7.58, 4.59 7.64, 4.38 7.68 C4.16 7.72, 3.95 7.74, 3.73 7.74 C3.51 7.74, 3.29 7.72, 3.08 7.68 C2.87 7.64, 2.66 7.58, 2.45 7.5 C2.25 7.43, 2.05 7.33, 1.86 7.22 C1.68 7.11, 1.5 6.97, 1.33 6.83 C1.17 6.69, 1.01 6.53, 0.87 6.35 C0.73 6.18, 0.61 6, 0.5 5.8 C0.39 5.61, 0.3 5.4, 0.22 5.19 C0.15 4.98, 0.09 4.76, 0.06 4.54 C0.02 4.32, 0 4.09, 0 3.87 C0 3.64, 0.02 3.42, 0.06 3.2 C0.09 2.98, 0.15 2.76, 0.22 2.54 C0.3 2.33, 0.39 2.13, 0.5 1.93 C0.61 1.74, 0.73 1.55, 0.87 1.38 C1.01 1.21, 1.17 1.05, 1.33 0.9 C1.5 0.76, 1.68 0.63, 1.86 0.52 C2.05 0.41, 2.25 0.31, 2.45 0.23 C2.66 0.16, 2.87 0.1, 3.08 0.06 C3.29 0.02, 3.51 0, 3.73 0 C3.95 0, 4.16 0.02, 4.38 0.06 C4.59 0.1, 4.8 0.16, 5.01 0.23 C5.21 0.31, 5.41 0.41, 5.59 0.52 C5.78 0.63, 5.96 0.76, 6.13 0.9 C6.29 1.05, 6.45 1.21, 6.59 1.38 C6.73 1.55, 6.85 1.74, 6.96 1.93 C7.07 2.13, 7.16 2.33, 7.23 2.54 C7.31 2.76, 7.37 2.98, 7.4 3.2 C7.44 3.42, 7.45 3.76, 7.46 3.87 C7.47 3.98, 7.47 3.76, 7.46 3.87" stroke="#fff" stroke-width="1" fill="none"></path></g><g stroke-linecap="round" transform="translate(57.12139544494039 70.97577248253037) rotate(358.1310915065084 3.7296939325749463 3.867855952340051)"><path d="M7.46 3.87 C7.46 4.09, 7.44 4.32, 7.4 4.54 C7.37 4.76, 7.31 4.98, 7.23 5.19 C7.16 5.4, 7.07 5.61, 6.96 5.8 C6.85 6, 6.73 6.18, 6.59 6.35 C6.45 6.53, 6.29 6.69, 6.13 6.83 C5.96 6.97, 5.78 7.11, 5.59 7.22 C5.41 7.33, 5.21 7.43, 5.01 7.5 C4.8 7.58, 4.59 7.64, 4.38 7.68 C4.16 7.72, 3.95 7.74, 3.73 7.74 C3.51 7.74, 3.29 7.72, 3.08 7.68 C2.87 7.64, 2.66 7.58, 2.45 7.5 C2.25 7.43, 2.05 7.33, 1.86 7.22 C1.68 7.11, 1.5 6.97, 1.33 6.83 C1.17 6.69, 1.01 6.53, 0.87 6.35 C0.73 6.18, 0.61 6, 0.5 5.8 C0.39 5.61, 0.3 5.4, 0.22 5.19 C0.15 4.98, 0.09 4.76, 0.06 4.54 C0.02 4.32, 0 4.09, 0 3.87 C0 3.64, 0.02 3.42, 0.06 3.2 C0.09 2.98, 0.15 2.76, 0.22 2.54 C0.3 2.33, 0.39 2.13, 0.5 1.93 C0.61 1.74, 0.73 1.55, 0.87 1.38 C1.01 1.21, 1.17 1.05, 1.33 0.9 C1.5 0.76, 1.68 0.63, 1.86 0.52 C2.05 0.41, 2.25 0.31, 2.45 0.23 C2.66 0.16, 2.87 0.1, 3.08 0.06 C3.29 0.02, 3.51 0, 3.73 0 C3.95 0, 4.16 0.02, 4.38 0.06 C4.59 0.1, 4.8 0.16, 5.01 0.23 C5.21 0.31, 5.41 0.41, 5.59 0.52 C5.78 0.63, 5.96 0.76, 6.13 0.9 C6.29 1.05, 6.45 1.21, 6.59 1.38 C6.73 1.55, 6.85 1.74, 6.96 1.93 C7.07 2.13, 7.16 2.33, 7.23 2.54 C7.31 2.76, 7.37 2.98, 7.4 3.2 C7.44 3.42, 7.45 3.76, 7.46 3.87 C7.47 3.98, 7.47 3.76, 7.46 3.87" stroke="#fff" stroke-width="1" fill="none"></path></g><g stroke-linecap="round" transform="translate(71.68687485502778 56.24305506473593) rotate(358.1310915065084 3.7246862679369315 3.7725718007777687)"><path d="M7.45 3.77 C7.45 3.99, 7.43 4.21, 7.39 4.43 C7.36 4.64, 7.3 4.86, 7.22 5.06 C7.15 5.27, 7.06 5.47, 6.95 5.66 C6.84 5.85, 6.72 6.03, 6.58 6.2 C6.44 6.36, 6.28 6.52, 6.12 6.66 C5.95 6.8, 5.77 6.93, 5.59 7.04 C5.4 7.15, 5.2 7.24, 5 7.32 C4.8 7.39, 4.58 7.45, 4.37 7.49 C4.16 7.53, 3.94 7.55, 3.72 7.55 C3.51 7.55, 3.29 7.53, 3.08 7.49 C2.87 7.45, 2.65 7.39, 2.45 7.32 C2.25 7.24, 2.05 7.15, 1.86 7.04 C1.68 6.93, 1.5 6.8, 1.33 6.66 C1.17 6.52, 1.01 6.36, 0.87 6.2 C0.73 6.03, 0.61 5.85, 0.5 5.66 C0.39 5.47, 0.3 5.27, 0.22 5.06 C0.15 4.86, 0.09 4.64, 0.06 4.43 C0.02 4.21, 0 3.99, 0 3.77 C0 3.55, 0.02 3.33, 0.06 3.12 C0.09 2.9, 0.15 2.69, 0.22 2.48 C0.3 2.28, 0.39 2.08, 0.5 1.89 C0.61 1.7, 0.73 1.51, 0.87 1.35 C1.01 1.18, 1.17 1.02, 1.33 0.88 C1.5 0.74, 1.68 0.61, 1.86 0.51 C2.05 0.4, 2.25 0.3, 2.45 0.23 C2.65 0.15, 2.87 0.1, 3.08 0.06 C3.29 0.02, 3.51 0, 3.72 0 C3.94 0, 4.16 0.02, 4.37 0.06 C4.58 0.1, 4.8 0.15, 5 0.23 C5.2 0.3, 5.4 0.4, 5.59 0.51 C5.77 0.61, 5.95 0.74, 6.12 0.88 C6.28 1.02, 6.44 1.18, 6.58 1.35 C6.72 1.51, 6.84 1.7, 6.95 1.89 C7.06 2.08, 7.15 2.28, 7.22 2.48 C7.3 2.69, 7.36 2.9, 7.39 3.12 C7.43 3.33, 7.44 3.66, 7.45 3.77 C7.46 3.88, 7.46 3.66, 7.45 3.77" stroke="#fff" stroke-width="1" fill="none"></path></g><g stroke-linecap="round" transform="translate(85.23880169350196 39.32727493123639) rotate(358.1310915065084 3.325364728417753 3.7725718007777687)"><path d="M6.65 3.77 C6.65 3.99, 6.63 4.21, 6.6 4.43 C6.57 4.64, 6.52 4.86, 6.45 5.06 C6.38 5.27, 6.3 5.47, 6.21 5.66 C6.11 5.85, 6 6.03, 5.87 6.2 C5.75 6.36, 5.61 6.52, 5.46 6.66 C5.32 6.8, 5.15 6.93, 4.99 7.04 C4.82 7.15, 4.64 7.24, 4.46 7.32 C4.28 7.39, 4.09 7.45, 3.9 7.49 C3.71 7.53, 3.52 7.55, 3.33 7.55 C3.13 7.55, 2.94 7.53, 2.75 7.49 C2.56 7.45, 2.37 7.39, 2.19 7.32 C2.01 7.24, 1.83 7.15, 1.66 7.04 C1.5 6.93, 1.34 6.8, 1.19 6.66 C1.04 6.52, 0.9 6.36, 0.78 6.2 C0.65 6.03, 0.54 5.85, 0.45 5.66 C0.35 5.47, 0.27 5.27, 0.2 5.06 C0.13 4.86, 0.08 4.64, 0.05 4.43 C0.02 4.21, 0 3.99, 0 3.77 C0 3.55, 0.02 3.33, 0.05 3.12 C0.08 2.9, 0.13 2.69, 0.2 2.48 C0.27 2.28, 0.35 2.08, 0.45 1.89 C0.54 1.7, 0.65 1.51, 0.78 1.35 C0.9 1.18, 1.04 1.02, 1.19 0.88 C1.34 0.74, 1.5 0.61, 1.66 0.51 C1.83 0.4, 2.01 0.3, 2.19 0.23 C2.37 0.15, 2.56 0.1, 2.75 0.06 C2.94 0.02, 3.13 0, 3.33 0 C3.52 0, 3.71 0.02, 3.9 0.06 C4.09 0.1, 4.28 0.15, 4.46 0.23 C4.64 0.3, 4.82 0.4, 4.99 0.51 C5.15 0.61, 5.32 0.74, 5.46 0.88 C5.61 1.02, 5.75 1.18, 5.87 1.35 C6 1.51, 6.11 1.7, 6.21 1.89 C6.3 2.08, 6.38 2.28, 6.45 2.48 C6.52 2.69, 6.57 2.9, 6.6 3.12 C6.63 3.33, 6.64 3.66, 6.65 3.77 C6.66 3.88, 6.66 3.66, 6.65 3.77" stroke="#fff" stroke-width="1" fill="none"></path></g><g stroke-linecap="round" transform="translate(87.76439433027099 72.13749974738403) rotate(358.1310915065084 2.94178474596697 3.7725718007777687)"><path d="M5.88 3.77 C5.88 3.99, 5.87 4.21, 5.84 4.43 C5.81 4.64, 5.76 4.86, 5.71 5.06 C5.65 5.27, 5.57 5.47, 5.49 5.66 C5.4 5.85, 5.3 6.03, 5.2 6.2 C5.09 6.36, 4.96 6.52, 4.83 6.66 C4.7 6.8, 4.56 6.93, 4.41 7.04 C4.27 7.15, 4.11 7.24, 3.95 7.32 C3.79 7.39, 3.62 7.45, 3.45 7.49 C3.28 7.53, 3.11 7.55, 2.94 7.55 C2.77 7.55, 2.6 7.53, 2.43 7.49 C2.26 7.45, 2.1 7.39, 1.94 7.32 C1.78 7.24, 1.62 7.15, 1.47 7.04 C1.32 6.93, 1.18 6.8, 1.05 6.66 C0.92 6.52, 0.8 6.36, 0.69 6.2 C0.58 6.03, 0.48 5.85, 0.39 5.66 C0.31 5.47, 0.24 5.27, 0.18 5.06 C0.12 4.86, 0.07 4.64, 0.04 4.43 C0.02 4.21, 0 3.99, 0 3.77 C0 3.55, 0.02 3.33, 0.04 3.12 C0.07 2.9, 0.12 2.69, 0.18 2.48 C0.24 2.28, 0.31 2.08, 0.39 1.89 C0.48 1.7, 0.58 1.51, 0.69 1.35 C0.8 1.18, 0.92 1.02, 1.05 0.88 C1.18 0.74, 1.32 0.61, 1.47 0.51 C1.62 0.4, 1.78 0.3, 1.94 0.23 C2.1 0.15, 2.26 0.1, 2.43 0.06 C2.6 0.02, 2.77 0, 2.94 0 C3.11 0, 3.28 0.02, 3.45 0.06 C3.62 0.1, 3.79 0.15, 3.95 0.23 C4.11 0.3, 4.27 0.4, 4.41 0.51 C4.56 0.61, 4.7 0.74, 4.83 0.88 C4.96 1.02, 5.09 1.18, 5.2 1.35 C5.3 1.51, 5.4 1.7, 5.49 1.89 C5.57 2.08, 5.65 2.28, 5.71 2.48 C5.76 2.69, 5.81 2.9, 5.84 3.12 C5.87 3.33, 5.88 3.66, 5.88 3.77 C5.89 3.88, 5.89 3.66, 5.88 3.77" stroke="#fff" stroke-width="1" fill="none"></path></g><g stroke-linecap="round" transform="translate(260.0118054883844 260.1889149891631) rotate(358.92972393214535 2.4158593976887914 12.538208652341382)"><path d="M1.21 0 L3.62 0 L4.83 1.21 L4.83 23.87 L3.62 25.08 L0.3 24.77 L0 23.87 L0 1.21 L1.21 0" stroke="none" stroke-width="0" fill="#7950f2"></path><path d="M1.21 0 M1.21 0 C1.75 0, 2.3 0, 3.62 0 M1.21 0 C1.83 0, 2.45 0, 3.62 0 M3.62 0 C4.43 0, 4.83 0.4, 4.83 1.21 M3.62 0 C4.43 0, 4.83 0.4, 4.83 1.21 M4.83 1.21 C4.83 5.82, 4.83 10.43, 4.83 23.87 M4.83 1.21 C4.83 8.67, 4.83 16.13, 4.83 23.87 M4.83 23.87 C4.83 24.67, 4.43 25.08, 3.62 25.08 M4.83 23.87 C4.83 24.67, 4.43 25.08, 3.62 25.08 M3.62 25.08 C2.89 25.08, 2.16 25.08, 1.21 25.08 M3.62 25.08 C2.68 25.08, 1.74 25.08, 1.21 25.08 M1.21 25.08 C0.4 25.08, 0 24.67, 0 23.87 M1.21 25.08 C0.4 25.08, 0 24.67, 0 23.87 M0 23.87 C0 17.77, 0 11.68, 0 1.21 M0 23.87 C0 16.78, 0 9.69, 0 1.21 M0 1.21 C0 0.4, 0.4 0, 1.21 0 M0 1.21 C0 0.4, 0.4 0, 1.21 0" stroke="transparent" stroke-width="1" fill="none"></path></g><g stroke-linecap="round" transform="translate(269.0113329843459 256.98638518419284) rotate(40.41727686562419 2.4158593976887914 15.89129742897876)"><path d="M1.21 0 L3.62 0 L4.83 1.21 L4.83 30.57 L3.62 31.78 L0.3 31.48 L0 30.57 L0 1.21 L1.21 0" stroke="none" stroke-width="0" fill="#7950f2"></path><path d="M1.21 0 M1.21 0 C2.08 0, 2.96 0, 3.62 0 M1.21 0 C1.99 0, 2.78 0, 3.62 0 M3.62 0 C4.43 0, 4.83 0.4, 4.83 1.21 M3.62 0 C4.43 0, 4.83 0.4, 4.83 1.21 M4.83 1.21 C4.83 10.78, 4.83 20.35, 4.83 30.57 M4.83 1.21 C4.83 11.7, 4.83 22.18, 4.83 30.57 M4.83 30.57 C4.83 31.38, 4.43 31.78, 3.62 31.78 M4.83 30.57 C4.83 31.38, 4.43 31.78, 3.62 31.78 M3.62 31.78 C3.04 31.78, 2.46 31.78, 1.21 31.78 M3.62 31.78 C2.99 31.78, 2.35 31.78, 1.21 31.78 M1.21 31.78 C0.4 31.78, 0 31.38, 0 30.57 M1.21 31.78 C0.4 31.78, 0 31.38, 0 30.57 M0 30.57 C0 24.35, 0 18.13, 0 1.21 M0 30.57 C0 19.22, 0 7.86, 0 1.21 M0 1.21 C0 0.4, 0.4 0, 1.21 0 M0 1.21 C0 0.4, 0.4 0, 1.21 0" stroke="transparent" stroke-width="1" fill="none"></path></g><g stroke-linecap="round" transform="translate(274.55244808712837 268.88284925920925) rotate(139.22073182693399 2.4158593976887914 9.070699652206258)"><path d="M1.21 0 L3.62 0 L4.83 1.21 L4.83 16.93 L3.62 18.14 L0.3 17.84 L0 16.93 L0 1.21 L1.21 0" stroke="none" stroke-width="0" fill="#7950f2"></path><path d="M1.21 0 M1.21 0 C1.84 0, 2.48 0, 3.62 0 M1.21 0 C1.99 0, 2.78 0, 3.62 0 M3.62 0 C4.43 0, 4.83 0.4, 4.83 1.21 M3.62 0 C4.43 0, 4.83 0.4, 4.83 1.21 M4.83 1.21 C4.83 4.36, 4.83 7.51, 4.83 16.93 M4.83 1.21 C4.83 5.42, 4.83 9.63, 4.83 16.93 M4.83 16.93 C4.83 17.74, 4.43 18.14, 3.62 18.14 M4.83 16.93 C4.83 17.74, 4.43 18.14, 3.62 18.14 M3.62 18.14 C3.07 18.14, 2.52 18.14, 1.21 18.14 M3.62 18.14 C2.69 18.14, 1.77 18.14, 1.21 18.14 M1.21 18.14 C0.4 18.14, 0 17.74, 0 16.93 M1.21 18.14 C0.4 18.14, 0 17.74, 0 16.93 M0 16.93 C0 11.6, 0 6.26, 0 1.21 M0 16.93 C0 12.16, 0 7.38, 0 1.21 M0 1.21 C0 0.4, 0.4 0, 1.21 0 M0 1.21 C0 0.4, 0.4 0, 1.21 0" stroke="transparent" stroke-width="1" fill="none"></path></g><g stroke-linecap="round" transform="translate(259.4557112828718 258.93578280645215) rotate(358.1310915065084 2.697313111977678 2.9297498221230853)"><path d="M5.39 2.93 C5.39 3.1, 5.38 3.27, 5.35 3.44 C5.33 3.61, 5.29 3.77, 5.23 3.93 C5.18 4.09, 5.11 4.25, 5.03 4.39 C4.96 4.54, 4.86 4.68, 4.76 4.81 C4.66 4.94, 4.55 5.07, 4.43 5.17 C4.31 5.28, 4.18 5.38, 4.05 5.47 C3.91 5.55, 3.77 5.62, 3.62 5.68 C3.47 5.74, 3.32 5.79, 3.17 5.81 C3.01 5.84, 2.85 5.86, 2.7 5.86 C2.54 5.86, 2.38 5.84, 2.23 5.81 C2.08 5.79, 1.92 5.74, 1.77 5.68 C1.63 5.62, 1.48 5.55, 1.35 5.47 C1.21 5.38, 1.08 5.28, 0.96 5.17 C0.84 5.07, 0.73 4.94, 0.63 4.81 C0.53 4.68, 0.44 4.54, 0.36 4.39 C0.28 4.25, 0.22 4.09, 0.16 3.93 C0.11 3.77, 0.07 3.61, 0.04 3.44 C0.01 3.27, 0 3.1, 0 2.93 C0 2.76, 0.01 2.59, 0.04 2.42 C0.07 2.25, 0.11 2.09, 0.16 1.93 C0.22 1.77, 0.28 1.61, 0.36 1.46 C0.44 1.32, 0.53 1.18, 0.63 1.05 C0.73 0.92, 0.84 0.79, 0.96 0.69 C1.08 0.58, 1.21 0.48, 1.35 0.39 C1.48 0.31, 1.63 0.23, 1.77 0.18 C1.92 0.12, 2.08 0.07, 2.23 0.04 C2.38 0.02, 2.54 0, 2.7 0 C2.85 0, 3.01 0.02, 3.17 0.04 C3.32 0.07, 3.47 0.12, 3.62 0.18 C3.77 0.23, 3.91 0.31, 4.05 0.39 C4.18 0.48, 4.31 0.58, 4.43 0.69 C4.55 0.79, 4.66 0.92, 4.76 1.05 C4.86 1.18, 4.96 1.32, 5.03 1.46 C5.11 1.61, 5.18 1.77, 5.23 1.93 C5.29 2.09, 5.33 2.25, 5.35 2.42 C5.38 2.59, 5.39 2.84, 5.39 2.93 C5.4 3.01, 5.4 2.84, 5.39 2.93" stroke="none" stroke-width="0" fill="#7950f2"></path><path d="M5.39 2.93 C5.39 3.1, 5.38 3.27, 5.35 3.44 C5.33 3.61, 5.29 3.77, 5.23 3.93 C5.18 4.09, 5.11 4.25, 5.03 4.39 C4.96 4.54, 4.86 4.68, 4.76 4.81 C4.66 4.94, 4.55 5.07, 4.43 5.17 C4.31 5.28, 4.18 5.38, 4.05 5.47 C3.91 5.55, 3.77 5.62, 3.62 5.68 C3.47 5.74, 3.32 5.79, 3.17 5.81 C3.01 5.84, 2.85 5.86, 2.7 5.86 C2.54 5.86, 2.38 5.84, 2.23 5.81 C2.08 5.79, 1.92 5.74, 1.77 5.68 C1.63 5.62, 1.48 5.55, 1.35 5.47 C1.21 5.38, 1.08 5.28, 0.96 5.17 C0.84 5.07, 0.73 4.94, 0.63 4.81 C0.53 4.68, 0.44 4.54, 0.36 4.39 C0.28 4.25, 0.22 4.09, 0.16 3.93 C0.11 3.77, 0.07 3.61, 0.04 3.44 C0.01 3.27, 0 3.1, 0 2.93 C0 2.76, 0.01 2.59, 0.04 2.42 C0.07 2.25, 0.11 2.09, 0.16 1.93 C0.22 1.77, 0.28 1.61, 0.36 1.46 C0.44 1.32, 0.53 1.18, 0.63 1.05 C0.73 0.92, 0.84 0.79, 0.96 0.69 C1.08 0.58, 1.21 0.48, 1.35 0.39 C1.48 0.31, 1.63 0.23, 1.77 0.18 C1.92 0.12, 2.08 0.07, 2.23 0.04 C2.38 0.02, 2.54 0, 2.7 0 C2.85 0, 3.01 0.02, 3.17 0.04 C3.32 0.07, 3.47 0.12, 3.62 0.18 C3.77 0.23, 3.91 0.31, 4.05 0.39 C4.18 0.48, 4.31 0.58, 4.43 0.69 C4.55 0.79, 4.66 0.92, 4.76 1.05 C4.86 1.18, 4.96 1.32, 5.03 1.46 C5.11 1.61, 5.18 1.77, 5.23 1.93 C5.29 2.09, 5.33 2.25, 5.35 2.42 C5.38 2.59, 5.39 2.84, 5.39 2.93 C5.4 3.01, 5.4 2.84, 5.39 2.93" stroke="#5f3dc4" stroke-width="1" fill="none"></path></g><g stroke-linecap="round" transform="translate(260.0716187000173 279.611464743889) rotate(358.1310915065084 2.697313111977678 2.9297498221230853)"><path d="M5.39 2.93 C5.39 3.1, 5.38 3.27, 5.35 3.44 C5.33 3.61, 5.29 3.77, 5.23 3.93 C5.18 4.09, 5.11 4.25, 5.03 4.39 C4.96 4.54, 4.86 4.68, 4.76 4.81 C4.66 4.94, 4.55 5.07, 4.43 5.17 C4.31 5.28, 4.18 5.38, 4.05 5.47 C3.91 5.55, 3.77 5.62, 3.62 5.68 C3.47 5.74, 3.32 5.79, 3.17 5.81 C3.01 5.84, 2.85 5.86, 2.7 5.86 C2.54 5.86, 2.38 5.84, 2.23 5.81 C2.08 5.79, 1.92 5.74, 1.77 5.68 C1.63 5.62, 1.48 5.55, 1.35 5.47 C1.21 5.38, 1.08 5.28, 0.96 5.17 C0.84 5.07, 0.73 4.94, 0.63 4.81 C0.53 4.68, 0.44 4.54, 0.36 4.39 C0.28 4.25, 0.22 4.09, 0.16 3.93 C0.11 3.77, 0.07 3.61, 0.04 3.44 C0.01 3.27, 0 3.1, 0 2.93 C0 2.76, 0.01 2.59, 0.04 2.42 C0.07 2.25, 0.11 2.09, 0.16 1.93 C0.22 1.77, 0.28 1.61, 0.36 1.46 C0.44 1.32, 0.53 1.18, 0.63 1.05 C0.73 0.92, 0.84 0.79, 0.96 0.69 C1.08 0.58, 1.21 0.48, 1.35 0.39 C1.48 0.31, 1.63 0.23, 1.77 0.18 C1.92 0.12, 2.08 0.07, 2.23 0.04 C2.38 0.02, 2.54 0, 2.7 0 C2.85 0, 3.01 0.02, 3.17 0.04 C3.32 0.07, 3.47 0.12, 3.62 0.18 C3.77 0.23, 3.91 0.31, 4.05 0.39 C4.18 0.48, 4.31 0.58, 4.43 0.69 C4.55 0.79, 4.66 0.92, 4.76 1.05 C4.86 1.18, 4.96 1.32, 5.03 1.46 C5.11 1.61, 5.18 1.77, 5.23 1.93 C5.29 2.09, 5.33 2.25, 5.35 2.42 C5.38 2.59, 5.39 2.84, 5.39 2.93 C5.4 3.01, 5.4 2.84, 5.39 2.93" stroke="none" stroke-width="0" fill="#7950f2"></path><path d="M5.39 2.93 C5.39 3.1, 5.38 3.27, 5.35 3.44 C5.33 3.61, 5.29 3.77, 5.23 3.93 C5.18 4.09, 5.11 4.25, 5.03 4.39 C4.96 4.54, 4.86 4.68, 4.76 4.81 C4.66 4.94, 4.55 5.07, 4.43 5.17 C4.31 5.28, 4.18 5.38, 4.05 5.47 C3.91 5.55, 3.77 5.62, 3.62 5.68 C3.47 5.74, 3.32 5.79, 3.17 5.81 C3.01 5.84, 2.85 5.86, 2.7 5.86 C2.54 5.86, 2.38 5.84, 2.23 5.81 C2.08 5.79, 1.92 5.74, 1.77 5.68 C1.63 5.62, 1.48 5.55, 1.35 5.47 C1.21 5.38, 1.08 5.28, 0.96 5.17 C0.84 5.07, 0.73 4.94, 0.63 4.81 C0.53 4.68, 0.44 4.54, 0.36 4.39 C0.28 4.25, 0.22 4.09, 0.16 3.93 C0.11 3.77, 0.07 3.61, 0.04 3.44 C0.01 3.27, 0 3.1, 0 2.93 C0 2.76, 0.01 2.59, 0.04 2.42 C0.07 2.25, 0.11 2.09, 0.16 1.93 C0.22 1.77, 0.28 1.61, 0.36 1.46 C0.44 1.32, 0.53 1.18, 0.63 1.05 C0.73 0.92, 0.84 0.79, 0.96 0.69 C1.08 0.58, 1.21 0.48, 1.35 0.39 C1.48 0.31, 1.63 0.23, 1.77 0.18 C1.92 0.12, 2.08 0.07, 2.23 0.04 C2.38 0.02, 2.54 0, 2.7 0 C2.85 0, 3.01 0.02, 3.17 0.04 C3.32 0.07, 3.47 0.12, 3.62 0.18 C3.77 0.23, 3.91 0.31, 4.05 0.39 C4.18 0.48, 4.31 0.58, 4.43 0.69 C4.55 0.79, 4.66 0.92, 4.76 1.05 C4.86 1.18, 4.96 1.32, 5.03 1.46 C5.11 1.61, 5.18 1.77, 5.23 1.93 C5.29 2.09, 5.33 2.25, 5.35 2.42 C5.38 2.59, 5.39 2.84, 5.39 2.93 C5.4 3.01, 5.4 2.84, 5.39 2.93" stroke="#5f3dc4" stroke-width="1" fill="none"></path></g><g stroke-linecap="round" transform="translate(269.39220294816164 270.57266742740285) rotate(358.1310915065084 2.674656192697512 2.9297498221230853)"><path d="M5.35 2.93 C5.35 3.1, 5.34 3.27, 5.31 3.44 C5.28 3.61, 5.24 3.77, 5.19 3.93 C5.14 4.09, 5.07 4.25, 4.99 4.39 C4.91 4.54, 4.82 4.68, 4.72 4.81 C4.62 4.94, 4.51 5.07, 4.39 5.17 C4.28 5.28, 4.15 5.38, 4.01 5.47 C3.88 5.55, 3.73 5.62, 3.59 5.68 C3.44 5.74, 3.29 5.79, 3.14 5.81 C2.99 5.84, 2.83 5.86, 2.67 5.86 C2.52 5.86, 2.36 5.84, 2.21 5.81 C2.06 5.79, 1.91 5.74, 1.76 5.68 C1.61 5.62, 1.47 5.55, 1.34 5.47 C1.2 5.38, 1.07 5.28, 0.96 5.17 C0.84 5.07, 0.73 4.94, 0.63 4.81 C0.53 4.68, 0.44 4.54, 0.36 4.39 C0.28 4.25, 0.21 4.09, 0.16 3.93 C0.11 3.77, 0.07 3.61, 0.04 3.44 C0.01 3.27, 0 3.1, 0 2.93 C0 2.76, 0.01 2.59, 0.04 2.42 C0.07 2.25, 0.11 2.09, 0.16 1.93 C0.21 1.77, 0.28 1.61, 0.36 1.46 C0.44 1.32, 0.53 1.18, 0.63 1.05 C0.73 0.92, 0.84 0.79, 0.96 0.69 C1.07 0.58, 1.2 0.48, 1.34 0.39 C1.47 0.31, 1.61 0.23, 1.76 0.18 C1.91 0.12, 2.06 0.07, 2.21 0.04 C2.36 0.02, 2.52 0, 2.67 0 C2.83 0, 2.99 0.02, 3.14 0.04 C3.29 0.07, 3.44 0.12, 3.59 0.18 C3.73 0.23, 3.88 0.31, 4.01 0.39 C4.15 0.48, 4.28 0.58, 4.39 0.69 C4.51 0.79, 4.62 0.92, 4.72 1.05 C4.82 1.18, 4.91 1.32, 4.99 1.46 C5.07 1.61, 5.14 1.77, 5.19 1.93 C5.24 2.09, 5.28 2.25, 5.31 2.42 C5.34 2.59, 5.34 2.84, 5.35 2.93 C5.36 3.01, 5.36 2.84, 5.35 2.93" stroke="none" stroke-width="0" fill="#7950f2"></path><path d="M5.35 2.93 C5.35 3.1, 5.34 3.27, 5.31 3.44 C5.28 3.61, 5.24 3.77, 5.19 3.93 C5.14 4.09, 5.07 4.25, 4.99 4.39 C4.91 4.54, 4.82 4.68, 4.72 4.81 C4.62 4.94, 4.51 5.07, 4.39 5.17 C4.28 5.28, 4.15 5.38, 4.01 5.47 C3.88 5.55, 3.73 5.62, 3.59 5.68 C3.44 5.74, 3.29 5.79, 3.14 5.81 C2.99 5.84, 2.83 5.86, 2.67 5.86 C2.52 5.86, 2.36 5.84, 2.21 5.81 C2.06 5.79, 1.91 5.74, 1.76 5.68 C1.61 5.62, 1.47 5.55, 1.34 5.47 C1.2 5.38, 1.07 5.28, 0.96 5.17 C0.84 5.07, 0.73 4.94, 0.63 4.81 C0.53 4.68, 0.44 4.54, 0.36 4.39 C0.28 4.25, 0.21 4.09, 0.16 3.93 C0.11 3.77, 0.07 3.61, 0.04 3.44 C0.01 3.27, 0 3.1, 0 2.93 C0 2.76, 0.01 2.59, 0.04 2.42 C0.07 2.25, 0.11 2.09, 0.16 1.93 C0.21 1.77, 0.28 1.61, 0.36 1.46 C0.44 1.32, 0.53 1.18, 0.63 1.05 C0.73 0.92, 0.84 0.79, 0.96 0.69 C1.07 0.58, 1.2 0.48, 1.34 0.39 C1.47 0.31, 1.61 0.23, 1.76 0.18 C1.91 0.12, 2.06 0.07, 2.21 0.04 C2.36 0.02, 2.52 0, 2.67 0 C2.83 0, 2.99 0.02, 3.14 0.04 C3.29 0.07, 3.44 0.12, 3.59 0.18 C3.73 0.23, 3.88 0.31, 4.01 0.39 C4.15 0.48, 4.28 0.58, 4.39 0.69 C4.51 0.79, 4.62 0.92, 4.72 1.05 C4.82 1.18, 4.91 1.32, 4.99 1.46 C5.07 1.61, 5.14 1.77, 5.19 1.93 C5.24 2.09, 5.28 2.25, 5.31 2.42 C5.34 2.59, 5.34 2.84, 5.35 2.93 C5.36 3.01, 5.36 2.84, 5.35 2.93" stroke="#5f3dc4" stroke-width="1" fill="none"></path></g><g stroke-linecap="round" transform="translate(277.82063990252914 259.4495013013566) rotate(358.1310915065084 2.697313111977678 2.9297498221230853)"><path d="M5.39 2.93 C5.39 3.1, 5.38 3.27, 5.35 3.44 C5.33 3.61, 5.29 3.77, 5.23 3.93 C5.18 4.09, 5.11 4.25, 5.03 4.39 C4.96 4.54, 4.86 4.68, 4.76 4.81 C4.66 4.94, 4.55 5.07, 4.43 5.17 C4.31 5.28, 4.18 5.38, 4.05 5.47 C3.91 5.55, 3.77 5.62, 3.62 5.68 C3.47 5.74, 3.32 5.79, 3.17 5.81 C3.01 5.84, 2.85 5.86, 2.7 5.86 C2.54 5.86, 2.38 5.84, 2.23 5.81 C2.08 5.79, 1.92 5.74, 1.77 5.68 C1.63 5.62, 1.48 5.55, 1.35 5.47 C1.21 5.38, 1.08 5.28, 0.96 5.17 C0.84 5.07, 0.73 4.94, 0.63 4.81 C0.53 4.68, 0.44 4.54, 0.36 4.39 C0.28 4.25, 0.22 4.09, 0.16 3.93 C0.11 3.77, 0.07 3.61, 0.04 3.44 C0.01 3.27, 0 3.1, 0 2.93 C0 2.76, 0.01 2.59, 0.04 2.42 C0.07 2.25, 0.11 2.09, 0.16 1.93 C0.22 1.77, 0.28 1.61, 0.36 1.46 C0.44 1.32, 0.53 1.18, 0.63 1.05 C0.73 0.92, 0.84 0.79, 0.96 0.69 C1.08 0.58, 1.21 0.48, 1.35 0.39 C1.48 0.31, 1.63 0.23, 1.77 0.18 C1.92 0.12, 2.08 0.07, 2.23 0.04 C2.38 0.02, 2.54 0, 2.7 0 C2.85 0, 3.01 0.02, 3.17 0.04 C3.32 0.07, 3.47 0.12, 3.62 0.18 C3.77 0.23, 3.91 0.31, 4.05 0.39 C4.18 0.48, 4.31 0.58, 4.43 0.69 C4.55 0.79, 4.66 0.92, 4.76 1.05 C4.86 1.18, 4.96 1.32, 5.03 1.46 C5.11 1.61, 5.18 1.77, 5.23 1.93 C5.29 2.09, 5.33 2.25, 5.35 2.42 C5.38 2.59, 5.39 2.84, 5.39 2.93 C5.4 3.01, 5.4 2.84, 5.39 2.93" stroke="none" stroke-width="0" fill="#7950f2"></path><path d="M5.39 2.93 C5.39 3.1, 5.38 3.27, 5.35 3.44 C5.33 3.61, 5.29 3.77, 5.23 3.93 C5.18 4.09, 5.11 4.25, 5.03 4.39 C4.96 4.54, 4.86 4.68, 4.76 4.81 C4.66 4.94, 4.55 5.07, 4.43 5.17 C4.31 5.28, 4.18 5.38, 4.05 5.47 C3.91 5.55, 3.77 5.62, 3.62 5.68 C3.47 5.74, 3.32 5.79, 3.17 5.81 C3.01 5.84, 2.85 5.86, 2.7 5.86 C2.54 5.86, 2.38 5.84, 2.23 5.81 C2.08 5.79, 1.92 5.74, 1.77 5.68 C1.63 5.62, 1.48 5.55, 1.35 5.47 C1.21 5.38, 1.08 5.28, 0.96 5.17 C0.84 5.07, 0.73 4.94, 0.63 4.81 C0.53 4.68, 0.44 4.54, 0.36 4.39 C0.28 4.25, 0.22 4.09, 0.16 3.93 C0.11 3.77, 0.07 3.61, 0.04 3.44 C0.01 3.27, 0 3.1, 0 2.93 C0 2.76, 0.01 2.59, 0.04 2.42 C0.07 2.25, 0.11 2.09, 0.16 1.93 C0.22 1.77, 0.28 1.61, 0.36 1.46 C0.44 1.32, 0.53 1.18, 0.63 1.05 C0.73 0.92, 0.84 0.79, 0.96 0.69 C1.08 0.58, 1.21 0.48, 1.35 0.39 C1.48 0.31, 1.63 0.23, 1.77 0.18 C1.92 0.12, 2.08 0.07, 2.23 0.04 C2.38 0.02, 2.54 0, 2.7 0 C2.85 0, 3.01 0.02, 3.17 0.04 C3.32 0.07, 3.47 0.12, 3.62 0.18 C3.77 0.23, 3.91 0.31, 4.05 0.39 C4.18 0.48, 4.31 0.58, 4.43 0.69 C4.55 0.79, 4.66 0.92, 4.76 1.05 C4.86 1.18, 4.96 1.32, 5.03 1.46 C5.11 1.61, 5.18 1.77, 5.23 1.93 C5.29 2.09, 5.33 2.25, 5.35 2.42 C5.38 2.59, 5.39 2.84, 5.39 2.93 C5.4 3.01, 5.4 2.84, 5.39 2.93" stroke="#5f3dc4" stroke-width="1" fill="none"></path></g><g stroke-linecap="round" transform="translate(279.1356353625845 280.6158700545666) rotate(358.1310915065084 2.697313111977678 2.9297498221230853)"><path d="M5.39 2.93 C5.39 3.1, 5.38 3.27, 5.35 3.44 C5.33 3.61, 5.29 3.77, 5.23 3.93 C5.18 4.09, 5.11 4.25, 5.03 4.39 C4.96 4.54, 4.86 4.68, 4.76 4.81 C4.66 4.94, 4.55 5.07, 4.43 5.17 C4.31 5.28, 4.18 5.38, 4.05 5.47 C3.91 5.55, 3.77 5.62, 3.62 5.68 C3.47 5.74, 3.32 5.79, 3.17 5.81 C3.01 5.84, 2.85 5.86, 2.7 5.86 C2.54 5.86, 2.38 5.84, 2.23 5.81 C2.08 5.79, 1.92 5.74, 1.77 5.68 C1.63 5.62, 1.48 5.55, 1.35 5.47 C1.21 5.38, 1.08 5.28, 0.96 5.17 C0.84 5.07, 0.73 4.94, 0.63 4.81 C0.53 4.68, 0.44 4.54, 0.36 4.39 C0.28 4.25, 0.22 4.09, 0.16 3.93 C0.11 3.77, 0.07 3.61, 0.04 3.44 C0.01 3.27, 0 3.1, 0 2.93 C0 2.76, 0.01 2.59, 0.04 2.42 C0.07 2.25, 0.11 2.09, 0.16 1.93 C0.22 1.77, 0.28 1.61, 0.36 1.46 C0.44 1.32, 0.53 1.18, 0.63 1.05 C0.73 0.92, 0.84 0.79, 0.96 0.69 C1.08 0.58, 1.21 0.48, 1.35 0.39 C1.48 0.31, 1.63 0.23, 1.77 0.18 C1.92 0.12, 2.08 0.07, 2.23 0.04 C2.38 0.02, 2.54 0, 2.7 0 C2.85 0, 3.01 0.02, 3.17 0.04 C3.32 0.07, 3.47 0.12, 3.62 0.18 C3.77 0.23, 3.91 0.31, 4.05 0.39 C4.18 0.48, 4.31 0.58, 4.43 0.69 C4.55 0.79, 4.66 0.92, 4.76 1.05 C4.86 1.18, 4.96 1.32, 5.03 1.46 C5.11 1.61, 5.18 1.77, 5.23 1.93 C5.29 2.09, 5.33 2.25, 5.35 2.42 C5.38 2.59, 5.39 2.84, 5.39 2.93 C5.4 3.01, 5.4 2.84, 5.39 2.93" stroke="none" stroke-width="0" fill="#7950f2"></path><path d="M5.39 2.93 C5.39 3.1, 5.38 3.27, 5.35 3.44 C5.33 3.61, 5.29 3.77, 5.23 3.93 C5.18 4.09, 5.11 4.25, 5.03 4.39 C4.96 4.54, 4.86 4.68, 4.76 4.81 C4.66 4.94, 4.55 5.07, 4.43 5.17 C4.31 5.28, 4.18 5.38, 4.05 5.47 C3.91 5.55, 3.77 5.62, 3.62 5.68 C3.47 5.74, 3.32 5.79, 3.17 5.81 C3.01 5.84, 2.85 5.86, 2.7 5.86 C2.54 5.86, 2.38 5.84, 2.23 5.81 C2.08 5.79, 1.92 5.74, 1.77 5.68 C1.63 5.62, 1.48 5.55, 1.35 5.47 C1.21 5.38, 1.08 5.28, 0.96 5.17 C0.84 5.07, 0.73 4.94, 0.63 4.81 C0.53 4.68, 0.44 4.54, 0.36 4.39 C0.28 4.25, 0.22 4.09, 0.16 3.93 C0.11 3.77, 0.07 3.61, 0.04 3.44 C0.01 3.27, 0 3.1, 0 2.93 C0 2.76, 0.01 2.59, 0.04 2.42 C0.07 2.25, 0.11 2.09, 0.16 1.93 C0.22 1.77, 0.28 1.61, 0.36 1.46 C0.44 1.32, 0.53 1.18, 0.63 1.05 C0.73 0.92, 0.84 0.79, 0.96 0.69 C1.08 0.58, 1.21 0.48, 1.35 0.39 C1.48 0.31, 1.63 0.23, 1.77 0.18 C1.92 0.12, 2.08 0.07, 2.23 0.04 C2.38 0.02, 2.54 0, 2.7 0 C2.85 0, 3.01 0.02, 3.17 0.04 C3.32 0.07, 3.47 0.12, 3.62 0.18 C3.77 0.23, 3.91 0.31, 4.05 0.39 C4.18 0.48, 4.31 0.58, 4.43 0.69 C4.55 0.79, 4.66 0.92, 4.76 1.05 C4.86 1.18, 4.96 1.32, 5.03 1.46 C5.11 1.61, 5.18 1.77, 5.23 1.93 C5.29 2.09, 5.33 2.25, 5.35 2.42 C5.38 2.59, 5.39 2.84, 5.39 2.93 C5.4 3.01, 5.4 2.84, 5.39 2.93" stroke="#5f3dc4" stroke-width="1" fill="none"></path></g><g stroke-linecap="round" transform="translate(259.8166610302326 259.6681069084534) rotate(358.1310915065084 2.3912762921113426 2.4798582423482003)"><path d="M4.78 2.48 C4.78 2.62, 4.77 2.77, 4.75 2.91 C4.72 3.05, 4.69 3.19, 4.64 3.33 C4.59 3.46, 4.53 3.6, 4.46 3.72 C4.39 3.84, 4.31 3.96, 4.22 4.07 C4.13 4.18, 4.03 4.29, 3.93 4.38 C3.82 4.47, 3.71 4.56, 3.59 4.63 C3.47 4.7, 3.34 4.76, 3.21 4.81 C3.08 4.86, 2.94 4.9, 2.81 4.92 C2.67 4.95, 2.53 4.96, 2.39 4.96 C2.25 4.96, 2.11 4.95, 1.98 4.92 C1.84 4.9, 1.7 4.86, 1.57 4.81 C1.44 4.76, 1.32 4.7, 1.2 4.63 C1.08 4.56, 0.96 4.47, 0.85 4.38 C0.75 4.29, 0.65 4.18, 0.56 4.07 C0.47 3.96, 0.39 3.84, 0.32 3.72 C0.25 3.6, 0.19 3.46, 0.14 3.33 C0.1 3.19, 0.06 3.05, 0.04 2.91 C0.01 2.77, 0 2.62, 0 2.48 C0 2.34, 0.01 2.19, 0.04 2.05 C0.06 1.91, 0.1 1.77, 0.14 1.63 C0.19 1.5, 0.25 1.36, 0.32 1.24 C0.39 1.12, 0.47 1, 0.56 0.89 C0.65 0.78, 0.75 0.67, 0.85 0.58 C0.96 0.49, 1.08 0.4, 1.2 0.33 C1.32 0.26, 1.44 0.2, 1.57 0.15 C1.7 0.1, 1.84 0.06, 1.98 0.04 C2.11 0.01, 2.25 0, 2.39 0 C2.53 0, 2.67 0.01, 2.81 0.04 C2.94 0.06, 3.08 0.1, 3.21 0.15 C3.34 0.2, 3.47 0.26, 3.59 0.33 C3.71 0.4, 3.82 0.49, 3.93 0.58 C4.03 0.67, 4.13 0.78, 4.22 0.89 C4.31 1, 4.39 1.12, 4.46 1.24 C4.53 1.36, 4.59 1.5, 4.64 1.63 C4.69 1.77, 4.72 1.91, 4.75 2.05 C4.77 2.19, 4.78 2.41, 4.78 2.48 C4.79 2.55, 4.79 2.41, 4.78 2.48" stroke="#fff" stroke-width="1" fill="none"></path></g><g stroke-linecap="round" transform="translate(260.3124908929392 280.3210746097848) rotate(358.1310915065084 2.3912762921113426 2.4798582423482003)"><path d="M4.78 2.48 C4.78 2.62, 4.77 2.77, 4.75 2.91 C4.72 3.05, 4.69 3.19, 4.64 3.33 C4.59 3.46, 4.53 3.6, 4.46 3.72 C4.39 3.84, 4.31 3.96, 4.22 4.07 C4.13 4.18, 4.03 4.29, 3.93 4.38 C3.82 4.47, 3.71 4.56, 3.59 4.63 C3.47 4.7, 3.34 4.76, 3.21 4.81 C3.08 4.86, 2.94 4.9, 2.81 4.92 C2.67 4.95, 2.53 4.96, 2.39 4.96 C2.25 4.96, 2.11 4.95, 1.98 4.92 C1.84 4.9, 1.7 4.86, 1.57 4.81 C1.44 4.76, 1.32 4.7, 1.2 4.63 C1.08 4.56, 0.96 4.47, 0.85 4.38 C0.75 4.29, 0.65 4.18, 0.56 4.07 C0.47 3.96, 0.39 3.84, 0.32 3.72 C0.25 3.6, 0.19 3.46, 0.14 3.33 C0.1 3.19, 0.06 3.05, 0.04 2.91 C0.01 2.77, 0 2.62, 0 2.48 C0 2.34, 0.01 2.19, 0.04 2.05 C0.06 1.91, 0.1 1.77, 0.14 1.63 C0.19 1.5, 0.25 1.36, 0.32 1.24 C0.39 1.12, 0.47 1, 0.56 0.89 C0.65 0.78, 0.75 0.67, 0.85 0.58 C0.96 0.49, 1.08 0.4, 1.2 0.33 C1.32 0.26, 1.44 0.2, 1.57 0.15 C1.7 0.1, 1.84 0.06, 1.98 0.04 C2.11 0.01, 2.25 0, 2.39 0 C2.53 0, 2.67 0.01, 2.81 0.04 C2.94 0.06, 3.08 0.1, 3.21 0.15 C3.34 0.2, 3.47 0.26, 3.59 0.33 C3.71 0.4, 3.82 0.49, 3.93 0.58 C4.03 0.67, 4.13 0.78, 4.22 0.89 C4.31 1, 4.39 1.12, 4.46 1.24 C4.53 1.36, 4.59 1.5, 4.64 1.63 C4.69 1.77, 4.72 1.91, 4.75 2.05 C4.77 2.19, 4.78 2.41, 4.78 2.48 C4.79 2.55, 4.79 2.41, 4.78 2.48" stroke="#fff" stroke-width="1" fill="none"></path></g><g stroke-linecap="round" transform="translate(269.6510817334299 270.87525988170455) rotate(358.1310915065084 2.3880656507171807 2.418767242184913)"><path d="M4.78 2.42 C4.78 2.56, 4.76 2.7, 4.74 2.84 C4.72 2.98, 4.68 3.11, 4.63 3.25 C4.58 3.38, 4.53 3.51, 4.46 3.63 C4.39 3.75, 4.31 3.87, 4.22 3.97 C4.13 4.08, 4.03 4.18, 3.92 4.27 C3.82 4.36, 3.7 4.44, 3.58 4.51 C3.46 4.58, 3.33 4.64, 3.2 4.69 C3.07 4.74, 2.94 4.78, 2.8 4.8 C2.67 4.83, 2.53 4.84, 2.39 4.84 C2.25 4.84, 2.11 4.83, 1.97 4.8 C1.84 4.78, 1.7 4.74, 1.57 4.69 C1.44 4.64, 1.31 4.58, 1.19 4.51 C1.07 4.44, 0.96 4.36, 0.85 4.27 C0.75 4.18, 0.65 4.08, 0.56 3.97 C0.47 3.87, 0.39 3.75, 0.32 3.63 C0.25 3.51, 0.19 3.38, 0.14 3.25 C0.1 3.11, 0.06 2.98, 0.04 2.84 C0.01 2.7, 0 2.56, 0 2.42 C0 2.28, 0.01 2.14, 0.04 2 C0.06 1.86, 0.1 1.72, 0.14 1.59 C0.19 1.46, 0.25 1.33, 0.32 1.21 C0.39 1.09, 0.47 0.97, 0.56 0.86 C0.65 0.76, 0.75 0.66, 0.85 0.57 C0.96 0.48, 1.07 0.39, 1.19 0.32 C1.31 0.25, 1.44 0.19, 1.57 0.15 C1.7 0.1, 1.84 0.06, 1.97 0.04 C2.11 0.01, 2.25 0, 2.39 0 C2.53 0, 2.67 0.01, 2.8 0.04 C2.94 0.06, 3.07 0.1, 3.2 0.15 C3.33 0.19, 3.46 0.25, 3.58 0.32 C3.7 0.39, 3.82 0.48, 3.92 0.57 C4.03 0.66, 4.13 0.76, 4.22 0.86 C4.31 0.97, 4.39 1.09, 4.46 1.21 C4.53 1.33, 4.58 1.46, 4.63 1.59 C4.68 1.72, 4.72 1.86, 4.74 2 C4.76 2.14, 4.77 2.35, 4.78 2.42 C4.78 2.49, 4.78 2.35, 4.78 2.42" stroke="#fff" stroke-width="1" fill="none"></path></g><g stroke-linecap="round" transform="translate(278.3398379550156 260.02978442793756) rotate(358.1310915065084 2.1320424628512455 2.418767242184913)"><path d="M4.26 2.42 C4.26 2.56, 4.25 2.7, 4.23 2.84 C4.21 2.98, 4.18 3.11, 4.14 3.25 C4.09 3.38, 4.04 3.51, 3.98 3.63 C3.92 3.75, 3.84 3.87, 3.77 3.97 C3.69 4.08, 3.6 4.18, 3.5 4.27 C3.41 4.36, 3.3 4.44, 3.2 4.51 C3.09 4.58, 2.98 4.64, 2.86 4.69 C2.75 4.74, 2.62 4.78, 2.5 4.8 C2.38 4.83, 2.26 4.84, 2.13 4.84 C2.01 4.84, 1.88 4.83, 1.76 4.8 C1.64 4.78, 1.52 4.74, 1.4 4.69 C1.29 4.64, 1.17 4.58, 1.07 4.51 C0.96 4.44, 0.86 4.36, 0.76 4.27 C0.67 4.18, 0.58 4.08, 0.5 3.97 C0.42 3.87, 0.35 3.75, 0.29 3.63 C0.22 3.51, 0.17 3.38, 0.13 3.25 C0.09 3.11, 0.05 2.98, 0.03 2.84 C0.01 2.7, 0 2.56, 0 2.42 C0 2.28, 0.01 2.14, 0.03 2 C0.05 1.86, 0.09 1.72, 0.13 1.59 C0.17 1.46, 0.22 1.33, 0.29 1.21 C0.35 1.09, 0.42 0.97, 0.5 0.86 C0.58 0.76, 0.67 0.66, 0.76 0.57 C0.86 0.48, 0.96 0.39, 1.07 0.32 C1.17 0.25, 1.29 0.19, 1.4 0.15 C1.52 0.1, 1.64 0.06, 1.76 0.04 C1.88 0.01, 2.01 0, 2.13 0 C2.26 0, 2.38 0.01, 2.5 0.04 C2.62 0.06, 2.75 0.1, 2.86 0.15 C2.98 0.19, 3.09 0.25, 3.2 0.32 C3.3 0.39, 3.41 0.48, 3.5 0.57 C3.6 0.66, 3.69 0.76, 3.77 0.86 C3.84 0.97, 3.92 1.09, 3.98 1.21 C4.04 1.33, 4.09 1.46, 4.14 1.59 C4.18 1.72, 4.21 1.86, 4.23 2 C4.25 2.14, 4.26 2.35, 4.26 2.42 C4.27 2.49, 4.27 2.35, 4.26 2.42" stroke="#fff" stroke-width="1" fill="none"></path></g><g stroke-linecap="round" transform="translate(279.959110180838 281.06591075896085) rotate(358.1310915065084 1.886111902664652 2.418767242184913)"><path d="M3.77 2.42 C3.77 2.56, 3.76 2.7, 3.74 2.84 C3.72 2.98, 3.7 3.11, 3.66 3.25 C3.62 3.38, 3.57 3.51, 3.52 3.63 C3.46 3.75, 3.4 3.87, 3.33 3.97 C3.26 4.08, 3.18 4.18, 3.1 4.27 C3.01 4.36, 2.92 4.44, 2.83 4.51 C2.73 4.58, 2.63 4.64, 2.53 4.69 C2.43 4.74, 2.32 4.78, 2.21 4.8 C2.11 4.83, 2 4.84, 1.89 4.84 C1.78 4.84, 1.67 4.83, 1.56 4.8 C1.45 4.78, 1.34 4.74, 1.24 4.69 C1.14 4.64, 1.04 4.58, 0.94 4.51 C0.85 4.44, 0.76 4.36, 0.67 4.27 C0.59 4.18, 0.51 4.08, 0.44 3.97 C0.37 3.87, 0.31 3.75, 0.25 3.63 C0.2 3.51, 0.15 3.38, 0.11 3.25 C0.08 3.11, 0.05 2.98, 0.03 2.84 C0.01 2.7, 0 2.56, 0 2.42 C0 2.28, 0.01 2.14, 0.03 2 C0.05 1.86, 0.08 1.72, 0.11 1.59 C0.15 1.46, 0.2 1.33, 0.25 1.21 C0.31 1.09, 0.37 0.97, 0.44 0.86 C0.51 0.76, 0.59 0.66, 0.67 0.57 C0.76 0.48, 0.85 0.39, 0.94 0.32 C1.04 0.25, 1.14 0.19, 1.24 0.15 C1.34 0.1, 1.45 0.06, 1.56 0.04 C1.67 0.01, 1.78 0, 1.89 0 C2 0, 2.11 0.01, 2.21 0.04 C2.32 0.06, 2.43 0.1, 2.53 0.15 C2.63 0.19, 2.73 0.25, 2.83 0.32 C2.92 0.39, 3.01 0.48, 3.1 0.57 C3.18 0.66, 3.26 0.76, 3.33 0.86 C3.4 0.97, 3.46 1.09, 3.52 1.21 C3.57 1.33, 3.62 1.46, 3.66 1.59 C3.7 1.72, 3.72 1.86, 3.74 2 C3.76 2.14, 3.77 2.35, 3.77 2.42 C3.78 2.49, 3.78 2.35, 3.77 2.42" stroke="#fff" stroke-width="1" fill="none"></path></g><g stroke-opacity="0.9" fill-opacity="0.9" stroke-linecap="round" transform="translate(78.81860137484728 298.09092357703776) rotate(0 17.015983866026772 21.560653824276415)"><path d="M8.51 0 L29.25 0.53 L31.9 2.13 L33.5 4.79 L34.03 34.61 L33.5 38.34 L31.9 40.99 L29.25 42.59 L25.52 43.12 L4.79 42.59 L2.13 40.99 L0.53 38.34 L0 34.61 L0.53 4.79 L2.13 2.13 L4.79 0.53 L8.51 0" stroke="none" stroke-width="0" fill="#fab005"></path><path d="M8.51 0 M8.51 0 C12.37 0, 16.24 0, 25.52 0 M8.51 0 C13.02 0, 17.53 0, 25.52 0 M25.52 0 C31.2 0, 34.03 2.84, 34.03 8.51 M25.52 0 C31.2 0, 34.03 2.84, 34.03 8.51 M34.03 8.51 C34.03 15.57, 34.03 22.62, 34.03 34.61 M34.03 8.51 C34.03 16.85, 34.03 25.18, 34.03 34.61 M34.03 34.61 C34.03 40.29, 31.2 43.12, 25.52 43.12 M34.03 34.61 C34.03 40.29, 31.2 43.12, 25.52 43.12 M25.52 43.12 C20.38 43.12, 15.23 43.12, 8.51 43.12 M25.52 43.12 C20.11 43.12, 14.69 43.12, 8.51 43.12 M8.51 43.12 C2.84 43.12, 0 40.29, 0 34.61 M8.51 43.12 C2.84 43.12, 0 40.29, 0 34.61 M0 34.61 C0 26.23, 0 17.85, 0 8.51 M0 34.61 C0 25.64, 0 16.67, 0 8.51 M0 8.51 C0 2.84, 2.84 0, 8.51 0 M0 8.51 C0 2.84, 2.84 0, 8.51 0" stroke="#000000" stroke-width="1" fill="none"></path></g><g stroke-opacity="0.9" fill-opacity="0.9" transform="translate(86.03801480637094 313.1489324493441) rotate(0 9.550490325031888 6.411454492890243)"><text x="9.55049032503197" y="0" font-family="Virgil, Segoe UI Emoji" font-size="10.258327188624651px" fill="#000000" text-anchor="middle" style="white-space: pre;" direction="ltr" dominant-baseline="text-before-edge">API</text></g><g stroke-opacity="0.9" fill-opacity="0.9" stroke-linecap="round" transform="translate(45.710097040856 99.13981486969442) rotate(0 48.29702441677409 43.839910093461185)"><path d="M21.92 0 L79.81 0.34 L88.03 3.08 L91.11 5.48 L95.22 12.33 L96.59 21.92 L96.25 70.9 L93.51 79.12 L91.11 82.2 L84.26 86.31 L74.67 87.68 L16.78 87.34 L8.56 84.6 L5.48 82.2 L3.08 79.12 L0.34 70.9 L0.34 16.78 L3.08 8.56 L8.56 3.08 L12.33 1.37 L21.92 0" stroke="none" stroke-width="0" fill="#fab005"></path><path d="M21.92 0 M21.92 0 C35.83 0, 49.74 0, 74.67 0 M21.92 0 C37.41 0, 52.9 0, 74.67 0 M74.67 0 C89.29 0, 96.59 7.31, 96.59 21.92 M74.67 0 C89.29 0, 96.59 7.31, 96.59 21.92 M96.59 21.92 C96.59 38.87, 96.59 55.82, 96.59 65.76 M96.59 21.92 C96.59 35, 96.59 48.08, 96.59 65.76 M96.59 65.76 C96.59 80.37, 89.29 87.68, 74.67 87.68 M96.59 65.76 C96.59 80.37, 89.29 87.68, 74.67 87.68 M74.67 87.68 C57.45 87.68, 40.23 87.68, 21.92 87.68 M74.67 87.68 C54.78 87.68, 34.88 87.68, 21.92 87.68 M21.92 87.68 C7.31 87.68, 0 80.37, 0 65.76 M21.92 87.68 C7.31 87.68, 0 80.37, 0 65.76 M0 65.76 C0 48.99, 0 32.23, 0 21.92 M0 65.76 C0 48.27, 0 30.78, 0 21.92 M0 21.92 C0 7.31, 7.31 0, 21.92 0 M0 21.92 C0 7.31, 7.31 0, 21.92 0" stroke="#000000" stroke-width="1" fill="none"></path></g><g transform="translate(79.11114062266915 132.9797249631556) rotate(0 14.895980834960938 10)"><text x="14.895980834960938" y="0" font-family="Virgil, Segoe UI Emoji" font-size="16px" fill="#000000" text-anchor="middle" style="white-space: pre;" direction="ltr" dominant-baseline="text-before-edge">API</text></g><g stroke-opacity="0.9" fill-opacity="0.9" stroke-linecap="round" transform="translate(259.5165687094195 299.81384974257435) rotate(0 17.015983866026772 21.560653824276415)"><path d="M8.51 0 L29.25 0.53 L31.9 2.13 L33.5 4.79 L34.03 34.61 L33.5 38.34 L31.9 40.99 L29.25 42.59 L25.52 43.12 L4.79 42.59 L2.13 40.99 L0.53 38.34 L0 34.61 L0.53 4.79 L2.13 2.13 L4.79 0.53 L8.51 0" stroke="none" stroke-width="0" fill="#fab005"></path><path d="M8.51 0 M8.51 0 C12.38 0, 16.25 0, 25.52 0 M8.51 0 C15.05 0, 21.6 0, 25.52 0 M25.52 0 C31.2 0, 34.03 2.84, 34.03 8.51 M25.52 0 C31.2 0, 34.03 2.84, 34.03 8.51 M34.03 8.51 C34.03 17.37, 34.03 26.23, 34.03 34.61 M34.03 8.51 C34.03 16.44, 34.03 24.36, 34.03 34.61 M34.03 34.61 C34.03 40.29, 31.2 43.12, 25.52 43.12 M34.03 34.61 C34.03 40.29, 31.2 43.12, 25.52 43.12 M25.52 43.12 C21.72 43.12, 17.92 43.12, 8.51 43.12 M25.52 43.12 C19.63 43.12, 13.73 43.12, 8.51 43.12 M8.51 43.12 C2.84 43.12, 0 40.29, 0 34.61 M8.51 43.12 C2.84 43.12, 0 40.29, 0 34.61 M0 34.61 C0 29.36, 0 24.11, 0 8.51 M0 34.61 C0 25.82, 0 17.02, 0 8.51 M0 8.51 C0 2.84, 2.84 0, 8.51 0 M0 8.51 C0 2.84, 2.84 0, 8.51 0" stroke="#000000" stroke-width="1" fill="none"></path></g><g stroke-opacity="0.9" fill-opacity="0.9" transform="translate(266.7359821409432 314.8718586148798) rotate(0 9.550490325032001 6.411454492890243)"><text x="9.55049032503197" y="0" font-family="Virgil, Segoe UI Emoji" font-size="10.258327188624651px" fill="#000000" text-anchor="middle" style="white-space: pre;" direction="ltr" dominant-baseline="text-before-edge">API</text></g></svg>
