<svg version="1.1" xmlns="http://www.w3.org/2000/svg" viewBox="0 0 746.984433170976 471.7658258973106">
  <!-- svg-source:excalidraw -->

  <defs>
    <style class="style-fonts">
      @font-face {
        font-family: "Virgil";
        src: url("https://excalidraw.com/Virgil.woff2");
      }
      @font-face {
        font-family: "Cascadia";
        src: url("https://excalidraw.com/Cascadia.woff2");
      }
    </style>
  </defs>
  <rect x="0" y="0" width="746.984433170976" height="471.7658258973106" fill="#ffffff"></rect><g mask="url(#mask-H358l91yijE7Uo4H0_sNQ)" stroke-linecap="round"><g transform="translate(94.60029352485094 243.16095360996678) rotate(0 113.07731245343825 -0.5782047938341748)"><path d="M0 0 C37.69 -0.19, 188.46 -0.96, 226.15 -1.16 M0 0 C37.69 -0.19, 188.46 -0.96, 226.15 -1.16" stroke="#000000" stroke-width="1" fill="none"></path></g><g transform="translate(94.60029352485094 243.16095360996678) rotate(0 113.07731245343825 -0.5782047938341748)"><path d="M226.15 -1.16 L212.59 5.25 L212.53 -7.43 L226.15 -1.16" stroke="none" stroke-width="0" fill="#000000" fill-rule="evenodd"></path><path d="M226.15 -1.16 C222.97 0.35, 219.79 1.85, 212.59 5.25 M226.15 -1.16 C221.22 1.18, 216.28 3.51, 212.59 5.25 M212.59 5.25 C212.58 2.14, 212.56 -0.98, 212.53 -7.43 M212.59 5.25 C212.58 2.04, 212.56 -1.17, 212.53 -7.43 M212.53 -7.43 C216.85 -5.44, 221.16 -3.45, 226.15 -1.16 M212.53 -7.43 C216.57 -5.57, 220.61 -3.71, 226.15 -1.16 M226.15 -1.16 C226.15 -1.16, 226.15 -1.16, 226.15 -1.16 M226.15 -1.16 C226.15 -1.16, 226.15 -1.16, 226.15 -1.16" stroke="#000000" stroke-width="1" fill="none"></path></g></g><mask id="mask-H358l91yijE7Uo4H0_sNQ"><rect x="0" y="0" fill="#fff" width="420.75491843172745" height="344.3173631976353"></rect><rect x="131.63765846852357" y="222.58274881613215" fill="#000" width="152.07989501953125" height="40" opacity="1"></rect></mask><g transform="translate(131.63765846852357 222.58274881613306) rotate(0 76.03994750976562 19.999999999999545)"><text x="76.03994750976562" y="0" font-family="Virgil, Segoe UI Emoji" font-size="16px" fill="#000000" text-anchor="middle" style="white-space: pre;" direction="ltr" dominant-baseline="text-before-edge">install EasyApp </text><text x="76.03994750976562" y="20" font-family="Virgil, Segoe UI Emoji" font-size="16px" fill="#000000" text-anchor="middle" style="white-space: pre;" direction="ltr" dominant-baseline="text-before-edge">promise</text></g><g stroke-linecap="round" transform="translate(36.22887865506482 193.06553296255606) rotate(0 15.733984669645793 15.65994634762228)"><path d="M3.55 4.41 C3.55 4.41, 3.55 4.41, 3.55 4.41 M3.55 4.41 C3.55 4.41, 3.55 4.41, 3.55 4.41 M0.85 15.73 C3.05 7.33, 9.43 4.98, 10.72 -0.84 M-0.51 15.19 C3.07 10.03, 5.82 7.93, 11.8 0.21 M1.56 18.62 C4.22 15.3, 9.6 7.66, 18.79 1.94 M1.58 17.74 C4.48 13.8, 9.65 9.96, 17.08 1.54 M4.61 24.26 C6.51 17.02, 13.39 11.32, 19.07 3.42 M2.79 22.67 C8.97 15.5, 15.46 8.42, 20.61 4.11 M4.89 28.93 C13.8 16.89, 22.48 10.76, 26.4 3.89 M4.98 27.2 C12.95 19.61, 19.86 10.58, 26 4 M10.79 28.58 C16.89 20.47, 22.08 13.22, 26.7 7.71 M8.21 28.88 C15.6 20.29, 22.78 12.31, 27.93 6.83 M13.78 30.37 C21.04 21.36, 27.23 15.69, 32.12 11.01 M12.5 31.27 C17.44 25.38, 22.52 18.96, 30.78 10.8 M17.79 31.78 C19.8 28.17, 22.03 26.13, 32.65 12.51 M16.47 32.31 C21.38 28, 25.27 21.71, 32.45 13.69" stroke="#7950f2" stroke-width="0.5" fill="none"></path><path d="M14.41 -0.48 C17.42 -1.15, 21.71 0.82, 24.31 2.82 C26.91 4.82, 28.94 8.38, 30.02 11.51 C31.1 14.64, 31.94 18.69, 30.78 21.6 C29.63 24.51, 26.02 27.49, 23.09 28.96 C20.16 30.42, 16.5 31.02, 13.2 30.39 C9.91 29.76, 5.54 27.88, 3.34 25.17 C1.15 22.46, -0.05 17.64, 0.02 14.13 C0.1 10.62, 1.12 6.39, 3.79 4.12 C6.47 1.85, 13.56 0.94, 16.06 0.5 C18.55 0.05, 18.8 1.16, 18.78 1.44 M21.68 1.98 C24.92 3.14, 29.11 5.11, 30.5 7.9 C31.89 10.69, 30.84 15.5, 30.01 18.72 C29.19 21.95, 28.01 25.13, 25.57 27.27 C23.13 29.41, 18.99 31.79, 15.39 31.56 C11.79 31.33, 6.37 27.97, 3.98 25.9 C1.6 23.82, 1.55 22.13, 1.06 19.11 C0.56 16.09, -0.48 10.84, 1.01 7.77 C2.51 4.7, 6.5 1.53, 10.05 0.68 C13.6 -0.18, 20.5 2.3, 22.31 2.64 C24.12 2.97, 20.92 2.7, 20.91 2.68" stroke="#495057" stroke-width="1" fill="none"></path></g><g stroke-linecap="round"><g transform="translate(51.888825002686644 224.38542565780244) rotate(0 1.0720977624977195 21.94322074766069)" fill-rule="evenodd"><path d="M-10.54 0.11 C-10.54 0.11, -10.54 0.11, -10.54 0.11 M-10.54 0.11 C-10.54 0.11, -10.54 0.11, -10.54 0.11 M-15.12 10.6 C-13.4 8.93, -7.18 2.57, -4.34 -1.29 M-15.78 12.44 C-11.74 8.07, -9.84 4.22, -5.55 0.07 M-16.95 19.87 C-13.4 14.88, -6.66 6.91, 0.61 1.94 M-18.63 21.78 C-14.75 16.88, -9.31 12.35, -0.42 0.53 M-20.97 31.69 C-11.86 17.27, -0.79 6.33, 8.99 -3.65 M-21.03 30.58 C-10.91 18.28, -0.1 7.43, 8.5 -2.66 M-20.59 34.39 C-8.92 25.6, -3.12 16.64, 10.99 0.55 M-19.36 35.29 C-13.46 28.84, -7.84 20.65, 10.06 1.72 M-19.74 40.91 C-10.82 29.94, 2.7 19.25, 13.24 5 M-20.6 41.95 C-13.53 35.29, -6.16 27.65, 11.07 4.81 M-14.87 45.51 C-3.69 30.18, 8.59 14.59, 14.03 8.02 M-16.28 43.68 C-6.46 32.55, 3.32 21.14, 14.55 9.31 M-12.51 44.9 C-5.8 36.59, 5.15 25.9, 18.05 9.77 M-12.71 44.91 C-3.76 35.18, 6.12 25.36, 16.74 11.59 M-8.72 48.8 C-0.41 40.01, 5.4 30.61, 17.93 15.87 M-10.13 48.25 C0.64 37.06, 9.19 24.67, 17.92 16.65 M-6.17 50.14 C1.55 40.03, 7.31 35.08, 18.91 20.61 M-4.61 47.85 C1.4 40.71, 8.87 33.48, 19.35 19.43 M-0.01 48.8 C6.06 40.12, 13.79 35.64, 21.13 22.88 M0.49 47.41 C7.07 41.19, 12.67 34.15, 20.84 24.05 M7.02 47.51 C11.99 41.54, 18.62 31.86, 23.69 30.63 M6.6 47.25 C11.97 39.49, 19.08 33.32, 23.15 28.45 M13.74 46.57 C16.75 42.32, 17.45 40.49, 23.89 34.37 M13.5 45.61 C16.29 42.53, 20.54 38.28, 22.79 34.89" stroke="#7950f2" stroke-width="0.5" fill="none"></path><path d="M-0.3 1.09 C1.54 1.17, 7.94 -6.02, 11.34 0.77 C14.75 7.56, 25.46 35.14, 20.15 41.82 C14.85 48.51, -15.49 47.72, -20.5 40.86 C-25.5 34, -13.26 7.43, -9.87 0.66 C-6.48 -6.12, -1.67 0.11, -0.15 0.2 M1.74 0.61 C3.48 0.34, 7.38 -8.04, 10.87 -0.95 C14.36 6.15, 27.82 36.1, 22.66 43.17 C17.51 50.25, -14.43 48.46, -20.05 41.49 C-25.66 34.53, -14.58 8.43, -11.04 1.39 C-7.5 -5.65, -0.58 -0.58, 1.18 -0.74" stroke="#495057" stroke-width="1" fill="none"></path></g></g><mask></mask><g stroke-linecap="round"><g transform="translate(332.11229843265687 71.89919399605697) rotate(0 0 168.52826532908148)"><path d="M0 0 C0 56.18, 0 280.88, 0 337.06 M0 0 C0 56.18, 0 280.88, 0 337.06" stroke="#000000" stroke-width="1" fill="none"></path></g></g><mask></mask><g transform="translate(10 284.0062900187222) rotate(0 34.49181416158808 20.246447535221705)"><text x="34.49181416158808" y="0" font-family="Virgil, Segoe UI Emoji" font-size="16.197158028177277px" fill="#5f3dc4" text-anchor="middle" style="white-space: pre;" direction="ltr" dominant-baseline="text-before-edge">Platform</text><text x="34.49181416158808" y="20.2464475352216" font-family="Virgil, Segoe UI Emoji" font-size="16.197158028177277px" fill="#5f3dc4" text-anchor="middle" style="white-space: pre;" direction="ltr" dominant-baseline="text-before-edge">Engineer</text></g><g stroke-linecap="round" transform="translate(613.7421564498277 19.977069595845933) rotate(358.92972393214535 3.7680364110324263 19.555950473086796)"><path d="M1.88 0 L5.65 0 L7.07 0.47 L7.54 1.88 L7.54 37.23 L7.07 38.64 L5.65 39.11 L0.47 38.64 L0 37.23 L0 1.88 L0.47 0.47 L1.88 0" stroke="none" stroke-width="0" fill="#7950f2"></path><path d="M1.88 0 M1.88 0 C3.22 0, 4.56 0, 5.65 0 M1.88 0 C2.88 0, 3.88 0, 5.65 0 M5.65 0 C6.91 0, 7.54 0.63, 7.54 1.88 M5.65 0 C6.91 0, 7.54 0.63, 7.54 1.88 M7.54 1.88 C7.54 13.81, 7.54 25.73, 7.54 37.23 M7.54 1.88 C7.54 11.13, 7.54 20.38, 7.54 37.23 M7.54 37.23 C7.54 38.48, 6.91 39.11, 5.65 39.11 M7.54 37.23 C7.54 38.48, 6.91 39.11, 5.65 39.11 M5.65 39.11 C4.87 39.11, 4.1 39.11, 1.88 39.11 M5.65 39.11 C4.44 39.11, 3.23 39.11, 1.88 39.11 M1.88 39.11 C0.63 39.11, 0 38.48, 0 37.23 M1.88 39.11 C0.63 39.11, 0 38.48, 0 37.23 M0 37.23 C0 27.02, 0 16.82, 0 1.88 M0 37.23 C0 23.3, 0 9.37, 0 1.88 M0 1.88 C0 0.63, 0.63 0, 1.88 0 M0 1.88 C0 0.63, 0.63 0, 1.88 0" stroke="transparent" stroke-width="1" fill="none"></path></g><g stroke-linecap="round" transform="translate(627.7787958831136 14.982056672454746) rotate(40.41727686562419 3.7680364110324263 24.785791502693428)"><path d="M1.88 0 L5.65 0 L7.07 0.47 L7.54 1.88 L7.54 47.69 L7.07 49.1 L5.65 49.57 L0.47 49.1 L0 47.69 L0 1.88 L0.47 0.47 L1.88 0" stroke="none" stroke-width="0" fill="#7950f2"></path><path d="M1.88 0 M1.88 0 C2.92 0, 3.95 0, 5.65 0 M1.88 0 C2.93 0, 3.98 0, 5.65 0 M5.65 0 C6.91 0, 7.54 0.63, 7.54 1.88 M5.65 0 C6.91 0, 7.54 0.63, 7.54 1.88 M7.54 1.88 C7.54 13.41, 7.54 24.94, 7.54 47.69 M7.54 1.88 C7.54 17.62, 7.54 33.35, 7.54 47.69 M7.54 47.69 C7.54 48.94, 6.91 49.57, 5.65 49.57 M7.54 47.69 C7.54 48.94, 6.91 49.57, 5.65 49.57 M5.65 49.57 C4.65 49.57, 3.65 49.57, 1.88 49.57 M5.65 49.57 C4.35 49.57, 3.05 49.57, 1.88 49.57 M1.88 49.57 C0.63 49.57, 0 48.94, 0 47.69 M1.88 49.57 C0.63 49.57, 0 48.94, 0 47.69 M0 47.69 C0 36.33, 0 24.98, 0 1.88 M0 47.69 C0 34.3, 0 20.9, 0 1.88 M0 1.88 C0 0.63, 0.63 0, 1.88 0 M0 1.88 C0 0.63, 0.63 0, 1.88 0" stroke="transparent" stroke-width="1" fill="none"></path></g><g stroke-linecap="round" transform="translate(636.4213201479683 33.53707268046037) rotate(139.22073182693399 3.7680364110324263 14.147647249566944)"><path d="M1.88 0 L5.65 0 L7.07 0.47 L7.54 1.88 L7.54 26.41 L7.07 27.82 L5.65 28.3 L0.47 27.82 L0 26.41 L0 1.88 L0.47 0.47 L1.88 0" stroke="none" stroke-width="0" fill="#7950f2"></path><path d="M1.88 0 M1.88 0 C3 0, 4.11 0, 5.65 0 M1.88 0 C2.81 0, 3.74 0, 5.65 0 M5.65 0 C6.91 0, 7.54 0.63, 7.54 1.88 M5.65 0 C6.91 0, 7.54 0.63, 7.54 1.88 M7.54 1.88 C7.54 11.03, 7.54 20.18, 7.54 26.41 M7.54 1.88 C7.54 9.78, 7.54 17.68, 7.54 26.41 M7.54 26.41 C7.54 27.67, 6.91 28.3, 5.65 28.3 M7.54 26.41 C7.54 27.67, 6.91 28.3, 5.65 28.3 M5.65 28.3 C4.74 28.3, 3.82 28.3, 1.88 28.3 M5.65 28.3 C4.89 28.3, 4.13 28.3, 1.88 28.3 M1.88 28.3 C0.63 28.3, 0 27.67, 0 26.41 M1.88 28.3 C0.63 28.3, 0 27.67, 0 26.41 M0 26.41 C0 20.79, 0 15.17, 0 1.88 M0 26.41 C0 21.01, 0 15.6, 0 1.88 M0 1.88 C0 0.63, 0.63 0, 1.88 0 M0 1.88 C0 0.63, 0.63 0, 1.88 0" stroke="transparent" stroke-width="1" fill="none"></path></g><g stroke-linecap="round" transform="translate(612.8748115967542 18.022548692514647) rotate(358.1310915065084 4.207022158495647 4.569555668486828)"><path d="M8.41 4.57 C8.41 4.83, 8.39 5.1, 8.35 5.36 C8.31 5.62, 8.24 5.88, 8.16 6.13 C8.08 6.38, 7.97 6.63, 7.85 6.85 C7.73 7.08, 7.59 7.3, 7.43 7.51 C7.27 7.71, 7.1 7.9, 6.91 8.07 C6.72 8.24, 6.52 8.39, 6.31 8.53 C6.1 8.66, 5.87 8.77, 5.65 8.86 C5.42 8.95, 5.18 9.02, 4.94 9.07 C4.7 9.12, 4.45 9.14, 4.21 9.14 C3.96 9.14, 3.72 9.12, 3.48 9.07 C3.24 9.02, 3 8.95, 2.77 8.86 C2.54 8.77, 2.31 8.66, 2.1 8.53 C1.89 8.39, 1.69 8.24, 1.5 8.07 C1.32 7.9, 1.14 7.71, 0.98 7.51 C0.83 7.3, 0.69 7.08, 0.56 6.85 C0.44 6.63, 0.34 6.38, 0.25 6.13 C0.17 5.88, 0.11 5.62, 0.06 5.36 C0.02 5.1, 0 4.83, 0 4.57 C0 4.31, 0.02 4.04, 0.06 3.78 C0.11 3.52, 0.17 3.26, 0.25 3.01 C0.34 2.76, 0.44 2.51, 0.56 2.28 C0.69 2.06, 0.83 1.83, 0.98 1.63 C1.14 1.43, 1.32 1.24, 1.5 1.07 C1.69 0.9, 1.89 0.74, 2.1 0.61 C2.31 0.48, 2.54 0.37, 2.77 0.28 C3 0.19, 3.24 0.12, 3.48 0.07 C3.72 0.02, 3.96 0, 4.21 0 C4.45 0, 4.7 0.02, 4.94 0.07 C5.18 0.12, 5.42 0.19, 5.65 0.28 C5.87 0.37, 6.1 0.48, 6.31 0.61 C6.52 0.74, 6.72 0.9, 6.91 1.07 C7.1 1.24, 7.27 1.43, 7.43 1.63 C7.59 1.83, 7.73 2.06, 7.85 2.28 C7.97 2.51, 8.08 2.76, 8.16 3.01 C8.24 3.26, 8.31 3.52, 8.35 3.78 C8.39 4.04, 8.4 4.44, 8.41 4.57 C8.42 4.7, 8.42 4.44, 8.41 4.57" stroke="none" stroke-width="0" fill="#7950f2"></path><path d="M8.41 4.57 C8.41 4.83, 8.39 5.1, 8.35 5.36 C8.31 5.62, 8.24 5.88, 8.16 6.13 C8.08 6.38, 7.97 6.63, 7.85 6.85 C7.73 7.08, 7.59 7.3, 7.43 7.51 C7.27 7.71, 7.1 7.9, 6.91 8.07 C6.72 8.24, 6.52 8.39, 6.31 8.53 C6.1 8.66, 5.87 8.77, 5.65 8.86 C5.42 8.95, 5.18 9.02, 4.94 9.07 C4.7 9.12, 4.45 9.14, 4.21 9.14 C3.96 9.14, 3.72 9.12, 3.48 9.07 C3.24 9.02, 3 8.95, 2.77 8.86 C2.54 8.77, 2.31 8.66, 2.1 8.53 C1.89 8.39, 1.69 8.24, 1.5 8.07 C1.32 7.9, 1.14 7.71, 0.98 7.51 C0.83 7.3, 0.69 7.08, 0.56 6.85 C0.44 6.63, 0.34 6.38, 0.25 6.13 C0.17 5.88, 0.11 5.62, 0.06 5.36 C0.02 5.1, 0 4.83, 0 4.57 C0 4.31, 0.02 4.04, 0.06 3.78 C0.11 3.52, 0.17 3.26, 0.25 3.01 C0.34 2.76, 0.44 2.51, 0.56 2.28 C0.69 2.06, 0.83 1.83, 0.98 1.63 C1.14 1.43, 1.32 1.24, 1.5 1.07 C1.69 0.9, 1.89 0.74, 2.1 0.61 C2.31 0.48, 2.54 0.37, 2.77 0.28 C3 0.19, 3.24 0.12, 3.48 0.07 C3.72 0.02, 3.96 0, 4.21 0 C4.45 0, 4.7 0.02, 4.94 0.07 C5.18 0.12, 5.42 0.19, 5.65 0.28 C5.87 0.37, 6.1 0.48, 6.31 0.61 C6.52 0.74, 6.72 0.9, 6.91 1.07 C7.1 1.24, 7.27 1.43, 7.43 1.63 C7.59 1.83, 7.73 2.06, 7.85 2.28 C7.97 2.51, 8.08 2.76, 8.16 3.01 C8.24 3.26, 8.31 3.52, 8.35 3.78 C8.39 4.04, 8.4 4.44, 8.41 4.57 C8.42 4.7, 8.42 4.44, 8.41 4.57" stroke="#5f3dc4" stroke-width="1" fill="none"></path></g><g stroke-linecap="round" transform="translate(613.8354476237723 50.27058532813953) rotate(358.1310915065084 4.207022158495647 4.569555668486828)"><path d="M8.41 4.57 C8.41 4.83, 8.39 5.1, 8.35 5.36 C8.31 5.62, 8.24 5.88, 8.16 6.13 C8.08 6.38, 7.97 6.63, 7.85 6.85 C7.73 7.08, 7.59 7.3, 7.43 7.51 C7.27 7.71, 7.1 7.9, 6.91 8.07 C6.72 8.24, 6.52 8.39, 6.31 8.53 C6.1 8.66, 5.87 8.77, 5.65 8.86 C5.42 8.95, 5.18 9.02, 4.94 9.07 C4.7 9.12, 4.45 9.14, 4.21 9.14 C3.96 9.14, 3.72 9.12, 3.48 9.07 C3.24 9.02, 3 8.95, 2.77 8.86 C2.54 8.77, 2.31 8.66, 2.1 8.53 C1.89 8.39, 1.69 8.24, 1.5 8.07 C1.32 7.9, 1.14 7.71, 0.98 7.51 C0.83 7.3, 0.69 7.08, 0.56 6.85 C0.44 6.63, 0.34 6.38, 0.25 6.13 C0.17 5.88, 0.11 5.62, 0.06 5.36 C0.02 5.1, 0 4.83, 0 4.57 C0 4.31, 0.02 4.04, 0.06 3.78 C0.11 3.52, 0.17 3.26, 0.25 3.01 C0.34 2.76, 0.44 2.51, 0.56 2.28 C0.69 2.06, 0.83 1.83, 0.98 1.63 C1.14 1.43, 1.32 1.24, 1.5 1.07 C1.69 0.9, 1.89 0.74, 2.1 0.61 C2.31 0.48, 2.54 0.37, 2.77 0.28 C3 0.19, 3.24 0.12, 3.48 0.07 C3.72 0.02, 3.96 0, 4.21 0 C4.45 0, 4.7 0.02, 4.94 0.07 C5.18 0.12, 5.42 0.19, 5.65 0.28 C5.87 0.37, 6.1 0.48, 6.31 0.61 C6.52 0.74, 6.72 0.9, 6.91 1.07 C7.1 1.24, 7.27 1.43, 7.43 1.63 C7.59 1.83, 7.73 2.06, 7.85 2.28 C7.97 2.51, 8.08 2.76, 8.16 3.01 C8.24 3.26, 8.31 3.52, 8.35 3.78 C8.39 4.04, 8.4 4.44, 8.41 4.57 C8.42 4.7, 8.42 4.44, 8.41 4.57" stroke="none" stroke-width="0" fill="#7950f2"></path><path d="M8.41 4.57 C8.41 4.83, 8.39 5.1, 8.35 5.36 C8.31 5.62, 8.24 5.88, 8.16 6.13 C8.08 6.38, 7.97 6.63, 7.85 6.85 C7.73 7.08, 7.59 7.3, 7.43 7.51 C7.27 7.71, 7.1 7.9, 6.91 8.07 C6.72 8.24, 6.52 8.39, 6.31 8.53 C6.1 8.66, 5.87 8.77, 5.65 8.86 C5.42 8.95, 5.18 9.02, 4.94 9.07 C4.7 9.12, 4.45 9.14, 4.21 9.14 C3.96 9.14, 3.72 9.12, 3.48 9.07 C3.24 9.02, 3 8.95, 2.77 8.86 C2.54 8.77, 2.31 8.66, 2.1 8.53 C1.89 8.39, 1.69 8.24, 1.5 8.07 C1.32 7.9, 1.14 7.71, 0.98 7.51 C0.83 7.3, 0.69 7.08, 0.56 6.85 C0.44 6.63, 0.34 6.38, 0.25 6.13 C0.17 5.88, 0.11 5.62, 0.06 5.36 C0.02 5.1, 0 4.83, 0 4.57 C0 4.31, 0.02 4.04, 0.06 3.78 C0.11 3.52, 0.17 3.26, 0.25 3.01 C0.34 2.76, 0.44 2.51, 0.56 2.28 C0.69 2.06, 0.83 1.83, 0.98 1.63 C1.14 1.43, 1.32 1.24, 1.5 1.07 C1.69 0.9, 1.89 0.74, 2.1 0.61 C2.31 0.48, 2.54 0.37, 2.77 0.28 C3 0.19, 3.24 0.12, 3.48 0.07 C3.72 0.02, 3.96 0, 4.21 0 C4.45 0, 4.7 0.02, 4.94 0.07 C5.18 0.12, 5.42 0.19, 5.65 0.28 C5.87 0.37, 6.1 0.48, 6.31 0.61 C6.52 0.74, 6.72 0.9, 6.91 1.07 C7.1 1.24, 7.27 1.43, 7.43 1.63 C7.59 1.83, 7.73 2.06, 7.85 2.28 C7.97 2.51, 8.08 2.76, 8.16 3.01 C8.24 3.26, 8.31 3.52, 8.35 3.78 C8.39 4.04, 8.4 4.44, 8.41 4.57 C8.42 4.7, 8.42 4.44, 8.41 4.57" stroke="#5f3dc4" stroke-width="1" fill="none"></path></g><g stroke-linecap="round" transform="translate(628.372841998917 36.172696422417175) rotate(358.1310915065084 4.171683969157698 4.569555668486828)"><path d="M8.34 4.57 C8.34 4.83, 8.32 5.1, 8.28 5.36 C8.24 5.62, 8.17 5.88, 8.09 6.13 C8.01 6.38, 7.91 6.63, 7.78 6.85 C7.66 7.08, 7.52 7.3, 7.37 7.51 C7.21 7.71, 7.04 7.9, 6.85 8.07 C6.67 8.24, 6.47 8.39, 6.26 8.53 C6.05 8.66, 5.83 8.77, 5.6 8.86 C5.37 8.95, 5.13 9.02, 4.9 9.07 C4.66 9.12, 4.41 9.14, 4.17 9.14 C3.93 9.14, 3.69 9.12, 3.45 9.07 C3.21 9.02, 2.97 8.95, 2.74 8.86 C2.52 8.77, 2.29 8.66, 2.09 8.53 C1.88 8.39, 1.68 8.24, 1.49 8.07 C1.31 7.9, 1.13 7.71, 0.98 7.51 C0.82 7.3, 0.68 7.08, 0.56 6.85 C0.44 6.63, 0.33 6.38, 0.25 6.13 C0.17 5.88, 0.11 5.62, 0.06 5.36 C0.02 5.1, 0 4.83, 0 4.57 C0 4.31, 0.02 4.04, 0.06 3.78 C0.11 3.52, 0.17 3.26, 0.25 3.01 C0.33 2.76, 0.44 2.51, 0.56 2.28 C0.68 2.06, 0.82 1.83, 0.98 1.63 C1.13 1.43, 1.31 1.24, 1.49 1.07 C1.68 0.9, 1.88 0.74, 2.09 0.61 C2.29 0.48, 2.52 0.37, 2.74 0.28 C2.97 0.19, 3.21 0.12, 3.45 0.07 C3.69 0.02, 3.93 0, 4.17 0 C4.41 0, 4.66 0.02, 4.9 0.07 C5.13 0.12, 5.37 0.19, 5.6 0.28 C5.83 0.37, 6.05 0.48, 6.26 0.61 C6.47 0.74, 6.67 0.9, 6.85 1.07 C7.04 1.24, 7.21 1.43, 7.37 1.63 C7.52 1.83, 7.66 2.06, 7.78 2.28 C7.91 2.51, 8.01 2.76, 8.09 3.01 C8.17 3.26, 8.24 3.52, 8.28 3.78 C8.32 4.04, 8.33 4.44, 8.34 4.57 C8.35 4.7, 8.35 4.44, 8.34 4.57" stroke="none" stroke-width="0" fill="#7950f2"></path><path d="M8.34 4.57 C8.34 4.83, 8.32 5.1, 8.28 5.36 C8.24 5.62, 8.17 5.88, 8.09 6.13 C8.01 6.38, 7.91 6.63, 7.78 6.85 C7.66 7.08, 7.52 7.3, 7.37 7.51 C7.21 7.71, 7.04 7.9, 6.85 8.07 C6.67 8.24, 6.47 8.39, 6.26 8.53 C6.05 8.66, 5.83 8.77, 5.6 8.86 C5.37 8.95, 5.13 9.02, 4.9 9.07 C4.66 9.12, 4.41 9.14, 4.17 9.14 C3.93 9.14, 3.69 9.12, 3.45 9.07 C3.21 9.02, 2.97 8.95, 2.74 8.86 C2.52 8.77, 2.29 8.66, 2.09 8.53 C1.88 8.39, 1.68 8.24, 1.49 8.07 C1.31 7.9, 1.13 7.71, 0.98 7.51 C0.82 7.3, 0.68 7.08, 0.56 6.85 C0.44 6.63, 0.33 6.38, 0.25 6.13 C0.17 5.88, 0.11 5.62, 0.06 5.36 C0.02 5.1, 0 4.83, 0 4.57 C0 4.31, 0.02 4.04, 0.06 3.78 C0.11 3.52, 0.17 3.26, 0.25 3.01 C0.33 2.76, 0.44 2.51, 0.56 2.28 C0.68 2.06, 0.82 1.83, 0.98 1.63 C1.13 1.43, 1.31 1.24, 1.49 1.07 C1.68 0.9, 1.88 0.74, 2.09 0.61 C2.29 0.48, 2.52 0.37, 2.74 0.28 C2.97 0.19, 3.21 0.12, 3.45 0.07 C3.69 0.02, 3.93 0, 4.17 0 C4.41 0, 4.66 0.02, 4.9 0.07 C5.13 0.12, 5.37 0.19, 5.6 0.28 C5.83 0.37, 6.05 0.48, 6.26 0.61 C6.47 0.74, 6.67 0.9, 6.85 1.07 C7.04 1.24, 7.21 1.43, 7.37 1.63 C7.52 1.83, 7.66 2.06, 7.78 2.28 C7.91 2.51, 8.01 2.76, 8.09 3.01 C8.17 3.26, 8.24 3.52, 8.28 3.78 C8.32 4.04, 8.33 4.44, 8.34 4.57 C8.35 4.7, 8.35 4.44, 8.34 4.57" stroke="#5f3dc4" stroke-width="1" fill="none"></path></g><g stroke-linecap="round" transform="translate(641.5187466664361 18.82379979002053) rotate(358.1310915065084 4.207022158495647 4.569555668486828)"><path d="M8.41 4.57 C8.41 4.83, 8.39 5.1, 8.35 5.36 C8.31 5.62, 8.24 5.88, 8.16 6.13 C8.08 6.38, 7.97 6.63, 7.85 6.85 C7.73 7.08, 7.59 7.3, 7.43 7.51 C7.27 7.71, 7.1 7.9, 6.91 8.07 C6.72 8.24, 6.52 8.39, 6.31 8.53 C6.1 8.66, 5.87 8.77, 5.65 8.86 C5.42 8.95, 5.18 9.02, 4.94 9.07 C4.7 9.12, 4.45 9.14, 4.21 9.14 C3.96 9.14, 3.72 9.12, 3.48 9.07 C3.24 9.02, 3 8.95, 2.77 8.86 C2.54 8.77, 2.31 8.66, 2.1 8.53 C1.89 8.39, 1.69 8.24, 1.5 8.07 C1.32 7.9, 1.14 7.71, 0.98 7.51 C0.83 7.3, 0.69 7.08, 0.56 6.85 C0.44 6.63, 0.34 6.38, 0.25 6.13 C0.17 5.88, 0.11 5.62, 0.06 5.36 C0.02 5.1, 0 4.83, 0 4.57 C0 4.31, 0.02 4.04, 0.06 3.78 C0.11 3.52, 0.17 3.26, 0.25 3.01 C0.34 2.76, 0.44 2.51, 0.56 2.28 C0.69 2.06, 0.83 1.83, 0.98 1.63 C1.14 1.43, 1.32 1.24, 1.5 1.07 C1.69 0.9, 1.89 0.74, 2.1 0.61 C2.31 0.48, 2.54 0.37, 2.77 0.28 C3 0.19, 3.24 0.12, 3.48 0.07 C3.72 0.02, 3.96 0, 4.21 0 C4.45 0, 4.7 0.02, 4.94 0.07 C5.18 0.12, 5.42 0.19, 5.65 0.28 C5.87 0.37, 6.1 0.48, 6.31 0.61 C6.52 0.74, 6.72 0.9, 6.91 1.07 C7.1 1.24, 7.27 1.43, 7.43 1.63 C7.59 1.83, 7.73 2.06, 7.85 2.28 C7.97 2.51, 8.08 2.76, 8.16 3.01 C8.24 3.26, 8.31 3.52, 8.35 3.78 C8.39 4.04, 8.4 4.44, 8.41 4.57 C8.42 4.7, 8.42 4.44, 8.41 4.57" stroke="none" stroke-width="0" fill="#7950f2"></path><path d="M8.41 4.57 C8.41 4.83, 8.39 5.1, 8.35 5.36 C8.31 5.62, 8.24 5.88, 8.16 6.13 C8.08 6.38, 7.97 6.63, 7.85 6.85 C7.73 7.08, 7.59 7.3, 7.43 7.51 C7.27 7.71, 7.1 7.9, 6.91 8.07 C6.72 8.24, 6.52 8.39, 6.31 8.53 C6.1 8.66, 5.87 8.77, 5.65 8.86 C5.42 8.95, 5.18 9.02, 4.94 9.07 C4.7 9.12, 4.45 9.14, 4.21 9.14 C3.96 9.14, 3.72 9.12, 3.48 9.07 C3.24 9.02, 3 8.95, 2.77 8.86 C2.54 8.77, 2.31 8.66, 2.1 8.53 C1.89 8.39, 1.69 8.24, 1.5 8.07 C1.32 7.9, 1.14 7.71, 0.98 7.51 C0.83 7.3, 0.69 7.08, 0.56 6.85 C0.44 6.63, 0.34 6.38, 0.25 6.13 C0.17 5.88, 0.11 5.62, 0.06 5.36 C0.02 5.1, 0 4.83, 0 4.57 C0 4.31, 0.02 4.04, 0.06 3.78 C0.11 3.52, 0.17 3.26, 0.25 3.01 C0.34 2.76, 0.44 2.51, 0.56 2.28 C0.69 2.06, 0.83 1.83, 0.98 1.63 C1.14 1.43, 1.32 1.24, 1.5 1.07 C1.69 0.9, 1.89 0.74, 2.1 0.61 C2.31 0.48, 2.54 0.37, 2.77 0.28 C3 0.19, 3.24 0.12, 3.48 0.07 C3.72 0.02, 3.96 0, 4.21 0 C4.45 0, 4.7 0.02, 4.94 0.07 C5.18 0.12, 5.42 0.19, 5.65 0.28 C5.87 0.37, 6.1 0.48, 6.31 0.61 C6.52 0.74, 6.72 0.9, 6.91 1.07 C7.1 1.24, 7.27 1.43, 7.43 1.63 C7.59 1.83, 7.73 2.06, 7.85 2.28 C7.97 2.51, 8.08 2.76, 8.16 3.01 C8.24 3.26, 8.31 3.52, 8.35 3.78 C8.39 4.04, 8.4 4.44, 8.41 4.57 C8.42 4.7, 8.42 4.44, 8.41 4.57" stroke="#5f3dc4" stroke-width="1" fill="none"></path></g><g stroke-linecap="round" transform="translate(643.5697562486043 51.83716481769352) rotate(358.1310915065084 4.207022158495647 4.569555668486828)"><path d="M8.41 4.57 C8.41 4.83, 8.39 5.1, 8.35 5.36 C8.31 5.62, 8.24 5.88, 8.16 6.13 C8.08 6.38, 7.97 6.63, 7.85 6.85 C7.73 7.08, 7.59 7.3, 7.43 7.51 C7.27 7.71, 7.1 7.9, 6.91 8.07 C6.72 8.24, 6.52 8.39, 6.31 8.53 C6.1 8.66, 5.87 8.77, 5.65 8.86 C5.42 8.95, 5.18 9.02, 4.94 9.07 C4.7 9.12, 4.45 9.14, 4.21 9.14 C3.96 9.14, 3.72 9.12, 3.48 9.07 C3.24 9.02, 3 8.95, 2.77 8.86 C2.54 8.77, 2.31 8.66, 2.1 8.53 C1.89 8.39, 1.69 8.24, 1.5 8.07 C1.32 7.9, 1.14 7.71, 0.98 7.51 C0.83 7.3, 0.69 7.08, 0.56 6.85 C0.44 6.63, 0.34 6.38, 0.25 6.13 C0.17 5.88, 0.11 5.62, 0.06 5.36 C0.02 5.1, 0 4.83, 0 4.57 C0 4.31, 0.02 4.04, 0.06 3.78 C0.11 3.52, 0.17 3.26, 0.25 3.01 C0.34 2.76, 0.44 2.51, 0.56 2.28 C0.69 2.06, 0.83 1.83, 0.98 1.63 C1.14 1.43, 1.32 1.24, 1.5 1.07 C1.69 0.9, 1.89 0.74, 2.1 0.61 C2.31 0.48, 2.54 0.37, 2.77 0.28 C3 0.19, 3.24 0.12, 3.48 0.07 C3.72 0.02, 3.96 0, 4.21 0 C4.45 0, 4.7 0.02, 4.94 0.07 C5.18 0.12, 5.42 0.19, 5.65 0.28 C5.87 0.37, 6.1 0.48, 6.31 0.61 C6.52 0.74, 6.72 0.9, 6.91 1.07 C7.1 1.24, 7.27 1.43, 7.43 1.63 C7.59 1.83, 7.73 2.06, 7.85 2.28 C7.97 2.51, 8.08 2.76, 8.16 3.01 C8.24 3.26, 8.31 3.52, 8.35 3.78 C8.39 4.04, 8.4 4.44, 8.41 4.57 C8.42 4.7, 8.42 4.44, 8.41 4.57" stroke="none" stroke-width="0" fill="#7950f2"></path><path d="M8.41 4.57 C8.41 4.83, 8.39 5.1, 8.35 5.36 C8.31 5.62, 8.24 5.88, 8.16 6.13 C8.08 6.38, 7.97 6.63, 7.85 6.85 C7.73 7.08, 7.59 7.3, 7.43 7.51 C7.27 7.71, 7.1 7.9, 6.91 8.07 C6.72 8.24, 6.52 8.39, 6.31 8.53 C6.1 8.66, 5.87 8.77, 5.65 8.86 C5.42 8.95, 5.18 9.02, 4.94 9.07 C4.7 9.12, 4.45 9.14, 4.21 9.14 C3.96 9.14, 3.72 9.12, 3.48 9.07 C3.24 9.02, 3 8.95, 2.77 8.86 C2.54 8.77, 2.31 8.66, 2.1 8.53 C1.89 8.39, 1.69 8.24, 1.5 8.07 C1.32 7.9, 1.14 7.71, 0.98 7.51 C0.83 7.3, 0.69 7.08, 0.56 6.85 C0.44 6.63, 0.34 6.38, 0.25 6.13 C0.17 5.88, 0.11 5.62, 0.06 5.36 C0.02 5.1, 0 4.83, 0 4.57 C0 4.31, 0.02 4.04, 0.06 3.78 C0.11 3.52, 0.17 3.26, 0.25 3.01 C0.34 2.76, 0.44 2.51, 0.56 2.28 C0.69 2.06, 0.83 1.83, 0.98 1.63 C1.14 1.43, 1.32 1.24, 1.5 1.07 C1.69 0.9, 1.89 0.74, 2.1 0.61 C2.31 0.48, 2.54 0.37, 2.77 0.28 C3 0.19, 3.24 0.12, 3.48 0.07 C3.72 0.02, 3.96 0, 4.21 0 C4.45 0, 4.7 0.02, 4.94 0.07 C5.18 0.12, 5.42 0.19, 5.65 0.28 C5.87 0.37, 6.1 0.48, 6.31 0.61 C6.52 0.74, 6.72 0.9, 6.91 1.07 C7.1 1.24, 7.27 1.43, 7.43 1.63 C7.59 1.83, 7.73 2.06, 7.85 2.28 C7.97 2.51, 8.08 2.76, 8.16 3.01 C8.24 3.26, 8.31 3.52, 8.35 3.78 C8.39 4.04, 8.4 4.44, 8.41 4.57 C8.42 4.7, 8.42 4.44, 8.41 4.57" stroke="#5f3dc4" stroke-width="1" fill="none"></path></g><g stroke-linecap="round" transform="translate(613.4377879818499 19.164760811173437) rotate(358.1310915065084 3.7296939325749463 3.867855952340051)"><path d="M7.46 3.87 C7.46 4.09, 7.44 4.32, 7.4 4.54 C7.37 4.76, 7.31 4.98, 7.23 5.19 C7.16 5.4, 7.07 5.61, 6.96 5.8 C6.85 6, 6.73 6.18, 6.59 6.35 C6.45 6.53, 6.29 6.69, 6.13 6.83 C5.96 6.97, 5.78 7.11, 5.59 7.22 C5.41 7.33, 5.21 7.43, 5.01 7.5 C4.8 7.58, 4.59 7.64, 4.38 7.68 C4.16 7.72, 3.95 7.74, 3.73 7.74 C3.51 7.74, 3.29 7.72, 3.08 7.68 C2.87 7.64, 2.66 7.58, 2.45 7.5 C2.25 7.43, 2.05 7.33, 1.86 7.22 C1.68 7.11, 1.5 6.97, 1.33 6.83 C1.17 6.69, 1.01 6.53, 0.87 6.35 C0.73 6.18, 0.61 6, 0.5 5.8 C0.39 5.61, 0.3 5.4, 0.22 5.19 C0.15 4.98, 0.09 4.76, 0.06 4.54 C0.02 4.32, 0 4.09, 0 3.87 C0 3.64, 0.02 3.42, 0.06 3.2 C0.09 2.98, 0.15 2.76, 0.22 2.54 C0.3 2.33, 0.39 2.13, 0.5 1.93 C0.61 1.74, 0.73 1.55, 0.87 1.38 C1.01 1.21, 1.17 1.05, 1.33 0.9 C1.5 0.76, 1.68 0.63, 1.86 0.52 C2.05 0.41, 2.25 0.31, 2.45 0.23 C2.66 0.16, 2.87 0.1, 3.08 0.06 C3.29 0.02, 3.51 0, 3.73 0 C3.95 0, 4.16 0.02, 4.38 0.06 C4.59 0.1, 4.8 0.16, 5.01 0.23 C5.21 0.31, 5.41 0.41, 5.59 0.52 C5.78 0.63, 5.96 0.76, 6.13 0.9 C6.29 1.05, 6.45 1.21, 6.59 1.38 C6.73 1.55, 6.85 1.74, 6.96 1.93 C7.07 2.13, 7.16 2.33, 7.23 2.54 C7.31 2.76, 7.37 2.98, 7.4 3.2 C7.44 3.42, 7.45 3.76, 7.46 3.87 C7.47 3.98, 7.47 3.76, 7.46 3.87" stroke="#fff" stroke-width="1" fill="none"></path></g><g stroke-linecap="round" transform="translate(614.2111380278589 51.37736985992069) rotate(358.1310915065084 3.7296939325749463 3.867855952340051)"><path d="M7.46 3.87 C7.46 4.09, 7.44 4.32, 7.4 4.54 C7.37 4.76, 7.31 4.98, 7.23 5.19 C7.16 5.4, 7.07 5.61, 6.96 5.8 C6.85 6, 6.73 6.18, 6.59 6.35 C6.45 6.53, 6.29 6.69, 6.13 6.83 C5.96 6.97, 5.78 7.11, 5.59 7.22 C5.41 7.33, 5.21 7.43, 5.01 7.5 C4.8 7.58, 4.59 7.64, 4.38 7.68 C4.16 7.72, 3.95 7.74, 3.73 7.74 C3.51 7.74, 3.29 7.72, 3.08 7.68 C2.87 7.64, 2.66 7.58, 2.45 7.5 C2.25 7.43, 2.05 7.33, 1.86 7.22 C1.68 7.11, 1.5 6.97, 1.33 6.83 C1.17 6.69, 1.01 6.53, 0.87 6.35 C0.73 6.18, 0.61 6, 0.5 5.8 C0.39 5.61, 0.3 5.4, 0.22 5.19 C0.15 4.98, 0.09 4.76, 0.06 4.54 C0.02 4.32, 0 4.09, 0 3.87 C0 3.64, 0.02 3.42, 0.06 3.2 C0.09 2.98, 0.15 2.76, 0.22 2.54 C0.3 2.33, 0.39 2.13, 0.5 1.93 C0.61 1.74, 0.73 1.55, 0.87 1.38 C1.01 1.21, 1.17 1.05, 1.33 0.9 C1.5 0.76, 1.68 0.63, 1.86 0.52 C2.05 0.41, 2.25 0.31, 2.45 0.23 C2.66 0.16, 2.87 0.1, 3.08 0.06 C3.29 0.02, 3.51 0, 3.73 0 C3.95 0, 4.16 0.02, 4.38 0.06 C4.59 0.1, 4.8 0.16, 5.01 0.23 C5.21 0.31, 5.41 0.41, 5.59 0.52 C5.78 0.63, 5.96 0.76, 6.13 0.9 C6.29 1.05, 6.45 1.21, 6.59 1.38 C6.73 1.55, 6.85 1.74, 6.96 1.93 C7.07 2.13, 7.16 2.33, 7.23 2.54 C7.31 2.76, 7.37 2.98, 7.4 3.2 C7.44 3.42, 7.45 3.76, 7.46 3.87 C7.47 3.98, 7.47 3.76, 7.46 3.87" stroke="#fff" stroke-width="1" fill="none"></path></g><g stroke-linecap="round" transform="translate(628.7766174379462 36.644652442125334) rotate(358.1310915065084 3.724686267937045 3.7725718007777687)"><path d="M7.45 3.77 C7.45 3.99, 7.43 4.21, 7.39 4.43 C7.36 4.64, 7.3 4.86, 7.22 5.06 C7.15 5.27, 7.06 5.47, 6.95 5.66 C6.84 5.85, 6.72 6.03, 6.58 6.2 C6.44 6.36, 6.28 6.52, 6.12 6.66 C5.95 6.8, 5.77 6.93, 5.59 7.04 C5.4 7.15, 5.2 7.24, 5 7.32 C4.8 7.39, 4.58 7.45, 4.37 7.49 C4.16 7.53, 3.94 7.55, 3.72 7.55 C3.51 7.55, 3.29 7.53, 3.08 7.49 C2.87 7.45, 2.65 7.39, 2.45 7.32 C2.25 7.24, 2.05 7.15, 1.86 7.04 C1.68 6.93, 1.5 6.8, 1.33 6.66 C1.17 6.52, 1.01 6.36, 0.87 6.2 C0.73 6.03, 0.61 5.85, 0.5 5.66 C0.39 5.47, 0.3 5.27, 0.22 5.06 C0.15 4.86, 0.09 4.64, 0.06 4.43 C0.02 4.21, 0 3.99, 0 3.77 C0 3.55, 0.02 3.33, 0.06 3.12 C0.09 2.9, 0.15 2.69, 0.22 2.48 C0.3 2.28, 0.39 2.08, 0.5 1.89 C0.61 1.7, 0.73 1.51, 0.87 1.35 C1.01 1.18, 1.17 1.02, 1.33 0.88 C1.5 0.74, 1.68 0.61, 1.86 0.51 C2.05 0.4, 2.25 0.3, 2.45 0.23 C2.65 0.15, 2.87 0.1, 3.08 0.06 C3.29 0.02, 3.51 0, 3.72 0 C3.94 0, 4.16 0.02, 4.37 0.06 C4.58 0.1, 4.8 0.15, 5 0.23 C5.2 0.3, 5.4 0.4, 5.59 0.51 C5.77 0.61, 5.95 0.74, 6.12 0.88 C6.28 1.02, 6.44 1.18, 6.58 1.35 C6.72 1.51, 6.84 1.7, 6.95 1.89 C7.06 2.08, 7.15 2.28, 7.22 2.48 C7.3 2.69, 7.36 2.9, 7.39 3.12 C7.43 3.33, 7.44 3.66, 7.45 3.77 C7.46 3.88, 7.46 3.66, 7.45 3.77" stroke="#fff" stroke-width="1" fill="none"></path></g><g stroke-linecap="round" transform="translate(642.3285442764204 19.728872308626705) rotate(358.1310915065084 3.3253647284176395 3.7725718007777687)"><path d="M6.65 3.77 C6.65 3.99, 6.63 4.21, 6.6 4.43 C6.57 4.64, 6.52 4.86, 6.45 5.06 C6.38 5.27, 6.3 5.47, 6.21 5.66 C6.11 5.85, 6 6.03, 5.87 6.2 C5.75 6.36, 5.61 6.52, 5.46 6.66 C5.32 6.8, 5.15 6.93, 4.99 7.04 C4.82 7.15, 4.64 7.24, 4.46 7.32 C4.28 7.39, 4.09 7.45, 3.9 7.49 C3.71 7.53, 3.52 7.55, 3.33 7.55 C3.13 7.55, 2.94 7.53, 2.75 7.49 C2.56 7.45, 2.37 7.39, 2.19 7.32 C2.01 7.24, 1.83 7.15, 1.66 7.04 C1.5 6.93, 1.34 6.8, 1.19 6.66 C1.04 6.52, 0.9 6.36, 0.78 6.2 C0.65 6.03, 0.54 5.85, 0.45 5.66 C0.35 5.47, 0.27 5.27, 0.2 5.06 C0.13 4.86, 0.08 4.64, 0.05 4.43 C0.02 4.21, 0 3.99, 0 3.77 C0 3.55, 0.02 3.33, 0.05 3.12 C0.08 2.9, 0.13 2.69, 0.2 2.48 C0.27 2.28, 0.35 2.08, 0.45 1.89 C0.54 1.7, 0.65 1.51, 0.78 1.35 C0.9 1.18, 1.04 1.02, 1.19 0.88 C1.34 0.74, 1.5 0.61, 1.66 0.51 C1.83 0.4, 2.01 0.3, 2.19 0.23 C2.37 0.15, 2.56 0.1, 2.75 0.06 C2.94 0.02, 3.13 0, 3.33 0 C3.52 0, 3.71 0.02, 3.9 0.06 C4.09 0.1, 4.28 0.15, 4.46 0.23 C4.64 0.3, 4.82 0.4, 4.99 0.51 C5.15 0.61, 5.32 0.74, 5.46 0.88 C5.61 1.02, 5.75 1.18, 5.87 1.35 C6 1.51, 6.11 1.7, 6.21 1.89 C6.3 2.08, 6.38 2.28, 6.45 2.48 C6.52 2.69, 6.57 2.9, 6.6 3.12 C6.63 3.33, 6.64 3.66, 6.65 3.77 C6.66 3.88, 6.66 3.66, 6.65 3.77" stroke="#fff" stroke-width="1" fill="none"></path></g><g stroke-linecap="round" transform="translate(644.8541369131894 52.53909712477525) rotate(358.1310915065084 2.941784745967084 3.7725718007777687)"><path d="M5.88 3.77 C5.88 3.99, 5.87 4.21, 5.84 4.43 C5.81 4.64, 5.76 4.86, 5.71 5.06 C5.65 5.27, 5.57 5.47, 5.49 5.66 C5.4 5.85, 5.3 6.03, 5.2 6.2 C5.09 6.36, 4.96 6.52, 4.83 6.66 C4.7 6.8, 4.56 6.93, 4.41 7.04 C4.27 7.15, 4.11 7.24, 3.95 7.32 C3.79 7.39, 3.62 7.45, 3.45 7.49 C3.28 7.53, 3.11 7.55, 2.94 7.55 C2.77 7.55, 2.6 7.53, 2.43 7.49 C2.26 7.45, 2.1 7.39, 1.94 7.32 C1.78 7.24, 1.62 7.15, 1.47 7.04 C1.32 6.93, 1.18 6.8, 1.05 6.66 C0.92 6.52, 0.8 6.36, 0.69 6.2 C0.58 6.03, 0.48 5.85, 0.39 5.66 C0.31 5.47, 0.24 5.27, 0.18 5.06 C0.12 4.86, 0.07 4.64, 0.04 4.43 C0.02 4.21, 0 3.99, 0 3.77 C0 3.55, 0.02 3.33, 0.04 3.12 C0.07 2.9, 0.12 2.69, 0.18 2.48 C0.24 2.28, 0.31 2.08, 0.39 1.89 C0.48 1.7, 0.58 1.51, 0.69 1.35 C0.8 1.18, 0.92 1.02, 1.05 0.88 C1.18 0.74, 1.32 0.61, 1.47 0.51 C1.62 0.4, 1.78 0.3, 1.94 0.23 C2.1 0.15, 2.26 0.1, 2.43 0.06 C2.6 0.02, 2.77 0, 2.94 0 C3.11 0, 3.28 0.02, 3.45 0.06 C3.62 0.1, 3.79 0.15, 3.95 0.23 C4.11 0.3, 4.27 0.4, 4.41 0.51 C4.56 0.61, 4.7 0.74, 4.83 0.88 C4.96 1.02, 5.09 1.18, 5.2 1.35 C5.3 1.51, 5.4 1.7, 5.49 1.89 C5.57 2.08, 5.65 2.28, 5.71 2.48 C5.76 2.69, 5.81 2.9, 5.84 3.12 C5.87 3.33, 5.88 3.66, 5.88 3.77 C5.89 3.88, 5.89 3.66, 5.88 3.77" stroke="#fff" stroke-width="1" fill="none"></path></g><g stroke-linecap="round" transform="translate(327.1546225251557 223.04982178404862) rotate(0 4.639756944444457 77.5247523003477)"><path d="M2.32 0 L8.7 0.58 L9.28 2.32 L9.28 152.73 L8.7 154.47 L6.96 155.05 L0.58 154.47 L0 152.73 L0 2.32 L0.58 0.58 L2.32 0" stroke="none" stroke-width="0" fill="#b2f2bb"></path><path d="M2.32 0 M2.32 0 C3.49 0, 4.66 0, 6.96 0 M2.32 0 C3.91 0, 5.51 0, 6.96 0 M6.96 0 C8.51 0, 9.28 0.77, 9.28 2.32 M6.96 0 C8.51 0, 9.28 0.77, 9.28 2.32 M9.28 2.32 C9.28 42.21, 9.28 82.11, 9.28 152.73 M9.28 2.32 C9.28 54.17, 9.28 106.02, 9.28 152.73 M9.28 152.73 C9.28 154.28, 8.51 155.05, 6.96 155.05 M9.28 152.73 C9.28 154.28, 8.51 155.05, 6.96 155.05 M6.96 155.05 C5.81 155.05, 4.66 155.05, 2.32 155.05 M6.96 155.05 C5.6 155.05, 4.25 155.05, 2.32 155.05 M2.32 155.05 C0.77 155.05, 0 154.28, 0 152.73 M2.32 155.05 C0.77 155.05, 0 154.28, 0 152.73 M0 152.73 C0 96.22, 0 39.72, 0 2.32 M0 152.73 C0 93.69, 0 34.65, 0 2.32 M0 2.32 C0 0.77, 0.77 0, 2.32 0 M0 2.32 C0 0.77, 0.77 0, 2.32 0" stroke="#2f9e44" stroke-width="1" fill="none"></path></g><g mask="url(#mask-T1Z7NbIDzQemZnrXEPkSC)" stroke-linecap="round"><g transform="translate(342.5696268254212 282.9542754207305) rotate(0 140.17547444325635 0)"><path d="M0 0 C46.73 0, 233.63 0, 280.35 0 M0 0 C46.73 0, 233.63 0, 280.35 0" stroke="#000000" stroke-width="1" fill="none"></path></g><g transform="translate(342.5696268254212 282.9542754207305) rotate(0 140.17547444325635 0)"><path d="M0 0 L13.59 -6.34 L13.59 6.34 L0 0" stroke="none" stroke-width="0" fill="#000000" fill-rule="evenodd"></path><path d="M0 0 C4.02 -1.87, 8.04 -3.75, 13.59 -6.34 M0 0 C2.89 -1.35, 5.78 -2.69, 13.59 -6.34 M13.59 -6.34 C13.59 -1.61, 13.59 3.12, 13.59 6.34 M13.59 -6.34 C13.59 -3.71, 13.59 -1.09, 13.59 6.34 M13.59 6.34 C10.29 4.8, 6.99 3.26, 0 0 M13.59 6.34 C10.77 5.02, 7.95 3.71, 0 0 M0 0 C0 0, 0 0, 0 0 M0 0 C0 0, 0 0, 0 0" stroke="#000000" stroke-width="1" fill="none"></path></g></g><mask id="mask-T1Z7NbIDzQemZnrXEPkSC"><rect x="0" y="0" fill="#fff" width="722.9205757119339" height="382.9542754207305"></rect><rect x="398.57716303625557" y="272.9542754207314" fill="#000" width="168.33587646484375" height="20" opacity="1"></rect></mask><g transform="translate(398.57716303625557 272.9542754207305) rotate(0 84.16793823242199 10)"><text x="84.16793823242188" y="0" font-family="Virgil, Segoe UI Emoji" font-size="16px" fill="#000000" text-anchor="middle" style="white-space: pre;" direction="ltr" dominant-baseline="text-before-edge">add EasyApp API</text></g><g transform="translate(293.4107327804502 10) rotate(0 42.58995819091797 25)"><text x="42.58995819091797" y="0" font-family="Virgil, Segoe UI Emoji" font-size="20px" fill="#000000" text-anchor="middle" style="white-space: pre;" direction="ltr" dominant-baseline="text-before-edge">Platform</text><text x="42.58995819091797" y="25" font-family="Virgil, Segoe UI Emoji" font-size="20px" fill="#000000" text-anchor="middle" style="white-space: pre;" direction="ltr" dominant-baseline="text-before-edge">Cluster</text></g><g stroke-linecap="round"><g transform="translate(632.4402425247542 69.84936586556069) rotate(0 0 168.52826532908148)"><path d="M0 0 C0 56.18, 0 280.88, 0 337.06 M0 0 C0 56.18, 0 280.88, 0 337.06" stroke="#000000" stroke-width="1" fill="none"></path></g></g><mask></mask><g mask="url(#mask-pyPSJ2_IbUgEas-LzgWuU)" stroke-linecap="round"><g transform="translate(630.7935114140444 244.1650753569411) rotate(0 -147.33940868872935 0)"><path d="M0 0 C-49.11 0, -245.57 0, -294.68 0 M0 0 C-49.11 0, -245.57 0, -294.68 0" stroke="#000000" stroke-width="1" fill="none"></path></g><g transform="translate(630.7935114140444 244.1650753569411) rotate(0 -147.33940868872935 0)"><path d="M0 0 L-13.59 6.34 L-13.59 -6.34 L0 0" stroke="none" stroke-width="0" fill="#000000" fill-rule="evenodd"></path><path d="M0 0 C-4.39 2.05, -8.77 4.09, -13.59 6.34 M0 0 C-5.39 2.51, -10.78 5.03, -13.59 6.34 M-13.59 6.34 C-13.59 3.3, -13.59 0.26, -13.59 -6.34 M-13.59 6.34 C-13.59 1.86, -13.59 -2.61, -13.59 -6.34 M-13.59 -6.34 C-10.67 -4.98, -7.75 -3.61, 0 0 M-13.59 -6.34 C-10.74 -5.01, -7.88 -3.68, 0 0 M0 0 C0 0, 0 0, 0 0 M0 0 C0 0, 0 0, 0 0" stroke="#000000" stroke-width="1" fill="none"></path></g></g><mask id="mask-pyPSJ2_IbUgEas-LzgWuU"><rect x="0" y="0" fill="#fff" width="1025.472328791503" height="344.1650753569411"></rect><rect x="380.0621807282446" y="234.165075356942" fill="#000" width="206.78384399414062" height="20" opacity="1"></rect></mask><g transform="translate(380.0621807282446 234.165075356942) rotate(0 103.39192199707043 10)"><text x="103.39192199707031" y="0" font-family="Virgil, Segoe UI Emoji" font-size="16px" fill="#000000" text-anchor="middle" style="white-space: pre;" direction="ltr" dominant-baseline="text-before-edge">install EasyApp promise</text></g><g stroke-linecap="round" transform="translate(628.4030265358456 240.8539118691915) rotate(0 4.639756944444343 70.00238334922733)"><path d="M2.32 0 L8.7 0.58 L9.28 2.32 L9.28 137.68 L8.7 139.42 L6.96 140 L2.32 140 L0.58 139.42 L0 137.68 L0 2.32 L0.58 0.58 L2.32 0" stroke="none" stroke-width="0" fill="#b2f2bb"></path><path d="M2.32 0 M2.32 0 C3.65 0, 4.99 0, 6.96 0 M2.32 0 C3.8 0, 5.27 0, 6.96 0 M6.96 0 C8.51 0, 9.28 0.77, 9.28 2.32 M6.96 0 C8.51 0, 9.28 0.77, 9.28 2.32 M9.28 2.32 C9.28 43.35, 9.28 84.38, 9.28 137.68 M9.28 2.32 C9.28 54.9, 9.28 107.49, 9.28 137.68 M9.28 137.68 C9.28 139.23, 8.51 140, 6.96 140 M9.28 137.68 C9.28 139.23, 8.51 140, 6.96 140 M6.96 140 C5.63 140, 4.31 140, 2.32 140 M6.96 140 C5.37 140, 3.79 140, 2.32 140 M2.32 140 C0.77 140, 0 139.23, 0 137.68 M2.32 140 C0.77 140, 0 139.23, 0 137.68 M0 137.68 C0 104.98, 0 72.27, 0 2.32 M0 137.68 C0 98.91, 0 60.14, 0 2.32 M0 2.32 C0 0.77, 0.77 0, 2.32 0 M0 2.32 C0 0.77, 0.77 0, 2.32 0" stroke="#2f9e44" stroke-width="1" fill="none"></path></g><g mask="url(#mask-5I-osXNjOD7x4LZKI2eB2)" stroke-linecap="round"><g transform="translate(339.13117058161106 326.51181876237024) rotate(0 141.6163987634543 0)"><path d="M0 0 C47.21 0, 236.03 0, 283.23 0 M0 0 C47.21 0, 236.03 0, 283.23 0" stroke="#228be6" stroke-width="1" fill="none"></path></g><g transform="translate(339.13117058161106 326.51181876237024) rotate(0 141.6163987634543 0)"><path d="M0 0 L13.59 -6.34 L13.59 6.34 L0 0" stroke="none" stroke-width="0" fill="#228be6" fill-rule="evenodd"></path><path d="M0 0 C4.85 -2.26, 9.7 -4.52, 13.59 -6.34 M0 0 C5.34 -2.49, 10.67 -4.98, 13.59 -6.34 M13.59 -6.34 C13.59 -2.87, 13.59 0.6, 13.59 6.34 M13.59 -6.34 C13.59 -1.3, 13.59 3.74, 13.59 6.34 M13.59 6.34 C10.1 4.71, 6.61 3.08, 0 0 M13.59 6.34 C9.89 4.61, 6.18 2.88, 0 0 M0 0 C0 0, 0 0, 0 0 M0 0 C0 0, 0 0, 0 0" stroke="#228be6" stroke-width="1" fill="none"></path></g></g><mask id="mask-5I-osXNjOD7x4LZKI2eB2"><rect x="0" y="0" fill="#fff" width="722.3639681085197" height="426.51181876237024"></rect><rect x="391.0756333099091" y="306.51181876237115" fill="#000" width="179.3438720703125" height="40" opacity="1"></rect></mask><g transform="translate(391.0756333099091 306.51181876237024) rotate(0 89.67193603515625 20)"><text x="89.67193603515625" y="0" font-family="Virgil, Segoe UI Emoji" font-size="16px" fill="#228be6" text-anchor="middle" style="white-space: pre;" direction="ltr" dominant-baseline="text-before-edge">get clusters with label</text><text x="89.67193603515625" y="20" font-family="Virgil, Segoe UI Emoji" font-size="16px" fill="#228be6" text-anchor="middle" style="white-space: pre;" direction="ltr" dominant-baseline="text-before-edge">environment = platform</text></g><g mask="url(#mask-4GR8XLRksmaJqWitJkYHb)" stroke-linecap="round"><g transform="translate(624.9061810945013 377.1646532725854) rotate(0 -144.0143244491885 0)"><path d="M0 0 C-48 0, -240.02 0, -288.03 0" stroke="#e03131" stroke-width="1.5" fill="none" stroke-dasharray="8 9"></path></g><g transform="translate(624.9061810945013 377.1646532725854) rotate(0 -144.0143244491885 0)"><path d="M0 0 L-13.59 6.34 L-13.59 -6.34 L0 0" stroke="none" stroke-width="0" fill="#e03131" fill-rule="evenodd"></path><path d="M0 0 C-3.08 1.43, -6.15 2.87, -13.59 6.34 M-13.59 6.34 C-13.59 1.46, -13.59 -3.43, -13.59 -6.34 M-13.59 -6.34 C-9.67 -4.51, -5.75 -2.68, 0 0 M0 0 C0 0, 0 0, 0 0" stroke="#e03131" stroke-width="1.5" fill="none"></path></g></g><mask id="mask-4GR8XLRksmaJqWitJkYHb"><rect x="0" y="0" fill="#fff" width="1012.9348299928783" height="477.1646532725854"></rect><rect x="411.88389918681673" y="367.1646532725845" fill="#000" width="138.0159149169922" height="20" opacity="1"></rect></mask><g transform="translate(411.88389918681673 367.1646532725845) rotate(0 69.0079574584961 10)"><text x="69.0079574584961" y="0" font-family="Virgil, Segoe UI Emoji" font-size="16px" fill="#e03131" text-anchor="middle" style="white-space: pre;" direction="ltr" dominant-baseline="text-before-edge">no clusters found</text></g><g stroke-linecap="round" transform="translate(524.0962774300876 391.4542350632919) rotate(0 106.44407787044418 35.15579541700936)"><path d="M17.58 0 L195.31 0 L203 1.1 L208.49 4.39 L210.42 6.87 L212.61 13.46 L212.89 52.73 L211.79 60.42 L208.49 65.92 L206.02 67.84 L199.43 70.04 L195.31 70.31 L17.58 70.31 L9.89 69.21 L4.39 65.92 L2.47 63.45 L0.27 56.85 L0.27 13.46 L1.1 9.89 L4.39 4.39 L9.89 1.1 L17.58 0" stroke="none" stroke-width="0" fill="#ffc9c9"></path><path d="M17.58 0 M17.58 0 C58.7 0, 99.82 0, 195.31 0 M17.58 0 C77.65 0, 137.71 0, 195.31 0 M195.31 0 C207.03 0, 212.89 5.86, 212.89 17.58 M195.31 0 C207.03 0, 212.89 5.86, 212.89 17.58 M212.89 17.58 C212.89 27.98, 212.89 38.38, 212.89 52.73 M212.89 17.58 C212.89 26.96, 212.89 36.34, 212.89 52.73 M212.89 52.73 C212.89 64.45, 207.03 70.31, 195.31 70.31 M212.89 52.73 C212.89 64.45, 207.03 70.31, 195.31 70.31 M195.31 70.31 C149.29 70.31, 103.26 70.31, 17.58 70.31 M195.31 70.31 C152.9 70.31, 110.5 70.31, 17.58 70.31 M17.58 70.31 C5.86 70.31, 0 64.45, 0 52.73 M17.58 70.31 C5.86 70.31, 0 64.45, 0 52.73 M0 52.73 C0 41.75, 0 30.76, 0 17.58 M0 52.73 C0 40.26, 0 27.78, 0 17.58 M0 17.58 C0 5.86, 5.86 0, 17.58 0 M0 17.58 C0 5.86, 5.86 0, 17.58 0" stroke="#e64980" stroke-width="1" fill="none"></path></g><g transform="translate(547.5080750786105 405.8994734971875) rotate(0 82.51995086669922 19.999999999999545)"><text x="82.51995086669922" y="0" font-family="Virgil, Segoe UI Emoji" font-size="16px" fill="#e64980" text-anchor="middle" style="white-space: pre;" direction="ltr" dominant-baseline="text-before-edge">error: can't schedule</text><text x="82.51995086669922" y="20" font-family="Virgil, Segoe UI Emoji" font-size="16px" fill="#e64980" text-anchor="middle" style="white-space: pre;" direction="ltr" dominant-baseline="text-before-edge">Promise Dependencies</text></g></svg>
