<svg version="1.1" xmlns="http://www.w3.org/2000/svg" viewBox="0 0 1047.9955601178153 376.98199639465565">
  <!-- svg-source:excalidraw -->
  
  <defs>
    <style class="style-fonts">
      @font-face {
        font-family: "Virgil";
        src: url("https://excalidraw.com/Virgil.woff2");
      }
      @font-face {
        font-family: "Cascadia";
        src: url("https://excalidraw.com/Cascadia.woff2");
      }
    </style>
  </defs>
  <rect x="0" y="0" width="1047.9955601178153" height="376.98199639465565" fill="#ffffff"></rect><g mask="url(#mask-rhLsx3B3GVveE0L1Vk06m)" stroke-linecap="round"><g transform="translate(579.5959105399397 106.5270646428271) rotate(0 63.12492468679466 36.74877300806838)"><path d="M0 0 C14.27 1, 64.57 -6.47, 85.61 6 C106.65 18.47, 119.48 63.35, 126.25 74.81 M0 0 C14.27 1, 64.57 -6.47, 85.61 6 C106.65 18.47, 119.48 63.35, 126.25 74.81" stroke="#1971c2" stroke-width="4" fill="none"></path></g><g transform="translate(579.5959105399397 106.5270646428271) rotate(0 63.12492468679466 36.74877300806838)"><path d="M126.25 74.81 L114.94 64.96 L126.53 59.82 L126.25 74.81" stroke="none" stroke-width="0" fill="#1971c2" fill-rule="evenodd"></path><path d="M126.25 74.81 C122.44 71.49, 118.63 68.17, 114.94 64.96 M126.25 74.81 C121.92 71.04, 117.59 67.27, 114.94 64.96 M114.94 64.96 C117.73 63.72, 120.51 62.49, 126.53 59.82 M114.94 64.96 C117.76 63.71, 120.57 62.46, 126.53 59.82 M126.53 59.82 C126.47 62.93, 126.42 66.05, 126.25 74.81 M126.53 59.82 C126.46 63.74, 126.39 67.66, 126.25 74.81 M126.25 74.81 C126.25 74.81, 126.25 74.81, 126.25 74.81 M126.25 74.81 C126.25 74.81, 126.25 74.81, 126.25 74.81" stroke="#1971c2" stroke-width="4" fill="none"></path></g></g><mask id="mask-rhLsx3B3GVveE0L1Vk06m"><rect x="0" y="0" fill="#fff" width="805.845759913529" height="281.3417958509017"></rect><rect x="632.1874390542466" y="92.52796161391598" fill="#000" width="66.03195190429688" height="40" opacity="1"></rect></mask><g transform="translate(632.1874390542466 92.52796161391598) rotate(0 10.533396172487755 50.747876036979505)"><text x="33.01597595214844" y="0" font-family="Virgil, Segoe UI Emoji" font-size="16px" fill="#1971c2" text-anchor="middle" style="white-space: pre;" direction="ltr" dominant-baseline="text-before-edge">jenkins</text><text x="33.01597595214844" y="20" font-family="Virgil, Segoe UI Emoji" font-size="16px" fill="#1971c2" text-anchor="middle" style="white-space: pre;" direction="ltr" dominant-baseline="text-before-edge">manifest</text></g><g stroke-linecap="round" transform="translate(95.57865078589566 71.69966214956185) rotate(0 26.36749200845952 40.011203957372345)"><path d="M-0.44 -0.58 L51.52 0.97 L53.31 79.26 L-1.33 79.94" stroke="none" stroke-width="0" fill="#fff"></path><path d="M-1.65 -1.51 C17.66 -1.34, 38.11 0.86, 54.11 1.81 M-0.55 -0.4 C21.71 -0.11, 41.52 -0.85, 53.73 0.73 M52.69 -0.6 C53.11 25.19, 51.71 47.4, 51.02 80.15 M53.34 -0.77 C54.06 28.81, 54.06 59.1, 53.14 80.99 M52.62 81.45 C36.38 80.78, 17.25 78.05, 1.56 79.34 M52.29 80.69 C39.96 80.54, 27.19 79.62, 0.68 79.97 M-1.82 79.97 C-0.64 60.06, -1.08 38.44, -1.8 -0.11 M0 79.87 C-0.1 60.69, -1.5 40.34, -0.68 0.03" stroke="#2f9e44" stroke-width="2" fill="none"></path></g><g stroke-linecap="round"><g transform="translate(103.35840926430865 105.72011317036777) rotate(0 16.984497403795785 -0.671067579783994)"><path d="M-1.08 -0.07 C3.93 0.14, 23.53 1.26, 29.53 0.89 C35.53 0.51, 34.09 -1.85, 34.93 -2.31 M0.56 -1.14 C6 -1.24, 26.29 -0.86, 31.91 -0.83 C37.52 -0.8, 33.79 -0.44, 34.26 -0.99" stroke="#2f9e44" stroke-width="1" fill="none"></path></g></g><mask></mask><g stroke-linecap="round"><g transform="translate(104.74265745042385 82.24310773868092) rotate(0 16.593003808951835 -0.6609226563832635)"><path d="M-0.63 0.77 C1.67 0.43, 7 -2, 12.74 -2.09 C18.48 -2.18, 30.19 0.14, 33.82 0.25 M1.23 0.13 C3.49 0, 6.6 -0.22, 11.89 -0.55 C17.17 -0.88, 29.1 -1.77, 32.96 -1.83" stroke="#2f9e44" stroke-width="1" fill="none"></path></g></g><mask></mask><g stroke-linecap="round"><g transform="translate(104.68550471430581 132.52766658549444) rotate(0 17.442520641010105 -0.5166764494542804)"><path d="M0.18 0 C3.54 -0.08, 14.79 0.21, 19.53 0.3 C24.27 0.39, 25.87 0.98, 28.6 0.55 C31.33 0.12, 34.66 -1.9, 35.91 -2.28 M-1.18 -1.04 C2.06 -1.55, 13.6 -1.94, 18.49 -1.56 C23.37 -1.18, 25.19 1.25, 28.12 1.25 C31.05 1.24, 34.98 -1.15, 36.07 -1.6" stroke="#2f9e44" stroke-width="1" fill="none"></path></g></g><mask></mask><g stroke-linecap="round"><g transform="translate(102.30981075462296 140.91644923805688) rotate(0 20.26041874702082 -0.622892554192731)"><path d="M-0.18 0.49 C1.14 0.15, 6.11 -1.73, 8.12 -2.05 C10.13 -2.37, 7.47 -1.82, 11.88 -1.44 C16.28 -1.07, 29.82 0.36, 34.55 0.19 C39.28 0.03, 39.14 -2.18, 40.25 -2.45 M-1.73 -0.29 C-0.54 -0.53, 5.32 -1.09, 7.45 -1.13 C9.58 -1.17, 6.47 -0.93, 11.03 -0.55 C15.59 -0.17, 29.61 1.47, 34.81 1.16 C40.02 0.85, 41.51 -1.87, 42.25 -2.44" stroke="#2f9e44" stroke-width="1" fill="none"></path></g></g><mask></mask><g stroke-linecap="round"><g transform="translate(102.52233886990325 93.48018373014747) rotate(0 17.20063751929888 0.42152728909604775)"><path d="M0.53 -1.18 C2.8 -1.47, 7.66 -1.64, 13.42 -1.25 C19.17 -0.87, 31.5 0.82, 35.05 1.14 M-0.65 0.82 C1.46 0.61, 6.56 -0.4, 12.38 -0.14 C18.21 0.11, 30.57 2.07, 34.3 2.32" stroke="#2f9e44" stroke-width="1" fill="none"></path></g></g><mask></mask><g stroke-linecap="round"><g transform="translate(102.60253839075631 119.20902247832964) rotate(0 17.224549902868375 0.926281078322063)"><path d="M-0.16 -0.81 C0.76 -0.48, 3.84 0.86, 6.07 0.8 C8.3 0.74, 8.31 -1.33, 13.23 -1.17 C18.15 -1.01, 32.04 1.45, 35.6 1.75 M-1.7 1.37 C-0.98 1.99, 2.81 2.47, 5.14 2.2 C7.47 1.93, 7.11 -0.38, 12.28 -0.24 C17.45 -0.1, 32.11 2.9, 36.15 3.03" stroke="#2f9e44" stroke-width="1" fill="none"></path></g></g><mask></mask><g transform="translate(355.46035637899513 34.959433998388704) rotate(0 36.03831445045239 12.720156798221979)"><text x="0" y="0" font-family="Virgil, Segoe UI Emoji" font-size="20.093863545069876px" fill="#5f3dc4" text-anchor="start" style="white-space: pre;" direction="ltr" dominant-baseline="text-before-edge">Promise</text></g><g stroke-linecap="round" transform="translate(274.53955807076636 10) rotate(0 163.69224501623853 101.45394873267742)"><path d="M32 0 M32 0 C119.26 0, 206.51 0, 295.38 0 M32 0 C109.07 0, 186.14 0, 295.38 0 M295.38 0 C316.72 0, 327.38 10.67, 327.38 32 M295.38 0 C316.72 0, 327.38 10.67, 327.38 32 M327.38 32 C327.38 78.7, 327.38 125.39, 327.38 170.91 M327.38 32 C327.38 63.67, 327.38 95.34, 327.38 170.91 M327.38 170.91 C327.38 192.24, 316.72 202.91, 295.38 202.91 M327.38 170.91 C327.38 192.24, 316.72 202.91, 295.38 202.91 M295.38 202.91 C226.28 202.91, 157.17 202.91, 32 202.91 M295.38 202.91 C226.9 202.91, 158.42 202.91, 32 202.91 M32 202.91 C10.67 202.91, 0 192.24, 0 170.91 M32 202.91 C10.67 202.91, 0 192.24, 0 170.91 M0 170.91 C0 130.53, 0 90.14, 0 32 M0 170.91 C0 115.51, 0 60.12, 0 32 M0 32 C0 10.67, 10.67 0, 32 0 M0 32 C0 10.67, 10.67 0, 32 0" stroke="#343a40" stroke-width="2" fill="none"></path></g><g stroke-opacity="0.4" fill-opacity="0.4" stroke-linecap="round" transform="translate(855.4603563789951 74.9594339983887) rotate(0 79.70216915175024 31.37013205864514)"><path d="M4.18 3.63 C4.18 3.63, 4.18 3.63, 4.18 3.63 M4.18 3.63 C4.18 3.63, 4.18 3.63, 4.18 3.63 M1.29 13.05 C4.83 8.97, 8.37 4.9, 10.47 2.48 M1.29 13.05 C3.14 10.92, 4.99 8.79, 10.47 2.48 M1.03 19.44 C5.52 14.27, 10.01 9.11, 16.77 1.33 M1.03 19.44 C7.03 12.54, 13.02 5.64, 16.77 1.33 M1.42 25.09 C8.03 17.49, 14.64 9.89, 22.42 0.94 M1.42 25.09 C7.51 18.08, 13.6 11.08, 22.42 0.94 M1.16 31.48 C10.78 20.42, 20.4 9.35, 27.4 1.3 M1.16 31.48 C8.61 22.92, 16.05 14.36, 27.4 1.3 M1.56 37.13 C10.34 27.03, 19.12 16.92, 33.05 0.9 M1.56 37.13 C8.7 28.91, 15.84 20.69, 33.05 0.9 M1.29 43.53 C10.49 32.94, 19.69 22.36, 38.03 1.26 M1.29 43.53 C9.68 33.88, 18.07 24.23, 38.03 1.26 M0.38 50.68 C15.8 32.94, 31.22 15.2, 43.68 0.87 M0.38 50.68 C12.3 36.96, 24.23 23.24, 43.68 0.87 M2.08 54.81 C18.99 35.37, 35.89 15.92, 48.66 1.23 M2.08 54.81 C19.24 35.08, 36.39 15.34, 48.66 1.23 M4.45 58.19 C16.67 44.13, 28.89 30.07, 54.31 0.83 M4.45 58.19 C22.1 37.88, 39.76 17.57, 54.31 0.83 M6.81 61.57 C17.32 49.48, 27.83 37.39, 59.29 1.19 M6.81 61.57 C20.54 45.77, 34.28 29.97, 59.29 1.19 M10.48 63.44 C30.34 40.6, 50.2 17.76, 64.94 0.8 M10.48 63.44 C28.76 42.41, 47.05 21.38, 64.94 0.8 M16.13 63.04 C28.44 48.87, 40.76 34.7, 69.92 1.16 M16.13 63.04 C36.1 40.07, 56.07 17.1, 69.92 1.16 M21.11 63.4 C40.39 41.23, 59.66 19.06, 75.57 0.76 M21.11 63.4 C40.06 41.61, 59 19.82, 75.57 0.76 M26.76 63.01 C47.52 39.13, 68.28 15.25, 80.55 1.12 M26.76 63.01 C46.36 40.46, 65.96 17.91, 80.55 1.12 M31.74 63.37 C51.78 40.32, 71.82 17.27, 85.54 1.48 M31.74 63.37 C46.43 46.48, 61.11 29.59, 85.54 1.48 M37.39 62.98 C57.73 39.57, 78.08 16.17, 91.18 1.09 M37.39 62.98 C48.86 49.77, 60.34 36.57, 91.18 1.09 M42.37 63.34 C53.14 50.96, 63.9 38.57, 96.17 1.45 M42.37 63.34 C55.7 48, 69.04 32.67, 96.17 1.45 M48.02 62.94 C68.64 39.22, 89.26 15.5, 101.81 1.05 M48.02 62.94 C63.88 44.69, 79.75 26.44, 101.81 1.05 M53 63.3 C71.12 42.46, 89.24 21.61, 106.8 1.41 M53 63.3 C72.6 40.76, 92.19 18.22, 106.8 1.41 M58.65 62.91 C77.42 41.31, 96.2 19.71, 112.44 1.02 M58.65 62.91 C74.28 44.93, 89.91 26.94, 112.44 1.02 M63.63 63.27 C79.95 44.5, 96.26 25.74, 117.43 1.38 M63.63 63.27 C83.46 40.46, 103.28 17.66, 117.43 1.38 M69.28 62.87 C85.06 44.71, 100.85 26.56, 123.07 0.99 M69.28 62.87 C84.69 45.14, 100.11 27.41, 123.07 0.99 M74.26 63.23 C92.55 42.19, 110.84 21.16, 128.06 1.35 M74.26 63.23 C93.72 40.85, 113.18 18.46, 128.06 1.35 M79.91 62.84 C90.93 50.16, 101.96 37.47, 133.7 0.95 M79.91 62.84 C94.63 45.9, 109.36 28.96, 133.7 0.95 M84.89 63.2 C101.47 44.13, 118.04 25.06, 138.69 1.31 M84.89 63.2 C101.01 44.66, 117.13 26.12, 138.69 1.31 M90.54 62.8 C108.95 41.62, 127.36 20.44, 144.33 0.92 M90.54 62.8 C103.87 47.47, 117.19 32.14, 144.33 0.92 M95.52 63.16 C116.45 39.09, 137.38 15.01, 149.32 1.28 M95.52 63.16 C111.27 45.06, 127.01 26.95, 149.32 1.28 M101.17 62.77 C118.5 42.83, 135.83 22.89, 153 3.15 M101.17 62.77 C117.17 44.36, 133.18 25.94, 153 3.15 M106.15 63.13 C125.58 40.79, 145 18.44, 156.67 5.02 M106.15 63.13 C121.6 45.36, 137.05 27.59, 156.67 5.02 M111.8 62.73 C124.88 47.69, 137.96 32.64, 158.38 9.15 M111.8 62.73 C128.66 43.34, 145.51 23.95, 158.38 9.15 M116.78 63.09 C126.15 52.32, 135.52 41.54, 160.08 13.28 M116.78 63.09 C128 50.19, 139.21 37.29, 160.08 13.28 M121.77 63.45 C131.49 52.28, 141.2 41.1, 160.48 18.93 M121.77 63.45 C130.16 53.81, 138.55 44.16, 160.48 18.93 M127.41 63.06 C134.86 54.49, 142.31 45.92, 160.22 25.32 M127.41 63.06 C138.13 50.73, 148.85 38.4, 160.22 25.32 M132.4 63.42 C143.26 50.92, 154.12 38.43, 160.61 30.97 M132.4 63.42 C140.51 54.09, 148.62 44.76, 160.61 30.97 M138.04 63.03 C144.27 55.86, 150.5 48.7, 160.35 37.36 M138.04 63.03 C143.36 56.92, 148.67 50.81, 160.35 37.36 M143.03 63.39 C150 55.37, 156.96 47.36, 160.75 43.01 M143.03 63.39 C148.23 57.41, 153.42 51.44, 160.75 43.01 M148.68 62.99 C151.86 59.33, 155.05 55.66, 161.14 48.65 M148.68 62.99 C153.37 57.58, 158.07 52.18, 161.14 48.65 M5.87 60.31 C5.87 60.31, 5.87 60.31, 5.87 60.31 M5.87 60.31 C5.87 60.31, 5.87 60.31, 5.87 60.31 M10.76 59.26 C6.96 55.96, 3.16 52.66, 0.19 50.08 M10.76 59.26 C7.78 56.67, 4.8 54.08, 0.19 50.08 M17.91 60.18 C12.28 55.29, 6.66 50.39, 0.55 45.09 M17.91 60.18 C12.54 55.51, 7.17 50.84, 0.55 45.09 M24.31 60.44 C19.29 56.07, 14.26 51.71, 0.91 40.1 M24.31 60.44 C16.21 53.4, 8.1 46.35, 0.91 40.1 M29.95 60.05 C23.5 54.43, 17.04 48.82, 0.52 34.46 M29.95 60.05 C18.73 50.29, 7.52 40.54, 0.52 34.46 M36.35 60.31 C23.41 49.06, 10.46 37.8, 0.88 29.47 M36.35 60.31 C25.07 50.51, 13.8 40.7, 0.88 29.47 M41.99 59.91 C28.18 47.9, 14.36 35.9, 0.49 23.83 M41.99 59.91 C29.09 48.69, 16.18 37.47, 0.49 23.83 M48.39 60.17 C30.59 44.7, 12.8 29.23, 0.85 18.84 M48.39 60.17 C29.41 43.67, 10.42 27.17, 0.85 18.84 M54.79 60.44 C37.05 45.02, 19.31 29.6, 0.45 13.2 M54.79 60.44 C41.69 49.05, 28.58 37.65, 0.45 13.2 M60.43 60.04 C41.16 43.29, 21.89 26.53, 1.57 8.87 M60.43 60.04 C39.95 42.24, 19.47 24.44, 1.57 8.87 M66.83 60.3 C52.1 47.5, 37.37 34.69, 3.44 5.19 M66.83 60.3 C52.95 48.24, 39.07 36.18, 3.44 5.19 M72.47 59.91 C50.62 40.91, 28.77 21.92, 6.06 2.18 M72.47 59.91 C47.53 38.22, 22.58 16.54, 6.06 2.18 M78.87 60.17 C54.36 38.86, 29.84 17.55, 9.44 -0.19 M78.87 60.17 C58.31 42.3, 37.76 24.43, 9.44 -0.19 M85.27 60.43 C71.09 48.11, 56.91 35.78, 15.84 0.07 M85.27 60.43 C67.97 45.39, 50.67 30.35, 15.84 0.07 M90.91 60.04 C65.82 38.23, 40.73 16.41, 21.48 -0.32 M90.91 60.04 C75 46.21, 59.09 32.37, 21.48 -0.32 M97.31 60.3 C69.64 36.25, 41.97 12.19, 27.88 -0.06 M97.31 60.3 C70.24 36.76, 43.16 13.23, 27.88 -0.06 M102.95 59.9 C89.2 47.95, 75.44 35.99, 34.27 0.2 M102.95 59.9 C76.9 37.26, 50.85 14.61, 34.27 0.2 M109.35 60.16 C90.08 43.41, 70.8 26.65, 39.92 -0.19 M109.35 60.16 C83.39 37.6, 57.43 15.03, 39.92 -0.19 M115.75 60.43 C89.14 37.29, 62.52 14.16, 46.32 0.07 M115.75 60.43 C100.99 47.6, 86.23 34.76, 46.32 0.07 M121.39 60.03 C105.59 46.29, 89.79 32.56, 51.96 -0.33 M121.39 60.03 C105.3 46.04, 89.2 32.05, 51.96 -0.33 M127.79 60.29 C107.37 42.55, 86.96 24.8, 58.36 -0.06 M127.79 60.29 C100.06 36.19, 72.33 12.08, 58.36 -0.06 M133.43 59.9 C109.06 38.72, 84.7 17.53, 64.75 0.2 M133.43 59.9 C109.45 39.06, 85.48 18.21, 64.75 0.2 M139.83 60.16 C119.93 42.86, 100.03 25.57, 70.4 -0.2 M139.83 60.16 C117.95 41.14, 96.08 22.13, 70.4 -0.2 M147.74 61.73 C120.36 37.93, 92.97 14.13, 76.8 0.06 M147.74 61.73 C121.78 39.16, 95.81 16.6, 76.8 0.06 M152.63 60.68 C125.59 37.18, 98.54 13.67, 82.44 -0.33 M152.63 60.68 C128.79 39.96, 104.96 19.25, 82.44 -0.33 M156.01 58.32 C131.28 36.83, 106.56 15.34, 88.84 -0.07 M156.01 58.32 C137.39 42.14, 118.78 25.96, 88.84 -0.07 M157.87 54.65 C133.77 33.69, 109.67 12.74, 95.23 0.19 M157.87 54.65 C135.48 35.18, 113.08 15.71, 95.23 0.19 M160.5 51.63 C138.54 32.54, 116.57 13.44, 100.88 -0.2 M160.5 51.63 C140.7 34.42, 120.9 17.21, 100.88 -0.2 M160.1 45.98 C141.61 29.91, 123.12 13.84, 107.27 0.06 M160.1 45.98 C146.46 34.12, 132.81 22.26, 107.27 0.06 M160.46 41 C142.66 25.52, 124.85 10.04, 112.92 -0.34 M160.46 41 C144.54 27.15, 128.61 13.31, 112.92 -0.34 M160.07 35.35 C147.18 24.15, 134.29 12.94, 119.32 -0.07 M160.07 35.35 C150.46 27, 140.84 18.64, 119.32 -0.07 M160.43 30.37 C146.73 18.46, 133.04 6.56, 125.71 0.19 M160.43 30.37 C148.46 19.96, 136.5 9.56, 125.71 0.19 M160.04 24.72 C148.87 15.02, 137.71 5.32, 131.36 -0.21 M160.04 24.72 C151.75 17.52, 143.46 10.32, 131.36 -0.21 M160.4 19.74 C152.32 12.72, 144.25 5.7, 137.75 0.05 M160.4 19.74 C151.91 12.36, 143.42 4.98, 137.75 0.05 M160 14.09 C155.94 10.56, 151.88 7.03, 143.4 -0.34 M160 14.09 C154.67 9.46, 149.34 4.83, 143.4 -0.34 M158.85 7.79 C157.12 6.28, 155.38 4.78, 150.55 0.58 M158.85 7.79 C156.41 5.68, 153.98 3.56, 150.55 0.58" stroke="#a5d8ff" stroke-width="0.5" fill="none"></path><path d="M15.69 0 M15.69 0 C44.98 0, 74.27 0, 143.72 0 M15.69 0 C46.41 0, 77.14 0, 143.72 0 M143.72 0 C154.18 0, 159.4 5.23, 159.4 15.69 M143.72 0 C154.18 0, 159.4 5.23, 159.4 15.69 M159.4 15.69 C159.4 27.35, 159.4 39.02, 159.4 47.06 M159.4 15.69 C159.4 27.95, 159.4 40.22, 159.4 47.06 M159.4 47.06 C159.4 57.51, 154.18 62.74, 143.72 62.74 M159.4 47.06 C159.4 57.51, 154.18 62.74, 143.72 62.74 M143.72 62.74 C115.26 62.74, 86.81 62.74, 15.69 62.74 M143.72 62.74 C100.99 62.74, 58.26 62.74, 15.69 62.74 M15.69 62.74 C5.23 62.74, 0 57.51, 0 47.06 M15.69 62.74 C5.23 62.74, 0 57.51, 0 47.06 M0 47.06 C0 40.01, 0 32.95, 0 15.69 M0 47.06 C0 37.14, 0 27.23, 0 15.69 M0 15.69 C0 5.23, 5.23 0, 15.69 0 M0 15.69 C0 5.23, 5.23 0, 15.69 0" stroke="#1971c2" stroke-width="1" fill="none"></path></g><g transform="translate(894.7103924973144 84.24860909542258) rotate(0 39.99634552001953 23.24335640461868)"><text x="39.99634552001953" y="0" font-family="Virgil, Segoe UI Emoji" font-size="18.59468512369525px" fill="#1971c2" text-anchor="middle" style="white-space: pre;" direction="ltr" dominant-baseline="text-before-edge">Jenkins</text><text x="39.99634552001953" y="23.243356404619064" font-family="Virgil, Segoe UI Emoji" font-size="18.59468512369525px" fill="#1971c2" text-anchor="middle" style="white-space: pre;" direction="ltr" dominant-baseline="text-before-edge">Instance</text></g><g stroke-linecap="round" transform="translate(835.4603563789951 14.959433998388704) rotate(0 101.2676018694101 84.68645903333254)"><path d="M32 0 M32 0 C61.37 0, 90.75 0, 170.54 0 M32 0 C70.55 0, 109.1 0, 170.54 0 M170.54 0 C191.87 0, 202.54 10.67, 202.54 32 M170.54 0 C191.87 0, 202.54 10.67, 202.54 32 M202.54 32 C202.54 62.87, 202.54 93.74, 202.54 137.37 M202.54 32 C202.54 71.57, 202.54 111.15, 202.54 137.37 M202.54 137.37 C202.54 158.71, 191.87 169.37, 170.54 169.37 M202.54 137.37 C202.54 158.71, 191.87 169.37, 170.54 169.37 M170.54 169.37 C128.42 169.37, 86.3 169.37, 32 169.37 M170.54 169.37 C121.96 169.37, 73.38 169.37, 32 169.37 M32 169.37 C10.67 169.37, 0 158.71, 0 137.37 M32 169.37 C10.67 169.37, 0 158.71, 0 137.37 M0 137.37 C0 110.92, 0 84.46, 0 32 M0 137.37 C0 109.76, 0 82.14, 0 32 M0 32 C0 10.67, 10.67 0, 32 0 M0 32 C0 10.67, 10.67 0, 32 0" stroke="#343a40" stroke-width="2" fill="none"></path></g><g stroke-linecap="round" transform="translate(651.0554159327862 233.13108043161265) rotate(269.94514152181193 66.34136172506032 67.44500868647901)"><path d="M32 0 L108.18 0.5 L114.68 2 L120.18 4.5 L124.68 8 L128.18 12.5 L130.68 18 L132.18 24.5 L132.68 32 L132.18 110.39 L130.68 116.89 L128.18 122.39 L124.68 126.89 L120.18 130.39 L114.68 132.89 L108.18 134.39 L100.68 134.89 L24.5 134.39 L18 132.89 L12.5 130.39 L8 126.89 L4.5 122.39 L2 116.89 L0.5 110.39 L0 102.89 L0.5 24.5 L2 18 L4.5 12.5 L8 8 L12.5 4.5 L18 2 L24.5 0.5 L32 0" stroke="none" stroke-width="0" fill="#ced4da"></path><path d="M32 0 M32 0 C45.79 0, 59.59 0, 100.68 0 M32 0 C49.86 0, 67.73 0, 100.68 0 M100.68 0 C122.02 0, 132.68 10.67, 132.68 32 M100.68 0 C122.02 0, 132.68 10.67, 132.68 32 M132.68 32 C132.68 57.25, 132.68 82.49, 132.68 102.89 M132.68 32 C132.68 51.53, 132.68 71.05, 132.68 102.89 M132.68 102.89 C132.68 124.22, 122.02 134.89, 100.68 134.89 M132.68 102.89 C132.68 124.22, 122.02 134.89, 100.68 134.89 M100.68 134.89 C85.04 134.89, 69.41 134.89, 32 134.89 M100.68 134.89 C76.2 134.89, 51.72 134.89, 32 134.89 M32 134.89 C10.67 134.89, 0 124.22, 0 102.89 M32 134.89 C10.67 134.89, 0 124.22, 0 102.89 M0 102.89 C0 86.44, 0 69.99, 0 32 M0 102.89 C0 86.65, 0 70.42, 0 32 M0 32 C0 10.67, 10.67 0, 32 0 M0 32 C0 10.67, 10.67 0, 32 0" stroke="#343a40" stroke-width="1" fill="none"></path></g><g stroke-linecap="round" transform="translate(691.8217953248336 170.76039396479246) rotate(269.94514152181193 25.79739432653264 67.61133962914573)"><path d="M51.59 67.61 C51.59 70.55, 51.52 73.52, 51.37 76.44 C51.23 79.35, 51.01 82.27, 50.72 85.11 C50.43 87.95, 50.06 90.77, 49.63 93.49 C49.2 96.2, 48.7 98.87, 48.14 101.42 C47.58 103.96, 46.95 106.44, 46.26 108.77 C45.58 111.1, 44.83 113.34, 44.04 115.42 C43.25 117.5, 42.39 119.46, 41.5 121.25 C40.61 123.04, 39.67 124.69, 38.7 126.16 C37.72 127.64, 36.71 128.95, 35.67 130.08 C34.63 131.2, 33.56 132.16, 32.47 132.92 C31.39 133.68, 30.28 134.26, 29.16 134.64 C28.05 135.03, 26.92 135.22, 25.8 135.22 C24.67 135.22, 23.54 135.03, 22.43 134.64 C21.32 134.26, 20.2 133.68, 19.12 132.92 C18.04 132.16, 16.96 131.2, 15.93 130.08 C14.89 128.95, 13.87 127.64, 12.9 126.16 C11.93 124.69, 10.98 123.04, 10.09 121.25 C9.2 119.46, 8.35 117.5, 7.56 115.42 C6.76 113.34, 6.01 111.1, 5.33 108.77 C4.65 106.44, 4.02 103.96, 3.46 101.42 C2.89 98.87, 2.39 96.2, 1.96 93.49 C1.53 90.77, 1.17 87.95, 0.88 85.11 C0.59 82.27, 0.37 79.35, 0.22 76.44 C0.07 73.52, 0 70.55, 0 67.61 C0 64.67, 0.07 61.7, 0.22 58.79 C0.37 55.87, 0.59 52.95, 0.88 50.11 C1.17 47.27, 1.53 44.46, 1.96 41.74 C2.39 39.02, 2.89 36.35, 3.46 33.81 C4.02 31.26, 4.65 28.79, 5.33 26.45 C6.01 24.12, 6.76 21.88, 7.56 19.8 C8.35 17.72, 9.2 15.76, 10.09 13.97 C10.98 12.18, 11.93 10.53, 12.9 9.06 C13.87 7.59, 14.89 6.27, 15.93 5.15 C16.96 4.02, 18.04 3.07, 19.12 2.3 C20.2 1.54, 21.32 0.96, 22.43 0.58 C23.54 0.19, 24.67 0, 25.8 0 C26.92 0, 28.05 0.19, 29.16 0.58 C30.28 0.96, 31.39 1.54, 32.47 2.3 C33.56 3.07, 34.63 4.02, 35.67 5.15 C36.71 6.27, 37.72 7.59, 38.7 9.06 C39.67 10.53, 40.61 12.18, 41.5 13.97 C42.39 15.76, 43.25 17.72, 44.04 19.8 C44.83 21.88, 45.58 24.12, 46.26 26.45 C46.95 28.79, 47.58 31.26, 48.14 33.81 C48.7 36.35, 49.2 39.02, 49.63 41.74 C50.06 44.46, 50.43 47.27, 50.72 50.11 C51.01 52.95, 51.23 55.87, 51.37 58.79 C51.52 61.7, 51.56 66.14, 51.59 67.61 C51.63 69.08, 51.63 66.14, 51.59 67.61" stroke="none" stroke-width="0" fill="#868e96"></path><path d="M51.59 67.61 C51.59 70.55, 51.52 73.52, 51.37 76.44 C51.23 79.35, 51.01 82.27, 50.72 85.11 C50.43 87.95, 50.06 90.77, 49.63 93.49 C49.2 96.2, 48.7 98.87, 48.14 101.42 C47.58 103.96, 46.95 106.44, 46.26 108.77 C45.58 111.1, 44.83 113.34, 44.04 115.42 C43.25 117.5, 42.39 119.46, 41.5 121.25 C40.61 123.04, 39.67 124.69, 38.7 126.16 C37.72 127.64, 36.71 128.95, 35.67 130.08 C34.63 131.2, 33.56 132.16, 32.47 132.92 C31.39 133.68, 30.28 134.26, 29.16 134.64 C28.05 135.03, 26.92 135.22, 25.8 135.22 C24.67 135.22, 23.54 135.03, 22.43 134.64 C21.32 134.26, 20.2 133.68, 19.12 132.92 C18.04 132.16, 16.96 131.2, 15.93 130.08 C14.89 128.95, 13.87 127.64, 12.9 126.16 C11.93 124.69, 10.98 123.04, 10.09 121.25 C9.2 119.46, 8.35 117.5, 7.56 115.42 C6.76 113.34, 6.01 111.1, 5.33 108.77 C4.65 106.44, 4.02 103.96, 3.46 101.42 C2.89 98.87, 2.39 96.2, 1.96 93.49 C1.53 90.77, 1.17 87.95, 0.88 85.11 C0.59 82.27, 0.37 79.35, 0.22 76.44 C0.07 73.52, 0 70.55, 0 67.61 C0 64.67, 0.07 61.7, 0.22 58.79 C0.37 55.87, 0.59 52.95, 0.88 50.11 C1.17 47.27, 1.53 44.46, 1.96 41.74 C2.39 39.02, 2.89 36.35, 3.46 33.81 C4.02 31.26, 4.65 28.79, 5.33 26.45 C6.01 24.12, 6.76 21.88, 7.56 19.8 C8.35 17.72, 9.2 15.76, 10.09 13.97 C10.98 12.18, 11.93 10.53, 12.9 9.06 C13.87 7.59, 14.89 6.27, 15.93 5.15 C16.96 4.02, 18.04 3.07, 19.12 2.3 C20.2 1.54, 21.32 0.96, 22.43 0.58 C23.54 0.19, 24.67 0, 25.8 0 C26.92 0, 28.05 0.19, 29.16 0.58 C30.28 0.96, 31.39 1.54, 32.47 2.3 C33.56 3.07, 34.63 4.02, 35.67 5.15 C36.71 6.27, 37.72 7.59, 38.7 9.06 C39.67 10.53, 40.61 12.18, 41.5 13.97 C42.39 15.76, 43.25 17.72, 44.04 19.8 C44.83 21.88, 45.58 24.12, 46.26 26.45 C46.95 28.79, 47.58 31.26, 48.14 33.81 C48.7 36.35, 49.2 39.02, 49.63 41.74 C50.06 44.46, 50.43 47.27, 50.72 50.11 C51.01 52.95, 51.23 55.87, 51.37 58.79 C51.52 61.7, 51.56 66.14, 51.59 67.61 C51.63 69.08, 51.63 66.14, 51.59 67.61" stroke="#343a40" stroke-width="1" fill="none"></path></g><g transform="translate(668.5377677972233 282.7450337557166) rotate(0 47.53571319580078 31.226053965022402)"><text x="47.53571319580078" y="0" font-family="Virgil, Segoe UI Emoji" font-size="16.653895448011987px" fill="#343a40" text-anchor="middle" style="white-space: pre;" direction="ltr" dominant-baseline="text-before-edge">Declarative</text><text x="47.53571319580078" y="20.817369310014982" font-family="Virgil, Segoe UI Emoji" font-size="16.653895448011987px" fill="#343a40" text-anchor="middle" style="white-space: pre;" direction="ltr" dominant-baseline="text-before-edge">State</text><text x="47.53571319580078" y="41.634738620029964" font-family="Virgil, Segoe UI Emoji" font-size="16.653895448011987px" fill="#343a40" text-anchor="middle" style="white-space: pre;" direction="ltr" dominant-baseline="text-before-edge">Store</text></g><g stroke-linecap="round"><g transform="translate(851.9248015304297 102.1481493852425) rotate(181.0889909393324 -60.35803887004499 39.497038812635765)"><path d="M0 0 C-8 10.84, -27.87 51.88, -47.99 65.05 C-68.11 78.21, -108.6 76.67, -120.72 78.99 M0 0 C-8 10.84, -27.87 51.88, -47.99 65.05 C-68.11 78.21, -108.6 76.67, -120.72 78.99" stroke="#2b8a3e" stroke-width="4" fill="none"></path></g><g transform="translate(851.9248015304297 102.1481493852425) rotate(181.0889909393324 -60.35803887004499 39.497038812635765)"><path d="M-120.72 78.99 L-107.74 71.46 L-106.61 84.09 L-120.72 78.99" stroke="none" stroke-width="0" fill="#2b8a3e" fill-rule="evenodd"></path><path d="M-120.72 78.99 C-116.92 76.79, -113.11 74.58, -107.74 71.46 M-120.72 78.99 C-115.63 76.04, -110.55 73.09, -107.74 71.46 M-107.74 71.46 C-107.4 75.3, -107.05 79.14, -106.61 84.09 M-107.74 71.46 C-107.42 75.05, -107.1 78.63, -106.61 84.09 M-106.61 84.09 C-110.15 82.81, -113.69 81.53, -120.72 78.99 M-106.61 84.09 C-110.24 82.78, -113.87 81.47, -120.72 78.99 M-120.72 78.99 C-120.72 78.99, -120.72 78.99, -120.72 78.99 M-120.72 78.99 C-120.72 78.99, -120.72 78.99, -120.72 78.99" stroke="#2b8a3e" stroke-width="4" fill="none"></path></g></g><mask></mask><g stroke-linecap="round" transform="translate(38.02859846383217 65.19626498420257) rotate(0 19.42808070684282 19.3366593329265)"><path d="M4.7 6.73 C4.7 6.73, 4.7 6.73, 4.7 6.73 M4.7 6.73 C4.7 6.73, 4.7 6.73, 4.7 6.73 M1.16 16.9 C4.81 12.7, 8.46 8.5, 14.28 1.81 M1.16 16.9 C4.21 13.38, 7.27 9.86, 14.28 1.81 M0.89 23.3 C5.49 18.01, 10.09 12.72, 20.58 0.66 M0.89 23.3 C5.39 18.13, 9.88 12.96, 20.58 0.66 M2.6 27.44 C10.31 18.57, 18.02 9.7, 24.91 1.78 M2.6 27.44 C8.02 21.2, 13.43 14.97, 24.91 1.78 M4.96 30.81 C10.23 24.75, 15.51 18.69, 29.24 2.89 M4.96 30.81 C10.98 23.89, 17.01 16.96, 29.24 2.89 M7.33 34.19 C14.13 26.36, 20.94 18.53, 32.91 4.76 M7.33 34.19 C15.28 25.04, 23.24 15.89, 32.91 4.76 M10.34 36.82 C16.05 30.25, 21.76 23.68, 35.28 8.14 M10.34 36.82 C16.35 29.91, 22.35 23.01, 35.28 8.14 M14.02 38.69 C22.61 28.8, 31.2 18.92, 37.64 11.52 M14.02 38.69 C21.96 29.55, 29.91 20.41, 37.64 11.52 M18.35 39.8 C25.53 31.54, 32.72 23.27, 38.69 16.41 M18.35 39.8 C23.08 34.36, 27.81 28.92, 38.69 16.41 M23.99 39.41 C29.04 33.6, 34.09 27.79, 40.4 20.54 M23.99 39.41 C28.06 34.73, 32.12 30.06, 40.4 20.54" stroke="#12b886" stroke-width="0.5" fill="none"></path><path d="M38.86 19.34 C38.86 20.46, 38.76 21.59, 38.56 22.69 C38.37 23.8, 38.07 24.9, 37.68 25.95 C37.3 27, 36.82 28.04, 36.25 29 C35.69 29.97, 35.03 30.91, 34.31 31.77 C33.59 32.62, 32.78 33.43, 31.92 34.15 C31.05 34.87, 30.12 35.52, 29.14 36.08 C28.17 36.64, 27.13 37.12, 26.07 37.51 C25.02 37.89, 23.91 38.19, 22.8 38.38 C21.69 38.57, 20.55 38.67, 19.43 38.67 C18.3 38.67, 17.16 38.57, 16.05 38.38 C14.95 38.19, 13.84 37.89, 12.78 37.51 C11.73 37.12, 10.69 36.64, 9.71 36.08 C8.74 35.52, 7.8 34.87, 6.94 34.15 C6.08 33.43, 5.27 32.62, 4.55 31.77 C3.82 30.91, 3.17 29.97, 2.6 29 C2.04 28.04, 1.56 27, 1.17 25.95 C0.79 24.9, 0.49 23.8, 0.3 22.69 C0.1 21.59, 0 20.46, 0 19.34 C0 18.22, 0.1 17.08, 0.3 15.98 C0.49 14.88, 0.79 13.77, 1.17 12.72 C1.56 11.67, 2.04 10.64, 2.6 9.67 C3.17 8.7, 3.82 7.76, 4.55 6.91 C5.27 6.05, 6.08 5.24, 6.94 4.52 C7.8 3.8, 8.74 3.15, 9.71 2.59 C10.69 2.03, 11.73 1.55, 12.78 1.17 C13.84 0.78, 14.95 0.49, 16.05 0.29 C17.16 0.1, 18.3 0, 19.43 0 C20.55 0, 21.69 0.1, 22.8 0.29 C23.91 0.49, 25.02 0.78, 26.07 1.17 C27.13 1.55, 28.17 2.03, 29.14 2.59 C30.12 3.15, 31.05 3.8, 31.92 4.52 C32.78 5.24, 33.59 6.05, 34.31 6.91 C35.03 7.76, 35.69 8.7, 36.25 9.67 C36.82 10.64, 37.3 11.67, 37.68 12.72 C38.07 13.77, 38.37 14.88, 38.56 15.98 C38.76 17.08, 38.81 18.78, 38.86 19.34 C38.91 19.9, 38.91 18.78, 38.86 19.34" stroke="#495057" stroke-width="1" fill="none"></path></g><g stroke-linecap="round"><g transform="translate(57.36525779675867 103.86958365005557) rotate(0 0 27.095195485027944)" fill-rule="evenodd"><path d="M-12.59 -0.35 C-12.59 -0.35, -12.59 -0.35, -12.59 -0.35 M-12.59 -0.35 C-12.59 -0.35, -12.59 -0.35, -12.59 -0.35 M-17.44 11.34 C-13.32 6.59, -9.2 1.85, -4.98 -3 M-17.44 11.34 C-14.2 7.61, -10.96 3.88, -4.98 -3 M-22.3 23.02 C-17.5 17.5, -12.71 11.98, -1.3 -1.13 M-22.3 23.02 C-16.52 16.36, -10.73 9.71, -1.3 -1.13 M-21.25 27.9 C-14.5 20.14, -7.74 12.37, 5.65 -3.04 M-21.25 27.9 C-11.66 16.87, -2.07 5.84, 5.65 -3.04 M-23.48 36.57 C-12.35 23.76, -1.21 10.96, 10.64 -2.68 M-23.48 36.57 C-15.66 27.58, -7.85 18.59, 10.64 -2.68 M-24.4 43.72 C-14.56 32.41, -4.72 21.09, 13 0.7 M-24.4 43.72 C-9.48 26.56, 5.45 9.39, 13 0.7 M-24.66 50.12 C-10.49 33.82, 3.67 17.53, 15.36 4.08 M-24.66 50.12 C-12.69 36.35, -0.72 22.58, 15.36 4.08 M-22.95 54.25 C-11.78 41.4, -0.61 28.55, 17.07 8.21 M-22.95 54.25 C-9.51 38.79, 3.93 23.33, 17.07 8.21 M-19.28 56.12 C-7.32 42.37, 4.63 28.62, 19.43 11.59 M-19.28 56.12 C-10.13 45.6, -0.99 35.08, 19.43 11.59 M-14.94 57.23 C-7.61 48.8, -0.28 40.37, 20.48 16.48 M-14.94 57.23 C-4.5 45.22, 5.95 33.2, 20.48 16.48 M-9.96 57.6 C-2.44 48.95, 5.07 40.31, 22.19 20.61 M-9.96 57.6 C0.35 45.74, 10.66 33.88, 22.19 20.61 M-4.97 57.96 C2.23 49.67, 9.43 41.39, 23.9 24.75 M-4.97 57.96 C3.22 48.53, 11.41 39.11, 23.9 24.75 M0.02 58.32 C8.33 48.75, 16.65 39.18, 26.26 28.13 M0.02 58.32 C6.9 50.39, 13.79 42.47, 26.26 28.13 M5.66 57.92 C10.1 52.82, 14.53 47.71, 27.31 33.02 M5.66 57.92 C11.93 50.7, 18.21 43.49, 27.31 33.02 M11.96 56.77 C18.38 49.38, 24.8 42, 28.36 37.9 M11.96 56.77 C16.9 51.09, 21.83 45.41, 28.36 37.9 M16.95 57.13 C21.52 51.87, 26.09 46.61, 29.41 42.79 M16.95 57.13 C21.68 51.68, 26.42 46.24, 29.41 42.79" stroke="#12b886" stroke-width="0.5" fill="none"></path><path d="M0 0 C2.15 0, 8.59 -8.59, 12.89 0 C17.19 8.59, 32.23 42.97, 25.78 51.56 C19.34 60.16, -19.34 60.16, -25.78 51.56 C-32.23 42.97, -17.19 8.59, -12.89 0 C-8.59 -8.59, -2.15 0, 0 0 M0 0 C2.15 0, 8.59 -8.59, 12.89 0 C17.19 8.59, 32.23 42.97, 25.78 51.56 C19.34 60.16, -19.34 60.16, -25.78 51.56 C-32.23 42.97, -17.19 8.59, -12.89 0 C-8.59 -8.59, -2.15 0, 0 0" stroke="#495057" stroke-width="1" fill="none"></path></g></g><mask></mask><g stroke-linecap="round" transform="translate(296.59430371597864 16.913584593141422) rotate(358.92972393214535 3.7680364110324263 19.55595047308725)"><path d="M1.88 0 L5.65 0 L7.07 0.47 L7.54 1.88 L7.54 37.23 L7.07 38.64 L5.65 39.11 L0.47 38.64 L0 37.23 L0 1.88 L0.47 0.47 L1.88 0" stroke="none" stroke-width="0" fill="#7950f2"></path><path d="M1.88 0 M1.88 0 C2.98 0, 4.07 0, 5.65 0 M1.88 0 C3.39 0, 4.89 0, 5.65 0 M5.65 0 C6.91 0, 7.54 0.63, 7.54 1.88 M5.65 0 C6.91 0, 7.54 0.63, 7.54 1.88 M7.54 1.88 C7.54 13.1, 7.54 24.31, 7.54 37.23 M7.54 1.88 C7.54 11.39, 7.54 20.89, 7.54 37.23 M7.54 37.23 C7.54 38.48, 6.91 39.11, 5.65 39.11 M7.54 37.23 C7.54 38.48, 6.91 39.11, 5.65 39.11 M5.65 39.11 C4.68 39.11, 3.72 39.11, 1.88 39.11 M5.65 39.11 C4.31 39.11, 2.97 39.11, 1.88 39.11 M1.88 39.11 C0.63 39.11, 0 38.48, 0 37.23 M1.88 39.11 C0.63 39.11, 0 38.48, 0 37.23 M0 37.23 C0 28.56, 0 19.9, 0 1.88 M0 37.23 C0 24.71, 0 12.2, 0 1.88 M0 1.88 C0 0.63, 0.63 0, 1.88 0 M0 1.88 C0 0.63, 0.63 0, 1.88 0" stroke="transparent" stroke-width="1" fill="none"></path></g><g stroke-linecap="round" transform="translate(310.63094314926366 11.918571669753874) rotate(40.41727686562419 3.7680364110324263 24.785791502693428)"><path d="M1.88 0 L5.65 0 L7.07 0.47 L7.54 1.88 L7.54 47.69 L7.07 49.1 L5.65 49.57 L0.47 49.1 L0 47.69 L0 1.88 L0.47 0.47 L1.88 0" stroke="none" stroke-width="0" fill="#7950f2"></path><path d="M1.88 0 M1.88 0 C3.35 0, 4.82 0, 5.65 0 M1.88 0 C2.76 0, 3.64 0, 5.65 0 M5.65 0 C6.91 0, 7.54 0.63, 7.54 1.88 M5.65 0 C6.91 0, 7.54 0.63, 7.54 1.88 M7.54 1.88 C7.54 13.35, 7.54 24.82, 7.54 47.69 M7.54 1.88 C7.54 12.34, 7.54 22.8, 7.54 47.69 M7.54 47.69 C7.54 48.94, 6.91 49.57, 5.65 49.57 M7.54 47.69 C7.54 48.94, 6.91 49.57, 5.65 49.57 M5.65 49.57 C4.74 49.57, 3.83 49.57, 1.88 49.57 M5.65 49.57 C4.74 49.57, 3.82 49.57, 1.88 49.57 M1.88 49.57 C0.63 49.57, 0 48.94, 0 47.69 M1.88 49.57 C0.63 49.57, 0 48.94, 0 47.69 M0 47.69 C0 31.01, 0 14.33, 0 1.88 M0 47.69 C0 36.33, 0 24.96, 0 1.88 M0 1.88 C0 0.63, 0.63 0, 1.88 0 M0 1.88 C0 0.63, 0.63 0, 1.88 0" stroke="transparent" stroke-width="1" fill="none"></path></g><g stroke-linecap="round" transform="translate(319.2734674141184 30.47358767775586) rotate(139.22073182693399 3.7680364110324263 14.147647249566944)"><path d="M1.88 0 L5.65 0 L7.07 0.47 L7.54 1.88 L7.54 26.41 L7.07 27.82 L5.65 28.3 L0.47 27.82 L0 26.41 L0 1.88 L0.47 0.47 L1.88 0" stroke="none" stroke-width="0" fill="#7950f2"></path><path d="M1.88 0 M1.88 0 C3 0, 4.12 0, 5.65 0 M1.88 0 C3.09 0, 4.29 0, 5.65 0 M5.65 0 C6.91 0, 7.54 0.63, 7.54 1.88 M5.65 0 C6.91 0, 7.54 0.63, 7.54 1.88 M7.54 1.88 C7.54 9.94, 7.54 18.01, 7.54 26.41 M7.54 1.88 C7.54 10.67, 7.54 19.46, 7.54 26.41 M7.54 26.41 C7.54 27.67, 6.91 28.3, 5.65 28.3 M7.54 26.41 C7.54 27.67, 6.91 28.3, 5.65 28.3 M5.65 28.3 C4.3 28.3, 2.94 28.3, 1.88 28.3 M5.65 28.3 C4.19 28.3, 2.72 28.3, 1.88 28.3 M1.88 28.3 C0.63 28.3, 0 27.67, 0 26.41 M1.88 28.3 C0.63 28.3, 0 27.67, 0 26.41 M0 26.41 C0 19.65, 0 12.88, 0 1.88 M0 26.41 C0 17.05, 0 7.68, 0 1.88 M0 1.88 C0 0.63, 0.63 0, 1.88 0 M0 1.88 C0 0.63, 0.63 0, 1.88 0" stroke="transparent" stroke-width="1" fill="none"></path></g><g stroke-linecap="round" transform="translate(295.7269588629042 14.959063689810137) rotate(358.1310915065084 4.207022158495647 4.569555668486828)"><path d="M8.41 4.57 C8.41 4.83, 8.39 5.1, 8.35 5.36 C8.31 5.62, 8.24 5.88, 8.16 6.13 C8.08 6.38, 7.97 6.63, 7.85 6.85 C7.73 7.08, 7.59 7.3, 7.43 7.51 C7.27 7.71, 7.1 7.9, 6.91 8.07 C6.72 8.24, 6.52 8.39, 6.31 8.53 C6.1 8.66, 5.87 8.77, 5.65 8.86 C5.42 8.95, 5.18 9.02, 4.94 9.07 C4.7 9.12, 4.45 9.14, 4.21 9.14 C3.96 9.14, 3.72 9.12, 3.48 9.07 C3.24 9.02, 3 8.95, 2.77 8.86 C2.54 8.77, 2.31 8.66, 2.1 8.53 C1.89 8.39, 1.69 8.24, 1.5 8.07 C1.32 7.9, 1.14 7.71, 0.98 7.51 C0.83 7.3, 0.69 7.08, 0.56 6.85 C0.44 6.63, 0.34 6.38, 0.25 6.13 C0.17 5.88, 0.11 5.62, 0.06 5.36 C0.02 5.1, 0 4.83, 0 4.57 C0 4.31, 0.02 4.04, 0.06 3.78 C0.11 3.52, 0.17 3.26, 0.25 3.01 C0.34 2.76, 0.44 2.51, 0.56 2.28 C0.69 2.06, 0.83 1.83, 0.98 1.63 C1.14 1.43, 1.32 1.24, 1.5 1.07 C1.69 0.9, 1.89 0.74, 2.1 0.61 C2.31 0.48, 2.54 0.37, 2.77 0.28 C3 0.19, 3.24 0.12, 3.48 0.07 C3.72 0.02, 3.96 0, 4.21 0 C4.45 0, 4.7 0.02, 4.94 0.07 C5.18 0.12, 5.42 0.19, 5.65 0.28 C5.87 0.37, 6.1 0.48, 6.31 0.61 C6.52 0.74, 6.72 0.9, 6.91 1.07 C7.1 1.24, 7.27 1.43, 7.43 1.63 C7.59 1.83, 7.73 2.06, 7.85 2.28 C7.97 2.51, 8.08 2.76, 8.16 3.01 C8.24 3.26, 8.31 3.52, 8.35 3.78 C8.39 4.04, 8.4 4.44, 8.41 4.57 C8.42 4.7, 8.42 4.44, 8.41 4.57" stroke="none" stroke-width="0" fill="#7950f2"></path><path d="M8.41 4.57 C8.41 4.83, 8.39 5.1, 8.35 5.36 C8.31 5.62, 8.24 5.88, 8.16 6.13 C8.08 6.38, 7.97 6.63, 7.85 6.85 C7.73 7.08, 7.59 7.3, 7.43 7.51 C7.27 7.71, 7.1 7.9, 6.91 8.07 C6.72 8.24, 6.52 8.39, 6.31 8.53 C6.1 8.66, 5.87 8.77, 5.65 8.86 C5.42 8.95, 5.18 9.02, 4.94 9.07 C4.7 9.12, 4.45 9.14, 4.21 9.14 C3.96 9.14, 3.72 9.12, 3.48 9.07 C3.24 9.02, 3 8.95, 2.77 8.86 C2.54 8.77, 2.31 8.66, 2.1 8.53 C1.89 8.39, 1.69 8.24, 1.5 8.07 C1.32 7.9, 1.14 7.71, 0.98 7.51 C0.83 7.3, 0.69 7.08, 0.56 6.85 C0.44 6.63, 0.34 6.38, 0.25 6.13 C0.17 5.88, 0.11 5.62, 0.06 5.36 C0.02 5.1, 0 4.83, 0 4.57 C0 4.31, 0.02 4.04, 0.06 3.78 C0.11 3.52, 0.17 3.26, 0.25 3.01 C0.34 2.76, 0.44 2.51, 0.56 2.28 C0.69 2.06, 0.83 1.83, 0.98 1.63 C1.14 1.43, 1.32 1.24, 1.5 1.07 C1.69 0.9, 1.89 0.74, 2.1 0.61 C2.31 0.48, 2.54 0.37, 2.77 0.28 C3 0.19, 3.24 0.12, 3.48 0.07 C3.72 0.02, 3.96 0, 4.21 0 C4.45 0, 4.7 0.02, 4.94 0.07 C5.18 0.12, 5.42 0.19, 5.65 0.28 C5.87 0.37, 6.1 0.48, 6.31 0.61 C6.52 0.74, 6.72 0.9, 6.91 1.07 C7.1 1.24, 7.27 1.43, 7.43 1.63 C7.59 1.83, 7.73 2.06, 7.85 2.28 C7.97 2.51, 8.08 2.76, 8.16 3.01 C8.24 3.26, 8.31 3.52, 8.35 3.78 C8.39 4.04, 8.4 4.44, 8.41 4.57 C8.42 4.7, 8.42 4.44, 8.41 4.57" stroke="#5f3dc4" stroke-width="1" fill="none"></path></g><g stroke-linecap="round" transform="translate(296.68759488992237 47.20710032543502) rotate(358.1310915065084 4.207022158495647 4.569555668486828)"><path d="M8.41 4.57 C8.41 4.83, 8.39 5.1, 8.35 5.36 C8.31 5.62, 8.24 5.88, 8.16 6.13 C8.08 6.38, 7.97 6.63, 7.85 6.85 C7.73 7.08, 7.59 7.3, 7.43 7.51 C7.27 7.71, 7.1 7.9, 6.91 8.07 C6.72 8.24, 6.52 8.39, 6.31 8.53 C6.1 8.66, 5.87 8.77, 5.65 8.86 C5.42 8.95, 5.18 9.02, 4.94 9.07 C4.7 9.12, 4.45 9.14, 4.21 9.14 C3.96 9.14, 3.72 9.12, 3.48 9.07 C3.24 9.02, 3 8.95, 2.77 8.86 C2.54 8.77, 2.31 8.66, 2.1 8.53 C1.89 8.39, 1.69 8.24, 1.5 8.07 C1.32 7.9, 1.14 7.71, 0.98 7.51 C0.83 7.3, 0.69 7.08, 0.56 6.85 C0.44 6.63, 0.34 6.38, 0.25 6.13 C0.17 5.88, 0.11 5.62, 0.06 5.36 C0.02 5.1, 0 4.83, 0 4.57 C0 4.31, 0.02 4.04, 0.06 3.78 C0.11 3.52, 0.17 3.26, 0.25 3.01 C0.34 2.76, 0.44 2.51, 0.56 2.28 C0.69 2.06, 0.83 1.83, 0.98 1.63 C1.14 1.43, 1.32 1.24, 1.5 1.07 C1.69 0.9, 1.89 0.74, 2.1 0.61 C2.31 0.48, 2.54 0.37, 2.77 0.28 C3 0.19, 3.24 0.12, 3.48 0.07 C3.72 0.02, 3.96 0, 4.21 0 C4.45 0, 4.7 0.02, 4.94 0.07 C5.18 0.12, 5.42 0.19, 5.65 0.28 C5.87 0.37, 6.1 0.48, 6.31 0.61 C6.52 0.74, 6.72 0.9, 6.91 1.07 C7.1 1.24, 7.27 1.43, 7.43 1.63 C7.59 1.83, 7.73 2.06, 7.85 2.28 C7.97 2.51, 8.08 2.76, 8.16 3.01 C8.24 3.26, 8.31 3.52, 8.35 3.78 C8.39 4.04, 8.4 4.44, 8.41 4.57 C8.42 4.7, 8.42 4.44, 8.41 4.57" stroke="none" stroke-width="0" fill="#7950f2"></path><path d="M8.41 4.57 C8.41 4.83, 8.39 5.1, 8.35 5.36 C8.31 5.62, 8.24 5.88, 8.16 6.13 C8.08 6.38, 7.97 6.63, 7.85 6.85 C7.73 7.08, 7.59 7.3, 7.43 7.51 C7.27 7.71, 7.1 7.9, 6.91 8.07 C6.72 8.24, 6.52 8.39, 6.31 8.53 C6.1 8.66, 5.87 8.77, 5.65 8.86 C5.42 8.95, 5.18 9.02, 4.94 9.07 C4.7 9.12, 4.45 9.14, 4.21 9.14 C3.96 9.14, 3.72 9.12, 3.48 9.07 C3.24 9.02, 3 8.95, 2.77 8.86 C2.54 8.77, 2.31 8.66, 2.1 8.53 C1.89 8.39, 1.69 8.24, 1.5 8.07 C1.32 7.9, 1.14 7.71, 0.98 7.51 C0.83 7.3, 0.69 7.08, 0.56 6.85 C0.44 6.63, 0.34 6.38, 0.25 6.13 C0.17 5.88, 0.11 5.62, 0.06 5.36 C0.02 5.1, 0 4.83, 0 4.57 C0 4.31, 0.02 4.04, 0.06 3.78 C0.11 3.52, 0.17 3.26, 0.25 3.01 C0.34 2.76, 0.44 2.51, 0.56 2.28 C0.69 2.06, 0.83 1.83, 0.98 1.63 C1.14 1.43, 1.32 1.24, 1.5 1.07 C1.69 0.9, 1.89 0.74, 2.1 0.61 C2.31 0.48, 2.54 0.37, 2.77 0.28 C3 0.19, 3.24 0.12, 3.48 0.07 C3.72 0.02, 3.96 0, 4.21 0 C4.45 0, 4.7 0.02, 4.94 0.07 C5.18 0.12, 5.42 0.19, 5.65 0.28 C5.87 0.37, 6.1 0.48, 6.31 0.61 C6.52 0.74, 6.72 0.9, 6.91 1.07 C7.1 1.24, 7.27 1.43, 7.43 1.63 C7.59 1.83, 7.73 2.06, 7.85 2.28 C7.97 2.51, 8.08 2.76, 8.16 3.01 C8.24 3.26, 8.31 3.52, 8.35 3.78 C8.39 4.04, 8.4 4.44, 8.41 4.57 C8.42 4.7, 8.42 4.44, 8.41 4.57" stroke="#5f3dc4" stroke-width="1" fill="none"></path></g><g stroke-linecap="round" transform="translate(311.22498926506796 33.109211419712665) rotate(358.1310915065084 4.171683969157584 4.569555668486828)"><path d="M8.34 4.57 C8.34 4.83, 8.32 5.1, 8.28 5.36 C8.24 5.62, 8.17 5.88, 8.09 6.13 C8.01 6.38, 7.91 6.63, 7.78 6.85 C7.66 7.08, 7.52 7.3, 7.37 7.51 C7.21 7.71, 7.04 7.9, 6.85 8.07 C6.67 8.24, 6.47 8.39, 6.26 8.53 C6.05 8.66, 5.83 8.77, 5.6 8.86 C5.37 8.95, 5.13 9.02, 4.9 9.07 C4.66 9.12, 4.41 9.14, 4.17 9.14 C3.93 9.14, 3.69 9.12, 3.45 9.07 C3.21 9.02, 2.97 8.95, 2.74 8.86 C2.52 8.77, 2.29 8.66, 2.09 8.53 C1.88 8.39, 1.68 8.24, 1.49 8.07 C1.31 7.9, 1.13 7.71, 0.98 7.51 C0.82 7.3, 0.68 7.08, 0.56 6.85 C0.44 6.63, 0.33 6.38, 0.25 6.13 C0.17 5.88, 0.11 5.62, 0.06 5.36 C0.02 5.1, 0 4.83, 0 4.57 C0 4.31, 0.02 4.04, 0.06 3.78 C0.11 3.52, 0.17 3.26, 0.25 3.01 C0.33 2.76, 0.44 2.51, 0.56 2.28 C0.68 2.06, 0.82 1.83, 0.98 1.63 C1.13 1.43, 1.31 1.24, 1.49 1.07 C1.68 0.9, 1.88 0.74, 2.09 0.61 C2.29 0.48, 2.52 0.37, 2.74 0.28 C2.97 0.19, 3.21 0.12, 3.45 0.07 C3.69 0.02, 3.93 0, 4.17 0 C4.41 0, 4.66 0.02, 4.9 0.07 C5.13 0.12, 5.37 0.19, 5.6 0.28 C5.83 0.37, 6.05 0.48, 6.26 0.61 C6.47 0.74, 6.67 0.9, 6.85 1.07 C7.04 1.24, 7.21 1.43, 7.37 1.63 C7.52 1.83, 7.66 2.06, 7.78 2.28 C7.91 2.51, 8.01 2.76, 8.09 3.01 C8.17 3.26, 8.24 3.52, 8.28 3.78 C8.32 4.04, 8.33 4.44, 8.34 4.57 C8.35 4.7, 8.35 4.44, 8.34 4.57" stroke="none" stroke-width="0" fill="#7950f2"></path><path d="M8.34 4.57 C8.34 4.83, 8.32 5.1, 8.28 5.36 C8.24 5.62, 8.17 5.88, 8.09 6.13 C8.01 6.38, 7.91 6.63, 7.78 6.85 C7.66 7.08, 7.52 7.3, 7.37 7.51 C7.21 7.71, 7.04 7.9, 6.85 8.07 C6.67 8.24, 6.47 8.39, 6.26 8.53 C6.05 8.66, 5.83 8.77, 5.6 8.86 C5.37 8.95, 5.13 9.02, 4.9 9.07 C4.66 9.12, 4.41 9.14, 4.17 9.14 C3.93 9.14, 3.69 9.12, 3.45 9.07 C3.21 9.02, 2.97 8.95, 2.74 8.86 C2.52 8.77, 2.29 8.66, 2.09 8.53 C1.88 8.39, 1.68 8.24, 1.49 8.07 C1.31 7.9, 1.13 7.71, 0.98 7.51 C0.82 7.3, 0.68 7.08, 0.56 6.85 C0.44 6.63, 0.33 6.38, 0.25 6.13 C0.17 5.88, 0.11 5.62, 0.06 5.36 C0.02 5.1, 0 4.83, 0 4.57 C0 4.31, 0.02 4.04, 0.06 3.78 C0.11 3.52, 0.17 3.26, 0.25 3.01 C0.33 2.76, 0.44 2.51, 0.56 2.28 C0.68 2.06, 0.82 1.83, 0.98 1.63 C1.13 1.43, 1.31 1.24, 1.49 1.07 C1.68 0.9, 1.88 0.74, 2.09 0.61 C2.29 0.48, 2.52 0.37, 2.74 0.28 C2.97 0.19, 3.21 0.12, 3.45 0.07 C3.69 0.02, 3.93 0, 4.17 0 C4.41 0, 4.66 0.02, 4.9 0.07 C5.13 0.12, 5.37 0.19, 5.6 0.28 C5.83 0.37, 6.05 0.48, 6.26 0.61 C6.47 0.74, 6.67 0.9, 6.85 1.07 C7.04 1.24, 7.21 1.43, 7.37 1.63 C7.52 1.83, 7.66 2.06, 7.78 2.28 C7.91 2.51, 8.01 2.76, 8.09 3.01 C8.17 3.26, 8.24 3.52, 8.28 3.78 C8.32 4.04, 8.33 4.44, 8.34 4.57 C8.35 4.7, 8.35 4.44, 8.34 4.57" stroke="#5f3dc4" stroke-width="1" fill="none"></path></g><g stroke-linecap="round" transform="translate(324.370893932587 15.76031478731602) rotate(358.1310915065084 4.207022158495647 4.569555668486828)"><path d="M8.41 4.57 C8.41 4.83, 8.39 5.1, 8.35 5.36 C8.31 5.62, 8.24 5.88, 8.16 6.13 C8.08 6.38, 7.97 6.63, 7.85 6.85 C7.73 7.08, 7.59 7.3, 7.43 7.51 C7.27 7.71, 7.1 7.9, 6.91 8.07 C6.72 8.24, 6.52 8.39, 6.31 8.53 C6.1 8.66, 5.87 8.77, 5.65 8.86 C5.42 8.95, 5.18 9.02, 4.94 9.07 C4.7 9.12, 4.45 9.14, 4.21 9.14 C3.96 9.14, 3.72 9.12, 3.48 9.07 C3.24 9.02, 3 8.95, 2.77 8.86 C2.54 8.77, 2.31 8.66, 2.1 8.53 C1.89 8.39, 1.69 8.24, 1.5 8.07 C1.32 7.9, 1.14 7.71, 0.98 7.51 C0.83 7.3, 0.69 7.08, 0.56 6.85 C0.44 6.63, 0.34 6.38, 0.25 6.13 C0.17 5.88, 0.11 5.62, 0.06 5.36 C0.02 5.1, 0 4.83, 0 4.57 C0 4.31, 0.02 4.04, 0.06 3.78 C0.11 3.52, 0.17 3.26, 0.25 3.01 C0.34 2.76, 0.44 2.51, 0.56 2.28 C0.69 2.06, 0.83 1.83, 0.98 1.63 C1.14 1.43, 1.32 1.24, 1.5 1.07 C1.69 0.9, 1.89 0.74, 2.1 0.61 C2.31 0.48, 2.54 0.37, 2.77 0.28 C3 0.19, 3.24 0.12, 3.48 0.07 C3.72 0.02, 3.96 0, 4.21 0 C4.45 0, 4.7 0.02, 4.94 0.07 C5.18 0.12, 5.42 0.19, 5.65 0.28 C5.87 0.37, 6.1 0.48, 6.31 0.61 C6.52 0.74, 6.72 0.9, 6.91 1.07 C7.1 1.24, 7.27 1.43, 7.43 1.63 C7.59 1.83, 7.73 2.06, 7.85 2.28 C7.97 2.51, 8.08 2.76, 8.16 3.01 C8.24 3.26, 8.31 3.52, 8.35 3.78 C8.39 4.04, 8.4 4.44, 8.41 4.57 C8.42 4.7, 8.42 4.44, 8.41 4.57" stroke="none" stroke-width="0" fill="#7950f2"></path><path d="M8.41 4.57 C8.41 4.83, 8.39 5.1, 8.35 5.36 C8.31 5.62, 8.24 5.88, 8.16 6.13 C8.08 6.38, 7.97 6.63, 7.85 6.85 C7.73 7.08, 7.59 7.3, 7.43 7.51 C7.27 7.71, 7.1 7.9, 6.91 8.07 C6.72 8.24, 6.52 8.39, 6.31 8.53 C6.1 8.66, 5.87 8.77, 5.65 8.86 C5.42 8.95, 5.18 9.02, 4.94 9.07 C4.7 9.12, 4.45 9.14, 4.21 9.14 C3.96 9.14, 3.72 9.12, 3.48 9.07 C3.24 9.02, 3 8.95, 2.77 8.86 C2.54 8.77, 2.31 8.66, 2.1 8.53 C1.89 8.39, 1.69 8.24, 1.5 8.07 C1.32 7.9, 1.14 7.71, 0.98 7.51 C0.83 7.3, 0.69 7.08, 0.56 6.85 C0.44 6.63, 0.34 6.38, 0.25 6.13 C0.17 5.88, 0.11 5.62, 0.06 5.36 C0.02 5.1, 0 4.83, 0 4.57 C0 4.31, 0.02 4.04, 0.06 3.78 C0.11 3.52, 0.17 3.26, 0.25 3.01 C0.34 2.76, 0.44 2.51, 0.56 2.28 C0.69 2.06, 0.83 1.83, 0.98 1.63 C1.14 1.43, 1.32 1.24, 1.5 1.07 C1.69 0.9, 1.89 0.74, 2.1 0.61 C2.31 0.48, 2.54 0.37, 2.77 0.28 C3 0.19, 3.24 0.12, 3.48 0.07 C3.72 0.02, 3.96 0, 4.21 0 C4.45 0, 4.7 0.02, 4.94 0.07 C5.18 0.12, 5.42 0.19, 5.65 0.28 C5.87 0.37, 6.1 0.48, 6.31 0.61 C6.52 0.74, 6.72 0.9, 6.91 1.07 C7.1 1.24, 7.27 1.43, 7.43 1.63 C7.59 1.83, 7.73 2.06, 7.85 2.28 C7.97 2.51, 8.08 2.76, 8.16 3.01 C8.24 3.26, 8.31 3.52, 8.35 3.78 C8.39 4.04, 8.4 4.44, 8.41 4.57 C8.42 4.7, 8.42 4.44, 8.41 4.57" stroke="#5f3dc4" stroke-width="1" fill="none"></path></g><g stroke-linecap="round" transform="translate(326.4219035147553 48.77367981498901) rotate(358.1310915065084 4.207022158495647 4.569555668486828)"><path d="M8.41 4.57 C8.41 4.83, 8.39 5.1, 8.35 5.36 C8.31 5.62, 8.24 5.88, 8.16 6.13 C8.08 6.38, 7.97 6.63, 7.85 6.85 C7.73 7.08, 7.59 7.3, 7.43 7.51 C7.27 7.71, 7.1 7.9, 6.91 8.07 C6.72 8.24, 6.52 8.39, 6.31 8.53 C6.1 8.66, 5.87 8.77, 5.65 8.86 C5.42 8.95, 5.18 9.02, 4.94 9.07 C4.7 9.12, 4.45 9.14, 4.21 9.14 C3.96 9.14, 3.72 9.12, 3.48 9.07 C3.24 9.02, 3 8.95, 2.77 8.86 C2.54 8.77, 2.31 8.66, 2.1 8.53 C1.89 8.39, 1.69 8.24, 1.5 8.07 C1.32 7.9, 1.14 7.71, 0.98 7.51 C0.83 7.3, 0.69 7.08, 0.56 6.85 C0.44 6.63, 0.34 6.38, 0.25 6.13 C0.17 5.88, 0.11 5.62, 0.06 5.36 C0.02 5.1, 0 4.83, 0 4.57 C0 4.31, 0.02 4.04, 0.06 3.78 C0.11 3.52, 0.17 3.26, 0.25 3.01 C0.34 2.76, 0.44 2.51, 0.56 2.28 C0.69 2.06, 0.83 1.83, 0.98 1.63 C1.14 1.43, 1.32 1.24, 1.5 1.07 C1.69 0.9, 1.89 0.74, 2.1 0.61 C2.31 0.48, 2.54 0.37, 2.77 0.28 C3 0.19, 3.24 0.12, 3.48 0.07 C3.72 0.02, 3.96 0, 4.21 0 C4.45 0, 4.7 0.02, 4.94 0.07 C5.18 0.12, 5.42 0.19, 5.65 0.28 C5.87 0.37, 6.1 0.48, 6.31 0.61 C6.52 0.74, 6.72 0.9, 6.91 1.07 C7.1 1.24, 7.27 1.43, 7.43 1.63 C7.59 1.83, 7.73 2.06, 7.85 2.28 C7.97 2.51, 8.08 2.76, 8.16 3.01 C8.24 3.26, 8.31 3.52, 8.35 3.78 C8.39 4.04, 8.4 4.44, 8.41 4.57 C8.42 4.7, 8.42 4.44, 8.41 4.57" stroke="none" stroke-width="0" fill="#7950f2"></path><path d="M8.41 4.57 C8.41 4.83, 8.39 5.1, 8.35 5.36 C8.31 5.62, 8.24 5.88, 8.16 6.13 C8.08 6.38, 7.97 6.63, 7.85 6.85 C7.73 7.08, 7.59 7.3, 7.43 7.51 C7.27 7.71, 7.1 7.9, 6.91 8.07 C6.72 8.24, 6.52 8.39, 6.31 8.53 C6.1 8.66, 5.87 8.77, 5.65 8.86 C5.42 8.95, 5.18 9.02, 4.94 9.07 C4.7 9.12, 4.45 9.14, 4.21 9.14 C3.96 9.14, 3.72 9.12, 3.48 9.07 C3.24 9.02, 3 8.95, 2.77 8.86 C2.54 8.77, 2.31 8.66, 2.1 8.53 C1.89 8.39, 1.69 8.24, 1.5 8.07 C1.32 7.9, 1.14 7.71, 0.98 7.51 C0.83 7.3, 0.69 7.08, 0.56 6.85 C0.44 6.63, 0.34 6.38, 0.25 6.13 C0.17 5.88, 0.11 5.62, 0.06 5.36 C0.02 5.1, 0 4.83, 0 4.57 C0 4.31, 0.02 4.04, 0.06 3.78 C0.11 3.52, 0.17 3.26, 0.25 3.01 C0.34 2.76, 0.44 2.51, 0.56 2.28 C0.69 2.06, 0.83 1.83, 0.98 1.63 C1.14 1.43, 1.32 1.24, 1.5 1.07 C1.69 0.9, 1.89 0.74, 2.1 0.61 C2.31 0.48, 2.54 0.37, 2.77 0.28 C3 0.19, 3.24 0.12, 3.48 0.07 C3.72 0.02, 3.96 0, 4.21 0 C4.45 0, 4.7 0.02, 4.94 0.07 C5.18 0.12, 5.42 0.19, 5.65 0.28 C5.87 0.37, 6.1 0.48, 6.31 0.61 C6.52 0.74, 6.72 0.9, 6.91 1.07 C7.1 1.24, 7.27 1.43, 7.43 1.63 C7.59 1.83, 7.73 2.06, 7.85 2.28 C7.97 2.51, 8.08 2.76, 8.16 3.01 C8.24 3.26, 8.31 3.52, 8.35 3.78 C8.39 4.04, 8.4 4.44, 8.41 4.57 C8.42 4.7, 8.42 4.44, 8.41 4.57" stroke="#5f3dc4" stroke-width="1" fill="none"></path></g><g stroke-linecap="round" transform="translate(296.2899352479999 16.101275808468927) rotate(358.1310915065084 3.7296939325749463 3.867855952339596)"><path d="M7.46 3.87 C7.46 4.09, 7.44 4.32, 7.4 4.54 C7.37 4.76, 7.31 4.98, 7.23 5.19 C7.16 5.4, 7.07 5.61, 6.96 5.8 C6.85 6, 6.73 6.18, 6.59 6.35 C6.45 6.53, 6.29 6.69, 6.13 6.83 C5.96 6.97, 5.78 7.11, 5.59 7.22 C5.41 7.33, 5.21 7.43, 5.01 7.5 C4.8 7.58, 4.59 7.64, 4.38 7.68 C4.16 7.72, 3.95 7.74, 3.73 7.74 C3.51 7.74, 3.29 7.72, 3.08 7.68 C2.87 7.64, 2.66 7.58, 2.45 7.5 C2.25 7.43, 2.05 7.33, 1.86 7.22 C1.68 7.11, 1.5 6.97, 1.33 6.83 C1.17 6.69, 1.01 6.53, 0.87 6.35 C0.73 6.18, 0.61 6, 0.5 5.8 C0.39 5.61, 0.3 5.4, 0.22 5.19 C0.15 4.98, 0.09 4.76, 0.06 4.54 C0.02 4.32, 0 4.09, 0 3.87 C0 3.64, 0.02 3.42, 0.06 3.2 C0.09 2.98, 0.15 2.76, 0.22 2.54 C0.3 2.33, 0.39 2.13, 0.5 1.93 C0.61 1.74, 0.73 1.55, 0.87 1.38 C1.01 1.21, 1.17 1.05, 1.33 0.9 C1.5 0.76, 1.68 0.63, 1.86 0.52 C2.05 0.41, 2.25 0.31, 2.45 0.23 C2.66 0.16, 2.87 0.1, 3.08 0.06 C3.29 0.02, 3.51 0, 3.73 0 C3.95 0, 4.16 0.02, 4.38 0.06 C4.59 0.1, 4.8 0.16, 5.01 0.23 C5.21 0.31, 5.41 0.41, 5.59 0.52 C5.78 0.63, 5.96 0.76, 6.13 0.9 C6.29 1.05, 6.45 1.21, 6.59 1.38 C6.73 1.55, 6.85 1.74, 6.96 1.93 C7.07 2.13, 7.16 2.33, 7.23 2.54 C7.31 2.76, 7.37 2.98, 7.4 3.2 C7.44 3.42, 7.45 3.76, 7.46 3.87 C7.47 3.98, 7.47 3.76, 7.46 3.87" stroke="#fff" stroke-width="1" fill="none"></path></g><g stroke-linecap="round" transform="translate(297.0632852940098 48.31388485721618) rotate(358.1310915065084 3.7296939325749463 3.867855952339596)"><path d="M7.46 3.87 C7.46 4.09, 7.44 4.32, 7.4 4.54 C7.37 4.76, 7.31 4.98, 7.23 5.19 C7.16 5.4, 7.07 5.61, 6.96 5.8 C6.85 6, 6.73 6.18, 6.59 6.35 C6.45 6.53, 6.29 6.69, 6.13 6.83 C5.96 6.97, 5.78 7.11, 5.59 7.22 C5.41 7.33, 5.21 7.43, 5.01 7.5 C4.8 7.58, 4.59 7.64, 4.38 7.68 C4.16 7.72, 3.95 7.74, 3.73 7.74 C3.51 7.74, 3.29 7.72, 3.08 7.68 C2.87 7.64, 2.66 7.58, 2.45 7.5 C2.25 7.43, 2.05 7.33, 1.86 7.22 C1.68 7.11, 1.5 6.97, 1.33 6.83 C1.17 6.69, 1.01 6.53, 0.87 6.35 C0.73 6.18, 0.61 6, 0.5 5.8 C0.39 5.61, 0.3 5.4, 0.22 5.19 C0.15 4.98, 0.09 4.76, 0.06 4.54 C0.02 4.32, 0 4.09, 0 3.87 C0 3.64, 0.02 3.42, 0.06 3.2 C0.09 2.98, 0.15 2.76, 0.22 2.54 C0.3 2.33, 0.39 2.13, 0.5 1.93 C0.61 1.74, 0.73 1.55, 0.87 1.38 C1.01 1.21, 1.17 1.05, 1.33 0.9 C1.5 0.76, 1.68 0.63, 1.86 0.52 C2.05 0.41, 2.25 0.31, 2.45 0.23 C2.66 0.16, 2.87 0.1, 3.08 0.06 C3.29 0.02, 3.51 0, 3.73 0 C3.95 0, 4.16 0.02, 4.38 0.06 C4.59 0.1, 4.8 0.16, 5.01 0.23 C5.21 0.31, 5.41 0.41, 5.59 0.52 C5.78 0.63, 5.96 0.76, 6.13 0.9 C6.29 1.05, 6.45 1.21, 6.59 1.38 C6.73 1.55, 6.85 1.74, 6.96 1.93 C7.07 2.13, 7.16 2.33, 7.23 2.54 C7.31 2.76, 7.37 2.98, 7.4 3.2 C7.44 3.42, 7.45 3.76, 7.46 3.87 C7.47 3.98, 7.47 3.76, 7.46 3.87" stroke="#fff" stroke-width="1" fill="none"></path></g><g stroke-linecap="round" transform="translate(311.6287647040963 33.58116743942446) rotate(358.1310915065084 3.7246862679369315 3.7725718007777687)"><path d="M7.45 3.77 C7.45 3.99, 7.43 4.21, 7.39 4.43 C7.36 4.64, 7.3 4.86, 7.22 5.06 C7.15 5.27, 7.06 5.47, 6.95 5.66 C6.84 5.85, 6.72 6.03, 6.58 6.2 C6.44 6.36, 6.28 6.52, 6.12 6.66 C5.95 6.8, 5.77 6.93, 5.59 7.04 C5.4 7.15, 5.2 7.24, 5 7.32 C4.8 7.39, 4.58 7.45, 4.37 7.49 C4.16 7.53, 3.94 7.55, 3.72 7.55 C3.51 7.55, 3.29 7.53, 3.08 7.49 C2.87 7.45, 2.65 7.39, 2.45 7.32 C2.25 7.24, 2.05 7.15, 1.86 7.04 C1.68 6.93, 1.5 6.8, 1.33 6.66 C1.17 6.52, 1.01 6.36, 0.87 6.2 C0.73 6.03, 0.61 5.85, 0.5 5.66 C0.39 5.47, 0.3 5.27, 0.22 5.06 C0.15 4.86, 0.09 4.64, 0.06 4.43 C0.02 4.21, 0 3.99, 0 3.77 C0 3.55, 0.02 3.33, 0.06 3.12 C0.09 2.9, 0.15 2.69, 0.22 2.48 C0.3 2.28, 0.39 2.08, 0.5 1.89 C0.61 1.7, 0.73 1.51, 0.87 1.35 C1.01 1.18, 1.17 1.02, 1.33 0.88 C1.5 0.74, 1.68 0.61, 1.86 0.51 C2.05 0.4, 2.25 0.3, 2.45 0.23 C2.65 0.15, 2.87 0.1, 3.08 0.06 C3.29 0.02, 3.51 0, 3.72 0 C3.94 0, 4.16 0.02, 4.37 0.06 C4.58 0.1, 4.8 0.15, 5 0.23 C5.2 0.3, 5.4 0.4, 5.59 0.51 C5.77 0.61, 5.95 0.74, 6.12 0.88 C6.28 1.02, 6.44 1.18, 6.58 1.35 C6.72 1.51, 6.84 1.7, 6.95 1.89 C7.06 2.08, 7.15 2.28, 7.22 2.48 C7.3 2.69, 7.36 2.9, 7.39 3.12 C7.43 3.33, 7.44 3.66, 7.45 3.77 C7.46 3.88, 7.46 3.66, 7.45 3.77" stroke="#fff" stroke-width="1" fill="none"></path></g><g stroke-linecap="round" transform="translate(325.18069154257046 16.665387305922195) rotate(358.1310915065084 3.325364728417753 3.7725718007777687)"><path d="M6.65 3.77 C6.65 3.99, 6.63 4.21, 6.6 4.43 C6.57 4.64, 6.52 4.86, 6.45 5.06 C6.38 5.27, 6.3 5.47, 6.21 5.66 C6.11 5.85, 6 6.03, 5.87 6.2 C5.75 6.36, 5.61 6.52, 5.46 6.66 C5.32 6.8, 5.15 6.93, 4.99 7.04 C4.82 7.15, 4.64 7.24, 4.46 7.32 C4.28 7.39, 4.09 7.45, 3.9 7.49 C3.71 7.53, 3.52 7.55, 3.33 7.55 C3.13 7.55, 2.94 7.53, 2.75 7.49 C2.56 7.45, 2.37 7.39, 2.19 7.32 C2.01 7.24, 1.83 7.15, 1.66 7.04 C1.5 6.93, 1.34 6.8, 1.19 6.66 C1.04 6.52, 0.9 6.36, 0.78 6.2 C0.65 6.03, 0.54 5.85, 0.45 5.66 C0.35 5.47, 0.27 5.27, 0.2 5.06 C0.13 4.86, 0.08 4.64, 0.05 4.43 C0.02 4.21, 0 3.99, 0 3.77 C0 3.55, 0.02 3.33, 0.05 3.12 C0.08 2.9, 0.13 2.69, 0.2 2.48 C0.27 2.28, 0.35 2.08, 0.45 1.89 C0.54 1.7, 0.65 1.51, 0.78 1.35 C0.9 1.18, 1.04 1.02, 1.19 0.88 C1.34 0.74, 1.5 0.61, 1.66 0.51 C1.83 0.4, 2.01 0.3, 2.19 0.23 C2.37 0.15, 2.56 0.1, 2.75 0.06 C2.94 0.02, 3.13 0, 3.33 0 C3.52 0, 3.71 0.02, 3.9 0.06 C4.09 0.1, 4.28 0.15, 4.46 0.23 C4.64 0.3, 4.82 0.4, 4.99 0.51 C5.15 0.61, 5.32 0.74, 5.46 0.88 C5.61 1.02, 5.75 1.18, 5.87 1.35 C6 1.51, 6.11 1.7, 6.21 1.89 C6.3 2.08, 6.38 2.28, 6.45 2.48 C6.52 2.69, 6.57 2.9, 6.6 3.12 C6.63 3.33, 6.64 3.66, 6.65 3.77 C6.66 3.88, 6.66 3.66, 6.65 3.77" stroke="#fff" stroke-width="1" fill="none"></path></g><g stroke-linecap="round" transform="translate(327.7062841793404 49.47561212207074) rotate(358.1310915065084 2.94178474596697 3.7725718007777687)"><path d="M5.88 3.77 C5.88 3.99, 5.87 4.21, 5.84 4.43 C5.81 4.64, 5.76 4.86, 5.71 5.06 C5.65 5.27, 5.57 5.47, 5.49 5.66 C5.4 5.85, 5.3 6.03, 5.2 6.2 C5.09 6.36, 4.96 6.52, 4.83 6.66 C4.7 6.8, 4.56 6.93, 4.41 7.04 C4.27 7.15, 4.11 7.24, 3.95 7.32 C3.79 7.39, 3.62 7.45, 3.45 7.49 C3.28 7.53, 3.11 7.55, 2.94 7.55 C2.77 7.55, 2.6 7.53, 2.43 7.49 C2.26 7.45, 2.1 7.39, 1.94 7.32 C1.78 7.24, 1.62 7.15, 1.47 7.04 C1.32 6.93, 1.18 6.8, 1.05 6.66 C0.92 6.52, 0.8 6.36, 0.69 6.2 C0.58 6.03, 0.48 5.85, 0.39 5.66 C0.31 5.47, 0.24 5.27, 0.18 5.06 C0.12 4.86, 0.07 4.64, 0.04 4.43 C0.02 4.21, 0 3.99, 0 3.77 C0 3.55, 0.02 3.33, 0.04 3.12 C0.07 2.9, 0.12 2.69, 0.18 2.48 C0.24 2.28, 0.31 2.08, 0.39 1.89 C0.48 1.7, 0.58 1.51, 0.69 1.35 C0.8 1.18, 0.92 1.02, 1.05 0.88 C1.18 0.74, 1.32 0.61, 1.47 0.51 C1.62 0.4, 1.78 0.3, 1.94 0.23 C2.1 0.15, 2.26 0.1, 2.43 0.06 C2.6 0.02, 2.77 0, 2.94 0 C3.11 0, 3.28 0.02, 3.45 0.06 C3.62 0.1, 3.79 0.15, 3.95 0.23 C4.11 0.3, 4.27 0.4, 4.41 0.51 C4.56 0.61, 4.7 0.74, 4.83 0.88 C4.96 1.02, 5.09 1.18, 5.2 1.35 C5.3 1.51, 5.4 1.7, 5.49 1.89 C5.57 2.08, 5.65 2.28, 5.71 2.48 C5.76 2.69, 5.81 2.9, 5.84 3.12 C5.87 3.33, 5.88 3.66, 5.88 3.77 C5.89 3.88, 5.89 3.66, 5.88 3.77" stroke="#fff" stroke-width="1" fill="none"></path></g><g transform="translate(10 165.19626498420257) rotate(0 50.979949951171875 25)"><text x="50.979949951171875" y="0" font-family="Virgil, Segoe UI Emoji" font-size="20px" fill="#087f5b" text-anchor="middle" style="white-space: pre;" direction="ltr" dominant-baseline="text-before-edge">Application</text><text x="50.979949951171875" y="25" font-family="Virgil, Segoe UI Emoji" font-size="20px" fill="#087f5b" text-anchor="middle" style="white-space: pre;" direction="ltr" dominant-baseline="text-before-edge">Engineer</text></g><g stroke-opacity="0.9" fill-opacity="0.9" stroke-linecap="round" transform="translate(306.1902988281681 77.19441562573775) rotate(0 26.539974486125857 33.628334800137964)"><path d="M13.27 0 L42.92 0.21 L47.9 1.87 L51.21 5.18 L53.08 13.27 L53.08 53.99 L52.25 59.79 L51.21 62.07 L47.9 65.39 L39.81 67.26 L10.16 67.05 L5.18 65.39 L1.87 62.07 L0 53.99 L0.21 10.16 L1.87 5.18 L5.18 1.87 L13.27 0" stroke="none" stroke-width="0" fill="#fab005"></path><path d="M13.27 0 M13.27 0 C23.66 0, 34.06 0, 39.81 0 M13.27 0 C23.63 0, 33.98 0, 39.81 0 M39.81 0 C48.66 0, 53.08 4.42, 53.08 13.27 M39.81 0 C48.66 0, 53.08 4.42, 53.08 13.27 M53.08 13.27 C53.08 28.35, 53.08 43.44, 53.08 53.99 M53.08 13.27 C53.08 29.04, 53.08 44.81, 53.08 53.99 M53.08 53.99 C53.08 62.83, 48.66 67.26, 39.81 67.26 M53.08 53.99 C53.08 62.83, 48.66 67.26, 39.81 67.26 M39.81 67.26 C31.07 67.26, 22.33 67.26, 13.27 67.26 M39.81 67.26 C33.79 67.26, 27.78 67.26, 13.27 67.26 M13.27 67.26 C4.42 67.26, 0 62.83, 0 53.99 M13.27 67.26 C4.42 67.26, 0 62.83, 0 53.99 M0 53.99 C0 38.5, 0 23.02, 0 13.27 M0 53.99 C0 41.47, 0 28.95, 0 13.27 M0 13.27 C0 4.42, 4.42 0, 13.27 0 M0 13.27 C0 4.42, 4.42 0, 13.27 0" stroke="#000000" stroke-width="1" fill="none"></path></g><g stroke-opacity="0.9" fill-opacity="0.9" transform="translate(313.72647259076166 98.18051989272135) rotate(0 18.61998748779297 12.5)"><text x="18.61998748779297" y="0" font-family="Virgil, Segoe UI Emoji" font-size="20px" fill="#000000" text-anchor="middle" style="white-space: pre;" direction="ltr" dominant-baseline="text-before-edge">API</text></g><g mask="url(#mask-bZTVUcPANoeloBEQLVJPf)" stroke-linecap="round"><g transform="translate(155.28863187322395 110.24746848129143) rotate(0 73.47782376390455 -0.064076308123731)"><path d="M0 0 C24.49 -0.02, 122.46 -0.11, 146.96 -0.13 M0 0 C24.49 -0.02, 122.46 -0.11, 146.96 -0.13" stroke="#2b8a3e" stroke-width="4" fill="none"></path></g><g transform="translate(155.28863187322395 110.24746848129143) rotate(0 73.47782376390455 -0.064076308123731)"><path d="M146.96 -0.13 L133.37 6.22 L133.36 -6.46 L146.96 -0.13" stroke="none" stroke-width="0" fill="#2b8a3e" fill-rule="evenodd"></path><path d="M146.96 -0.13 C142.57 1.92, 138.18 3.97, 133.37 6.22 M146.96 -0.13 C142.34 2.03, 137.72 4.19, 133.37 6.22 M133.37 6.22 C133.36 2.58, 133.36 -1.07, 133.36 -6.46 M133.37 6.22 C133.36 3.2, 133.36 0.17, 133.36 -6.46 M133.36 -6.46 C138.29 -4.16, 143.23 -1.86, 146.96 -0.13 M133.36 -6.46 C137.82 -4.38, 142.28 -2.31, 146.96 -0.13 M146.96 -0.13 C146.96 -0.13, 146.96 -0.13, 146.96 -0.13 M146.96 -0.13 C146.96 -0.13, 146.96 -0.13, 146.96 -0.13" stroke="#2b8a3e" stroke-width="4" fill="none"></path></g></g><mask id="mask-bZTVUcPANoeloBEQLVJPf"><rect x="0" y="0" fill="#fff" width="402.24427940103305" height="210.3756210975389"></rect><rect x="198.79847620597593" y="90.1833921731668" fill="#000" width="59.93595886230469" height="40" opacity="1"></rect></mask><g transform="translate(198.79847620597593 90.1833921731668) rotate(0 29.96797943115257 20.00000000000091)"><text x="29.967979431152344" y="0" font-family="Virgil, Segoe UI Emoji" font-size="16px" fill="#2f9e44" text-anchor="middle" style="white-space: pre;" direction="ltr" dominant-baseline="text-before-edge">jenkins</text><text x="29.967979431152344" y="20" font-family="Virgil, Segoe UI Emoji" font-size="16px" fill="#2f9e44" text-anchor="middle" style="white-space: pre;" direction="ltr" dominant-baseline="text-before-edge">request</text></g><g transform="translate(855.4603563789951 34.959433998388704) rotate(0 58.031951904296875 10)"><text x="0" y="0" font-family="Virgil, Segoe UI Emoji" font-size="16px" fill="#1e1e1e" text-anchor="start" style="white-space: pre;" direction="ltr" dominant-baseline="text-before-edge">Worker Cluster</text></g><g stroke-linecap="round"><g stroke-opacity="0.5" fill-opacity="0.5" transform="translate(459.45101697032123 36.711680770631574) rotate(89.99999999999994 28.037147436357372 73.96046346460389)" fill-rule="evenodd"><path d="M2.48 -5.8 C2.48 -5.8, 2.48 -5.8, 2.48 -5.8 M2.48 -5.8 C2.48 -5.8, 2.48 -5.8, 2.48 -5.8 M-0.07 1.54 C4.05 -2.92, 9.14 -10.14, 13.05 -12.45 M1.5 1.25 C5.75 -3.86, 10.71 -9.9, 13.35 -12.63 M1.31 9.57 C7.52 -0.53, 12.63 -7.09, 18.13 -14.4 M1.86 7.48 C6.54 0.95, 11.32 -4.44, 19.59 -12.13 M1.11 14.74 C9.66 2.62, 21.01 -7.98, 25.88 -13.69 M2.11 14.05 C10.89 3.74, 18.16 -4.88, 24.45 -13.51 M1.3 18.06 C10.43 10.51, 22.31 -2.34, 29.02 -13.57 M1.01 19.77 C8.88 11.06, 15.63 1.4, 28.72 -12.54 M1.4 25.15 C9.1 15.11, 20.8 3.63, 34.08 -10.65 M2.23 25.19 C8.65 18.58, 15.22 9.59, 34.28 -11.43 M-0.05 32.3 C11.59 19.52, 23.24 7.58, 36.36 -9.47 M2.11 32.21 C10.24 21.32, 20.2 9.49, 38.34 -11.17 M0.73 38.54 C11.41 26.19, 22.54 14.22, 40.91 -8.82 M0.98 38.39 C13.94 23.16, 25.11 9.84, 42.4 -10.26 M2.42 43.73 C16.27 28.74, 25.72 15.34, 46.72 -7.32 M0.91 44.55 C15.98 28.17, 30.44 11.78, 47.59 -8.06 M0.81 48.57 C15.14 31.3, 29.96 14.33, 51.03 -8.45 M2.98 49.17 C17.15 32.73, 33.96 14.3, 51.08 -6.25 M2.48 56.71 C19.99 33.99, 35.73 14.73, 53.63 -5.67 M1.11 55.87 C17.51 38.96, 31.14 20.98, 53.44 -3.69 M2.31 63.54 C18.99 40.07, 41.71 18.33, 55.06 -2.15 M0.62 62.62 C17.03 45.2, 31.89 28.02, 56.94 -0.61 M0.48 66.5 C19.6 46.57, 40.82 23, 56.95 4.58 M1.36 67.49 C21.09 44.9, 41.8 21.7, 57.02 5.03 M1.43 73.42 C14.9 61.84, 26.75 44.37, 56.85 9.65 M1.72 75.35 C20.56 50.64, 40.15 29.14, 57.17 10.03 M1.38 81.27 C17.05 62.45, 33.63 42.19, 55.31 18.18 M2.28 80.07 C14.13 66.22, 24.95 53.79, 57.14 17.69 M0.02 88.32 C21.73 65.74, 42.23 39.68, 58.06 21.1 M2.58 87.03 C22.86 63.5, 43.95 39.22, 57.15 23 M0.71 92.1 C20.24 70.32, 38.96 50.88, 55.65 31.24 M1.42 92.54 C21.13 71.64, 39.69 50.62, 56.73 29.16 M2.15 97.53 C17.79 79.18, 33.9 64.43, 55.05 34.08 M1.61 98.38 C14.55 84.98, 25.82 70.39, 56.29 35.73 M2.6 102.96 C22.79 80.06, 41.84 56.49, 58.53 40.09 M2.29 103.16 C21.62 82.5, 40.25 60.09, 57.22 41.4 M3.53 112.24 C20.04 91.06, 39.52 68.23, 56.73 47.08 M1.69 110.92 C21.67 88.66, 39.56 66.53, 56.94 47.7 M1.8 116.75 C20.1 95.58, 40.55 72.64, 58.1 52.94 M3.38 116.46 C22 92.03, 42.1 69.33, 57.5 54.17 M1.41 123.52 C20.85 103.27, 37 81.21, 58.65 61.77 M3.12 121.95 C18.61 104.22, 33.92 86.59, 57.42 59.92 M0.97 130.01 C14.7 116.31, 26.53 102.91, 55.45 64.66 M2.43 129.02 C19.95 107.35, 40.15 86.52, 56.24 66.76 M0.68 136.39 C17.98 120.55, 29.47 102.86, 55.61 69.98 M2.68 133.58 C22.83 110.09, 44.93 85.68, 57.66 70.96 M3.33 139.93 C14.64 125.51, 29.97 105.78, 55.24 79.77 M2.13 141.47 C19.16 120.82, 35.96 101.45, 57.55 78 M3.8 147.73 C14.02 130.2, 27.14 116.24, 54.98 84.44 M2.59 145.71 C15.8 131.92, 28.89 117.76, 57.57 84.7 M2.75 154.87 C15.87 136.31, 30.31 121.67, 55.73 90.96 M3.16 153.99 C14.31 139.47, 26.25 125.75, 56 89.78 M3.44 157.35 C26 131.12, 46.32 108.5, 58.75 96.8 M6.16 156.04 C16.13 143.83, 26.71 131.49, 57.98 95.28 M9.57 159.3 C18.48 143.39, 31.08 129.11, 57.45 102.07 M7.04 158.26 C21.45 143.13, 35.14 127.38, 56.29 103.05 M12.58 158.44 C25.6 145.91, 40.62 127.83, 56.84 108.33 M12.84 159.54 C27.67 140.13, 45.12 121.99, 57.02 108.93 M15.52 162.92 C33.63 142.8, 48.76 126.58, 56.53 114.86 M16.04 161.57 C30.89 144.62, 45.29 127.87, 57.57 113.52 M21.15 161.14 C35.64 145.03, 49.78 128.99, 55.72 121 M21.88 161.02 C34.13 148.19, 45.69 133.18, 55.76 119.89 M26.94 162.31 C38.48 148.73, 51.95 134.88, 58.68 126.96 M25.38 161.51 C33.8 153.39, 40.98 144.47, 56.44 126.74 M31.36 165 C37.07 155.63, 44.67 147.18, 56.5 131.9 M30.71 162.59 C37.63 154, 45.38 144.89, 57.25 131.97 M36.05 161.45 C43.88 154.89, 49.27 145.35, 56.56 138.7 M37.53 161.44 C43.67 154.67, 51.33 146.45, 57.29 139.78 M42.92 160.67 C47.92 155.64, 53.88 148.86, 55.53 144.3 M43.1 160.37 C46.3 156.33, 50.53 151.2, 56.13 144.51" stroke="#b2f2bb" stroke-width="0.5" fill="none"></path><path d="M0.53 0.28 C0.63 22.59, 1.01 108.35, 1.09 133.04 C1.17 157.73, 0.7 144.89, 1 148.4 C1.3 151.91, 1.08 152.24, 2.88 154.1 C4.69 155.96, 7.52 158.4, 11.83 159.56 C16.14 160.73, 22.92 161.16, 28.72 161.09 C34.51 161.01, 42.24 160.34, 46.61 159.1 C50.98 157.86, 53.58 155.64, 54.93 153.64 C56.28 151.64, 54.53 150.08, 54.72 147.11 C54.91 144.14, 55.81 158.56, 56.09 135.84 C56.37 113.12, 56.48 33.57, 56.41 10.78 C56.33 -12.02, 56.57 2.12, 55.62 -0.94 C54.67 -4, 52.56 -5.8, 50.69 -7.6 C48.83 -9.4, 48.22 -10.58, 44.42 -11.73 C40.63 -12.87, 33.28 -14.27, 27.9 -14.49 C22.53 -14.71, 16.38 -14.6, 12.18 -13.04 C7.98 -11.48, 4.68 -7.33, 2.7 -5.1 C0.73 -2.88, 0.74 -0.58, 0.32 0.33 C-0.1 1.25, 0.2 0.56, 0.17 0.37 M-0.65 -0.62 C-0.67 21.96, 0.38 109.46, 0.62 134.53 C0.85 159.6, 0.33 146.39, 0.75 149.77 C1.17 153.15, 1.01 153.19, 3.13 154.82 C5.25 156.45, 9.07 158.14, 13.48 159.53 C17.89 160.92, 23.91 163.49, 29.6 163.17 C35.3 162.85, 43.56 159.2, 47.66 157.63 C51.76 156.06, 52.75 155.75, 54.18 153.76 C55.61 151.77, 55.77 148.67, 56.24 145.68 C56.72 142.69, 56.87 158.18, 57.02 135.83 C57.16 113.47, 57.57 34.46, 57.13 11.56 C56.68 -11.34, 55.48 1.8, 54.35 -1.58 C53.22 -4.96, 52.11 -6.91, 50.36 -8.71 C48.61 -10.5, 47.44 -11.28, 43.83 -12.38 C40.22 -13.47, 33.89 -15.3, 28.69 -15.28 C23.5 -15.26, 17.17 -14.13, 12.66 -12.26 C8.14 -10.39, 3.85 -6.24, 1.61 -4.04 C-0.63 -1.85, -0.32 0.11, -0.78 0.92 C-1.24 1.73, -1.38 0.86, -1.13 0.83" stroke="#087f5b" stroke-width="1" fill="none"></path></g></g><mask></mask><g stroke-linecap="round"><g transform="translate(415.65501120396584 107.15546842857111) rotate(89.99999999999994 27.956490417553596 4.5804788693430964)"><path d="M0.9 -0.09 C1.22 0.62, 1.3 3.3, 2.42 4.56 C3.55 5.82, 5.57 6.6, 7.65 7.45 C9.72 8.29, 11.51 9.27, 14.87 9.63 C18.24 9.99, 22.86 9.74, 27.83 9.63 C32.8 9.52, 40.46 9.76, 44.7 8.96 C48.95 8.17, 51.77 6.45, 53.28 4.85 C54.78 3.26, 53.45 0.15, 53.73 -0.6 M-0.08 -1.18 C0.11 -0.28, 0.83 4.56, 1.99 6.16 C3.15 7.75, 4.78 7.69, 6.88 8.38 C8.98 9.07, 10.81 10.12, 14.58 10.31 C18.35 10.49, 24.78 9.91, 29.49 9.49 C34.2 9.07, 38.74 8.71, 42.86 7.79 C46.98 6.87, 52.03 5.43, 54.2 3.97 C56.37 2.51, 56.03 -0.23, 55.9 -0.99" stroke="#2f9e44" stroke-width="1" fill="none"></path></g></g><mask></mask><g stroke-linecap="round"><g transform="translate(453.3390882895269 107.39041452453603) rotate(89.99999999999994 27.224465920488 3.17261650951059)"><path d="M0.98 0.11 C1.07 0.49, 0.5 1.44, 1.44 2.18 C2.37 2.92, 4.36 3.94, 6.6 4.55 C8.84 5.16, 11.04 5.46, 14.86 5.83 C18.68 6.19, 24.63 6.55, 29.55 6.73 C34.47 6.91, 40.67 7.62, 44.37 6.92 C48.07 6.21, 50.01 3.58, 51.75 2.51 C53.49 1.44, 54.22 1.04, 54.81 0.5 M0.04 -0.88 C-0.11 -0.35, -0.99 2.28, 0.49 3.34 C1.98 4.39, 6.61 4.93, 8.95 5.44 C11.3 5.95, 11.32 6.14, 14.58 6.4 C17.83 6.66, 23.85 7, 28.48 6.99 C33.12 6.98, 38.49 7.32, 42.4 6.34 C46.3 5.36, 50 2.08, 51.92 1.12 C53.85 0.16, 53.6 0.56, 53.94 0.6" stroke="#2f9e44" stroke-width="1" fill="none"></path></g></g><mask></mask><g stroke-linecap="round"><g transform="translate(498.8471473703544 107.55892975615825) rotate(89.99999999999994 26.425540101381102 3.1353795406848803)"><path d="M0 -0.83 C-0.1 -0.58, -0.7 0.83, 0.38 1.53 C1.46 2.23, 3.82 2.74, 6.49 3.38 C9.15 4.02, 12.64 4.85, 16.36 5.39 C20.08 5.93, 24.5 6.72, 28.8 6.63 C33.11 6.54, 38.31 5.49, 42.19 4.87 C46.06 4.25, 50.01 3.86, 52.03 2.92 C54.05 1.98, 54.01 -0.15, 54.31 -0.77 M-1.46 1.4 C-1.28 1.78, 0.84 2.18, 2.55 2.64 C4.27 3.11, 6.44 3.54, 8.85 4.16 C11.26 4.78, 13.89 5.81, 17.02 6.37 C20.14 6.92, 23.26 7.92, 27.61 7.48 C31.96 7.05, 38.93 4.69, 43.13 3.78 C47.34 2.87, 51.07 2.87, 52.83 2.02 C54.59 1.17, 53.77 -1.19, 53.68 -1.32" stroke="#2f9e44" stroke-width="1" fill="none"></path></g></g><mask></mask><g stroke-linecap="round"><g transform="translate(532.5147138197362 104.56570846565774) rotate(89.99999999999994 26.938391219100822 5.60901619775359)"><path d="M-1.03 -0.63 C-0.96 0.13, -1.14 2.43, 0.42 4.01 C1.99 5.59, 5.71 7.44, 8.36 8.85 C11.01 10.25, 13.09 11.96, 16.32 12.44 C19.55 12.91, 23.14 11.92, 27.74 11.69 C32.34 11.46, 39.69 12.31, 43.92 11.05 C48.15 9.79, 51.36 6.09, 53.13 4.12 C54.89 2.14, 54.49 0.05, 54.49 -0.79 M0.63 1.55 C1.07 2.49, 1.38 3.6, 2.61 5.01 C3.83 6.43, 5.63 9.15, 8 10.04 C10.37 10.93, 13.26 10.01, 16.84 10.34 C20.42 10.68, 25.3 12.02, 29.46 12.03 C33.63 12.05, 37.72 11.42, 41.84 10.45 C45.96 9.48, 52.21 8.19, 54.17 6.23 C56.13 4.26, 53.54 -0.49, 53.61 -1.35" stroke="#087f5b" stroke-width="1" fill="none"></path></g></g><mask></mask><g stroke-linecap="round" transform="translate(702.1253543784819 194.20417323489528) rotate(0 19.315461524151033 29.310139558423543)"><path d="M0.94 0.69 L39.53 -1.82 L40.13 60.56 L-0.22 56.87" stroke="none" stroke-width="0" fill="#fff"></path><path d="M-0.62 0.27 C15.33 -0.37, 28.97 -0.16, 39.55 -1.58 M0.57 0.05 C13.07 -0.65, 25.88 0.91, 38.06 -0.02 M38.95 -0.46 C37.64 20.43, 38.68 37.36, 37.18 58.52 M38.16 0.46 C37.91 12.07, 38.8 24.89, 39.05 57.66 M39.01 59.6 C30.33 59.26, 20.6 57.34, -1.64 58.27 M38.36 59.6 C23.34 58.86, 9.12 58.92, -0.22 59.01 M-0.32 58.86 C0.33 41.4, -1.3 23.81, -0.81 -1.28 M-0.11 57.95 C0.6 35.54, -0.86 12.35, 0.15 0.06" stroke="#1971c2" stroke-width="2" fill="none"></path></g><g stroke-linecap="round" transform="translate(698.0001398939316 190.36719000268567) rotate(0 19.315461524151033 29.310139558423543)"><path d="M0.9 -1.82 L40.13 1.94 L38.41 56.87 L1.67 58.77" stroke="none" stroke-width="0" fill="#fff"></path><path d="M0.07 -0.36 C10.11 -0.21, 24.24 -1.63, 39.34 1.93 M0.12 -0.72 C10.92 0.82, 21.31 -0.03, 38.85 -0.19 M37.75 1.57 C38.89 12.34, 37.27 25.28, 36.76 57.16 M38.33 -0.02 C38.95 16.29, 38.78 30.22, 38.05 58.84 M39.69 59.48 C29.93 57.75, 18.22 58.45, 1.88 59.14 M38.56 58.56 C25.01 59, 9.27 59.39, 0.01 57.72 M-0.2 59.02 C-1.73 39.66, -0.71 18.54, 1.92 -0.17 M0.55 58.75 C-0.85 41.68, 0.22 24.53, 0.47 0.34" stroke="#1971c2" stroke-width="2" fill="none"></path></g><g stroke-linecap="round" transform="translate(692.8650485030344 185.855837141984) rotate(0 19.315461524151033 29.310139558423543)"><path d="M1.5 1.94 L38.41 -1.75 L40.3 58.77 L1.21 57.88" stroke="none" stroke-width="0" fill="#fff"></path><path d="M-1.55 -0.16 C13.02 -1.51, 24.91 2, 38.29 1.15 M-0.02 0.84 C11.21 0.26, 23.77 0.08, 37.8 0.16 M38.8 -0.36 C36.92 16.12, 36.5 30.99, 37.95 57.68 M39.23 0.7 C38.88 19.35, 37.88 40.84, 38.06 58.81 M39.32 57.56 C23.52 58.43, 13.57 59.3, 1.54 58.07 M39.58 58.62 C23.04 58.98, 7.88 57.7, 0.31 58.46 M-1.83 59.05 C-0.75 39.03, 1.97 21.85, -0.17 -0.23 M-0.91 58.76 C-0.17 45, 0.15 31.6, 0.45 -0.91" stroke="#1971c2" stroke-width="2" fill="none"></path></g><g stroke-linecap="round"><g transform="translate(699.4164919329182 212.49970498393304) rotate(0 12.508656928432174 -0.5592451473394249)"><path d="M-0.09 0.55 C3.47 0.79, 16.7 0.92, 21.15 0.51 C25.6 0.1, 25.79 -1.54, 26.62 -1.89 M-1.6 -0.2 C2.35 -0.25, 18.69 -1.31, 23.36 -1.39 C28.04 -1.47, 25.9 -0.83, 26.46 -0.68" stroke="#1971c2" stroke-width="1" fill="none"></path></g></g><mask></mask><g stroke-linecap="round"><g transform="translate(700.4305205925343 195.30166449632998) rotate(0 12.323419713752855 -0.2548577426759948)"><path d="M-0.95 0.42 C0.8 0.04, 5.94 -1.64, 10.36 -1.73 C14.78 -1.82, 23.15 -0.24, 25.59 -0.12 M0.76 -0.4 C2.45 -0.64, 5.95 -0.57, 10.02 -0.3 C14.09 -0.03, 22.63 1.24, 25.19 1.23" stroke="#1971c2" stroke-width="1" fill="none"></path></g></g><mask></mask><g stroke-linecap="round"><g transform="translate(700.3886534526819 232.13753274473675) rotate(0 13.469931488981047 -0.1580261873486961)"><path d="M1.16 -0.2 C3.84 -0.29, 11.87 -0.18, 15.12 -0.08 C18.38 0.02, 18.82 0.4, 20.7 0.4 C22.58 0.41, 25.56 0.19, 26.4 -0.06 M0.31 -1.35 C2.97 -1.26, 11.25 1.05, 14.54 1.49 C17.82 1.92, 18 1.86, 20.01 1.27 C22.03 0.67, 25.37 -1.76, 26.63 -2.09" stroke="#1971c2" stroke-width="1" fill="none"></path></g></g><mask></mask><g stroke-linecap="round"><g transform="translate(698.6483428741599 238.28272124078467) rotate(0 14.793500706492296 -0.04646763290929812)"><path d="M0.69 0.06 C1.44 -0.16, 4.35 -1.58, 5.7 -1.5 C7.05 -1.42, 5.64 0.25, 8.79 0.55 C11.94 0.85, 21.07 0.66, 24.6 0.32 C28.14 -0.02, 29.31 -1.26, 30 -1.49 M-0.41 -0.96 C0.1 -1.03, 3.42 -0.36, 4.82 -0.41 C6.23 -0.47, 4.74 -1.57, 8.02 -1.26 C11.29 -0.96, 21.05 1.4, 24.49 1.41 C27.93 1.42, 27.81 -0.65, 28.66 -1.22" stroke="#1971c2" stroke-width="1" fill="none"></path></g></g><mask></mask><g stroke-linecap="round"><g transform="translate(698.8040299843401 203.53336544412923) rotate(0 11.861123482583025 0.7027610236564215)"><path d="M0.14 -0.86 C1.68 -0.76, 5.78 0.38, 9.92 0.69 C14.06 1, 22.3 0.99, 24.97 1.01 M-1.24 1.3 C0.07 1.08, 4.78 -1.07, 8.96 -0.9 C13.14 -0.73, 20.95 1.87, 23.84 2.32" stroke="#1971c2" stroke-width="1" fill="none"></path></g></g><mask></mask><g stroke-linecap="round"><g transform="translate(698.862780007239 222.3809826062843) rotate(0 11.576860978750574 0.9355342503067732)"><path d="M-0.02 1.01 C0.58 1.28, 2.04 1.02, 3.74 0.76 C5.45 0.5, 6.72 -0.63, 10.21 -0.56 C13.69 -0.48, 22.12 1.05, 24.65 1.22 M-1.49 0.5 C-0.51 1.05, 4.25 2.27, 6.09 2.29 C7.94 2.31, 6.53 0.62, 9.58 0.64 C12.62 0.66, 21.4 2.43, 24.37 2.43" stroke="#1971c2" stroke-width="1" fill="none"></path></g></g><mask></mask><g stroke-linecap="round"><g transform="translate(360.75774688161255 108.23085688001811) rotate(0 16.600889908643467 0)"><path d="M0 0 C5.53 0, 27.67 0, 33.2 0 M0 0 C5.53 0, 27.67 0, 33.2 0" stroke="#2f9e44" stroke-width="4" fill="none"></path></g><g transform="translate(360.75774688161255 108.23085688001811) rotate(0 16.600889908643467 0)"><path d="M33.2 0 L19.61 6.34 L19.61 -6.34 L33.2 0" stroke="none" stroke-width="0" fill="#2f9e44" fill-rule="evenodd"></path><path d="M33.2 0 C30.13 1.43, 27.07 2.86, 19.61 6.34 M33.2 0 C28.06 2.4, 22.92 4.79, 19.61 6.34 M19.61 6.34 C19.61 3.25, 19.61 0.15, 19.61 -6.34 M19.61 6.34 C19.61 1.83, 19.61 -2.67, 19.61 -6.34 M19.61 -6.34 C24.45 -4.08, 29.3 -1.82, 33.2 0 M19.61 -6.34 C23.26 -4.63, 26.92 -2.93, 33.2 0 M33.2 0 C33.2 0, 33.2 0, 33.2 0 M33.2 0 C33.2 0, 33.2 0, 33.2 0" stroke="#2f9e44" stroke-width="4" fill="none"></path></g></g><mask></mask></svg>