<svg version="1.1" xmlns="http://www.w3.org/2000/svg" viewBox="0 0 740.0571838265478 471.7658258973079">
  <!-- svg-source:excalidraw -->
  
  <defs>
    <style class="style-fonts">
      @font-face {
        font-family: "Virgil";
        src: url("https://excalidraw.com/Virgil.woff2");
      }
      @font-face {
        font-family: "Cascadia";
        src: url("https://excalidraw.com/Cascadia.woff2");
      }
    </style>
    
  </defs>
  <g mask="url(#mask-zB3YS33ZIuv-WEYWLRQ3H)" stroke-linecap="round"><g transform="translate(87.67304418042204 243.16095360996587) rotate(0 113.07731245343803 -0.5782047938346295)"><path d="M0 0 C37.69 -0.19, 188.46 -0.96, 226.15 -1.16 M0 0 C37.69 -0.19, 188.46 -0.96, 226.15 -1.16" stroke="#000000" stroke-width="1" fill="none"></path></g><g transform="translate(87.67304418042204 243.16095360996587) rotate(0 113.07731245343803 -0.5782047938346295)"><path d="M226.15 -1.16 L212.59 5.25 L212.53 -7.43 L226.15 -1.16" stroke="none" stroke-width="0" fill="#000000" fill-rule="evenodd"></path><path d="M226.15 -1.16 C221.58 1.01, 217 3.17, 212.59 5.25 M226.15 -1.16 C222.7 0.48, 219.25 2.11, 212.59 5.25 M212.59 5.25 C212.58 2.08, 212.56 -1.09, 212.53 -7.43 M212.59 5.25 C212.58 2.42, 212.56 -0.41, 212.53 -7.43 M212.53 -7.43 C215.59 -6.02, 218.64 -4.61, 226.15 -1.16 M212.53 -7.43 C216.37 -5.66, 220.2 -3.89, 226.15 -1.16 M226.15 -1.16 C226.15 -1.16, 226.15 -1.16, 226.15 -1.16 M226.15 -1.16 C226.15 -1.16, 226.15 -1.16, 226.15 -1.16" stroke="#000000" stroke-width="1" fill="none"></path></g></g><mask id="mask-zB3YS33ZIuv-WEYWLRQ3H"><rect x="0" y="0" fill="#fff" width="413.82766908729855" height="344.3173631976344"></rect><rect x="141.94238849421163" y="222.58274881613215" fill="#000" width="117.61593627929688" height="40" opacity="1"></rect></mask><g transform="translate(141.94238849421163 222.58274881613215) rotate(0 58.80796813964844 19.99999999999909)"><text x="58.80796813964844" y="0" font-family="Virgil, Segoe UI Emoji" font-size="16px" fill="#000000" text-anchor="middle" style="white-space: pre;" direction="ltr" dominant-baseline="text-before-edge">install Jenkins </text><text x="58.80796813964844" y="20" font-family="Virgil, Segoe UI Emoji" font-size="16px" fill="#000000" text-anchor="middle" style="white-space: pre;" direction="ltr" dominant-baseline="text-before-edge">Promise</text></g><g stroke-linecap="round" transform="translate(29.30162931063569 193.06553296255515) rotate(0 15.733984669645906 15.65994634762228)"><path d="M2.29 8.62 C2.29 8.62, 2.29 8.62, 2.29 8.62 M2.29 8.62 C2.29 8.62, 2.29 8.62, 2.29 8.62 M1.89 16.41 C4.19 13.68, 4.76 12.5, 13.8 2.5 M-0.74 17.29 C3.67 13.46, 6.55 11.32, 13.53 2.45 M-0.14 23.39 C5.3 13.88, 10.71 8.16, 16.93 4.26 M1.44 21.11 C7.85 13.27, 13.68 6.73, 17.74 2.68 M5.29 24.38 C11.45 18.87, 15.14 9.82, 21.07 2.87 M4.05 25.19 C7.57 20.87, 11.78 16.2, 22.73 2.77 M4.93 28.94 C13.99 20.33, 18.18 13.45, 28.04 4.14 M5.84 28.34 C11.88 22.86, 16.27 16.83, 25.5 6.21 M9.56 29.73 C13.97 22.48, 18.33 19.83, 30.79 8.71 M9.64 29.58 C16.2 23.81, 22.51 15.41, 29.08 9.11 M14.94 32.99 C17.95 26.11, 20.38 22.31, 34.34 10.39 M14.48 31.13 C20.8 22.85, 28.9 14.26, 33.59 10 M18.09 33.19 C21.58 30.62, 25.86 26.32, 32.81 19.32 M17.91 32.34 C21.86 28.28, 24.81 25.93, 30.41 17.31" stroke="#7950f2" stroke-width="0.5" fill="none"></path><path d="M20.36 1.61 C23.66 2.61, 27.99 5.25, 29.78 7.98 C31.56 10.72, 31.67 14.91, 31.09 18.01 C30.52 21.11, 28.93 24.43, 26.32 26.58 C23.71 28.73, 18.96 30.8, 15.44 30.93 C11.91 31.06, 7.79 29.24, 5.15 27.36 C2.52 25.47, 0.13 22.71, -0.37 19.61 C-0.86 16.52, 0.3 11.91, 2.16 8.77 C4.03 5.63, 7.15 1.83, 10.83 0.78 C14.52 -0.28, 21.62 1.79, 24.29 2.45 C26.96 3.11, 27.14 4.54, 26.87 4.74 M20.53 2.52 C23.14 3.32, 26.59 5.87, 28.26 8.48 C29.93 11.08, 31.23 15.04, 30.53 18.15 C29.83 21.25, 26.76 24.78, 24.06 27.1 C21.36 29.42, 17.57 32.13, 14.33 32.07 C11.09 32.01, 6.89 28.95, 4.6 26.75 C2.32 24.55, 1.1 21.98, 0.64 18.87 C0.18 15.76, 0.26 11.19, 1.86 8.11 C3.45 5.04, 7.01 1.35, 10.21 0.41 C13.4 -0.53, 19.25 2.08, 21.04 2.48 C22.83 2.87, 20.68 2.85, 20.94 2.79" stroke="#495057" stroke-width="1" fill="none"></path></g><g stroke-linecap="round"><g transform="translate(44.96157565825797 224.38542565780153) rotate(0 0.6071044309351237 21.722003606052567)" fill-rule="evenodd"><path d="M-10.54 0.11 C-10.54 0.11, -10.54 0.11, -10.54 0.11 M-10.54 0.11 C-10.54 0.11, -10.54 0.11, -10.54 0.11 M-14.57 11.37 C-13.33 9.68, -9.2 5.69, -3.84 -1.27 M-15.83 12.46 C-11.66 8.01, -9.8 5.28, -5.65 -0.26 M-19.31 22.02 C-11.27 17.06, -10.1 8.05, -1.76 0.46 M-18.23 21.44 C-11.28 14.06, -7.28 8.12, 0.31 0.99 M-21.07 31.28 C-12.92 21.94, -8.1 11.84, 8.84 -4.18 M-19.64 30.32 C-11.92 20.54, -3.44 10.99, 7.68 -3.54 M-21.6 34.34 C-8.37 22.85, 6.14 8.84, 10.57 0.15 M-20.55 35.17 C-11.72 25.81, -3.24 17.55, 10.73 1.38 M-22.33 42.1 C-13 30.53, -4.31 22.97, 10.45 4.77 M-20.36 42.23 C-9.13 28.32, 1.84 16.12, 11.92 4.15 M-18.1 44 C-4.55 30.44, 2.85 20.79, 15.38 7 M-16.31 43.49 C-7.88 33.15, 2.16 21.99, 14.98 8.01 M-14.61 47 C-2.67 36.59, 4.63 24.89, 19.07 9.88 M-12.85 45.04 C-5.43 37.53, 1.4 27.52, 16.93 11.15 M-11.67 48.01 C2.57 36.04, 13.92 23.23, 19.62 15.78 M-9.82 47.9 C-0.63 38.6, 6.73 29.5, 17.77 15.78 M-4.3 49.98 C4.19 40.99, 9.65 29.66, 20.36 19.44 M-5.41 49.56 C-0.17 41.55, 6.67 34.59, 20.42 19.47 M-0.29 47.51 C9.5 38.34, 14.84 29.12, 20.26 25.74 M1.32 47.92 C7.68 39.82, 15.26 32.11, 21.2 24.45 M8.65 48.62 C11.94 39.61, 18.19 34.51, 22.13 28.12 M7.43 46.56 C10.64 41.75, 16.29 36.05, 23.15 28.33 M12.63 47.17 C15.47 43.52, 18.43 42.15, 23.93 35.49 M12.86 45.91 C16.14 42.75, 19.26 39.38, 23.53 34.76" stroke="#7950f2" stroke-width="0.5" fill="none"></path><path d="M0.79 -0.72 C2.31 -0.92, 6.3 -7.74, 9.8 -0.54 C13.3 6.65, 26.83 35.44, 21.81 42.45 C16.78 49.46, -14.99 48.56, -20.37 41.53 C-25.76 34.5, -13.73 7.32, -10.51 0.28 C-7.29 -6.77, -2.72 -0.55, -1.05 -0.74 M-0.25 1.52 C1.6 1.41, 8.55 -5.79, 12.18 0.71 C15.81 7.2, 26.87 33.5, 21.53 40.47 C16.18 47.44, -14.27 49.13, -19.86 42.52 C-25.45 35.91, -15.29 7.65, -12.01 0.82 C-8.73 -6.02, -2.18 1.46, -0.18 1.5" stroke="#495057" stroke-width="1" fill="none"></path></g></g><mask></mask><g stroke-linecap="round"><g transform="translate(325.18504908822797 71.89919399605606) rotate(0 0 168.52826532908148)"><path d="M0 0 C0 56.18, 0 280.88, 0 337.06 M0 0 C0 56.18, 0 280.88, 0 337.06" stroke="#000000" stroke-width="1" fill="none"></path></g></g><mask></mask><g transform="translate(10 284.0062900187222) rotate(0 34.47657775878906 20.246447535221705)"><text x="34.47657775878906" y="0" font-family="Virgil, Segoe UI Emoji" font-size="16.197158028177277px" fill="#5f3dc4" text-anchor="middle" style="white-space: pre;" direction="ltr" dominant-baseline="text-before-edge">Platform</text><text x="34.47657775878906" y="20.2464475352216" font-family="Virgil, Segoe UI Emoji" font-size="16.197158028177277px" fill="#5f3dc4" text-anchor="middle" style="white-space: pre;" direction="ltr" dominant-baseline="text-before-edge">Engineer</text></g><g stroke-linecap="round" transform="translate(606.8149071053995 19.977069595845023) rotate(358.92972393214535 3.7680364110324263 19.55595047308725)"><path d="M1.88 0 L5.65 0 L7.07 0.47 L7.54 1.88 L7.54 37.23 L7.07 38.64 L5.65 39.11 L0.47 38.64 L0 37.23 L0 1.88 L0.47 0.47 L1.88 0" stroke="none" stroke-width="0" fill="#7950f2"></path><path d="M1.88 0 M1.88 0 C3.26 0, 4.64 0, 5.65 0 M1.88 0 C2.75 0, 3.62 0, 5.65 0 M5.65 0 C6.91 0, 7.54 0.63, 7.54 1.88 M5.65 0 C6.91 0, 7.54 0.63, 7.54 1.88 M7.54 1.88 C7.54 10.55, 7.54 19.22, 7.54 37.23 M7.54 1.88 C7.54 12.58, 7.54 23.27, 7.54 37.23 M7.54 37.23 C7.54 38.48, 6.91 39.11, 5.65 39.11 M7.54 37.23 C7.54 38.48, 6.91 39.11, 5.65 39.11 M5.65 39.11 C4.5 39.11, 3.36 39.11, 1.88 39.11 M5.65 39.11 C4.18 39.11, 2.7 39.11, 1.88 39.11 M1.88 39.11 C0.63 39.11, 0 38.48, 0 37.23 M1.88 39.11 C0.63 39.11, 0 38.48, 0 37.23 M0 37.23 C0 23.55, 0 9.88, 0 1.88 M0 37.23 C0 30, 0 22.78, 0 1.88 M0 1.88 C0 0.63, 0.63 0, 1.88 0 M0 1.88 C0 0.63, 0.63 0, 1.88 0" stroke="transparent" stroke-width="1" fill="none"></path></g><g stroke-linecap="round" transform="translate(620.8515465386845 14.982056672453837) rotate(40.41727686562419 3.7680364110324263 24.785791502693428)"><path d="M1.88 0 L5.65 0 L7.07 0.47 L7.54 1.88 L7.54 47.69 L7.07 49.1 L5.65 49.57 L0.47 49.1 L0 47.69 L0 1.88 L0.47 0.47 L1.88 0" stroke="none" stroke-width="0" fill="#7950f2"></path><path d="M1.88 0 M1.88 0 C2.67 0, 3.46 0, 5.65 0 M1.88 0 C2.75 0, 3.61 0, 5.65 0 M5.65 0 C6.91 0, 7.54 0.63, 7.54 1.88 M5.65 0 C6.91 0, 7.54 0.63, 7.54 1.88 M7.54 1.88 C7.54 19.67, 7.54 37.46, 7.54 47.69 M7.54 1.88 C7.54 12.38, 7.54 22.88, 7.54 47.69 M7.54 47.69 C7.54 48.94, 6.91 49.57, 5.65 49.57 M7.54 47.69 C7.54 48.94, 6.91 49.57, 5.65 49.57 M5.65 49.57 C4.15 49.57, 2.65 49.57, 1.88 49.57 M5.65 49.57 C4.23 49.57, 2.81 49.57, 1.88 49.57 M1.88 49.57 C0.63 49.57, 0 48.94, 0 47.69 M1.88 49.57 C0.63 49.57, 0 48.94, 0 47.69 M0 47.69 C0 32.36, 0 17.03, 0 1.88 M0 47.69 C0 37.7, 0 27.71, 0 1.88 M0 1.88 C0 0.63, 0.63 0, 1.88 0 M0 1.88 C0 0.63, 0.63 0, 1.88 0" stroke="transparent" stroke-width="1" fill="none"></path></g><g stroke-linecap="round" transform="translate(629.4940708035392 33.53707268045946) rotate(139.22073182693399 3.7680364110324263 14.147647249566944)"><path d="M1.88 0 L5.65 0 L7.07 0.47 L7.54 1.88 L7.54 26.41 L7.07 27.82 L5.65 28.3 L0.47 27.82 L0 26.41 L0 1.88 L0.47 0.47 L1.88 0" stroke="none" stroke-width="0" fill="#7950f2"></path><path d="M1.88 0 M1.88 0 C2.64 0, 3.39 0, 5.65 0 M1.88 0 C3.21 0, 4.53 0, 5.65 0 M5.65 0 C6.91 0, 7.54 0.63, 7.54 1.88 M5.65 0 C6.91 0, 7.54 0.63, 7.54 1.88 M7.54 1.88 C7.54 8.05, 7.54 14.22, 7.54 26.41 M7.54 1.88 C7.54 7.97, 7.54 14.06, 7.54 26.41 M7.54 26.41 C7.54 27.67, 6.91 28.3, 5.65 28.3 M7.54 26.41 C7.54 27.67, 6.91 28.3, 5.65 28.3 M5.65 28.3 C4.88 28.3, 4.11 28.3, 1.88 28.3 M5.65 28.3 C4.63 28.3, 3.6 28.3, 1.88 28.3 M1.88 28.3 C0.63 28.3, 0 27.67, 0 26.41 M1.88 28.3 C0.63 28.3, 0 27.67, 0 26.41 M0 26.41 C0 18.23, 0 10.04, 0 1.88 M0 26.41 C0 20.88, 0 15.34, 0 1.88 M0 1.88 C0 0.63, 0.63 0, 1.88 0 M0 1.88 C0 0.63, 0.63 0, 1.88 0" stroke="transparent" stroke-width="1" fill="none"></path></g><g stroke-linecap="round" transform="translate(605.947562252326 18.022548692513737) rotate(358.1310915065084 4.2070221584958745 4.569555668486828)"><path d="M8.41 4.57 C8.41 4.83, 8.39 5.1, 8.35 5.36 C8.31 5.62, 8.24 5.88, 8.16 6.13 C8.08 6.38, 7.97 6.63, 7.85 6.85 C7.73 7.08, 7.59 7.3, 7.43 7.51 C7.27 7.71, 7.1 7.9, 6.91 8.07 C6.72 8.24, 6.52 8.39, 6.31 8.53 C6.1 8.66, 5.87 8.77, 5.65 8.86 C5.42 8.95, 5.18 9.02, 4.94 9.07 C4.7 9.12, 4.45 9.14, 4.21 9.14 C3.96 9.14, 3.72 9.12, 3.48 9.07 C3.24 9.02, 3 8.95, 2.77 8.86 C2.54 8.77, 2.31 8.66, 2.1 8.53 C1.89 8.39, 1.69 8.24, 1.5 8.07 C1.32 7.9, 1.14 7.71, 0.98 7.51 C0.83 7.3, 0.69 7.08, 0.56 6.85 C0.44 6.63, 0.34 6.38, 0.25 6.13 C0.17 5.88, 0.11 5.62, 0.06 5.36 C0.02 5.1, 0 4.83, 0 4.57 C0 4.31, 0.02 4.04, 0.06 3.78 C0.11 3.52, 0.17 3.26, 0.25 3.01 C0.34 2.76, 0.44 2.51, 0.56 2.28 C0.69 2.06, 0.83 1.83, 0.98 1.63 C1.14 1.43, 1.32 1.24, 1.5 1.07 C1.69 0.9, 1.89 0.74, 2.1 0.61 C2.31 0.48, 2.54 0.37, 2.77 0.28 C3 0.19, 3.24 0.12, 3.48 0.07 C3.72 0.02, 3.96 0, 4.21 0 C4.45 0, 4.7 0.02, 4.94 0.07 C5.18 0.12, 5.42 0.19, 5.65 0.28 C5.87 0.37, 6.1 0.48, 6.31 0.61 C6.52 0.74, 6.72 0.9, 6.91 1.07 C7.1 1.24, 7.27 1.43, 7.43 1.63 C7.59 1.83, 7.73 2.06, 7.85 2.28 C7.97 2.51, 8.08 2.76, 8.16 3.01 C8.24 3.26, 8.31 3.52, 8.35 3.78 C8.39 4.04, 8.4 4.44, 8.41 4.57 C8.42 4.7, 8.42 4.44, 8.41 4.57" stroke="none" stroke-width="0" fill="#7950f2"></path><path d="M8.41 4.57 C8.41 4.83, 8.39 5.1, 8.35 5.36 C8.31 5.62, 8.24 5.88, 8.16 6.13 C8.08 6.38, 7.97 6.63, 7.85 6.85 C7.73 7.08, 7.59 7.3, 7.43 7.51 C7.27 7.71, 7.1 7.9, 6.91 8.07 C6.72 8.24, 6.52 8.39, 6.31 8.53 C6.1 8.66, 5.87 8.77, 5.65 8.86 C5.42 8.95, 5.18 9.02, 4.94 9.07 C4.7 9.12, 4.45 9.14, 4.21 9.14 C3.96 9.14, 3.72 9.12, 3.48 9.07 C3.24 9.02, 3 8.95, 2.77 8.86 C2.54 8.77, 2.31 8.66, 2.1 8.53 C1.89 8.39, 1.69 8.24, 1.5 8.07 C1.32 7.9, 1.14 7.71, 0.98 7.51 C0.83 7.3, 0.69 7.08, 0.56 6.85 C0.44 6.63, 0.34 6.38, 0.25 6.13 C0.17 5.88, 0.11 5.62, 0.06 5.36 C0.02 5.1, 0 4.83, 0 4.57 C0 4.31, 0.02 4.04, 0.06 3.78 C0.11 3.52, 0.17 3.26, 0.25 3.01 C0.34 2.76, 0.44 2.51, 0.56 2.28 C0.69 2.06, 0.83 1.83, 0.98 1.63 C1.14 1.43, 1.32 1.24, 1.5 1.07 C1.69 0.9, 1.89 0.74, 2.1 0.61 C2.31 0.48, 2.54 0.37, 2.77 0.28 C3 0.19, 3.24 0.12, 3.48 0.07 C3.72 0.02, 3.96 0, 4.21 0 C4.45 0, 4.7 0.02, 4.94 0.07 C5.18 0.12, 5.42 0.19, 5.65 0.28 C5.87 0.37, 6.1 0.48, 6.31 0.61 C6.52 0.74, 6.72 0.9, 6.91 1.07 C7.1 1.24, 7.27 1.43, 7.43 1.63 C7.59 1.83, 7.73 2.06, 7.85 2.28 C7.97 2.51, 8.08 2.76, 8.16 3.01 C8.24 3.26, 8.31 3.52, 8.35 3.78 C8.39 4.04, 8.4 4.44, 8.41 4.57 C8.42 4.7, 8.42 4.44, 8.41 4.57" stroke="#5f3dc4" stroke-width="1" fill="none"></path></g><g stroke-linecap="round" transform="translate(606.9081982793432 50.27058532813862) rotate(358.1310915065084 4.2070221584958745 4.569555668486828)"><path d="M8.41 4.57 C8.41 4.83, 8.39 5.1, 8.35 5.36 C8.31 5.62, 8.24 5.88, 8.16 6.13 C8.08 6.38, 7.97 6.63, 7.85 6.85 C7.73 7.08, 7.59 7.3, 7.43 7.51 C7.27 7.71, 7.1 7.9, 6.91 8.07 C6.72 8.24, 6.52 8.39, 6.31 8.53 C6.1 8.66, 5.87 8.77, 5.65 8.86 C5.42 8.95, 5.18 9.02, 4.94 9.07 C4.7 9.12, 4.45 9.14, 4.21 9.14 C3.96 9.14, 3.72 9.12, 3.48 9.07 C3.24 9.02, 3 8.95, 2.77 8.86 C2.54 8.77, 2.31 8.66, 2.1 8.53 C1.89 8.39, 1.69 8.24, 1.5 8.07 C1.32 7.9, 1.14 7.71, 0.98 7.51 C0.83 7.3, 0.69 7.08, 0.56 6.85 C0.44 6.63, 0.34 6.38, 0.25 6.13 C0.17 5.88, 0.11 5.62, 0.06 5.36 C0.02 5.1, 0 4.83, 0 4.57 C0 4.31, 0.02 4.04, 0.06 3.78 C0.11 3.52, 0.17 3.26, 0.25 3.01 C0.34 2.76, 0.44 2.51, 0.56 2.28 C0.69 2.06, 0.83 1.83, 0.98 1.63 C1.14 1.43, 1.32 1.24, 1.5 1.07 C1.69 0.9, 1.89 0.74, 2.1 0.61 C2.31 0.48, 2.54 0.37, 2.77 0.28 C3 0.19, 3.24 0.12, 3.48 0.07 C3.72 0.02, 3.96 0, 4.21 0 C4.45 0, 4.7 0.02, 4.94 0.07 C5.18 0.12, 5.42 0.19, 5.65 0.28 C5.87 0.37, 6.1 0.48, 6.31 0.61 C6.52 0.74, 6.72 0.9, 6.91 1.07 C7.1 1.24, 7.27 1.43, 7.43 1.63 C7.59 1.83, 7.73 2.06, 7.85 2.28 C7.97 2.51, 8.08 2.76, 8.16 3.01 C8.24 3.26, 8.31 3.52, 8.35 3.78 C8.39 4.04, 8.4 4.44, 8.41 4.57 C8.42 4.7, 8.42 4.44, 8.41 4.57" stroke="none" stroke-width="0" fill="#7950f2"></path><path d="M8.41 4.57 C8.41 4.83, 8.39 5.1, 8.35 5.36 C8.31 5.62, 8.24 5.88, 8.16 6.13 C8.08 6.38, 7.97 6.63, 7.85 6.85 C7.73 7.08, 7.59 7.3, 7.43 7.51 C7.27 7.71, 7.1 7.9, 6.91 8.07 C6.72 8.24, 6.52 8.39, 6.31 8.53 C6.1 8.66, 5.87 8.77, 5.65 8.86 C5.42 8.95, 5.18 9.02, 4.94 9.07 C4.7 9.12, 4.45 9.14, 4.21 9.14 C3.96 9.14, 3.72 9.12, 3.48 9.07 C3.24 9.02, 3 8.95, 2.77 8.86 C2.54 8.77, 2.31 8.66, 2.1 8.53 C1.89 8.39, 1.69 8.24, 1.5 8.07 C1.32 7.9, 1.14 7.71, 0.98 7.51 C0.83 7.3, 0.69 7.08, 0.56 6.85 C0.44 6.63, 0.34 6.38, 0.25 6.13 C0.17 5.88, 0.11 5.62, 0.06 5.36 C0.02 5.1, 0 4.83, 0 4.57 C0 4.31, 0.02 4.04, 0.06 3.78 C0.11 3.52, 0.17 3.26, 0.25 3.01 C0.34 2.76, 0.44 2.51, 0.56 2.28 C0.69 2.06, 0.83 1.83, 0.98 1.63 C1.14 1.43, 1.32 1.24, 1.5 1.07 C1.69 0.9, 1.89 0.74, 2.1 0.61 C2.31 0.48, 2.54 0.37, 2.77 0.28 C3 0.19, 3.24 0.12, 3.48 0.07 C3.72 0.02, 3.96 0, 4.21 0 C4.45 0, 4.7 0.02, 4.94 0.07 C5.18 0.12, 5.42 0.19, 5.65 0.28 C5.87 0.37, 6.1 0.48, 6.31 0.61 C6.52 0.74, 6.72 0.9, 6.91 1.07 C7.1 1.24, 7.27 1.43, 7.43 1.63 C7.59 1.83, 7.73 2.06, 7.85 2.28 C7.97 2.51, 8.08 2.76, 8.16 3.01 C8.24 3.26, 8.31 3.52, 8.35 3.78 C8.39 4.04, 8.4 4.44, 8.41 4.57 C8.42 4.7, 8.42 4.44, 8.41 4.57" stroke="#5f3dc4" stroke-width="1" fill="none"></path></g><g stroke-linecap="round" transform="translate(621.4455926544888 36.172696422416266) rotate(358.1310915065084 4.171683969157584 4.569555668486828)"><path d="M8.34 4.57 C8.34 4.83, 8.32 5.1, 8.28 5.36 C8.24 5.62, 8.17 5.88, 8.09 6.13 C8.01 6.38, 7.91 6.63, 7.78 6.85 C7.66 7.08, 7.52 7.3, 7.37 7.51 C7.21 7.71, 7.04 7.9, 6.85 8.07 C6.67 8.24, 6.47 8.39, 6.26 8.53 C6.05 8.66, 5.83 8.77, 5.6 8.86 C5.37 8.95, 5.13 9.02, 4.9 9.07 C4.66 9.12, 4.41 9.14, 4.17 9.14 C3.93 9.14, 3.69 9.12, 3.45 9.07 C3.21 9.02, 2.97 8.95, 2.74 8.86 C2.52 8.77, 2.29 8.66, 2.09 8.53 C1.88 8.39, 1.68 8.24, 1.49 8.07 C1.31 7.9, 1.13 7.71, 0.98 7.51 C0.82 7.3, 0.68 7.08, 0.56 6.85 C0.44 6.63, 0.33 6.38, 0.25 6.13 C0.17 5.88, 0.11 5.62, 0.06 5.36 C0.02 5.1, 0 4.83, 0 4.57 C0 4.31, 0.02 4.04, 0.06 3.78 C0.11 3.52, 0.17 3.26, 0.25 3.01 C0.33 2.76, 0.44 2.51, 0.56 2.28 C0.68 2.06, 0.82 1.83, 0.98 1.63 C1.13 1.43, 1.31 1.24, 1.49 1.07 C1.68 0.9, 1.88 0.74, 2.09 0.61 C2.29 0.48, 2.52 0.37, 2.74 0.28 C2.97 0.19, 3.21 0.12, 3.45 0.07 C3.69 0.02, 3.93 0, 4.17 0 C4.41 0, 4.66 0.02, 4.9 0.07 C5.13 0.12, 5.37 0.19, 5.6 0.28 C5.83 0.37, 6.05 0.48, 6.26 0.61 C6.47 0.74, 6.67 0.9, 6.85 1.07 C7.04 1.24, 7.21 1.43, 7.37 1.63 C7.52 1.83, 7.66 2.06, 7.78 2.28 C7.91 2.51, 8.01 2.76, 8.09 3.01 C8.17 3.26, 8.24 3.52, 8.28 3.78 C8.32 4.04, 8.33 4.44, 8.34 4.57 C8.35 4.7, 8.35 4.44, 8.34 4.57" stroke="none" stroke-width="0" fill="#7950f2"></path><path d="M8.34 4.57 C8.34 4.83, 8.32 5.1, 8.28 5.36 C8.24 5.62, 8.17 5.88, 8.09 6.13 C8.01 6.38, 7.91 6.63, 7.78 6.85 C7.66 7.08, 7.52 7.3, 7.37 7.51 C7.21 7.71, 7.04 7.9, 6.85 8.07 C6.67 8.24, 6.47 8.39, 6.26 8.53 C6.05 8.66, 5.83 8.77, 5.6 8.86 C5.37 8.95, 5.13 9.02, 4.9 9.07 C4.66 9.12, 4.41 9.14, 4.17 9.14 C3.93 9.14, 3.69 9.12, 3.45 9.07 C3.21 9.02, 2.97 8.95, 2.74 8.86 C2.52 8.77, 2.29 8.66, 2.09 8.53 C1.88 8.39, 1.68 8.24, 1.49 8.07 C1.31 7.9, 1.13 7.71, 0.98 7.51 C0.82 7.3, 0.68 7.08, 0.56 6.85 C0.44 6.63, 0.33 6.38, 0.25 6.13 C0.17 5.88, 0.11 5.62, 0.06 5.36 C0.02 5.1, 0 4.83, 0 4.57 C0 4.31, 0.02 4.04, 0.06 3.78 C0.11 3.52, 0.17 3.26, 0.25 3.01 C0.33 2.76, 0.44 2.51, 0.56 2.28 C0.68 2.06, 0.82 1.83, 0.98 1.63 C1.13 1.43, 1.31 1.24, 1.49 1.07 C1.68 0.9, 1.88 0.74, 2.09 0.61 C2.29 0.48, 2.52 0.37, 2.74 0.28 C2.97 0.19, 3.21 0.12, 3.45 0.07 C3.69 0.02, 3.93 0, 4.17 0 C4.41 0, 4.66 0.02, 4.9 0.07 C5.13 0.12, 5.37 0.19, 5.6 0.28 C5.83 0.37, 6.05 0.48, 6.26 0.61 C6.47 0.74, 6.67 0.9, 6.85 1.07 C7.04 1.24, 7.21 1.43, 7.37 1.63 C7.52 1.83, 7.66 2.06, 7.78 2.28 C7.91 2.51, 8.01 2.76, 8.09 3.01 C8.17 3.26, 8.24 3.52, 8.28 3.78 C8.32 4.04, 8.33 4.44, 8.34 4.57 C8.35 4.7, 8.35 4.44, 8.34 4.57" stroke="#5f3dc4" stroke-width="1" fill="none"></path></g><g stroke-linecap="round" transform="translate(634.5914973220079 18.82379979001962) rotate(358.1310915065084 4.2070221584958745 4.569555668486828)"><path d="M8.41 4.57 C8.41 4.83, 8.39 5.1, 8.35 5.36 C8.31 5.62, 8.24 5.88, 8.16 6.13 C8.08 6.38, 7.97 6.63, 7.85 6.85 C7.73 7.08, 7.59 7.3, 7.43 7.51 C7.27 7.71, 7.1 7.9, 6.91 8.07 C6.72 8.24, 6.52 8.39, 6.31 8.53 C6.1 8.66, 5.87 8.77, 5.65 8.86 C5.42 8.95, 5.18 9.02, 4.94 9.07 C4.7 9.12, 4.45 9.14, 4.21 9.14 C3.96 9.14, 3.72 9.12, 3.48 9.07 C3.24 9.02, 3 8.95, 2.77 8.86 C2.54 8.77, 2.31 8.66, 2.1 8.53 C1.89 8.39, 1.69 8.24, 1.5 8.07 C1.32 7.9, 1.14 7.71, 0.98 7.51 C0.83 7.3, 0.69 7.08, 0.56 6.85 C0.44 6.63, 0.34 6.38, 0.25 6.13 C0.17 5.88, 0.11 5.62, 0.06 5.36 C0.02 5.1, 0 4.83, 0 4.57 C0 4.31, 0.02 4.04, 0.06 3.78 C0.11 3.52, 0.17 3.26, 0.25 3.01 C0.34 2.76, 0.44 2.51, 0.56 2.28 C0.69 2.06, 0.83 1.83, 0.98 1.63 C1.14 1.43, 1.32 1.24, 1.5 1.07 C1.69 0.9, 1.89 0.74, 2.1 0.61 C2.31 0.48, 2.54 0.37, 2.77 0.28 C3 0.19, 3.24 0.12, 3.48 0.07 C3.72 0.02, 3.96 0, 4.21 0 C4.45 0, 4.7 0.02, 4.94 0.07 C5.18 0.12, 5.42 0.19, 5.65 0.28 C5.87 0.37, 6.1 0.48, 6.31 0.61 C6.52 0.74, 6.72 0.9, 6.91 1.07 C7.1 1.24, 7.27 1.43, 7.43 1.63 C7.59 1.83, 7.73 2.06, 7.85 2.28 C7.97 2.51, 8.08 2.76, 8.16 3.01 C8.24 3.26, 8.31 3.52, 8.35 3.78 C8.39 4.04, 8.4 4.44, 8.41 4.57 C8.42 4.7, 8.42 4.44, 8.41 4.57" stroke="none" stroke-width="0" fill="#7950f2"></path><path d="M8.41 4.57 C8.41 4.83, 8.39 5.1, 8.35 5.36 C8.31 5.62, 8.24 5.88, 8.16 6.13 C8.08 6.38, 7.97 6.63, 7.85 6.85 C7.73 7.08, 7.59 7.3, 7.43 7.51 C7.27 7.71, 7.1 7.9, 6.91 8.07 C6.72 8.24, 6.52 8.39, 6.31 8.53 C6.1 8.66, 5.87 8.77, 5.65 8.86 C5.42 8.95, 5.18 9.02, 4.94 9.07 C4.7 9.12, 4.45 9.14, 4.21 9.14 C3.96 9.14, 3.72 9.12, 3.48 9.07 C3.24 9.02, 3 8.95, 2.77 8.86 C2.54 8.77, 2.31 8.66, 2.1 8.53 C1.89 8.39, 1.69 8.24, 1.5 8.07 C1.32 7.9, 1.14 7.71, 0.98 7.51 C0.83 7.3, 0.69 7.08, 0.56 6.85 C0.44 6.63, 0.34 6.38, 0.25 6.13 C0.17 5.88, 0.11 5.62, 0.06 5.36 C0.02 5.1, 0 4.83, 0 4.57 C0 4.31, 0.02 4.04, 0.06 3.78 C0.11 3.52, 0.17 3.26, 0.25 3.01 C0.34 2.76, 0.44 2.51, 0.56 2.28 C0.69 2.06, 0.83 1.83, 0.98 1.63 C1.14 1.43, 1.32 1.24, 1.5 1.07 C1.69 0.9, 1.89 0.74, 2.1 0.61 C2.31 0.48, 2.54 0.37, 2.77 0.28 C3 0.19, 3.24 0.12, 3.48 0.07 C3.72 0.02, 3.96 0, 4.21 0 C4.45 0, 4.7 0.02, 4.94 0.07 C5.18 0.12, 5.42 0.19, 5.65 0.28 C5.87 0.37, 6.1 0.48, 6.31 0.61 C6.52 0.74, 6.72 0.9, 6.91 1.07 C7.1 1.24, 7.27 1.43, 7.43 1.63 C7.59 1.83, 7.73 2.06, 7.85 2.28 C7.97 2.51, 8.08 2.76, 8.16 3.01 C8.24 3.26, 8.31 3.52, 8.35 3.78 C8.39 4.04, 8.4 4.44, 8.41 4.57 C8.42 4.7, 8.42 4.44, 8.41 4.57" stroke="#5f3dc4" stroke-width="1" fill="none"></path></g><g stroke-linecap="round" transform="translate(636.6425069041761 51.83716481769261) rotate(358.1310915065084 4.2070221584958745 4.569555668486828)"><path d="M8.41 4.57 C8.41 4.83, 8.39 5.1, 8.35 5.36 C8.31 5.62, 8.24 5.88, 8.16 6.13 C8.08 6.38, 7.97 6.63, 7.85 6.85 C7.73 7.08, 7.59 7.3, 7.43 7.51 C7.27 7.71, 7.1 7.9, 6.91 8.07 C6.72 8.24, 6.52 8.39, 6.31 8.53 C6.1 8.66, 5.87 8.77, 5.65 8.86 C5.42 8.95, 5.18 9.02, 4.94 9.07 C4.7 9.12, 4.45 9.14, 4.21 9.14 C3.96 9.14, 3.72 9.12, 3.48 9.07 C3.24 9.02, 3 8.95, 2.77 8.86 C2.54 8.77, 2.31 8.66, 2.1 8.53 C1.89 8.39, 1.69 8.24, 1.5 8.07 C1.32 7.9, 1.14 7.71, 0.98 7.51 C0.83 7.3, 0.69 7.08, 0.56 6.85 C0.44 6.63, 0.34 6.38, 0.25 6.13 C0.17 5.88, 0.11 5.62, 0.06 5.36 C0.02 5.1, 0 4.83, 0 4.57 C0 4.31, 0.02 4.04, 0.06 3.78 C0.11 3.52, 0.17 3.26, 0.25 3.01 C0.34 2.76, 0.44 2.51, 0.56 2.28 C0.69 2.06, 0.83 1.83, 0.98 1.63 C1.14 1.43, 1.32 1.24, 1.5 1.07 C1.69 0.9, 1.89 0.74, 2.1 0.61 C2.31 0.48, 2.54 0.37, 2.77 0.28 C3 0.19, 3.24 0.12, 3.48 0.07 C3.72 0.02, 3.96 0, 4.21 0 C4.45 0, 4.7 0.02, 4.94 0.07 C5.18 0.12, 5.42 0.19, 5.65 0.28 C5.87 0.37, 6.1 0.48, 6.31 0.61 C6.52 0.74, 6.72 0.9, 6.91 1.07 C7.1 1.24, 7.27 1.43, 7.43 1.63 C7.59 1.83, 7.73 2.06, 7.85 2.28 C7.97 2.51, 8.08 2.76, 8.16 3.01 C8.24 3.26, 8.31 3.52, 8.35 3.78 C8.39 4.04, 8.4 4.44, 8.41 4.57 C8.42 4.7, 8.42 4.44, 8.41 4.57" stroke="none" stroke-width="0" fill="#7950f2"></path><path d="M8.41 4.57 C8.41 4.83, 8.39 5.1, 8.35 5.36 C8.31 5.62, 8.24 5.88, 8.16 6.13 C8.08 6.38, 7.97 6.63, 7.85 6.85 C7.73 7.08, 7.59 7.3, 7.43 7.51 C7.27 7.71, 7.1 7.9, 6.91 8.07 C6.72 8.24, 6.52 8.39, 6.31 8.53 C6.1 8.66, 5.87 8.77, 5.65 8.86 C5.42 8.95, 5.18 9.02, 4.94 9.07 C4.7 9.12, 4.45 9.14, 4.21 9.14 C3.96 9.14, 3.72 9.12, 3.48 9.07 C3.24 9.02, 3 8.95, 2.77 8.86 C2.54 8.77, 2.31 8.66, 2.1 8.53 C1.89 8.39, 1.69 8.24, 1.5 8.07 C1.32 7.9, 1.14 7.71, 0.98 7.51 C0.83 7.3, 0.69 7.08, 0.56 6.85 C0.44 6.63, 0.34 6.38, 0.25 6.13 C0.17 5.88, 0.11 5.62, 0.06 5.36 C0.02 5.1, 0 4.83, 0 4.57 C0 4.31, 0.02 4.04, 0.06 3.78 C0.11 3.52, 0.17 3.26, 0.25 3.01 C0.34 2.76, 0.44 2.51, 0.56 2.28 C0.69 2.06, 0.83 1.83, 0.98 1.63 C1.14 1.43, 1.32 1.24, 1.5 1.07 C1.69 0.9, 1.89 0.74, 2.1 0.61 C2.31 0.48, 2.54 0.37, 2.77 0.28 C3 0.19, 3.24 0.12, 3.48 0.07 C3.72 0.02, 3.96 0, 4.21 0 C4.45 0, 4.7 0.02, 4.94 0.07 C5.18 0.12, 5.42 0.19, 5.65 0.28 C5.87 0.37, 6.1 0.48, 6.31 0.61 C6.52 0.74, 6.72 0.9, 6.91 1.07 C7.1 1.24, 7.27 1.43, 7.43 1.63 C7.59 1.83, 7.73 2.06, 7.85 2.28 C7.97 2.51, 8.08 2.76, 8.16 3.01 C8.24 3.26, 8.31 3.52, 8.35 3.78 C8.39 4.04, 8.4 4.44, 8.41 4.57 C8.42 4.7, 8.42 4.44, 8.41 4.57" stroke="#5f3dc4" stroke-width="1" fill="none"></path></g><g stroke-linecap="round" transform="translate(606.5105386374216 19.164760811172528) rotate(358.1310915065084 3.729693932574719 3.867855952339596)"><path d="M7.46 3.87 C7.46 4.09, 7.44 4.32, 7.4 4.54 C7.37 4.76, 7.31 4.98, 7.23 5.19 C7.16 5.4, 7.07 5.61, 6.96 5.8 C6.85 6, 6.73 6.18, 6.59 6.35 C6.45 6.53, 6.29 6.69, 6.13 6.83 C5.96 6.97, 5.78 7.11, 5.59 7.22 C5.41 7.33, 5.21 7.43, 5.01 7.5 C4.8 7.58, 4.59 7.64, 4.38 7.68 C4.16 7.72, 3.95 7.74, 3.73 7.74 C3.51 7.74, 3.29 7.72, 3.08 7.68 C2.87 7.64, 2.66 7.58, 2.45 7.5 C2.25 7.43, 2.05 7.33, 1.86 7.22 C1.68 7.11, 1.5 6.97, 1.33 6.83 C1.17 6.69, 1.01 6.53, 0.87 6.35 C0.73 6.18, 0.61 6, 0.5 5.8 C0.39 5.61, 0.3 5.4, 0.22 5.19 C0.15 4.98, 0.09 4.76, 0.06 4.54 C0.02 4.32, 0 4.09, 0 3.87 C0 3.64, 0.02 3.42, 0.06 3.2 C0.09 2.98, 0.15 2.76, 0.22 2.54 C0.3 2.33, 0.39 2.13, 0.5 1.93 C0.61 1.74, 0.73 1.55, 0.87 1.38 C1.01 1.21, 1.17 1.05, 1.33 0.9 C1.5 0.76, 1.68 0.63, 1.86 0.52 C2.05 0.41, 2.25 0.31, 2.45 0.23 C2.66 0.16, 2.87 0.1, 3.08 0.06 C3.29 0.02, 3.51 0, 3.73 0 C3.95 0, 4.16 0.02, 4.38 0.06 C4.59 0.1, 4.8 0.16, 5.01 0.23 C5.21 0.31, 5.41 0.41, 5.59 0.52 C5.78 0.63, 5.96 0.76, 6.13 0.9 C6.29 1.05, 6.45 1.21, 6.59 1.38 C6.73 1.55, 6.85 1.74, 6.96 1.93 C7.07 2.13, 7.16 2.33, 7.23 2.54 C7.31 2.76, 7.37 2.98, 7.4 3.2 C7.44 3.42, 7.45 3.76, 7.46 3.87 C7.47 3.98, 7.47 3.76, 7.46 3.87" stroke="#fff" stroke-width="1" fill="none"></path></g><g stroke-linecap="round" transform="translate(607.2838886834306 51.37736985991978) rotate(358.1310915065084 3.729693932574719 3.867855952339596)"><path d="M7.46 3.87 C7.46 4.09, 7.44 4.32, 7.4 4.54 C7.37 4.76, 7.31 4.98, 7.23 5.19 C7.16 5.4, 7.07 5.61, 6.96 5.8 C6.85 6, 6.73 6.18, 6.59 6.35 C6.45 6.53, 6.29 6.69, 6.13 6.83 C5.96 6.97, 5.78 7.11, 5.59 7.22 C5.41 7.33, 5.21 7.43, 5.01 7.5 C4.8 7.58, 4.59 7.64, 4.38 7.68 C4.16 7.72, 3.95 7.74, 3.73 7.74 C3.51 7.74, 3.29 7.72, 3.08 7.68 C2.87 7.64, 2.66 7.58, 2.45 7.5 C2.25 7.43, 2.05 7.33, 1.86 7.22 C1.68 7.11, 1.5 6.97, 1.33 6.83 C1.17 6.69, 1.01 6.53, 0.87 6.35 C0.73 6.18, 0.61 6, 0.5 5.8 C0.39 5.61, 0.3 5.4, 0.22 5.19 C0.15 4.98, 0.09 4.76, 0.06 4.54 C0.02 4.32, 0 4.09, 0 3.87 C0 3.64, 0.02 3.42, 0.06 3.2 C0.09 2.98, 0.15 2.76, 0.22 2.54 C0.3 2.33, 0.39 2.13, 0.5 1.93 C0.61 1.74, 0.73 1.55, 0.87 1.38 C1.01 1.21, 1.17 1.05, 1.33 0.9 C1.5 0.76, 1.68 0.63, 1.86 0.52 C2.05 0.41, 2.25 0.31, 2.45 0.23 C2.66 0.16, 2.87 0.1, 3.08 0.06 C3.29 0.02, 3.51 0, 3.73 0 C3.95 0, 4.16 0.02, 4.38 0.06 C4.59 0.1, 4.8 0.16, 5.01 0.23 C5.21 0.31, 5.41 0.41, 5.59 0.52 C5.78 0.63, 5.96 0.76, 6.13 0.9 C6.29 1.05, 6.45 1.21, 6.59 1.38 C6.73 1.55, 6.85 1.74, 6.96 1.93 C7.07 2.13, 7.16 2.33, 7.23 2.54 C7.31 2.76, 7.37 2.98, 7.4 3.2 C7.44 3.42, 7.45 3.76, 7.46 3.87 C7.47 3.98, 7.47 3.76, 7.46 3.87" stroke="#fff" stroke-width="1" fill="none"></path></g><g stroke-linecap="round" transform="translate(621.8493680935171 36.644652442124425) rotate(358.1310915065084 3.724686267937159 3.7725718007777687)"><path d="M7.45 3.77 C7.45 3.99, 7.43 4.21, 7.39 4.43 C7.36 4.64, 7.3 4.86, 7.22 5.06 C7.15 5.27, 7.06 5.47, 6.95 5.66 C6.84 5.85, 6.72 6.03, 6.58 6.2 C6.44 6.36, 6.28 6.52, 6.12 6.66 C5.95 6.8, 5.77 6.93, 5.59 7.04 C5.4 7.15, 5.2 7.24, 5 7.32 C4.8 7.39, 4.58 7.45, 4.37 7.49 C4.16 7.53, 3.94 7.55, 3.72 7.55 C3.51 7.55, 3.29 7.53, 3.08 7.49 C2.87 7.45, 2.65 7.39, 2.45 7.32 C2.25 7.24, 2.05 7.15, 1.86 7.04 C1.68 6.93, 1.5 6.8, 1.33 6.66 C1.17 6.52, 1.01 6.36, 0.87 6.2 C0.73 6.03, 0.61 5.85, 0.5 5.66 C0.39 5.47, 0.3 5.27, 0.22 5.06 C0.15 4.86, 0.09 4.64, 0.06 4.43 C0.02 4.21, 0 3.99, 0 3.77 C0 3.55, 0.02 3.33, 0.06 3.12 C0.09 2.9, 0.15 2.69, 0.22 2.48 C0.3 2.28, 0.39 2.08, 0.5 1.89 C0.61 1.7, 0.73 1.51, 0.87 1.35 C1.01 1.18, 1.17 1.02, 1.33 0.88 C1.5 0.74, 1.68 0.61, 1.86 0.51 C2.05 0.4, 2.25 0.3, 2.45 0.23 C2.65 0.15, 2.87 0.1, 3.08 0.06 C3.29 0.02, 3.51 0, 3.72 0 C3.94 0, 4.16 0.02, 4.37 0.06 C4.58 0.1, 4.8 0.15, 5 0.23 C5.2 0.3, 5.4 0.4, 5.59 0.51 C5.77 0.61, 5.95 0.74, 6.12 0.88 C6.28 1.02, 6.44 1.18, 6.58 1.35 C6.72 1.51, 6.84 1.7, 6.95 1.89 C7.06 2.08, 7.15 2.28, 7.22 2.48 C7.3 2.69, 7.36 2.9, 7.39 3.12 C7.43 3.33, 7.44 3.66, 7.45 3.77 C7.46 3.88, 7.46 3.66, 7.45 3.77" stroke="#fff" stroke-width="1" fill="none"></path></g><g stroke-linecap="round" transform="translate(635.4012949319913 19.728872308625796) rotate(358.1310915065084 3.325364728417753 3.7725718007777687)"><path d="M6.65 3.77 C6.65 3.99, 6.63 4.21, 6.6 4.43 C6.57 4.64, 6.52 4.86, 6.45 5.06 C6.38 5.27, 6.3 5.47, 6.21 5.66 C6.11 5.85, 6 6.03, 5.87 6.2 C5.75 6.36, 5.61 6.52, 5.46 6.66 C5.32 6.8, 5.15 6.93, 4.99 7.04 C4.82 7.15, 4.64 7.24, 4.46 7.32 C4.28 7.39, 4.09 7.45, 3.9 7.49 C3.71 7.53, 3.52 7.55, 3.33 7.55 C3.13 7.55, 2.94 7.53, 2.75 7.49 C2.56 7.45, 2.37 7.39, 2.19 7.32 C2.01 7.24, 1.83 7.15, 1.66 7.04 C1.5 6.93, 1.34 6.8, 1.19 6.66 C1.04 6.52, 0.9 6.36, 0.78 6.2 C0.65 6.03, 0.54 5.85, 0.45 5.66 C0.35 5.47, 0.27 5.27, 0.2 5.06 C0.13 4.86, 0.08 4.64, 0.05 4.43 C0.02 4.21, 0 3.99, 0 3.77 C0 3.55, 0.02 3.33, 0.05 3.12 C0.08 2.9, 0.13 2.69, 0.2 2.48 C0.27 2.28, 0.35 2.08, 0.45 1.89 C0.54 1.7, 0.65 1.51, 0.78 1.35 C0.9 1.18, 1.04 1.02, 1.19 0.88 C1.34 0.74, 1.5 0.61, 1.66 0.51 C1.83 0.4, 2.01 0.3, 2.19 0.23 C2.37 0.15, 2.56 0.1, 2.75 0.06 C2.94 0.02, 3.13 0, 3.33 0 C3.52 0, 3.71 0.02, 3.9 0.06 C4.09 0.1, 4.28 0.15, 4.46 0.23 C4.64 0.3, 4.82 0.4, 4.99 0.51 C5.15 0.61, 5.32 0.74, 5.46 0.88 C5.61 1.02, 5.75 1.18, 5.87 1.35 C6 1.51, 6.11 1.7, 6.21 1.89 C6.3 2.08, 6.38 2.28, 6.45 2.48 C6.52 2.69, 6.57 2.9, 6.6 3.12 C6.63 3.33, 6.64 3.66, 6.65 3.77 C6.66 3.88, 6.66 3.66, 6.65 3.77" stroke="#fff" stroke-width="1" fill="none"></path></g><g stroke-linecap="round" transform="translate(637.9268875687612 52.539097124774344) rotate(358.1310915065084 2.9417847459671975 3.7725718007777687)"><path d="M5.88 3.77 C5.88 3.99, 5.87 4.21, 5.84 4.43 C5.81 4.64, 5.76 4.86, 5.71 5.06 C5.65 5.27, 5.57 5.47, 5.49 5.66 C5.4 5.85, 5.3 6.03, 5.2 6.2 C5.09 6.36, 4.96 6.52, 4.83 6.66 C4.7 6.8, 4.56 6.93, 4.41 7.04 C4.27 7.15, 4.11 7.24, 3.95 7.32 C3.79 7.39, 3.62 7.45, 3.45 7.49 C3.28 7.53, 3.11 7.55, 2.94 7.55 C2.77 7.55, 2.6 7.53, 2.43 7.49 C2.26 7.45, 2.1 7.39, 1.94 7.32 C1.78 7.24, 1.62 7.15, 1.47 7.04 C1.32 6.93, 1.18 6.8, 1.05 6.66 C0.92 6.52, 0.8 6.36, 0.69 6.2 C0.58 6.03, 0.48 5.85, 0.39 5.66 C0.31 5.47, 0.24 5.27, 0.18 5.06 C0.12 4.86, 0.07 4.64, 0.04 4.43 C0.02 4.21, 0 3.99, 0 3.77 C0 3.55, 0.02 3.33, 0.04 3.12 C0.07 2.9, 0.12 2.69, 0.18 2.48 C0.24 2.28, 0.31 2.08, 0.39 1.89 C0.48 1.7, 0.58 1.51, 0.69 1.35 C0.8 1.18, 0.92 1.02, 1.05 0.88 C1.18 0.74, 1.32 0.61, 1.47 0.51 C1.62 0.4, 1.78 0.3, 1.94 0.23 C2.1 0.15, 2.26 0.1, 2.43 0.06 C2.6 0.02, 2.77 0, 2.94 0 C3.11 0, 3.28 0.02, 3.45 0.06 C3.62 0.1, 3.79 0.15, 3.95 0.23 C4.11 0.3, 4.27 0.4, 4.41 0.51 C4.56 0.61, 4.7 0.74, 4.83 0.88 C4.96 1.02, 5.09 1.18, 5.2 1.35 C5.3 1.51, 5.4 1.7, 5.49 1.89 C5.57 2.08, 5.65 2.28, 5.71 2.48 C5.76 2.69, 5.81 2.9, 5.84 3.12 C5.87 3.33, 5.88 3.66, 5.88 3.77 C5.89 3.88, 5.89 3.66, 5.88 3.77" stroke="#fff" stroke-width="1" fill="none"></path></g><g stroke-linecap="round" transform="translate(320.2273731807272 223.0498217840468) rotate(0 4.639756944444343 77.52475230034725)"><path d="M2.32 0 L8.7 0.58 L9.28 2.32 L9.28 152.73 L8.7 154.47 L6.96 155.05 L0.58 154.47 L0 152.73 L0 2.32 L0.58 0.58 L2.32 0" stroke="none" stroke-width="0" fill="#b2f2bb"></path><path d="M2.32 0 M2.32 0 C4.12 0, 5.92 0, 6.96 0 M2.32 0 C3.38 0, 4.45 0, 6.96 0 M6.96 0 C8.51 0, 9.28 0.77, 9.28 2.32 M6.96 0 C8.51 0, 9.28 0.77, 9.28 2.32 M9.28 2.32 C9.28 62.25, 9.28 122.19, 9.28 152.73 M9.28 2.32 C9.28 59.1, 9.28 115.88, 9.28 152.73 M9.28 152.73 C9.28 154.28, 8.51 155.05, 6.96 155.05 M9.28 152.73 C9.28 154.28, 8.51 155.05, 6.96 155.05 M6.96 155.05 C5.41 155.05, 3.85 155.05, 2.32 155.05 M6.96 155.05 C5.95 155.05, 4.94 155.05, 2.32 155.05 M2.32 155.05 C0.77 155.05, 0 154.28, 0 152.73 M2.32 155.05 C0.77 155.05, 0 154.28, 0 152.73 M0 152.73 C0 104.16, 0 55.59, 0 2.32 M0 152.73 C0 100.96, 0 49.19, 0 2.32 M0 2.32 C0 0.77, 0.77 0, 2.32 0 M0 2.32 C0 0.77, 0.77 0, 2.32 0" stroke="#2f9e44" stroke-width="1" fill="none"></path></g><g mask="url(#mask--WuTC-UvD2jO6yrfxSujo)" stroke-linecap="round"><g transform="translate(335.64237748099276 282.95427542072866) rotate(0 140.17547444325646 0)"><path d="M0 0 C46.73 0, 233.63 0, 280.35 0 M0 0 C46.73 0, 233.63 0, 280.35 0" stroke="#000000" stroke-width="1" fill="none"></path></g><g transform="translate(335.64237748099276 282.95427542072866) rotate(0 140.17547444325646 0)"><path d="M0 0 L13.59 -6.34 L13.59 6.34 L0 0" stroke="none" stroke-width="0" fill="#000000" fill-rule="evenodd"></path><path d="M0 0 C2.72 -1.27, 5.45 -2.54, 13.59 -6.34 M0 0 C5.26 -2.45, 10.52 -4.91, 13.59 -6.34 M13.59 -6.34 C13.59 -3.15, 13.59 0.04, 13.59 6.34 M13.59 -6.34 C13.59 -3.77, 13.59 -1.2, 13.59 6.34 M13.59 6.34 C10.82 5.04, 8.04 3.75, 0 0 M13.59 6.34 C10.74 5.01, 7.89 3.68, 0 0 M0 0 C0 0, 0 0, 0 0 M0 0 C0 0, 0 0, 0 0" stroke="#000000" stroke-width="1" fill="none"></path></g></g><mask id="mask--WuTC-UvD2jO6yrfxSujo"><rect x="0" y="0" fill="#fff" width="715.9933263675055" height="382.95427542072866"></rect><rect x="411.5698966019836" y="272.95427542072866" fill="#000" width="128.49591064453125" height="20" opacity="1"></rect></mask><g transform="translate(411.5698966019836 272.95427542072866) rotate(0 64.24795532226562 10)"><text x="64.24795532226562" y="0" font-family="Virgil, Segoe UI Emoji" font-size="16px" fill="#000000" text-anchor="middle" style="white-space: pre;" direction="ltr" dominant-baseline="text-before-edge">add Jenkins API</text></g><g transform="translate(286.48348343602174 10) rotate(0 42.58995819091797 25)"><text x="42.58995819091797" y="0" font-family="Virgil, Segoe UI Emoji" font-size="20px" fill="#000000" text-anchor="middle" style="white-space: pre;" direction="ltr" dominant-baseline="text-before-edge">Platform</text><text x="42.58995819091797" y="25" font-family="Virgil, Segoe UI Emoji" font-size="20px" fill="#000000" text-anchor="middle" style="white-space: pre;" direction="ltr" dominant-baseline="text-before-edge">Cluster</text></g><g stroke-linecap="round"><g transform="translate(625.5129931803258 69.84936586556069) rotate(0 0 168.52826532908148)"><path d="M0 0 C0 56.18, 0 280.88, 0 337.06 M0 0 C0 56.18, 0 280.88, 0 337.06" stroke="#000000" stroke-width="1" fill="none"></path></g></g><mask></mask><g mask="url(#mask-mVh3xf4UfUjpsd4qp-I8D)" stroke-linecap="round"><g transform="translate(624.0248215700904 251.24739971145573) rotate(0 -147.33940868872924 0)"><path d="M0 0 C-49.11 0, -245.57 0, -294.68 0 M0 0 C-49.11 0, -245.57 0, -294.68 0" stroke="#000000" stroke-width="1" fill="none"></path></g><g transform="translate(624.0248215700904 251.24739971145573) rotate(0 -147.33940868872924 0)"><path d="M0 0 L-13.59 6.34 L-13.59 -6.34 L0 0" stroke="none" stroke-width="0" fill="#000000" fill-rule="evenodd"></path><path d="M0 0 C-3.72 1.73, -7.44 3.47, -13.59 6.34 M0 0 C-5.22 2.43, -10.43 4.87, -13.59 6.34 M-13.59 6.34 C-13.59 2.02, -13.59 -2.3, -13.59 -6.34 M-13.59 6.34 C-13.59 2.25, -13.59 -1.84, -13.59 -6.34 M-13.59 -6.34 C-8.56 -3.99, -3.52 -1.64, 0 0 M-13.59 -6.34 C-8.9 -4.15, -4.21 -1.96, 0 0 M0 0 C0 0, 0 0, 0 0 M0 0 C0 0, 0 0, 0 0" stroke="#000000" stroke-width="1" fill="none"></path></g></g><mask id="mask-mVh3xf4UfUjpsd4qp-I8D"><rect x="0" y="0" fill="#fff" width="1018.703638947549" height="351.2473997114557"></rect><rect x="389.18146848438846" y="241.24739971145573" fill="#000" width="175.0078887939453" height="20" opacity="1"></rect></mask><g transform="translate(389.18146848438846 241.24739971145573) rotate(0 87.50394439697266 10)"><text x="87.50394439697266" y="0" font-family="Virgil, Segoe UI Emoji" font-size="16px" fill="#000000" text-anchor="middle" style="white-space: pre;" direction="ltr" dominant-baseline="text-before-edge">install Jenkins Promise</text></g><g stroke-linecap="round" transform="translate(621.4757771914174 240.8539118691915) rotate(0 4.639756944444343 70.00238334922778)"><path d="M2.32 0 L8.7 0.58 L9.28 2.32 L9.28 137.68 L8.7 139.42 L6.96 140 L2.32 140 L0.58 139.42 L0 137.68 L0 2.32 L0.58 0.58 L2.32 0" stroke="none" stroke-width="0" fill="#b2f2bb"></path><path d="M2.32 0 M2.32 0 C3.8 0, 5.28 0, 6.96 0 M2.32 0 C3.61 0, 4.89 0, 6.96 0 M6.96 0 C8.51 0, 9.28 0.77, 9.28 2.32 M6.96 0 C8.51 0, 9.28 0.77, 9.28 2.32 M9.28 2.32 C9.28 32.13, 9.28 61.93, 9.28 137.68 M9.28 2.32 C9.28 46.51, 9.28 90.69, 9.28 137.68 M9.28 137.68 C9.28 139.23, 8.51 140, 6.96 140 M9.28 137.68 C9.28 139.23, 8.51 140, 6.96 140 M6.96 140 C5.72 140, 4.48 140, 2.32 140 M6.96 140 C5.86 140, 4.75 140, 2.32 140 M2.32 140 C0.77 140, 0 139.23, 0 137.68 M2.32 140 C0.77 140, 0 139.23, 0 137.68 M0 137.68 C0 98.15, 0 58.62, 0 2.32 M0 137.68 C0 109.07, 0 80.45, 0 2.32 M0 2.32 C0 0.77, 0.77 0, 2.32 0 M0 2.32 C0 0.77, 0.77 0, 2.32 0" stroke="#2f9e44" stroke-width="1" fill="none"></path></g><g mask="url(#mask-WXliJ00wqteLiU6FQZdqf)" stroke-linecap="round"><g transform="translate(332.20392123718193 326.51181876237024) rotate(0 141.61639876345453 0)"><path d="M0 0 C47.21 0, 236.03 0, 283.23 0 M0 0 C47.21 0, 236.03 0, 283.23 0" stroke="#228be6" stroke-width="1" fill="none"></path></g><g transform="translate(332.20392123718193 326.51181876237024) rotate(0 141.61639876345453 0)"><path d="M0 0 L13.59 -6.34 L13.59 6.34 L0 0" stroke="none" stroke-width="0" fill="#228be6" fill-rule="evenodd"></path><path d="M0 0 C3.23 -1.51, 6.47 -3.02, 13.59 -6.34 M0 0 C4.11 -1.92, 8.23 -3.84, 13.59 -6.34 M13.59 -6.34 C13.59 -2.3, 13.59 1.74, 13.59 6.34 M13.59 -6.34 C13.59 -1.38, 13.59 3.58, 13.59 6.34 M13.59 6.34 C10.6 4.94, 7.61 3.55, 0 0 M13.59 6.34 C10.82 5.04, 8.04 3.75, 0 0 M0 0 C0 0, 0 0, 0 0 M0 0 C0 0, 0 0, 0 0" stroke="#228be6" stroke-width="1" fill="none"></path></g></g><mask id="mask-WXliJ00wqteLiU6FQZdqf"><rect x="0" y="0" fill="#fff" width="715.4367187640905" height="426.51181876237024"></rect><rect x="409.5163572931169" y="316.51181876237024" fill="#000" width="128.60792541503906" height="20" opacity="1"></rect></mask><g transform="translate(409.5163572931169 316.51181876237024) rotate(0 64.30396270751953 10)"><text x="64.30396270751953" y="0" font-family="Virgil, Segoe UI Emoji" font-size="16px" fill="#228be6" text-anchor="middle" style="white-space: pre;" direction="ltr" dominant-baseline="text-before-edge">get destinations</text></g><g mask="url(#mask-UvSryufEYXqoc_SgKf5B4)" stroke-linecap="round"><g transform="translate(617.9789317500727 377.1646532725845) rotate(0 -144.01432444918828 0)"><path d="M0 0 C-48 0, -240.02 0, -288.03 0" stroke="#e03131" stroke-width="1.5" fill="none" stroke-dasharray="8 9"></path></g><g transform="translate(617.9789317500727 377.1646532725845) rotate(0 -144.01432444918828 0)"><path d="M0 0 L-13.59 6.34 L-13.59 -6.34 L0 0" stroke="none" stroke-width="0" fill="#e03131" fill-rule="evenodd"></path><path d="M0 0 C-3.33 1.56, -6.67 3.11, -13.59 6.34 M-13.59 6.34 C-13.59 3.19, -13.59 0.05, -13.59 -6.34 M-13.59 -6.34 C-9.45 -4.41, -5.31 -2.48, 0 0 M0 0 C0 0, 0 0, 0 0" stroke="#e03131" stroke-width="1.5" fill="none"></path></g></g><mask id="mask-UvSryufEYXqoc_SgKf5B4"><rect x="0" y="0" fill="#fff" width="1006.0075806484497" height="477.1646532725845"></rect><rect x="389.24465185654844" y="367.1646532725845" fill="#000" width="169.43991088867188" height="20" opacity="1"></rect></mask><g transform="translate(389.24465185654844 367.1646532725845) rotate(0 84.71995544433594 10)"><text x="84.71995544433594" y="0" font-family="Virgil, Segoe UI Emoji" font-size="16px" fill="#e03131" text-anchor="middle" style="white-space: pre;" direction="ltr" dominant-baseline="text-before-edge">no destinations found</text></g><g stroke-linecap="round" transform="translate(517.1690280856592 391.454235063291) rotate(0 106.44407787044429 35.15579541700845)"><path d="M17.58 0 L195.31 0 L203 1.1 L208.49 4.39 L210.42 6.87 L212.61 13.46 L212.89 52.73 L211.79 60.42 L208.49 65.92 L206.02 67.84 L199.43 70.04 L195.31 70.31 L17.58 70.31 L9.89 69.21 L4.39 65.92 L2.47 63.45 L0.27 56.85 L0.27 13.46 L1.1 9.89 L4.39 4.39 L9.89 1.1 L17.58 0" stroke="none" stroke-width="0" fill="#ffc9c9"></path><path d="M17.58 0 M17.58 0 C76.89 0, 136.2 0, 195.31 0 M17.58 0 C57.69 0, 97.81 0, 195.31 0 M195.31 0 C207.03 0, 212.89 5.86, 212.89 17.58 M195.31 0 C207.03 0, 212.89 5.86, 212.89 17.58 M212.89 17.58 C212.89 30.08, 212.89 42.59, 212.89 52.73 M212.89 17.58 C212.89 24.68, 212.89 31.79, 212.89 52.73 M212.89 52.73 C212.89 64.45, 207.03 70.31, 195.31 70.31 M212.89 52.73 C212.89 64.45, 207.03 70.31, 195.31 70.31 M195.31 70.31 C136.77 70.31, 78.23 70.31, 17.58 70.31 M195.31 70.31 C154.46 70.31, 113.62 70.31, 17.58 70.31 M17.58 70.31 C5.86 70.31, 0 64.45, 0 52.73 M17.58 70.31 C5.86 70.31, 0 64.45, 0 52.73 M0 52.73 C0 43.58, 0 34.43, 0 17.58 M0 52.73 C0 44.97, 0 37.22, 0 17.58 M0 17.58 C0 5.86, 5.86 0, 17.58 0 M0 17.58 C0 5.86, 5.86 0, 17.58 0" stroke="#e64980" stroke-width="1" fill="none"></path></g><g transform="translate(542.0368270159197 405.8994734971857) rotate(0 81.06394958496094 20)"><text x="81.06394958496094" y="0" font-family="Virgil, Segoe UI Emoji" font-size="16px" fill="#e64980" text-anchor="middle" style="white-space: pre;" direction="ltr" dominant-baseline="text-before-edge">error: can't schedule</text><text x="81.06394958496094" y="20" font-family="Virgil, Segoe UI Emoji" font-size="16px" fill="#e64980" text-anchor="middle" style="white-space: pre;" direction="ltr" dominant-baseline="text-before-edge">Jenkins Dependencies</text></g></svg>
