<svg version="1.1" xmlns="http://www.w3.org/2000/svg" viewBox="0 0 870.4960592349425 145.5052879982777">
  <!-- svg-source:excalidraw -->
  
  <defs>
    <style class="style-fonts">
      @font-face {
        font-family: "Virgil";
        src: url("https://excalidraw.com/Virgil.woff2");
      }
      @font-face {
        font-family: "Cascadia";
        src: url("https://excalidraw.com/Cascadia.woff2");
      }
    </style>
  </defs>
  <rect x="0" y="0" width="870.4960592349425" height="145.5052879982777" fill="#ffffff"></rect><g stroke-linecap="round"><g stroke-opacity="0.5" fill-opacity="0.5" transform="translate(364.58114747924856 -114.29712241788548) rotate(89.99999999999994 50.41277329978902 176.49565008809532)" fill-rule="evenodd"><path d="M4.29 -13.49 C4.29 -13.49, 4.29 -13.49, 4.29 -13.49 M4.29 -13.49 C4.29 -13.49, 4.29 -13.49, 4.29 -13.49 M1.28 -3.11 C5.63 -10.22, 13.02 -15.87, 13.54 -18.96 M0.75 -4.92 C7.34 -9.32, 11.62 -15.84, 14.83 -19.41 M1.03 0.83 C9.97 -6.04, 15.23 -14.73, 28.48 -27.33 M1.46 1.99 C8.67 -7.6, 16.19 -15.35, 27.35 -27.33 M2.25 7.6 C13.85 -6.8, 25.49 -18.82, 37.84 -32.69 M1.19 7.3 C12.85 -5.76, 24.21 -19.37, 37.27 -31.78 M0.13 13.77 C10.59 3, 19.57 -5.07, 42.67 -34.41 M1.94 14.1 C11.88 1.45, 21.58 -8.37, 41.71 -33.26 M1.47 21.85 C20.24 1.4, 35.3 -20.51, 46.7 -33.33 M1.58 19.2 C16.4 2.82, 33.82 -16.96, 48.45 -33.1 M2.01 27.17 C14.88 12.48, 23.33 -1.44, 50.66 -31.18 M2.57 25.08 C16.58 9.1, 29.5 -6.49, 50.5 -30.85 M3.24 30.87 C14.56 19.99, 24.71 5.43, 55.44 -30.53 M1.16 33.01 C24.17 8.74, 43.95 -16.08, 56.78 -31.04 M1.02 39.56 C19.24 19.26, 38.65 -3.55, 61.67 -27.74 M1.45 37.75 C17.09 21.97, 30.99 5.17, 60.07 -30.15 M1.73 42.5 C21.42 23.72, 36.14 4.06, 65.68 -29.08 M1.92 44.89 C24.66 17.13, 47.45 -8.99, 64.35 -27.54 M0.33 50.81 C20.27 26.42, 42.25 0.4, 70.25 -28.03 M0.92 51.11 C19.29 28.18, 39.5 8.05, 70.01 -26.73 M3.04 55.15 C22.17 31.02, 43.57 7.33, 74.67 -26.63 M1.69 55.96 C26.16 28.56, 50.95 0.05, 75.25 -27.57 M2.1 60.64 C27.59 32.76, 53.42 6.74, 78.85 -25.69 M2.65 61.9 C17.63 44.32, 33.34 26.76, 78.68 -26.46 M3.16 67.82 C22.18 45.73, 41.96 21.52, 81.28 -23.22 M3.07 67.31 C25.94 40.38, 48.98 13.8, 82.6 -23.61 M0.02 75.59 C23.53 47.2, 49.83 21.66, 86.51 -23.96 M1.29 74.55 C34.65 36.78, 68.22 -1.47, 86.95 -22.48 M1.34 82.88 C36.05 40.04, 69.6 3.76, 88.54 -21.61 M1.81 81.72 C36.17 41.67, 70.5 2.32, 90.06 -20.99 M0.7 87.83 C29.77 57.79, 54.68 26.04, 91.52 -19.01 M2.75 86.94 C24.72 60.72, 45.64 37, 91.81 -17.5 M0.7 93.02 C27.34 64.3, 53.21 34.72, 95.14 -12.65 M2.41 93.66 C27.81 62.25, 55.58 31.11, 94.35 -14.29 M1.64 97.1 C35.87 60.72, 69.9 19.24, 98.03 -10.7 M1.27 99.4 C27.51 69.15, 55.23 38.27, 98 -11.51 M2.3 103.79 C32.88 68.75, 63.2 33.29, 100.56 -6.64 M1.23 104.82 C25.35 76.35, 48.78 48.85, 101.36 -7.67 M0.61 109.49 C29.4 79.64, 55.67 47.32, 102.13 -4 M1.7 110.48 C32.61 75.96, 62.45 41.13, 101.09 -4.33 M102.07 -4.03 C102.07 -4.03, 102.07 -4.03, 102.07 -4.03 M102.07 -4.03 C102.07 -4.03, 102.07 -4.03, 102.07 -4.03 M0.52 118.04 C28.49 84.74, 54.93 51.8, 102.11 2.56 M1.44 116.5 C31.03 85.29, 58.68 52.66, 102.77 1.09 M2.22 121.69 C24.88 98.12, 46.26 71.89, 103.68 7.77 M2.08 123.68 C37.48 85.15, 71.64 44.83, 102.98 8.37 M2.4 130.81 C21.76 106.36, 41.63 83.69, 103.29 15.45 M2.42 128.71 C38.6 88.71, 75.77 45.61, 102.6 14.11 M1.89 135.02 C36.16 98.25, 70.14 56.79, 102.67 20.43 M2.49 134.65 C30.18 102.94, 58.77 70.05, 102.66 20.63 M3.67 139.53 C39.47 100.33, 77.1 54.69, 101.71 26.81 M2.32 140.87 C31.8 109.92, 60.55 75.45, 102.78 26.15 M1.73 146.08 C32.12 110.31, 62.24 76.96, 103.07 31.68 M3.07 148.12 C30.1 116.54, 56.94 85.5, 103.22 31.49 M1.7 152.66 C32.19 120.46, 59.83 85.97, 101.07 38.03 M1.19 153.31 C25.09 126.1, 48.38 99.98, 102.08 39.21 M0.98 158.64 C40.12 116.92, 78.29 70.7, 102.29 46.46 M2.81 158.79 C26.27 133.57, 49.28 105.88, 101.43 44.31 M2.77 164.02 C35.47 125.08, 71.66 87.76, 101.66 52.34 M1.34 166.6 C34.86 127.68, 67.38 92.31, 101.72 51.52 M2.79 171.05 C24.85 146.39, 49.94 119.87, 100.62 57.04 M2.48 172.31 C33.53 137.65, 63.18 104.35, 101.35 57.65 M4.06 179.25 C28.3 147.77, 51.44 117.16, 101.67 61.56 M2.43 178.99 C34.42 142.75, 63.99 107.01, 101.71 63.26 M3.57 183.01 C29.98 154.35, 59.16 119.42, 103.29 69.54 M1 185.04 C31.97 149.47, 63.13 113.97, 101.37 68.78 M2.34 190.84 C32.6 155.73, 59.69 122.99, 102.53 76.87 M3.06 190.43 C31.34 154.18, 61.7 119.55, 101.2 76.28 M1.59 194.55 C37.26 156.69, 71.85 115.33, 101.1 82.92 M1.06 196.04 C28.4 166.54, 55.82 136.27, 101.81 81.69 M3.29 200.9 C26.91 174.3, 50.9 145.11, 101.54 87.76 M3.11 202.35 C30.09 171.03, 56.47 138.21, 102.11 88.17 M3.07 208.58 C24.08 183.1, 45.85 156.06, 103.76 91.76 M2.17 208.57 C31.9 173.93, 60.95 142.02, 103.31 92.81 M3.47 215.1 C27.74 186.59, 48.03 162.53, 101.95 100.6 M2.79 214.6 C32.85 179.32, 64.39 143.78, 102.19 99.71 M2.78 221.8 C30.99 188.97, 60.01 156.47, 101.2 104.94 M2.3 220.1 C30.69 187.02, 60.91 151.96, 101.13 106.75 M3.7 225.47 C31.54 192.62, 63.29 158.13, 101.57 109.58 M2.92 227.26 C37.92 186.12, 73.17 144.79, 102.64 110.87 M1.42 231.56 C28.71 200.26, 55.68 171.72, 100.25 116.71 M2.21 232.06 C30.41 200.52, 58.15 167.95, 102.82 118.36 M1.7 237.38 C24.96 208.98, 49.52 181.79, 102.13 123.51 M2.61 238.6 C34.13 204.32, 65.37 168.24, 102.45 122.61 M3.57 245.76 C34.59 208.79, 70.29 170.97, 102.67 129.16 M2.47 244.81 C28.42 215.34, 54.32 184.76, 101.23 130.17 M2.09 252.04 C35.62 211.62, 69.88 168.63, 102.57 136.51 M2.28 250.58 C34.57 215.27, 65.35 180.28, 102.78 136.55 M3.07 257.68 C34.53 215.55, 70.28 176.09, 101.8 143.23 M1.77 257.44 C34.02 218.76, 65.37 181.63, 102.19 142.43 M1.08 261.51 C30.02 233.52, 57.76 202.26, 103.75 147.06 M3.32 262.9 C26.31 237.45, 48.86 210.55, 102.51 149.03 M3.64 268.91 C29.65 237.51, 54.47 207.41, 103.86 153.44 M2.57 269.71 C39.14 228.99, 75.4 186.43, 102.81 154.82 M3.77 275.45 C38.81 233, 79 187.68, 102.44 160.48 M2.4 274.67 C24.07 250.87, 43.66 226.26, 101.39 160.6 M0.92 279.9 C31.27 249.08, 60.51 213.05, 101.33 166.66 M2.18 281.62 C39.93 240.17, 75.04 199.14, 101.85 166.25 M1.52 287.85 C38.52 244.62, 72.88 205.3, 103.98 171.96 M1.84 288.25 C31.3 253.07, 61.7 217.48, 101.6 172.02 M3.14 292.94 C32.93 257.05, 66.43 220.92, 101.56 177.11 M2.34 293.35 C34.41 258.57, 65.4 223.25, 101.33 178.81 M0.56 300.04 C24.13 272.3, 49.24 243.24, 103.62 185.24 M1.22 299.15 C26.91 271.81, 50.87 243.38, 102.12 183.97 M4.42 306.93 C38.8 263.69, 76.36 221, 100.86 192.84 M1.6 305.03 C30.62 273.4, 58.88 240.61, 101.6 191.31 M4.06 311.22 C40.98 266.59, 79.89 220.27, 103.85 195.43 M2.46 311.62 C31.47 278.88, 60.19 245.49, 101.07 196.88 M2.79 319.33 C28.32 289.36, 51.87 261.75, 101.07 202.75 M2.3 317.77 C37.49 277.1, 73.02 238.06, 102.96 203.25 M0.74 325.41 C32.06 289.59, 63.57 253.81, 103.05 207.98 M1.41 324.61 C37.61 284.81, 71.99 246.08, 101.34 208.83 M1.51 328.99 C34.84 292, 68.51 253.14, 102.96 215.35 M2.92 331.35 C29.42 298.62, 57.16 267.18, 102 214.59 M2.25 334.22 C41.69 292.32, 78.62 250.74, 101.52 221.18 M2.25 335.52 C27.69 303.93, 54.95 273.5, 101.65 221.15 M1.75 343.05 C26.39 315.44, 45.79 289.48, 103.55 229.48 M1.7 342.28 C27.51 315.15, 50.51 286.81, 101.98 227.5 M1.13 346.88 C37.57 307.02, 76.09 263.14, 102.14 233.17 M2.43 347.18 C39.81 306.29, 74.57 266.04, 102.17 234.35 M0.6 355.53 C26.31 326.35, 51.66 299.61, 100.71 241.3 M1.73 355.25 C31.28 321.87, 59.86 288.01, 102.39 240.34 M0.82 360.19 C37.27 321.19, 71.76 279.24, 103.68 244.68 M3.71 360.92 C28.62 332.04, 54.11 302.72, 102.86 245.89 M5.67 364.03 C37.14 325.44, 69.74 287.75, 103.28 250.86 M4.5 364.9 C33.45 332.92, 62 301.27, 102.07 251.18 M4.98 368.78 C39.4 332.62, 70.16 294.42, 102.18 257.79 M6.42 367.7 C29.79 341.69, 53.68 313.52, 101.84 257.95 M8.53 373 C48.08 328.89, 82.89 285.95, 103.63 265.02 M8.34 372.1 C44.3 331.65, 79.45 289.65, 102.81 263.78 M11.53 376.15 C30.45 352.01, 53.71 324.28, 103.53 270.9 M10.59 374.25 C47.73 334.73, 83.7 293.62, 102.97 269.4 M12.64 377.47 C42.96 346.5, 72 311.83, 103.07 276.24 M15.37 376.65 C41.53 346.47, 68.23 314.99, 101.69 275.39 M20.01 378.65 C48.2 343.53, 76.29 312.72, 101.57 281.28 M18.22 377.98 C47.99 346.29, 75.77 312.65, 102.95 283.31 M22.72 381.83 C52.5 348.83, 81.49 310.73, 101.14 289.35 M21.85 381.08 C45.39 352, 69.95 325.27, 101.43 288.42 M24.16 384.98 C44.42 361.9, 65.77 339.69, 102.72 296.04 M24.93 383.52 C51.65 354.58, 76.51 324.2, 102.95 294.96 M31.38 385.08 C47.75 366.2, 63.34 347.59, 100.25 300.47 M29.85 382.85 C45.65 364.79, 60.73 346.76, 102.02 300.5 M34.6 384.88 C53.39 360.48, 72.87 341.57, 103.27 306.87 M33.6 384.42 C50.83 366.96, 66.02 349.32, 102.9 305.6 M38.47 385.27 C55.15 365.87, 72.08 348.75, 103.76 311.62 M39.52 385.88 C63.86 356.01, 86.76 328.72, 101.79 311.96 M44.24 385 C58.84 367.84, 75.31 350.69, 102.79 320.83 M44.79 385.96 C58.13 369, 73.73 350.54, 101.91 320.15 M50.43 384.59 C63.69 369.14, 79.29 350.82, 100.6 325.62 M49.54 386.54 C65.29 365.61, 83.57 345.75, 103 323.86 M56.88 387.3 C67.12 371.37, 75.56 357.78, 100.71 331.28 M54.34 384.63 C67.09 370.95, 80.63 354.32, 101.82 331.25 M60.9 384.29 C73.15 367.79, 89.64 352.83, 102.57 336.93 M60.66 385.67 C71.97 372.31, 82.15 361.3, 102.22 337.67 M67.88 384.58 C74.55 371.44, 86.9 361.37, 102.4 344.47 M67.02 384.58 C77.04 370.96, 88.3 358.62, 102.33 342.74 M72.82 383.24 C83.08 371.21, 93.82 360.69, 101.77 350.3 M70.82 386.05 C82.65 370.82, 96 358.37, 102.66 349.09 M101.99 349.69 C101.99 349.69, 101.99 349.69, 101.99 349.69 M101.99 349.69 C101.99 349.69, 101.99 349.69, 101.99 349.69 M78.63 383.25 C84.45 375.17, 92.55 368.17, 102.75 354.23 M78.35 382.79 C85.6 376.4, 89.4 368.7, 101.4 356.38" stroke="#b2f2bb" stroke-width="0.5" fill="none"></path><path d="M1.03 -0.32 C1.08 52.31, 1.03 256.97, 0.72 315.93 C0.41 374.89, -1.57 344.59, -0.82 353.41 C-0.06 362.24, 1.18 364.06, 5.25 368.88 C9.32 373.7, 15.48 379.38, 23.62 382.33 C31.76 385.27, 44.13 387.32, 54.09 386.56 C64.05 385.81, 75.93 381.76, 83.38 377.79 C90.83 373.82, 95.73 367.45, 98.82 362.74 C101.91 358.02, 101.61 356.35, 101.89 349.48 C102.18 342.6, 100.5 375.21, 100.51 321.48 C100.52 267.75, 101.8 80.75, 101.97 27.13 C102.14 -26.5, 102.81 7.15, 101.53 -0.28 C100.25 -7.71, 97.98 -13.05, 94.29 -17.47 C90.6 -21.89, 86.98 -24.17, 79.39 -26.8 C71.81 -29.43, 57.96 -32.76, 48.78 -33.24 C39.61 -33.71, 31.84 -32.82, 24.35 -29.65 C16.86 -26.49, 7.94 -19.17, 3.85 -14.27 C-0.23 -9.37, 0.37 -2.69, -0.16 -0.24 C-0.69 2.21, 0.85 0.55, 0.68 0.45 M0.11 -1.54 C0 51.22, -0.28 258.27, -0.02 317.1 C0.23 375.93, 0.72 343.2, 1.64 351.46 C2.56 359.72, 2.07 361.37, 5.51 366.65 C8.94 371.94, 13.93 379.95, 22.26 383.19 C30.59 386.42, 45.2 386.68, 55.49 386.06 C65.77 385.44, 76.94 383.47, 83.97 379.48 C91 375.48, 94.89 366.77, 97.66 362.09 C100.42 357.42, 100.04 358.24, 100.54 351.43 C101.05 344.62, 100.36 375.69, 100.71 321.24 C101.05 266.79, 102.64 78.32, 102.61 24.75 C102.58 -28.82, 101.85 7.04, 100.5 -0.19 C99.16 -7.42, 97.65 -14.09, 94.53 -18.64 C91.4 -23.19, 89.36 -25, 81.75 -27.51 C74.14 -30.02, 58.26 -33.49, 48.89 -33.71 C39.51 -33.93, 32.67 -32.11, 25.52 -28.81 C18.37 -25.51, 10.5 -18.71, 6 -13.89 C1.49 -9.08, -0.44 -2.37, -1.5 0.1 C-2.55 2.58, -0.38 0.86, -0.34 0.95" stroke="#087f5b" stroke-width="1" fill="none"></path></g></g><mask></mask><g stroke-linecap="round"><g transform="translate(261.42884115586094 49.87692126984621) rotate(89.99999999999994 49.14018690701869 11.286274069831961)"><path d="M0.39 -0.7 C0.51 1.12, -0.47 7.34, 1.76 10.57 C4 13.81, 9.29 16.48, 13.81 18.72 C18.33 20.95, 22.54 23, 28.9 23.98 C35.26 24.95, 43.61 25.37, 51.99 24.56 C60.37 23.76, 72 21.89, 79.16 19.17 C86.31 16.44, 91.58 11.7, 94.91 8.21 C98.24 4.72, 98.73 -0.26, 99.15 -1.75 M-0.87 1.55 C-0.46 3.06, 1.72 6.31, 4.04 8.84 C6.36 11.36, 8.85 14.53, 13.05 16.7 C17.25 18.88, 23.02 21.04, 29.26 21.89 C35.5 22.75, 41.96 21.96, 50.5 21.83 C59.04 21.71, 73.03 23.1, 80.51 21.16 C88 19.22, 92.42 14.15, 95.41 10.22 C98.4 6.29, 97.87 -0.4, 98.45 -2.42" stroke="#087f5b" stroke-width="1" fill="none"></path></g></g><mask></mask><g stroke-linecap="round"><g transform="translate(349.68527331609357 52.53571992062098) rotate(89.99999999999994 49.31372870012069 8.699652741454884)"><path d="M-0.59 0.7 C-0.31 2.08, -0.93 6.56, 1.65 8.99 C4.22 11.43, 10.33 13.82, 14.87 15.29 C19.42 16.76, 22.93 17.15, 28.91 17.82 C34.9 18.48, 42.57 19.55, 50.78 19.31 C58.98 19.06, 70.97 18.54, 78.14 16.35 C85.31 14.16, 90.65 9.21, 93.82 6.18 C96.99 3.14, 96.35 -0.68, 97.16 -1.86 M1.3 0.02 C1.96 1.03, 1.63 5.23, 3.86 7.45 C6.1 9.68, 10.45 11.51, 14.7 13.36 C18.94 15.21, 23.04 17.46, 29.32 18.56 C35.6 19.65, 44.1 20.47, 52.39 19.93 C60.68 19.39, 72.16 17.31, 79.08 15.33 C86 13.35, 90.54 11.04, 93.9 8.04 C97.26 5.03, 98.66 -0.99, 99.22 -2.7" stroke="#087f5b" stroke-width="1" fill="none"></path></g></g><mask></mask><g stroke-linecap="round"><g transform="translate(454.71054261261634 52.39735477521026) rotate(89.99999999999994 49.37970158754729 9.854948778491234)"><path d="M-0.39 -0.05 C-0.15 1.43, -0.01 5.54, 2.5 7.87 C5.02 10.21, 10.27 12.23, 14.68 13.97 C19.09 15.7, 22.93 17.33, 28.95 18.29 C34.96 19.26, 42.24 20.1, 50.78 19.75 C59.31 19.41, 72.73 18.22, 80.15 16.23 C87.56 14.24, 92.44 10.54, 95.27 7.8 C98.1 5.06, 96.64 1.26, 97.12 -0.21 M1.6 -1.12 C1.59 0.65, -0.62 6.72, 1.51 9.4 C3.65 12.09, 9.76 13.36, 14.4 15.01 C19.05 16.65, 23.04 18.35, 29.37 19.29 C35.7 20.22, 44.2 21.3, 52.38 20.61 C60.57 19.92, 71.19 17.44, 78.48 15.15 C85.77 12.86, 92.66 9.41, 96.11 6.85 C99.55 4.3, 98.5 1.37, 99.15 -0.18" stroke="#087f5b" stroke-width="1" fill="none"></path></g></g><mask></mask><g stroke-linecap="round"><g transform="translate(542.5233398371179 51.899469085296005) rotate(89.99999999999994 49.20400141913319 9.477882303949627)"><path d="M-0.83 0.74 C-0.46 2.27, 0.14 6.07, 2.6 8.51 C5.07 10.96, 9.64 13.56, 13.96 15.39 C18.29 17.23, 22.27 19.15, 28.57 19.53 C34.87 19.91, 43.41 18.31, 51.77 17.68 C60.14 17.05, 71.49 17.62, 78.77 15.74 C86.06 13.87, 92.44 9.13, 95.51 6.42 C98.58 3.72, 96.61 0.62, 97.17 -0.5 M0.93 0.08 C1.11 1.33, -0.4 4.48, 1.67 6.72 C3.73 8.96, 8.79 11.72, 13.31 13.52 C17.83 15.32, 22.64 16.86, 28.79 17.51 C34.95 18.17, 41.7 17.35, 50.25 17.44 C58.79 17.53, 72.34 19.57, 80.05 18.06 C87.75 16.56, 93.28 11.53, 96.47 8.41 C99.67 5.3, 99.06 1.01, 99.24 -0.63" stroke="#087f5b" stroke-width="1" fill="none"></path></g></g><mask></mask><g mask="url(#mask-igj1dKExd5gtrFBx0EVBH)" stroke-linecap="round"><g transform="translate(68.59532323934354 65.4415766017355) rotate(0 65.09428563100641 -0.11798538019684202)"><path d="M0 0 C9.29 -0.04, 34.02 -0.24, 55.71 -0.24 C77.41 -0.24, 117.78 -0.04, 130.19 0 M0 0 C9.29 -0.04, 34.02 -0.24, 55.71 -0.24 C77.41 -0.24, 117.78 -0.04, 130.19 0" stroke="#2f9e44" stroke-width="4" fill="none"></path></g><g transform="translate(68.59532323934354 65.4415766017355) rotate(0 65.09428563100641 -0.11798538019684202)"><path d="M101.96 10.15 C112.54 6.35, 123.12 2.54, 130.19 0 M101.96 10.15 C110.01 7.26, 118.06 4.36, 130.19 0" stroke="#2f9e44" stroke-width="4" fill="none"></path></g><g transform="translate(68.59532323934354 65.4415766017355) rotate(0 65.09428563100641 -0.11798538019684202)"><path d="M102.04 -10.37 C112.59 -6.48, 123.14 -2.6, 130.19 0 M102.04 -10.37 C110.06 -7.41, 118.09 -4.46, 130.19 0" stroke="#2f9e44" stroke-width="4" fill="none"></path></g></g><mask id="mask-igj1dKExd5gtrFBx0EVBH"><rect x="0" y="0" fill="#fff" width="298.7838945013565" height="165.6775473621292"></rect><rect x="94.34064142501347" y="55.20560584134182" fill="#000" width="59.93595886230469" height="20" opacity="1"></rect></mask><g transform="translate(94.34064142501347 55.20560584134182) rotate(0 39.348967445336484 10.117985380196842)"><text x="29.967979431152344" y="0" font-family="Virgil, Segoe UI Emoji" font-size="16px" fill="#2f9e44" text-anchor="middle" style="white-space: pre;" direction="ltr" dominant-baseline="text-before-edge">request</text></g><g transform="translate(214.99685212410304 54.21179872217181) rotate(0 38.19996643066406 10)"><text x="0" y="0" font-family="Virgil, Segoe UI Emoji" font-size="16px" fill="#1e1e1e" text-anchor="start" style="white-space: pre;" direction="ltr" dominant-baseline="text-before-edge">transform</text></g><g transform="translate(520.1980736137334 55.07485495929541) rotate(0 22.079986572265625 10)"><text x="0" y="0" font-family="Virgil, Segoe UI Emoji" font-size="16px" fill="#1e1e1e" text-anchor="start" style="white-space: pre;" direction="ltr" dominant-baseline="text-before-edge">notify</text></g><g transform="translate(311.55070129112164 33.205319774009695) rotate(0 32.15998077392578 30)"><text x="32.15998077392578" y="0" font-family="Virgil, Segoe UI Emoji" font-size="16px" fill="#1e1e1e" text-anchor="middle" style="white-space: pre;" direction="ltr" dominant-baseline="text-before-edge">validate</text><text x="32.15998077392578" y="20" font-family="Virgil, Segoe UI Emoji" font-size="16px" fill="#1e1e1e" text-anchor="middle" style="white-space: pre;" direction="ltr" dominant-baseline="text-before-edge">secure</text><text x="32.15998077392578" y="40" font-family="Virgil, Segoe UI Emoji" font-size="16px" fill="#1e1e1e" text-anchor="middle" style="white-space: pre;" direction="ltr" dominant-baseline="text-before-edge">scan</text></g><g transform="translate(405.4722629841681 45.80594019895034) rotate(0 38.775978088378906 20)"><text x="38.775978088378906" y="0" font-family="Virgil, Segoe UI Emoji" font-size="16px" fill="#1e1e1e" text-anchor="middle" style="white-space: pre;" direction="ltr" dominant-baseline="text-before-edge">billing</text><text x="38.775978088378906" y="20" font-family="Virgil, Segoe UI Emoji" font-size="16px" fill="#1e1e1e" text-anchor="middle" style="white-space: pre;" direction="ltr" dominant-baseline="text-before-edge">compliance</text></g><g mask="url(#mask-rhLsx3B3GVveE0L1Vk06m)" stroke-linecap="round"><g transform="translate(631.5820562072399 68.56690083845024) rotate(0 66.5525703560927 -0.33790412325379293)"><path d="M0 0 C22.18 -0.11, 110.92 -0.56, 133.11 -0.68 M0 0 C22.18 -0.11, 110.92 -0.56, 133.11 -0.68" stroke="#1971c2" stroke-width="4" fill="none"></path></g><g transform="translate(631.5820562072399 68.56690083845024) rotate(0 66.5525703560927 -0.33790412325379293)"><path d="M104.97 9.73 C114.45 6.22, 123.93 2.72, 133.11 -0.68 M104.97 9.73 C115.74 5.74, 126.52 1.76, 133.11 -0.68" stroke="#1971c2" stroke-width="4" fill="none"></path></g><g transform="translate(631.5820562072399 68.56690083845024) rotate(0 66.5525703560927 -0.33790412325379293)"><path d="M104.86 -10.79 C114.38 -7.38, 123.9 -3.97, 133.11 -0.68 M104.86 -10.79 C115.68 -6.92, 126.49 -3.04, 133.11 -0.68" stroke="#1971c2" stroke-width="4" fill="none"></path></g></g><mask id="mask-rhLsx3B3GVveE0L1Vk06m"><rect x="0" y="0" fill="#fff" width="864.6871969194253" height="169.24270908495782"></rect><rect x="671.6306440193875" y="58.228996715195535" fill="#000" width="53.007965087890625" height="20" opacity="1"></rect></mask><g transform="translate(671.6306440193875 58.228996715195535) rotate(0 26.503982543945085 10.00000000000091)"><text x="26.503982543945312" y="0" font-family="Virgil, Segoe UI Emoji" font-size="16px" fill="#1971c2" text-anchor="middle" style="white-space: pre;" direction="ltr" dominant-baseline="text-before-edge">output</text></g><g stroke-linecap="round" transform="translate(789.8174785437113 28.254469204168345) rotate(0 35.33929034561561 53.62540939705468)"><path d="M0.94 0.69 L71.58 -1.82 L72.18 109.19 L-0.22 105.5" stroke="none" stroke-width="0" fill="#fff"></path><path d="M-0.62 0.27 C27.99 -0.38, 54.28 -0.17, 71.6 -1.58 M0.57 0.05 C23.81 -0.6, 47.37 0.96, 70.11 -0.02 M71 -0.46 C69.59 36.07, 70.64 68.66, 69.23 107.15 M70.21 0.46 C69.6 22.1, 70.49 44.95, 71.1 106.29 M71.06 108.23 C54.62 107.7, 37.12 105.79, -1.64 106.9 M70.4 108.23 C42.75 107.74, 15.91 107.8, -0.22 107.64 M-0.32 107.5 C0.77 75.41, -0.86 43.2, -0.81 -1.28 M-0.11 106.58 C0.64 64.93, -0.82 22.49, 0.15 0.06" stroke="#1971c2" stroke-width="2" fill="none"></path></g><g stroke-linecap="round" transform="translate(782.2700455079967 21.23437991845458) rotate(0 35.33929034561561 53.62540939705468)"><path d="M0.9 -1.82 L72.18 1.94 L70.45 105.5 L1.67 107.4" stroke="none" stroke-width="0" fill="#fff"></path><path d="M0.07 -0.36 C19.78 -0.25, 43.58 -1.67, 71.38 1.93 M0.12 -0.72 C20 0.81, 39.46 -0.05, 70.9 -0.19 M69.8 1.57 C71.02 22.87, 69.4 46.34, 68.8 105.79 M70.38 -0.02 C70.77 29.22, 70.6 56.08, 70.1 107.47 M71.74 108.11 C54.19 106.54, 34.68 107.24, 1.88 107.77 M70.61 107.19 C44.97 107.95, 17.15 108.33, 0.01 106.35 M-0.2 107.65 C-1.66 72.2, -0.63 34.99, 1.92 -0.17 M0.55 107.38 C-0.79 76.15, 0.27 44.83, 0.47 0.34" stroke="#1971c2" stroke-width="2" fill="none"></path></g><g stroke-linecap="round" transform="translate(772.8749562222815 12.980473668454579) rotate(0 35.33929034561561 53.62540939705468)"><path d="M1.5 1.94 L70.45 -1.75 L72.35 107.4 L1.21 106.51" stroke="none" stroke-width="0" fill="#fff"></path><path d="M-1.55 -0.16 C23.06 -1.45, 44.99 2.06, 70.34 1.15 M-0.02 0.84 C20.98 0.49, 43.32 0.31, 69.84 0.16 M70.84 -0.36 C68.76 29.59, 68.33 57.92, 70 106.31 M71.27 0.7 C70.78 36.2, 69.78 74.54, 70.11 107.44 M71.37 106.19 C44.39 107.2, 23.26 108.07, 1.54 106.7 M71.63 107.25 C42.33 107.6, 14.41 106.31, 0.31 107.09 M-1.83 107.69 C-0.7 72.48, 2.02 40.11, -0.17 -0.23 M-0.91 107.39 C-0.44 82.28, -0.12 57.53, 0.45 -0.91" stroke="#1971c2" stroke-width="2" fill="none"></path></g><g stroke-linecap="round"><g transform="translate(784.8613828091925 61.727710715807916) rotate(0 23.068961181993927 -1.187463961652611)"><path d="M-0.09 0.55 C6.52 0.8, 31.51 1.22, 39.48 0.58 C47.45 -0.06, 46.44 -2.69, 47.74 -3.29 M-1.6 -0.2 C5.4 -0.24, 33.5 -1.01, 41.69 -1.32 C49.89 -1.63, 46.55 -1.99, 47.58 -2.08" stroke="#1971c2" stroke-width="1" fill="none"></path></g></g><mask></mask><g stroke-linecap="round"><g transform="translate(786.7166350472066 30.262423416968886) rotate(0 22.65419406664364 -0.9647603136700127)"><path d="M-0.95 0.42 C2.07 -0.17, 10.13 -2.89, 17.99 -3.01 C25.86 -3.12, 41.64 -0.57, 46.25 -0.27 M0.76 -0.4 C3.72 -0.86, 10.14 -1.82, 17.65 -1.57 C25.17 -1.33, 41.12 0.91, 45.85 1.08" stroke="#1971c2" stroke-width="1" fill="none"></path></g></g><mask></mask><g stroke-linecap="round"><g transform="translate(786.6400355308374 97.65679768732662) rotate(0 24.428537629001312 -0.20832337344290863)"><path d="M1.16 -0.2 C5.83 -0.31, 21 -0.47, 27.1 -0.2 C33.2 0.08, 34.23 1.58, 37.76 1.45 C41.3 1.33, 46.66 -0.38, 48.31 -0.95 M0.31 -1.35 C4.97 -1.28, 20.39 0.76, 26.51 1.37 C32.64 1.98, 33.4 3.04, 37.07 2.32 C40.74 1.59, 46.48 -2.33, 48.55 -2.98" stroke="#1971c2" stroke-width="1" fill="none"></path></g></g><mask></mask><g stroke-linecap="round"><g transform="translate(783.4559883493071 108.89994609560381) rotate(0 27.12832183919113 -0.41933440053071536)"><path d="M0.69 0.06 C2.21 -0.25, 7.74 -2.05, 10.31 -2.03 C12.88 -2.01, 10.23 -0.27, 16.11 0.17 C21.99 0.61, 39.15 1.04, 45.58 0.59 C52 0.14, 53.36 -2.08, 54.67 -2.53 M-0.41 -0.96 C0.87 -1.11, 6.81 -0.83, 9.43 -0.94 C12.06 -1.06, 9.32 -2.08, 15.33 -1.64 C21.34 -1.2, 39.13 1.79, 45.47 1.69 C51.8 1.58, 51.86 -1.47, 53.33 -2.26" stroke="#1971c2" stroke-width="1" fill="none"></path></g></g><mask></mask><g stroke-linecap="round"><g transform="translate(783.7408312448729 45.32302497023011) rotate(0 22.500509466628046 0.9873406476726814)"><path d="M0.14 -0.86 C3.05 -0.8, 10.49 -0.03, 18.17 0.42 C25.85 0.87, 41.41 1.66, 46.25 1.87 M-1.24 1.3 C1.45 1.04, 9.48 -1.48, 17.21 -1.17 C24.94 -0.86, 40.06 2.54, 45.12 3.17" stroke="#1971c2" stroke-width="1" fill="none"></path></g></g><mask></mask><g stroke-linecap="round"><g transform="translate(783.8483194410232 79.80635400607025) rotate(0 22.216246962795594 1.2283820394040958)"><path d="M-0.02 1.01 C1.19 1.39, 4.33 1.71, 7.41 1.41 C10.49 1.1, 12.04 -0.93, 18.45 -0.82 C24.87 -0.71, 41.23 1.72, 45.93 2.08 M-1.49 0.5 C0.1 1.15, 6.54 2.96, 9.76 2.94 C12.98 2.92, 11.85 0.31, 17.83 0.37 C23.81 0.43, 40.5 3.1, 45.65 3.28" stroke="#1971c2" stroke-width="1" fill="none"></path></g></g><mask></mask><g stroke-linecap="round" transform="translate(10 27.84270353355896) rotate(0 26.36749200845952 40.011203957372345)"><path d="M-0.44 -0.58 L51.52 0.97 L53.31 79.26 L-1.33 79.94" stroke="none" stroke-width="0" fill="#fff"></path><path d="M-1.65 -1.51 C17.66 -1.34, 38.11 0.86, 54.11 1.81 M-0.55 -0.4 C21.71 -0.11, 41.52 -0.85, 53.73 0.73 M52.69 -0.6 C53.11 25.19, 51.71 47.4, 51.02 80.15 M53.34 -0.77 C54.06 28.81, 54.06 59.1, 53.14 80.99 M52.62 81.45 C36.38 80.78, 17.25 78.05, 1.56 79.34 M52.29 80.69 C39.96 80.54, 27.19 79.62, 0.68 79.97 M-1.82 79.97 C-0.64 60.06, -1.08 38.44, -1.8 -0.11 M0 79.87 C-0.1 60.69, -1.5 40.34, -0.68 0.03" stroke="#2f9e44" stroke-width="2" fill="none"></path></g><g stroke-linecap="round"><g transform="translate(17.779758478412987 61.86315455436488) rotate(0 16.984497403795785 -0.671067579783994)"><path d="M-1.08 -0.07 C3.93 0.14, 23.53 1.26, 29.53 0.89 C35.53 0.51, 34.09 -1.85, 34.93 -2.31 M0.56 -1.14 C6 -1.24, 26.29 -0.86, 31.91 -0.83 C37.52 -0.8, 33.79 -0.44, 34.26 -0.99" stroke="#2f9e44" stroke-width="1" fill="none"></path></g></g><mask></mask><g stroke-linecap="round"><g transform="translate(19.164006664528188 38.386149122678034) rotate(0 16.593003808951835 -0.6609226563832635)"><path d="M-0.63 0.77 C1.67 0.43, 7 -2, 12.74 -2.09 C18.48 -2.18, 30.19 0.14, 33.82 0.25 M1.23 0.13 C3.49 0, 6.6 -0.22, 11.89 -0.55 C17.17 -0.88, 29.1 -1.77, 32.96 -1.83" stroke="#2f9e44" stroke-width="1" fill="none"></path></g></g><mask></mask><g stroke-linecap="round"><g transform="translate(19.106853928410146 88.67070796949156) rotate(0 17.442520641010105 -0.5166764494542804)"><path d="M0.18 0 C3.54 -0.08, 14.79 0.21, 19.53 0.3 C24.27 0.39, 25.87 0.98, 28.6 0.55 C31.33 0.12, 34.66 -1.9, 35.91 -2.28 M-1.18 -1.04 C2.06 -1.55, 13.6 -1.94, 18.49 -1.56 C23.37 -1.18, 25.19 1.25, 28.12 1.25 C31.05 1.24, 34.98 -1.15, 36.07 -1.6" stroke="#2f9e44" stroke-width="1" fill="none"></path></g></g><mask></mask><g stroke-linecap="round"><g transform="translate(16.731159968727297 97.059490622054) rotate(0 20.26041874702082 -0.622892554192731)"><path d="M-0.18 0.49 C1.14 0.15, 6.11 -1.73, 8.12 -2.05 C10.13 -2.37, 7.47 -1.82, 11.88 -1.44 C16.28 -1.07, 29.82 0.36, 34.55 0.19 C39.28 0.03, 39.14 -2.18, 40.25 -2.45 M-1.73 -0.29 C-0.54 -0.53, 5.32 -1.09, 7.45 -1.13 C9.58 -1.17, 6.47 -0.93, 11.03 -0.55 C15.59 -0.17, 29.61 1.47, 34.81 1.16 C40.02 0.85, 41.51 -1.87, 42.25 -2.44" stroke="#2f9e44" stroke-width="1" fill="none"></path></g></g><mask></mask><g stroke-linecap="round"><g transform="translate(16.94368808400759 49.62322511414459) rotate(0 17.20063751929888 0.42152728909604775)"><path d="M0.53 -1.18 C2.8 -1.47, 7.66 -1.64, 13.42 -1.25 C19.17 -0.87, 31.5 0.82, 35.05 1.14 M-0.65 0.82 C1.46 0.61, 6.56 -0.4, 12.38 -0.14 C18.21 0.11, 30.57 2.07, 34.3 2.32" stroke="#2f9e44" stroke-width="1" fill="none"></path></g></g><mask></mask><g stroke-linecap="round"><g transform="translate(17.023887604860647 75.35206386232676) rotate(0 17.224549902868375 0.926281078322063)"><path d="M-0.16 -0.81 C0.76 -0.48, 3.84 0.86, 6.07 0.8 C8.3 0.74, 8.31 -1.33, 13.23 -1.17 C18.15 -1.01, 32.04 1.45, 35.6 1.75 M-1.7 1.37 C-0.98 1.99, 2.81 2.47, 5.14 2.2 C7.47 1.93, 7.11 -0.38, 12.28 -0.24 C17.45 -0.1, 32.11 2.9, 36.15 3.03" stroke="#2f9e44" stroke-width="1" fill="none"></path></g></g><mask></mask></svg>