<svg version="1.1" xmlns="http://www.w3.org/2000/svg" viewBox="0 0 1162.210939879195 581.7880892631238">
  <!-- svg-source:excalidraw -->
  
  <defs>
    <style class="style-fonts">
      @font-face {
        font-family: "Virgil";
        src: url("https://excalidraw.com/Virgil.woff2");
      }
      @font-face {
        font-family: "Cascadia";
        src: url("https://excalidraw.com/Cascadia.woff2");
      }
    </style>
  </defs>
  <rect x="0" y="0" width="1162.210939879195" height="581.7880892631238" fill="#ffffff"></rect><g mask="url(#mask-dxu9Jo9Cr6BPmbdXDElI_)" stroke-linecap="round"><g transform="translate(86.51400426300142 257.0493746526954) rotate(0 113.07731245343825 1.6414632754340346)"><path d="M0 0 C37.69 0.55, 188.46 2.74, 226.15 3.28 M0 0 C37.69 0.55, 188.46 2.74, 226.15 3.28" stroke="#000000" stroke-width="1" fill="none"></path></g><g transform="translate(86.51400426300142 257.0493746526954) rotate(0 113.07731245343825 1.6414632754340346)"><path d="M226.15 3.28 L212.47 9.42 L212.65 -3.25 L226.15 3.28" stroke="none" stroke-width="0" fill="#000000" fill-rule="evenodd"></path><path d="M226.15 3.28 C220.82 5.68, 215.49 8.07, 212.47 9.42 M226.15 3.28 C223.18 4.62, 220.21 5.95, 212.47 9.42 M212.47 9.42 C212.52 5.75, 212.58 2.08, 212.65 -3.25 M212.47 9.42 C212.52 6.1, 212.57 2.77, 212.65 -3.25 M212.65 -3.25 C216.62 -1.33, 220.58 0.58, 226.15 3.28 M212.65 -3.25 C216.29 -1.49, 219.92 0.27, 226.15 3.28 M226.15 3.28 C226.15 3.28, 226.15 3.28, 226.15 3.28 M226.15 3.28 C226.15 3.28, 226.15 3.28, 226.15 3.28" stroke="#000000" stroke-width="1" fill="none"></path></g></g><mask id="mask-dxu9Jo9Cr6BPmbdXDElI_"><rect x="0" y="0" fill="#fff" width="412.66862916987793" height="360.3323012035644"></rect><rect x="140.78334857679147" y="238.69083792812853" fill="#000" width="117.61593627929688" height="40" opacity="1"></rect></mask><g transform="translate(140.78334857679147 238.69083792812853) rotate(0 58.80796813964821 20.00000000000091)"><text x="58.80796813964844" y="0" font-family="Virgil, Segoe UI Emoji" font-size="16px" fill="#000000" text-anchor="middle" style="white-space: pre;" direction="ltr" dominant-baseline="text-before-edge">install Jenkins </text><text x="58.80796813964844" y="20" font-family="Virgil, Segoe UI Emoji" font-size="16px" fill="#000000" text-anchor="middle" style="white-space: pre;" direction="ltr" dominant-baseline="text-before-edge">Promise</text></g><g stroke-linecap="round" transform="translate(28.142589393215076 206.95395400528287) rotate(0 15.733984669645906 15.65994634762228)"><path d="M2.69 7.64 C2.69 7.64, 2.69 7.64, 2.69 7.64 M2.69 7.64 C2.69 7.64, 2.69 7.64, 2.69 7.64 M0.75 16.78 C4.69 12.58, 10.52 5.1, 13.44 3.31 M1.16 15.94 C4.26 10.72, 9.91 6.15, 12.74 3.47 M2.55 18.51 C4.96 14.5, 8.18 11.98, 19.24 1.88 M2.78 20.69 C5.65 14.99, 11.96 10.82, 16.95 3.4 M4.8 25.57 C10.86 19.01, 17.29 8.37, 23.24 4.19 M4.87 23.94 C11.15 14.93, 19.33 7.84, 22.17 2.23 M7.11 27.86 C8.63 24.28, 14.93 15.45, 24.97 3.62 M5.71 27.77 C9.31 23.78, 13.44 19.3, 26.52 5.18 M8.4 30.25 C12.52 23.04, 17.04 21.75, 28.97 9.82 M10.79 30.63 C14.05 24.54, 20.42 18.28, 28.01 7.69 M13.41 31.29 C18.61 25.53, 24.11 20.14, 31.3 10.62 M14.51 30.29 C21.28 23.72, 27.21 18.05, 31.07 10.71 M18.21 31.17 C23.09 25.41, 26.3 22.29, 33.14 17.36 M17.72 33.3 C21.85 28.29, 24.27 25.27, 33.27 14.47" stroke="#7950f2" stroke-width="0.5" fill="none"></path><path d="M9.78 -0.04 C12.8 -1.16, 17.58 -0.04, 20.82 1.33 C24.06 2.7, 27.35 5.23, 29.2 8.16 C31.04 11.09, 32.62 15.8, 31.91 18.93 C31.21 22.06, 27.68 24.89, 24.94 26.94 C22.2 28.99, 18.69 31.02, 15.47 31.21 C12.24 31.41, 8.17 30.2, 5.6 28.11 C3.03 26.03, 0.52 22.14, 0.06 18.69 C-0.4 15.24, 0.63 10.54, 2.87 7.44 C5.1 4.34, 11.05 1.32, 13.46 0.09 C15.86 -1.15, 17.24 -0.07, 17.29 0.02 M12.72 0.03 C15.62 -0.88, 18.23 -0.39, 20.94 1.35 C23.66 3.1, 27.35 7.38, 28.99 10.5 C30.64 13.63, 31.69 16.89, 30.83 20.1 C29.97 23.32, 26.56 28.07, 23.82 29.78 C21.08 31.48, 17.44 30.62, 14.37 30.33 C11.31 30.05, 7.89 30.09, 5.43 28.06 C2.97 26.03, -0.15 21.82, -0.4 18.17 C-0.65 14.53, 2.15 9.28, 3.93 6.19 C5.71 3.11, 8.74 0.6, 10.28 -0.32 C11.82 -1.25, 12.65 0.04, 13.19 0.65" stroke="#495057" stroke-width="1" fill="none"></path></g><g stroke-linecap="round"><g transform="translate(43.80253574083736 238.27384670052925) rotate(0 0.6682245931917805 21.57729890963492)" fill-rule="evenodd"><path d="M-10.54 0.11 C-10.54 0.11, -10.54 0.11, -10.54 0.11 M-10.54 0.11 C-10.54 0.11, -10.54 0.11, -10.54 0.11 M-14.03 11.83 C-13.33 9.21, -7.83 4.28, -3.64 0.86 M-14.63 11.7 C-11.7 9.31, -9.19 4.68, -5.02 -0.11 M-20.15 21.25 C-10.69 13.26, -5.82 9.3, -1.72 0.87 M-18.66 21.53 C-11.14 13.91, -3.9 5.57, 0.75 0.24 M-19.9 29.59 C-9.9 19.65, -0.5 8.24, 7.49 -1.03 M-19.85 29.89 C-12.44 22.44, -6.13 12.4, 8.57 -2.39 M-21.8 35.89 C-11.79 27.46, -7.76 21.76, 8.5 2.02 M-19.15 35.95 C-10.27 24.68, 0.11 13.33, 9.75 0.93 M-19.43 40.07 C-7.66 28.76, 6.33 12.33, 12.95 5.61 M-20.07 42.65 C-10.82 30.06, -0.66 19.45, 12.25 5.7 M-16.98 41.83 C-9.39 32.75, -2.4 23.47, 15.12 8.57 M-17.36 44.04 C-9.48 36.32, -4.4 28.55, 13.93 7.55 M-14.79 47.63 C-2.95 36.63, 5.92 24.03, 18.83 12.69 M-12.33 45.62 C-2.19 32.01, 9.65 19.31, 16.56 10.52 M-8.57 47.15 C-1.73 38.11, 8.66 27.29, 19.04 16.36 M-9.07 49.25 C-4.55 40.84, 3.25 33.11, 17.54 15.97 M-6.46 49.34 C0.52 44.52, 4.19 34.55, 18.7 19.56 M-5.4 48.58 C3.82 37.83, 12.94 28.05, 19.78 20.04 M1.37 48.05 C7.61 41.66, 15.1 30.69, 23.15 25.7 M0.64 47.09 C7.9 40.85, 13.9 32.65, 22.22 24.9 M7.56 47.83 C13.95 43.14, 15.75 34.64, 24.32 27.96 M7.74 47.27 C12.57 41.65, 16.43 35.28, 23.16 29.46 M13.18 45 C16.76 41.9, 17.35 41.71, 24.01 36.06 M13.77 45.88 C17.29 42.21, 19.78 37.16, 23.7 34.23" stroke="#7950f2" stroke-width="0.5" fill="none"></path><path d="M-0.8 -1.1 C0.81 -1.37, 6.58 -8.03, 10.01 -0.99 C13.45 6.04, 24.89 34.04, 19.8 41.1 C14.71 48.17, -15.51 48.11, -20.53 41.4 C-25.55 34.7, -13.8 7.92, -10.32 0.88 C-6.84 -6.16, -1.2 -0.69, 0.35 -0.84 M0.99 0.93 C2.37 0.72, 5.32 -6.83, 8.84 0.02 C12.36 6.88, 26.95 35.03, 22.13 42.08 C17.3 49.13, -14.46 49.04, -20.1 42.32 C-25.74 35.6, -14.79 8.57, -11.73 1.74 C-8.67 -5.1, -3.51 1.85, -1.72 1.34" stroke="#495057" stroke-width="1" fill="none"></path></g></g><mask></mask><g stroke-linecap="round"><g transform="translate(324.02600917080736 77.35620177566307) rotate(0 0 246.21634200643985)"><path d="M0 0 C0 82.07, 0 410.36, 0 492.43 M0 0 C0 82.07, 0 410.36, 0 492.43" stroke="#000000" stroke-width="1" fill="none"></path></g></g><mask></mask><g transform="translate(10 298.78764172147385) rotate(0 34.47657775878906 20.246447535221705)"><text x="34.47657775878906" y="0" font-family="Virgil, Segoe UI Emoji" font-size="16.197158028177277px" fill="#5f3dc4" text-anchor="middle" style="white-space: pre;" direction="ltr" dominant-baseline="text-before-edge">Platform</text><text x="34.47657775878906" y="20.2464475352216" font-family="Virgil, Segoe UI Emoji" font-size="16.197158028177277px" fill="#5f3dc4" text-anchor="middle" style="white-space: pre;" direction="ltr" dominant-baseline="text-before-edge">Engineer</text></g><g stroke-linecap="round" transform="translate(607.6636339388665 27.36996706988066) rotate(358.92972393214535 3.7680364110324263 19.55595047308725)"><path d="M1.88 0 L5.65 0 L7.07 0.47 L7.54 1.88 L7.54 37.23 L7.07 38.64 L5.65 39.11 L0.47 38.64 L0 37.23 L0 1.88 L0.47 0.47 L1.88 0" stroke="none" stroke-width="0" fill="#7950f2"></path><path d="M1.88 0 M1.88 0 C2.86 0, 3.83 0, 5.65 0 M1.88 0 C3.38 0, 4.87 0, 5.65 0 M5.65 0 C6.91 0, 7.54 0.63, 7.54 1.88 M5.65 0 C6.91 0, 7.54 0.63, 7.54 1.88 M7.54 1.88 C7.54 15.84, 7.54 29.8, 7.54 37.23 M7.54 1.88 C7.54 13.24, 7.54 24.6, 7.54 37.23 M7.54 37.23 C7.54 38.48, 6.91 39.11, 5.65 39.11 M7.54 37.23 C7.54 38.48, 6.91 39.11, 5.65 39.11 M5.65 39.11 C4.66 39.11, 3.68 39.11, 1.88 39.11 M5.65 39.11 C4.46 39.11, 3.27 39.11, 1.88 39.11 M1.88 39.11 C0.63 39.11, 0 38.48, 0 37.23 M1.88 39.11 C0.63 39.11, 0 38.48, 0 37.23 M0 37.23 C0 24.29, 0 11.35, 0 1.88 M0 37.23 C0 25.96, 0 14.69, 0 1.88 M0 1.88 C0 0.63, 0.63 0, 1.88 0 M0 1.88 C0 0.63, 0.63 0, 1.88 0" stroke="transparent" stroke-width="1" fill="none"></path></g><g stroke-linecap="round" transform="translate(621.7002733721524 22.374954146489472) rotate(40.41727686562419 3.7680364110324263 24.785791502693428)"><path d="M1.88 0 L5.65 0 L7.07 0.47 L7.54 1.88 L7.54 47.69 L7.07 49.1 L5.65 49.57 L0.47 49.1 L0 47.69 L0 1.88 L0.47 0.47 L1.88 0" stroke="none" stroke-width="0" fill="#7950f2"></path><path d="M1.88 0 M1.88 0 C3.27 0, 4.66 0, 5.65 0 M1.88 0 C3.11 0, 4.33 0, 5.65 0 M5.65 0 C6.91 0, 7.54 0.63, 7.54 1.88 M5.65 0 C6.91 0, 7.54 0.63, 7.54 1.88 M7.54 1.88 C7.54 19.93, 7.54 37.97, 7.54 47.69 M7.54 1.88 C7.54 12.2, 7.54 22.51, 7.54 47.69 M7.54 47.69 C7.54 48.94, 6.91 49.57, 5.65 49.57 M7.54 47.69 C7.54 48.94, 6.91 49.57, 5.65 49.57 M5.65 49.57 C4.37 49.57, 3.09 49.57, 1.88 49.57 M5.65 49.57 C4.64 49.57, 3.63 49.57, 1.88 49.57 M1.88 49.57 C0.63 49.57, 0 48.94, 0 47.69 M1.88 49.57 C0.63 49.57, 0 48.94, 0 47.69 M0 47.69 C0 31.56, 0 15.43, 0 1.88 M0 47.69 C0 36.53, 0 25.38, 0 1.88 M0 1.88 C0 0.63, 0.63 0, 1.88 0 M0 1.88 C0 0.63, 0.63 0, 1.88 0" stroke="transparent" stroke-width="1" fill="none"></path></g><g stroke-linecap="round" transform="translate(630.3427976370072 40.929970154495095) rotate(139.22073182693399 3.7680364110324263 14.147647249566944)"><path d="M1.88 0 L5.65 0 L7.07 0.47 L7.54 1.88 L7.54 26.41 L7.07 27.82 L5.65 28.3 L0.47 27.82 L0 26.41 L0 1.88 L0.47 0.47 L1.88 0" stroke="none" stroke-width="0" fill="#7950f2"></path><path d="M1.88 0 M1.88 0 C2.65 0, 3.41 0, 5.65 0 M1.88 0 C3.33 0, 4.79 0, 5.65 0 M5.65 0 C6.91 0, 7.54 0.63, 7.54 1.88 M5.65 0 C6.91 0, 7.54 0.63, 7.54 1.88 M7.54 1.88 C7.54 10.59, 7.54 19.29, 7.54 26.41 M7.54 1.88 C7.54 6.95, 7.54 12.02, 7.54 26.41 M7.54 26.41 C7.54 27.67, 6.91 28.3, 5.65 28.3 M7.54 26.41 C7.54 27.67, 6.91 28.3, 5.65 28.3 M5.65 28.3 C4.15 28.3, 2.64 28.3, 1.88 28.3 M5.65 28.3 C4.41 28.3, 3.16 28.3, 1.88 28.3 M1.88 28.3 C0.63 28.3, 0 27.67, 0 26.41 M1.88 28.3 C0.63 28.3, 0 27.67, 0 26.41 M0 26.41 C0 20.26, 0 14.12, 0 1.88 M0 26.41 C0 21.13, 0 15.84, 0 1.88 M0 1.88 C0 0.63, 0.63 0, 1.88 0 M0 1.88 C0 0.63, 0.63 0, 1.88 0" stroke="transparent" stroke-width="1" fill="none"></path></g><g stroke-linecap="round" transform="translate(606.796289085793 25.415446166549373) rotate(358.1310915065084 4.207022158495647 4.569555668486828)"><path d="M8.41 4.57 C8.41 4.83, 8.39 5.1, 8.35 5.36 C8.31 5.62, 8.24 5.88, 8.16 6.13 C8.08 6.38, 7.97 6.63, 7.85 6.85 C7.73 7.08, 7.59 7.3, 7.43 7.51 C7.27 7.71, 7.1 7.9, 6.91 8.07 C6.72 8.24, 6.52 8.39, 6.31 8.53 C6.1 8.66, 5.87 8.77, 5.65 8.86 C5.42 8.95, 5.18 9.02, 4.94 9.07 C4.7 9.12, 4.45 9.14, 4.21 9.14 C3.96 9.14, 3.72 9.12, 3.48 9.07 C3.24 9.02, 3 8.95, 2.77 8.86 C2.54 8.77, 2.31 8.66, 2.1 8.53 C1.89 8.39, 1.69 8.24, 1.5 8.07 C1.32 7.9, 1.14 7.71, 0.98 7.51 C0.83 7.3, 0.69 7.08, 0.56 6.85 C0.44 6.63, 0.34 6.38, 0.25 6.13 C0.17 5.88, 0.11 5.62, 0.06 5.36 C0.02 5.1, 0 4.83, 0 4.57 C0 4.31, 0.02 4.04, 0.06 3.78 C0.11 3.52, 0.17 3.26, 0.25 3.01 C0.34 2.76, 0.44 2.51, 0.56 2.28 C0.69 2.06, 0.83 1.83, 0.98 1.63 C1.14 1.43, 1.32 1.24, 1.5 1.07 C1.69 0.9, 1.89 0.74, 2.1 0.61 C2.31 0.48, 2.54 0.37, 2.77 0.28 C3 0.19, 3.24 0.12, 3.48 0.07 C3.72 0.02, 3.96 0, 4.21 0 C4.45 0, 4.7 0.02, 4.94 0.07 C5.18 0.12, 5.42 0.19, 5.65 0.28 C5.87 0.37, 6.1 0.48, 6.31 0.61 C6.52 0.74, 6.72 0.9, 6.91 1.07 C7.1 1.24, 7.27 1.43, 7.43 1.63 C7.59 1.83, 7.73 2.06, 7.85 2.28 C7.97 2.51, 8.08 2.76, 8.16 3.01 C8.24 3.26, 8.31 3.52, 8.35 3.78 C8.39 4.04, 8.4 4.44, 8.41 4.57 C8.42 4.7, 8.42 4.44, 8.41 4.57" stroke="none" stroke-width="0" fill="#7950f2"></path><path d="M8.41 4.57 C8.41 4.83, 8.39 5.1, 8.35 5.36 C8.31 5.62, 8.24 5.88, 8.16 6.13 C8.08 6.38, 7.97 6.63, 7.85 6.85 C7.73 7.08, 7.59 7.3, 7.43 7.51 C7.27 7.71, 7.1 7.9, 6.91 8.07 C6.72 8.24, 6.52 8.39, 6.31 8.53 C6.1 8.66, 5.87 8.77, 5.65 8.86 C5.42 8.95, 5.18 9.02, 4.94 9.07 C4.7 9.12, 4.45 9.14, 4.21 9.14 C3.96 9.14, 3.72 9.12, 3.48 9.07 C3.24 9.02, 3 8.95, 2.77 8.86 C2.54 8.77, 2.31 8.66, 2.1 8.53 C1.89 8.39, 1.69 8.24, 1.5 8.07 C1.32 7.9, 1.14 7.71, 0.98 7.51 C0.83 7.3, 0.69 7.08, 0.56 6.85 C0.44 6.63, 0.34 6.38, 0.25 6.13 C0.17 5.88, 0.11 5.62, 0.06 5.36 C0.02 5.1, 0 4.83, 0 4.57 C0 4.31, 0.02 4.04, 0.06 3.78 C0.11 3.52, 0.17 3.26, 0.25 3.01 C0.34 2.76, 0.44 2.51, 0.56 2.28 C0.69 2.06, 0.83 1.83, 0.98 1.63 C1.14 1.43, 1.32 1.24, 1.5 1.07 C1.69 0.9, 1.89 0.74, 2.1 0.61 C2.31 0.48, 2.54 0.37, 2.77 0.28 C3 0.19, 3.24 0.12, 3.48 0.07 C3.72 0.02, 3.96 0, 4.21 0 C4.45 0, 4.7 0.02, 4.94 0.07 C5.18 0.12, 5.42 0.19, 5.65 0.28 C5.87 0.37, 6.1 0.48, 6.31 0.61 C6.52 0.74, 6.72 0.9, 6.91 1.07 C7.1 1.24, 7.27 1.43, 7.43 1.63 C7.59 1.83, 7.73 2.06, 7.85 2.28 C7.97 2.51, 8.08 2.76, 8.16 3.01 C8.24 3.26, 8.31 3.52, 8.35 3.78 C8.39 4.04, 8.4 4.44, 8.41 4.57 C8.42 4.7, 8.42 4.44, 8.41 4.57" stroke="#5f3dc4" stroke-width="1" fill="none"></path></g><g stroke-linecap="round" transform="translate(607.7569251128111 57.66348280217426) rotate(358.1310915065084 4.207022158495647 4.569555668486828)"><path d="M8.41 4.57 C8.41 4.83, 8.39 5.1, 8.35 5.36 C8.31 5.62, 8.24 5.88, 8.16 6.13 C8.08 6.38, 7.97 6.63, 7.85 6.85 C7.73 7.08, 7.59 7.3, 7.43 7.51 C7.27 7.71, 7.1 7.9, 6.91 8.07 C6.72 8.24, 6.52 8.39, 6.31 8.53 C6.1 8.66, 5.87 8.77, 5.65 8.86 C5.42 8.95, 5.18 9.02, 4.94 9.07 C4.7 9.12, 4.45 9.14, 4.21 9.14 C3.96 9.14, 3.72 9.12, 3.48 9.07 C3.24 9.02, 3 8.95, 2.77 8.86 C2.54 8.77, 2.31 8.66, 2.1 8.53 C1.89 8.39, 1.69 8.24, 1.5 8.07 C1.32 7.9, 1.14 7.71, 0.98 7.51 C0.83 7.3, 0.69 7.08, 0.56 6.85 C0.44 6.63, 0.34 6.38, 0.25 6.13 C0.17 5.88, 0.11 5.62, 0.06 5.36 C0.02 5.1, 0 4.83, 0 4.57 C0 4.31, 0.02 4.04, 0.06 3.78 C0.11 3.52, 0.17 3.26, 0.25 3.01 C0.34 2.76, 0.44 2.51, 0.56 2.28 C0.69 2.06, 0.83 1.83, 0.98 1.63 C1.14 1.43, 1.32 1.24, 1.5 1.07 C1.69 0.9, 1.89 0.74, 2.1 0.61 C2.31 0.48, 2.54 0.37, 2.77 0.28 C3 0.19, 3.24 0.12, 3.48 0.07 C3.72 0.02, 3.96 0, 4.21 0 C4.45 0, 4.7 0.02, 4.94 0.07 C5.18 0.12, 5.42 0.19, 5.65 0.28 C5.87 0.37, 6.1 0.48, 6.31 0.61 C6.52 0.74, 6.72 0.9, 6.91 1.07 C7.1 1.24, 7.27 1.43, 7.43 1.63 C7.59 1.83, 7.73 2.06, 7.85 2.28 C7.97 2.51, 8.08 2.76, 8.16 3.01 C8.24 3.26, 8.31 3.52, 8.35 3.78 C8.39 4.04, 8.4 4.44, 8.41 4.57 C8.42 4.7, 8.42 4.44, 8.41 4.57" stroke="none" stroke-width="0" fill="#7950f2"></path><path d="M8.41 4.57 C8.41 4.83, 8.39 5.1, 8.35 5.36 C8.31 5.62, 8.24 5.88, 8.16 6.13 C8.08 6.38, 7.97 6.63, 7.85 6.85 C7.73 7.08, 7.59 7.3, 7.43 7.51 C7.27 7.71, 7.1 7.9, 6.91 8.07 C6.72 8.24, 6.52 8.39, 6.31 8.53 C6.1 8.66, 5.87 8.77, 5.65 8.86 C5.42 8.95, 5.18 9.02, 4.94 9.07 C4.7 9.12, 4.45 9.14, 4.21 9.14 C3.96 9.14, 3.72 9.12, 3.48 9.07 C3.24 9.02, 3 8.95, 2.77 8.86 C2.54 8.77, 2.31 8.66, 2.1 8.53 C1.89 8.39, 1.69 8.24, 1.5 8.07 C1.32 7.9, 1.14 7.71, 0.98 7.51 C0.83 7.3, 0.69 7.08, 0.56 6.85 C0.44 6.63, 0.34 6.38, 0.25 6.13 C0.17 5.88, 0.11 5.62, 0.06 5.36 C0.02 5.1, 0 4.83, 0 4.57 C0 4.31, 0.02 4.04, 0.06 3.78 C0.11 3.52, 0.17 3.26, 0.25 3.01 C0.34 2.76, 0.44 2.51, 0.56 2.28 C0.69 2.06, 0.83 1.83, 0.98 1.63 C1.14 1.43, 1.32 1.24, 1.5 1.07 C1.69 0.9, 1.89 0.74, 2.1 0.61 C2.31 0.48, 2.54 0.37, 2.77 0.28 C3 0.19, 3.24 0.12, 3.48 0.07 C3.72 0.02, 3.96 0, 4.21 0 C4.45 0, 4.7 0.02, 4.94 0.07 C5.18 0.12, 5.42 0.19, 5.65 0.28 C5.87 0.37, 6.1 0.48, 6.31 0.61 C6.52 0.74, 6.72 0.9, 6.91 1.07 C7.1 1.24, 7.27 1.43, 7.43 1.63 C7.59 1.83, 7.73 2.06, 7.85 2.28 C7.97 2.51, 8.08 2.76, 8.16 3.01 C8.24 3.26, 8.31 3.52, 8.35 3.78 C8.39 4.04, 8.4 4.44, 8.41 4.57 C8.42 4.7, 8.42 4.44, 8.41 4.57" stroke="#5f3dc4" stroke-width="1" fill="none"></path></g><g stroke-linecap="round" transform="translate(622.2943194879558 43.5655938964519) rotate(358.1310915065084 4.171683969157584 4.569555668486828)"><path d="M8.34 4.57 C8.34 4.83, 8.32 5.1, 8.28 5.36 C8.24 5.62, 8.17 5.88, 8.09 6.13 C8.01 6.38, 7.91 6.63, 7.78 6.85 C7.66 7.08, 7.52 7.3, 7.37 7.51 C7.21 7.71, 7.04 7.9, 6.85 8.07 C6.67 8.24, 6.47 8.39, 6.26 8.53 C6.05 8.66, 5.83 8.77, 5.6 8.86 C5.37 8.95, 5.13 9.02, 4.9 9.07 C4.66 9.12, 4.41 9.14, 4.17 9.14 C3.93 9.14, 3.69 9.12, 3.45 9.07 C3.21 9.02, 2.97 8.95, 2.74 8.86 C2.52 8.77, 2.29 8.66, 2.09 8.53 C1.88 8.39, 1.68 8.24, 1.49 8.07 C1.31 7.9, 1.13 7.71, 0.98 7.51 C0.82 7.3, 0.68 7.08, 0.56 6.85 C0.44 6.63, 0.33 6.38, 0.25 6.13 C0.17 5.88, 0.11 5.62, 0.06 5.36 C0.02 5.1, 0 4.83, 0 4.57 C0 4.31, 0.02 4.04, 0.06 3.78 C0.11 3.52, 0.17 3.26, 0.25 3.01 C0.33 2.76, 0.44 2.51, 0.56 2.28 C0.68 2.06, 0.82 1.83, 0.98 1.63 C1.13 1.43, 1.31 1.24, 1.49 1.07 C1.68 0.9, 1.88 0.74, 2.09 0.61 C2.29 0.48, 2.52 0.37, 2.74 0.28 C2.97 0.19, 3.21 0.12, 3.45 0.07 C3.69 0.02, 3.93 0, 4.17 0 C4.41 0, 4.66 0.02, 4.9 0.07 C5.13 0.12, 5.37 0.19, 5.6 0.28 C5.83 0.37, 6.05 0.48, 6.26 0.61 C6.47 0.74, 6.67 0.9, 6.85 1.07 C7.04 1.24, 7.21 1.43, 7.37 1.63 C7.52 1.83, 7.66 2.06, 7.78 2.28 C7.91 2.51, 8.01 2.76, 8.09 3.01 C8.17 3.26, 8.24 3.52, 8.28 3.78 C8.32 4.04, 8.33 4.44, 8.34 4.57 C8.35 4.7, 8.35 4.44, 8.34 4.57" stroke="none" stroke-width="0" fill="#7950f2"></path><path d="M8.34 4.57 C8.34 4.83, 8.32 5.1, 8.28 5.36 C8.24 5.62, 8.17 5.88, 8.09 6.13 C8.01 6.38, 7.91 6.63, 7.78 6.85 C7.66 7.08, 7.52 7.3, 7.37 7.51 C7.21 7.71, 7.04 7.9, 6.85 8.07 C6.67 8.24, 6.47 8.39, 6.26 8.53 C6.05 8.66, 5.83 8.77, 5.6 8.86 C5.37 8.95, 5.13 9.02, 4.9 9.07 C4.66 9.12, 4.41 9.14, 4.17 9.14 C3.93 9.14, 3.69 9.12, 3.45 9.07 C3.21 9.02, 2.97 8.95, 2.74 8.86 C2.52 8.77, 2.29 8.66, 2.09 8.53 C1.88 8.39, 1.68 8.24, 1.49 8.07 C1.31 7.9, 1.13 7.71, 0.98 7.51 C0.82 7.3, 0.68 7.08, 0.56 6.85 C0.44 6.63, 0.33 6.38, 0.25 6.13 C0.17 5.88, 0.11 5.62, 0.06 5.36 C0.02 5.1, 0 4.83, 0 4.57 C0 4.31, 0.02 4.04, 0.06 3.78 C0.11 3.52, 0.17 3.26, 0.25 3.01 C0.33 2.76, 0.44 2.51, 0.56 2.28 C0.68 2.06, 0.82 1.83, 0.98 1.63 C1.13 1.43, 1.31 1.24, 1.49 1.07 C1.68 0.9, 1.88 0.74, 2.09 0.61 C2.29 0.48, 2.52 0.37, 2.74 0.28 C2.97 0.19, 3.21 0.12, 3.45 0.07 C3.69 0.02, 3.93 0, 4.17 0 C4.41 0, 4.66 0.02, 4.9 0.07 C5.13 0.12, 5.37 0.19, 5.6 0.28 C5.83 0.37, 6.05 0.48, 6.26 0.61 C6.47 0.74, 6.67 0.9, 6.85 1.07 C7.04 1.24, 7.21 1.43, 7.37 1.63 C7.52 1.83, 7.66 2.06, 7.78 2.28 C7.91 2.51, 8.01 2.76, 8.09 3.01 C8.17 3.26, 8.24 3.52, 8.28 3.78 C8.32 4.04, 8.33 4.44, 8.34 4.57 C8.35 4.7, 8.35 4.44, 8.34 4.57" stroke="#5f3dc4" stroke-width="1" fill="none"></path></g><g stroke-linecap="round" transform="translate(635.4402241554749 26.216697264055256) rotate(358.1310915065084 4.207022158495647 4.569555668486828)"><path d="M8.41 4.57 C8.41 4.83, 8.39 5.1, 8.35 5.36 C8.31 5.62, 8.24 5.88, 8.16 6.13 C8.08 6.38, 7.97 6.63, 7.85 6.85 C7.73 7.08, 7.59 7.3, 7.43 7.51 C7.27 7.71, 7.1 7.9, 6.91 8.07 C6.72 8.24, 6.52 8.39, 6.31 8.53 C6.1 8.66, 5.87 8.77, 5.65 8.86 C5.42 8.95, 5.18 9.02, 4.94 9.07 C4.7 9.12, 4.45 9.14, 4.21 9.14 C3.96 9.14, 3.72 9.12, 3.48 9.07 C3.24 9.02, 3 8.95, 2.77 8.86 C2.54 8.77, 2.31 8.66, 2.1 8.53 C1.89 8.39, 1.69 8.24, 1.5 8.07 C1.32 7.9, 1.14 7.71, 0.98 7.51 C0.83 7.3, 0.69 7.08, 0.56 6.85 C0.44 6.63, 0.34 6.38, 0.25 6.13 C0.17 5.88, 0.11 5.62, 0.06 5.36 C0.02 5.1, 0 4.83, 0 4.57 C0 4.31, 0.02 4.04, 0.06 3.78 C0.11 3.52, 0.17 3.26, 0.25 3.01 C0.34 2.76, 0.44 2.51, 0.56 2.28 C0.69 2.06, 0.83 1.83, 0.98 1.63 C1.14 1.43, 1.32 1.24, 1.5 1.07 C1.69 0.9, 1.89 0.74, 2.1 0.61 C2.31 0.48, 2.54 0.37, 2.77 0.28 C3 0.19, 3.24 0.12, 3.48 0.07 C3.72 0.02, 3.96 0, 4.21 0 C4.45 0, 4.7 0.02, 4.94 0.07 C5.18 0.12, 5.42 0.19, 5.65 0.28 C5.87 0.37, 6.1 0.48, 6.31 0.61 C6.52 0.74, 6.72 0.9, 6.91 1.07 C7.1 1.24, 7.27 1.43, 7.43 1.63 C7.59 1.83, 7.73 2.06, 7.85 2.28 C7.97 2.51, 8.08 2.76, 8.16 3.01 C8.24 3.26, 8.31 3.52, 8.35 3.78 C8.39 4.04, 8.4 4.44, 8.41 4.57 C8.42 4.7, 8.42 4.44, 8.41 4.57" stroke="none" stroke-width="0" fill="#7950f2"></path><path d="M8.41 4.57 C8.41 4.83, 8.39 5.1, 8.35 5.36 C8.31 5.62, 8.24 5.88, 8.16 6.13 C8.08 6.38, 7.97 6.63, 7.85 6.85 C7.73 7.08, 7.59 7.3, 7.43 7.51 C7.27 7.71, 7.1 7.9, 6.91 8.07 C6.72 8.24, 6.52 8.39, 6.31 8.53 C6.1 8.66, 5.87 8.77, 5.65 8.86 C5.42 8.95, 5.18 9.02, 4.94 9.07 C4.7 9.12, 4.45 9.14, 4.21 9.14 C3.96 9.14, 3.72 9.12, 3.48 9.07 C3.24 9.02, 3 8.95, 2.77 8.86 C2.54 8.77, 2.31 8.66, 2.1 8.53 C1.89 8.39, 1.69 8.24, 1.5 8.07 C1.32 7.9, 1.14 7.71, 0.98 7.51 C0.83 7.3, 0.69 7.08, 0.56 6.85 C0.44 6.63, 0.34 6.38, 0.25 6.13 C0.17 5.88, 0.11 5.62, 0.06 5.36 C0.02 5.1, 0 4.83, 0 4.57 C0 4.31, 0.02 4.04, 0.06 3.78 C0.11 3.52, 0.17 3.26, 0.25 3.01 C0.34 2.76, 0.44 2.51, 0.56 2.28 C0.69 2.06, 0.83 1.83, 0.98 1.63 C1.14 1.43, 1.32 1.24, 1.5 1.07 C1.69 0.9, 1.89 0.74, 2.1 0.61 C2.31 0.48, 2.54 0.37, 2.77 0.28 C3 0.19, 3.24 0.12, 3.48 0.07 C3.72 0.02, 3.96 0, 4.21 0 C4.45 0, 4.7 0.02, 4.94 0.07 C5.18 0.12, 5.42 0.19, 5.65 0.28 C5.87 0.37, 6.1 0.48, 6.31 0.61 C6.52 0.74, 6.72 0.9, 6.91 1.07 C7.1 1.24, 7.27 1.43, 7.43 1.63 C7.59 1.83, 7.73 2.06, 7.85 2.28 C7.97 2.51, 8.08 2.76, 8.16 3.01 C8.24 3.26, 8.31 3.52, 8.35 3.78 C8.39 4.04, 8.4 4.44, 8.41 4.57 C8.42 4.7, 8.42 4.44, 8.41 4.57" stroke="#5f3dc4" stroke-width="1" fill="none"></path></g><g stroke-linecap="round" transform="translate(637.4912337376431 59.230062291728245) rotate(358.1310915065084 4.207022158495647 4.569555668486828)"><path d="M8.41 4.57 C8.41 4.83, 8.39 5.1, 8.35 5.36 C8.31 5.62, 8.24 5.88, 8.16 6.13 C8.08 6.38, 7.97 6.63, 7.85 6.85 C7.73 7.08, 7.59 7.3, 7.43 7.51 C7.27 7.71, 7.1 7.9, 6.91 8.07 C6.72 8.24, 6.52 8.39, 6.31 8.53 C6.1 8.66, 5.87 8.77, 5.65 8.86 C5.42 8.95, 5.18 9.02, 4.94 9.07 C4.7 9.12, 4.45 9.14, 4.21 9.14 C3.96 9.14, 3.72 9.12, 3.48 9.07 C3.24 9.02, 3 8.95, 2.77 8.86 C2.54 8.77, 2.31 8.66, 2.1 8.53 C1.89 8.39, 1.69 8.24, 1.5 8.07 C1.32 7.9, 1.14 7.71, 0.98 7.51 C0.83 7.3, 0.69 7.08, 0.56 6.85 C0.44 6.63, 0.34 6.38, 0.25 6.13 C0.17 5.88, 0.11 5.62, 0.06 5.36 C0.02 5.1, 0 4.83, 0 4.57 C0 4.31, 0.02 4.04, 0.06 3.78 C0.11 3.52, 0.17 3.26, 0.25 3.01 C0.34 2.76, 0.44 2.51, 0.56 2.28 C0.69 2.06, 0.83 1.83, 0.98 1.63 C1.14 1.43, 1.32 1.24, 1.5 1.07 C1.69 0.9, 1.89 0.74, 2.1 0.61 C2.31 0.48, 2.54 0.37, 2.77 0.28 C3 0.19, 3.24 0.12, 3.48 0.07 C3.72 0.02, 3.96 0, 4.21 0 C4.45 0, 4.7 0.02, 4.94 0.07 C5.18 0.12, 5.42 0.19, 5.65 0.28 C5.87 0.37, 6.1 0.48, 6.31 0.61 C6.52 0.74, 6.72 0.9, 6.91 1.07 C7.1 1.24, 7.27 1.43, 7.43 1.63 C7.59 1.83, 7.73 2.06, 7.85 2.28 C7.97 2.51, 8.08 2.76, 8.16 3.01 C8.24 3.26, 8.31 3.52, 8.35 3.78 C8.39 4.04, 8.4 4.44, 8.41 4.57 C8.42 4.7, 8.42 4.44, 8.41 4.57" stroke="none" stroke-width="0" fill="#7950f2"></path><path d="M8.41 4.57 C8.41 4.83, 8.39 5.1, 8.35 5.36 C8.31 5.62, 8.24 5.88, 8.16 6.13 C8.08 6.38, 7.97 6.63, 7.85 6.85 C7.73 7.08, 7.59 7.3, 7.43 7.51 C7.27 7.71, 7.1 7.9, 6.91 8.07 C6.72 8.24, 6.52 8.39, 6.31 8.53 C6.1 8.66, 5.87 8.77, 5.65 8.86 C5.42 8.95, 5.18 9.02, 4.94 9.07 C4.7 9.12, 4.45 9.14, 4.21 9.14 C3.96 9.14, 3.72 9.12, 3.48 9.07 C3.24 9.02, 3 8.95, 2.77 8.86 C2.54 8.77, 2.31 8.66, 2.1 8.53 C1.89 8.39, 1.69 8.24, 1.5 8.07 C1.32 7.9, 1.14 7.71, 0.98 7.51 C0.83 7.3, 0.69 7.08, 0.56 6.85 C0.44 6.63, 0.34 6.38, 0.25 6.13 C0.17 5.88, 0.11 5.62, 0.06 5.36 C0.02 5.1, 0 4.83, 0 4.57 C0 4.31, 0.02 4.04, 0.06 3.78 C0.11 3.52, 0.17 3.26, 0.25 3.01 C0.34 2.76, 0.44 2.51, 0.56 2.28 C0.69 2.06, 0.83 1.83, 0.98 1.63 C1.14 1.43, 1.32 1.24, 1.5 1.07 C1.69 0.9, 1.89 0.74, 2.1 0.61 C2.31 0.48, 2.54 0.37, 2.77 0.28 C3 0.19, 3.24 0.12, 3.48 0.07 C3.72 0.02, 3.96 0, 4.21 0 C4.45 0, 4.7 0.02, 4.94 0.07 C5.18 0.12, 5.42 0.19, 5.65 0.28 C5.87 0.37, 6.1 0.48, 6.31 0.61 C6.52 0.74, 6.72 0.9, 6.91 1.07 C7.1 1.24, 7.27 1.43, 7.43 1.63 C7.59 1.83, 7.73 2.06, 7.85 2.28 C7.97 2.51, 8.08 2.76, 8.16 3.01 C8.24 3.26, 8.31 3.52, 8.35 3.78 C8.39 4.04, 8.4 4.44, 8.41 4.57 C8.42 4.7, 8.42 4.44, 8.41 4.57" stroke="#5f3dc4" stroke-width="1" fill="none"></path></g><g stroke-linecap="round" transform="translate(607.3592654708887 26.557658285208163) rotate(358.1310915065084 3.7296939325749463 3.867855952339596)"><path d="M7.46 3.87 C7.46 4.09, 7.44 4.32, 7.4 4.54 C7.37 4.76, 7.31 4.98, 7.23 5.19 C7.16 5.4, 7.07 5.61, 6.96 5.8 C6.85 6, 6.73 6.18, 6.59 6.35 C6.45 6.53, 6.29 6.69, 6.13 6.83 C5.96 6.97, 5.78 7.11, 5.59 7.22 C5.41 7.33, 5.21 7.43, 5.01 7.5 C4.8 7.58, 4.59 7.64, 4.38 7.68 C4.16 7.72, 3.95 7.74, 3.73 7.74 C3.51 7.74, 3.29 7.72, 3.08 7.68 C2.87 7.64, 2.66 7.58, 2.45 7.5 C2.25 7.43, 2.05 7.33, 1.86 7.22 C1.68 7.11, 1.5 6.97, 1.33 6.83 C1.17 6.69, 1.01 6.53, 0.87 6.35 C0.73 6.18, 0.61 6, 0.5 5.8 C0.39 5.61, 0.3 5.4, 0.22 5.19 C0.15 4.98, 0.09 4.76, 0.06 4.54 C0.02 4.32, 0 4.09, 0 3.87 C0 3.64, 0.02 3.42, 0.06 3.2 C0.09 2.98, 0.15 2.76, 0.22 2.54 C0.3 2.33, 0.39 2.13, 0.5 1.93 C0.61 1.74, 0.73 1.55, 0.87 1.38 C1.01 1.21, 1.17 1.05, 1.33 0.9 C1.5 0.76, 1.68 0.63, 1.86 0.52 C2.05 0.41, 2.25 0.31, 2.45 0.23 C2.66 0.16, 2.87 0.1, 3.08 0.06 C3.29 0.02, 3.51 0, 3.73 0 C3.95 0, 4.16 0.02, 4.38 0.06 C4.59 0.1, 4.8 0.16, 5.01 0.23 C5.21 0.31, 5.41 0.41, 5.59 0.52 C5.78 0.63, 5.96 0.76, 6.13 0.9 C6.29 1.05, 6.45 1.21, 6.59 1.38 C6.73 1.55, 6.85 1.74, 6.96 1.93 C7.07 2.13, 7.16 2.33, 7.23 2.54 C7.31 2.76, 7.37 2.98, 7.4 3.2 C7.44 3.42, 7.45 3.76, 7.46 3.87 C7.47 3.98, 7.47 3.76, 7.46 3.87" stroke="#fff" stroke-width="1" fill="none"></path></g><g stroke-linecap="round" transform="translate(608.1326155168977 58.77026733395542) rotate(358.1310915065084 3.7296939325749463 3.867855952339596)"><path d="M7.46 3.87 C7.46 4.09, 7.44 4.32, 7.4 4.54 C7.37 4.76, 7.31 4.98, 7.23 5.19 C7.16 5.4, 7.07 5.61, 6.96 5.8 C6.85 6, 6.73 6.18, 6.59 6.35 C6.45 6.53, 6.29 6.69, 6.13 6.83 C5.96 6.97, 5.78 7.11, 5.59 7.22 C5.41 7.33, 5.21 7.43, 5.01 7.5 C4.8 7.58, 4.59 7.64, 4.38 7.68 C4.16 7.72, 3.95 7.74, 3.73 7.74 C3.51 7.74, 3.29 7.72, 3.08 7.68 C2.87 7.64, 2.66 7.58, 2.45 7.5 C2.25 7.43, 2.05 7.33, 1.86 7.22 C1.68 7.11, 1.5 6.97, 1.33 6.83 C1.17 6.69, 1.01 6.53, 0.87 6.35 C0.73 6.18, 0.61 6, 0.5 5.8 C0.39 5.61, 0.3 5.4, 0.22 5.19 C0.15 4.98, 0.09 4.76, 0.06 4.54 C0.02 4.32, 0 4.09, 0 3.87 C0 3.64, 0.02 3.42, 0.06 3.2 C0.09 2.98, 0.15 2.76, 0.22 2.54 C0.3 2.33, 0.39 2.13, 0.5 1.93 C0.61 1.74, 0.73 1.55, 0.87 1.38 C1.01 1.21, 1.17 1.05, 1.33 0.9 C1.5 0.76, 1.68 0.63, 1.86 0.52 C2.05 0.41, 2.25 0.31, 2.45 0.23 C2.66 0.16, 2.87 0.1, 3.08 0.06 C3.29 0.02, 3.51 0, 3.73 0 C3.95 0, 4.16 0.02, 4.38 0.06 C4.59 0.1, 4.8 0.16, 5.01 0.23 C5.21 0.31, 5.41 0.41, 5.59 0.52 C5.78 0.63, 5.96 0.76, 6.13 0.9 C6.29 1.05, 6.45 1.21, 6.59 1.38 C6.73 1.55, 6.85 1.74, 6.96 1.93 C7.07 2.13, 7.16 2.33, 7.23 2.54 C7.31 2.76, 7.37 2.98, 7.4 3.2 C7.44 3.42, 7.45 3.76, 7.46 3.87 C7.47 3.98, 7.47 3.76, 7.46 3.87" stroke="#fff" stroke-width="1" fill="none"></path></g><g stroke-linecap="round" transform="translate(622.698094926985 44.03754991616006) rotate(358.1310915065084 3.7246862679369315 3.7725718007777687)"><path d="M7.45 3.77 C7.45 3.99, 7.43 4.21, 7.39 4.43 C7.36 4.64, 7.3 4.86, 7.22 5.06 C7.15 5.27, 7.06 5.47, 6.95 5.66 C6.84 5.85, 6.72 6.03, 6.58 6.2 C6.44 6.36, 6.28 6.52, 6.12 6.66 C5.95 6.8, 5.77 6.93, 5.59 7.04 C5.4 7.15, 5.2 7.24, 5 7.32 C4.8 7.39, 4.58 7.45, 4.37 7.49 C4.16 7.53, 3.94 7.55, 3.72 7.55 C3.51 7.55, 3.29 7.53, 3.08 7.49 C2.87 7.45, 2.65 7.39, 2.45 7.32 C2.25 7.24, 2.05 7.15, 1.86 7.04 C1.68 6.93, 1.5 6.8, 1.33 6.66 C1.17 6.52, 1.01 6.36, 0.87 6.2 C0.73 6.03, 0.61 5.85, 0.5 5.66 C0.39 5.47, 0.3 5.27, 0.22 5.06 C0.15 4.86, 0.09 4.64, 0.06 4.43 C0.02 4.21, 0 3.99, 0 3.77 C0 3.55, 0.02 3.33, 0.06 3.12 C0.09 2.9, 0.15 2.69, 0.22 2.48 C0.3 2.28, 0.39 2.08, 0.5 1.89 C0.61 1.7, 0.73 1.51, 0.87 1.35 C1.01 1.18, 1.17 1.02, 1.33 0.88 C1.5 0.74, 1.68 0.61, 1.86 0.51 C2.05 0.4, 2.25 0.3, 2.45 0.23 C2.65 0.15, 2.87 0.1, 3.08 0.06 C3.29 0.02, 3.51 0, 3.72 0 C3.94 0, 4.16 0.02, 4.37 0.06 C4.58 0.1, 4.8 0.15, 5 0.23 C5.2 0.3, 5.4 0.4, 5.59 0.51 C5.77 0.61, 5.95 0.74, 6.12 0.88 C6.28 1.02, 6.44 1.18, 6.58 1.35 C6.72 1.51, 6.84 1.7, 6.95 1.89 C7.06 2.08, 7.15 2.28, 7.22 2.48 C7.3 2.69, 7.36 2.9, 7.39 3.12 C7.43 3.33, 7.44 3.66, 7.45 3.77 C7.46 3.88, 7.46 3.66, 7.45 3.77" stroke="#fff" stroke-width="1" fill="none"></path></g><g stroke-linecap="round" transform="translate(636.2500217654592 27.12176978266143) rotate(358.1310915065084 3.325364728417526 3.7725718007777687)"><path d="M6.65 3.77 C6.65 3.99, 6.63 4.21, 6.6 4.43 C6.57 4.64, 6.52 4.86, 6.45 5.06 C6.38 5.27, 6.3 5.47, 6.21 5.66 C6.11 5.85, 6 6.03, 5.87 6.2 C5.75 6.36, 5.61 6.52, 5.46 6.66 C5.32 6.8, 5.15 6.93, 4.99 7.04 C4.82 7.15, 4.64 7.24, 4.46 7.32 C4.28 7.39, 4.09 7.45, 3.9 7.49 C3.71 7.53, 3.52 7.55, 3.33 7.55 C3.13 7.55, 2.94 7.53, 2.75 7.49 C2.56 7.45, 2.37 7.39, 2.19 7.32 C2.01 7.24, 1.83 7.15, 1.66 7.04 C1.5 6.93, 1.34 6.8, 1.19 6.66 C1.04 6.52, 0.9 6.36, 0.78 6.2 C0.65 6.03, 0.54 5.85, 0.45 5.66 C0.35 5.47, 0.27 5.27, 0.2 5.06 C0.13 4.86, 0.08 4.64, 0.05 4.43 C0.02 4.21, 0 3.99, 0 3.77 C0 3.55, 0.02 3.33, 0.05 3.12 C0.08 2.9, 0.13 2.69, 0.2 2.48 C0.27 2.28, 0.35 2.08, 0.45 1.89 C0.54 1.7, 0.65 1.51, 0.78 1.35 C0.9 1.18, 1.04 1.02, 1.19 0.88 C1.34 0.74, 1.5 0.61, 1.66 0.51 C1.83 0.4, 2.01 0.3, 2.19 0.23 C2.37 0.15, 2.56 0.1, 2.75 0.06 C2.94 0.02, 3.13 0, 3.33 0 C3.52 0, 3.71 0.02, 3.9 0.06 C4.09 0.1, 4.28 0.15, 4.46 0.23 C4.64 0.3, 4.82 0.4, 4.99 0.51 C5.15 0.61, 5.32 0.74, 5.46 0.88 C5.61 1.02, 5.75 1.18, 5.87 1.35 C6 1.51, 6.11 1.7, 6.21 1.89 C6.3 2.08, 6.38 2.28, 6.45 2.48 C6.52 2.69, 6.57 2.9, 6.6 3.12 C6.63 3.33, 6.64 3.66, 6.65 3.77 C6.66 3.88, 6.66 3.66, 6.65 3.77" stroke="#fff" stroke-width="1" fill="none"></path></g><g stroke-linecap="round" transform="translate(638.7756144022283 59.93199459880998) rotate(358.1310915065084 2.94178474596697 3.7725718007777687)"><path d="M5.88 3.77 C5.88 3.99, 5.87 4.21, 5.84 4.43 C5.81 4.64, 5.76 4.86, 5.71 5.06 C5.65 5.27, 5.57 5.47, 5.49 5.66 C5.4 5.85, 5.3 6.03, 5.2 6.2 C5.09 6.36, 4.96 6.52, 4.83 6.66 C4.7 6.8, 4.56 6.93, 4.41 7.04 C4.27 7.15, 4.11 7.24, 3.95 7.32 C3.79 7.39, 3.62 7.45, 3.45 7.49 C3.28 7.53, 3.11 7.55, 2.94 7.55 C2.77 7.55, 2.6 7.53, 2.43 7.49 C2.26 7.45, 2.1 7.39, 1.94 7.32 C1.78 7.24, 1.62 7.15, 1.47 7.04 C1.32 6.93, 1.18 6.8, 1.05 6.66 C0.92 6.52, 0.8 6.36, 0.69 6.2 C0.58 6.03, 0.48 5.85, 0.39 5.66 C0.31 5.47, 0.24 5.27, 0.18 5.06 C0.12 4.86, 0.07 4.64, 0.04 4.43 C0.02 4.21, 0 3.99, 0 3.77 C0 3.55, 0.02 3.33, 0.04 3.12 C0.07 2.9, 0.12 2.69, 0.18 2.48 C0.24 2.28, 0.31 2.08, 0.39 1.89 C0.48 1.7, 0.58 1.51, 0.69 1.35 C0.8 1.18, 0.92 1.02, 1.05 0.88 C1.18 0.74, 1.32 0.61, 1.47 0.51 C1.62 0.4, 1.78 0.3, 1.94 0.23 C2.1 0.15, 2.26 0.1, 2.43 0.06 C2.6 0.02, 2.77 0, 2.94 0 C3.11 0, 3.28 0.02, 3.45 0.06 C3.62 0.1, 3.79 0.15, 3.95 0.23 C4.11 0.3, 4.27 0.4, 4.41 0.51 C4.56 0.61, 4.7 0.74, 4.83 0.88 C4.96 1.02, 5.09 1.18, 5.2 1.35 C5.3 1.51, 5.4 1.7, 5.49 1.89 C5.57 2.08, 5.65 2.28, 5.71 2.48 C5.76 2.69, 5.81 2.9, 5.84 3.12 C5.87 3.33, 5.88 3.66, 5.88 3.77 C5.89 3.88, 5.89 3.66, 5.88 3.77" stroke="#fff" stroke-width="1" fill="none"></path></g><g stroke-linecap="round" transform="translate(319.0683332633057 236.9382428267745) rotate(0 4.639756944444343 96.76677098469372)"><path d="M2.32 0 L8.7 0.58 L9.28 2.32 L9.28 191.21 L8.7 192.95 L6.96 193.53 L0.58 192.95 L0 191.21 L0 2.32 L0.58 0.58 L2.32 0" stroke="none" stroke-width="0" fill="#b2f2bb"></path><path d="M2.32 0 M2.32 0 C4.15 0, 5.98 0, 6.96 0 M2.32 0 C3.36 0, 4.41 0, 6.96 0 M6.96 0 C8.51 0, 9.28 0.77, 9.28 2.32 M6.96 0 C8.51 0, 9.28 0.77, 9.28 2.32 M9.28 2.32 C9.28 66.52, 9.28 130.71, 9.28 191.21 M9.28 2.32 C9.28 53.12, 9.28 103.92, 9.28 191.21 M9.28 191.21 C9.28 192.76, 8.51 193.53, 6.96 193.53 M9.28 191.21 C9.28 192.76, 8.51 193.53, 6.96 193.53 M6.96 193.53 C5.33 193.53, 3.69 193.53, 2.32 193.53 M6.96 193.53 C5.83 193.53, 4.7 193.53, 2.32 193.53 M2.32 193.53 C0.77 193.53, 0 192.76, 0 191.21 M2.32 193.53 C0.77 193.53, 0 192.76, 0 191.21 M0 191.21 C0 140.33, 0 89.44, 0 2.32 M0 191.21 C0 130.2, 0 69.18, 0 2.32 M0 2.32 C0 0.77, 0.77 0, 2.32 0 M0 2.32 C0 0.77, 0.77 0, 2.32 0" stroke="#2f9e44" stroke-width="1" fill="none"></path></g><g mask="url(#mask-PoSqJkwPur-24jO0vkY38)" stroke-linecap="round"><g transform="translate(333.2862325959172 295.1987497313021) rotate(0 140.17547444325623 -1.0002539816732678)"><path d="M0 0 C46.73 -0.33, 233.63 -1.67, 280.35 -2 M0 0 C46.73 -0.33, 233.63 -1.67, 280.35 -2" stroke="#000000" stroke-width="1" fill="none"></path></g><g transform="translate(333.2862325959172 295.1987497313021) rotate(0 140.17547444325623 -1.0002539816732678)"><path d="M0 0 L13.55 -6.44 L13.64 6.24 L0 0" stroke="none" stroke-width="0" fill="#000000" fill-rule="evenodd"></path><path d="M0 0 C2.74 -1.3, 5.49 -2.61, 13.55 -6.44 M0 0 C5.28 -2.51, 10.56 -5.01, 13.55 -6.44 M13.55 -6.44 C13.58 -1.94, 13.61 2.56, 13.64 6.24 M13.55 -6.44 C13.58 -1.84, 13.61 2.75, 13.64 6.24 M13.64 6.24 C8.18 3.75, 2.73 1.25, 0 0 M13.64 6.24 C8.53 3.9, 3.42 1.57, 0 0 M0 0 C0 0, 0 0, 0 0 M0 0 C0 0, 0 0, 0 0" stroke="#000000" stroke-width="1" fill="none"></path></g></g><mask id="mask-PoSqJkwPur-24jO0vkY38"><rect x="0" y="0" fill="#fff" width="713.6371814824299" height="397.1992576946477"></rect><rect x="409.2137517169076" y="284.1984957496297" fill="#000" width="128.49591064453125" height="20" opacity="1"></rect></mask><g transform="translate(409.2137517169076 284.1984957496297) rotate(0 64.24795532226585 9.99999999999909)"><text x="64.24795532226562" y="0" font-family="Virgil, Segoe UI Emoji" font-size="16px" fill="#000000" text-anchor="middle" style="white-space: pre;" direction="ltr" dominant-baseline="text-before-edge">add Jenkins API</text></g><g transform="translate(284.8349831977407 18.626738188566378) rotate(0 42.58995819091797 25)"><text x="42.58995819091797" y="0" font-family="Virgil, Segoe UI Emoji" font-size="20px" fill="#000000" text-anchor="middle" style="white-space: pre;" direction="ltr" dominant-baseline="text-before-edge">Platform</text><text x="42.58995819091797" y="25" font-family="Virgil, Segoe UI Emoji" font-size="20px" fill="#000000" text-anchor="middle" style="white-space: pre;" direction="ltr" dominant-baseline="text-before-edge">Cluster</text></g><g stroke-linecap="round"><g transform="translate(624.1183590341111 76.75490904247272) rotate(0 0 246.24489816072764)"><path d="M0 0 C0 117.66, 0 235.32, 0 492.49 M0 0 C0 119.84, 0 239.69, 0 492.49" stroke="#000000" stroke-width="1" fill="none"></path></g></g><mask></mask><g mask="url(#mask-ageyu78yHJXvP4s71NNSF)" stroke-linecap="round"><g transform="translate(616.2932307039173 263.7980252528596) rotate(0 -143.34063640800332 0)"><path d="M0 0 C-47.78 0, -238.9 0, -286.68 0 M0 0 C-47.78 0, -238.9 0, -286.68 0" stroke="#000000" stroke-width="1" fill="none"></path></g><g transform="translate(616.2932307039173 263.7980252528596) rotate(0 -143.34063640800332 0)"><path d="M0 0 L-13.59 6.34 L-13.59 -6.34 L0 0" stroke="none" stroke-width="0" fill="#000000" fill-rule="evenodd"></path><path d="M0 0 C-4.11 1.92, -8.22 3.83, -13.59 6.34 M0 0 C-3.92 1.83, -7.83 3.65, -13.59 6.34 M-13.59 6.34 C-13.59 2.51, -13.59 -1.32, -13.59 -6.34 M-13.59 6.34 C-13.59 2.14, -13.59 -2.07, -13.59 -6.34 M-13.59 -6.34 C-9.71 -4.53, -5.83 -2.72, 0 0 M-13.59 -6.34 C-9.5 -4.43, -5.4 -2.52, 0 0 M0 0 C0 0, 0 0, 0 0 M0 0 C0 0, 0 0, 0 0" stroke="#000000" stroke-width="1" fill="none"></path></g></g><mask id="mask-ageyu78yHJXvP4s71NNSF"><rect x="0" y="0" fill="#fff" width="1002.9745035199239" height="363.7980252528596"></rect><rect x="386.79265166896084" y="253.7980252528596" fill="#000" width="172.31988525390625" height="20" opacity="1"></rect></mask><g transform="translate(386.79265166896084 253.7980252528596) rotate(0 86.15994262695312 10)"><text x="86.15994262695312" y="0" font-family="Virgil, Segoe UI Emoji" font-size="16px" fill="#000000" text-anchor="middle" style="white-space: pre;" direction="ltr" dominant-baseline="text-before-edge">install Jenkins Promise</text></g><g stroke-linecap="round" transform="translate(620.3167372739958 254.61422590754955) rotate(0 4.639756944444343 91.34122729265073)"><path d="M2.32 0 L8.7 0.58 L9.28 2.32 L9.28 180.36 L8.7 182.1 L6.96 182.68 L0.58 182.1 L0 180.36 L0 2.32 L0.58 0.58 L2.32 0" stroke="none" stroke-width="0" fill="#b2f2bb"></path><path d="M2.32 0 M2.32 0 C3.94 0, 5.56 0, 6.96 0 M2.32 0 C3.86 0, 5.4 0, 6.96 0 M6.96 0 C8.51 0, 9.28 0.77, 9.28 2.32 M6.96 0 C8.51 0, 9.28 0.77, 9.28 2.32 M9.28 2.32 C9.28 54.25, 9.28 106.18, 9.28 180.36 M9.28 2.32 C9.28 56, 9.28 109.68, 9.28 180.36 M9.28 180.36 C9.28 181.91, 8.51 182.68, 6.96 182.68 M9.28 180.36 C9.28 181.91, 8.51 182.68, 6.96 182.68 M6.96 182.68 C5.53 182.68, 4.09 182.68, 2.32 182.68 M6.96 182.68 C5.37 182.68, 3.77 182.68, 2.32 182.68 M2.32 182.68 C0.77 182.68, 0 181.91, 0 180.36 M2.32 182.68 C0.77 182.68, 0 181.91, 0 180.36 M0 180.36 C0 132.15, 0 83.95, 0 2.32 M0 180.36 C0 113.85, 0 47.34, 0 2.32 M0 2.32 C0 0.77, 0.77 0, 2.32 0 M0 2.32 C0 0.77, 0.77 0, 2.32 0" stroke="#2f9e44" stroke-width="1" fill="none"></path></g><g mask="url(#mask-W1l9obJ8jCmaQLVmhrr9J)" stroke-linecap="round"><g transform="translate(331.6449080707903 357.4867415286317) rotate(0 141.6163987634543 0.15792290340050386)"><path d="M0 0 C47.21 0.05, 236.03 0.26, 283.23 0.32 M0 0 C47.21 0.05, 236.03 0.26, 283.23 0.32" stroke="#228be6" stroke-width="1" fill="none"></path></g><g transform="translate(331.6449080707903 357.4867415286317) rotate(0 141.6163987634543 0.15792290340050386)"><path d="M0 0 L13.6 -6.32 L13.59 6.35 L0 0" stroke="none" stroke-width="0" fill="#228be6" fill-rule="evenodd"></path><path d="M0 0 C5.05 -2.35, 10.11 -4.7, 13.6 -6.32 M0 0 C4.37 -2.03, 8.74 -4.06, 13.6 -6.32 M13.6 -6.32 C13.6 -2.02, 13.59 2.29, 13.59 6.35 M13.6 -6.32 C13.6 -2.32, 13.59 1.69, 13.59 6.35 M13.59 6.35 C8.46 3.95, 3.33 1.56, 0 0 M13.59 6.35 C9.26 4.33, 4.92 2.3, 0 0 M0 0 C0 0, 0 0, 0 0 M0 0 C0 0, 0 0, 0 0" stroke="#228be6" stroke-width="1" fill="none"></path></g></g><mask id="mask-W1l9obJ8jCmaQLVmhrr9J"><rect x="0" y="0" fill="#fff" width="714.8777055976989" height="457.8025873354327"></rect><rect x="424.66934211256466" y="347.6446644320331" fill="#000" width="97.18392944335938" height="20" opacity="1"></rect></mask><g transform="translate(424.66934211256466 347.6446644320331) rotate(0 48.591964721679915 9.99999999999909)"><text x="48.59196472167969" y="0" font-family="Virgil, Segoe UI Emoji" font-size="16px" fill="#228be6" text-anchor="middle" style="white-space: pre;" direction="ltr" dominant-baseline="text-before-edge">get clusters</text></g><g mask="url(#mask-lu4UAM8Ocb_1Pg64ihUmX)" stroke-linecap="round"><g transform="translate(616.9618802860209 393.8388349204033) rotate(0 -143.92200940863336 -1.3898633662201973)"><path d="M0 0 C-47.97 -0.46, -239.87 -2.32, -287.84 -2.78" stroke="#4dabf7" stroke-width="1.5" fill="none" stroke-dasharray="8 9"></path></g><g transform="translate(616.9618802860209 393.8388349204033) rotate(0 -143.92200940863336 -1.3898633662201973)"><path d="M0 0 L-13.66 6.21 L-13.53 -6.47 L0 0" stroke="none" stroke-width="0" fill="#4dabf7" fill-rule="evenodd"></path><path d="M0 0 C-5.39 2.45, -10.79 4.9, -13.66 6.21 M-13.66 6.21 C-13.63 3.59, -13.6 0.97, -13.53 -6.47 M-13.53 -6.47 C-9.98 -4.77, -6.44 -3.08, 0 0 M0 0 C0 0, 0 0, 0 0" stroke="#4dabf7" stroke-width="1.5" fill="none"></path></g></g><mask id="mask-lu4UAM8Ocb_1Pg64ihUmX"><rect x="0" y="0" fill="#fff" width="1004.8058991032877" height="496.6185616528437"></rect><rect x="402.023925442817" y="382.448971554184" fill="#000" width="142.03189086914062" height="20" opacity="1"></rect></mask><g transform="translate(402.023925442817 382.448971554184) rotate(0 71.01594543457054 9.99999999999909)"><text x="71.01594543457031" y="0" font-family="Virgil, Segoe UI Emoji" font-size="16px" fill="#4dabf7" text-anchor="middle" style="white-space: pre;" direction="ltr" dominant-baseline="text-before-edge">[ worker-cluster ]</text></g><g stroke-linecap="round"><g transform="translate(887.9264008009677 76.88957854631371) rotate(0 0 245.42166314446877)"><path d="M0 0 C0 81.81, 0 409.04, 0 490.84 M0 0 C0 81.81, 0 409.04, 0 490.84" stroke="#000000" stroke-width="1" fill="none"></path></g></g><mask></mask><g stroke-linecap="round" transform="translate(860.3136065554554 17.727902896869637) rotate(269.94514152181193 24.939647126504724 27.5)"><path d="M12.47 0 L40.33 0.19 L45.01 1.75 L48.13 4.87 L49.88 12.47 L49.88 42.53 L49.1 47.99 L48.13 50.13 L45.01 53.25 L37.41 55 L9.55 54.81 L4.87 53.25 L1.75 50.13 L0 42.53 L0.19 9.55 L1.75 4.87 L3.12 3.12 L7.01 0.78 L12.47 0" stroke="none" stroke-width="0" fill="#ced4da"></path><path d="M12.47 0 M12.47 0 C17.55 0, 22.64 0, 37.41 0 M12.47 0 C19.78 0, 27.08 0, 37.41 0 M37.41 0 C45.72 0, 49.88 4.16, 49.88 12.47 M37.41 0 C45.72 0, 49.88 4.16, 49.88 12.47 M49.88 12.47 C49.88 24.13, 49.88 35.79, 49.88 42.53 M49.88 12.47 C49.88 24.28, 49.88 36.09, 49.88 42.53 M49.88 42.53 C49.88 50.84, 45.72 55, 37.41 55 M49.88 42.53 C49.88 50.84, 45.72 55, 37.41 55 M37.41 55 C30.97 55, 24.54 55, 12.47 55 M37.41 55 C32.32 55, 27.22 55, 12.47 55 M12.47 55 C4.16 55, 0 50.84, 0 42.53 M12.47 55 C4.16 55, 0 50.84, 0 42.53 M0 42.53 C0 32.85, 0 23.18, 0 12.47 M0 42.53 C0 34.74, 0 26.95, 0 12.47 M0 12.47 C0 4.16, 4.16 0, 12.47 0 M0 12.47 C0 4.16, 4.16 0, 12.47 0" stroke="#343a40" stroke-width="1" fill="none"></path></g><g stroke-linecap="round" transform="translate(875.6388740842767 -5.719051929998386) rotate(269.94514152181193 9.697990733946426 25.417068752512932)"><path d="M19.4 25.42 C19.4 26.89, 19.35 28.38, 19.25 29.83 C19.15 31.28, 19 32.73, 18.81 34.11 C18.62 35.49, 18.38 36.85, 18.1 38.13 C17.82 39.4, 17.49 40.63, 17.13 41.75 C16.77 42.88, 16.36 43.94, 15.93 44.89 C15.5 45.83, 15.03 46.69, 14.55 47.43 C14.06 48.16, 13.54 48.8, 13.01 49.3 C12.49 49.8, 11.93 50.19, 11.38 50.45 C10.83 50.7, 10.26 50.83, 9.7 50.83 C9.14 50.83, 8.57 50.7, 8.01 50.45 C7.46 50.19, 6.91 49.8, 6.38 49.3 C5.85 48.8, 5.34 48.16, 4.85 47.43 C4.36 46.69, 3.89 45.83, 3.46 44.89 C3.03 43.94, 2.63 42.88, 2.27 41.75 C1.91 40.63, 1.58 39.4, 1.3 38.13 C1.02 36.85, 0.78 35.49, 0.58 34.11 C0.39 32.73, 0.24 31.28, 0.15 29.83 C0.05 28.38, 0 26.89, 0 25.42 C0 23.95, 0.05 22.45, 0.15 21 C0.24 19.55, 0.39 18.11, 0.58 16.72 C0.78 15.34, 1.02 13.98, 1.3 12.71 C1.58 11.43, 1.91 10.21, 2.27 9.08 C2.63 7.95, 3.03 6.89, 3.46 5.95 C3.89 5, 4.36 4.14, 4.85 3.41 C5.34 2.67, 5.85 2.04, 6.38 1.53 C6.91 1.03, 7.46 0.64, 8.01 0.39 C8.57 0.13, 9.14 0, 9.7 0 C10.26 0, 10.83 0.13, 11.38 0.39 C11.93 0.64, 12.49 1.03, 13.01 1.53 C13.54 2.04, 14.06 2.67, 14.55 3.41 C15.03 4.14, 15.5 5, 15.93 5.95 C16.36 6.89, 16.77 7.95, 17.13 9.08 C17.49 10.21, 17.82 11.43, 18.1 12.71 C18.38 13.98, 18.62 15.34, 18.81 16.72 C19 18.11, 19.15 19.55, 19.25 21 C19.35 22.45, 19.37 24.68, 19.4 25.42 C19.42 26.15, 19.42 24.68, 19.4 25.42" stroke="none" stroke-width="0" fill="#868e96"></path><path d="M19.4 25.42 C19.4 26.89, 19.35 28.38, 19.25 29.83 C19.15 31.28, 19 32.73, 18.81 34.11 C18.62 35.49, 18.38 36.85, 18.1 38.13 C17.82 39.4, 17.49 40.63, 17.13 41.75 C16.77 42.88, 16.36 43.94, 15.93 44.89 C15.5 45.83, 15.03 46.69, 14.55 47.43 C14.06 48.16, 13.54 48.8, 13.01 49.3 C12.49 49.8, 11.93 50.19, 11.38 50.45 C10.83 50.7, 10.26 50.83, 9.7 50.83 C9.14 50.83, 8.57 50.7, 8.01 50.45 C7.46 50.19, 6.91 49.8, 6.38 49.3 C5.85 48.8, 5.34 48.16, 4.85 47.43 C4.36 46.69, 3.89 45.83, 3.46 44.89 C3.03 43.94, 2.63 42.88, 2.27 41.75 C1.91 40.63, 1.58 39.4, 1.3 38.13 C1.02 36.85, 0.78 35.49, 0.58 34.11 C0.39 32.73, 0.24 31.28, 0.15 29.83 C0.05 28.38, 0 26.89, 0 25.42 C0 23.95, 0.05 22.45, 0.15 21 C0.24 19.55, 0.39 18.11, 0.58 16.72 C0.78 15.34, 1.02 13.98, 1.3 12.71 C1.58 11.43, 1.91 10.21, 2.27 9.08 C2.63 7.95, 3.03 6.89, 3.46 5.95 C3.89 5, 4.36 4.14, 4.85 3.41 C5.34 2.67, 5.85 2.04, 6.38 1.53 C6.91 1.03, 7.46 0.64, 8.01 0.39 C8.57 0.13, 9.14 0, 9.7 0 C10.26 0, 10.83 0.13, 11.38 0.39 C11.93 0.64, 12.49 1.03, 13.01 1.53 C13.54 2.04, 14.06 2.67, 14.55 3.41 C15.03 4.14, 15.5 5, 15.93 5.95 C16.36 6.89, 16.77 7.95, 17.13 9.08 C17.49 10.21, 17.82 11.43, 18.1 12.71 C18.38 13.98, 18.62 15.34, 18.81 16.72 C19 18.11, 19.15 19.55, 19.25 21 C19.35 22.45, 19.37 24.68, 19.4 25.42 C19.42 26.15, 19.42 24.68, 19.4 25.42" stroke="#343a40" stroke-width="1" fill="none"></path></g><g transform="translate(868.466210656441 36.05191537828068) rotate(0 17.37250518798828 14.71864230303072)"><text x="17.37250518798828" y="0" font-family="Virgil, Segoe UI Emoji" font-size="11.774913842424866px" fill="#343a40" text-anchor="middle" style="white-space: pre;" direction="ltr" dominant-baseline="text-before-edge">State</text><text x="17.37250518798828" y="14.718642303031082" font-family="Virgil, Segoe UI Emoji" font-size="11.774913842424866px" fill="#343a40" text-anchor="middle" style="white-space: pre;" direction="ltr" dominant-baseline="text-before-edge">Store</text></g><g mask="url(#mask-8TqFgYWujeuFi56f9SlTl)" stroke-linecap="round"><g transform="translate(883.9976431366767 413.2782711818072) rotate(0 -125.48388699359361 0)"><path d="M0 0 C-41.83 0, -209.14 0, -250.97 0 M0 0 C-41.83 0, -209.14 0, -250.97 0" stroke="#000000" stroke-width="1" fill="none"></path></g><g transform="translate(883.9976431366767 413.2782711818072) rotate(0 -125.48388699359361 0)"><path d="M0 0 L-13.59 6.34 L-13.59 -6.34 L0 0" stroke="none" stroke-width="0" fill="#000000" fill-rule="evenodd"></path><path d="M0 0 C-3.56 1.66, -7.13 3.32, -13.59 6.34 M0 0 C-4.49 2.09, -8.98 4.19, -13.59 6.34 M-13.59 6.34 C-13.59 1.7, -13.59 -2.94, -13.59 -6.34 M-13.59 6.34 C-13.59 3.61, -13.59 0.88, -13.59 -6.34 M-13.59 -6.34 C-8.2 -3.83, -2.81 -1.31, 0 0 M-13.59 -6.34 C-8.87 -4.14, -4.15 -1.93, 0 0 M0 0 C0 0, 0 0, 0 0 M0 0 C0 0, 0 0, 0 0" stroke="#000000" stroke-width="1" fill="none"></path></g></g><mask id="mask-8TqFgYWujeuFi56f9SlTl"><rect x="0" y="0" fill="#fff" width="1234.965417123864" height="513.2782711818072"></rect><rect x="691.3377917876142" y="383.2782711818072" fill="#000" width="134.3519287109375" height="60" opacity="1"></rect></mask><g transform="translate(691.3377917876142 383.2782711818072) rotate(0 67.17596435546898 30)"><text x="67.17596435546875" y="0" font-family="Virgil, Segoe UI Emoji" font-size="16px" fill="#000000" text-anchor="middle" style="white-space: pre;" direction="ltr" dominant-baseline="text-before-edge">schedule Jenkins </text><text x="67.17596435546875" y="20" font-family="Virgil, Segoe UI Emoji" font-size="16px" fill="#000000" text-anchor="middle" style="white-space: pre;" direction="ltr" dominant-baseline="text-before-edge">dependencies to</text><text x="67.17596435546875" y="40" font-family="Virgil, Segoe UI Emoji" font-size="16px" fill="#000000" text-anchor="middle" style="white-space: pre;" direction="ltr" dominant-baseline="text-before-edge">worker-cluster</text></g><g mask="url(#mask-MDqHJ3HFUgwtIF0Rrew6T)" stroke-linecap="round"><g transform="translate(1105.1513509265933 479.5979697588882) rotate(0 -107.44625782034336 0)"><path d="M0 0 C-35.82 0, -179.08 0, -214.89 0 M0 0 C-35.82 0, -179.08 0, -214.89 0" stroke="#000000" stroke-width="1" fill="none"></path></g><g transform="translate(1105.1513509265933 479.5979697588882) rotate(0 -107.44625782034336 0)"><path d="M0 0 L-13.59 6.34 L-13.59 -6.34 L0 0" stroke="none" stroke-width="0" fill="#000000" fill-rule="evenodd"></path><path d="M0 0 C-3.15 1.47, -6.3 2.94, -13.59 6.34 M0 0 C-3.87 1.81, -7.75 3.61, -13.59 6.34 M-13.59 6.34 C-13.59 3.64, -13.59 0.94, -13.59 -6.34 M-13.59 6.34 C-13.59 2.21, -13.59 -1.92, -13.59 -6.34 M-13.59 -6.34 C-8.69 -4.05, -3.79 -1.77, 0 0 M-13.59 -6.34 C-10.58 -4.94, -7.57 -3.53, 0 0 M0 0 C0 0, 0 0, 0 0 M0 0 C0 0, 0 0, 0 0" stroke="#000000" stroke-width="1" fill="none"></path></g></g><mask id="mask-MDqHJ3HFUgwtIF0Rrew6T"><rect x="0" y="0" fill="#fff" width="1420.04386656728" height="579.5979697588882"></rect><rect x="931.4971310701171" y="459.5979697588882" fill="#000" width="132.41592407226562" height="40" opacity="1"></rect></mask><g transform="translate(931.4971310701171 459.5979697588882) rotate(0 66.20796203613281 20)"><text x="66.20796203613281" y="0" font-family="Virgil, Segoe UI Emoji" font-size="16px" fill="#000000" text-anchor="middle" style="white-space: pre;" direction="ltr" dominant-baseline="text-before-edge">install </text><text x="66.20796203613281" y="20" font-family="Virgil, Segoe UI Emoji" font-size="16px" fill="#000000" text-anchor="middle" style="white-space: pre;" direction="ltr" dominant-baseline="text-before-edge">Jenkins Operator</text></g><g stroke-linecap="round"><g transform="translate(1113.2120473341952 79.35540525024408) rotate(0 0 246.21634200643985)"><path d="M0 0 C0 82.07, 0 410.36, 0 492.43 M0 0 C0 82.07, 0 410.36, 0 492.43" stroke="#000000" stroke-width="1" fill="none"></path></g></g><mask></mask><g transform="translate(1081.011019224898 20.625941663151025) rotate(0 35.59996032714844 25)"><text x="35.59996032714844" y="0" font-family="Virgil, Segoe UI Emoji" font-size="20px" fill="#000000" text-anchor="middle" style="white-space: pre;" direction="ltr" dominant-baseline="text-before-edge">Worker</text><text x="35.59996032714844" y="25" font-family="Virgil, Segoe UI Emoji" font-size="20px" fill="#000000" text-anchor="middle" style="white-space: pre;" direction="ltr" dominant-baseline="text-before-edge">Cluster</text></g></svg>
