<svg version="1.1" xmlns="http://www.w3.org/2000/svg" viewBox="0 0 744.5886994434431 574.8949096794231" width="744.5886994434431" height="574.8949096794231">
  <!-- svg-source:excalidraw -->
  
  <defs>
    <style class="style-fonts">
      @font-face {
        font-family: "Virgil";
        src: url("https://excalidraw.com/Virgil.woff2");
      }
      @font-face {
        font-family: "Cascadia";
        src: url("https://excalidraw.com/Cascadia.woff2");
      }
      @font-face {
        font-family: "Assistant";
        src: url("https://app.excalidraw.com//dist/excalidraw-assets/Assistant-Regular.woff2");
      }
    </style>
    
  </defs>
  <rect x="0" y="0" width="744.5886994434431" height="574.8949096794231" fill="#ffffff"></rect><g stroke-linecap="round" transform="translate(75.78162931609222 86.65966076878976) rotate(0 36.83527985521505 55.895490350050295)"><path d="M-0.29 -0.67 L72.68 -1.66 L72.72 109.88 L-0.54 110.33" stroke="none" stroke-width="0" fill="#fff"></path><path d="M0 0 C23.56 -0.19, 45.36 -1.53, 73.67 0 M0 0 C16.07 -1.64, 33.5 -0.83, 73.67 0 M73.67 0 C73.46 34.08, 72.89 66.5, 73.67 111.79 M73.67 0 C74.5 36.71, 74.3 74.68, 73.67 111.79 M73.67 111.79 C47.73 113.25, 25.72 112.83, 0 111.79 M73.67 111.79 C58.45 111.43, 44.11 110.89, 0 111.79 M0 111.79 C-0.96 88.12, -0.29 67.52, 0 0 M0 111.79 C-1.69 69.21, -0.9 29.08, 0 0" stroke="#2f9e44" stroke-width="2" fill="none"></path></g><g stroke-linecap="round"><g transform="translate(86.64992049321154 134.18609345908772) rotate(0 24.2758311306402 -1.5297099068625357)"><path d="M-0.03 0.18 C6.92 0.09, 33.57 0.24, 41.74 -0.25 C49.91 -0.73, 47.93 -2.14, 49.01 -2.72 M-0.7 -0.2 C6.41 -0.27, 34.5 0.8, 42.77 0.24 C51.04 -0.31, 47.99 -2.9, 48.9 -3.53" stroke="#2f9e44" stroke-width="1" fill="none"></path></g></g><mask></mask><g stroke-linecap="round"><g transform="translate(88.58370961916626 101.38881167888394) rotate(0 23.748192061316786 -1.4609838095975647)"><path d="M-0.4 -0.41 C2.61 -0.85, 10.07 -2.34, 18.01 -2.42 C25.94 -2.5, 42.26 -1.21, 47.21 -0.88 M0.4 0.57 C3.38 -0.02, 10.09 -2.94, 17.81 -3.13 C25.53 -3.32, 41.7 -1.08, 46.71 -0.55" stroke="#2f9e44" stroke-width="1" fill="none"></path></g></g><mask></mask><g stroke-linecap="round"><g transform="translate(88.50386747760967 171.6361373223026) rotate(0 25.191440103877994 0.18245246775086343)"><path d="M1 1.09 C5.63 1, 20.47 -1.62, 26.9 -1.43 C33.33 -1.24, 35.69 2.44, 39.59 2.22 C43.49 2.01, 48.4 -2.02, 50.28 -2.69 M0.07 0.62 C5.17 0.71, 22.79 -0.98, 29.28 -0.51 C35.77 -0.04, 35.49 3.68, 39.02 3.44 C42.56 3.21, 48.7 -1.14, 50.48 -1.93" stroke="#2f9e44" stroke-width="1" fill="none"></path></g></g><mask></mask><g stroke-linecap="round"><g transform="translate(85.1850326097665 183.35523281127098) rotate(0 28.355057548939385 -0.8779204682864474)"><path d="M-0.63 -1.17 C1.03 -1.58, 8.08 -1.34, 10.97 -1.4 C13.86 -1.46, 10.42 -1.9, 16.71 -1.52 C23.01 -1.14, 41.92 1.04, 48.73 0.87 C55.55 0.71, 56.14 -2.03, 57.6 -2.5 M1.24 0.84 C2.69 1.12, 7.78 0.26, 10.22 0.03 C12.67 -0.2, 9.39 -0.89, 15.9 -0.55 C22.4 -0.2, 42.47 2.37, 49.25 2.1 C56.03 1.83, 55.52 -1.36, 56.59 -2.17" stroke="#2f9e44" stroke-width="1" fill="none"></path></g></g><mask></mask><g stroke-linecap="round"><g transform="translate(85.48193352855469 117.08696145995964) rotate(0 24.457622742760122 0.6739591473710789)"><path d="M0.17 -0.09 C3.37 -0.15, 10.76 -1.27, 18.92 -0.91 C27.08 -0.55, 44.08 1.6, 49.15 2.07 M-0.4 -0.61 C2.75 -0.56, 10.24 -0.92, 18.46 -0.37 C26.68 0.19, 43.73 2.27, 48.92 2.73" stroke="#2f9e44" stroke-width="1" fill="none"></path></g></g><mask></mask><g stroke-linecap="round"><g transform="translate(85.5939719353155 153.03004528965903) rotate(0 24.457622742760122 0.6739591473710789)"><path d="M-0.05 -0.3 C1.37 -0.02, 5.44 1.66, 8.67 1.6 C11.91 1.53, 12.6 -0.76, 19.37 -0.67 C26.14 -0.57, 44.34 1.68, 49.27 2.17 M-0.73 0.74 C0.62 0.85, 5.03 0.82, 8.36 0.69 C11.69 0.55, 12.36 -0.44, 19.23 -0.09 C26.1 0.26, 44.73 2.32, 49.56 2.77" stroke="#2f9e44" stroke-width="1" fill="none"></path></g></g><mask></mask><g stroke-linecap="round" transform="translate(283.9474412375275 10) rotate(0 225.17129114438058 129.14064921474574)"><path d="M32 0 C164.41 0, 296.82 0, 418.34 0 M32 0 C169.59 0, 307.18 0, 418.34 0 M418.34 0 C439.68 0, 450.34 10.67, 450.34 32 M418.34 0 C439.68 0, 450.34 10.67, 450.34 32 M450.34 32 C450.34 82.47, 450.34 132.93, 450.34 226.28 M450.34 32 C450.34 73.77, 450.34 115.54, 450.34 226.28 M450.34 226.28 C450.34 247.61, 439.68 258.28, 418.34 258.28 M450.34 226.28 C450.34 247.61, 439.68 258.28, 418.34 258.28 M418.34 258.28 C320.76 258.28, 223.18 258.28, 32 258.28 M418.34 258.28 C291.52 258.28, 164.69 258.28, 32 258.28 M32 258.28 C10.67 258.28, 0 247.61, 0 226.28 M32 258.28 C10.67 258.28, 0 247.61, 0 226.28 M0 226.28 C0 155.31, 0 84.33, 0 32 M0 226.28 C0 166.88, 0 107.47, 0 32 M0 32 C0 10.67, 10.67 0, 32 0 M0 32 C0 10.67, 10.67 0, 32 0" stroke="#343a40" stroke-width="2" fill="none"></path></g><g stroke-linecap="round" transform="translate(19.498632735213505 92.64227289982591) rotate(0 19.428080706843048 19.336659332926956)"><path d="M4.7 6.73 C4.7 6.73, 4.7 6.73, 4.7 6.73 M4.7 6.73 C4.7 6.73, 4.7 6.73, 4.7 6.73 M0.5 17.66 C5.91 11.44, 11.31 5.22, 14.93 1.06 M0.5 17.66 C4.34 13.24, 8.19 8.81, 14.93 1.06 M0.89 23.3 C5.36 18.16, 9.83 13.02, 20.58 0.66 M0.89 23.3 C7.44 15.77, 13.98 8.25, 20.58 0.66 M1.94 28.19 C8.64 20.48, 15.34 12.78, 25.56 1.02 M1.94 28.19 C9.64 19.34, 17.33 10.49, 25.56 1.02 M4.31 31.57 C9.41 25.7, 14.52 19.82, 29.24 2.89 M4.31 31.57 C11.27 23.56, 18.24 15.54, 29.24 2.89 M7.33 34.19 C13.8 26.74, 20.28 19.29, 32.91 4.76 M7.33 34.19 C12.63 28.1, 17.93 22, 32.91 4.76 M10.34 36.82 C15.43 30.97, 20.51 25.13, 35.28 8.14 M10.34 36.82 C16.41 29.84, 22.47 22.86, 35.28 8.14 M14.68 37.93 C22.78 28.61, 30.88 19.29, 37.64 11.52 M14.68 37.93 C21.19 30.44, 27.7 22.95, 37.64 11.52 M19.01 39.05 C23.48 33.9, 27.96 28.75, 38.69 16.41 M19.01 39.05 C25.42 31.67, 31.84 24.29, 38.69 16.41 M24.65 38.65 C30.6 31.8, 36.56 24.95, 39.74 21.29 M24.65 38.65 C29.34 33.26, 34.03 27.86, 39.74 21.29" stroke="#12b886" stroke-width="0.5" fill="none"></path><path d="M38.86 19.34 C38.86 20.46, 38.76 21.59, 38.56 22.69 C38.37 23.8, 38.07 24.9, 37.68 25.95 C37.3 27, 36.82 28.04, 36.25 29 C35.69 29.97, 35.03 30.91, 34.31 31.77 C33.59 32.62, 32.78 33.43, 31.92 34.15 C31.05 34.87, 30.12 35.52, 29.14 36.08 C28.17 36.64, 27.13 37.12, 26.07 37.51 C25.02 37.89, 23.91 38.19, 22.8 38.38 C21.69 38.57, 20.55 38.67, 19.43 38.67 C18.3 38.67, 17.16 38.57, 16.05 38.38 C14.95 38.19, 13.84 37.89, 12.78 37.51 C11.73 37.12, 10.69 36.64, 9.71 36.08 C8.74 35.52, 7.8 34.87, 6.94 34.15 C6.08 33.43, 5.27 32.62, 4.55 31.77 C3.82 30.91, 3.17 29.97, 2.6 29 C2.04 28.04, 1.56 27, 1.17 25.95 C0.79 24.9, 0.49 23.8, 0.3 22.69 C0.1 21.59, 0 20.46, 0 19.34 C0 18.22, 0.1 17.08, 0.3 15.98 C0.49 14.88, 0.79 13.77, 1.17 12.72 C1.56 11.67, 2.04 10.64, 2.6 9.67 C3.17 8.7, 3.82 7.76, 4.55 6.91 C5.27 6.05, 6.08 5.24, 6.94 4.52 C7.8 3.8, 8.74 3.15, 9.71 2.59 C10.69 2.03, 11.73 1.55, 12.78 1.17 C13.84 0.78, 14.95 0.49, 16.05 0.29 C17.16 0.1, 18.3 0, 19.43 0 C20.55 0, 21.69 0.1, 22.8 0.29 C23.91 0.49, 25.02 0.78, 26.07 1.17 C27.13 1.55, 28.17 2.03, 29.14 2.59 C30.12 3.15, 31.05 3.8, 31.92 4.52 C32.78 5.24, 33.59 6.05, 34.31 6.91 C35.03 7.76, 35.69 8.7, 36.25 9.67 C36.82 10.64, 37.3 11.67, 37.68 12.72 C38.07 13.77, 38.37 14.88, 38.56 15.98 C38.76 17.08, 38.81 18.78, 38.86 19.34 C38.91 19.9, 38.91 18.78, 38.86 19.34" stroke="#495057" stroke-width="1" fill="none"></path></g><g stroke-linecap="round"><g transform="translate(38.83529206814001 131.31559156567891) rotate(0 0 25.78221244390261)" fill-rule="evenodd"><path d="M-12.59 -0.35 C-12.59 -0.35, -12.59 -0.35, -12.59 -0.35 M-12.59 -0.35 C-12.59 -0.35, -12.59 -0.35, -12.59 -0.35 M-17.44 11.34 C-14.61 8.08, -11.78 4.82, -4.98 -3 M-17.44 11.34 C-13.3 6.57, -9.16 1.8, -4.98 -3 M-22.3 23.02 C-16.34 16.17, -10.39 9.31, -1.3 -1.13 M-22.3 23.02 C-15.46 15.15, -8.62 7.28, -1.3 -1.13 M-23.87 30.92 C-17.83 23.97, -11.78 17.01, 5.65 -3.04 M-23.87 30.92 C-15.62 21.43, -7.38 11.95, 5.65 -3.04 M-25.45 38.83 C-16.31 28.32, -7.17 17.81, 10.64 -2.68 M-25.45 38.83 C-17.97 30.23, -10.5 21.64, 10.64 -2.68 M-26.36 45.98 C-18.34 36.75, -10.31 27.52, 13 0.7 M-26.36 45.98 C-16.79 34.97, -7.21 23.95, 13 0.7 M-25.31 50.87 C-10.96 34.36, 3.4 17.84, 15.36 4.08 M-25.31 50.87 C-13.78 37.6, -2.24 24.33, 15.36 4.08 M-22.95 54.25 C-13.85 43.78, -4.74 33.31, 17.07 8.21 M-22.95 54.25 C-9.9 39.24, 3.14 24.23, 17.07 8.21 M-18.62 55.37 C-3.86 38.39, 10.89 21.41, 18.78 12.35 M-18.62 55.37 C-6.99 41.99, 4.64 28.61, 18.78 12.35 M-14.29 56.48 C-1.63 41.92, 11.03 27.36, 19.83 17.24 M-14.29 56.48 C-5.34 46.19, 3.61 35.9, 19.83 17.24 M-9.3 56.84 C-2.14 48.6, 5.02 40.37, 21.53 21.37 M-9.3 56.84 C0.8 45.22, 10.91 33.59, 21.53 21.37 M-4.97 57.96 C4.12 47.5, 13.2 37.05, 23.24 25.5 M-4.97 57.96 C4.05 47.58, 13.06 37.21, 23.24 25.5 M0.02 58.32 C6.55 50.8, 13.08 43.29, 24.95 29.64 M0.02 58.32 C8.88 48.12, 17.73 37.93, 24.95 29.64 M5.66 57.92 C10.95 51.83, 16.25 45.74, 26 34.52 M5.66 57.92 C13.76 48.6, 21.86 39.29, 26 34.52 M11.96 56.77 C16.82 51.18, 21.68 45.59, 27.05 39.41 M11.96 56.77 C16.46 51.6, 20.95 46.42, 27.05 39.41 M18.26 55.62 C21.78 51.57, 25.3 47.52, 28.1 44.3 M18.26 55.62 C21.52 51.87, 24.78 48.12, 28.1 44.3" stroke="#12b886" stroke-width="0.5" fill="none"></path><path d="M0 0 C2.15 0, 8.59 -8.59, 12.89 0 C17.19 8.59, 32.23 42.97, 25.78 51.56 C19.34 60.16, -19.34 60.16, -25.78 51.56 C-32.23 42.97, -17.19 8.59, -12.89 0 C-8.59 -8.59, -2.15 0, 0 0 M0 0 C2.15 0, 8.59 -8.59, 12.89 0 C17.19 8.59, 32.23 42.97, 25.78 51.56 C19.34 60.16, -19.34 60.16, -25.78 51.56 C-32.23 42.97, -17.19 8.59, -12.89 0 C-8.59 -8.59, -2.15 0, 0 0" stroke="#495057" stroke-width="1" fill="none"></path></g></g><mask></mask><g transform="translate(10 201.65523401388327) rotate(0 50.979949951171875 25)"><text x="50.979949951171875" y="0" font-family="Virgil, Segoe UI Emoji" font-size="20px" fill="#087f5b" text-anchor="middle" style="white-space: pre;" direction="ltr" dominant-baseline="text-before-edge">Application</text><text x="50.979949951171875" y="25" font-family="Virgil, Segoe UI Emoji" font-size="20px" fill="#087f5b" text-anchor="middle" style="white-space: pre;" direction="ltr" dominant-baseline="text-before-edge">Engineer</text></g><g mask="url(#mask-rUF7rqq4ZBw_2Nz_pAlti)" stroke-linecap="round"><g transform="translate(154.76629306109044 140.5157250742859) rotate(0 72.36458081659202 -0.35117645505488326)"><path d="M0 0 C10.15 0.02, 36.79 0.23, 60.92 0.1 C85.04 -0.04, 130.76 -0.65, 144.73 -0.8 M0 0 C10.15 0.02, 36.79 0.23, 60.92 0.1 C85.04 -0.04, 130.76 -0.65, 144.73 -0.8" stroke="#2b8a3e" stroke-width="4" fill="none"></path></g><g transform="translate(154.76629306109044 140.5157250742859) rotate(0 72.36458081659202 -0.35117645505488326)"><path d="M144.73 -0.8 L131.21 5.7 L131.06 -6.98 L144.73 -0.8" stroke="none" stroke-width="0" fill="#2b8a3e" fill-rule="evenodd"></path><path d="M144.73 -0.8 C141.19 0.9, 137.66 2.6, 131.21 5.7 M144.73 -0.8 C141.55 0.73, 138.38 2.26, 131.21 5.7 M131.21 5.7 C131.16 1.07, 131.1 -3.56, 131.06 -6.98 M131.21 5.7 C131.16 1.82, 131.12 -2.05, 131.06 -6.98 M131.06 -6.98 C134.93 -5.23, 138.8 -3.48, 144.73 -0.8 M131.06 -6.98 C135.05 -5.18, 139.03 -3.37, 144.73 -0.8 M144.73 -0.8 C144.73 -0.8, 144.73 -0.8, 144.73 -0.8 M144.73 -0.8 C144.73 -0.8, 144.73 -0.8, 144.73 -0.8" stroke="#2b8a3e" stroke-width="4" fill="none"></path></g></g><mask id="mask-rUF7rqq4ZBw_2Nz_pAlti"><rect x="0" y="0" fill="#fff" width="399.4954546942745" height="241.41107070210728"></rect><rect x="180.64950778809998" y="130.6122214331417" fill="#000" width="70.06394958496094" height="20" opacity="1"></rect></mask><g transform="translate(180.64950778809998 130.6122214331417) rotate(0 46.48136608958248 9.574071274294056)"><text x="35.03197479248047" y="0" font-family="Virgil, Segoe UI Emoji" font-size="16px" fill="#2f9e44" text-anchor="middle" style="white-space: pre;" direction="ltr" dominant-baseline="text-before-edge">easy app</text></g><g transform="translate(309.79179402447426 32.482323579833974) rotate(0 72.35993957519531 10)"><text x="0" y="0" font-family="Virgil, Segoe UI Emoji" font-size="16px" fill="#1e1e1e" text-anchor="start" style="white-space: pre;" direction="ltr" dominant-baseline="text-before-edge">Configure Workflow</text></g><g stroke-linecap="round" transform="translate(313.06719575396073 117.14689885924327) rotate(0 38.93466752114773 59.08119447618674)"><path d="M-0.33 1.74 L79.35 0.31 L75.96 117.54 L0.96 119.94" stroke="none" stroke-width="0" fill="#fff"></path><path d="M0 0 C20.77 -0.32, 40.51 -0.97, 77.87 0 M0 0 C19.66 -0.86, 40.41 0.96, 77.87 0 M77.87 0 C75.12 40.51, 77.26 78.69, 77.87 118.16 M77.87 0 C79.75 40.4, 79.53 80.7, 77.87 118.16 M77.87 118.16 C52.96 120.03, 30.02 117.38, 0 118.16 M77.87 118.16 C49.69 118.94, 22.75 118.49, 0 118.16 M0 118.16 C1.99 81.55, 2 43.91, 0 0 M0 118.16 C0.47 94.39, 0.72 70.11, 0 0" stroke="#1e1e1e" stroke-width="2" fill="none"></path></g><g stroke-linecap="round"><g transform="translate(324.55491364744375 167.38205012010621) rotate(0 25.659406351359394 -1.6168940988527538)"><path d="M-0.18 -1.1 C7.14 -1.11, 35.29 0.11, 43.96 -0.29 C52.63 -0.7, 50.74 -2.81, 51.83 -3.51 M-1.74 0.93 C5.37 1.11, 33.87 1.53, 42.71 1 C51.56 0.47, 50.06 -1.42, 51.33 -2.25" stroke="#1e1e1e" stroke-width="1" fill="none"></path></g></g><mask></mask><g stroke-linecap="round"><g transform="translate(326.5145243718107 206.9665194711706) rotate(0 26.627199485889832 0.19285115243337714)"><path d="M0.51 -0.11 C5.33 -0.26, 21.53 -2.02, 28.3 -1.4 C35.08 -0.77, 36.95 3.94, 41.17 3.62 C45.39 3.3, 51.62 -2.2, 53.64 -3.33 M-0.68 -1.21 C4.57 -1.21, 23.78 -0.95, 30.6 -0.44 C37.42 0.06, 36.34 2.23, 40.26 1.84 C44.17 1.44, 52.16 -1.99, 54.09 -2.83" stroke="#1e1e1e" stroke-width="1" fill="none"></path></g></g><mask></mask><g stroke-linecap="round"><g transform="translate(323.0065360344079 219.35353236492483) rotate(0 29.97112394829992 -0.9279566132545369)"><path d="M-0.79 -1.11 C0.94 -1.13, 7.76 -0.06, 10.92 -0.22 C14.08 -0.38, 11.48 -2.08, 18.15 -2.09 C24.83 -2.1, 43.89 -0.27, 50.98 -0.29 C58.08 -0.31, 59.2 -1.93, 60.72 -2.21 M0.99 0.92 C2.5 0.59, 7.06 -1.4, 9.83 -1.78 C12.6 -2.16, 10.69 -1.73, 17.59 -1.38 C24.49 -1.03, 44.23 0.36, 51.24 0.31 C58.25 0.27, 57.93 -1.15, 59.65 -1.66" stroke="#1e1e1e" stroke-width="1" fill="none"></path></g></g><mask></mask><g stroke-linecap="round"><g transform="translate(322.9669484413307 150.28873475974524) rotate(0 25.8515589833969 0.7123707334076244)"><path d="M-0.28 1.07 C3.26 0.95, 11.76 -1.82, 20.43 -1.81 C29.09 -1.8, 46.38 0.41, 51.72 1.11 M1.78 0.58 C5.26 0.67, 11.48 -1.11, 19.68 -0.88 C27.88 -0.66, 45.39 1.17, 50.96 1.93" stroke="#1e1e1e" stroke-width="1" fill="none"></path></g></g><mask></mask><g stroke-linecap="round"><g transform="translate(323.4387824226287 187.29999297792165) rotate(0 25.8515589833969 0.7123707334076244)"><path d="M0.38 -1.16 C1.92 -1.24, 5.53 0.47, 8.93 0.61 C12.34 0.75, 13.67 -0.67, 20.82 -0.33 C27.97 0, 46.54 2.12, 51.85 2.61 M-0.88 0.84 C0.53 1.41, 4.44 1.59, 7.99 1.64 C11.55 1.7, 13.1 1.37, 20.46 1.15 C27.82 0.93, 46.97 -0.02, 52.18 0.34" stroke="#1e1e1e" stroke-width="1" fill="none"></path></g></g><mask></mask><g transform="translate(325.2796709169752 127.90786503714389) rotate(0 23.875293811182928 5.625665198678689)"><text x="0" y="0" font-family="Virgil, Segoe UI Emoji" font-size="9.00106431788581px" fill="#1e1e1e" text-anchor="start" style="white-space: pre;" direction="ltr" dominant-baseline="text-before-edge">object.yaml</text></g><g transform="translate(327.9475149255386 90.02042655331024) rotate(0 23.68013829720212 7.678928659691337)"><text x="0" y="0" font-family="Virgil, Segoe UI Emoji" font-size="12.286285855506387px" fill="#1e1e1e" text-anchor="start" style="white-space: pre;" direction="ltr" dominant-baseline="text-before-edge">/inputs/</text></g><g stroke-linecap="round" transform="translate(609.4889948763603 109.92076896981598) rotate(0 38.43951967576231 58.32983513475256)"><path d="M-1.4 1.15 L76.53 0.48 L77.87 116.16 L0.53 115.29" stroke="none" stroke-width="0" fill="#fff"></path><path d="M0 0 C26.11 1.54, 51.8 -0.71, 76.88 0 M0 0 C17.13 -0.5, 35.61 -0.94, 76.88 0 M76.88 0 C78.88 43.85, 77.68 84.59, 76.88 116.66 M76.88 0 C76.38 32.58, 76.57 65.28, 76.88 116.66 M76.88 116.66 C51.25 117.41, 22.33 117.01, 0 116.66 M76.88 116.66 C47.45 116.19, 18.96 116.02, 0 116.66 M0 116.66 C0.45 78.28, -1.13 36.37, 0 0 M0 116.66 C0.01 72.85, 0.26 30.8, 0 0" stroke="#1e1e1e" stroke-width="2" fill="none"></path></g><g stroke-linecap="round"><g transform="translate(620.744144569021 159.34262011457213) rotate(0 25.333085348057466 -1.5963314054943112)"><path d="M0.63 -0.75 C7.96 -0.83, 34.77 -0.31, 43.25 -0.72 C51.73 -1.12, 50.31 -2.65, 51.5 -3.17 M-0.51 1.47 C7.29 1.54, 36.96 0.89, 45.58 0.35 C54.19 -0.18, 50.36 -1.2, 51.18 -1.75" stroke="#1e1e1e" stroke-width="1" fill="none"></path></g></g><mask></mask><g stroke-linecap="round"><g transform="translate(619.1763741558871 142.46668732892067) rotate(0 25.522794297695327 0.7033112279277702)"><path d="M-0.3 -0.45 C3.04 -0.75, 12.14 -2.14, 20.82 -1.62 C29.5 -1.09, 46.68 1.95, 51.76 2.7 M1.75 -1.73 C4.94 -1.93, 12.14 -1, 20.41 -0.59 C28.68 -0.19, 46.16 0.47, 51.38 0.7" stroke="#1e1e1e" stroke-width="1" fill="none"></path></g></g><mask></mask><g transform="translate(585.8402797299905 86.28520358177138) rotate(0 62.8768016448721 7.678921777577216)"><text x="0" y="0" font-family="Virgil, Segoe UI Emoji" font-size="12.286274844123572px" fill="#1e1e1e" text-anchor="start" style="white-space: pre;" direction="ltr" dominant-baseline="text-before-edge">/outputs/metadata/</text></g><g transform="translate(622.6960181418663 120.60478034612879) rotate(0 26.43768582240864 5.744447186961224)"><text x="0" y="0" font-family="Virgil, Segoe UI Emoji" font-size="9.191115499137865px" fill="#1e1e1e" text-anchor="start" style="white-space: pre;" direction="ltr" dominant-baseline="text-before-edge">status.yaml</text></g><g stroke-linecap="round" transform="translate(438.686289890471 134.76596461999634) rotate(0 62.06930845569559 36.91540658157419)"><path d="M18.46 0 C43.86 1.47, 66.62 1.46, 105.68 0 M105.68 0 C119.09 0.08, 123.61 5.42, 124.14 18.46 M124.14 18.46 C122.34 24.61, 125.02 35.46, 124.14 55.37 M124.14 55.37 C124.31 67.29, 119.77 74.82, 105.68 73.83 M105.68 73.83 C80.7 72.85, 60.77 74.97, 18.46 73.83 M18.46 73.83 C4.45 74.89, 1.73 66.76, 0 55.37 M0 55.37 C0.58 46.79, 1.42 37.4, 0 18.46 M0 18.46 C-1.85 6.31, 7.9 -1.73, 18.46 0" stroke="#1e1e1e" stroke-width="2.5" fill="none" stroke-dasharray="8 10"></path></g><g transform="translate(447.2327101625733 142.14904593631127) rotate(0 53.52288818359375 29.53232526525926)"><text x="53.52288818359375" y="0" font-family="Virgil, Segoe UI Emoji" font-size="23.625860212207467px" fill="#1e1e1e" text-anchor="middle" style="white-space: pre;" direction="ltr" dominant-baseline="text-before-edge">resource-</text><text x="53.52288818359375" y="29.532325265259335" font-family="Virgil, Segoe UI Emoji" font-size="23.625860212207467px" fill="#1e1e1e" text-anchor="middle" style="white-space: pre;" direction="ltr" dominant-baseline="text-before-edge">configure</text></g><g stroke-linecap="round"><g transform="translate(401.8278910721119 173.03953421802908) rotate(0 11.752352841464017 0.5194729814679704)"><path d="M0 0 C3.92 0.17, 19.59 0.87, 23.5 1.04 M0 0 C3.92 0.17, 19.59 0.87, 23.5 1.04" stroke="#1e1e1e" stroke-width="2" fill="none"></path></g><g transform="translate(401.8278910721119 173.03953421802908) rotate(0 11.752352841464017 0.5194729814679704)"><path d="M12.28 4.57 C14.95 3.73, 17.62 2.89, 23.5 1.04 M12.28 4.57 C15.36 3.6, 18.45 2.63, 23.5 1.04" stroke="#1e1e1e" stroke-width="2" fill="none"></path></g><g transform="translate(401.8278910721119 173.03953421802908) rotate(0 11.752352841464017 0.5194729814679704)"><path d="M12.64 -3.47 C15.22 -2.4, 17.8 -1.33, 23.5 1.04 M12.64 -3.47 C15.62 -2.23, 18.61 -0.99, 23.5 1.04" stroke="#1e1e1e" stroke-width="2" fill="none"></path></g></g><mask></mask><g stroke-linecap="round"><g transform="translate(576.5059002394491 171.65313572987998) rotate(0 11.071990657298556 0.34841185820596365)"><path d="M0 0 C3.69 0.12, 18.45 0.58, 22.14 0.7 M0 0 C3.69 0.12, 18.45 0.58, 22.14 0.7" stroke="#1e1e1e" stroke-width="2" fill="none"></path></g><g transform="translate(576.5059002394491 171.65313572987998) rotate(0 11.071990657298556 0.34841185820596365)"><path d="M11.62 4.16 C14.98 3.05, 18.34 1.95, 22.14 0.7 M11.62 4.16 C14.31 3.27, 17.01 2.39, 22.14 0.7" stroke="#1e1e1e" stroke-width="2" fill="none"></path></g><g transform="translate(576.5059002394491 171.65313572987998) rotate(0 11.071990657298556 0.34841185820596365)"><path d="M11.86 -3.42 C15.14 -2.1, 18.42 -0.79, 22.14 0.7 M11.86 -3.42 C14.49 -2.36, 17.12 -1.31, 22.14 0.7" stroke="#1e1e1e" stroke-width="2" fill="none"></path></g></g><mask></mask><g stroke-linecap="round" transform="translate(75.78162932429677 384.18802596754995) rotate(0 37.79473924113154 57.35141665378842)"><path d="M0.88 -0.59 L76.83 0.56 L75.78 115.92 L-0.09 113.98" stroke="none" stroke-width="0" fill="#fff"></path><path d="M0 0 C22.21 -1.93, 47.42 -2.07, 75.59 0 M0 0 C21.21 -0.63, 41.31 1.31, 75.59 0 M75.59 0 C74.52 28.2, 74.51 58.81, 75.59 114.7 M75.59 0 C77.17 41.63, 76.76 82.75, 75.59 114.7 M75.59 114.7 C51.79 115.53, 23.67 115.31, 0 114.7 M75.59 114.7 C61.22 113.65, 44.04 113.6, 0 114.7 M0 114.7 C-1.76 73.37, -2.11 30.66, 0 0 M0 114.7 C0.86 79.37, 0.11 45.16, 0 0" stroke="#2f9e44" stroke-width="2" fill="none"></path></g><g stroke-linecap="round"><g transform="translate(86.93301008346316 432.9523936512305) rotate(0 24.908150855663735 -1.569554711452838)"><path d="M-0.41 0 C6.67 0.08, 34.43 0.63, 42.79 0.03 C51.15 -0.57, 48.54 -2.93, 49.75 -3.57 M0.38 -0.47 C7.6 -0.28, 35.63 1.1, 43.79 0.66 C51.95 0.22, 48.28 -2.4, 49.36 -3.11" stroke="#2f9e44" stroke-width="1" fill="none"></path></g></g><mask></mask><g stroke-linecap="round"><g transform="translate(88.91716918446764 399.3008314105482) rotate(0 24.366768216061246 -1.4990384852862917)"><path d="M-0.45 -0.14 C2.61 -0.68, 9.7 -3.14, 17.93 -3.26 C26.17 -3.39, 43.86 -1.47, 48.97 -0.9 M0.32 -0.68 C3.34 -1.16, 9.39 -2.72, 17.46 -2.7 C25.53 -2.69, 43.54 -0.91, 48.74 -0.58" stroke="#2f9e44" stroke-width="1" fill="none"></path></g></g><mask></mask><g stroke-linecap="round"><g transform="translate(85.73460021825304 415.40787552358415) rotate(0 25.094677647459775 0.691513959828626)"><path d="M-0.32 1.13 C2.76 1.31, 10.79 -0.12, 19.01 -0.13 C27.23 -0.14, 44 0.89, 49 1.09 M1.71 0.68 C4.55 0.6, 9.56 -2.2, 17.82 -1.99 C26.08 -1.78, 46.13 1.31, 51.27 1.92" stroke="#2f9e44" stroke-width="1" fill="none"></path></g></g><mask></mask><g stroke-linecap="round"><g transform="translate(85.84955692239964 452.28717944648633) rotate(0 25.094677647459775 0.691513959828626)"><path d="M-0.45 0.5 C0.85 0.41, 4.34 0.95, 7.47 0.6 C10.6 0.26, 11.34 -1.93, 18.31 -1.56 C25.29 -1.2, 43.85 2.3, 49.34 2.79 M1.51 -0.28 C3.19 0.26, 6.37 1.73, 9.56 1.65 C12.74 1.58, 14.01 -0.57, 20.61 -0.74 C27.2 -0.9, 44.19 0.28, 49.14 0.64" stroke="#2f9e44" stroke-width="1" fill="none"></path></g></g><mask></mask><g stroke-linecap="round" transform="translate(280.2500636752511 305.51148482497683) rotate(0 227.16931788409602 129.69171242722314)"><path d="M32 0 C130.63 0, 229.25 0, 422.34 0 M32 0 C152.44 0, 272.89 0, 422.34 0 M422.34 0 C443.67 0, 454.34 10.67, 454.34 32 M422.34 0 C443.67 0, 454.34 10.67, 454.34 32 M454.34 32 C454.34 80.92, 454.34 129.84, 454.34 227.38 M454.34 32 C454.34 72.67, 454.34 113.34, 454.34 227.38 M454.34 227.38 C454.34 248.72, 443.67 259.38, 422.34 259.38 M454.34 227.38 C454.34 248.72, 443.67 259.38, 422.34 259.38 M422.34 259.38 C332.56 259.38, 242.78 259.38, 32 259.38 M422.34 259.38 C295.29 259.38, 168.24 259.38, 32 259.38 M32 259.38 C10.67 259.38, 0 248.72, 0 227.38 M32 259.38 C10.67 259.38, 0 248.72, 0 227.38 M0 227.38 C0 150.93, 0 74.47, 0 32 M0 227.38 C0 154.3, 0 81.21, 0 32 M0 32 C0 10.67, 10.67 0, 32 0 M0 32 C0 10.67, 10.67 0, 32 0" stroke="#343a40" stroke-width="2" fill="none"></path></g><g transform="translate(312.8897358307713 321.81040585499886) rotate(0 72.35993957519531 10)"><text x="0" y="0" font-family="Virgil, Segoe UI Emoji" font-size="16px" fill="#1e1e1e" text-anchor="start" style="white-space: pre;" direction="ltr" dominant-baseline="text-before-edge">Configure Workflow</text></g><g stroke-linecap="round" transform="translate(312.3043143170189 392.67982361139) rotate(0 38.723565823964236 58.76085938102324)"><path d="M0.37 0.41 L78.57 -1.19 L76.13 118.75 L1.83 117.34" stroke="none" stroke-width="0" fill="#fff"></path><path d="M0 0 C26.3 1.47, 52.44 -0.24, 77.45 0 M0 0 C20.63 -0.26, 40.56 -0.46, 77.45 0 M77.45 0 C76.56 32.98, 78.8 66.51, 77.45 117.52 M77.45 0 C78.46 36.3, 78.49 74.9, 77.45 117.52 M77.45 117.52 C49.4 118.67, 26.33 117.39, 0 117.52 M77.45 117.52 C59.79 116.93, 40 116.65, 0 117.52 M0 117.52 C0.25 78.95, -0.47 38.14, 0 0 M0 117.52 C0.25 87.22, 0.91 55.19, 0 0" stroke="#1e1e1e" stroke-width="2" fill="none"></path></g><g stroke-linecap="round"><g transform="translate(323.72974641487326 442.6426025530682) rotate(0 25.52028241440621 -1.608127385017724)"><path d="M0.78 0.11 C8.17 0.04, 35.54 0.25, 44.05 -0.29 C52.56 -0.84, 50.58 -2.63, 51.83 -3.17 M-0.27 -0.88 C6.96 -0.79, 34.35 1.14, 42.98 1 C51.6 0.86, 49.97 -1.16, 51.47 -1.74" stroke="#1e1e1e" stroke-width="1" fill="none"></path></g></g><mask></mask><g stroke-linecap="round"><g transform="translate(322.1503910716774 425.6419662397575) rotate(0 25.711393205089735 0.7085082971671)"><path d="M0.48 -0.15 C3.69 -0.35, 11.58 -1.56, 20.05 -1.03 C28.52 -0.5, 46.24 2.71, 51.29 3.04 M-0.73 -1.27 C2.26 -1.33, 10.64 -0.1, 19.17 0.31 C27.7 0.72, 45.31 1.02, 50.46 1.22" stroke="#1e1e1e" stroke-width="1" fill="none"></path></g></g><mask></mask><g stroke-linecap="round"><g transform="translate(322.61966679421676 462.4525513837252) rotate(0 25.711393205089735 0.7085082971671)"><path d="M0.12 -0.38 C1.49 0.07, 5.61 2.77, 8.74 2.54 C11.87 2.32, 11.87 -1.71, 18.88 -1.75 C25.9 -1.8, 45.55 1.63, 50.83 2.3 M-1.28 -1.63 C-0.11 -1.48, 3.97 0.84, 7.72 0.94 C11.47 1.04, 14.05 -1.45, 21.22 -1.02 C28.39 -0.59, 45.58 2.9, 50.76 3.53" stroke="#1e1e1e" stroke-width="1" fill="none"></path></g></g><mask></mask><g transform="translate(324.45057408902267 403.38244440282597) rotate(0 23.74584323756335 5.595163141082139)"><text x="0" y="0" font-family="Virgil, Segoe UI Emoji" font-size="8.95226102573152px" fill="#1e1e1e" text-anchor="start" style="white-space: pre;" direction="ltr" dominant-baseline="text-before-edge">object.yaml</text></g><g transform="translate(327.1039531892184 365.7004295960169) rotate(0 23.55174584640281 7.637293916779527)"><text x="0" y="0" font-family="Virgil, Segoe UI Emoji" font-size="12.219670266846954px" fill="#1e1e1e" text-anchor="start" style="white-space: pre;" direction="ltr" dominant-baseline="text-before-edge">/inputs/</text></g><g stroke-linecap="round" transform="translate(607.5095453836884 385.55463286818303) rotate(0 38.231102643870145 58.013573869988704)"><path d="M1.11 0.54 L76.45 1.2 L77.84 116.41 L-1.75 114.86" stroke="none" stroke-width="0" fill="#fff"></path><path d="M0 0 C16.61 -1.06, 32.76 1.14, 76.46 0 M0 0 C28.16 1.17, 55.51 -0.02, 76.46 0 M76.46 0 C76.45 36.01, 74.08 73.03, 76.46 116.03 M76.46 0 C76.6 34.14, 77.67 70.89, 76.46 116.03 M76.46 116.03 C48.86 116.27, 19.49 115.96, 0 116.03 M76.46 116.03 C53.86 115.87, 30.17 116.67, 0 116.03 M0 116.03 C1.92 76.53, 0.51 34.65, 0 0 M0 116.03 C0.72 79.5, -0.01 41.54, 0 0" stroke="#1e1e1e" stroke-width="2" fill="none"></path></g><g stroke-linecap="round"><g transform="translate(618.7896756606724 434.88201503065557) rotate(0 25.195730706233917 -1.5876761814888596)"><path d="M-0.86 0.2 C6.6 0.31, 35.54 1.67, 44.19 0.9 C52.85 0.12, 49.92 -3.83, 51.07 -4.45 M0.89 -0.74 C8.29 -0.99, 35.19 -0.35, 43.48 -0.84 C51.78 -1.34, 49.29 -3.01, 50.66 -3.71" stroke="#1e1e1e" stroke-width="1" fill="none"></path></g></g><mask></mask><g stroke-linecap="round"><g transform="translate(617.2304056153616 418.09758265529035) rotate(0 25.384411064033884 0.6994979118439915)"><path d="M0.71 0.56 C3.95 0.49, 11.76 -1.55, 20.13 -1.5 C28.5 -1.45, 45.7 0.17, 50.92 0.88 M-0.38 -0.19 C2.69 -0.03, 10.98 -0.71, 19.41 -0.42 C27.85 -0.12, 44.8 1.43, 50.23 1.58" stroke="#1e1e1e" stroke-width="1" fill="none"></path></g></g><mask></mask><g stroke-linecap="round"><g transform="translate(617.6937133695674 454.44003276480544) rotate(0 25.384411064033884 0.6994979118439915)"><path d="M0.45 -0.86 C1.81 -0.89, 5.59 0.23, 8.9 0.38 C12.22 0.53, 13.36 -0.12, 20.32 0.03 C27.27 0.18, 45.5 0.95, 50.63 1.29 M-0.78 1.3 C0.38 1.32, 4.59 1.85, 8.03 1.31 C11.48 0.77, 12.75 -2.08, 19.88 -1.97 C27.01 -1.85, 45.82 1.26, 50.81 1.99" stroke="#1e1e1e" stroke-width="1" fill="none"></path></g></g><mask></mask><g transform="translate(583.5984371347904 361.98545880483016) rotate(0 62.535886969448256 7.637287071979699)"><text x="0" y="0" font-family="Virgil, Segoe UI Emoji" font-size="12.21965931516727px" fill="#1e1e1e" text-anchor="start" style="white-space: pre;" direction="ltr" dominant-baseline="text-before-edge">/outputs/metadata/</text></g><g transform="translate(620.2543456925805 396.11895664870826) rotate(0 26.29434209554438 5.713301099739965)"><text x="0" y="0" font-family="Virgil, Segoe UI Emoji" font-size="9.141281759583652px" fill="#1e1e1e" text-anchor="start" style="white-space: pre;" direction="ltr" dominant-baseline="text-before-edge">status.yaml</text></g><g stroke-linecap="round" transform="translate(437.2423084041575 410.20335973437886) rotate(0 61.73277196541039 36.71525320984301)"><path d="M18.36 0 C47.71 0.66, 79.6 1.53, 105.11 0 M105.11 0 C116.14 -1.4, 121.7 6.86, 123.47 18.36 M123.47 18.36 C124.76 32.96, 123.56 45.79, 123.47 55.07 M123.47 55.07 C123 67.39, 117.29 74.57, 105.11 73.43 M105.11 73.43 C73.98 74.72, 40.85 72.27, 18.36 73.43 M18.36 73.43 C7.35 75.26, -0.18 68.58, 0 55.07 M0 55.07 C1.39 44.76, -0.07 31.61, 0 18.36 M0 18.36 C1.11 6.65, 6.1 1.2, 18.36 0" stroke="#1e1e1e" stroke-width="2.5" fill="none" stroke-dasharray="8 10"></path></g><g transform="translate(445.74675547943116 417.546410376347) rotate(0 53.22832489013717 29.37220256787441)"><text x="53.22832489013672" y="0" font-family="Virgil, Segoe UI Emoji" font-size="23.49776205429945px" fill="#1e1e1e" text-anchor="middle" style="white-space: pre;" direction="ltr" dominant-baseline="text-before-edge">resource-</text><text x="53.22832489013672" y="29.37220256787431" font-family="Virgil, Segoe UI Emoji" font-size="23.49776205429945px" fill="#1e1e1e" text-anchor="middle" style="white-space: pre;" direction="ltr" dominant-baseline="text-before-edge">configure</text></g><g stroke-linecap="round"><g transform="translate(400.5837538644664 448.2694120730157) rotate(0 11.688632209218213 0.5166564265819034)"><path d="M0 0 C3.9 0.17, 19.48 0.86, 23.38 1.03 M0 0 C3.9 0.17, 19.48 0.86, 23.38 1.03" stroke="#1e1e1e" stroke-width="2" fill="none"></path></g><g transform="translate(400.5837538644664 448.2694120730157) rotate(0 11.688632209218213 0.5166564265819034)"><path d="M12.22 4.55 C15.88 3.39, 19.54 2.24, 23.38 1.03 M12.22 4.55 C16.5 3.2, 20.78 1.85, 23.38 1.03" stroke="#1e1e1e" stroke-width="2" fill="none"></path></g><g transform="translate(400.5837538644664 448.2694120730157) rotate(0 11.688632209218213 0.5166564265819034)"><path d="M12.57 -3.45 C16.12 -1.98, 19.66 -0.51, 23.38 1.03 M12.57 -3.45 C16.72 -1.73, 20.86 -0.01, 23.38 1.03" stroke="#1e1e1e" stroke-width="2" fill="none"></path></g></g><mask></mask><g stroke-linecap="round"><g transform="translate(574.31466815355 446.89347756489315) rotate(0 11.207266501977756 0.360358735405498)"><path d="M0 0 C3.74 0.12, 18.68 0.6, 22.41 0.72 M0 0 C3.74 0.12, 18.68 0.6, 22.41 0.72" stroke="#1e1e1e" stroke-width="2" fill="none"></path></g><g transform="translate(574.31466815355 446.89347756489315) rotate(0 11.207266501977756 0.360358735405498)"><path d="M11.76 4.22 C15.72 2.92, 19.68 1.62, 22.41 0.72 M11.76 4.22 C15.61 2.95, 19.47 1.69, 22.41 0.72" stroke="#1e1e1e" stroke-width="2" fill="none"></path></g><g transform="translate(574.31466815355 446.89347756489315) rotate(0 11.207266501977756 0.360358735405498)"><path d="M12.01 -3.45 C15.88 -1.9, 19.75 -0.35, 22.41 0.72 M12.01 -3.45 C15.77 -1.94, 19.54 -0.43, 22.41 0.72" stroke="#1e1e1e" stroke-width="2" fill="none"></path></g></g><mask></mask><g transform="translate(616.8794813203867 193.89773724154657) rotate(0 32.538160747032634 8.618276008836801)"><text x="0" y="0" font-family="Virgil, Segoe UI Emoji" font-size="6.8946208070696064px" fill="#1e1e1e" text-anchor="start" style="white-space: pre;" direction="ltr" dominant-baseline="text-before-edge">createdAt: Thurs...</text><text x="0" y="8.618276008837007" font-family="Virgil, Segoe UI Emoji" font-size="6.8946208070696064px" fill="#1e1e1e" text-anchor="start" style="white-space: pre;" direction="ltr" dominant-baseline="text-before-edge">message: my-app...</text></g><g stroke-linecap="round"><g transform="translate(621.4022596337354 178.9979572618713) rotate(0 25.8515589833969 0.7123707334076244)"><path d="M0.52 -0.31 C2 -0.29, 4.48 0.7, 7.8 0.65 C11.11 0.6, 13.08 -0.87, 20.4 -0.61 C27.72 -0.34, 46.68 1.89, 51.71 2.24 M-0.66 -1.52 C1.26 -1.42, 6.51 1.33, 9.92 1.7 C13.33 2.08, 12.81 0.44, 19.81 0.73 C26.82 1.02, 46.57 3.29, 51.97 3.43" stroke="#1e1e1e" stroke-width="1" fill="none"></path></g></g><mask></mask><g transform="translate(320.1352040567608 479.4550603403268) rotate(0 33.70969606056087 10.819702870627225)"><text x="0" y="0" font-family="Virgil, Segoe UI Emoji" font-size="5.770508197667791px" fill="#1e1e1e" text-anchor="start" style="white-space: pre;" direction="ltr" dominant-baseline="text-before-edge">status:</text><text x="0" y="7.213135247084739" font-family="Virgil, Segoe UI Emoji" font-size="5.770508197667791px" fill="#1e1e1e" text-anchor="start" style="white-space: pre;" direction="ltr" dominant-baseline="text-before-edge">  createdAt: Thurs...</text><text x="0" y="14.426270494169477" font-family="Virgil, Segoe UI Emoji" font-size="5.770508197667791px" fill="#1e1e1e" text-anchor="start" style="white-space: pre;" direction="ltr" dominant-baseline="text-before-edge">  message: my-app...    </text></g><g stroke-linecap="round"><g transform="translate(646.0928158731758 232.85089229395908) rotate(0 -264.0284975031518 72.01922974003264)"><path d="M0 0 C-9.94 7.45, 17.92 35.88, -59.66 44.71 C-137.23 53.55, -387.38 36.44, -465.45 53 C-543.51 69.55, -517.62 128.87, -528.06 144.04 M0 0 C-9.94 7.45, 17.92 35.88, -59.66 44.71 C-137.23 53.55, -387.38 36.44, -465.45 53 C-543.51 69.55, -517.62 128.87, -528.06 144.04" stroke="#2f9e44" stroke-width="2" fill="none"></path></g><g transform="translate(646.0928158731758 232.85089229395908) rotate(0 -264.0284975031518 72.01922974003264)"><path d="M-533.14 119.56 C-531.9 125.54, -530.66 131.52, -528.06 144.04 M-533.14 119.56 C-531.73 126.37, -530.31 133.18, -528.06 144.04" stroke="#2f9e44" stroke-width="2" fill="none"></path></g><g transform="translate(646.0928158731758 232.85089229395908) rotate(0 -264.0284975031518 72.01922974003264)"><path d="M-516.22 122.02 C-519.11 127.4, -522.01 132.78, -528.06 144.04 M-516.22 122.02 C-519.51 128.14, -522.81 134.27, -528.06 144.04" stroke="#2f9e44" stroke-width="2" fill="none"></path></g></g><mask></mask><g mask="url(#mask-Oojw-BXef41BcaEFy2WIT)" stroke-linecap="round"><g transform="translate(158.4148900681903 440.54494613841416) rotate(0 73.5191089580685 1.1408713075184096)"><path d="M0 0 C10.15 0.2, 36.41 0.81, 60.92 1.19 C85.42 1.57, 132.68 2.1, 147.04 2.28 M0 0 C10.15 0.2, 36.41 0.81, 60.92 1.19 C85.42 1.57, 132.68 2.1, 147.04 2.28" stroke="#2b8a3e" stroke-width="4" fill="none"></path></g><g transform="translate(158.4148900681903 440.54494613841416) rotate(0 73.5191089580685 1.1408713075184096)"><path d="M147.04 2.28 L133.37 8.46 L133.52 -4.22 L147.04 2.28" stroke="none" stroke-width="0" fill="#2b8a3e" fill-rule="evenodd"></path><path d="M147.04 2.28 C142.18 4.48, 137.31 6.67, 133.37 8.46 M147.04 2.28 C143.05 4.09, 139.05 5.89, 133.37 8.46 M133.37 8.46 C133.42 4.49, 133.46 0.52, 133.52 -4.22 M133.37 8.46 C133.43 3.69, 133.48 -1.08, 133.52 -4.22 M133.52 -4.22 C137.5 -2.31, 141.49 -0.39, 147.04 2.28 M133.52 -4.22 C136.94 -2.57, 140.37 -0.93, 147.04 2.28 M147.04 2.28 C147.04 2.28, 147.04 2.28, 147.04 2.28 M147.04 2.28 C147.04 2.28, 147.04 2.28, 147.04 2.28" stroke="#2b8a3e" stroke-width="4" fill="none"></path></g></g><mask id="mask-Oojw-BXef41BcaEFy2WIT"><rect x="0" y="0" fill="#fff" width="405.4531079843273" height="542.826688753451"></rect><rect x="184.29810479519983" y="431.7325799344371" fill="#000" width="70.06394958496094" height="20" opacity="1"></rect></mask><g transform="translate(184.29810479519983 431.7325799344362) rotate(0 47.635894231058955 9.953237511496354)"><text x="35.03197479248047" y="0" font-family="Virgil, Segoe UI Emoji" font-size="16px" fill="#2f9e44" text-anchor="middle" style="white-space: pre;" direction="ltr" dominant-baseline="text-before-edge">easy app</text></g><g transform="translate(81.2592046120717 467.93065693419067) rotate(0 33.70969606056087 10.819702870627225)"><text x="0" y="0" font-family="Virgil, Segoe UI Emoji" font-size="5.770508197667791px" fill="#2f9e44" text-anchor="start" style="white-space: pre;" direction="ltr" dominant-baseline="text-before-edge">status:</text><text x="0" y="7.213135247084739" font-family="Virgil, Segoe UI Emoji" font-size="5.770508197667791px" fill="#2f9e44" text-anchor="start" style="white-space: pre;" direction="ltr" dominant-baseline="text-before-edge">  createdAt: Thurs...</text><text x="0" y="14.426270494169477" font-family="Virgil, Segoe UI Emoji" font-size="5.770508197667791px" fill="#2f9e44" text-anchor="start" style="white-space: pre;" direction="ltr" dominant-baseline="text-before-edge">  message: my-app...    </text></g><g transform="translate(613.5055410266423 474.68125311613676) rotate(0 32.538160747032634 8.618276008836801)"><text x="0" y="0" font-family="Virgil, Segoe UI Emoji" font-size="6.8946208070696064px" fill="#1e1e1e" text-anchor="start" style="white-space: pre;" direction="ltr" dominant-baseline="text-before-edge">createdAt: Thurs...</text><text x="0" y="8.618276008837007" font-family="Virgil, Segoe UI Emoji" font-size="6.8946208070696064px" fill="#1e1e1e" text-anchor="start" style="white-space: pre;" direction="ltr" dominant-baseline="text-before-edge">message: my-app...</text></g></svg>