<svg version="1.1" xmlns="http://www.w3.org/2000/svg" viewBox="0 0 746.2525913311538 443.4599111348689">
  <!-- svg-source:excalidraw -->
  
  <defs>
    <style class="style-fonts">
      @font-face {
        font-family: "Virgil";
        src: url("https://excalidraw.com/Virgil.woff2");
      }
      @font-face {
        font-family: "Cascadia";
        src: url("https://excalidraw.com/Cascadia.woff2");
      }
    </style>
    
  </defs>
  <g mask="url(#mask-A3e7VfGYJxMTku5UvZeKt)" stroke-linecap="round"><g transform="translate(94.5850571220517 243.16095360996405) rotate(0 113.07731245343803 -0.5782047938341748)"><path d="M0 0 C37.69 -0.19, 188.46 -0.96, 226.15 -1.16 M0 0 C37.69 -0.19, 188.46 -0.96, 226.15 -1.16" stroke="#000000" stroke-width="1" fill="none"></path></g><g transform="translate(94.5850571220517 243.16095360996405) rotate(0 113.07731245343803 -0.5782047938341748)"><path d="M226.15 -1.16 L212.59 5.25 L212.53 -7.43 L226.15 -1.16" stroke="none" stroke-width="0" fill="#000000" fill-rule="evenodd"></path><path d="M226.15 -1.16 C222.36 0.64, 218.57 2.43, 212.59 5.25 M226.15 -1.16 C222.66 0.49, 219.17 2.14, 212.59 5.25 M212.59 5.25 C212.58 2.2, 212.56 -0.85, 212.53 -7.43 M212.59 5.25 C212.57 0.21, 212.54 -4.83, 212.53 -7.43 M212.53 -7.43 C216.48 -5.61, 220.44 -3.79, 226.15 -1.16 M212.53 -7.43 C216.61 -5.55, 220.69 -3.67, 226.15 -1.16 M226.15 -1.16 C226.15 -1.16, 226.15 -1.16, 226.15 -1.16 M226.15 -1.16 C226.15 -1.16, 226.15 -1.16, 226.15 -1.16" stroke="#000000" stroke-width="1" fill="none"></path></g></g><mask id="mask-A3e7VfGYJxMTku5UvZeKt"><rect x="0" y="0" fill="#fff" width="420.7396820289282" height="344.3173631976326"></rect><rect x="152.4144142532241" y="232.58274881612942" fill="#000" width="110.49591064453125" height="20" opacity="1"></rect></mask><g transform="translate(152.4144142532241 232.58274881612942) rotate(0 55.247955322265625 10.000000000000455)"><text x="55.247955322265625" y="0" font-family="Virgil, Segoe UI Emoji" font-size="16px" fill="#000000" text-anchor="middle" style="white-space: pre;" direction="ltr" dominant-baseline="text-before-edge">install promise</text></g><g stroke-linecap="round" transform="translate(36.213642252265345 193.06553296255515) rotate(0 15.733984669645906 15.65994634762228)"><path d="M5.94 2.51 C5.94 2.51, 5.94 2.51, 5.94 2.51 M5.94 2.51 C5.94 2.51, 5.94 2.51, 5.94 2.51 M0.32 12.61 C5.22 12.08, 4.47 6.89, 12.38 2.06 M1.52 13.91 C4.32 10.61, 6.19 8.58, 11.54 0.67 M4.49 20.2 C9.86 10.36, 12.33 6.76, 18.8 1.32 M2.61 17.7 C6.43 13.87, 9.84 10.02, 16.86 1.23 M4.63 25.88 C6.21 18.9, 10.61 11.17, 20.3 2.9 M3.65 24.2 C9.73 15.81, 17.57 9.34, 22.13 2.69 M8.05 25.54 C12.07 18.45, 20.89 9.68, 25.89 3.15 M5.33 26.56 C14.03 17.31, 21.73 9.36, 24.58 5.05 M7.45 27.79 C14.76 19.68, 23.46 10.66, 30.38 5.88 M9.84 28.67 C16.13 20.7, 21.81 13.86, 29 5.81 M12.83 33.07 C17.87 26.23, 22.57 22.32, 28.91 10 M12.03 30.22 C17.53 25.86, 24.32 18.27, 29.99 9.87 M17.31 33.41 C20.77 25.82, 25.81 23.18, 33.15 16.37 M17.05 30.98 C21.72 28.23, 25.46 22.62, 33.09 13.94" stroke="#7950f2" stroke-width="0.5" fill="none"></path><path d="M16.47 0.61 C19.83 0.74, 25.11 2.42, 27.65 4.81 C30.19 7.21, 31.4 11.86, 31.71 14.98 C32.03 18.09, 31.59 20.97, 29.53 23.49 C27.47 26, 22.55 29.08, 19.34 30.05 C16.13 31.03, 13.23 30.56, 10.25 29.35 C7.27 28.14, 3.17 25.73, 1.45 22.81 C-0.28 19.9, -0.83 15.21, -0.1 11.86 C0.62 8.5, 2.66 4.72, 5.79 2.68 C8.92 0.64, 16.16 -0.08, 18.69 -0.38 C21.23 -0.67, 20.82 0.51, 21.01 0.91 M9.38 -0.17 C12.58 -1.32, 18.29 -0.83, 21.39 0.6 C24.48 2.04, 26.33 5.52, 27.95 8.46 C29.57 11.41, 31.31 15.26, 31.12 18.26 C30.92 21.27, 29.52 24.42, 26.79 26.48 C24.06 28.54, 18.28 30.55, 14.76 30.63 C11.25 30.72, 7.9 29.18, 5.69 27.01 C3.47 24.84, 2.23 20.77, 1.48 17.61 C0.73 14.44, -0.14 10.52, 1.19 8.01 C2.52 5.49, 7.94 3.7, 9.45 2.52 C10.95 1.34, 10.13 1.05, 10.23 0.92" stroke="#495057" stroke-width="1" fill="none"></path></g><g stroke-linecap="round"><g transform="translate(51.873588599887626 224.38542565780153) rotate(0 0.5546954573978837 22.106739469179956)" fill-rule="evenodd"><path d="M-10.54 0.11 C-10.54 0.11, -10.54 0.11, -10.54 0.11 M-10.54 0.11 C-10.54 0.11, -10.54 0.11, -10.54 0.11 M-16.5 10.53 C-13.08 8.13, -10.14 6.01, -5.95 -1.14 M-15.41 11.59 C-12.55 7.67, -8.91 4.9, -5.43 -0.06 M-17.78 19.79 C-14.64 14.64, -7.57 9.54, -1.64 -1.63 M-18.9 22.2 C-11.94 13.37, -6.1 6.67, 1.01 -0.81 M-22.46 28.1 C-13.6 22.46, -8.69 15.13, 6.62 -3.12 M-20.19 29.91 C-11.45 17.49, 0.2 6.4, 7.62 -1.73 M-21.12 36.03 C-6.95 21.73, 2.18 7.3, 9.29 0.45 M-20.11 35.16 C-13.33 26.93, -6.23 20.05, 10.4 1.53 M-22.13 39.96 C-8.63 27.29, 6.65 12.26, 10.3 5.87 M-19.46 42.61 C-9.33 30, 1.05 18.07, 11.95 5.86 M-15.67 42.58 C-8.23 33.49, 0.62 28.17, 12.15 6.56 M-15.96 43.61 C-8.38 33.85, 1.96 23.17, 14.51 7.43 M-13.14 43.74 C-5.03 37.95, 1.58 30.29, 16.91 12.17 M-13.67 45.53 C-6.27 37.38, 0.93 28.66, 17.94 10.91 M-8.25 48.73 C-0.61 34.64, 12.38 22.98, 18.03 14.09 M-9.19 47.72 C-4.39 40.26, 1.66 34.79, 17.33 15.54 M-3.98 48.28 C5.81 38.97, 13.91 25.17, 19.19 18.28 M-4.75 48.08 C2.04 40.23, 7.44 34.85, 20.87 19.6 M-0.03 48.04 C10.07 38.76, 14.11 32.95, 22.9 23.06 M1.28 48.08 C8.24 38.81, 15.99 28.67, 22.3 24.74 M6.13 46.22 C9.82 44.71, 14.97 40.43, 20.82 29.25 M7.25 47.07 C10.83 43.53, 15.18 38.83, 22.13 29.77 M14.56 46.18 C15.38 40.38, 19.56 36.51, 23.37 35.17 M12.94 46.36 C15.7 42.96, 17.05 40.55, 23.22 34.45" stroke="#7950f2" stroke-width="0.5" fill="none"></path><path d="M0.18 -0.01 C2.01 -0.24, 6.6 -7.66, 10.16 -0.51 C13.72 6.64, 26.65 35.78, 21.56 42.89 C16.46 50, -15.27 49.14, -20.43 42.15 C-25.58 35.16, -12.58 8.1, -9.37 0.94 C-6.16 -6.22, -2.6 -0.85, -1.17 -0.81 M-1.19 -1.07 C0.54 -1.21, 5.35 -6.28, 9.07 0.76 C12.79 7.79, 25.98 34.03, 21.14 41.14 C16.31 48.26, -14.7 50.01, -19.94 43.46 C-25.18 36.91, -13.54 8.84, -10.28 1.83 C-7.02 -5.18, -1.99 1.62, -0.38 1.39" stroke="#495057" stroke-width="1" fill="none"></path></g></g><mask></mask><g stroke-linecap="round"><g transform="translate(332.0970620298576 71.89919399605424) rotate(0 0 168.52826532908148)"><path d="M0 0 C0 56.18, 0 280.88, 0 337.06 M0 0 C0 56.18, 0 280.88, 0 337.06" stroke="#000000" stroke-width="1" fill="none"></path></g></g><mask></mask><g transform="translate(10 284.0062900187222) rotate(0 34.47657775878906 20.246447535221705)"><text x="34.47657775878906" y="0" font-family="Virgil, Segoe UI Emoji" font-size="16.197158028177277px" fill="#5f3dc4" text-anchor="middle" style="white-space: pre;" direction="ltr" dominant-baseline="text-before-edge">Platform</text><text x="34.47657775878906" y="20.2464475352216" font-family="Virgil, Segoe UI Emoji" font-size="16.197158028177277px" fill="#5f3dc4" text-anchor="middle" style="white-space: pre;" direction="ltr" dominant-baseline="text-before-edge">Engineer</text></g><g stroke-linecap="round" transform="translate(613.7269200470291 19.977069595843204) rotate(358.92972393214535 3.7680364110324263 19.555950473086796)"><path d="M1.88 0 L5.65 0 L7.07 0.47 L7.54 1.88 L7.54 37.23 L7.07 38.64 L5.65 39.11 L0.47 38.64 L0 37.23 L0 1.88 L0.47 0.47 L1.88 0" stroke="none" stroke-width="0" fill="#7950f2"></path><path d="M1.88 0 M1.88 0 C2.71 0, 3.53 0, 5.65 0 M1.88 0 C3.22 0, 4.56 0, 5.65 0 M5.65 0 C6.91 0, 7.54 0.63, 7.54 1.88 M5.65 0 C6.91 0, 7.54 0.63, 7.54 1.88 M7.54 1.88 C7.54 12.42, 7.54 22.96, 7.54 37.23 M7.54 1.88 C7.54 13.48, 7.54 25.08, 7.54 37.23 M7.54 37.23 C7.54 38.48, 6.91 39.11, 5.65 39.11 M7.54 37.23 C7.54 38.48, 6.91 39.11, 5.65 39.11 M5.65 39.11 C4.75 39.11, 3.86 39.11, 1.88 39.11 M5.65 39.11 C4.86 39.11, 4.06 39.11, 1.88 39.11 M1.88 39.11 C0.63 39.11, 0 38.48, 0 37.23 M1.88 39.11 C0.63 39.11, 0 38.48, 0 37.23 M0 37.23 C0 25.5, 0 13.78, 0 1.88 M0 37.23 C0 23.62, 0 10.02, 0 1.88 M0 1.88 C0 0.63, 0.63 0, 1.88 0 M0 1.88 C0 0.63, 0.63 0, 1.88 0" stroke="transparent" stroke-width="1" fill="none"></path></g><g stroke-linecap="round" transform="translate(627.7635594803141 14.982056672452018) rotate(40.41727686562419 3.7680364110324263 24.785791502693428)"><path d="M1.88 0 L5.65 0 L7.07 0.47 L7.54 1.88 L7.54 47.69 L7.07 49.1 L5.65 49.57 L0.47 49.1 L0 47.69 L0 1.88 L0.47 0.47 L1.88 0" stroke="none" stroke-width="0" fill="#7950f2"></path><path d="M1.88 0 M1.88 0 C2.82 0, 3.76 0, 5.65 0 M1.88 0 C3.04 0, 4.19 0, 5.65 0 M5.65 0 C6.91 0, 7.54 0.63, 7.54 1.88 M5.65 0 C6.91 0, 7.54 0.63, 7.54 1.88 M7.54 1.88 C7.54 13.6, 7.54 25.32, 7.54 47.69 M7.54 1.88 C7.54 16.7, 7.54 31.52, 7.54 47.69 M7.54 47.69 C7.54 48.94, 6.91 49.57, 5.65 49.57 M7.54 47.69 C7.54 48.94, 6.91 49.57, 5.65 49.57 M5.65 49.57 C4.6 49.57, 3.54 49.57, 1.88 49.57 M5.65 49.57 C4.2 49.57, 2.74 49.57, 1.88 49.57 M1.88 49.57 C0.63 49.57, 0 48.94, 0 47.69 M1.88 49.57 C0.63 49.57, 0 48.94, 0 47.69 M0 47.69 C0 37.94, 0 28.19, 0 1.88 M0 47.69 C0 29.89, 0 12.1, 0 1.88 M0 1.88 C0 0.63, 0.63 0, 1.88 0 M0 1.88 C0 0.63, 0.63 0, 1.88 0" stroke="transparent" stroke-width="1" fill="none"></path></g><g stroke-linecap="round" transform="translate(636.4060837451689 33.53707268045764) rotate(139.22073182693399 3.7680364110324263 14.147647249566944)"><path d="M1.88 0 L5.65 0 L7.07 0.47 L7.54 1.88 L7.54 26.41 L7.07 27.82 L5.65 28.3 L0.47 27.82 L0 26.41 L0 1.88 L0.47 0.47 L1.88 0" stroke="none" stroke-width="0" fill="#7950f2"></path><path d="M1.88 0 M1.88 0 C3.13 0, 4.38 0, 5.65 0 M1.88 0 C2.75 0, 3.62 0, 5.65 0 M5.65 0 C6.91 0, 7.54 0.63, 7.54 1.88 M5.65 0 C6.91 0, 7.54 0.63, 7.54 1.88 M7.54 1.88 C7.54 9.68, 7.54 17.47, 7.54 26.41 M7.54 1.88 C7.54 9.85, 7.54 17.82, 7.54 26.41 M7.54 26.41 C7.54 27.67, 6.91 28.3, 5.65 28.3 M7.54 26.41 C7.54 27.67, 6.91 28.3, 5.65 28.3 M5.65 28.3 C4.87 28.3, 4.08 28.3, 1.88 28.3 M5.65 28.3 C4.89 28.3, 4.13 28.3, 1.88 28.3 M1.88 28.3 C0.63 28.3, 0 27.67, 0 26.41 M1.88 28.3 C0.63 28.3, 0 27.67, 0 26.41 M0 26.41 C0 17.48, 0 8.56, 0 1.88 M0 26.41 C0 20.29, 0 14.17, 0 1.88 M0 1.88 C0 0.63, 0.63 0, 1.88 0 M0 1.88 C0 0.63, 0.63 0, 1.88 0" stroke="transparent" stroke-width="1" fill="none"></path></g><g stroke-linecap="round" transform="translate(612.8595751939556 18.02254869251192) rotate(358.1310915065084 4.2070221584958745 4.569555668486828)"><path d="M8.41 4.57 C8.41 4.83, 8.39 5.1, 8.35 5.36 C8.31 5.62, 8.24 5.88, 8.16 6.13 C8.08 6.38, 7.97 6.63, 7.85 6.85 C7.73 7.08, 7.59 7.3, 7.43 7.51 C7.27 7.71, 7.1 7.9, 6.91 8.07 C6.72 8.24, 6.52 8.39, 6.31 8.53 C6.1 8.66, 5.87 8.77, 5.65 8.86 C5.42 8.95, 5.18 9.02, 4.94 9.07 C4.7 9.12, 4.45 9.14, 4.21 9.14 C3.96 9.14, 3.72 9.12, 3.48 9.07 C3.24 9.02, 3 8.95, 2.77 8.86 C2.54 8.77, 2.31 8.66, 2.1 8.53 C1.89 8.39, 1.69 8.24, 1.5 8.07 C1.32 7.9, 1.14 7.71, 0.98 7.51 C0.83 7.3, 0.69 7.08, 0.56 6.85 C0.44 6.63, 0.34 6.38, 0.25 6.13 C0.17 5.88, 0.11 5.62, 0.06 5.36 C0.02 5.1, 0 4.83, 0 4.57 C0 4.31, 0.02 4.04, 0.06 3.78 C0.11 3.52, 0.17 3.26, 0.25 3.01 C0.34 2.76, 0.44 2.51, 0.56 2.28 C0.69 2.06, 0.83 1.83, 0.98 1.63 C1.14 1.43, 1.32 1.24, 1.5 1.07 C1.69 0.9, 1.89 0.74, 2.1 0.61 C2.31 0.48, 2.54 0.37, 2.77 0.28 C3 0.19, 3.24 0.12, 3.48 0.07 C3.72 0.02, 3.96 0, 4.21 0 C4.45 0, 4.7 0.02, 4.94 0.07 C5.18 0.12, 5.42 0.19, 5.65 0.28 C5.87 0.37, 6.1 0.48, 6.31 0.61 C6.52 0.74, 6.72 0.9, 6.91 1.07 C7.1 1.24, 7.27 1.43, 7.43 1.63 C7.59 1.83, 7.73 2.06, 7.85 2.28 C7.97 2.51, 8.08 2.76, 8.16 3.01 C8.24 3.26, 8.31 3.52, 8.35 3.78 C8.39 4.04, 8.4 4.44, 8.41 4.57 C8.42 4.7, 8.42 4.44, 8.41 4.57" stroke="none" stroke-width="0" fill="#7950f2"></path><path d="M8.41 4.57 C8.41 4.83, 8.39 5.1, 8.35 5.36 C8.31 5.62, 8.24 5.88, 8.16 6.13 C8.08 6.38, 7.97 6.63, 7.85 6.85 C7.73 7.08, 7.59 7.3, 7.43 7.51 C7.27 7.71, 7.1 7.9, 6.91 8.07 C6.72 8.24, 6.52 8.39, 6.31 8.53 C6.1 8.66, 5.87 8.77, 5.65 8.86 C5.42 8.95, 5.18 9.02, 4.94 9.07 C4.7 9.12, 4.45 9.14, 4.21 9.14 C3.96 9.14, 3.72 9.12, 3.48 9.07 C3.24 9.02, 3 8.95, 2.77 8.86 C2.54 8.77, 2.31 8.66, 2.1 8.53 C1.89 8.39, 1.69 8.24, 1.5 8.07 C1.32 7.9, 1.14 7.71, 0.98 7.51 C0.83 7.3, 0.69 7.08, 0.56 6.85 C0.44 6.63, 0.34 6.38, 0.25 6.13 C0.17 5.88, 0.11 5.62, 0.06 5.36 C0.02 5.1, 0 4.83, 0 4.57 C0 4.31, 0.02 4.04, 0.06 3.78 C0.11 3.52, 0.17 3.26, 0.25 3.01 C0.34 2.76, 0.44 2.51, 0.56 2.28 C0.69 2.06, 0.83 1.83, 0.98 1.63 C1.14 1.43, 1.32 1.24, 1.5 1.07 C1.69 0.9, 1.89 0.74, 2.1 0.61 C2.31 0.48, 2.54 0.37, 2.77 0.28 C3 0.19, 3.24 0.12, 3.48 0.07 C3.72 0.02, 3.96 0, 4.21 0 C4.45 0, 4.7 0.02, 4.94 0.07 C5.18 0.12, 5.42 0.19, 5.65 0.28 C5.87 0.37, 6.1 0.48, 6.31 0.61 C6.52 0.74, 6.72 0.9, 6.91 1.07 C7.1 1.24, 7.27 1.43, 7.43 1.63 C7.59 1.83, 7.73 2.06, 7.85 2.28 C7.97 2.51, 8.08 2.76, 8.16 3.01 C8.24 3.26, 8.31 3.52, 8.35 3.78 C8.39 4.04, 8.4 4.44, 8.41 4.57 C8.42 4.7, 8.42 4.44, 8.41 4.57" stroke="#5f3dc4" stroke-width="1" fill="none"></path></g><g stroke-linecap="round" transform="translate(613.8202112209729 50.270585328136804) rotate(358.1310915065084 4.2070221584958745 4.569555668486828)"><path d="M8.41 4.57 C8.41 4.83, 8.39 5.1, 8.35 5.36 C8.31 5.62, 8.24 5.88, 8.16 6.13 C8.08 6.38, 7.97 6.63, 7.85 6.85 C7.73 7.08, 7.59 7.3, 7.43 7.51 C7.27 7.71, 7.1 7.9, 6.91 8.07 C6.72 8.24, 6.52 8.39, 6.31 8.53 C6.1 8.66, 5.87 8.77, 5.65 8.86 C5.42 8.95, 5.18 9.02, 4.94 9.07 C4.7 9.12, 4.45 9.14, 4.21 9.14 C3.96 9.14, 3.72 9.12, 3.48 9.07 C3.24 9.02, 3 8.95, 2.77 8.86 C2.54 8.77, 2.31 8.66, 2.1 8.53 C1.89 8.39, 1.69 8.24, 1.5 8.07 C1.32 7.9, 1.14 7.71, 0.98 7.51 C0.83 7.3, 0.69 7.08, 0.56 6.85 C0.44 6.63, 0.34 6.38, 0.25 6.13 C0.17 5.88, 0.11 5.62, 0.06 5.36 C0.02 5.1, 0 4.83, 0 4.57 C0 4.31, 0.02 4.04, 0.06 3.78 C0.11 3.52, 0.17 3.26, 0.25 3.01 C0.34 2.76, 0.44 2.51, 0.56 2.28 C0.69 2.06, 0.83 1.83, 0.98 1.63 C1.14 1.43, 1.32 1.24, 1.5 1.07 C1.69 0.9, 1.89 0.74, 2.1 0.61 C2.31 0.48, 2.54 0.37, 2.77 0.28 C3 0.19, 3.24 0.12, 3.48 0.07 C3.72 0.02, 3.96 0, 4.21 0 C4.45 0, 4.7 0.02, 4.94 0.07 C5.18 0.12, 5.42 0.19, 5.65 0.28 C5.87 0.37, 6.1 0.48, 6.31 0.61 C6.52 0.74, 6.72 0.9, 6.91 1.07 C7.1 1.24, 7.27 1.43, 7.43 1.63 C7.59 1.83, 7.73 2.06, 7.85 2.28 C7.97 2.51, 8.08 2.76, 8.16 3.01 C8.24 3.26, 8.31 3.52, 8.35 3.78 C8.39 4.04, 8.4 4.44, 8.41 4.57 C8.42 4.7, 8.42 4.44, 8.41 4.57" stroke="none" stroke-width="0" fill="#7950f2"></path><path d="M8.41 4.57 C8.41 4.83, 8.39 5.1, 8.35 5.36 C8.31 5.62, 8.24 5.88, 8.16 6.13 C8.08 6.38, 7.97 6.63, 7.85 6.85 C7.73 7.08, 7.59 7.3, 7.43 7.51 C7.27 7.71, 7.1 7.9, 6.91 8.07 C6.72 8.24, 6.52 8.39, 6.31 8.53 C6.1 8.66, 5.87 8.77, 5.65 8.86 C5.42 8.95, 5.18 9.02, 4.94 9.07 C4.7 9.12, 4.45 9.14, 4.21 9.14 C3.96 9.14, 3.72 9.12, 3.48 9.07 C3.24 9.02, 3 8.95, 2.77 8.86 C2.54 8.77, 2.31 8.66, 2.1 8.53 C1.89 8.39, 1.69 8.24, 1.5 8.07 C1.32 7.9, 1.14 7.71, 0.98 7.51 C0.83 7.3, 0.69 7.08, 0.56 6.85 C0.44 6.63, 0.34 6.38, 0.25 6.13 C0.17 5.88, 0.11 5.62, 0.06 5.36 C0.02 5.1, 0 4.83, 0 4.57 C0 4.31, 0.02 4.04, 0.06 3.78 C0.11 3.52, 0.17 3.26, 0.25 3.01 C0.34 2.76, 0.44 2.51, 0.56 2.28 C0.69 2.06, 0.83 1.83, 0.98 1.63 C1.14 1.43, 1.32 1.24, 1.5 1.07 C1.69 0.9, 1.89 0.74, 2.1 0.61 C2.31 0.48, 2.54 0.37, 2.77 0.28 C3 0.19, 3.24 0.12, 3.48 0.07 C3.72 0.02, 3.96 0, 4.21 0 C4.45 0, 4.7 0.02, 4.94 0.07 C5.18 0.12, 5.42 0.19, 5.65 0.28 C5.87 0.37, 6.1 0.48, 6.31 0.61 C6.52 0.74, 6.72 0.9, 6.91 1.07 C7.1 1.24, 7.27 1.43, 7.43 1.63 C7.59 1.83, 7.73 2.06, 7.85 2.28 C7.97 2.51, 8.08 2.76, 8.16 3.01 C8.24 3.26, 8.31 3.52, 8.35 3.78 C8.39 4.04, 8.4 4.44, 8.41 4.57 C8.42 4.7, 8.42 4.44, 8.41 4.57" stroke="#5f3dc4" stroke-width="1" fill="none"></path></g><g stroke-linecap="round" transform="translate(628.3576055961184 36.17269642241445) rotate(358.1310915065084 4.171683969157584 4.569555668486828)"><path d="M8.34 4.57 C8.34 4.83, 8.32 5.1, 8.28 5.36 C8.24 5.62, 8.17 5.88, 8.09 6.13 C8.01 6.38, 7.91 6.63, 7.78 6.85 C7.66 7.08, 7.52 7.3, 7.37 7.51 C7.21 7.71, 7.04 7.9, 6.85 8.07 C6.67 8.24, 6.47 8.39, 6.26 8.53 C6.05 8.66, 5.83 8.77, 5.6 8.86 C5.37 8.95, 5.13 9.02, 4.9 9.07 C4.66 9.12, 4.41 9.14, 4.17 9.14 C3.93 9.14, 3.69 9.12, 3.45 9.07 C3.21 9.02, 2.97 8.95, 2.74 8.86 C2.52 8.77, 2.29 8.66, 2.09 8.53 C1.88 8.39, 1.68 8.24, 1.49 8.07 C1.31 7.9, 1.13 7.71, 0.98 7.51 C0.82 7.3, 0.68 7.08, 0.56 6.85 C0.44 6.63, 0.33 6.38, 0.25 6.13 C0.17 5.88, 0.11 5.62, 0.06 5.36 C0.02 5.1, 0 4.83, 0 4.57 C0 4.31, 0.02 4.04, 0.06 3.78 C0.11 3.52, 0.17 3.26, 0.25 3.01 C0.33 2.76, 0.44 2.51, 0.56 2.28 C0.68 2.06, 0.82 1.83, 0.98 1.63 C1.13 1.43, 1.31 1.24, 1.49 1.07 C1.68 0.9, 1.88 0.74, 2.09 0.61 C2.29 0.48, 2.52 0.37, 2.74 0.28 C2.97 0.19, 3.21 0.12, 3.45 0.07 C3.69 0.02, 3.93 0, 4.17 0 C4.41 0, 4.66 0.02, 4.9 0.07 C5.13 0.12, 5.37 0.19, 5.6 0.28 C5.83 0.37, 6.05 0.48, 6.26 0.61 C6.47 0.74, 6.67 0.9, 6.85 1.07 C7.04 1.24, 7.21 1.43, 7.37 1.63 C7.52 1.83, 7.66 2.06, 7.78 2.28 C7.91 2.51, 8.01 2.76, 8.09 3.01 C8.17 3.26, 8.24 3.52, 8.28 3.78 C8.32 4.04, 8.33 4.44, 8.34 4.57 C8.35 4.7, 8.35 4.44, 8.34 4.57" stroke="none" stroke-width="0" fill="#7950f2"></path><path d="M8.34 4.57 C8.34 4.83, 8.32 5.1, 8.28 5.36 C8.24 5.62, 8.17 5.88, 8.09 6.13 C8.01 6.38, 7.91 6.63, 7.78 6.85 C7.66 7.08, 7.52 7.3, 7.37 7.51 C7.21 7.71, 7.04 7.9, 6.85 8.07 C6.67 8.24, 6.47 8.39, 6.26 8.53 C6.05 8.66, 5.83 8.77, 5.6 8.86 C5.37 8.95, 5.13 9.02, 4.9 9.07 C4.66 9.12, 4.41 9.14, 4.17 9.14 C3.93 9.14, 3.69 9.12, 3.45 9.07 C3.21 9.02, 2.97 8.95, 2.74 8.86 C2.52 8.77, 2.29 8.66, 2.09 8.53 C1.88 8.39, 1.68 8.24, 1.49 8.07 C1.31 7.9, 1.13 7.71, 0.98 7.51 C0.82 7.3, 0.68 7.08, 0.56 6.85 C0.44 6.63, 0.33 6.38, 0.25 6.13 C0.17 5.88, 0.11 5.62, 0.06 5.36 C0.02 5.1, 0 4.83, 0 4.57 C0 4.31, 0.02 4.04, 0.06 3.78 C0.11 3.52, 0.17 3.26, 0.25 3.01 C0.33 2.76, 0.44 2.51, 0.56 2.28 C0.68 2.06, 0.82 1.83, 0.98 1.63 C1.13 1.43, 1.31 1.24, 1.49 1.07 C1.68 0.9, 1.88 0.74, 2.09 0.61 C2.29 0.48, 2.52 0.37, 2.74 0.28 C2.97 0.19, 3.21 0.12, 3.45 0.07 C3.69 0.02, 3.93 0, 4.17 0 C4.41 0, 4.66 0.02, 4.9 0.07 C5.13 0.12, 5.37 0.19, 5.6 0.28 C5.83 0.37, 6.05 0.48, 6.26 0.61 C6.47 0.74, 6.67 0.9, 6.85 1.07 C7.04 1.24, 7.21 1.43, 7.37 1.63 C7.52 1.83, 7.66 2.06, 7.78 2.28 C7.91 2.51, 8.01 2.76, 8.09 3.01 C8.17 3.26, 8.24 3.52, 8.28 3.78 C8.32 4.04, 8.33 4.44, 8.34 4.57 C8.35 4.7, 8.35 4.44, 8.34 4.57" stroke="#5f3dc4" stroke-width="1" fill="none"></path></g><g stroke-linecap="round" transform="translate(641.5035102636375 18.8237997900178) rotate(358.1310915065084 4.2070221584958745 4.569555668486828)"><path d="M8.41 4.57 C8.41 4.83, 8.39 5.1, 8.35 5.36 C8.31 5.62, 8.24 5.88, 8.16 6.13 C8.08 6.38, 7.97 6.63, 7.85 6.85 C7.73 7.08, 7.59 7.3, 7.43 7.51 C7.27 7.71, 7.1 7.9, 6.91 8.07 C6.72 8.24, 6.52 8.39, 6.31 8.53 C6.1 8.66, 5.87 8.77, 5.65 8.86 C5.42 8.95, 5.18 9.02, 4.94 9.07 C4.7 9.12, 4.45 9.14, 4.21 9.14 C3.96 9.14, 3.72 9.12, 3.48 9.07 C3.24 9.02, 3 8.95, 2.77 8.86 C2.54 8.77, 2.31 8.66, 2.1 8.53 C1.89 8.39, 1.69 8.24, 1.5 8.07 C1.32 7.9, 1.14 7.71, 0.98 7.51 C0.83 7.3, 0.69 7.08, 0.56 6.85 C0.44 6.63, 0.34 6.38, 0.25 6.13 C0.17 5.88, 0.11 5.62, 0.06 5.36 C0.02 5.1, 0 4.83, 0 4.57 C0 4.31, 0.02 4.04, 0.06 3.78 C0.11 3.52, 0.17 3.26, 0.25 3.01 C0.34 2.76, 0.44 2.51, 0.56 2.28 C0.69 2.06, 0.83 1.83, 0.98 1.63 C1.14 1.43, 1.32 1.24, 1.5 1.07 C1.69 0.9, 1.89 0.74, 2.1 0.61 C2.31 0.48, 2.54 0.37, 2.77 0.28 C3 0.19, 3.24 0.12, 3.48 0.07 C3.72 0.02, 3.96 0, 4.21 0 C4.45 0, 4.7 0.02, 4.94 0.07 C5.18 0.12, 5.42 0.19, 5.65 0.28 C5.87 0.37, 6.1 0.48, 6.31 0.61 C6.52 0.74, 6.72 0.9, 6.91 1.07 C7.1 1.24, 7.27 1.43, 7.43 1.63 C7.59 1.83, 7.73 2.06, 7.85 2.28 C7.97 2.51, 8.08 2.76, 8.16 3.01 C8.24 3.26, 8.31 3.52, 8.35 3.78 C8.39 4.04, 8.4 4.44, 8.41 4.57 C8.42 4.7, 8.42 4.44, 8.41 4.57" stroke="none" stroke-width="0" fill="#7950f2"></path><path d="M8.41 4.57 C8.41 4.83, 8.39 5.1, 8.35 5.36 C8.31 5.62, 8.24 5.88, 8.16 6.13 C8.08 6.38, 7.97 6.63, 7.85 6.85 C7.73 7.08, 7.59 7.3, 7.43 7.51 C7.27 7.71, 7.1 7.9, 6.91 8.07 C6.72 8.24, 6.52 8.39, 6.31 8.53 C6.1 8.66, 5.87 8.77, 5.65 8.86 C5.42 8.95, 5.18 9.02, 4.94 9.07 C4.7 9.12, 4.45 9.14, 4.21 9.14 C3.96 9.14, 3.72 9.12, 3.48 9.07 C3.24 9.02, 3 8.95, 2.77 8.86 C2.54 8.77, 2.31 8.66, 2.1 8.53 C1.89 8.39, 1.69 8.24, 1.5 8.07 C1.32 7.9, 1.14 7.71, 0.98 7.51 C0.83 7.3, 0.69 7.08, 0.56 6.85 C0.44 6.63, 0.34 6.38, 0.25 6.13 C0.17 5.88, 0.11 5.62, 0.06 5.36 C0.02 5.1, 0 4.83, 0 4.57 C0 4.31, 0.02 4.04, 0.06 3.78 C0.11 3.52, 0.17 3.26, 0.25 3.01 C0.34 2.76, 0.44 2.51, 0.56 2.28 C0.69 2.06, 0.83 1.83, 0.98 1.63 C1.14 1.43, 1.32 1.24, 1.5 1.07 C1.69 0.9, 1.89 0.74, 2.1 0.61 C2.31 0.48, 2.54 0.37, 2.77 0.28 C3 0.19, 3.24 0.12, 3.48 0.07 C3.72 0.02, 3.96 0, 4.21 0 C4.45 0, 4.7 0.02, 4.94 0.07 C5.18 0.12, 5.42 0.19, 5.65 0.28 C5.87 0.37, 6.1 0.48, 6.31 0.61 C6.52 0.74, 6.72 0.9, 6.91 1.07 C7.1 1.24, 7.27 1.43, 7.43 1.63 C7.59 1.83, 7.73 2.06, 7.85 2.28 C7.97 2.51, 8.08 2.76, 8.16 3.01 C8.24 3.26, 8.31 3.52, 8.35 3.78 C8.39 4.04, 8.4 4.44, 8.41 4.57 C8.42 4.7, 8.42 4.44, 8.41 4.57" stroke="#5f3dc4" stroke-width="1" fill="none"></path></g><g stroke-linecap="round" transform="translate(643.5545198458058 51.83716481769079) rotate(358.1310915065084 4.2070221584958745 4.569555668486828)"><path d="M8.41 4.57 C8.41 4.83, 8.39 5.1, 8.35 5.36 C8.31 5.62, 8.24 5.88, 8.16 6.13 C8.08 6.38, 7.97 6.63, 7.85 6.85 C7.73 7.08, 7.59 7.3, 7.43 7.51 C7.27 7.71, 7.1 7.9, 6.91 8.07 C6.72 8.24, 6.52 8.39, 6.31 8.53 C6.1 8.66, 5.87 8.77, 5.65 8.86 C5.42 8.95, 5.18 9.02, 4.94 9.07 C4.7 9.12, 4.45 9.14, 4.21 9.14 C3.96 9.14, 3.72 9.12, 3.48 9.07 C3.24 9.02, 3 8.95, 2.77 8.86 C2.54 8.77, 2.31 8.66, 2.1 8.53 C1.89 8.39, 1.69 8.24, 1.5 8.07 C1.32 7.9, 1.14 7.71, 0.98 7.51 C0.83 7.3, 0.69 7.08, 0.56 6.85 C0.44 6.63, 0.34 6.38, 0.25 6.13 C0.17 5.88, 0.11 5.62, 0.06 5.36 C0.02 5.1, 0 4.83, 0 4.57 C0 4.31, 0.02 4.04, 0.06 3.78 C0.11 3.52, 0.17 3.26, 0.25 3.01 C0.34 2.76, 0.44 2.51, 0.56 2.28 C0.69 2.06, 0.83 1.83, 0.98 1.63 C1.14 1.43, 1.32 1.24, 1.5 1.07 C1.69 0.9, 1.89 0.74, 2.1 0.61 C2.31 0.48, 2.54 0.37, 2.77 0.28 C3 0.19, 3.24 0.12, 3.48 0.07 C3.72 0.02, 3.96 0, 4.21 0 C4.45 0, 4.7 0.02, 4.94 0.07 C5.18 0.12, 5.42 0.19, 5.65 0.28 C5.87 0.37, 6.1 0.48, 6.31 0.61 C6.52 0.74, 6.72 0.9, 6.91 1.07 C7.1 1.24, 7.27 1.43, 7.43 1.63 C7.59 1.83, 7.73 2.06, 7.85 2.28 C7.97 2.51, 8.08 2.76, 8.16 3.01 C8.24 3.26, 8.31 3.52, 8.35 3.78 C8.39 4.04, 8.4 4.44, 8.41 4.57 C8.42 4.7, 8.42 4.44, 8.41 4.57" stroke="none" stroke-width="0" fill="#7950f2"></path><path d="M8.41 4.57 C8.41 4.83, 8.39 5.1, 8.35 5.36 C8.31 5.62, 8.24 5.88, 8.16 6.13 C8.08 6.38, 7.97 6.63, 7.85 6.85 C7.73 7.08, 7.59 7.3, 7.43 7.51 C7.27 7.71, 7.1 7.9, 6.91 8.07 C6.72 8.24, 6.52 8.39, 6.31 8.53 C6.1 8.66, 5.87 8.77, 5.65 8.86 C5.42 8.95, 5.18 9.02, 4.94 9.07 C4.7 9.12, 4.45 9.14, 4.21 9.14 C3.96 9.14, 3.72 9.12, 3.48 9.07 C3.24 9.02, 3 8.95, 2.77 8.86 C2.54 8.77, 2.31 8.66, 2.1 8.53 C1.89 8.39, 1.69 8.24, 1.5 8.07 C1.32 7.9, 1.14 7.71, 0.98 7.51 C0.83 7.3, 0.69 7.08, 0.56 6.85 C0.44 6.63, 0.34 6.38, 0.25 6.13 C0.17 5.88, 0.11 5.62, 0.06 5.36 C0.02 5.1, 0 4.83, 0 4.57 C0 4.31, 0.02 4.04, 0.06 3.78 C0.11 3.52, 0.17 3.26, 0.25 3.01 C0.34 2.76, 0.44 2.51, 0.56 2.28 C0.69 2.06, 0.83 1.83, 0.98 1.63 C1.14 1.43, 1.32 1.24, 1.5 1.07 C1.69 0.9, 1.89 0.74, 2.1 0.61 C2.31 0.48, 2.54 0.37, 2.77 0.28 C3 0.19, 3.24 0.12, 3.48 0.07 C3.72 0.02, 3.96 0, 4.21 0 C4.45 0, 4.7 0.02, 4.94 0.07 C5.18 0.12, 5.42 0.19, 5.65 0.28 C5.87 0.37, 6.1 0.48, 6.31 0.61 C6.52 0.74, 6.72 0.9, 6.91 1.07 C7.1 1.24, 7.27 1.43, 7.43 1.63 C7.59 1.83, 7.73 2.06, 7.85 2.28 C7.97 2.51, 8.08 2.76, 8.16 3.01 C8.24 3.26, 8.31 3.52, 8.35 3.78 C8.39 4.04, 8.4 4.44, 8.41 4.57 C8.42 4.7, 8.42 4.44, 8.41 4.57" stroke="#5f3dc4" stroke-width="1" fill="none"></path></g><g stroke-linecap="round" transform="translate(613.4225515790513 19.16476081117071) rotate(358.1310915065084 3.729693932574719 3.867855952340051)"><path d="M7.46 3.87 C7.46 4.09, 7.44 4.32, 7.4 4.54 C7.37 4.76, 7.31 4.98, 7.23 5.19 C7.16 5.4, 7.07 5.61, 6.96 5.8 C6.85 6, 6.73 6.18, 6.59 6.35 C6.45 6.53, 6.29 6.69, 6.13 6.83 C5.96 6.97, 5.78 7.11, 5.59 7.22 C5.41 7.33, 5.21 7.43, 5.01 7.5 C4.8 7.58, 4.59 7.64, 4.38 7.68 C4.16 7.72, 3.95 7.74, 3.73 7.74 C3.51 7.74, 3.29 7.72, 3.08 7.68 C2.87 7.64, 2.66 7.58, 2.45 7.5 C2.25 7.43, 2.05 7.33, 1.86 7.22 C1.68 7.11, 1.5 6.97, 1.33 6.83 C1.17 6.69, 1.01 6.53, 0.87 6.35 C0.73 6.18, 0.61 6, 0.5 5.8 C0.39 5.61, 0.3 5.4, 0.22 5.19 C0.15 4.98, 0.09 4.76, 0.06 4.54 C0.02 4.32, 0 4.09, 0 3.87 C0 3.64, 0.02 3.42, 0.06 3.2 C0.09 2.98, 0.15 2.76, 0.22 2.54 C0.3 2.33, 0.39 2.13, 0.5 1.93 C0.61 1.74, 0.73 1.55, 0.87 1.38 C1.01 1.21, 1.17 1.05, 1.33 0.9 C1.5 0.76, 1.68 0.63, 1.86 0.52 C2.05 0.41, 2.25 0.31, 2.45 0.23 C2.66 0.16, 2.87 0.1, 3.08 0.06 C3.29 0.02, 3.51 0, 3.73 0 C3.95 0, 4.16 0.02, 4.38 0.06 C4.59 0.1, 4.8 0.16, 5.01 0.23 C5.21 0.31, 5.41 0.41, 5.59 0.52 C5.78 0.63, 5.96 0.76, 6.13 0.9 C6.29 1.05, 6.45 1.21, 6.59 1.38 C6.73 1.55, 6.85 1.74, 6.96 1.93 C7.07 2.13, 7.16 2.33, 7.23 2.54 C7.31 2.76, 7.37 2.98, 7.4 3.2 C7.44 3.42, 7.45 3.76, 7.46 3.87 C7.47 3.98, 7.47 3.76, 7.46 3.87" stroke="#fff" stroke-width="1" fill="none"></path></g><g stroke-linecap="round" transform="translate(614.1959016250603 51.37736985991796) rotate(358.1310915065084 3.729693932574719 3.867855952340051)"><path d="M7.46 3.87 C7.46 4.09, 7.44 4.32, 7.4 4.54 C7.37 4.76, 7.31 4.98, 7.23 5.19 C7.16 5.4, 7.07 5.61, 6.96 5.8 C6.85 6, 6.73 6.18, 6.59 6.35 C6.45 6.53, 6.29 6.69, 6.13 6.83 C5.96 6.97, 5.78 7.11, 5.59 7.22 C5.41 7.33, 5.21 7.43, 5.01 7.5 C4.8 7.58, 4.59 7.64, 4.38 7.68 C4.16 7.72, 3.95 7.74, 3.73 7.74 C3.51 7.74, 3.29 7.72, 3.08 7.68 C2.87 7.64, 2.66 7.58, 2.45 7.5 C2.25 7.43, 2.05 7.33, 1.86 7.22 C1.68 7.11, 1.5 6.97, 1.33 6.83 C1.17 6.69, 1.01 6.53, 0.87 6.35 C0.73 6.18, 0.61 6, 0.5 5.8 C0.39 5.61, 0.3 5.4, 0.22 5.19 C0.15 4.98, 0.09 4.76, 0.06 4.54 C0.02 4.32, 0 4.09, 0 3.87 C0 3.64, 0.02 3.42, 0.06 3.2 C0.09 2.98, 0.15 2.76, 0.22 2.54 C0.3 2.33, 0.39 2.13, 0.5 1.93 C0.61 1.74, 0.73 1.55, 0.87 1.38 C1.01 1.21, 1.17 1.05, 1.33 0.9 C1.5 0.76, 1.68 0.63, 1.86 0.52 C2.05 0.41, 2.25 0.31, 2.45 0.23 C2.66 0.16, 2.87 0.1, 3.08 0.06 C3.29 0.02, 3.51 0, 3.73 0 C3.95 0, 4.16 0.02, 4.38 0.06 C4.59 0.1, 4.8 0.16, 5.01 0.23 C5.21 0.31, 5.41 0.41, 5.59 0.52 C5.78 0.63, 5.96 0.76, 6.13 0.9 C6.29 1.05, 6.45 1.21, 6.59 1.38 C6.73 1.55, 6.85 1.74, 6.96 1.93 C7.07 2.13, 7.16 2.33, 7.23 2.54 C7.31 2.76, 7.37 2.98, 7.4 3.2 C7.44 3.42, 7.45 3.76, 7.46 3.87 C7.47 3.98, 7.47 3.76, 7.46 3.87" stroke="#fff" stroke-width="1" fill="none"></path></g><g stroke-linecap="round" transform="translate(628.7613810351468 36.644652442122606) rotate(358.1310915065084 3.724686267937159 3.7725718007777687)"><path d="M7.45 3.77 C7.45 3.99, 7.43 4.21, 7.39 4.43 C7.36 4.64, 7.3 4.86, 7.22 5.06 C7.15 5.27, 7.06 5.47, 6.95 5.66 C6.84 5.85, 6.72 6.03, 6.58 6.2 C6.44 6.36, 6.28 6.52, 6.12 6.66 C5.95 6.8, 5.77 6.93, 5.59 7.04 C5.4 7.15, 5.2 7.24, 5 7.32 C4.8 7.39, 4.58 7.45, 4.37 7.49 C4.16 7.53, 3.94 7.55, 3.72 7.55 C3.51 7.55, 3.29 7.53, 3.08 7.49 C2.87 7.45, 2.65 7.39, 2.45 7.32 C2.25 7.24, 2.05 7.15, 1.86 7.04 C1.68 6.93, 1.5 6.8, 1.33 6.66 C1.17 6.52, 1.01 6.36, 0.87 6.2 C0.73 6.03, 0.61 5.85, 0.5 5.66 C0.39 5.47, 0.3 5.27, 0.22 5.06 C0.15 4.86, 0.09 4.64, 0.06 4.43 C0.02 4.21, 0 3.99, 0 3.77 C0 3.55, 0.02 3.33, 0.06 3.12 C0.09 2.9, 0.15 2.69, 0.22 2.48 C0.3 2.28, 0.39 2.08, 0.5 1.89 C0.61 1.7, 0.73 1.51, 0.87 1.35 C1.01 1.18, 1.17 1.02, 1.33 0.88 C1.5 0.74, 1.68 0.61, 1.86 0.51 C2.05 0.4, 2.25 0.3, 2.45 0.23 C2.65 0.15, 2.87 0.1, 3.08 0.06 C3.29 0.02, 3.51 0, 3.72 0 C3.94 0, 4.16 0.02, 4.37 0.06 C4.58 0.1, 4.8 0.15, 5 0.23 C5.2 0.3, 5.4 0.4, 5.59 0.51 C5.77 0.61, 5.95 0.74, 6.12 0.88 C6.28 1.02, 6.44 1.18, 6.58 1.35 C6.72 1.51, 6.84 1.7, 6.95 1.89 C7.06 2.08, 7.15 2.28, 7.22 2.48 C7.3 2.69, 7.36 2.9, 7.39 3.12 C7.43 3.33, 7.44 3.66, 7.45 3.77 C7.46 3.88, 7.46 3.66, 7.45 3.77" stroke="#fff" stroke-width="1" fill="none"></path></g><g stroke-linecap="round" transform="translate(642.3133078736209 19.728872308623977) rotate(358.1310915065084 3.325364728417753 3.7725718007777687)"><path d="M6.65 3.77 C6.65 3.99, 6.63 4.21, 6.6 4.43 C6.57 4.64, 6.52 4.86, 6.45 5.06 C6.38 5.27, 6.3 5.47, 6.21 5.66 C6.11 5.85, 6 6.03, 5.87 6.2 C5.75 6.36, 5.61 6.52, 5.46 6.66 C5.32 6.8, 5.15 6.93, 4.99 7.04 C4.82 7.15, 4.64 7.24, 4.46 7.32 C4.28 7.39, 4.09 7.45, 3.9 7.49 C3.71 7.53, 3.52 7.55, 3.33 7.55 C3.13 7.55, 2.94 7.53, 2.75 7.49 C2.56 7.45, 2.37 7.39, 2.19 7.32 C2.01 7.24, 1.83 7.15, 1.66 7.04 C1.5 6.93, 1.34 6.8, 1.19 6.66 C1.04 6.52, 0.9 6.36, 0.78 6.2 C0.65 6.03, 0.54 5.85, 0.45 5.66 C0.35 5.47, 0.27 5.27, 0.2 5.06 C0.13 4.86, 0.08 4.64, 0.05 4.43 C0.02 4.21, 0 3.99, 0 3.77 C0 3.55, 0.02 3.33, 0.05 3.12 C0.08 2.9, 0.13 2.69, 0.2 2.48 C0.27 2.28, 0.35 2.08, 0.45 1.89 C0.54 1.7, 0.65 1.51, 0.78 1.35 C0.9 1.18, 1.04 1.02, 1.19 0.88 C1.34 0.74, 1.5 0.61, 1.66 0.51 C1.83 0.4, 2.01 0.3, 2.19 0.23 C2.37 0.15, 2.56 0.1, 2.75 0.06 C2.94 0.02, 3.13 0, 3.33 0 C3.52 0, 3.71 0.02, 3.9 0.06 C4.09 0.1, 4.28 0.15, 4.46 0.23 C4.64 0.3, 4.82 0.4, 4.99 0.51 C5.15 0.61, 5.32 0.74, 5.46 0.88 C5.61 1.02, 5.75 1.18, 5.87 1.35 C6 1.51, 6.11 1.7, 6.21 1.89 C6.3 2.08, 6.38 2.28, 6.45 2.48 C6.52 2.69, 6.57 2.9, 6.6 3.12 C6.63 3.33, 6.64 3.66, 6.65 3.77 C6.66 3.88, 6.66 3.66, 6.65 3.77" stroke="#fff" stroke-width="1" fill="none"></path></g><g stroke-linecap="round" transform="translate(644.8389005103909 52.539097124772525) rotate(358.1310915065084 2.9417847459671975 3.7725718007777687)"><path d="M5.88 3.77 C5.88 3.99, 5.87 4.21, 5.84 4.43 C5.81 4.64, 5.76 4.86, 5.71 5.06 C5.65 5.27, 5.57 5.47, 5.49 5.66 C5.4 5.85, 5.3 6.03, 5.2 6.2 C5.09 6.36, 4.96 6.52, 4.83 6.66 C4.7 6.8, 4.56 6.93, 4.41 7.04 C4.27 7.15, 4.11 7.24, 3.95 7.32 C3.79 7.39, 3.62 7.45, 3.45 7.49 C3.28 7.53, 3.11 7.55, 2.94 7.55 C2.77 7.55, 2.6 7.53, 2.43 7.49 C2.26 7.45, 2.1 7.39, 1.94 7.32 C1.78 7.24, 1.62 7.15, 1.47 7.04 C1.32 6.93, 1.18 6.8, 1.05 6.66 C0.92 6.52, 0.8 6.36, 0.69 6.2 C0.58 6.03, 0.48 5.85, 0.39 5.66 C0.31 5.47, 0.24 5.27, 0.18 5.06 C0.12 4.86, 0.07 4.64, 0.04 4.43 C0.02 4.21, 0 3.99, 0 3.77 C0 3.55, 0.02 3.33, 0.04 3.12 C0.07 2.9, 0.12 2.69, 0.18 2.48 C0.24 2.28, 0.31 2.08, 0.39 1.89 C0.48 1.7, 0.58 1.51, 0.69 1.35 C0.8 1.18, 0.92 1.02, 1.05 0.88 C1.18 0.74, 1.32 0.61, 1.47 0.51 C1.62 0.4, 1.78 0.3, 1.94 0.23 C2.1 0.15, 2.26 0.1, 2.43 0.06 C2.6 0.02, 2.77 0, 2.94 0 C3.11 0, 3.28 0.02, 3.45 0.06 C3.62 0.1, 3.79 0.15, 3.95 0.23 C4.11 0.3, 4.27 0.4, 4.41 0.51 C4.56 0.61, 4.7 0.74, 4.83 0.88 C4.96 1.02, 5.09 1.18, 5.2 1.35 C5.3 1.51, 5.4 1.7, 5.49 1.89 C5.57 2.08, 5.65 2.28, 5.71 2.48 C5.76 2.69, 5.81 2.9, 5.84 3.12 C5.87 3.33, 5.88 3.66, 5.88 3.77 C5.89 3.88, 5.89 3.66, 5.88 3.77" stroke="#fff" stroke-width="1" fill="none"></path></g><g stroke-linecap="round" transform="translate(327.1393861223569 223.0498217840468) rotate(0 4.639756944444343 77.5247523003477)"><path d="M2.32 0 L8.7 0.58 L9.28 2.32 L9.28 152.73 L8.7 154.47 L6.96 155.05 L0.58 154.47 L0 152.73 L0 2.32 L0.58 0.58 L2.32 0" stroke="none" stroke-width="0" fill="#b2f2bb"></path><path d="M2.32 0 M2.32 0 C3.51 0, 4.69 0, 6.96 0 M2.32 0 C3.82 0, 5.32 0, 6.96 0 M6.96 0 C8.51 0, 9.28 0.77, 9.28 2.32 M6.96 0 C8.51 0, 9.28 0.77, 9.28 2.32 M9.28 2.32 C9.28 44.48, 9.28 86.64, 9.28 152.73 M9.28 2.32 C9.28 60.38, 9.28 118.45, 9.28 152.73 M9.28 152.73 C9.28 154.28, 8.51 155.05, 6.96 155.05 M9.28 152.73 C9.28 154.28, 8.51 155.05, 6.96 155.05 M6.96 155.05 C5.97 155.05, 4.98 155.05, 2.32 155.05 M6.96 155.05 C5.16 155.05, 3.35 155.05, 2.32 155.05 M2.32 155.05 C0.77 155.05, 0 154.28, 0 152.73 M2.32 155.05 C0.77 155.05, 0 154.28, 0 152.73 M0 152.73 C0 113.11, 0 73.5, 0 2.32 M0 152.73 C0 118.63, 0 84.53, 0 2.32 M0 2.32 C0 0.77, 0.77 0, 2.32 0 M0 2.32 C0 0.77, 0.77 0, 2.32 0" stroke="#2f9e44" stroke-width="1" fill="none"></path></g><g mask="url(#mask-CmX7T_VfXpU2AgohlxZbc)" stroke-linecap="round"><g transform="translate(342.5543904226224 282.95427542072866) rotate(0 140.17547444325646 0)"><path d="M0 0 C46.73 0, 233.63 0, 280.35 0 M0 0 C46.73 0, 233.63 0, 280.35 0" stroke="#000000" stroke-width="1" fill="none"></path></g><g transform="translate(342.5543904226224 282.95427542072866) rotate(0 140.17547444325646 0)"><path d="M0 0 L13.59 -6.34 L13.59 6.34 L0 0" stroke="none" stroke-width="0" fill="#000000" fill-rule="evenodd"></path><path d="M0 0 C4.51 -2.1, 9.02 -4.2, 13.59 -6.34 M0 0 C3.37 -1.57, 6.74 -3.14, 13.59 -6.34 M13.59 -6.34 C13.59 -2.31, 13.59 1.72, 13.59 6.34 M13.59 -6.34 C13.59 -1.59, 13.59 3.16, 13.59 6.34 M13.59 6.34 C10.76 5.02, 7.93 3.7, 0 0 M13.59 6.34 C10.81 5.04, 8.03 3.74, 0 0 M0 0 C0 0, 0 0, 0 0 M0 0 C0 0, 0 0, 0 0" stroke="#000000" stroke-width="1" fill="none"></path></g></g><mask id="mask-CmX7T_VfXpU2AgohlxZbc"><rect x="0" y="0" fill="#fff" width="722.9053393091351" height="382.95427542072866"></rect><rect x="449.39389684830076" y="272.95427542072866" fill="#000" width="66.67193603515625" height="20" opacity="1"></rect></mask><g transform="translate(449.39389684830076 272.95427542072866) rotate(0 33.335968017578125 10)"><text x="33.335968017578125" y="0" font-family="Virgil, Segoe UI Emoji" font-size="16px" fill="#000000" text-anchor="middle" style="white-space: pre;" direction="ltr" dominant-baseline="text-before-edge">add API</text></g><g transform="translate(293.3954963776514 10) rotate(0 42.58995819091797 25)"><text x="42.58995819091797" y="0" font-family="Virgil, Segoe UI Emoji" font-size="20px" fill="#000000" text-anchor="middle" style="white-space: pre;" direction="ltr" dominant-baseline="text-before-edge">Platform</text><text x="42.58995819091797" y="25" font-family="Virgil, Segoe UI Emoji" font-size="20px" fill="#000000" text-anchor="middle" style="white-space: pre;" direction="ltr" dominant-baseline="text-before-edge">Cluster</text></g><g stroke-linecap="round"><g transform="translate(632.4250061219554 69.84936586556069) rotate(0 0 168.52826532908148)"><path d="M0 0 C0 56.18, 0 280.88, 0 337.06 M0 0 C0 56.18, 0 280.88, 0 337.06" stroke="#000000" stroke-width="1" fill="none"></path></g></g><mask></mask><g mask="url(#mask-geuI0QYjcjYdwygAAOTPe)" stroke-linecap="round"><g transform="translate(630.7782750112456 244.1650753569411) rotate(0 -147.33940868872924 0)"><path d="M0 0 C-49.11 0, -245.57 0, -294.68 0 M0 0 C-49.11 0, -245.57 0, -294.68 0" stroke="#000000" stroke-width="1" fill="none"></path></g><g transform="translate(630.7782750112456 244.1650753569411) rotate(0 -147.33940868872924 0)"><path d="M0 0 L-13.59 6.34 L-13.59 -6.34 L0 0" stroke="none" stroke-width="0" fill="#000000" fill-rule="evenodd"></path><path d="M0 0 C-3 1.4, -6.01 2.8, -13.59 6.34 M0 0 C-3.72 1.74, -7.45 3.47, -13.59 6.34 M-13.59 6.34 C-13.59 3.44, -13.59 0.54, -13.59 -6.34 M-13.59 6.34 C-13.59 1.28, -13.59 -3.77, -13.59 -6.34 M-13.59 -6.34 C-10.72 -5, -7.85 -3.66, 0 0 M-13.59 -6.34 C-9.46 -4.41, -5.33 -2.48, 0 0 M0 0 C0 0, 0 0, 0 0 M0 0 C0 0, 0 0, 0 0" stroke="#000000" stroke-width="1" fill="none"></path></g></g><mask id="mask-geuI0QYjcjYdwygAAOTPe"><rect x="0" y="0" fill="#fff" width="1025.4570923887043" height="344.1650753569411"></rect><rect x="428.1909110002507" y="234.1650753569411" fill="#000" width="110.49591064453125" height="20" opacity="1"></rect></mask><g transform="translate(428.1909110002507 234.1650753569411) rotate(0 55.247955322265625 10)"><text x="55.247955322265625" y="0" font-family="Virgil, Segoe UI Emoji" font-size="16px" fill="#000000" text-anchor="middle" style="white-space: pre;" direction="ltr" dominant-baseline="text-before-edge">install promise</text></g><g stroke-linecap="round" transform="translate(628.387790133047 240.8539118691915) rotate(0 4.639756944444343 70.00238334922733)"><path d="M2.32 0 L8.7 0.58 L9.28 2.32 L9.28 137.68 L8.7 139.42 L6.96 140 L2.32 140 L0.58 139.42 L0 137.68 L0 2.32 L0.58 0.58 L2.32 0" stroke="none" stroke-width="0" fill="#b2f2bb"></path><path d="M2.32 0 M2.32 0 C3.31 0, 4.31 0, 6.96 0 M2.32 0 C3.64 0, 4.96 0, 6.96 0 M6.96 0 C8.51 0, 9.28 0.77, 9.28 2.32 M6.96 0 C8.51 0, 9.28 0.77, 9.28 2.32 M9.28 2.32 C9.28 39.27, 9.28 76.23, 9.28 137.68 M9.28 2.32 C9.28 31.27, 9.28 60.23, 9.28 137.68 M9.28 137.68 C9.28 139.23, 8.51 140, 6.96 140 M9.28 137.68 C9.28 139.23, 8.51 140, 6.96 140 M6.96 140 C5.65 140, 4.34 140, 2.32 140 M6.96 140 C5.79 140, 4.63 140, 2.32 140 M2.32 140 C0.77 140, 0 139.23, 0 137.68 M2.32 140 C0.77 140, 0 139.23, 0 137.68 M0 137.68 C0 90.72, 0 43.75, 0 2.32 M0 137.68 C0 99.04, 0 60.39, 0 2.32 M0 2.32 C0 0.77, 0.77 0, 2.32 0 M0 2.32 C0 0.77, 0.77 0, 2.32 0" stroke="#2f9e44" stroke-width="1" fill="none"></path></g><g mask="url(#mask-_J408kS_QEl_069WIm62m)" stroke-linecap="round"><g transform="translate(339.1159341788116 326.51181876237024) rotate(0 141.61639876345453 0)"><path d="M0 0 C47.21 0, 236.03 0, 283.23 0 M0 0 C47.21 0, 236.03 0, 283.23 0" stroke="#228be6" stroke-width="1" fill="none"></path></g><g transform="translate(339.1159341788116 326.51181876237024) rotate(0 141.61639876345453 0)"><path d="M0 0 L13.59 -6.34 L13.59 6.34 L0 0" stroke="none" stroke-width="0" fill="#228be6" fill-rule="evenodd"></path><path d="M0 0 C3.34 -1.56, 6.69 -3.12, 13.59 -6.34 M0 0 C4.46 -2.08, 8.92 -4.16, 13.59 -6.34 M13.59 -6.34 C13.59 -3.62, 13.59 -0.9, 13.59 6.34 M13.59 -6.34 C13.59 -3.66, 13.59 -0.98, 13.59 6.34 M13.59 6.34 C9.88 4.61, 6.17 2.88, 0 0 M13.59 6.34 C8.36 3.9, 3.13 1.46, 0 0 M0 0 C0 0, 0 0, 0 0 M0 0 C0 0, 0 0, 0 0" stroke="#228be6" stroke-width="1" fill="none"></path></g></g><mask id="mask-_J408kS_QEl_069WIm62m"><rect x="0" y="0" fill="#fff" width="722.3487317057202" height="426.51181876237024"></rect><rect x="375.34839892127" y="306.51181876237024" fill="#000" width="210.7678680419922" height="40" opacity="1"></rect></mask><g transform="translate(375.34839892127 306.51181876237024) rotate(0 105.3839340209961 20)"><text x="105.3839340209961" y="0" font-family="Virgil, Segoe UI Emoji" font-size="16px" fill="#228be6" text-anchor="middle" style="white-space: pre;" direction="ltr" dominant-baseline="text-before-edge">get destinations with label</text><text x="105.3839340209961" y="20" font-family="Virgil, Segoe UI Emoji" font-size="16px" fill="#228be6" text-anchor="middle" style="white-space: pre;" direction="ltr" dominant-baseline="text-before-edge">environment = dev</text></g><g mask="url(#mask-btdI9BBDie70IyM8lM6AF)" stroke-linecap="round"><g transform="translate(633.5069040341832 380.2608176642925) rotate(0 -147.93190937932604 -1.4838930769528815)"><path d="M0 0 C-49.31 -0.49, -246.55 -2.47, -295.86 -2.97" stroke="#e03131" stroke-width="1.5" fill="none" stroke-dasharray="8 9"></path></g><g transform="translate(633.5069040341832 380.2608176642925) rotate(0 -147.93190937932604 -1.4838930769528815)"><path d="M0 0 L-13.66 6.2 L-13.53 -6.48 L0 0" stroke="none" stroke-width="0" fill="#e03131" fill-rule="evenodd"></path><path d="M0 0 C-4.07 1.85, -8.14 3.7, -13.66 6.2 M-13.66 6.2 C-13.62 2.08, -13.57 -2.04, -13.53 -6.48 M-13.53 -6.48 C-10.31 -4.93, -7.09 -3.39, 0 0 M0 0 C0 0, 0 0, 0 0" stroke="#e03131" stroke-width="1.5" fill="none"></path></g></g><mask id="mask-btdI9BBDie70IyM8lM6AF"><rect x="0" y="0" fill="#fff" width="1029.3707227928353" height="483.2286038181983"></rect><rect x="400.8550392105208" y="368.77692458733964" fill="#000" width="169.43991088867188" height="20" opacity="1"></rect></mask><g transform="translate(400.8550392105208 368.77692458733964) rotate(0 84.71995544433639 10)"><text x="84.71995544433594" y="0" font-family="Virgil, Segoe UI Emoji" font-size="16px" fill="#e03131" text-anchor="middle" style="white-space: pre;" direction="ltr" dominant-baseline="text-before-edge">no destinations found</text></g><g stroke-linecap="round" transform="translate(523.3644355902652 391.454235063291) rotate(0 106.44407787044429 21.002838035788955)"><path d="M10.5 0 L202.39 0 L206.98 0.66 L210.26 2.63 L212.23 5.91 L212.89 10.5 L212.89 31.5 L212.23 36.1 L210.26 39.38 L206.98 41.35 L202.39 42.01 L10.5 42.01 L5.91 41.35 L2.63 39.38 L0.66 36.1 L0 31.5 L0 10.5 L0.66 5.91 L2.63 2.63 L5.91 0.66 L10.5 0" stroke="none" stroke-width="0" fill="#ffc9c9"></path><path d="M10.5 0 M10.5 0 C51.34 0, 92.17 0, 202.39 0 M10.5 0 C85.04 0, 159.58 0, 202.39 0 M202.39 0 C209.39 0, 212.89 3.5, 212.89 10.5 M202.39 0 C209.39 0, 212.89 3.5, 212.89 10.5 M212.89 10.5 C212.89 16.03, 212.89 21.57, 212.89 31.5 M212.89 10.5 C212.89 15.26, 212.89 20.02, 212.89 31.5 M212.89 31.5 C212.89 38.51, 209.39 42.01, 202.39 42.01 M212.89 31.5 C212.89 38.51, 209.39 42.01, 202.39 42.01 M202.39 42.01 C133.7 42.01, 65 42.01, 10.5 42.01 M202.39 42.01 C154.22 42.01, 106.04 42.01, 10.5 42.01 M10.5 42.01 C3.5 42.01, 0 38.51, 0 31.5 M10.5 42.01 C3.5 42.01, 0 38.51, 0 31.5 M0 31.5 C0 26.56, 0 21.62, 0 10.5 M0 31.5 C0 26.9, 0 22.29, 0 10.5 M0 10.5 C0 3.5, 3.5 0, 10.5 0 M0 10.5 C0 3.5, 3.5 0, 10.5 0" stroke="#e64980" stroke-width="1" fill="none"></path></g><g transform="translate(548.9488399575494 405.8994734971857) rotate(0 81.06394958496094 10)"><text x="81.06394958496094" y="0" font-family="Virgil, Segoe UI Emoji" font-size="16px" fill="#e64980" text-anchor="middle" style="white-space: pre;" direction="ltr" dominant-baseline="text-before-edge">error: can't schedule</text></g></svg>
