<svg preserveAspectRatio="xMidYMid meet" data-bbox="19.599 22.5 160.801 155" viewBox="19.599 22.5 160.801 155" height="200" width="200" xmlns="http://www.w3.org/2000/svg" data-type="color" role="presentation" aria-hidden="true"><defs><style>#comp-l76axt59 svg [data-color="1"] {fill: #940DAE;}</style></defs>
    <g>
        <path d="M132.255 143.175h-64.51c-20.463 0-37.11-16.647-37.11-37.106 0-20.463 16.647-37.11 37.11-37.11h64.511c20.463 0 37.11 16.647 37.11 37.11-.001 20.459-16.648 37.106-37.111 37.106zM67.745 74.58c-17.364 0-31.489 14.125-31.489 31.489 0 17.36 14.125 31.485 31.489 31.485h64.511c17.364 0 31.489-14.125 31.489-31.485 0-17.364-14.125-31.489-31.489-31.489H67.745z" fill="#940dae" data-color="1"></path>
        <path d="M34.298 177.5c-2.474 0-4.973-.644-7.275-1.954-5.522-3.136-8.332-9.193-7.161-15.435l10.96-58.433a2.799 2.799 0 0 1 3.283-2.243 2.815 2.815 0 0 1 2.243 3.283l-10.96 58.433c-.878 4.666 1.705 7.974 4.413 9.511 2.704 1.533 6.869 2.06 10.429-1.083l33.392-29.472a2.81 2.81 0 1 1 3.718 4.216l-33.392 29.472c-2.774 2.446-6.189 3.705-9.65 3.705z" fill="#940dae" data-color="1"></path>
        <path d="M165.702 177.5c-3.462 0-6.876-1.259-9.65-3.707l-33.392-29.472a2.812 2.812 0 0 1-.249-3.967 2.81 2.81 0 0 1 3.967-.249l33.392 29.472c3.561 3.147 7.729 2.62 10.429 1.083 2.708-1.537 5.291-4.845 4.413-9.511l-10.96-58.433a2.815 2.815 0 0 1 2.243-3.283 2.807 2.807 0 0 1 3.283 2.243l10.96 58.433c1.171 6.243-1.639 12.299-7.161 15.435-2.302 1.312-4.801 1.956-7.275 1.956z" fill="#940dae" data-color="1"></path>
        <path d="M65.278 121.032a2.81 2.81 0 0 1-2.81-2.81V92.09a2.81 2.81 0 0 1 5.62 0v26.131a2.81 2.81 0 0 1-2.81 2.811z" fill="#940dae" data-color="1"></path>
        <path d="M78.342 107.968H52.211a2.81 2.81 0 0 1 0-5.62h26.131a2.81 2.81 0 0 1 0 5.62z" fill="#940dae" data-color="1"></path>
        <path d="M133.478 122.28c-9.441 0-17.122-7.681-17.122-17.122s7.681-17.122 17.122-17.122 17.122 7.681 17.122 17.122-7.681 17.122-17.122 17.122zm0-28.623c-6.342 0-11.502 5.16-11.502 11.501 0 6.342 5.16 11.501 11.502 11.501s11.501-5.16 11.501-11.501c0-6.342-5.159-11.501-11.501-11.501z" fill="#940dae" data-color="1"></path>
        <path d="M114.676 74.58H85.324a2.81 2.81 0 0 1-2.81-2.81V59.657a2.811 2.811 0 0 1 2.81-2.81h29.352a2.81 2.81 0 0 1 2.81 2.81V71.77a2.81 2.81 0 0 1-2.81 2.81zm-26.542-5.621h23.731v-6.492H88.134v6.492z" fill="#940dae" data-color="1"></path>
        <path d="M100.155 61.084a2.81 2.81 0 0 1-2.81-2.81V25.31a2.81 2.81 0 0 1 5.62 0v32.964a2.81 2.81 0 0 1-2.81 2.81z" fill="#940dae" data-color="1"></path>
    </g>
</svg>