<svg preserveAspectRatio="xMidYMid meet" data-bbox="20 35 160 130" viewBox="20 35 160 130" height="200" width="200" xmlns="http://www.w3.org/2000/svg" data-type="color" role="presentation" aria-hidden="true"><defs><style>#comp-l76arlq1 svg [data-color="1"] {fill: #940DAE;}</style></defs>
    <g>
        <path d="M176.19 42.647H23.81A3.817 3.817 0 0 1 20 38.823 3.816 3.816 0 0 1 23.81 35h152.38a3.817 3.817 0 0 1 3.81 3.824 3.816 3.816 0 0 1-3.81 3.823z" fill="#940DAE" data-color="1"></path>
        <path d="M176.19 154.804H23.81c-2.104 0-3.81-1.712-3.81-3.824s1.705-3.824 3.81-3.824h152.38c2.104 0 3.81 1.712 3.81 3.824s-1.705 3.824-3.81 3.824z" fill="#940DAE" data-color="1"></path>
        <path d="M23.81 154.804A3.817 3.817 0 0 1 20 150.98V38.824C20 36.712 21.705 35 23.81 35s3.81 1.712 3.81 3.824V150.98a3.818 3.818 0 0 1-3.81 3.824z" fill="#940DAE" data-color="1"></path>
        <path d="M176.19 154.804a3.817 3.817 0 0 1-3.81-3.824V38.824c0-2.112 1.705-3.824 3.81-3.824s3.81 1.712 3.81 3.824V150.98a3.816 3.816 0 0 1-3.81 3.824z" fill="#940DAE" data-color="1"></path>
        <path d="M105.13 108.922c-2.104 0-3.86-1.712-3.86-3.824s1.655-3.824 3.759-3.824h.101c2.104 0 3.81 1.712 3.81 3.824s-1.706 3.824-3.81 3.824z" fill="#940DAE" data-color="1"></path>
        <path d="M105.13 93.627c-2.104 0-3.86-1.712-3.86-3.824s1.655-3.824 3.759-3.824h.101a3.817 3.817 0 0 1 3.81 3.824 3.817 3.817 0 0 1-3.81 3.824z" fill="#940DAE" data-color="1"></path>
        <path d="M135.556 73.235H105.08c-2.104 0-3.81-1.712-3.81-3.824s1.705-3.824 3.81-3.824h30.476c2.104 0 3.81 1.712 3.81 3.824s-1.706 3.824-3.81 3.824z" fill="#940DAE" data-color="1"></path>
        <path d="M120.368 108.922c-2.104 0-3.86-1.712-3.86-3.824s1.655-3.824 3.759-3.824h.101c2.104 0 3.81 1.712 3.81 3.824s-1.706 3.824-3.81 3.824z" fill="#940DAE" data-color="1"></path>
        <path d="M120.368 93.627c-2.104 0-3.86-1.712-3.86-3.824s1.655-3.824 3.759-3.824h.101a3.817 3.817 0 0 1 3.81 3.824 3.816 3.816 0 0 1-3.81 3.824z" fill="#940DAE" data-color="1"></path>
        <path d="M135.606 108.922c-2.104 0-3.86-1.712-3.86-3.824s1.655-3.824 3.759-3.824h.101c2.104 0 3.81 1.712 3.81 3.824s-1.706 3.824-3.81 3.824z" fill="#940DAE" data-color="1"></path>
        <path d="M135.606 93.627c-2.104 0-3.86-1.712-3.86-3.824s1.655-3.824 3.759-3.824h.101a3.817 3.817 0 0 1 3.81 3.824 3.816 3.816 0 0 1-3.81 3.824z" fill="#940DAE" data-color="1"></path>
        <path d="M105.13 124.216c-2.104 0-3.86-1.712-3.86-3.824s1.655-3.824 3.759-3.824h.101a3.817 3.817 0 0 1 3.81 3.824 3.818 3.818 0 0 1-3.81 3.824z" fill="#940DAE" data-color="1"></path>
        <path d="M120.368 124.216c-2.104 0-3.86-1.712-3.86-3.824s1.655-3.824 3.759-3.824h.101a3.817 3.817 0 0 1 3.81 3.824 3.817 3.817 0 0 1-3.81 3.824z" fill="#940DAE" data-color="1"></path>
        <path d="M135.606 124.216c-2.104 0-3.86-1.712-3.86-3.824s1.655-3.824 3.759-3.824h.101a3.817 3.817 0 0 1 3.81 3.824 3.817 3.817 0 0 1-3.81 3.824z" fill="#940DAE" data-color="1"></path>
        <path d="M44.127 114.02a3.817 3.817 0 0 1-3.81-3.824V79.608c0-2.112 1.705-3.824 3.81-3.824s3.81 1.712 3.81 3.824v30.588a3.817 3.817 0 0 1-3.81 3.824z" fill="#940DAE" data-color="1"></path>
        <path d="M33.968 165a3.817 3.817 0 0 1-3.81-3.824V150.98c0-2.112 1.705-3.824 3.81-3.824s3.81 1.712 3.81 3.824v10.196a3.817 3.817 0 0 1-3.81 3.824z" fill="#940DAE" data-color="1"></path>
        <path d="M166.032 165a3.817 3.817 0 0 1-3.81-3.824V150.98a3.816 3.816 0 0 1 3.81-3.824 3.817 3.817 0 0 1 3.81 3.824v10.196a3.818 3.818 0 0 1-3.81 3.824z" fill="#940DAE" data-color="1"></path>
    </g>
</svg>