<svg width="170" height="68" viewBox="0 0 170 68" fill="none" xmlns="http://www.w3.org/2000/svg">
<path fill-rule="evenodd" clip-rule="evenodd" d="M85.0281 0C66.2115 0 51 15.3541 51 34.3492C51 49.533 60.7465 62.3858 74.2675 66.9348C75.958 67.2768 76.5772 66.1957 76.5772 65.2863C76.5772 64.49 76.5214 61.7605 76.5214 58.9165C67.0556 60.9642 65.0845 54.8218 65.0845 54.8218C63.5633 50.8409 61.3093 49.8178 61.3093 49.8178C58.2111 47.7136 61.535 47.7136 61.535 47.7136C64.9716 47.9411 66.7749 51.2394 66.7749 51.2394C69.8167 56.471 74.7181 54.9928 76.69 54.0827C76.9714 51.8648 77.8734 50.3294 78.8311 49.4765C71.2815 48.6802 63.3383 45.7231 63.3383 32.5291C63.3383 28.7757 64.6895 25.7049 66.8307 23.3166C66.4929 22.4638 65.3095 18.9372 67.1692 14.2172C67.1692 14.2172 70.0424 13.3071 76.5208 17.7431C79.2944 16.9912 82.1548 16.6087 85.0281 16.6055C87.9013 16.6055 90.8302 17.004 93.5348 17.7431C100.014 13.3071 102.887 14.2172 102.887 14.2172C104.747 18.9372 103.563 22.4638 103.225 23.3166C105.422 25.7049 106.718 28.7757 106.718 32.5291C106.718 45.7231 98.7748 48.623 91.1687 49.4765C92.4085 50.5569 93.4784 52.6039 93.4784 55.8457C93.4784 60.4519 93.4227 64.1487 93.4227 65.2856C93.4227 66.1957 94.0426 67.2768 95.7324 66.9355C109.253 62.3851 119 49.533 119 34.3492C119.056 15.3541 103.788 0 85.0281 0Z" fill="#24292F"/>
</svg>
