<svg width="170" height="68" viewBox="0 0 170 68" fill="none" xmlns="http://www.w3.org/2000/svg">
<g clip-path="url(#clip0_102_6924)">
<path d="M102.702 54.5331H102.369V60.2623H98.2457V45.998L102.369 39.5673V52.8768C103.19 51.8732 105.955 48.0635 105.955 48.0635H111.046L106.219 53.1593L111.212 60.272H106.004L102.702 54.5331ZM91.2103 53.5978L92.9008 48.1025H96.9852L92.1973 60.2233C90.7706 63.8673 88.7284 66.3324 85.6797 66.3324C84.5072 66.3324 83.5203 66.0303 83.0024 65.738L84.644 63.2048C84.8882 63.234 85.1423 63.2437 85.3964 63.2437C86.8034 63.2437 87.8588 61.8797 88.5427 60.2623L83.5203 48.1025H88.1421L89.9498 53.5296C90.3016 54.5624 90.5557 56.5305 90.5557 56.5305C90.5557 56.5305 90.8781 54.6306 91.2103 53.5978ZM78.7518 53.3152C78.7518 51.7271 78.0483 50.9768 76.7096 50.9768C76.0549 50.9768 75.3709 51.1619 74.9019 51.4445V60.2623H70.7783V48.2194L74.8139 47.8882L74.7162 49.8563H74.853C75.7227 48.6871 77.1982 47.8005 78.957 47.8005C81.0676 47.8005 82.8949 49.1061 82.8949 52.1947V60.2623H78.7518V53.3152ZM58.9745 59.6387L59.3458 56.8326C60.6356 57.4659 62.0916 57.7679 63.313 57.7679C64.2022 57.7679 64.7885 57.4659 64.7885 56.93C64.7885 55.3906 59.2286 55.7608 59.2286 51.7368C59.2286 49.1645 61.5932 47.8102 64.554 47.8102C66.0295 47.8102 67.5538 48.2097 68.5407 48.5605L68.1401 51.3178C67.1043 50.9184 65.6972 50.5481 64.5247 50.5481C63.8016 50.5481 63.2153 50.8014 63.2153 51.2691C63.2153 52.7891 68.8925 52.487 68.8925 56.4136C68.8925 59.0248 66.5669 60.5253 63.3814 60.5253C61.6226 60.5253 60.1959 60.2233 58.9745 59.6387Z" fill="#091C30"/>
<path d="M95.3829 11.3878H74.8713C74.8713 10.1058 76.7253 6.23062 80.4334 -0.237793C80.4334 -0.237793 80.9468 3.17363 81.9736 9.99648L88.2399 9.99664L89.778 -0.237793C93.5146 6.31639 95.3829 10.1916 95.3829 11.3878Z" fill="white"/>
<path d="M85.0957 43.8205L71.1488 34.0616V11.2849C71.1488 11.2849 76.3054 9.38454 85.1136 9.38454C93.9218 9.38454 99.0407 11.2849 99.0407 11.2849V34.0616L85.0957 43.8205Z" fill="white"/>
<path d="M85.0957 42.4488L72.0399 33.3515V12.1991C72.0399 12.1991 76.9222 10.4342 85.0957 10.4342V42.4488Z" fill="#DBDBDB"/>
<path d="M85.1135 10.4342C85.1074 10.4342 85.1017 10.4344 85.0957 10.4342V42.4219H85.0959L98.037 33.351V12.1991C98.037 12.1991 93.287 10.4342 85.1135 10.4342Z" fill="#C6C6C6"/>
<path d="M92.1601 37.4718L91.0592 27.9178H85.0085C85.0085 35.5007 85.0085 40.3518 85.0085 42.471L85.0957 42.5533C87.4497 40.9451 89.8045 39.2513 92.1601 37.4718Z" fill="#3B3B63"/>
<path d="M78.0351 37.5472L85.0957 42.5533L85.0992 27.6269H78.9843L78.0351 37.5472Z" fill="#53537A"/>
<path d="M88.117 34.7192C88.117 36.3606 86.5574 37.1743 85.1266 37.1743C83.6959 37.1743 82.1047 36.3606 82.1047 34.7192" fill="#BC9375"/>
<path d="M85.1108 35.5681C83.9621 35.5681 83.4036 34.7397 83.4036 33.0367H83.9512C83.9512 35.0305 84.7342 35.0305 85.1108 35.0305C85.4872 35.0305 86.2703 35.0305 86.2703 33.0367H86.8178C86.8178 34.7397 86.2592 35.5681 85.1108 35.5681Z" fill="white"/>
<path d="M85.0957 33.4524C85.4491 34.3658 86.1322 34.8225 87.145 34.8225C88.1366 34.8225 89.1714 34.3095 89.6426 33.0418C90.3008 31.2685 90.2942 28.8003 90.2942 28.8003C90.2942 28.8003 93.219 25.2021 93.219 23.9855C93.219 23.9855 90.5113 23.9855 85.0957 23.9855V33.4524Z" fill="#C49A7E"/>
<path d="M76.8545 23.9855C76.8545 25.3945 79.7541 28.8003 79.7541 28.8003C79.7541 28.8003 79.7469 31.2678 80.4058 33.0418C80.876 34.3086 81.9118 34.8225 82.9036 34.8225C83.9164 34.8225 84.6471 34.3658 85.0957 33.4524V23.9855H76.8545Z" fill="#D8B7A0"/>
<path d="M92.8699 15.8838C90.6152 13.6121 90.0513 8.8749 90.0513 8.8749C89.6303 10.3676 88.7153 14.7687 88.7153 14.7687C88.7153 14.7687 86.9382 14.2039 85.0239 14.2009C84.961 14.2009 84.961 20.1306 85.0239 31.9901L86.8463 30.6957L87.1851 24.4139L89.1256 26.5896L91.6254 27.3074C91.6254 27.3074 92.5607 26.6521 92.5607 26.6545C92.9578 26.108 93.0895 25.6424 93.1855 25.4008C93.5327 24.5219 92.7532 17.8 92.7532 17.8C92.4764 17.2308 92.8699 15.8838 92.8699 15.8838Z" fill="#3B3B63"/>
<path d="M81.5237 14.7683C81.5237 14.7683 80.6083 10.3674 80.1877 8.87455C80.1877 8.87455 79.6242 13.6117 77.3691 15.8835C77.3691 15.8835 77.7626 17.2306 77.4858 17.7997C77.4858 17.7997 76.7063 24.5219 77.0535 25.3994C77.1494 25.6412 77.2821 26.1066 77.6787 26.6531C77.6787 26.6507 78.6145 27.3062 78.6145 27.3062L81.1138 26.5882L83.0539 24.4129L83.3936 30.6947L85.0975 31.9548V14.1675C83.1761 14.1707 81.5237 14.7683 81.5237 14.7683Z" fill="#53537A"/>
<path d="M91.2921 4.48485C91.6662 5.16996 94.8821 11.5037 94.8821 13.697L93.4557 17.5147C93.697 19.6689 94.177 24.3495 93.8147 25.264C93.591 25.8296 92.7384 26.9932 92.0091 27.9355L93.0061 36.8781L91.6583 37.8318L90.9089 31.2977C90.8059 31.9608 90.651 32.6688 90.4149 33.3046C90.1026 34.1461 89.5508 34.7838 88.8451 35.1615C88.8037 37.1789 86.9105 38.2673 85.1266 38.2673C83.328 38.2673 81.4189 37.1798 81.3768 35.1631C80.6696 34.7847 80.1171 34.147 79.8045 33.3046C79.5778 32.6933 79.4251 32.0166 79.3215 31.3757L78.6047 37.9519L77.2495 36.9827L78.2281 27.9628C77.4931 27.0163 76.6241 25.8354 76.3983 25.2635C76.036 24.3488 76.4972 19.6689 76.7389 17.5144L75.2278 13.5629V13.4341C75.2278 11.2408 78.5279 5.16996 78.9025 4.48485L79.9713 2.56143C80.6221 7.01779 80.9472 9.24796 80.9468 9.25192L81.4731 12.8631L82.1654 13.9816C82.8308 13.7609 83.9602 13.4546 85.1038 13.4546C86.2487 13.4546 87.3858 13.762 88.0539 13.9823L88.746 12.8633L90.2454 2.56143L91.2921 4.48485ZM85.1266 36.8334C85.9162 36.8334 87.0406 36.4826 87.3213 35.5527C87.2912 35.5536 87.2621 35.556 87.232 35.556C87.0784 35.556 86.9347 35.5419 86.7953 35.5231C86.3881 36.0797 85.7536 36.2485 85.1109 36.2485C84.4693 36.2485 83.8361 36.0781 83.4296 35.5224C83.2893 35.542 83.1441 35.556 82.9892 35.556C82.9596 35.556 82.9311 35.5536 82.902 35.5527C83.1856 36.4826 84.3252 36.8334 85.1266 36.8334ZM84.202 35.305C84.4469 35.4852 84.7495 35.5854 85.1115 35.5854C85.4715 35.5854 85.7727 35.4845 86.0172 35.305C85.8222 35.2198 85.6458 35.1183 85.4902 35.0076C85.3494 35.0485 85.2147 35.0476 85.1108 35.0476C85.0063 35.0476 84.8702 35.0476 84.7283 35.0067C84.5731 35.1183 84.397 35.2198 84.202 35.305ZM89.8121 28.3676C90.7822 27.1843 92.2425 25.2783 92.4541 24.7449C92.6136 24.1957 92.3415 20.555 91.9952 17.5035L91.9761 17.3343L92.2623 16.5763C91.3186 15.5881 90.6603 14.234 90.2104 12.9553L90.152 13.357L88.662 15.7622L88.0801 15.5187C88.0659 15.5126 86.5467 14.8878 85.1047 14.8878C83.6534 14.8878 82.1589 15.512 82.1442 15.5182L81.5615 15.7638L80.0697 13.3575L80.0255 13.0492C79.5709 14.3155 78.9118 15.6459 77.9726 16.6125L78.246 17.3349L78.2269 17.5042C77.8804 20.555 77.6083 24.1957 77.7731 24.7587C77.9793 25.2792 79.4399 27.1851 80.4094 28.3676L80.5712 28.5652L80.5704 28.8183C80.5704 28.8421 80.5732 31.1831 81.1781 32.8123C81.6172 33.9939 82.5914 34.1202 82.9904 34.1202C83.9935 34.1202 84.4178 33.2162 84.4353 33.1778C84.6704 32.7235 84.7879 31.9773 84.7879 30.939H85.3943C85.3943 31.7732 85.5207 32.5211 85.7736 33.1826C85.7889 33.2154 86.2239 34.1225 87.232 34.1225C87.6301 34.1225 88.6047 33.9948 89.0434 32.8132C89.6503 31.1782 89.651 28.8421 89.651 28.8192L89.6503 28.566L89.8121 28.3676Z" fill="#333152"/>
<path d="M89.6467 22.0047H87.4564H86.7264V22.0349C86.7264 23.0363 87.6082 23.8476 88.6426 23.8476C89.6774 23.8476 90.5592 23.0362 90.5592 22.0349V22.0047H89.6467Z" fill="#333152"/>
<path d="M87.4564 22.0047V22.0349C87.4564 22.6306 87.9447 23.1133 88.5517 23.1133C89.1587 23.1133 89.6469 22.6306 89.6469 22.0349V22.0047H87.4564Z" fill="white"/>
<path d="M88.3764 22.0047C88.3714 22.0047 88.3671 22.0071 88.3626 22.008C88.4263 22.0211 88.4615 22.1628 88.4478 22.2571C88.4273 22.4013 88.3022 22.5013 88.1589 22.5038C88.2006 22.6922 88.3571 22.8437 88.5649 22.8724C88.8305 22.9093 89.0759 22.7305 89.1135 22.47C89.1406 22.2783 89.0467 22.0047 88.8896 22.0047H88.3764Z" fill="#333152"/>
<path d="M82.5971 22.0047H80.4071H79.6769V22.0349C79.6769 23.0363 80.5589 23.8476 81.5932 23.8476C82.6279 23.8476 83.51 23.0362 83.51 22.0349V22.0047H82.5971Z" fill="#333152"/>
<path d="M80.4071 22.0047V22.0349C80.4071 22.6306 80.8958 23.1133 81.5019 23.1133C82.1091 23.1133 82.5973 22.6306 82.5973 22.0349V22.0047H80.4071Z" fill="white"/>
<path d="M81.8404 22.0047H81.3265C81.3221 22.0047 81.3173 22.0071 81.3132 22.008C81.3766 22.0211 81.4117 22.1628 81.3984 22.2571C81.3777 22.4013 81.2533 22.5013 81.1091 22.5038C81.1514 22.6922 81.3078 22.8437 81.5153 22.8724C81.7807 22.9093 82.0266 22.7305 82.0637 22.47C82.0911 22.2783 81.9974 22.0047 81.8404 22.0047Z" fill="#333152"/>
<path d="M89.4264 21.1498C89.5491 21.0179 90.5901 19.8584 89.1978 19.8584C87.9397 19.8584 87.0345 20.8549 86.7946 21.1498H89.4264Z" fill="#C49A7E"/>
<path d="M83.421 21.1498C83.1813 20.8549 82.2761 19.8584 81.0177 19.8584C79.6261 19.8584 80.6671 21.0179 80.789 21.1498H83.421Z" fill="#D8B7A0"/>
<path d="M76.7279 13.3174C76.8106 12.1797 78.0162 9.45381 79.1663 7.15652L79.4729 9.25699C79.3559 10.0423 78.8216 13.1224 77.3884 15.0638L76.7279 13.3174Z" fill="#D8B7A0"/>
<path d="M90.7731 9.09342L91.0556 7.15671C92.2055 9.45382 93.4119 12.1799 93.4946 13.3176L92.8496 15.0225C91.301 12.8853 90.8152 9.41096 90.7731 9.09342Z" fill="#C49A7E"/>
<path d="M84.037 32.2147C83.4969 31.8124 82.9429 31.3048 82.9429 30.9154C82.9429 30.6597 83.4036 29.8713 83.4036 29.8713H86.8294C86.8294 29.8713 87.2787 30.5703 87.2787 30.9154C87.2787 31.278 86.7195 31.7716 86.1614 32.1739C85.9715 31.8529 85.7298 31.7971 85.6182 32.0502C85.5605 32.1813 85.5492 32.3701 85.5773 32.5677C85.2735 32.7604 85.0514 32.8845 85.0514 32.8845C85.0514 32.8845 84.8799 32.7862 84.6347 32.6279C84.6743 32.4089 84.6667 32.1946 84.603 32.0502C84.4904 31.7937 84.2439 31.8544 84.0525 32.187C84.0472 32.1961 84.042 32.2054 84.037 32.2147Z" fill="#333152"/>
</g>
<defs>
<clipPath id="clip0_102_6924">
<rect width="55.4348" height="68" fill="white" transform="translate(57)"/>
</clipPath>
</defs>
</svg>
