<svg width="170" height="77" viewBox="0 0 170 77" fill="none" xmlns="http://www.w3.org/2000/svg">
<path d="M73.2072 69.2935V70.5027C72.3888 70.5027 71.6515 70.206 71.07 69.7146C70.3392 69.0976 69.8754 68.1714 69.8754 67.1366V61.0809H71.07V63.8287H73.2072V65.0457H71.07V67.1661C71.0863 68.3436 72.0341 69.2935 73.2072 69.2935Z" fill="#07242D"/>
<path d="M77.4678 63.8282V65.0294C76.3346 65.0318 75.4121 65.9364 75.3711 67.0661V70.5023H74.1736V63.8282H75.3711V64.5901C75.9401 64.1147 76.6708 63.8293 77.4678 63.8282Z" fill="#07242D"/>
<path d="M78.2372 62.2807V61.077H79.4324V62.2807H78.2372ZM78.2372 70.5023V63.8281H79.4324V70.5023H78.2372Z" fill="#07242D"/>
<path d="M86.7619 63.8282L83.4486 70.5023L80.132 63.8282H81.4898L83.4487 67.7693L85.4037 63.8282H86.7619Z" fill="#07242D"/>
<path d="M93.9298 63.8282C93.9298 63.8282 93.9298 71.1249 93.9298 71.6072C93.9298 73.4708 92.4111 74.9583 90.6119 74.9573C89.7693 74.9573 88.9887 74.6358 88.3959 74.1015L89.2554 73.2364C89.6222 73.5488 90.0951 73.739 90.6119 73.7379C91.7763 73.7379 92.7188 72.78 92.7188 71.6072V69.7426C92.1413 70.2239 91.404 70.5023 90.6119 70.5023C88.8094 70.5034 87.2914 69.0396 87.2914 67.1625C87.2914 67.1228 87.2914 63.8283 87.2914 63.8283H88.5019C88.5019 63.8283 88.5025 67.0732 88.5025 67.1625C88.5025 68.3299 89.4468 69.2944 90.6122 69.2932C91.7765 69.2932 92.7191 68.3343 92.7191 67.1625V63.8282H93.9298Z" fill="#07242D"/>
<path d="M82.5809 6.48901L63.0639 17.8387L63.064 40.7204L82.5784 52.1604L102.097 40.7268V17.8381L82.5809 6.48901Z" fill="white"/>
<path d="M82.0477 37.5484V32.8046C79.9148 31.791 78.5754 29.6841 78.603 27.385L74.2104 24.8319C73.9342 27.352 74.5108 29.9598 75.8453 32.2044C77.318 34.6807 79.4038 36.4776 82.0477 37.5484Z" fill="#1904DA"/>
<path d="M82.0477 44.0489V38.5431C79.0721 37.4207 76.7267 35.4445 75.0759 32.668C73.5685 30.1333 72.9639 27.1814 73.3684 24.3424L69.2905 21.9723C66.9484 31.0575 72.3897 40.4753 82.0477 44.0489Z" fill="#1904DA"/>
<path d="M83.0517 38.4909V44.045C92.5298 40.3872 98.1147 30.7891 95.8781 22.0039L91.8271 24.3793C92.3495 27.444 91.855 30.3703 90.3936 32.8499C88.9307 35.3327 86.3938 37.2814 83.0517 38.4909Z" fill="#08B1D5"/>
<path d="M83.0517 32.7963V37.5531C86.0336 36.4107 88.3025 34.6288 89.6223 32.3897C90.9184 30.19 91.3913 27.5938 90.9963 24.8653L86.6076 27.4119C86.5858 29.5943 85.2968 31.5472 83.0517 32.7963Z" fill="#08B1D5"/>
<path d="M87.1866 19.2703C89.0303 20.175 90.537 21.6157 91.5498 23.4403L95.4936 21.1483C95.467 21.1108 95.4423 21.0733 95.4193 21.036C93.8676 18.5103 91.8192 16.61 89.33 15.3881C82.4039 11.9892 73.8045 14.5217 69.6624 21.1484L73.6215 23.4487C76.5864 18.8118 82.5101 16.975 87.1866 19.2703Z" fill="#FFC900"/>
<path d="M82.6875 24.3116C83.3089 24.3116 83.9313 24.4484 84.5148 24.7349H84.5151C85.282 25.1117 85.9093 25.7111 86.334 26.472L90.773 23.8919C89.8498 22.2238 88.4752 20.9071 86.7934 20.0816C82.5343 17.9916 77.1278 19.6698 74.3991 23.9007L78.8157 26.4664C79.7342 25.0889 81.2066 24.3116 82.6875 24.3116Z" fill="#FFC900"/>
<path d="M83.0517 51.0031L101.329 40.2823V18.8081L96.6817 21.5328C99.2354 30.969 93.2771 41.236 83.0517 45.0086V51.0031Z" fill="#08B1D5"/>
<path d="M68.4861 21.5049L63.8326 18.8002V40.2766L82.0477 51.0027V45.0103C71.8016 41.38 65.8719 31.1002 68.4861 21.5049Z" fill="#1904DA"/>
<path d="M89.7228 14.5768C92.367 15.8746 94.54 17.888 96.182 20.5608C96.2081 20.6032 96.2399 20.6478 96.2748 20.6942L100.879 18.0183L82.5809 7.3826L64.2786 18.0208L68.8846 20.6968C73.2614 13.6631 82.3787 10.9721 89.7228 14.5768Z" fill="#FFC900"/>
<path d="M85.6824 27.5628C85.6827 27.5576 85.69 27.3826 85.6771 27.1009C85.6405 26.9859 85.2087 26.1372 84.1307 25.5453C83.3941 25.1411 82.4491 25.0945 81.5364 25.4169C80.6423 25.7331 79.8834 26.3624 79.4482 27.1463C79.4429 27.2145 79.4328 27.376 79.4406 27.5625C79.4996 29.0281 80.4002 31.0207 82.2374 31.9321L82.5203 32.068L82.7659 31.9359C84.5507 30.9303 85.6139 29.3366 85.6824 27.5628Z" fill="#FF0036"/>
<path d="M73.2795 58.5544H71.5792C70.6417 58.5544 69.8789 57.7867 69.8789 56.843C69.8789 55.8994 70.6416 55.1317 71.5792 55.1317C72.5168 55.1317 73.2795 55.8994 73.2795 56.843V58.5544ZM71.5792 55.8268C71.0223 55.8268 70.5695 56.2827 70.5695 56.843C70.5695 57.4035 71.0225 57.8593 71.5792 57.8593H72.5889V56.843C72.5891 56.2827 72.136 55.8268 71.5792 55.8268Z" fill="#07242D"/>
<path d="M84.6887 58.5544H82.9884C82.0509 58.5544 81.2881 57.7867 81.2881 56.843C81.2881 55.8994 82.0508 55.1317 82.9884 55.1317C83.9258 55.1317 84.6887 55.8994 84.6887 56.843V58.5544ZM82.9884 55.8268C82.4315 55.8268 81.9786 56.2827 81.9786 56.843C81.9786 57.4035 82.4317 57.8593 82.9884 57.8593H83.9981V56.843C83.9981 56.2827 83.5452 55.8268 82.9884 55.8268Z" fill="#07242D"/>
<path d="M79.1851 58.5551C78.2472 58.5551 77.484 57.7872 77.484 56.843V55.2372H78.1748V56.843C78.1748 57.4036 78.6279 57.8598 79.1849 57.8598C79.7419 57.8598 80.1951 57.4036 80.1951 56.843V55.2372H80.8858V56.843C80.8861 57.7872 80.123 58.5551 79.1851 58.5551Z" fill="#07242D"/>
<path d="M75.3818 55.1319C74.4443 55.1319 73.6816 55.8995 73.6816 56.8432C73.6816 57.7867 74.4443 58.5545 75.3818 58.5545L76.0722 57.8596H75.3818C74.8249 57.8596 74.372 57.4036 74.372 56.8433C74.372 56.2829 74.8251 55.8271 75.3818 55.8271C75.9386 55.8271 76.3915 56.283 76.3915 56.8433V60.1878H77.0819V56.8433C77.0821 55.8995 76.3192 55.1319 75.3818 55.1319Z" fill="#07242D"/>
</svg>
