<svg width="170" height="68" viewBox="0 0 170 68" fill="none" xmlns="http://www.w3.org/2000/svg">
<path d="M92.4254 50.3387V53.0612C90.5664 53.0612 88.8916 52.3935 87.5707 51.2871C85.9111 49.8978 84.8573 47.8128 84.8573 45.483V31.8485H87.5707V38.0352H92.4254V40.7751H87.5707V45.5491C87.6076 48.2 89.7603 50.3387 92.4254 50.3387Z" fill="#07242D"/>
<path d="M102.103 38.0346V40.7392C99.5291 40.7442 97.4334 42.781 97.3404 45.3244V53.0606H94.6205V38.0346H97.3404V39.7499C98.6332 38.6794 100.293 38.0373 102.103 38.0346Z" fill="#07242D"/>
<path d="M103.851 34.5502V31.8406H106.566V34.5502H103.851ZM103.851 53.0606V38.0346H106.566V53.0611L103.851 53.0606Z" fill="#07242D"/>
<path d="M123.215 38.0346L115.689 53.0611L108.155 38.0346H111.239L115.689 46.9075L120.13 38.0346H123.215Z" fill="#07242D"/>
<path d="M139.497 38.0346C139.497 38.0346 139.497 54.4628 139.497 55.5484C139.497 59.7442 136.047 63.0932 131.96 63.0909C130.047 63.0909 128.273 62.3671 126.927 61.1638L128.879 59.2165C129.711 59.9201 130.786 60.3482 131.96 60.3459C134.605 60.3459 136.746 58.1892 136.746 55.5484V51.3504C135.434 52.4337 133.759 53.0606 131.96 53.0606C127.865 53.0629 124.417 49.7673 124.417 45.5416C124.417 45.4525 124.417 38.0351 124.417 38.0351H127.166C127.166 38.0351 127.168 45.3405 127.168 45.5416C127.168 48.1695 129.313 50.3414 131.96 50.3391C134.605 50.3391 136.746 48.1801 136.746 45.5416V38.0346H139.497Z" fill="#07242D"/>
<path d="M54.1404 5.49424L28.6609 20.1804L28.6613 49.788L54.1372 64.5908L79.6196 49.7962V20.1795L54.1404 5.49424Z" fill="white"/>
<path d="M53.4444 45.6836V39.5456C50.66 38.2339 48.9115 35.5078 48.9474 32.5327L43.2129 29.2292C42.8525 32.4904 43.6052 35.8641 45.3472 38.7685C47.2698 41.9727 49.9929 44.298 53.4444 45.6836Z" fill="#1904DA"/>
<path d="M53.4444 54.0949V46.9704C49.5597 45.5182 46.4977 42.9611 44.3427 39.3683C42.3746 36.0887 41.5855 32.2691 42.1135 28.5954L36.7897 25.5285C33.7324 37.2846 40.836 49.4706 53.4444 54.0949Z" fill="#1904DA"/>
<path d="M54.7551 46.9033V54.0903C67.1286 49.3572 74.4201 36.9379 71.4999 25.5703L66.2111 28.6441C66.8929 32.6098 66.2475 36.396 64.3396 39.6043C62.4305 42.8164 59.118 45.3382 54.7551 46.9033Z" fill="#08B1D5"/>
<path d="M54.7551 39.5345V45.6895C58.648 44.2112 61.6101 41.9057 63.3328 39.0082C65.0247 36.1622 65.6421 32.8027 65.1264 29.2719L59.3975 32.5671C59.369 35.3916 57.6863 37.9184 54.7551 39.5345Z" fill="#08B1D5"/>
<path d="M60.1534 22.0326C62.5603 23.2033 64.5275 25.0674 65.8497 27.4285L70.9981 24.4626C70.9636 24.4139 70.9309 24.3657 70.9009 24.3174C68.8753 21.0493 66.201 18.5905 62.9516 17.0092C53.9093 12.6114 42.683 15.8882 37.2754 24.463L42.4441 27.4395C46.3145 21.4397 54.0479 19.0626 60.1534 22.0326Z" fill="#FFC900"/>
<path d="M54.2795 28.5559C55.0907 28.5559 55.9032 28.7328 56.6652 29.1038C57.6665 29.5916 58.4859 30.3668 59.0402 31.3515L64.8355 28.0126C63.6302 25.8541 61.8357 24.1507 59.6401 23.0825C54.0797 20.3784 47.0216 22.5497 43.4592 28.0241L49.2255 31.3441C50.4243 29.5617 52.3464 28.5559 54.2795 28.5559Z" fill="#FFC900"/>
<path d="M54.7551 63.0932L78.6155 49.2212V21.4347L72.5491 24.9604C75.8831 37.1703 68.1046 50.4553 54.7551 55.3367V63.0932Z" fill="#08B1D5"/>
<path d="M35.7396 24.9241L29.6645 21.4241V49.2134L53.4444 63.0922V55.3386C40.0681 50.6417 32.3268 37.3402 35.7396 24.9241Z" fill="#1904DA"/>
<path d="M63.4645 15.9594C66.9164 17.6384 69.7537 20.2438 71.8967 23.702C71.9308 23.7571 71.9722 23.8145 72.0178 23.8747L78.0285 20.4124L54.1404 6.65019L30.2469 20.4156L36.2598 23.8784C41.974 14.7772 53.8766 11.2951 63.4645 15.9594Z" fill="#FFC900"/>
<path d="M58.1895 32.7628C58.1899 32.7563 58.1996 32.5294 58.1826 32.1653C58.1347 32.0165 57.5712 30.9184 56.1638 30.1523C55.2021 29.6292 53.9683 29.5691 52.7768 29.9861C51.6093 30.3953 50.6186 31.2095 50.0505 32.224C50.0435 32.3122 50.0302 32.5212 50.0403 32.7628C50.1172 34.659 51.293 37.2373 53.6916 38.4167L54.0608 38.5926L54.3812 38.4217C56.7121 37.1202 58.1002 35.0577 58.1895 32.7628Z" fill="#FF0036"/>
<path d="M92.9498 25.1142H88.9035C86.6726 25.1142 84.8573 23.3034 84.8573 21.0778C84.8573 18.8522 86.6726 17.0414 88.9035 17.0414C91.1345 17.0414 92.9498 18.8522 92.9498 21.0778V25.1142ZM88.9035 18.6805C87.5786 18.6805 86.5004 19.7561 86.5004 21.0778C86.5004 22.3996 87.5786 23.4752 88.9035 23.4752H91.3067V21.0778C91.3067 19.7561 90.229 18.6805 88.9035 18.6805Z" fill="#07242D"/>
<path d="M120.101 25.1142H116.055C113.824 25.1142 112.009 23.3034 112.009 21.0778C112.009 18.8522 113.824 17.0414 116.055 17.0414C118.286 17.0414 120.101 18.8522 120.101 21.0778V25.1142ZM116.055 18.6805C114.73 18.6805 113.652 19.7561 113.652 21.0778C113.652 22.3996 114.73 23.4752 116.055 23.4752H118.458V21.0778C118.458 19.7561 117.381 18.6805 116.055 18.6805Z" fill="#07242D"/>
<path d="M107.004 25.1161C104.772 25.1161 102.956 23.3048 102.956 21.0778V17.2898H104.6V21.0778C104.6 22.4 105.679 23.4761 107.004 23.4761C108.33 23.4761 109.408 22.4 109.408 21.0778V17.2898H111.052V21.0778C111.052 23.3043 109.236 25.1161 107.004 25.1161Z" fill="#07242D"/>
<path d="M97.9532 17.0414C95.7222 17.0414 93.9069 18.8522 93.9069 21.0778C93.9069 23.3034 95.7222 25.1142 97.9532 25.1142L99.5963 23.4752H97.9532C96.6282 23.4752 95.55 22.3996 95.55 21.0778C95.55 19.7561 96.6282 18.6805 97.9532 18.6805C99.2781 18.6805 100.356 19.7561 100.356 21.0778V28.9665H101.999V21.0778C101.999 18.8518 100.184 17.0414 97.9532 17.0414Z" fill="#07242D"/>
</svg>
