<?xml version="1.0" encoding="UTF-8"?>
<svg width="170" height="68" version="1.1" viewBox="0 0 1200 1200" xmlns="http://www.w3.org/2000/svg">
 <path d="m1142.1 480.71c-14.391-64.078-67.219-113.06-131.29-123.24 15.141-47.156 3-99-32.391-135.37-32.391-33.234-79.078-47.062-124.22-37.453-14.297-51-60.938-87-114.94-87-65.859 0-119.53 53.625-119.53 119.53v765.61c0 65.859 53.625 119.53 119.53 119.53 61.688 0 112.55-46.922 118.78-106.92 40.688 2.3906 79.688-15.844 103.92-49.312 22.547-31.219 28.547-71.156 16.547-107.3 39.609-9.375 72.375-38.766 85.547-77.766 11.391-33.469 7.3125-69.703-10.453-99.609 67.359-31.781 105.05-106.88 88.5-180.71zm-402.98 505.92c-15.938 0-28.922-12.938-28.922-28.922 0-15.938 12.938-28.922 28.922-28.922 15.938 0 28.922 12.938 28.922 28.922s-12.938 28.922-28.922 28.922zm293.76-340.92c-3.375 1.2188-5.8594 3.9375-6.8438 7.3125-0.9375 3.375-0.23438 7.0781 1.9219 9.9375 19.922 25.781 25.547 59.766 15.141 90.703-12.141 35.531-43.922 61.078-81.141 65.297-3.6094 0.375-6.7031 2.5312-8.5312 5.625-1.7812 3.1406-1.9219 6.9375-0.375 10.219 15 31.922 11.531 69.609-9.1406 98.156-21.703 30-57.938 45-94.547 39.141-3.2344-0.46875-6.4688 0.375-9 2.5312s-3.9375 5.1562-3.9375 8.5312c-0.14062 49.781-37.781 90.844-86.062 96.375v-71.766c22.922-5.1562 40.078-25.547 40.078-49.922 0-28.219-23.062-51.234-51.234-51.234-28.219 0-51.234 23.062-51.234 51.234 0 24.469 17.156 44.859 40.078 49.922v71.766c-48.375-5.5312-86.062-46.688-86.062-96.469l0.046875-210.84h77.859l84.141 64.453c-3 6.6094-4.9219 13.781-4.9219 21.469 0 28.219 23.062 51.234 51.234 51.234 28.219 0 51.234-23.062 51.234-51.234 0-28.219-23.062-51.234-51.234-51.234-12.469 0-23.766 4.6875-32.766 12.141l-87.234-66.844c-1.9219-1.4531-4.3125-2.2969-6.7031-2.2969h-81.609v-88.219h146.29l84.141 34.219c-0.46875 2.7656-0.84375 5.5312-0.84375 8.3906 0 28.219 23.062 51.234 51.234 51.234 28.219 0 51.234-23.062 51.234-51.234 0-28.219-23.062-51.234-51.234-51.234-17.391 0-32.766 8.7656-42.141 22.078l-86.062-34.922c-1.3125-0.46875-2.7656-0.84375-4.2188-0.84375h-148.55v-88.219h321.37c5.1562 22.922 25.547 40.078 49.922 40.078 28.219 0 51.234-23.062 51.234-51.234 0-28.219-23.062-51.234-51.234-51.234-24.469 0-44.859 17.156-49.922 40.078h-321.37v-88.219h103.92c2.5312 0 4.9219-0.84375 6.8438-2.2969l90.609-70.219c8.8594 7.3125 20.156 12 32.531 12 28.219 0 51.234-23.062 51.234-51.234 0-28.219-23.062-51.234-51.234-51.234-28.219 0-51.234 23.062-51.234 51.234 0 7.7812 1.9219 15.141 5.0625 21.703l-87.609 67.781h-100.08l-0.046876-201.14c0-53.625 43.547-97.219 97.219-97.219 11.062 0 21.609 1.9219 31.547 5.2969l-60.844 49.688c-2.625 2.1562-4.0781 5.2969-4.0781 8.625v60.375c-22.922 5.1562-40.078 25.547-40.078 49.922 0 28.219 23.062 51.234 51.234 51.234 28.219 0 51.141-22.922 51.141-51.281 0-24.469-17.156-44.859-40.078-49.922v-55.078l64.688-52.781c21.703 14.297 37.453 37.078 42.234 64.219 0.60937 3.1406 2.3906 5.8594 5.1562 7.5469 2.7656 1.6875 6 2.0625 9.1406 1.2188 40.547-12.375 83.859-1.4531 113.3 28.688 32.625 33.469 41.531 82.453 22.688 124.78-1.4531 3.375-1.2188 7.2188 0.60937 10.312 1.9219 3.1406 5.1562 5.1562 8.7656 5.3906 60.703 3.9375 112.45 48.141 125.76 107.53 15.188 67.453-22.5 136.31-87.422 159.94zm-182.63 183.52c15.938 0 28.922 12.938 28.922 28.922 0 15.938-12.938 28.922-28.922 28.922-15.938 0-28.922-12.938-28.922-28.922s12.938-28.922 28.922-28.922zm43.547-124.92c0-15.938 12.938-28.922 28.922-28.922 15.938 0 28.922 12.938 28.922 28.922 0 15.938-12.938 28.922-28.922 28.922-15.984 0.09375-28.922-12.844-28.922-28.922zm90.469-164.16c0-15.938 12.938-28.922 28.922-28.922 15.938 0 28.922 12.938 28.922 28.922 0 15.938-12.938 28.922-28.922 28.922-15.938 0.09375-28.922-12.984-28.922-28.922zm-137.39-210.98c0-15.938 12.938-28.922 28.922-28.922 15.938 0 28.922 12.938 28.922 28.922 0 15.938-12.938 28.922-28.922 28.922s-28.922-12.938-28.922-28.922zm-130.08-64.219c15.938 0 28.922 12.938 28.922 28.922 0 15.938-12.938 28.922-28.922 28.922-15.938 0-28.922-12.938-28.922-28.922 0-15.938 12.938-28.922 28.922-28.922zm-255.84-167.26c-54.609 0-100.78 36.844-114.94 87-46.078-9.8438-93.703 4.9219-126.37 39.703-33.703 36-45 86.859-30.375 133.22-30.938 4.9219-60 18.938-83.156 40.219-26.531 24.375-44.297 57.375-49.922 92.766-11.391 70.781 26.156 140.63 90.375 170.63-1.9219 3.1406-3.6094 6.375-5.1562 9.7031-14.297 30-15.469 64.922-3.1406 95.766 14.625 36.469 45.844 63.141 83.391 71.859-12.141 36.703-5.8594 77.156 17.625 108.61 24.234 32.625 63 50.391 102.94 48 6.2344 60 57.234 106.92 118.78 106.92 65.859 0 119.53-53.625 119.53-119.53l0.046875-765.32c-0.09375-65.906-53.766-119.53-119.62-119.53zm97.219 268.78v0.375c-0.60938 37.219-31.453 67.453-68.625 67.453-37.781 0-68.625-30.844-68.625-68.625 0-6.1406-5.0625-11.156-11.156-11.156-6.1406 0-11.156 5.0625-11.156 11.156 0 23.062 8.625 44.062 22.781 60.141-14.625 5.8594-26.859 16.922-34.219 31.312-9.9375 19.453-9.7031 42.469 0.70312 61.688 2.8594 5.3906 9.7031 7.4531 15.141 4.5469 5.3906-2.8594 7.4531-9.7031 4.5469-15.141-6.8438-12.609-6.9375-28.219-0.46875-40.922 6.9375-13.547 20.391-22.547 35.391-23.859 13.781 8.3906 29.859 13.219 47.156 13.219 27.234 0 51.938-12.234 68.625-31.547v557.68c0 53.625-43.547 97.219-97.219 97.219-53.625 0-97.219-43.547-97.219-97.219 0-19.312 5.625-37.922 16.312-53.859 3.375-5.1562 2.0625-12-3.1406-15.469-1.9219-1.3125-4.0781-1.9219-6.1406-1.9219-3.6094 0-7.0781 1.6875-9.2344 4.9219-11.297 16.922-18 36.234-19.688 56.391-32.859 2.2969-64.781-12.234-84.844-39-21.375-28.688-25.219-66.703-9.9375-99.234 1.5469-3.2344 1.4531-7.0781-0.375-10.219-1.7812-3.1406-4.9219-5.2969-8.5312-5.625-35.625-3.9375-66-27.141-79.312-60.469-10.219-25.453-9.2344-53.156 2.625-77.859 11.625-24.469 33.141-43.078 58.922-51 5.8594-1.7812 9.1406-8.0625 7.3125-13.922-1.7812-5.8594-8.0625-9.1406-13.922-7.3125-20.859 6.4688-39.469 18.609-53.766 34.688-57.703-24.844-91.922-86.297-81.844-148.78 10.312-63.938 62.625-111.61 127.31-115.92 3.6094-0.23438 6.9375-2.2969 8.7656-5.3906 1.9219-3.1406 2.1562-6.9375 0.70312-10.312-18.375-41.625-10.078-89.859 21-122.86 27.375-29.156 67.453-41.391 106.08-33-0.375 3.4688-0.46875 7.0781-0.46875 10.547 0 21.469 5.7656 42.609 16.781 61.078 3.1406 5.2969 9.9375 7.0781 15.234 3.8438 5.2969-3.1406 7.0781-9.9375 3.8438-15.234-8.8594-15-13.547-32.156-13.547-49.688 0-53.625 43.547-97.219 97.219-97.219 53.625 0 97.219 43.547 97.219 97.219l0.09375 149.29zm-170.29 358.92c16.312-5.625 33.141-6.2344 48.844-2.8594 12.938-5.7656 22.312-17.297 25.219-31.312 3.1406-15.141-1.9219-30.938-13.312-41.391-4.5469-4.2188-4.7812-11.156-0.60938-15.703 4.2188-4.5469 11.156-4.7812 15.703-0.60938 17.062 15.703 24.703 39.609 20.062 62.297-3 14.531-10.688 27.234-21.469 36.609 18.609 10.547 33.609 27.703 41.062 49.453 2.0625 5.7656-1.0781 12.141-6.9375 14.156-5.8594 2.0625-12.141-1.0781-14.156-6.9375-12.375-35.766-51.469-54.844-87.234-42.609-17.297 6-31.312 18.375-39.375 34.781-8.0625 16.453-9.2344 35.156-3.2344 52.453 2.0625 5.7656-1.0781 12.141-6.9375 14.156-1.2188 0.375-2.3906 0.60938-3.6094 0.60938-4.6875 0-9-2.8594-10.547-7.5469-7.9219-22.922-6.375-47.625 4.3125-69.469 10.594-21.938 29.297-38.25 52.219-46.078zm-78.984-60.469c-1.6875 0.84375-3.375 1.2188-5.1562 1.2188-4.0781 0-7.9219-2.1562-9.9375-6-2.8594-5.5312-0.70312-12.234 4.7812-15 26.625-13.781 38.766-45.375 28.219-73.453-6-15.703-17.859-27.844-33.609-33.938-15.469-6.1406-32.859-5.3906-47.766 1.9219-5.5312 2.7656-12.234 0.46875-14.859-5.0625-2.7656-5.5312-0.46875-12.234 5.0625-14.859 20.391-10.078 44.391-11.062 65.766-2.625 21.375 8.3906 38.156 25.453 46.312 46.781 14.625 38.484-2.0625 81.938-38.812 101.02zm143.9 185.16c13.922 13.922 21.609 32.391 21.609 52.078s-7.6875 38.156-21.609 52.078c-2.1562 2.1562-5.0625 3.2344-7.9219 3.2344s-5.7656-1.0781-7.9219-3.2344c-4.3125-4.3125-4.3125-11.391 0-15.703 9.7031-9.7031 15-22.547 15-36.234s-5.2969-26.625-15-36.234c-4.3125-4.3125-4.3125-11.391 0-15.703 4.4531-4.5938 11.531-4.5938 15.844-0.28125zm54.375-547.69c0 6.1406-5.0625 11.156-11.156 11.156-6.1406 0-11.156-5.0625-11.156-11.156 0-28.312-23.062-51.234-51.234-51.234-6.1406 0-11.156-5.0625-11.156-11.156 0-6.1406 5.0625-11.156 11.156-11.156 40.547 0 73.547 33 73.547 73.547z"/>
</svg>
