<svg width="170" height="68" viewBox="0 0 170 68" fill="none" xmlns="http://www.w3.org/2000/svg">
<path d="M116.998 34.0083C116.998 37.5869 114.806 40.775 113.76 44.0001C112.674 47.3465 112.535 51.2063 110.508 53.992C108.461 56.8054 104.819 58.121 102.006 60.1684C99.2201 62.1955 96.8544 65.2643 93.509 66.3513C90.2802 67.3995 86.5767 66.3412 82.9991 66.3412C79.4214 66.3412 75.718 67.3995 72.4901 66.3513C69.1437 65.2643 66.7781 62.1955 63.9924 60.1684C61.1789 58.121 57.5375 56.8054 55.4901 53.992C53.463 51.2072 53.3242 47.3474 52.2381 44.0001C51.1899 40.7713 49 37.5832 49 34.0083C49 30.4334 51.1917 27.2416 52.2381 24.0165C53.3242 20.6701 53.463 16.8103 55.4901 14.0246C57.5375 11.2121 61.1789 9.8956 63.9924 7.84912C66.7781 5.82207 69.1437 2.75236 72.4901 1.66621C75.718 0.617991 79.4214 1.67546 82.9991 1.67546C86.5767 1.67546 90.2802 0.617991 93.5081 1.66621C96.8544 2.75236 99.2201 5.82207 102.006 7.84912C104.819 9.8956 108.461 11.2121 110.508 14.0246C112.535 16.8103 112.674 20.6701 113.76 24.0165C114.806 27.2416 116.998 30.4307 116.998 34.0083V34.0083Z" fill="#326CE5"/>
<mask id="mask0_102_6924" style="mask-type:alpha" maskUnits="userSpaceOnUse" x="56" y="7" width="54" height="54">
<path d="M82.9972 7.63078C68.4295 7.63078 56.6197 19.4406 56.6197 34.0083C56.6197 48.576 68.4295 60.3858 82.9972 60.3858C97.565 60.3858 109.375 48.5742 109.375 34.0083C109.375 19.4424 97.565 7.63078 82.9972 7.63078V7.63078ZM82.9907 58.0914C69.6859 58.0914 58.9169 47.3169 58.9141 34.012C58.9114 20.7071 69.7118 9.90208 83.025 9.92613C96.3382 9.95018 107.092 20.7266 107.079 34.0268C107.066 47.3271 96.2938 58.0951 82.9907 58.0914V58.0914Z" stroke="white" stroke-miterlimit="10"/>
<path d="M81.1154 45.3287C80.2893 45.1982 79.8507 45.04 78.9219 44.6246C76.3638 43.4802 74.4089 41.6502 73.1257 39.1837L73.0128 39.2087C72.952 39.2222 72.89 39.229 72.8278 39.229C72.692 39.2287 72.5582 39.1964 72.4372 39.1348C72.3162 39.0733 72.2114 38.9842 72.1311 38.8747C72.0501 38.7653 71.9964 38.6381 71.9743 38.5038C71.9523 38.3694 71.9626 38.2318 72.0044 38.1022L72.2144 37.437L72.9406 35.112C72.984 34.9716 73.0637 34.8451 73.1718 34.7454C73.2798 34.6457 73.4123 34.5764 73.5558 34.5446C73.6993 34.5127 73.8487 34.5194 73.9888 34.564C74.1289 34.6086 74.2547 34.6895 74.3534 34.7984L76.5053 37.1437C76.586 37.2317 76.6469 37.3358 76.6841 37.4492C76.7213 37.5626 76.7339 37.6826 76.721 37.8013C76.7082 37.9199 76.6701 38.0345 76.6095 38.1372C76.5488 38.24 76.4669 38.3287 76.3693 38.3973C76.7379 38.9189 77.1921 39.3743 77.7127 39.7444C78.196 39.967 78.6998 40.142 79.217 40.2671C79.9693 40.4555 80.7338 40.5915 81.5049 40.6742V31.3845H79.514C79.2196 31.6029 78.8628 31.721 78.4963 31.7213C78.2592 31.721 78.0249 31.6708 77.8086 31.5739C77.5923 31.4769 77.3988 31.3355 77.2408 31.1588C76.9626 30.8474 76.808 30.4449 76.8061 30.0274C76.8042 29.6098 76.9552 29.206 77.2306 28.8921C77.3876 28.7115 77.5812 28.5664 77.7987 28.4665C78.0161 28.3666 78.2524 28.3143 78.4916 28.313C78.8577 28.3125 79.2144 28.4292 79.5093 28.646H81.5059V28.3379C80.2708 27.8041 79.4908 26.8262 79.2447 25.4995C78.8895 23.5946 80.1014 21.698 82.0073 21.1817C82.3312 21.0938 82.6653 21.049 83.0009 21.0485C83.9921 21.0543 84.9433 21.4404 85.658 22.1273C86.0214 22.4732 86.3104 22.8895 86.5077 23.3507C86.7049 23.812 86.8061 24.3086 86.8052 24.8103C86.8052 26.3229 86.0975 27.4933 84.7587 28.2093V28.6423H86.4823C86.7783 28.4275 87.1343 28.311 87.5 28.3093C87.7374 28.3094 87.972 28.3601 88.1883 28.4578C88.4046 28.5556 88.5976 28.6983 88.7546 28.8764C89.0363 29.1929 89.1906 29.6026 89.1875 30.0263C89.1845 30.4501 89.0242 30.8575 88.7379 31.1699C88.5813 31.3418 88.3904 31.4791 88.1775 31.5728C87.9646 31.6665 87.7345 31.7146 87.5019 31.7139C87.1367 31.7142 86.7807 31.5996 86.4842 31.3864H86.4287C85.9615 31.4141 85.485 31.4178 85.0233 31.4225H84.7513V40.7648C85.3197 40.7279 85.8852 40.6553 86.4444 40.5474C87.0841 40.4319 87.7061 40.2338 88.2948 39.9581C88.8182 39.6275 89.2824 39.2112 89.6677 38.7267C89.5697 38.6542 89.4888 38.5611 89.4307 38.454C89.3726 38.3468 89.3387 38.2282 89.3315 38.1065C89.3242 37.9848 89.3438 37.863 89.3888 37.7497C89.4338 37.6365 89.5031 37.5344 89.5918 37.4509L91.8779 35.2628C92.0352 35.1106 92.2456 35.0257 92.4645 35.026C92.6559 35.0244 92.8423 35.0875 92.9934 35.2051C93.1445 35.3226 93.2515 35.4877 93.2971 35.6736C93.534 36.6441 93.769 37.6044 94.0068 38.5796C94.0405 38.7173 94.0426 38.8608 94.0127 38.9994C93.9829 39.1381 93.922 39.2681 93.8346 39.3797C93.7472 39.4913 93.6356 39.5817 93.5082 39.6439C93.3808 39.7061 93.2409 39.7385 93.0992 39.7388C93.0186 39.7389 92.9384 39.7286 92.8605 39.7083C91.717 41.7908 90.0341 43.384 87.9802 44.323L87.6018 44.5034C86.5517 44.9882 85.9467 45.2667 84.8365 45.3888L82.9954 47.1948L81.1154 45.3287ZM82.9658 23.7454C82.3866 23.7454 81.912 24.2237 81.8842 24.8334C81.8766 24.975 81.8972 25.1167 81.9449 25.2503C81.9925 25.3839 82.0663 25.5066 82.1618 25.6115C82.2594 25.718 82.3773 25.804 82.5085 25.8645C82.6397 25.925 82.7816 25.9588 82.926 25.9639H83.0259C83.6023 25.9639 84.063 25.5014 84.0954 24.8908C84.1278 24.2801 83.6744 23.7935 83.0398 23.7445C83.025 23.7463 82.9954 23.7454 82.9695 23.7454H82.9658Z" stroke="white" stroke-miterlimit="10"/>
</mask>
<g mask="url(#mask0_102_6924)">
<path d="M55.5206 30.2262C59.4461 30.2262 59.4461 32.0766 63.3707 32.0766C67.2952 32.0766 67.2962 30.2262 71.2217 30.2262C75.1472 30.2262 75.1462 32.0766 79.0717 32.0766C82.9972 32.0766 82.9963 30.2262 86.9218 30.2262C90.8473 30.2262 90.8473 32.0766 94.7719 32.0766C98.6964 32.0766 98.6974 30.2262 102.623 30.2262C106.548 30.2262 106.548 32.0766 110.474 32.0766" stroke="white" stroke-width="3" stroke-miterlimit="10"/>
<path d="M55.5206 33.9269C59.4461 33.9269 59.4461 35.7772 63.3707 35.7772C67.2952 35.7772 67.2962 33.9269 71.2217 33.9269C75.1472 33.9269 75.1462 35.7772 79.0717 35.7772C82.9972 35.7772 82.9963 33.9269 86.9218 33.9269C90.8473 33.9269 90.8473 35.7772 94.7719 35.7772C98.6964 35.7772 98.6974 33.9269 102.623 33.9269C106.548 33.9269 106.548 35.7772 110.474 35.7772" stroke="white" stroke-width="5" stroke-miterlimit="10"/>
<path d="M55.5206 38.3677C59.4461 38.3677 59.4461 40.218 63.3707 40.218C67.2952 40.218 67.2962 38.3677 71.2217 38.3677C75.1472 38.3677 75.1462 40.218 79.0717 40.218C82.9972 40.218 82.9963 38.3677 86.9218 38.3677C90.8473 38.3677 90.8473 40.218 94.7719 40.218C98.6964 40.218 98.6974 38.3677 102.623 38.3677C106.548 38.3677 106.548 40.218 110.474 40.218" stroke="white" stroke-width="7" stroke-miterlimit="10"/>
</g>
<path d="M82.9972 5.1282C67.0473 5.1282 54.1171 18.0584 54.1171 34.0083C54.1171 49.9582 67.0473 62.8884 82.9972 62.8884C98.9472 62.8884 111.877 49.9619 111.877 34.0083C111.877 18.0547 98.9472 5.1282 82.9972 5.1282V5.1282ZM82.9898 60.3757C68.4239 60.3757 56.6327 48.5788 56.6299 34.0129C56.6299 19.4313 68.4517 7.61783 83.0278 7.64559C97.6038 7.67334 109.378 19.4693 109.365 34.0333C109.352 48.5973 97.5557 60.3803 82.9898 60.3757V60.3757Z" fill="white"/>
<path d="M69.6748 47.0939C69.5823 46.7747 69.1428 46.4574 68.8014 46.5C68.3166 46.5619 67.8337 46.6424 67.2508 46.7294C67.4655 46.1604 67.6468 45.6747 67.8318 45.189C67.9919 44.7671 67.6468 44.5627 67.4303 44.3369C67.2138 44.1112 67.0445 44.3961 66.8974 44.5127C66.1138 45.1335 65.3542 45.7848 64.5632 46.3954C64.1876 46.685 64.4707 46.8534 64.6224 47.0615C64.7742 47.2697 64.9287 47.5038 65.2386 47.2308C65.5957 46.9172 65.9732 46.6258 66.3488 46.3214C66.3627 46.3566 66.3756 46.3732 66.3719 46.3843C66.2979 46.599 66.2174 46.8117 66.1453 47.0273C65.9945 47.4825 66.2859 47.8146 66.7642 47.7397C66.9631 47.7082 67.1657 47.6472 67.4026 47.7489C67.0177 48.0644 66.6837 48.3605 66.3266 48.6241C66.0333 48.8406 66.1739 49.0173 66.3506 49.1792C66.5274 49.3412 66.6014 49.763 66.9798 49.4568C67.8303 48.7709 68.6781 48.0829 69.5231 47.3927C69.61 47.3215 69.722 47.2549 69.6748 47.0939V47.0939Z" fill="white"/>
<path d="M85.139 15.9721C85.7441 16.2219 85.9837 16.1072 86.1086 15.4818C86.1363 15.3458 86.1613 15.2107 86.1946 15.0766C86.2215 14.9674 86.1946 14.7833 86.3621 14.8064C86.5295 14.8295 86.7442 14.7953 86.8052 15.0451C86.8663 15.2949 86.9422 15.516 87.0106 15.751C87.2031 16.3986 87.3354 16.4995 87.995 16.5337C88.2429 16.5466 88.2985 16.4625 88.2328 16.2413C88.1292 15.8889 88.0394 15.5317 87.9293 15.1811C87.8784 15.021 87.8368 14.9267 88.0561 14.8351C88.5908 14.6093 88.7351 14.1246 88.7731 13.6259C88.7731 13.0097 88.403 12.5592 87.711 12.3741C87.1485 12.2243 86.5712 12.1308 86.0013 12.0041C85.7885 11.9578 85.6821 12.0438 85.6423 12.2474C85.424 13.3576 85.2019 14.4752 84.9864 15.5909C84.9577 15.7417 84.9364 15.8889 85.139 15.9721V15.9721ZM86.7618 13.1041C87.229 13.0569 87.6795 13.3271 87.6749 13.6037C87.6703 13.8803 87.5084 14.0145 87.1947 14.0228C87.0014 13.86 86.5527 14.1246 86.487 13.711C86.4592 13.5361 86.3945 13.1457 86.7618 13.1078V13.1041Z" fill="white"/>
<path d="M79.0468 52.1657C78.784 52.0797 78.5157 51.9714 78.4232 52.4081C78.3223 52.8883 78.1688 53.3564 78.0096 53.9346C77.7663 53.2111 77.5406 52.5913 77.3528 51.9603C77.2297 51.5477 76.8763 51.5514 76.5784 51.4977C76.25 51.4441 76.3092 51.7753 76.2574 51.9603C75.9798 52.9188 75.7411 53.8902 75.4432 54.8431C75.297 55.3131 75.644 55.2706 75.8753 55.3511C76.1214 55.4352 76.3813 55.5361 76.4748 55.129C76.5867 54.6414 76.7357 54.1622 76.8865 53.6173C76.9485 53.7598 76.991 53.8412 77.0197 53.9263C77.2047 54.4814 77.3981 55.03 77.5748 55.586C77.7016 55.9968 78.0716 55.9718 78.3668 56.0126C78.6619 56.0533 78.6008 55.735 78.6499 55.5675C78.9274 54.6072 79.1615 53.6349 79.464 52.6838C79.6019 52.2231 79.2827 52.2434 79.0468 52.1657V52.1657Z" fill="white"/>
<path d="M101.33 46.314C101.027 46.2705 100.728 46.1808 100.424 46.1521C100.173 46.129 100.11 46.042 100.102 45.782C100.081 45.1344 99.4958 44.6034 98.8583 44.596C98.4207 44.5839 98.0858 44.8032 97.8175 45.1103C97.4835 45.4924 97.1967 45.9152 96.8618 46.2964C96.6342 46.5564 96.6629 46.7174 96.934 46.9218C97.7444 47.5343 98.5484 48.1569 99.3339 48.7999C99.6114 49.022 99.7511 48.9988 99.9556 48.7204C100.326 48.2161 100.34 48.2282 99.8418 47.8415C99.7326 47.7563 99.6179 47.6768 99.518 47.5815C99.4412 47.5084 99.2506 47.4788 99.3579 47.3123C99.4449 47.1781 99.5198 47.0023 99.7428 47.0477C99.9658 47.093 100.205 47.0995 100.421 47.1781C100.918 47.3631 101.227 47.1698 101.497 46.7581C101.675 46.4907 101.685 46.364 101.33 46.314V46.314ZM98.5549 46.8164C98.4855 46.8219 97.9878 46.3945 97.9924 46.3325C98.0044 46.1697 98.5734 45.6247 98.7325 45.6247C98.9462 45.6673 99.1026 45.7737 99.1202 46.0087C99.1303 46.1521 98.6604 46.8071 98.5549 46.8164V46.8164Z" fill="white"/>
<path d="M78.3307 16.0637C78.363 16.2487 78.4232 16.3968 78.6535 16.3607C79.4862 16.2164 80.3244 16.0915 81.1515 15.9194C81.5882 15.8269 81.2875 15.4975 81.2921 15.2718C81.2968 15.0303 81.1654 14.9572 80.9285 15.0035C80.4761 15.0914 80.0172 15.1515 79.5648 15.2412C79.3298 15.2875 79.2679 15.1802 79.2457 14.9794C79.2262 14.8009 79.2003 14.6621 79.4584 14.6334C79.8405 14.5927 80.2143 14.4844 80.5964 14.4437C81.01 14.3993 80.9341 14.1394 80.8897 13.8766C80.8453 13.6139 80.7898 13.3983 80.4271 13.4982C80.0876 13.5907 79.7277 13.6055 79.3854 13.6916C79.1448 13.7526 79.0273 13.7378 78.9774 13.4566C78.9228 13.1531 79.0912 13.1281 79.3058 13.0958C79.686 13.0393 80.0644 12.9662 80.4447 12.9107C80.688 12.8737 80.8749 12.8062 80.7768 12.5C80.6982 12.2539 80.8101 11.8653 80.3022 11.9708C79.5796 12.1216 78.8515 12.2483 78.1207 12.3408C77.7709 12.3852 77.7228 12.5416 77.7746 12.8321C77.9624 13.9118 78.1466 14.9905 78.3307 16.0637V16.0637Z" fill="white"/>
<path d="M90.6743 52.6024C90.4045 52.7117 90.129 52.8065 89.849 52.8864C89.6168 52.9604 89.4494 53.0548 89.5881 53.349C89.6982 53.5766 89.6686 53.955 90.1081 53.7792C90.1886 53.7468 90.2746 53.671 90.3533 53.769C90.4319 53.8671 90.3801 53.9837 90.3412 54.0762C90.2284 54.3417 89.9915 54.4555 89.726 54.5018C89.4605 54.548 89.2412 54.4213 89.1089 54.19C88.9234 53.87 88.798 53.5188 88.7388 53.1538C88.6528 52.6144 89.1663 52.1426 89.6557 52.3785C90.0591 52.5728 90.3625 52.4173 90.7048 52.3174C90.9389 52.249 90.9398 52.1093 90.8047 51.939C90.492 51.5449 90.0646 51.42 89.5798 51.3997C89.0696 51.3979 88.5763 51.5821 88.1921 51.9178C87.7295 52.3322 87.5444 52.8577 87.7295 53.4582C87.9635 54.2436 88.0995 55.1235 89.0765 55.3825C89.8259 55.5796 90.4865 55.3474 91.0194 54.8163C91.5958 54.239 91.4561 53.5664 91.2044 52.8809C91.0943 52.5885 90.987 52.4645 90.6743 52.6024Z" fill="white"/>
<path d="M96.4122 50.8547C96.0736 51.1193 95.7054 51.346 95.3658 51.6106C95.1808 51.7549 95.0883 51.7096 94.9689 51.5357C94.8496 51.3617 94.8126 51.2581 95.0115 51.1276C95.3196 50.925 95.6147 50.703 95.9144 50.4884C96.0125 50.418 96.1309 50.3607 96.1198 50.1905C96.0411 49.9801 95.9072 49.7947 95.7322 49.6539C95.5601 49.5327 95.4269 49.7177 95.2927 49.8102C95.0152 50.0026 94.7247 50.1803 94.4656 50.3968C94.2501 50.5763 94.1881 50.4125 94.0817 50.2848C93.954 50.1359 93.9522 50.0434 94.1307 49.9268C94.4777 49.7001 94.7987 49.4337 95.1484 49.2135C95.4352 49.034 95.3742 48.8601 95.2058 48.6528C95.0568 48.4678 94.9662 48.1902 94.6368 48.44C94.0336 48.8897 93.4137 49.318 92.7966 49.751C92.6023 49.887 92.594 50.0221 92.73 50.2136C93.3684 51.099 93.9984 51.9899 94.6303 52.8808C94.745 53.0418 94.857 53.1057 95.0466 52.9678C95.6795 52.5052 96.3175 52.0504 96.9608 51.6032C97.2633 51.3932 97.0802 51.2183 96.9506 51.0287C96.8211 50.839 96.6981 50.6299 96.4122 50.8547V50.8547Z" fill="white"/>
<path d="M72.5151 49.3532C72.3855 49.2607 72.2486 49.3042 72.132 49.3948C71.1958 50.1226 70.2604 50.8517 69.326 51.5819C69.2029 51.6744 69.1114 51.8104 69.289 51.9094C69.6165 52.0945 69.9162 52.5571 70.352 52.0686C70.3732 52.0363 70.4062 52.0137 70.4439 52.0055C70.4817 51.9974 70.5211 52.0044 70.5537 52.0251C70.9016 52.2527 71.2522 52.4756 71.5991 52.7032C71.6916 52.7661 71.6611 52.8642 71.65 52.9549C71.601 53.3518 71.8758 53.7986 72.2708 53.8199C72.6834 53.8412 72.4891 53.4054 72.6187 53.201C72.6339 53.1739 72.6446 53.1445 72.6501 53.114C72.8907 52.1287 73.1312 51.1425 73.3903 50.0748C73.2866 49.6751 72.8287 49.5919 72.5151 49.3532V49.3532ZM71.9229 51.8252C71.2004 51.4006 71.2004 51.4006 71.7869 50.9324C71.9054 50.8399 72.0275 50.7474 72.2014 50.6142C72.1572 51.0275 72.0637 51.4341 71.9229 51.8252V51.8252Z" fill="white"/>
<path d="M71.3207 18.1685C71.7832 18.8105 72.4938 19.0011 73.2469 18.7236C74.0296 18.4405 74.6346 17.6763 74.6032 16.9778C74.5867 16.8103 74.5482 16.6457 74.4884 16.4884C74.4801 16.4426 74.4556 16.4013 74.4195 16.3719C74.3833 16.3426 74.3379 16.3271 74.2914 16.3283C74.0231 16.3283 73.53 16.8085 73.5263 17.0962C73.5216 17.4838 73.2737 17.6781 72.9638 17.8021C72.6705 17.9187 72.4087 17.8021 72.2357 17.5588C72.0292 17.2729 71.8455 16.9713 71.6861 16.6567C71.5566 16.3912 71.5806 16.1016 71.8221 15.8953C72.0636 15.689 72.3624 15.5493 72.7056 15.7371C72.9462 15.8694 73.5947 15.6446 73.7326 15.4105C73.8251 15.2607 73.7067 15.1765 73.6317 15.0932C73.5071 14.9522 73.353 14.8404 73.1803 14.7656C73.0076 14.6907 72.8206 14.6548 72.6325 14.6602C71.3947 14.6648 70.4297 15.6178 70.5602 16.6595C70.6342 17.2461 70.9978 17.7087 71.3207 18.1685Z" fill="white"/>
<path d="M84.4646 53.3046C84.1509 52.4886 83.9354 52.3794 83.0962 52.5644C83.0278 52.5717 82.9629 52.5985 82.9092 52.6417C82.8556 52.6848 82.8155 52.7425 82.7937 52.8078C82.4421 53.9328 82.0918 55.0596 81.7427 56.1883C81.7122 56.2873 81.6678 56.4039 81.7862 56.4816C82.0388 56.6481 82.7021 56.415 82.8159 56.1217C82.8631 55.9996 82.864 55.8506 83.0666 55.8543C83.4367 55.8617 83.8068 55.8543 84.1768 55.8368C84.3082 55.8312 84.3896 55.8812 84.4127 55.9996C84.484 56.3697 84.706 56.4788 85.0123 56.3993C85.6386 56.3835 85.6414 56.3817 85.436 55.8442C85.1128 54.9955 84.789 54.1489 84.4646 53.3046V53.3046ZM83.4876 54.9764C83.21 54.9764 83.1693 54.8986 83.2526 54.6627C83.3534 54.3741 83.4376 54.0799 83.5551 53.7043C83.6782 54.0188 83.7688 54.2455 83.8549 54.4731C84.0473 54.9884 84.0427 54.9708 83.4876 54.9764Z" fill="white"/>
<path d="M92.5949 18.6616C92.8114 18.78 93.0177 19.0955 93.2675 18.6782C93.5978 18.1231 93.9559 17.5875 94.3 17.0425C94.7145 16.3875 94.7256 16.3681 95.3917 16.7872C95.7461 17.0111 95.8395 16.7696 95.9885 16.5541C96.1476 16.3228 96.2105 16.146 95.896 15.961C95.1558 15.52 94.4296 15.0599 93.7172 14.5807C93.4146 14.379 93.2648 14.4326 93.0696 14.7324C92.8531 15.0627 92.8975 15.2385 93.2324 15.4161C93.4267 15.5188 93.6441 15.6132 93.7782 15.8056C93.7098 15.9157 93.6543 16.0082 93.5932 16.0989C93.1741 16.7613 92.767 17.4311 92.3331 18.0834C92.1 18.4423 92.3692 18.5376 92.5949 18.6616V18.6616Z" fill="white"/>
<path d="M93.4692 38.8062C93.2315 37.8311 92.9965 36.8708 92.7587 35.8994C92.7465 35.8487 92.7212 35.8021 92.6853 35.7643C92.6493 35.7265 92.604 35.6989 92.554 35.6843C92.5039 35.6696 92.4509 35.6685 92.4003 35.6809C92.3496 35.6933 92.3032 35.7189 92.2656 35.755L89.9786 37.944C89.9429 37.9784 89.9168 38.0215 89.903 38.0691C89.8892 38.1168 89.8882 38.1672 89.9 38.2153C89.9118 38.2634 89.936 38.3076 89.9703 38.3435C90.0045 38.3793 90.0476 38.4055 90.0951 38.4195C90.1802 38.4436 90.2635 38.4667 90.3486 38.4843C90.5337 38.5241 90.5152 38.586 90.4291 38.7165C89.9499 39.4464 89.3187 40.0643 88.5788 40.528L88.5603 40.5391C87.9225 40.8423 87.2474 41.0601 86.5527 41.1867C85.8343 41.3245 85.1066 41.4086 84.3757 41.4383C84.3527 41.4391 84.3297 41.4352 84.3082 41.4268C84.2867 41.4184 84.2672 41.4057 84.2507 41.3895C84.2343 41.3734 84.2213 41.354 84.2126 41.3327C84.2039 41.3113 84.1996 41.2884 84.1999 41.2653V31.0533C84.1999 31.0402 84.2025 31.0272 84.2076 31.0151C84.2126 31.003 84.2199 30.9919 84.2292 30.9827C84.2385 30.9734 84.2495 30.966 84.2616 30.961C84.2738 30.956 84.2867 30.9534 84.2999 30.9534C84.3924 30.9534 84.5053 30.9719 84.7763 30.9691C85.3092 30.9636 85.8643 30.9636 86.3991 30.9321C86.573 30.9219 86.6701 30.9275 86.7812 31.0108C87.0066 31.1889 87.291 31.2756 87.5775 31.2535C87.864 31.2313 88.1317 31.1021 88.3271 30.8914C88.5202 30.6799 88.6281 30.4044 88.63 30.1181C88.6318 29.8317 88.5276 29.5548 88.3373 29.3408C88.1462 29.1265 87.8812 28.9923 87.5953 28.9652C87.3095 28.9381 87.0239 29.0201 86.796 29.1946C86.7319 29.2541 86.6492 29.2894 86.5619 29.2946C85.8168 29.2909 85.0724 29.2909 84.3285 29.2946C84.2829 29.3004 84.2367 29.2882 84.1999 29.2603V28.0928C84.1994 28.0529 84.2132 28.0142 84.2388 27.9836C84.2915 27.9287 84.3544 27.8844 84.4238 27.8531C85.6266 27.2425 86.2501 26.2397 86.251 24.9046C86.251 22.7925 84.1907 21.2558 82.1535 21.809C80.5381 22.2475 79.489 23.8518 79.7934 25.4884C80.0173 26.6911 80.725 27.533 81.8759 27.979C81.9191 27.9946 81.9604 28.0151 81.999 28.04C82.0199 28.0559 82.0367 28.0765 82.0481 28.1002C82.0595 28.1238 82.0652 28.1498 82.0647 28.176V29.1308C82.0647 29.1526 82.0603 29.1742 82.0519 29.1943C82.0436 29.2144 82.0313 29.2326 82.0158 29.2479C82.0003 29.2632 81.9819 29.2753 81.9617 29.2835C81.9415 29.2917 81.9199 29.2957 81.8981 29.2955C81.0979 29.2862 80.2967 29.2899 79.4927 29.2955C79.3821 29.295 79.2746 29.2586 79.1865 29.1919C78.9579 29.0184 78.672 28.9382 78.3866 28.9674C78.1012 28.9966 77.8375 29.133 77.6488 29.3492C77.4596 29.5616 77.3563 29.8369 77.359 30.1214C77.3618 30.4058 77.4704 30.6791 77.6636 30.8878C77.8569 31.0966 78.121 31.2259 78.4044 31.2505C78.6878 31.2751 78.9703 31.1933 79.1966 31.0209C79.2835 30.9528 79.3916 30.9174 79.5019 30.921C80.2782 30.921 81.0553 30.9321 81.8315 30.921C81.9014 30.9107 81.9726 30.9258 82.0323 30.9636C82.0418 30.9726 82.0492 30.9835 82.0542 30.9957C82.0591 31.0078 82.0614 31.0208 82.061 31.0339V41.1932C82.0609 41.2168 82.056 41.2401 82.0465 41.2618C82.0369 41.2834 82.0231 41.3028 82.0057 41.3188C81.9883 41.3348 81.9678 41.347 81.9455 41.3547C81.9231 41.3623 81.8995 41.3653 81.8759 41.3634C80.9332 41.2837 79.9982 41.1291 79.0801 40.9008C78.5168 40.765 77.9688 40.5725 77.4444 40.3263C77.4352 40.3223 77.4266 40.3173 77.4185 40.3115C76.6786 39.7921 76.0615 39.117 75.6107 38.3335C75.598 38.3152 75.5903 38.2939 75.5884 38.2717C75.5865 38.2496 75.5904 38.2273 75.5997 38.2071C75.6091 38.1869 75.6235 38.1695 75.6417 38.1566C75.6598 38.1437 75.681 38.1358 75.7032 38.1336L75.9484 38.0837C75.997 38.0727 76.042 38.0492 76.0787 38.0154C76.1154 37.9817 76.1426 37.9389 76.1576 37.8913C76.1726 37.8437 76.1748 37.793 76.1641 37.7443C76.1533 37.6956 76.13 37.6506 76.0964 37.6137L73.9444 35.2684C73.9116 35.2311 73.8694 35.2034 73.8222 35.188C73.7749 35.1726 73.7245 35.1702 73.676 35.1809C73.6275 35.1917 73.5828 35.2153 73.5465 35.2492C73.5103 35.2832 73.4838 35.3262 73.4698 35.3739C73.1516 36.3814 72.8416 37.3658 72.5271 38.364C72.5105 38.4161 72.508 38.4716 72.5199 38.525C72.5317 38.5783 72.5574 38.6276 72.5944 38.6678C72.6314 38.708 72.6784 38.7377 72.7306 38.7539C72.7828 38.7701 72.8383 38.7722 72.8916 38.76L73.0581 38.722C73.1605 38.6986 73.2678 38.7099 73.3631 38.7541C73.4584 38.7983 73.5363 38.873 73.5845 38.9663C74.8224 41.3717 76.6839 43.112 79.1467 44.212C80.1088 44.6422 80.49 44.7671 81.3208 44.8939C81.3559 44.8992 81.3884 44.9157 81.4133 44.941L82.678 46.1946C82.7629 46.2772 82.8765 46.3234 82.9949 46.3234C83.1133 46.3234 83.227 46.2772 83.3118 46.1946L84.5404 44.9919C84.5685 44.9647 84.6051 44.9477 84.644 44.9438C85.8745 44.8282 86.4231 44.5238 87.747 43.9178C89.7963 42.9806 91.4237 41.3495 92.471 39.3549C92.5635 39.1772 92.6449 39.156 92.8022 39.2087C92.8623 39.229 92.9234 39.2485 92.9872 39.267C93.0522 39.2872 93.1214 39.2897 93.1876 39.2741C93.2539 39.2586 93.3147 39.2256 93.3639 39.1786C93.4131 39.1316 93.4488 39.0722 93.4673 39.0068C93.4859 38.9413 93.4865 38.872 93.4692 38.8062V38.8062ZM82.913 26.6097C82.6966 26.6021 82.4839 26.5517 82.2871 26.4614C82.0903 26.3712 81.9133 26.2428 81.7664 26.0837C81.6195 25.9247 81.5055 25.7381 81.4311 25.5348C81.3567 25.3315 81.3233 25.1154 81.3328 24.8991C81.3773 23.9314 82.1822 23.2171 83.0907 23.2865C84.0473 23.3605 84.706 24.1293 84.6579 25.0157C84.6061 25.9797 83.816 26.6773 82.913 26.6097V26.6097Z" fill="white"/>
</svg>
