<svg width="170" height="69" viewBox="0 0 170 69" fill="none" xmlns="http://www.w3.org/2000/svg">
<path fill-rule="evenodd" clip-rule="evenodd" d="M56 43.0234C61.4512 49.2989 67.8204 49.6923 67.8204 49.6923L67.8391 49.6736C68.6446 51.116 69.5813 52.4835 70.6303 53.776C71.0799 54.3193 71.5295 54.8251 72.0165 55.3309C70.0309 61.0256 72.2975 65.7463 72.2975 65.7463C78.3669 65.9711 82.357 63.0862 83.2 62.4306C83.7994 62.6366 84.4176 62.824 85.0358 62.9738C86.9091 63.4609 88.8198 63.7419 90.7306 63.8168C91.1989 63.8355 91.6859 63.8543 92.1543 63.8355H92.8286L93.1284 63.8168V63.8355C95.9945 67.9193 101.015 68.5 101.015 68.5C104.593 64.7347 104.799 60.9882 104.799 60.1826V59.8455C105.548 59.3209 106.26 58.759 106.934 58.1408C108.358 56.8482 109.613 55.3683 110.662 53.776L110.943 53.3264C114.99 53.5512 117.856 50.8163 117.856 50.8163C117.181 46.6014 114.783 44.5408 114.278 44.1474C114.242 44.1194 114.211 44.0954 114.184 44.0747C114.184 44.0733 114.184 44.0725 114.184 44.0725C114.176 44.064 114.163 44.0555 114.149 44.047C114.143 44.0422 114.137 44.0376 114.131 44.0332C114.117 44.0222 114.104 44.0114 114.091 44.0018C114.1 43.8755 114.109 43.7534 114.119 43.6313C114.128 43.5052 114.137 43.379 114.147 43.2482C114.184 42.7986 114.184 42.3303 114.184 41.8807V41.1689L114.165 40.8879L114.147 40.5132C114.147 40.3821 114.128 40.2697 114.109 40.1573C114.1 40.1011 114.095 40.0402 114.09 39.9793C114.086 39.9184 114.081 39.8576 114.072 39.8014L114.034 39.4455L113.978 39.0895C113.903 38.6212 113.828 38.1716 113.716 37.7033C113.285 35.8862 112.573 34.1628 111.655 32.608C110.718 31.0532 109.557 29.6857 108.227 28.5242C106.916 27.3628 105.436 26.4262 103.9 25.7331C102.345 25.0399 100.734 24.5904 99.1229 24.3843C98.3173 24.2719 97.5118 24.2344 96.7063 24.2532H96.1069L95.8072 24.2719C95.7484 24.2719 95.6896 24.277 95.6336 24.2819C95.5824 24.2864 95.5334 24.2906 95.4887 24.2906C95.0766 24.3281 94.6645 24.3843 94.2711 24.4592C92.6601 24.759 91.1427 25.3397 89.8127 26.1452C88.4826 26.9507 87.3212 27.9435 86.3846 29.0675C85.4479 30.1915 84.7173 31.4466 84.2116 32.7391C83.7058 34.0317 83.4248 35.3804 83.3499 36.673C83.3311 36.9915 83.3311 37.3287 83.3311 37.6471V37.8906L83.3499 38.1529C83.3592 38.2278 83.3639 38.3074 83.3686 38.3871C83.3733 38.4667 83.378 38.5463 83.3873 38.6212C83.4435 39.2769 83.5747 39.9138 83.7432 40.5132C84.0992 41.7309 84.6611 42.8361 85.3543 43.7727C86.0474 44.7094 86.8904 45.4774 87.7708 46.0956C88.6512 46.695 89.6066 47.1259 90.5432 47.4069C91.4799 47.6879 92.4165 47.8003 93.297 47.8003H93.784C93.8402 47.8003 93.8964 47.8003 93.9526 47.7815C93.9994 47.7815 94.0463 47.7769 94.0931 47.7722C94.1399 47.7675 94.1868 47.7628 94.2336 47.7628C94.2523 47.7628 94.2898 47.7628 94.3085 47.7441L94.4022 47.7253C94.4303 47.7253 94.4584 47.7207 94.4865 47.716C94.5146 47.7113 94.5427 47.7066 94.5708 47.7066C94.627 47.6972 94.6785 47.6879 94.73 47.6785C94.7815 47.6691 94.8331 47.6598 94.8892 47.6504C95.0016 47.6317 95.0953 47.613 95.189 47.5755C95.3331 47.5493 95.4681 47.5047 95.6004 47.4611C95.6572 47.4423 95.7134 47.4238 95.7697 47.4069C96.1443 47.2758 96.519 47.1259 96.8375 46.9573C97.0958 46.8281 97.3322 46.6769 97.5635 46.529C97.634 46.4839 97.704 46.4391 97.7741 46.3953C97.7959 46.3789 97.8194 46.3625 97.8435 46.3457C97.9021 46.3048 97.9645 46.2611 98.0176 46.208C98.3173 45.9645 98.3735 45.5149 98.13 45.2152C97.924 44.9529 97.5493 44.878 97.2496 45.0466L97.0248 45.159C96.7625 45.2901 96.5003 45.4025 96.2193 45.4961C95.9383 45.5898 95.6386 45.6647 95.3388 45.7209L95.3381 45.721C95.1885 45.7397 95.0388 45.7584 94.8705 45.7771C94.8351 45.7771 94.7998 45.7813 94.7624 45.7857C94.7207 45.7906 94.6764 45.7959 94.627 45.7959H94.1774C94.0837 45.7959 93.9901 45.7959 93.8964 45.7771H93.784C93.7465 45.7771 93.6904 45.7771 93.6529 45.7584C93.6061 45.749 93.5639 45.7444 93.5218 45.7397C93.4796 45.735 93.4375 45.7303 93.3906 45.7209C92.6975 45.6273 92.0044 45.4212 91.3488 45.1215C90.6744 44.8218 90.0375 44.4096 89.4567 43.8851C88.876 43.3606 88.3702 42.7424 87.9769 42.0306C87.5835 41.3187 87.3025 40.532 87.1713 39.7077C87.1151 39.2956 87.0777 38.8647 87.0964 38.4526C87.0964 38.3964 87.1011 38.3402 87.1058 38.284C87.1105 38.2278 87.1151 38.1716 87.1151 38.1154V37.9656C87.1151 37.9375 87.1198 37.9094 87.1245 37.8813C87.1292 37.8532 87.1339 37.8251 87.1339 37.797C87.1526 37.5722 87.1901 37.3474 87.2275 37.1226C87.546 35.3242 88.4452 33.5634 89.8314 32.2333C90.1873 31.8961 90.562 31.5964 90.9554 31.3154C91.3488 31.0344 91.7796 30.7909 92.2292 30.5848C92.6788 30.3788 93.1284 30.2102 93.6154 30.0791C94.0837 29.9479 94.5708 29.873 95.0766 29.8168C95.3201 29.7981 95.5636 29.7793 95.8259 29.7793H96.4066L96.6127 29.7981C97.1559 29.8355 97.6804 29.9105 98.205 30.0416C99.254 30.2664 100.284 30.6598 101.24 31.1843C103.15 32.2521 104.78 33.9006 105.773 35.8862C106.279 36.8791 106.635 37.9468 106.803 39.0521C106.841 39.3331 106.878 39.6141 106.897 39.895L106.934 40.3072V41.1127C106.934 41.1782 106.93 41.2672 106.925 41.3562C106.92 41.4452 106.916 41.5342 106.916 41.5997C106.897 41.8994 106.859 42.2179 106.822 42.5176C106.785 42.8174 106.728 43.1171 106.672 43.4168C106.616 43.7165 106.541 44.0163 106.466 44.2972C106.316 44.878 106.129 45.4587 105.904 46.0394C105.455 47.1634 104.855 48.2499 104.143 49.2427C102.701 51.2284 100.734 52.8394 98.4859 53.8697C97.362 54.3755 96.1818 54.7501 94.9642 54.9375C94.3647 55.0499 93.7465 55.1061 93.1284 55.1248H92.1917C91.8545 55.1248 91.5361 55.1061 91.1989 55.0686C89.8876 54.9749 88.595 54.7314 87.3212 54.3755C86.0661 54.0196 84.8485 53.5138 83.687 52.9143C81.3829 51.678 79.3036 49.992 77.6926 47.9501C76.887 46.9386 76.1752 45.8333 75.5945 44.6906C75.0138 43.5479 74.5455 42.3303 74.2083 41.1127C73.8711 39.8763 73.665 38.6212 73.5713 37.3474L73.5526 37.1039V35.4366C73.5713 34.8185 73.6275 34.1628 73.7025 33.5259C73.7774 32.889 73.8898 32.2333 74.0209 31.5964C74.1521 30.9595 74.3019 30.3226 74.4893 29.6857C74.8452 28.4306 75.2948 27.2129 75.8193 26.0702C76.887 23.7848 78.2733 21.743 79.9405 20.1132C80.3526 19.7011 80.7835 19.3264 81.2331 18.9518C81.6826 18.5959 82.151 18.2587 82.638 17.9402C83.1063 17.6218 83.6121 17.3408 84.1179 17.0785C84.3614 16.9474 84.6237 16.8163 84.8859 16.7039L85.6727 16.3667C86.1972 16.1419 86.7405 15.9545 87.3025 15.786C87.3259 15.7792 87.35 15.7725 87.3745 15.7657C87.4866 15.7345 87.6069 15.701 87.7146 15.6548C87.7802 15.6361 87.8504 15.6174 87.9207 15.5986C87.9909 15.5799 88.0612 15.5612 88.1267 15.5424L88.1269 15.5424C88.4078 15.4675 88.6887 15.3926 88.9697 15.3364C89.041 15.316 89.1179 15.3011 89.1973 15.2858C89.2639 15.273 89.3322 15.2598 89.4005 15.2427C89.4755 15.224 89.5457 15.2099 89.616 15.1959C89.6862 15.1818 89.7565 15.1678 89.8314 15.149C89.9063 15.1397 89.9766 15.1256 90.0468 15.1116C90.1171 15.0975 90.1873 15.0835 90.2622 15.0741L90.4683 15.0366L90.6931 14.9992C90.768 14.9898 90.8383 14.9804 90.9085 14.9711C90.9788 14.9617 91.049 14.9523 91.124 14.943C91.2083 14.9336 91.2879 14.9242 91.3675 14.9149C91.4471 14.9055 91.5267 14.8961 91.611 14.8868C91.6766 14.8774 91.7656 14.868 91.8545 14.8587C91.9435 14.8493 92.0325 14.8399 92.0981 14.8306C92.1449 14.8212 92.1964 14.8165 92.2479 14.8118C92.2994 14.8072 92.351 14.8025 92.3978 14.7931L92.6038 14.7744L92.6975 14.7556H92.8099C92.8942 14.7463 92.9738 14.7416 93.0534 14.7369C93.133 14.7322 93.2127 14.7275 93.297 14.7182L93.5405 14.6994H93.7278C93.7934 14.6994 93.8636 14.6948 93.9339 14.6901C94.0041 14.6854 94.0744 14.6807 94.1399 14.6807C94.6832 14.662 95.2452 14.662 95.7884 14.6807C96.8749 14.7182 97.9427 14.8493 98.973 15.0366C101.052 15.43 103.001 16.0857 104.78 16.9661C106.56 17.8278 108.133 18.8956 109.52 20.057C109.566 20.0945 109.609 20.132 109.651 20.1694C109.693 20.2069 109.735 20.2444 109.782 20.2818C109.819 20.3193 109.861 20.3567 109.904 20.3942C109.946 20.4317 109.988 20.4691 110.025 20.5066C110.11 20.5815 110.189 20.6565 110.269 20.7314C110.348 20.8063 110.428 20.8813 110.512 20.9562C110.681 21.106 110.831 21.2558 110.981 21.4057L110.981 21.4058C111.131 21.5556 111.28 21.7055 111.43 21.8741C112.011 22.4923 112.554 23.1105 113.041 23.7474C114.015 25.0025 114.802 26.2763 115.42 27.4752L115.645 27.9248C115.72 28.0747 115.795 28.2245 115.851 28.3744C115.889 28.4493 115.921 28.5196 115.954 28.5898C115.987 28.6601 116.02 28.7303 116.057 28.8052C116.085 28.8802 116.118 28.9504 116.151 29.0207C116.184 29.0909 116.217 29.1612 116.245 29.2361C116.279 29.3231 116.314 29.4097 116.349 29.4958C116.538 29.9655 116.72 30.4197 116.863 30.8471C117.144 31.6714 117.35 32.4019 117.518 33.0388C117.575 33.3011 117.818 33.4697 118.08 33.4322C118.361 33.4135 118.567 33.1887 118.567 32.9077C118.586 32.2333 118.567 31.4278 118.474 30.5099C118.361 29.3672 118.174 28.0559 117.799 26.5948C117.425 25.1523 116.863 23.5601 116.039 21.9116C115.214 20.2631 114.147 18.5584 112.76 16.8912C112.217 16.2355 111.618 15.5986 110.981 14.9804C111.936 11.1777 109.819 7.88072 109.819 7.88072C106.166 7.65592 103.844 9.02342 102.982 9.6416C102.907 9.6135 102.837 9.58072 102.766 9.54793C102.696 9.51515 102.626 9.48237 102.551 9.45427C101.933 9.21074 101.296 8.96722 100.621 8.76116C99.9658 8.5551 99.2914 8.36777 98.5983 8.19917C97.9052 8.03058 97.2121 7.89945 96.5003 7.78705C96.4347 7.77769 96.3738 7.76832 96.3129 7.75895C96.2521 7.74959 96.1912 7.74022 96.1256 7.73085C94.5333 2.63554 89.9625 0.5 89.9625 0.5C84.8485 3.74077 83.8931 8.2741 83.8931 8.2741C83.8931 8.2741 83.8744 8.36777 83.8369 8.53636C83.6964 8.57383 83.5559 8.61598 83.4154 8.65813C83.2749 8.70028 83.1344 8.74243 82.9939 8.77989C82.6005 8.89229 82.2072 9.04215 81.8325 9.19201C81.4391 9.34187 81.0645 9.49174 80.6711 9.66033C79.903 9.99752 79.135 10.3722 78.3857 10.7843C77.6551 11.1964 76.9432 11.646 76.2501 12.1143L76.0628 12.0394C68.9818 9.34187 62.7063 12.5826 62.7063 12.5826C62.1256 20.1132 65.535 24.8526 66.2094 25.7143C66.0408 26.1826 65.8909 26.6509 65.7411 27.1192L65.741 27.1193C65.2165 28.824 64.8231 30.5661 64.5796 32.3832C64.5421 32.6455 64.5047 32.9077 64.4859 33.17C57.9295 36.4107 56 43.0234 56 43.0234ZM114.091 44.0022C114.051 43.9707 114.041 43.9628 114.049 43.9685C114.054 43.9729 114.071 43.9857 114.091 44.0018C114.091 44.0019 114.091 44.0021 114.091 44.0022ZM114.091 44.0022C114.102 44.0107 114.115 44.021 114.131 44.0332C114.137 44.0375 114.142 44.0419 114.147 44.0462C114.13 44.0362 114.11 44.0262 114.09 44.0163C114.091 44.0116 114.091 44.0069 114.091 44.0022ZM114.221 44.1099C114.194 44.0964 114.187 44.0829 114.185 44.0764C114.212 44.0986 114.23 44.1141 114.221 44.1099Z" fill="url(#paint0_linear_60_3113)"/>
<defs>
<linearGradient id="paint0_linear_60_3113" x1="87.2858" y1="84.9393" x2="87.2858" y2="21.3788" gradientUnits="userSpaceOnUse">
<stop stop-color="#FFF200"/>
<stop offset="1" stop-color="#F15A29"/>
</linearGradient>
</defs>
</svg>
