<svg width="170" height="68" viewBox="0 0 170 68" fill="none" xmlns="http://www.w3.org/2000/svg">
<path fill-rule="evenodd" clip-rule="evenodd" d="M111.97 32.7672C111.97 46.2396 101.292 57.1615 88.1204 57.1615C74.949 57.1615 64.2714 46.2398 64.2714 32.7672C64.2714 19.2945 74.949 8.37282 88.1204 8.37282C101.292 8.37282 111.97 19.2945 111.97 32.7672Z" fill="#D33833"/>
<path d="M65.2433 38.809C65.2433 38.809 63.5168 13.37 86.9571 12.6429L85.3219 9.91733L72.6025 14.1876L68.9683 18.3668L65.7885 24.4542L63.9713 31.5408L64.5164 36.2651" fill="#EF3D3A"/>
<path d="M71.2555 15.7173C66.8934 20.1924 64.4612 26.2003 64.4818 32.4497C64.4613 38.6986 66.8935 44.706 71.2555 49.1806C73.3763 51.3689 75.9148 53.1092 78.7206 54.2982C81.5264 55.4872 84.5424 56.1009 87.5898 56.1027C90.6372 56.1009 93.6532 55.4873 96.459 54.2982C99.2648 53.1091 101.803 51.3688 103.924 49.1805C108.286 44.7059 110.718 38.6985 110.698 32.4497C110.719 26.2003 108.286 20.1924 103.924 15.7173C101.803 13.5293 99.2645 11.7893 96.4587 10.6004C93.6529 9.41145 90.6371 8.79778 87.5898 8.79573C84.5425 8.79782 81.5266 9.41152 78.7209 10.6004C75.9151 11.7894 73.3765 13.5294 71.2555 15.7173ZM70.1963 50.2161C65.564 45.4645 62.9802 39.0856 63.0001 32.4497C62.9801 25.8135 65.5638 19.4343 70.1963 14.6825C72.4551 12.3533 75.1585 10.501 78.1461 9.23541C81.1338 7.96982 84.3451 7.31665 87.5898 7.31459C90.8344 7.31659 94.0457 7.96972 97.0333 9.23532C100.021 10.5009 102.724 12.3532 104.983 14.6825C109.616 19.4341 112.2 25.8134 112.18 32.4497C112.2 39.0857 109.616 45.4648 104.983 50.2161C102.724 52.5452 100.021 54.3974 97.0332 55.6631C94.0456 56.9287 90.8344 57.5819 87.5898 57.5842C84.3451 57.5819 81.1339 56.9286 78.1463 55.663C75.1586 54.3974 72.4553 52.5452 70.1963 50.2161Z" fill="#231F20"/>
<path fill-rule="evenodd" clip-rule="evenodd" d="M98.1597 32.9025L94.5252 33.4476L89.6192 33.9928L86.4391 34.0835L83.35 33.9928L80.9879 33.2658L78.8982 30.9945L77.2627 26.361L76.8995 25.3616L74.719 24.6349L73.4468 22.5451L72.5385 19.547L73.5379 16.9121L75.9 16.0943L77.808 17.0032L78.7167 19.0019L79.8069 18.8201L80.1701 18.3659L79.8069 16.2762L79.7158 13.6413L80.261 10.0072L80.2396 7.93139L81.8963 5.28295L84.8037 3.19319L89.8917 1.0127L95.5245 1.83049L100.431 5.37369L102.702 9.00779L104.156 11.6426L104.519 18.1843L103.429 23.8172L101.43 28.814L99.522 31.4489" fill="#F0D6B7"/>
<path fill-rule="evenodd" clip-rule="evenodd" d="M95.0705 48.6201L82.0781 49.1652V51.3457L83.1684 58.9775L82.6232 59.6136L73.5379 56.5243L72.9018 55.4341L71.9932 45.1678L69.904 38.9898L69.4495 37.536L76.7177 32.5392L78.9892 31.6305L80.9879 34.0835L82.7141 35.6281L84.7129 36.264L85.6214 36.5366L86.7116 41.2608L87.5294 42.2603L89.6192 41.5334L88.1652 44.3502L96.0696 48.075L95.0705 48.6201Z" fill="#335061"/>
<path fill-rule="evenodd" clip-rule="evenodd" d="M73.5379 16.9121L75.9 16.0943L77.808 17.0032L78.7167 19.0019L79.8069 18.8201L80.0794 17.7298L79.5343 15.6403L80.0794 10.6432L79.625 7.91762L81.2605 6.0095L84.8037 3.19319L83.8042 1.83049L78.8072 4.28353L76.7177 5.91877L75.5366 8.4627L73.7195 10.9157L73.1743 13.8231L73.5379 16.9121Z" fill="#6D6B6D"/>
<path fill-rule="evenodd" clip-rule="evenodd" d="M77.2627 8.37197C77.2627 8.37197 78.6254 5.01041 84.0768 3.375C89.5281 1.73959 84.3495 2.19377 84.3495 2.19377L78.4441 4.46516L76.1724 6.73639L75.1733 8.55361L77.2627 8.37197Z" fill="#DCD9D8"/>
<path fill-rule="evenodd" clip-rule="evenodd" d="M74.5372 16.2762C74.5372 16.2762 72.6292 9.91631 79.8976 9.00779L79.625 7.91762L74.6282 9.09903L73.1743 13.8231L73.5379 16.9121L74.5372 16.2762Z" fill="#DCD9D8"/>
<path fill-rule="evenodd" clip-rule="evenodd" d="M77.4446 24.7256L78.6341 23.5729C78.8014 23.6032 78.9538 23.6882 79.0675 23.8146C79.1811 23.9411 79.2494 24.1017 79.2618 24.2712C79.3525 24.9074 79.625 30.6311 83.5317 33.7204C83.888 34.0023 80.6245 33.2658 80.6245 33.2658L77.7171 28.7233" fill="#F7E4CD"/>
<path fill-rule="evenodd" clip-rule="evenodd" d="M94.1623 22.9994C94.1623 22.9994 94.374 20.2455 95.1155 20.4574C95.3245 20.5167 95.5091 20.6411 95.6425 20.8125C95.7759 20.9839 95.8512 21.1934 95.8573 21.4106C95.8573 21.4106 94.0563 22.576 94.1623 22.9994Z" fill="#F7E4CD"/>
<path d="M101.703 12.9148C101.703 12.9148 100.205 13.2308 100.067 14.55C99.9293 15.8696 101.703 14.8227 101.975 14.7318" fill="#F7E4CD"/>
<path d="M90.7093 13.0057C90.7093 13.0057 88.7105 13.2784 88.7105 14.5502C88.7105 15.8221 90.982 15.7314 91.6178 15.1862" fill="#F7E4CD"/>
<path fill-rule="evenodd" clip-rule="evenodd" d="M78.3531 18.9112C78.3531 18.9112 74.9004 16.8212 74.5372 18.8203C74.1737 20.8189 73.3559 22.2729 75.0822 24.3623L73.9014 23.999L72.811 21.1826L72.4477 18.457L74.5372 16.2762L76.8995 16.458L78.2622 17.5483L78.3531 18.9112Z" fill="#F7E4CD"/>
<path fill-rule="evenodd" clip-rule="evenodd" d="M79.9883 13.1873C79.9883 13.1873 81.5328 5.19222 89.3466 3.64754C95.7794 2.37608 99.1586 3.91991 100.431 5.37369C100.431 5.37369 94.7069 -1.43999 89.2554 0.649426C83.8042 2.73919 79.8068 6.55492 79.8976 9.00779C80.0522 13.1856 79.9883 13.1873 79.9883 13.1873Z" fill="#F7E4CD"/>
<path fill-rule="evenodd" clip-rule="evenodd" d="M101.067 6.28221C101.067 6.28221 98.4322 6.19148 98.3413 8.55378C98.3504 8.80598 98.4122 9.05348 98.5228 9.28033C98.5228 9.28033 100.613 6.91803 101.885 8.19017" fill="#F7E4CD"/>
<path fill-rule="evenodd" clip-rule="evenodd" d="M89.5296 9.52653C89.5296 9.52653 89.0761 5.90059 85.9847 8.00853C83.986 9.37123 84.1678 11.2794 84.5311 11.6426C84.8946 12.0062 84.7957 12.7381 85.0723 12.2356C85.3489 11.7334 85.2578 10.0981 86.2573 9.64394C87.2567 9.18959 88.895 8.68223 89.5296 9.52653Z" fill="#F7E4CD"/>
<path fill-rule="evenodd" clip-rule="evenodd" d="M80.9879 34.0835L72.4477 37.8994C72.4477 37.8994 75.9909 51.9818 74.1737 56.3428L72.9018 55.8888L72.811 50.5282L70.4491 40.3527L69.4495 37.536L78.3529 31.5399L80.9879 34.0835Z" fill="#49728B"/>
<path fill-rule="evenodd" clip-rule="evenodd" d="M81.866 41.8725L83.0775 43.3508V48.8021H81.6237C81.6237 48.8021 81.4423 44.9864 81.4423 44.5318C81.4423 44.0775 81.6237 42.4423 81.6237 42.4423" fill="#49728B"/>
<path fill-rule="evenodd" clip-rule="evenodd" d="M81.8963 49.6199L77.8078 49.8013L78.9892 50.619L81.8964 51.0733" fill="#49728B"/>
<path fill-rule="evenodd" clip-rule="evenodd" d="M95.8881 48.7112L99.2497 48.6203L100.067 56.979L96.6146 57.4331L95.8881 48.7112Z" fill="#335061"/>
<path fill-rule="evenodd" clip-rule="evenodd" d="M96.7964 48.7112L101.884 48.4385C101.884 48.4385 103.974 43.1691 103.974 42.8964C103.974 42.6237 105.791 35.2648 105.791 35.2648L101.703 30.9949L100.885 30.268L98.7046 32.4485V40.8979L96.7964 48.7112Z" fill="#335061"/>
<path fill-rule="evenodd" clip-rule="evenodd" d="M99.0678 48.075L95.8881 48.7112L96.3421 51.2553C97.5232 51.8004 99.5222 50.3464 99.5222 50.3464" fill="#49728B"/>
<path fill-rule="evenodd" clip-rule="evenodd" d="M99.1589 32.1759L105.519 36.9002L105.7 34.7197L100.885 30.268L99.1589 32.1759Z" fill="#49728B"/>
<path fill-rule="evenodd" clip-rule="evenodd" d="M85.0493 66.6103L83.1684 58.9775L82.2329 53.3456L82.0781 49.1652L90.5916 48.712L95.8881 48.7112L95.4066 58.2518L96.2242 65.6107L96.1334 66.9736L89.2287 67.5187L85.0493 66.6103Z" fill="white"/>
<path fill-rule="evenodd" clip-rule="evenodd" d="M94.7069 48.6204C94.7069 48.6204 94.2527 58.0693 95.6156 64.7923C93.5477 65.9726 91.2591 66.7148 88.8921 66.9728L96.5239 66.7002L97.4324 66.1551L96.3421 51.2553L96.0696 48.075" fill="#DCD9D8"/>
<path fill-rule="evenodd" clip-rule="evenodd" d="M100.222 56.2529L103.765 55.2535L110.488 54.8901L111.488 51.801L109.671 46.4406L107.581 46.1681L104.674 47.0766L101.884 48.4385L100.404 48.1668L99.2497 48.6203" fill="white"/>
<path fill-rule="evenodd" clip-rule="evenodd" d="M100.158 54.4349C100.158 54.4349 102.52 53.3449 102.884 53.4358L101.884 48.4385L103.065 47.9845C103.065 47.9845 103.883 52.7087 103.883 53.2538C103.883 53.2538 108.971 53.5264 109.425 53.5264C109.425 53.5264 110.515 51.4368 110.243 49.2563L111.242 52.1635L111.333 53.7989L109.88 55.9794L108.244 56.343L105.519 56.2521L104.61 55.0712L101.43 55.5252L100.431 55.8888" fill="#DCD9D8"/>
<path d="M96.5878 47.9853L94.5891 42.8975L92.4992 39.8992C92.4992 39.8992 92.9534 38.6272 93.5895 38.6272H95.6794L97.678 39.3541L97.4965 42.7156L96.5878 47.9853Z" fill="white"/>
<path fill-rule="evenodd" clip-rule="evenodd" d="M96.9783 46.258C96.9783 46.258 94.4343 41.3521 94.4343 40.6254C94.4343 40.6254 94.8883 39.535 95.5245 39.8076C96.1606 40.0801 97.5235 40.8067 97.5235 40.8067V39.0807L94.4343 38.4445L92.3447 38.7171L95.8881 47.0758L96.6148 47.1668" fill="#DCD9D8"/>
<path d="M85.8671 34.2664L83.35 33.9928L80.9879 33.2658L80.9879 34.0835L82.1421 35.3564L85.7762 36.9918" fill="white"/>
<path fill-rule="evenodd" clip-rule="evenodd" d="M81.8059 34.5387C81.8059 34.5387 84.6225 35.72 85.531 35.4474L85.6214 36.5366L83.0778 35.9925L81.5333 34.9024L81.8059 34.5387Z" fill="#DCD9D8"/>
<path fill-rule="evenodd" clip-rule="evenodd" d="M100.212 38.9364C98.8097 38.9152 97.4147 38.723 96.0585 38.3642C96.1413 37.8643 95.9863 37.3736 96.1109 37.0135C96.4507 36.7688 97.0204 36.7726 97.534 36.7152C97.041 36.4833 96.4853 36.4206 95.953 36.5366C95.9411 36.1896 95.7853 35.9745 95.691 35.7032C96.5577 35.3937 98.604 33.3657 99.755 34.0372C100.303 34.3566 100.536 36.1811 100.579 37.0684C100.614 37.8041 100.512 38.5466 100.212 38.9364Z" fill="#D33833"/>
<path d="M100.317 39.1577L100.206 39.1546C98.7854 39.1321 97.3729 38.9371 95.9994 38.574L95.8115 38.521L95.8434 38.3285C95.8702 38.1183 95.8737 37.9057 95.8539 37.6947C95.8219 37.443 95.8393 37.1874 95.9049 36.9423L95.9273 36.8771L95.9834 36.8366C96.0538 36.7866 96.1296 36.7446 96.2094 36.7114C96.1407 36.7196 96.0725 36.732 96.0052 36.7483L95.7444 36.8127L95.735 36.5442C95.722 36.3628 95.6717 36.1861 95.5873 36.025C95.5512 35.9434 95.5153 35.8617 95.4851 35.7745L95.4142 35.5703L95.6178 35.4977C95.975 35.3275 96.3145 35.1224 96.6315 34.8855C97.6625 34.1848 98.946 33.3125 99.8649 33.8489C100.643 34.3021 100.783 36.7773 100.797 37.0579C100.817 37.4759 100.817 38.5081 100.385 39.0693L100.317 39.1577ZM96.2962 38.2031C97.541 38.5142 98.8165 38.6858 100.099 38.7149C100.298 38.3798 100.395 37.7815 100.361 37.0788C100.303 35.8736 100.013 34.44 99.6452 34.2256C98.9635 33.8277 97.7575 34.6477 96.8766 35.2463C96.5864 35.4537 96.2844 35.6443 95.9722 35.817L95.9861 35.8486C96.0524 35.9869 96.1039 36.1317 96.1399 36.2807C96.6492 36.2186 97.1658 36.3014 97.6302 36.5194L98.3005 36.8489L97.5583 36.9318C97.4536 36.943 97.3488 36.953 97.2438 36.9617C96.8918 36.9923 96.5288 37.0234 96.2981 37.1525C96.2737 37.3239 96.2707 37.4977 96.2893 37.6699C96.3028 37.8473 96.3051 38.0254 96.2962 38.2031Z" fill="#D33833"/>
<path fill-rule="evenodd" clip-rule="evenodd" d="M92.8404 36.4165C92.8363 36.533 92.8314 36.6506 92.8268 36.7682C92.3454 37.0844 91.5682 37.0806 91.04 37.3464C91.7082 37.3681 92.3639 37.5338 92.9622 37.8323C92.9504 38.1262 92.939 38.4199 92.9279 38.7135C92.0455 39.3176 91.2396 40.2171 90.2008 40.7834C89.7097 41.0513 87.986 41.7405 87.4635 41.6187C87.1678 41.55 87.141 41.1832 87.0229 40.8374C86.7711 40.0968 86.1913 38.9179 86.1407 37.8031C86.0763 36.395 85.9343 34.0353 87.4516 34.3253C88.7064 34.5914 89.9171 35.0343 91.0474 35.6406C91.6265 35.9574 91.9616 36.3488 92.8404 36.4165Z" fill="#D33833"/>
<path d="M87.6026 41.8498C87.5392 41.8507 87.4759 41.8444 87.4139 41.8311C87.0565 41.7481 86.9631 41.4148 86.8805 41.1207C86.8612 41.0492 86.8398 40.9782 86.8164 40.9079C86.7575 40.7346 86.6805 40.5372 86.5964 40.3221C86.3143 39.5989 85.9631 38.6994 85.9229 37.813L85.9186 37.7214C85.8646 36.5539 85.7908 34.9552 86.5062 34.335C86.6413 34.2226 86.8011 34.1438 86.9725 34.1048C87.1439 34.0659 87.3221 34.0681 87.4925 34.1111C88.7695 34.3815 90.0016 34.8321 91.1519 35.4491C91.3077 35.5346 91.4444 35.6233 91.5765 35.7094C91.9474 35.9924 92.392 36.1623 92.857 36.1988L93.0657 36.2149L93.0402 36.8891L92.9464 36.9506C92.6757 37.1084 92.3795 37.2173 92.0712 37.2726C92.413 37.3574 92.7444 37.4797 93.0594 37.6373L93.1856 37.7001L93.1415 38.8314L93.0509 38.8934C92.6921 39.1497 92.3466 39.4241 92.0158 39.7156C91.4904 40.1931 90.9172 40.6151 90.3051 40.9747C89.9364 41.1757 88.3584 41.8498 87.6026 41.8498ZM87.2089 34.5189C87.0566 34.5137 86.9079 34.5657 86.792 34.6646C86.2362 35.1463 86.3072 36.6837 86.3543 37.7012L86.3585 37.7932C86.3956 38.6075 86.7323 39.4703 87.0027 40.1635C87.0893 40.3851 87.1687 40.5887 87.2293 40.7671C87.2562 40.8457 87.2786 40.9253 87.3003 41.0029C87.3726 41.2603 87.4171 41.3842 87.5127 41.4061C87.9151 41.4996 89.5126 40.9101 90.0963 40.5919C90.6818 40.2459 91.2304 39.8409 91.7336 39.3833C92.0661 39.1007 92.3818 38.8326 92.7139 38.5966L92.7388 37.9669C92.202 37.7196 91.6211 37.5827 91.0304 37.5642L90.1945 37.5277L90.9421 37.1517C91.2232 37.0264 91.5185 36.9357 91.8214 36.8815C92.0944 36.8344 92.3605 36.7535 92.6135 36.6407L92.6147 36.6108C92.1526 36.537 91.7149 36.3532 91.3387 36.0749C91.2134 35.9934 91.0838 35.9091 90.9428 35.8319C89.8325 35.2362 88.6433 34.801 87.4108 34.5394C87.3443 34.5263 87.2767 34.5194 87.2089 34.5189Z" fill="#D33833"/>
<path fill-rule="evenodd" clip-rule="evenodd" d="M93.7166 38.0964C93.5819 37.3294 93.4264 37.1106 93.4865 36.4414C95.5323 35.0775 95.9163 38.7842 93.7166 38.0964Z" fill="#D33833"/>
<path d="M94.2338 38.4019C94.0359 38.3992 93.8396 38.3663 93.6515 38.3045L93.5248 38.2649L93.5018 38.1341C93.4665 37.9372 93.4248 37.7414 93.3768 37.5472C93.2706 37.1822 93.2341 36.8004 93.2692 36.4219L93.2787 36.3179L93.3654 36.2601C94.2838 35.6481 94.838 36.0114 95.0334 36.1956C95.24 36.4125 95.3716 36.6899 95.4091 36.987C95.4465 37.2842 95.3878 37.5855 95.2416 37.8469C95.1394 38.0219 94.9918 38.1659 94.8143 38.2636C94.6369 38.3613 94.4363 38.409 94.2338 38.4019ZM93.9064 37.9227C94.3519 38.0298 94.6897 37.9261 94.8652 37.6267C94.9611 37.4503 95.0001 37.2485 94.9766 37.049C94.9532 36.8495 94.8686 36.6622 94.7344 36.5128C94.4935 36.286 94.1275 36.3055 93.6959 36.5666C93.6814 36.8636 93.7169 37.1608 93.8009 37.4459C93.8337 37.5832 93.8704 37.7355 93.9064 37.9227Z" fill="#D33833"/>
<path fill-rule="evenodd" clip-rule="evenodd" d="M96.6785 38.7181C96.6785 38.7181 96.0424 37.8094 96.4967 37.5369C96.9511 37.2643 97.4054 37.5372 97.678 37.0828C97.9505 36.6285 97.678 36.3558 97.7687 35.8107C97.8594 35.2656 98.3141 35.1746 98.7683 35.0838C99.2225 34.9931 100.495 34.8113 100.676 35.2656L100.131 33.6302L99.0408 33.2669L95.5882 35.2656L95.4064 36.2651V38.2637" fill="#EF3D3A"/>
<path fill-rule="evenodd" clip-rule="evenodd" d="M87.1389 41.7164C87.0297 40.2985 86.912 38.8817 86.7857 37.466C86.5935 35.3509 87.2937 35.72 89.1271 35.72C89.4073 35.72 90.8514 36.0539 90.9547 36.2651C91.4503 37.2771 90.1262 37.0523 91.5256 37.8155C92.7068 38.4595 94.7935 37.4244 94.3162 35.9925C94.0491 35.6743 92.9246 35.8933 92.5214 35.6843L90.3921 34.5804C89.489 34.1119 87.402 33.4289 86.4391 34.0835C83.9996 35.7426 86.5932 39.888 87.4635 41.6187" fill="#EF3D3A"/>
<path fill-rule="evenodd" clip-rule="evenodd" d="M89.5296 9.52653C87.0536 8.94968 85.8228 10.5627 85.0723 12.2356C84.4021 12.0732 84.6689 11.1619 84.8383 10.6974C85.2814 9.47844 87.0677 7.85595 88.5271 8.07598C89.1553 8.17045 90.0052 8.74476 89.5296 9.52653Z" fill="#231F20"/>
<path fill-rule="evenodd" clip-rule="evenodd" d="M101.595 12.3464C101.634 12.3481 101.673 12.3495 101.713 12.351C102.272 13.5135 102.756 14.7451 103.462 15.7712C102.989 16.8725 99.8814 17.8473 99.9293 15.8696C100.601 15.5756 101.762 15.8096 102.358 15.4342C102.013 14.4887 101.516 13.6838 101.595 12.3464Z" fill="#231F20"/>
<path fill-rule="evenodd" clip-rule="evenodd" d="M90.7975 12.3767C91.3285 13.3499 91.5013 14.3726 92.2559 15.1083C92.5957 15.4395 93.2567 15.843 92.9292 16.7641C92.8526 16.9813 92.2931 17.4657 91.9701 17.5609C90.79 17.9092 88.0407 17.6327 88.9718 16.1618C89.9476 16.2072 91.2592 16.7956 91.9886 16.087C91.4284 15.1916 90.4298 13.4203 90.7975 12.3767Z" fill="#231F20"/>
<path fill-rule="evenodd" clip-rule="evenodd" d="M101.152 22.269C99.3756 23.4103 97.3945 24.6512 94.4836 24.3633C93.8617 23.8227 93.6245 22.6193 94.2287 21.8245C94.5432 22.3653 94.3456 23.3598 95.2222 23.5095C96.8739 23.7921 98.7963 22.499 99.9844 22.0472C100.721 20.8052 99.921 20.3483 99.2571 19.5488C97.8985 17.9109 96.0759 15.8809 96.1421 13.4291C96.6913 13.0308 96.7387 14.0369 96.8175 14.22C97.5271 15.8804 99.3125 18.004 100.616 19.4252C100.936 19.7752 101.463 20.1109 101.521 20.3423C101.69 21.0152 101.082 21.8213 101.152 22.269Z" fill="#231F20"/>
<path fill-rule="evenodd" clip-rule="evenodd" d="M77.7312 21.0675C77.1744 20.7498 77.0419 19.3499 76.3882 19.3101C75.4538 19.2534 75.6243 21.1261 75.628 22.2214C74.9849 21.6376 74.8719 19.8399 75.3443 18.9168C74.8058 18.6524 74.5654 19.2085 74.2667 19.4044C74.6507 16.6161 78.3456 18.111 77.7312 21.0675Z" fill="#231F20"/>
<path fill-rule="evenodd" clip-rule="evenodd" d="M102.283 23.4302C101.456 25.0042 100.286 26.7377 97.8598 26.7882C97.8105 26.2798 97.7726 25.5063 97.8625 25.2002C99.7176 25.0219 100.863 24.0777 102.283 23.4302Z" fill="#231F20"/>
<path fill-rule="evenodd" clip-rule="evenodd" d="M90.6575 24.4507C92.2054 25.2646 95.0497 25.3521 97.1533 25.2904C97.249 25.8154 97.2874 26.3493 97.2678 26.8826C94.5638 27.0175 91.3667 26.3484 90.6575 24.4507Z" fill="#231F20"/>
<path fill-rule="evenodd" clip-rule="evenodd" d="M90.3634 25.9683C91.4337 28.6555 95.1121 28.3461 98.2142 28.272C98.0776 28.6208 97.7816 29.0329 97.4136 29.1821C96.4196 29.5865 93.6779 29.8935 92.2978 29.1605C91.4228 28.6953 90.8604 27.644 90.3809 27.0277C90.1493 26.7301 88.9963 25.9699 90.3634 25.9683Z" fill="#231F20"/>
<path fill-rule="evenodd" clip-rule="evenodd" d="M101.023 40.7909C99.7669 42.942 98.5653 45.1513 97.0751 47.0488C97.6999 45.212 97.9672 42.1376 98.0615 39.794C99.3684 39.1823 100.487 39.9316 101.023 40.7909Z" fill="#81B0C4"/>
<path fill-rule="evenodd" clip-rule="evenodd" d="M107.781 48.5222C106.375 48.8038 105.387 50.1704 104.015 50.0827C104.769 49.0199 106.09 48.5719 107.781 48.5222Z" fill="#231F20"/>
<path fill-rule="evenodd" clip-rule="evenodd" d="M108.402 50.7228C107.256 50.8439 105.909 51.0295 104.747 50.9338C105.297 50.0932 107.418 50.3833 108.402 50.7228Z" fill="#231F20"/>
<path fill-rule="evenodd" clip-rule="evenodd" d="M108.799 52.6202C107.511 52.6481 105.91 52.6224 104.685 52.5196C105.41 51.7418 107.963 52.2309 108.799 52.6202Z" fill="#231F20"/>
<path fill-rule="evenodd" clip-rule="evenodd" d="M98.5992 57.8122C98.7841 59.4298 99.4254 61.0691 99.3452 62.8406C98.6329 63.0809 98.2237 63.2909 97.2695 63.2897C97.2022 61.784 97.0007 59.4821 97.061 58.0469C97.5303 58.078 98.2224 57.7117 98.5992 57.8122Z" fill="#DCD9D8"/>
<path fill-rule="evenodd" clip-rule="evenodd" d="M96.5226 33.9706C95.8759 34.393 95.325 34.92 94.7038 35.3708C93.3263 35.4389 92.5746 35.2755 91.5626 34.4845C91.5791 34.421 91.6809 34.4494 91.6846 34.3714C93.1591 35.0284 95.0336 34.1036 96.5226 33.9706Z" fill="#F0D6B7"/>
<path fill-rule="evenodd" clip-rule="evenodd" d="M88.7817 44.0223C89.1869 42.2666 90.7744 41.3574 92.2159 40.3906C93.7039 42.279 94.6087 44.7075 95.6052 47.051C93.2507 46.3412 90.8451 45.1896 88.7817 44.0223Z" fill="#81B0C4"/>
<path fill-rule="evenodd" clip-rule="evenodd" d="M97.061 58.0469C97.0007 59.4821 97.2022 61.784 97.2695 63.2897C98.2237 63.2909 98.6329 63.0809 99.3452 62.8406C99.4254 61.0691 98.7841 59.4298 98.5992 57.8122C98.2224 57.7117 97.5303 58.078 97.061 58.0469ZM82.2025 49.8839C82.8316 55.6686 83.7431 60.5312 85.4147 65.6536C89.1245 66.7801 93.597 66.8783 96.8761 65.8617C96.274 62.9706 96.537 59.4509 96.1853 56.3658C95.92 54.0468 96.0551 51.7136 95.6915 49.3479C91.7181 48.5212 86.102 49.1545 82.2025 49.8839ZM96.6311 49.3841C96.5977 51.8685 96.7422 54.319 96.9319 56.8065C97.8859 56.6633 98.5333 56.5678 99.4197 56.3734C99.1319 53.9787 99.1672 51.284 98.581 49.1657C97.9034 49.1722 97.3067 49.1579 96.6311 49.3841ZM101.47 48.9837C101.018 48.8799 100.491 48.9797 100.058 48.988C100.261 51.0133 100.755 53.2479 100.928 55.3737C101.609 55.3949 101.973 55.0739 102.532 54.9659C102.562 53.0999 102.369 50.5291 101.47 48.9837ZM108.798 55.6787C110.217 55.3341 111.109 53.5965 110.712 51.8121C110.446 50.6127 109.971 48.3545 109.464 47.5874C109.089 47.0199 108.072 46.2769 107.26 46.797C105.939 47.6426 103.612 47.8881 102.649 48.912C103.132 50.5201 103.282 52.729 103.481 54.7666C105.131 54.8694 107.161 54.3125 108.534 54.9035C107.576 55.2138 106.333 55.2161 105.505 55.6686C106.181 55.9954 107.766 55.9293 108.798 55.6787ZM95.6052 47.051C94.6087 44.7075 93.7039 42.279 92.2159 40.3906C90.7744 41.3574 89.1869 42.2666 88.7817 44.0223C90.8451 45.1896 93.2507 46.3412 95.6052 47.051ZM98.0615 39.794C97.9672 42.1376 97.6999 45.212 97.0751 47.0488C98.5653 45.1513 99.7669 42.942 101.023 40.7909C100.487 39.9316 99.3684 39.1823 98.0615 39.794ZM95.2771 38.8046C94.7125 38.7438 94.2333 39.4537 93.4995 39.1466C93.3312 39.3325 93.1783 39.534 93.0067 39.7155C94.628 41.6692 95.3648 44.4411 96.617 46.7371C97.2889 44.5317 97.2114 42.1153 97.3595 39.7082C96.4362 39.7666 95.9241 38.8732 95.2771 38.8046ZM93.7166 38.0964C93.5819 37.3294 93.4264 37.1106 93.4865 36.4414C95.5323 35.0775 95.9163 38.7842 93.7166 38.0964ZM91.0474 35.6406C89.9171 35.0343 88.7064 34.5914 87.4516 34.3253C85.9343 34.0353 86.0763 36.395 86.1407 37.8031C86.1913 38.9179 86.7711 40.0968 87.0229 40.8374C87.141 41.1832 87.1678 41.55 87.4635 41.6187C87.986 41.7405 89.7097 41.0513 90.2008 40.7834C91.2396 40.2171 92.0455 39.3176 92.9279 38.7135C92.939 38.4199 92.9504 38.1262 92.9622 37.8323C92.3639 37.5338 91.7082 37.3681 91.04 37.3464C91.5682 37.0806 92.3454 37.0844 92.8268 36.7682C92.8314 36.6506 92.8363 36.533 92.8404 36.4165C91.9616 36.3488 91.6265 35.9574 91.0474 35.6406ZM81.9945 33.9962C81.208 34.7948 84.201 35.8834 85.1538 35.9421C85.1484 35.4367 85.4418 34.9603 85.3827 34.5979C84.2509 34.3991 82.7633 34.5301 81.9945 33.9962ZM91.6846 34.3714C91.6809 34.4494 91.5791 34.421 91.5626 34.4845C92.5746 35.2755 93.3263 35.4389 94.7038 35.3708C95.325 34.92 95.8759 34.393 96.5226 33.9706C95.0336 34.1036 93.1591 35.0284 91.6846 34.3714ZM100.579 37.0684C100.536 36.1811 100.303 34.3566 99.755 34.0372C98.604 33.3657 96.5577 35.3937 95.691 35.7032C95.7853 35.9745 95.9411 36.1896 95.953 36.5366C96.4853 36.4206 97.041 36.4833 97.534 36.7152C97.0204 36.7726 96.4507 36.7688 96.1109 37.0135C95.9863 37.3736 96.1413 37.8643 96.0585 38.3642C97.4147 38.723 98.8097 38.9152 100.212 38.9364C100.512 38.5466 100.614 37.8041 100.579 37.0684ZM80.6703 34.7688C80.4233 34.5926 78.7524 32.4184 78.5233 32.5086C75.4997 33.7011 72.6724 35.763 70.1458 37.7132C72.5548 42.882 73.527 49.2148 73.699 55.3186C76.4584 56.6091 78.8822 58.4698 82.6267 58.664C82.1934 55.5983 81.7979 52.863 81.5519 49.9767C80.611 49.58 79.2613 49.9945 78.3808 49.8537C78.3733 48.7926 79.7255 49.389 79.8381 48.6755C79.9231 48.1357 79.0941 48.0949 79.3641 47.245C80.0522 47.4953 80.4138 48.0479 81.1478 48.2555C81.8186 46.788 81.1385 44.1915 81.2351 42.9649C81.2535 42.7347 81.3502 41.6892 81.866 41.8725C82.3226 42.035 81.8399 44.6532 81.8898 45.814C81.9357 46.8836 81.7607 47.9184 82.194 48.5899C85.9113 48.0806 89.6536 47.774 93.4043 47.6715C92.5428 47.3019 91.5198 46.9523 90.3979 46.32C89.7897 45.9771 87.873 45.2638 87.6973 44.6861C87.4174 43.7657 88.432 43.2755 88.6055 42.4864C86.7791 43.4825 86.4227 41.5315 85.9905 40.1494C85.6741 39.201 85.4365 38.228 85.2803 37.2404C83.7069 36.4902 82.0246 35.7307 80.6703 34.7688ZM98.9809 32.7717C101.5 31.55 101.954 37.3372 100.967 39.2017C101.119 39.7578 101.644 39.9705 101.859 40.4704C100.453 42.9889 98.8911 45.3398 97.4567 47.8287C98.5238 47.1643 100.048 47.7097 101.304 47.2126C101.763 47.0311 102.095 45.9804 102.442 45.1396C103.398 42.8271 104.402 39.9114 104.848 37.7046C104.949 37.2016 105.224 36.1059 105.162 35.6585C105.053 34.857 103.965 34.2628 103.412 33.7673C102.393 32.852 101.752 32.0466 100.689 31.1908C100.258 31.8269 99.3333 32.2544 98.9809 32.7717ZM74.9088 10.4303C73.7083 11.7512 73.9596 14.2262 74.1049 15.9868C76.2747 14.6217 79.1547 16.0947 79.1275 18.4164C80.1635 18.3889 79.5146 17.1225 79.3272 16.3067C78.7148 13.6422 80.3589 10.7472 79.4018 8.31064C77.5433 8.45149 76.0166 9.21049 74.9088 10.4303ZM83.4982 2.76416C80.7806 3.53455 77.2976 5.50911 76.1809 7.95059C77.0456 7.82485 77.6459 7.38886 78.4989 7.33482C78.8214 7.31375 79.2436 7.47008 79.6142 7.37781C80.3526 7.19465 80.9757 5.53918 81.5328 4.92325C82.0757 4.32176 82.7283 4.06468 83.175 3.51637C83.462 3.37772 83.8863 3.38723 83.9026 2.95634C83.7782 2.82329 83.6472 2.72169 83.4982 2.76416ZM97.6452 3.48867C94.8243 1.89727 90.0497 0.700061 87.0494 2.19597C84.6281 3.40304 81.3556 5.40053 80.2396 7.93139C81.282 10.3739 79.9309 12.6118 79.8447 15.0915C79.7989 16.4111 80.4659 17.5629 80.5171 18.9995C80.1603 19.5879 79.0706 19.6605 78.3164 19.62C78.0624 18.3493 77.6179 16.9211 76.3094 16.7777C74.4578 16.5752 73.1041 18.1077 73.0198 19.7087C72.9204 21.5921 74.4663 24.7132 76.6575 24.4964C77.504 24.4128 77.7118 23.5642 78.6341 23.5729C79.134 24.5703 77.863 24.8834 77.7324 25.5967C77.6984 25.7811 77.8377 26.5012 77.9188 26.8388C78.3169 28.4832 79.204 30.6114 80.0774 31.8631C81.1857 33.4511 83.3631 33.6905 85.7059 33.846C86.1242 32.9448 87.6657 33.0189 88.67 33.2547C87.4664 32.7779 86.3473 31.6224 85.4199 30.5993C84.3546 29.4257 83.2756 28.1667 83.2212 26.6327C85.2342 29.4254 86.8971 31.8643 90.5576 33.0928C93.3273 34.0217 96.5623 32.667 98.6903 31.1726C99.5733 30.5514 100.101 29.5657 100.728 28.6637C103.077 25.2853 104.173 20.463 103.932 15.7892C103.833 13.8615 103.837 11.9407 103.19 10.6437C102.514 9.2878 100.228 8.07463 98.8898 9.30106C98.6417 7.98253 100.003 7.16695 101.601 7.64152C100.461 6.17041 99.2653 4.40281 97.6452 3.48867ZM102.9 46.9808C105.104 45.885 109.223 44.0315 110.605 46.9849C111.177 48.2942 111.636 49.65 111.977 51.0376C112.35 52.6231 111.573 55.9554 109.943 56.4874C108.504 56.9574 106.824 56.9287 105.09 56.5804C104.847 56.361 104.647 56.0985 104.5 55.8061C103.262 55.7582 102.103 55.8725 101.125 56.3814C101.217 57.2971 100.598 57.4439 100.017 57.6325C99.5871 59.3389 100.879 61.5677 100.57 63.1236C100.349 64.2321 98.9851 64.4035 97.9826 64.611C97.9663 65.1638 98.0038 65.717 98.0947 66.2625C97.8657 67.107 96.8374 67.5878 95.8635 67.7056C92.6584 68.091 87.7919 68.2641 84.709 67.1556C83.8489 65.0454 83.1711 62.4789 82.4546 60.0695C79.4478 60.3907 77.0162 58.7721 74.7236 57.7118C73.9299 57.3438 72.8319 57.1411 72.5354 56.5094C72.2479 55.8977 72.3655 54.7253 72.2941 53.6179C72.1127 50.7896 71.9572 48.0615 71.2103 45.1655C70.875 43.866 70.2904 42.7192 69.8826 41.4671C69.5057 40.3066 68.8473 38.8724 68.6755 37.7151C68.4208 35.9998 70.036 35.9043 71.0687 35.1611C72.6652 34.0117 73.9183 33.3762 75.6474 32.3389C76.1595 32.0315 77.704 31.254 77.8795 30.8958C78.2289 30.1857 77.2802 29.1848 77.0266 28.6282C76.647 27.8462 76.4203 26.999 76.3588 26.132C75.7104 26.0251 75.0908 25.7868 74.538 25.4315C73.9853 25.0762 73.511 24.6116 73.1446 24.0662C72.0459 22.4554 71.284 19.4751 72.2345 17.2083C72.3091 17.0299 72.6809 16.6787 72.7357 16.4046C72.8438 15.8645 72.5322 15.1466 72.5128 14.5723C72.4129 11.626 73.0113 9.08731 74.9947 8.19883C75.8001 4.99087 78.682 3.92433 81.3974 2.33004C82.4123 1.73432 83.5312 1.35355 84.6868 0.928254C88.8319 -0.597056 95.1918 -0.309902 98.632 2.29198C100.091 3.39539 102.423 5.7249 103.257 7.41146C105.459 11.8644 105.303 19.3062 103.762 24.7229C103.526 25.6364 103.216 26.5292 102.835 27.3925C102.543 28.0025 101.634 29.223 101.744 29.7616C101.858 30.3184 103.817 31.8059 104.237 32.2109C104.993 32.9406 106.43 33.909 106.546 34.8296C106.672 35.8095 106.115 37.15 105.833 38.0955C104.89 41.2508 103.969 44.1677 102.9 46.9808Z" fill="#231F20"/>
<path fill-rule="evenodd" clip-rule="evenodd" d="M88.1948 25.138C88.3144 24.9789 88.9718 24.737 89.8917 25.1799C89.8917 25.1799 88.8014 25.3617 88.8921 27.1795L88.4378 27.0884C88.4378 27.0884 87.9683 25.4402 88.1948 25.138Z" fill="#F7E4CD"/>
<path fill-rule="evenodd" clip-rule="evenodd" d="M96.1606 40.7616C96.1606 40.8605 96.1313 40.957 96.0763 41.0392C96.0214 41.1213 95.9434 41.1854 95.8521 41.2232C95.7608 41.261 95.6603 41.2709 95.5634 41.2516C95.4665 41.2323 95.3774 41.1847 95.3076 41.1148C95.2377 41.0449 95.1901 40.9559 95.1708 40.859C95.1515 40.7621 95.1614 40.6616 95.1992 40.5703C95.237 40.479 95.301 40.401 95.3832 40.346C95.4653 40.2911 95.5619 40.2618 95.6608 40.2618C95.7264 40.2617 95.7914 40.2746 95.8521 40.2998C95.9127 40.3249 95.9678 40.3617 96.0143 40.4081C96.0607 40.4545 96.0975 40.5097 96.1226 40.5703C96.1477 40.631 96.1607 40.696 96.1606 40.7616Z" fill="#1D1919"/>
<path fill-rule="evenodd" clip-rule="evenodd" d="M96.6604 43.0784C96.6603 43.1772 96.631 43.2738 96.5761 43.356C96.5211 43.4381 96.4431 43.5021 96.3518 43.5399C96.2605 43.5777 96.16 43.5876 96.0631 43.5683C95.9662 43.549 95.8772 43.5015 95.8073 43.4316C95.7374 43.3617 95.6898 43.2727 95.6705 43.1758C95.6512 43.0788 95.6611 42.9784 95.6989 42.8871C95.7367 42.7958 95.8008 42.7177 95.8829 42.6628C95.9651 42.6079 96.0616 42.5785 96.1605 42.5785C96.2261 42.5785 96.2911 42.5914 96.3518 42.6165C96.4125 42.6416 96.4676 42.6785 96.514 42.7249C96.5604 42.7713 96.5972 42.8264 96.6223 42.8871C96.6475 42.9477 96.6604 43.0127 96.6604 43.0784Z" fill="#1D1919"/>
</svg>
