<svg width="170" height="68" viewBox="0 0 170 68" fill="none" xmlns="http://www.w3.org/2000/svg">
<path d="M81.2248 6.07411C80.486 5.31828 79.4595 4.85406 78.3166 4.85406C77.7778 4.85188 77.2443 4.95886 76.748 5.16855C76.2518 5.37824 75.8032 5.68629 75.4292 6.07411H75.4096C74.6734 6.82341 74.2157 7.86954 74.2157 9.02552C74.2081 10.1265 74.6375 11.1855 75.4096 11.9704L75.4292 11.9913C75.8047 12.3762 76.2539 12.6814 76.75 12.8888C77.2461 13.0961 77.7789 13.2014 78.3166 13.1983C79.4595 13.1983 80.4847 12.7406 81.2248 11.9913L81.2327 11.9704C81.9728 11.2276 82.4096 10.188 82.4096 9.02552C82.4167 7.92321 81.9886 6.8626 81.2183 6.07411H81.2104H81.2248ZM78.3166 63.193C79.4595 63.193 80.4847 62.7196 81.2248 61.9769L81.2327 61.956C81.9728 61.2158 82.4096 60.1697 82.4096 59.0202C82.4096 57.8433 81.9584 56.8155 81.2327 56.0623H81.2248C80.486 55.2999 79.4595 54.8383 78.3166 54.8383C77.7773 54.8351 77.2431 54.942 76.7466 55.1525C76.2502 55.363 75.8019 55.6726 75.4292 56.0623H75.4096C74.6391 56.8536 74.2104 57.9159 74.2157 59.0202C74.2106 60.1181 74.6397 61.1734 75.4096 61.956L75.4292 61.9769C75.8054 62.3614 76.2546 62.6669 76.7504 62.8755C77.2462 63.0841 77.7787 63.1916 78.3166 63.1917V63.193ZM100.657 50.5505C101.182 50.4112 101.673 50.1679 102.102 49.835C102.531 49.5021 102.889 49.0864 103.154 48.6125L103.23 48.4661C103.715 47.5354 103.83 46.4563 103.555 45.444C103.285 44.4031 102.639 43.4799 101.643 42.9072L101.585 42.8679C100.657 42.3445 99.5599 42.2101 98.5331 42.494C97.5131 42.7529 96.5977 43.4446 96.0381 44.4385C95.4941 45.4018 95.3459 46.5389 95.6248 47.6095C95.9068 48.6725 96.5922 49.5835 97.5353 50.149H97.5419C98.5226 50.7244 99.6302 50.8251 100.658 50.5413L100.657 50.5505ZM82.5246 29.7586C81.4484 28.6667 79.9616 27.9802 78.3192 27.9802C77.5364 27.9816 76.7617 28.1395 76.0409 28.4447C75.32 28.7499 74.6674 29.1962 74.1216 29.7573C73.0493 30.8479 72.3902 32.353 72.3902 34.0268C72.3857 35.6272 73.0071 37.166 74.1216 38.3146C75.1938 39.4 76.6767 40.08 78.3061 40.08C79.9354 40.08 81.4353 39.4 82.5116 38.3146C83.6273 37.1661 84.2496 35.6268 84.2455 34.0255C84.2529 32.4294 83.6297 30.895 82.5116 29.756L82.5246 29.7586ZM80.1708 22.6475C82.5187 23.0454 84.6788 24.1809 86.3378 25.8892H86.3509C86.6146 26.1585 86.8647 26.4409 87.1002 26.7353L91.1932 24.2991C90.6547 22.6405 90.6083 20.8613 91.0598 19.1769C91.643 16.9539 93.0605 14.9663 95.1815 13.72L95.2508 13.6756C96.2447 13.0982 97.3435 12.7242 98.4833 12.5754C99.623 12.4265 100.781 12.5058 101.89 12.8086C103.016 13.1169 104.069 13.6455 104.99 14.3638C105.91 15.082 106.679 15.9757 107.251 16.9931V16.9997C108.47 19.1442 108.716 21.6053 108.137 23.8205C107.556 26.0435 106.136 28.0442 104.015 29.2839L103.455 29.62H103.399C101.437 30.5706 99.2798 30.7184 97.3013 30.1875C95.6433 29.7322 94.1541 28.8034 93.016 27.5146L88.927 29.922C89.4128 31.2237 89.6599 32.6022 89.6566 33.9915C89.6566 35.4247 89.3977 36.8082 88.927 38.0793L93.0147 40.4762C94.1825 39.145 95.6745 38.2532 97.3 37.802C99.4838 37.1953 101.9 37.4529 104.014 38.707L104.15 38.7723V38.7789C106.127 39.9952 107.555 41.9305 108.135 44.1782C108.741 46.4782 108.423 48.9235 107.25 50.9925L107.177 51.1429L107.169 51.1298C106 53.1189 104.105 54.5776 101.883 55.1992C99.6995 55.7851 97.2803 55.5353 95.1685 54.2996V54.2826C93.1254 53.0808 91.6429 51.1172 91.0467 48.8231C90.5945 47.1414 90.6409 45.3646 91.1801 43.7088L87.0871 41.3053C86.8511 41.595 86.601 41.873 86.3378 42.1383L86.3247 42.1513C84.6875 43.8252 82.5325 44.989 80.1578 45.3747V50.187C81.8376 50.5494 83.3735 51.3985 84.5737 52.6284L84.5803 52.6415C86.1796 54.2603 87.1695 56.5174 87.1695 58.9967C87.1737 61.3689 86.2435 63.6474 84.5803 65.3389L84.5737 65.3651C82.9627 66.9918 80.7554 68 78.3179 68C75.8935 68 73.6783 66.9931 72.0724 65.3651H72.0659V65.3389C70.4009 63.6477 69.4693 61.3686 69.4728 58.9954C69.4728 56.5148 70.4666 54.259 72.0659 52.6401V52.6271H72.0724C73.2663 51.3909 74.803 50.5406 76.4845 50.1857V45.3734C74.098 44.9864 71.96 43.8239 70.3385 42.15L70.3215 42.137C68.1893 39.9628 66.9965 37.038 67 33.9928C67 30.8152 68.2789 27.9409 70.3215 25.8552H70.3385C71.9947 24.1466 74.1528 23.011 76.4989 22.6135V17.8209C74.823 17.4473 73.2908 16.5972 72.0868 15.3729H72.0803V15.3599C70.4145 13.6639 69.4831 11.3805 69.4872 9.00329C69.4848 6.6268 70.4161 4.34448 72.0803 2.64803L72.0868 2.64149C73.6926 1.0069 75.9078 0 78.3322 0C80.7697 0 82.9784 1.0069 84.5881 2.64149V2.64803H84.5947C86.1939 4.27607 87.1838 6.53572 87.1838 9.00329C87.1859 11.3789 86.2563 13.6607 84.5947 15.3586L84.5881 15.3716C83.3955 16.5799 81.8734 17.4443 80.1721 17.8196V22.5991L80.1708 22.6475ZM103.166 19.4502L103.132 19.3979C102.59 18.4701 101.706 17.7911 100.67 17.5057C100.148 17.3622 99.6028 17.325 99.0664 17.3962C98.53 17.4674 98.0133 17.6456 97.5471 17.9203H97.5536C96.5703 18.4878 95.9125 19.4175 95.6366 20.4571C95.3548 21.5276 95.5031 22.6658 96.0498 23.6282L96.0681 23.6544C96.6344 24.6351 97.5366 25.2955 98.5435 25.561C99.5544 25.8513 100.683 25.7284 101.653 25.153L101.705 25.1268C102.66 24.5462 103.301 23.6282 103.565 22.6213C103.836 21.5817 103.728 20.4454 103.166 19.4502Z" fill="#231F20"/>
</svg>
