<svg width="170" height="68" viewBox="0 0 170 68" fill="none" xmlns="http://www.w3.org/2000/svg">
<g clip-path="url(#clip0_102_6924)">
<path d="M73.9579 17.5822L74.8539 39.8951L90.9712 19.3262C91.0923 19.1714 91.2429 19.0423 91.4142 18.9462C91.5856 18.8501 91.7744 18.789 91.9695 18.7664C92.1647 18.7439 92.3624 18.7603 92.5512 18.8147C92.7399 18.8692 92.916 18.9606 93.0692 19.0836L103.122 27.1521L99.8439 12.8137L73.9579 17.5822Z" fill="#4279F4"/>
<path d="M75.4112 43.9883H89.7081L80.9293 36.9448L75.4112 43.9883Z" fill="#0028AA"/>
<path d="M92.3764 22.3398L82.7607 34.6086L93.0058 42.8279L102.724 30.6421L92.3764 22.3398V22.3398Z" fill="#014BD1"/>
<path d="M71.2612 15.4296L71.2633 15.4274L79.7186 4.82389L66.084 11.391L62.7163 26.1446L71.2612 15.4296Z" fill="#BEDCFF"/>
<path d="M62.9042 30.6727L71.9605 42.0281L71.0972 20.397L62.9042 30.6727V30.6727Z" fill="#6CA1FF"/>
<path d="M97.2127 10.2786L84.1747 4L76.0603 14.1752L97.2127 10.2786V10.2786Z" fill="#A1C3FF"/>
<path d="M53.3497 63.4427V53.6565H54.6041V58.7725L59.0798 53.6565H60.4785L56.6781 57.9618L60.8303 63.4405H59.3596L55.8804 58.8949L54.6041 60.3482V63.4427H53.3497ZM62.0957 61.3032V56.4495H63.2823V61.3426C63.277 61.5274 63.3219 61.7102 63.4123 61.8715C63.5028 62.0328 63.6354 62.1665 63.7959 62.2582C64.1613 62.4692 64.5759 62.5803 64.9979 62.5803C65.4198 62.5803 65.8344 62.4692 66.1998 62.2582C66.3592 62.1655 66.4907 62.0315 66.5803 61.8704C66.6699 61.7092 66.7144 61.5269 66.709 61.3426V56.4495H67.8957V61.2989C67.906 61.6382 67.829 61.9746 67.6721 62.2757C67.5152 62.5769 67.2837 62.8327 66.9997 63.0188C66.4092 63.4252 65.7092 63.6428 64.9924 63.6428C64.2756 63.6428 63.5756 63.4252 62.9851 63.0188C62.7028 62.8325 62.4729 62.577 62.3172 62.2767C62.1615 61.9764 62.0852 61.6413 62.0957 61.3032ZM69.9281 63.4427V52.9528H71.1148V56.6265C71.7687 56.3907 72.4566 56.263 73.1516 56.2484C73.6217 56.2383 74.087 56.3441 74.5065 56.5566C74.8782 56.743 75.1935 57.0251 75.42 57.3739C75.6382 57.7153 75.8026 58.0883 75.9074 58.4797C76.0143 58.8773 76.068 59.2874 76.0669 59.6991C76.0669 60.9273 75.7478 61.859 75.1097 62.4943C74.4716 63.1295 73.4648 63.4456 72.0895 63.4427H69.9281ZM71.1148 62.3784H72.1091C73.0955 62.3784 73.8036 62.1635 74.2333 61.7337C74.6631 61.304 74.8817 60.6112 74.889 59.6554C74.899 59.0776 74.7477 58.5085 74.4519 58.012C74.3188 57.7858 74.1262 57.6005 73.8949 57.4764C73.6636 57.3523 73.4027 57.2941 73.1406 57.3083C72.4515 57.2906 71.7654 57.4048 71.1192 57.6449L71.1148 62.3784ZM77.5551 59.933C77.5551 58.8097 77.8531 57.9137 78.449 57.2449C78.744 56.914 79.1086 56.6524 79.5167 56.479C79.9248 56.3055 80.3661 56.2246 80.8092 56.2419C82.7542 56.2419 83.7274 57.6157 83.7289 60.3635H78.7418C78.7837 60.9328 79.0056 61.4739 79.3756 61.9086C79.7529 62.3617 80.3284 62.5875 81.102 62.5861C81.8932 62.6096 82.68 62.4605 83.4076 62.149V63.2417C82.7202 63.5078 81.99 63.6463 81.2528 63.6503C80.6776 63.6632 80.1056 63.5615 79.5701 63.3509C79.1236 63.1763 78.7272 62.894 78.4162 62.5292C78.1245 62.1828 77.902 61.7837 77.7606 61.3535C77.6174 60.8938 77.5481 60.4144 77.5551 59.933ZM78.7833 59.4697H82.5553C82.5182 58.9153 82.3399 58.3797 82.0374 57.9137C81.9014 57.7162 81.7172 57.5567 81.5022 57.4503C81.2873 57.344 81.0487 57.2944 80.8092 57.3061C80.5537 57.3027 80.3004 57.354 80.0663 57.4565C79.8323 57.5591 79.6228 57.7105 79.4521 57.9006C79.0631 58.3357 78.8295 58.8876 78.7877 59.4697H78.7833Z" fill="#4279F4" stroke="#4279F4" stroke-width="0.32" stroke-miterlimit="10"/>
<path d="M85.1953 57.5181V56.4495H86.288V54.7908C86.2772 54.5476 86.3164 54.3047 86.4032 54.0773C86.4901 53.8499 86.6227 53.6427 86.7928 53.4686C86.9556 53.3058 87.1497 53.1776 87.3635 53.092C87.5772 53.0064 87.8061 52.965 88.0363 52.9703H89.754V54.0455H88.6613C88.1783 54.0455 87.8593 54.1439 87.7063 54.3384C87.5533 54.5329 87.4746 54.8956 87.4746 55.4311V56.4495H89.3235V57.5138H87.4746V63.4427H86.2858V57.5203L85.1953 57.5181ZM91.3013 63.4427V52.9528H92.4879V63.4427H91.3013ZM95.4863 62.5795C94.8281 61.9554 94.4078 61.1215 94.2977 60.2211C94.1876 59.3207 94.3945 58.4101 94.8828 57.6458C95.3712 56.8814 96.1106 56.311 96.9739 56.0325C97.8371 55.7541 98.7704 55.7851 99.6134 56.12C100.456 56.455 101.156 57.0732 101.593 57.8682C102.03 58.6632 102.176 59.5856 102.006 60.4767C101.837 61.3677 101.362 62.172 100.664 62.7511C99.966 63.3303 99.088 63.6483 98.1809 63.6503C97.6822 63.6671 97.1854 63.5807 96.7217 63.3964C96.258 63.2121 95.8374 62.934 95.4863 62.5795ZM96.3255 58.0667C95.8745 58.589 95.6264 59.256 95.6264 59.9461C95.6264 60.6362 95.8745 61.3032 96.3255 61.8255C96.8195 62.3156 97.4872 62.5906 98.1831 62.5906C98.8789 62.5906 99.5466 62.3156 100.041 61.8255C100.495 61.3046 100.745 60.637 100.745 59.9461C100.745 59.2552 100.495 58.5876 100.041 58.0667C99.5466 57.5766 98.8789 57.3016 98.1831 57.3016C97.4872 57.3016 96.8195 57.5766 96.3255 58.0667ZM102.925 56.4495H104.182L105.777 61.9829L107.401 56.4495H108.572L110.177 61.9873L111.787 56.4495H113.042L110.847 63.4427H109.51L108.017 58.071L106.542 63.4427H105.128L102.925 56.4495Z" fill="#0028AA" stroke="#0028AA" stroke-width="0.32" stroke-miterlimit="10"/>
</g>
<defs>
<clipPath id="clip0_102_6924">
<rect width="60.5201" height="60" fill="white" transform="translate(53 4)"/>
</clipPath>
</defs>
</svg>
