<svg width="170" height="68" viewBox="0 0 170 68" fill="none" xmlns="http://www.w3.org/2000/svg">
<path d="M140.397 48.6293C140.764 45.5731 140.654 45.1258 142.932 45.6215L143.491 45.6718C145.242 45.752 147.529 45.3923 148.876 44.7662C151.77 43.4244 153.487 41.1807 150.634 41.7696C144.122 43.1113 143.675 40.9086 143.675 40.9086C150.552 30.7076 153.422 17.7578 150.943 14.5898C144.178 5.9429 132.464 10.0334 132.27 10.1396L132.209 10.1508C130.923 9.8843 129.482 9.72217 127.867 9.69794C124.922 9.64949 122.686 10.4695 120.972 11.7572C120.972 11.7572 100.078 3.14758 101.032 22.5844C101.237 26.7177 106.958 53.8659 113.778 45.6662C116.272 42.6659 118.679 40.1315 118.679 40.1315C119.876 40.9273 121.288 41.3316 122.811 41.1863L122.927 41.0875C122.892 41.4768 122.907 41.8689 122.973 42.2541C121.216 44.2164 121.732 44.5649 118.221 45.2861C114.667 46.0185 116.754 47.3229 118.119 47.664C119.772 48.0777 123.597 48.6628 126.178 45.0457L126.076 45.4594C126.765 46.011 126.719 49.4232 126.816 51.8607C126.913 54.2982 127.077 56.5754 127.574 57.9172C128.072 59.259 128.655 62.714 133.277 61.7244C137.134 60.897 140.086 59.7081 140.354 48.6367" fill="#231F20"/>
<path d="M140.397 48.6293C140.764 45.5731 140.654 45.1258 142.932 45.6215L143.491 45.6718C145.242 45.752 147.529 45.3923 148.876 44.7662C151.77 43.4244 153.487 41.1807 150.634 41.7696C144.122 43.1113 143.675 40.9086 143.675 40.9086C150.552 30.7076 153.422 17.7578 150.943 14.5898C144.178 5.9429 132.464 10.0334 132.27 10.1396L132.209 10.1508C130.923 9.8843 129.482 9.72217 127.867 9.69794C124.922 9.64949 122.686 10.4695 120.972 11.7572C120.972 11.7572 100.078 3.14758 101.032 22.5844C101.237 26.7177 106.958 53.8659 113.778 45.6662C116.272 42.6659 118.679 40.1315 118.679 40.1315C119.876 40.9273 121.288 41.3316 122.811 41.1863L122.927 41.0875C122.892 41.4768 122.907 41.8689 122.973 42.2541C121.216 44.2164 121.732 44.5649 118.221 45.2861C114.667 46.0185 116.754 47.3229 118.119 47.664C119.772 48.0777 123.597 48.6628 126.178 45.0457L126.076 45.4594C126.765 46.011 126.719 49.4232 126.816 51.8607C126.913 54.2982 127.077 56.5754 127.574 57.9172C128.072 59.259 128.655 62.714 133.277 61.7244C137.134 60.897 140.086 59.7081 140.354 48.6367" stroke="#231F20" stroke-width="2.598"/>
<path d="M150.649 41.765C144.137 43.1067 143.69 40.904 143.69 40.904C150.567 30.703 153.436 17.7532 150.958 14.5833C144.193 5.93643 132.479 10.0269 132.285 10.1331L132.222 10.1443C130.936 9.87783 129.495 9.7157 127.88 9.69148C124.935 9.64302 122.699 10.463 120.985 11.7507C120.985 11.7507 100.091 3.14111 101.045 22.5779C101.25 26.715 106.971 53.8594 113.791 45.6598C116.285 42.6595 118.692 40.1251 118.692 40.1251C119.889 40.9208 121.32 41.3252 122.822 41.1798L122.94 41.0811C122.902 41.4538 122.921 41.8172 122.986 42.2476C121.229 44.21 121.745 44.5584 118.234 45.2796C114.68 46.012 116.767 47.3165 118.132 47.6575C119.785 48.0712 123.61 48.6564 126.191 45.0392L126.089 45.4529C126.778 46.0045 127.263 49.0403 127.179 51.789C127.095 54.5377 127.045 56.4292 127.589 57.9052C128.133 59.3811 128.67 62.7019 133.292 61.7124C137.149 60.885 139.151 58.7419 139.428 55.1676C139.626 52.6257 140.073 53.0022 140.099 50.7324L140.457 49.6571C140.871 46.2095 140.522 45.1007 142.898 45.6188L143.457 45.6691C145.209 45.7492 147.497 45.3896 148.843 44.7634C151.737 43.4217 153.453 41.178 150.6 41.7668L150.649 41.765Z" fill="#417BA2"/>
<path d="M126.937 43.7547C126.944 43.5157 126.756 43.3165 126.517 43.3098C126.278 43.3031 126.078 43.4915 126.072 43.7306L126.937 43.7547ZM133.765 61.806L133.674 61.3826L133.674 61.3826L133.765 61.806ZM139.635 55.8426L140.062 55.916C140.063 55.9096 140.064 55.9032 140.065 55.8968L139.635 55.8426ZM141.49 44.5982C141.52 44.3609 141.352 44.1443 141.115 44.1144C140.878 44.0844 140.661 44.2525 140.631 44.4897L141.49 44.5982ZM120.825 12.0103C121.046 12.1008 121.299 11.9947 121.389 11.7733C121.48 11.552 121.374 11.2992 121.152 11.2087L120.825 12.0103ZM101.049 22.4963L101.481 22.4769L101.481 22.4748L101.049 22.4963ZM113.795 45.5801L113.463 45.3023L113.462 45.3032L113.795 45.5801ZM118.855 40.5303C119.02 40.3571 119.013 40.083 118.84 39.9181C118.667 39.7532 118.393 39.76 118.228 39.9332L118.855 40.5303ZM132.389 10.4639C132.618 10.3941 132.747 10.1521 132.677 9.9234C132.607 9.69466 132.365 9.56579 132.137 9.63555L132.389 10.4639ZM150.913 14.5222L150.572 14.7888L150.572 14.789L150.913 14.5222ZM143.287 40.6005C143.153 40.7986 143.205 41.0678 143.403 41.2017C143.601 41.3356 143.87 41.2836 144.004 41.0854L143.287 40.6005ZM150.604 41.6871L150.691 42.1112L150.692 42.1112L150.604 41.6871ZM148.847 44.6837L149.029 45.0766L149.03 45.076L148.847 44.6837ZM141.061 44.5458L140.628 44.5704L140.628 44.5712L141.061 44.5458ZM141.199 36.8997L141.599 36.7346L141.599 36.7344L141.199 36.8997ZM143.957 22.6361L143.888 23.0637L144.045 23.0601L143.957 22.6361ZM115.209 25.1298C115.215 25.3689 115.414 25.5575 115.653 25.5512C115.893 25.5448 116.081 25.3459 116.075 25.1068L115.209 25.1298ZM122.975 42.1679V41.7349C122.852 41.7349 122.735 41.7873 122.652 41.8791L122.975 42.1679ZM118.223 45.1999L118.136 44.7758L118.136 44.7758L118.223 45.1999ZM118.12 47.5778L118.226 47.1578L118.225 47.1577L118.12 47.5778ZM126.18 44.9595L125.828 44.7076L125.828 44.708L126.18 44.9595ZM125.096 41.6517L125.262 41.2519L125.261 41.2517L125.096 41.6517ZM122.979 42.1679V42.6009C123.102 42.6009 123.219 42.5485 123.301 42.4568L122.979 42.1679ZM122.431 42.2C122.468 42.4364 122.689 42.5986 122.925 42.5624C123.161 42.5262 123.324 42.3052 123.287 42.0688L122.431 42.2ZM123.834 37.9973L123.428 37.8467L123.428 37.8473L123.834 37.9973ZM125.144 25.5265L124.721 25.6178L124.721 25.6189L125.144 25.5265ZM115.502 32.6918L115.931 32.752L115.931 32.7516L115.502 32.6918ZM122.855 41.5274C123.093 41.5042 123.267 41.2925 123.244 41.0545C123.221 40.8165 123.009 40.6423 122.771 40.6654L122.855 41.5274ZM126.072 43.7306C125.982 46.9437 125.993 50.1702 126.106 52.7933C126.162 54.1044 126.243 55.2697 126.351 56.2095C126.457 57.1346 126.593 57.8846 126.773 58.3363L127.578 58.0153C127.445 57.6825 127.318 57.0374 127.211 56.1108C127.107 55.1989 127.026 54.0559 126.971 52.7562C126.859 50.1577 126.848 46.9521 126.937 43.7547L126.072 43.7306ZM126.773 58.3363C127.087 59.1225 127.612 60.3709 128.694 61.2822C129.802 62.2157 131.434 62.749 133.856 62.2293L133.674 61.3826C131.476 61.8544 130.127 61.3571 129.252 60.6199C128.35 59.8606 127.89 58.7982 127.578 58.0153L126.773 58.3363ZM133.856 62.2294C135.824 61.8072 137.236 61.174 138.231 60.1399C139.226 59.1049 139.751 57.7224 140.062 55.916L139.208 55.7693C138.911 57.498 138.43 58.6835 137.607 59.5395C136.783 60.3965 135.563 60.9774 133.674 61.3826L133.856 62.2294ZM140.065 55.8968L141.49 44.5982L140.631 44.4897L139.206 55.7884L140.065 55.8968ZM120.988 11.6095C121.152 11.2087 121.152 11.2086 121.152 11.2085C121.152 11.2084 121.151 11.2082 121.151 11.2081C121.15 11.2077 121.149 11.2072 121.147 11.2066C121.144 11.2054 121.14 11.2037 121.135 11.2016C121.124 11.1972 121.108 11.1909 121.087 11.1827C121.046 11.1665 120.985 11.1429 120.907 11.1133C120.75 11.054 120.522 10.9702 120.233 10.8707C119.654 10.6719 118.83 10.4105 117.844 10.1583C115.877 9.65524 113.246 9.18338 110.63 9.33323C108.016 9.48306 105.368 10.2581 103.441 12.2997C101.509 14.3452 100.37 17.587 100.616 22.5179L101.481 22.4748C101.242 17.6891 102.354 14.7118 104.07 12.8942C105.79 11.0726 108.188 10.3406 110.68 10.1978C113.171 10.0551 115.706 10.5052 117.629 10.9973C118.589 11.2427 119.39 11.4971 119.951 11.6898C120.232 11.7861 120.452 11.8668 120.601 11.9233C120.675 11.9515 120.732 11.9736 120.77 11.9884C120.789 11.9959 120.803 12.0015 120.812 12.0052C120.817 12.0071 120.82 12.0084 120.822 12.0093C120.823 12.0097 120.824 12.01 120.824 12.0102C120.825 12.0103 120.825 12.0103 120.825 12.0103C120.825 12.0103 120.825 12.0103 120.988 11.6095ZM100.616 22.5158C100.664 23.5911 101.066 26.0954 101.737 29.0961C102.411 32.1065 103.364 35.6511 104.528 38.814C105.684 41.9567 107.074 44.7942 108.651 46.3249C109.445 47.0961 110.339 47.5861 111.315 47.5447C112.294 47.5032 113.233 46.9326 114.128 45.857L113.462 45.3032C112.652 46.2774 111.92 46.6523 111.279 46.6795C110.635 46.7068 109.96 46.3889 109.254 45.7036C107.83 44.3212 106.495 41.651 105.34 38.5149C104.194 35.3991 103.25 31.8939 102.582 28.907C101.912 25.9105 101.526 23.4702 101.481 22.4769L100.616 22.5158ZM114.127 45.8579C115.369 44.3727 116.552 43.0401 117.424 42.0787C117.86 41.5981 118.218 41.2105 118.467 40.9433C118.592 40.8097 118.689 40.7062 118.755 40.6362C118.788 40.6012 118.813 40.5746 118.83 40.5568C118.839 40.5479 118.845 40.5412 118.849 40.5368C118.851 40.5345 118.853 40.5329 118.854 40.5318C118.854 40.5313 118.855 40.5309 118.855 40.5306C118.855 40.5305 118.855 40.5304 118.855 40.5303C118.855 40.5303 118.855 40.5303 118.855 40.5303C118.855 40.5303 118.855 40.5303 118.542 40.2317C118.228 39.9332 118.228 39.9332 118.228 39.9332C118.228 39.9332 118.228 39.9333 118.228 39.9333C118.228 39.9334 118.228 39.9335 118.228 39.9337C118.227 39.934 118.227 39.9345 118.226 39.9351C118.225 39.9363 118.223 39.9381 118.221 39.9404C118.217 39.9451 118.21 39.9521 118.201 39.9612C118.184 39.9796 118.158 40.0067 118.125 40.0423C118.058 40.1134 117.96 40.218 117.834 40.3529C117.583 40.6226 117.222 41.013 116.783 41.4968C115.905 42.4642 114.714 43.8058 113.463 45.3023L114.127 45.8579ZM132.137 9.63555C132.127 9.6385 132.131 9.63691 132.142 9.6344C132.146 9.6336 132.153 9.63205 132.162 9.63048C132.169 9.62935 132.19 9.6259 132.218 9.62499C132.232 9.62476 132.27 9.62646 132.292 9.62906C132.329 9.63601 132.428 9.67229 132.486 9.70779C132.568 9.7865 132.66 10.0018 132.659 10.1239C132.64 10.1997 132.584 10.3072 132.558 10.3411C132.515 10.3905 132.47 10.4178 132.466 10.4205C132.452 10.4293 132.441 10.4353 132.436 10.4378C132.426 10.4432 132.419 10.4463 132.419 10.4465C132.417 10.4473 132.42 10.446 132.43 10.4421C132.47 10.4264 132.559 10.3945 132.695 10.3507C132.965 10.2639 133.403 10.1356 133.974 10.0022C135.116 9.73524 136.78 9.4503 138.679 9.43376C142.479 9.40066 147.174 10.4389 150.572 14.7888L151.255 14.2557C147.631 9.61766 142.627 8.53334 138.672 8.56779C136.693 8.58502 134.964 8.88139 133.777 9.1589C133.182 9.29775 132.721 9.43243 132.43 9.52636C132.285 9.57288 132.178 9.61078 132.115 9.63528C132.099 9.64136 132.082 9.64822 132.067 9.65524C132.059 9.65847 132.047 9.66417 132.033 9.67162C132.026 9.67519 132.013 9.68206 131.998 9.6917C131.993 9.69518 131.947 9.7231 131.904 9.77301C131.877 9.80712 131.822 9.91488 131.803 9.99079C131.801 10.1131 131.893 10.3286 131.976 10.4074C132.033 10.443 132.133 10.4794 132.17 10.4864C132.193 10.489 132.231 10.4908 132.246 10.4905C132.293 10.489 132.33 10.4798 132.333 10.4792C132.354 10.4743 132.376 10.468 132.389 10.4639L132.137 9.63555ZM150.572 14.789C151.095 15.4576 151.386 16.7305 151.36 18.5305C151.334 20.3054 151.002 22.5047 150.375 24.9372C149.122 29.8014 146.705 35.5435 143.287 40.6005L144.004 41.0854C147.481 35.9413 149.937 30.1071 151.214 25.1532C151.852 22.6767 152.199 20.4065 152.226 18.5431C152.253 16.705 151.971 15.1708 151.254 14.2554L150.572 14.789ZM143.644 40.8262C143.219 40.9123 143.219 40.9129 143.219 40.9135C143.22 40.9137 143.22 40.9144 143.22 40.9148C143.22 40.9157 143.22 40.9166 143.22 40.9176C143.221 40.9195 143.221 40.9216 143.222 40.9238C143.223 40.9282 143.224 40.9332 143.225 40.9387C143.228 40.9497 143.232 40.9628 143.236 40.9779C143.246 41.0081 143.259 41.0461 143.278 41.0902C143.316 41.1788 143.377 41.2913 143.473 41.4146C143.666 41.664 143.988 41.9422 144.516 42.1606C145.559 42.5923 147.4 42.7901 150.691 42.1112L150.516 41.2631C147.294 41.9278 145.656 41.6951 144.847 41.3604C144.449 41.1957 144.252 41.0066 144.158 40.8846C144.109 40.8223 144.085 40.7731 144.073 40.7463C144.067 40.7328 144.065 40.7247 144.064 40.7233C144.064 40.7226 144.064 40.7235 144.065 40.7262C144.065 40.7276 144.066 40.7294 144.066 40.7317C144.066 40.7329 144.067 40.7342 144.067 40.7356C144.067 40.7362 144.067 40.737 144.067 40.7377C144.068 40.7381 144.068 40.7387 144.068 40.7389C144.068 40.7395 144.068 40.7401 143.644 40.8262ZM150.692 42.1112C151.029 42.0414 151.277 42.0185 151.45 42.0245C151.633 42.0307 151.681 42.0675 151.673 42.0616C151.664 42.0543 151.647 42.0366 151.636 42.0095C151.626 41.9846 151.629 41.9706 151.628 41.9783C151.626 42.0037 151.604 42.0831 151.512 42.2206C151.333 42.4894 150.98 42.8427 150.476 43.2189C149.979 43.5904 149.357 43.9675 148.663 44.2914L149.03 45.076C149.774 44.7282 150.447 44.3211 150.994 43.9128C151.535 43.5092 151.976 43.0868 152.233 42.7008C152.36 42.511 152.467 42.2931 152.49 42.0661C152.516 41.8118 152.432 41.5523 152.2 41.3743C151.999 41.22 151.737 41.1678 151.48 41.159C151.213 41.1498 150.892 41.1856 150.516 41.2631L150.692 42.1112ZM148.665 44.2908C147.551 44.8067 145.692 45.1471 144.092 45.165C143.293 45.174 142.596 45.1017 142.109 44.9507C141.581 44.7869 141.498 44.6024 141.493 44.5204L140.628 44.5712C140.668 45.2504 141.284 45.6012 141.853 45.7778C142.463 45.9672 143.262 46.0404 144.102 46.031C145.779 46.0122 147.768 45.6602 149.029 45.0766L148.665 44.2908ZM141.493 44.5212C141.44 43.5886 141.583 43.0141 141.781 42.6515C141.974 42.2978 142.241 42.1046 142.528 41.9753C142.676 41.9089 142.829 41.8597 142.984 41.8147C143.127 41.7734 143.305 41.7272 143.445 41.678C143.581 41.6303 143.771 41.5515 143.911 41.3944C144.08 41.203 144.118 40.9647 144.066 40.7317L143.221 40.9206C143.224 40.9336 143.215 40.8731 143.263 40.82C143.279 40.8013 143.271 40.8211 143.158 40.861C143.048 40.8995 142.926 40.9299 142.744 40.9828C142.574 41.0318 142.376 41.0943 142.173 41.1856C141.759 41.3717 141.326 41.6781 141.021 42.2368C140.721 42.7865 140.57 43.537 140.628 44.5704L141.493 44.5212ZM144.066 40.7321C143.998 40.4269 143.838 40.1505 143.658 39.8947C143.48 39.6409 143.25 39.3626 143.022 39.0749C142.557 38.4873 142.024 37.7643 141.599 36.7346L140.798 37.0648C141.268 38.2042 141.859 39.001 142.343 39.6125C142.59 39.9245 142.791 40.1656 142.95 40.3922C143.107 40.6169 143.19 40.7819 143.221 40.9203L144.066 40.7321ZM141.599 36.7344C141.489 36.4676 141.231 36.004 140.918 35.4433C140.597 34.8682 140.201 34.159 139.789 33.3679C138.962 31.7807 138.087 29.8915 137.652 28.1432C137.209 26.3672 137.257 24.8889 138.058 23.9729C138.852 23.0641 140.55 22.529 143.888 23.0637L144.025 22.2085C140.627 21.6642 138.514 22.1357 137.406 23.4029C136.304 24.6628 136.357 26.5299 136.811 28.3526C137.273 30.2032 138.186 32.166 139.021 33.768C139.439 34.5716 139.842 35.2914 140.162 35.865C140.489 36.4531 140.713 36.858 140.798 37.065L141.599 36.7344ZM144.045 23.0601C144.326 23.0016 144.397 22.747 144.411 22.6916C144.432 22.6041 144.431 22.5166 144.428 22.452C144.42 22.3143 144.39 22.1427 144.344 21.9533C144.25 21.5681 144.076 21.0404 143.819 20.4208C143.302 19.1799 142.435 17.54 141.149 15.8972C138.576 12.6078 134.31 9.28683 127.84 9.1807L127.826 10.0466C133.966 10.1473 138.008 13.2863 140.467 16.4308C141.699 18.005 142.529 19.5755 143.019 20.7536C143.265 21.3435 143.422 21.8274 143.502 22.1579C143.543 22.3263 143.56 22.4385 143.563 22.4985C143.565 22.5327 143.561 22.5224 143.569 22.489C143.569 22.4878 143.618 22.2642 143.869 22.2121L144.045 23.0601ZM127.84 9.1807C124.59 9.12737 122.15 10.1026 120.332 11.6162C118.523 13.123 117.357 15.1403 116.604 17.1356C115.851 19.1319 115.504 21.1281 115.343 22.6204C115.263 23.3678 115.229 23.9918 115.216 24.4303C115.209 24.6496 115.207 24.8227 115.207 24.9419C115.207 25.0014 115.208 25.0475 115.208 25.0792C115.208 25.095 115.209 25.1072 115.209 25.1157C115.209 25.1199 115.209 25.1233 115.209 25.1256C115.209 25.1268 115.209 25.1277 115.209 25.1284C115.209 25.1288 115.209 25.1291 115.209 25.1293C115.209 25.1296 115.209 25.1298 115.642 25.1183C116.075 25.1068 116.075 25.107 116.075 25.107C116.075 25.1069 116.075 25.1069 116.075 25.1068C116.075 25.1066 116.075 25.1061 116.075 25.1053C116.075 25.1039 116.075 25.1015 116.075 25.0982C116.074 25.0916 116.074 25.0813 116.074 25.0674C116.074 25.0396 116.073 24.9975 116.073 24.942C116.073 24.8311 116.075 24.6669 116.081 24.457C116.094 24.037 116.127 23.4352 116.204 22.7129C116.36 21.2658 116.696 19.347 117.414 17.4412C118.134 15.5345 119.228 13.6627 120.886 12.2817C122.536 10.9076 124.772 9.99648 127.826 10.0466L127.84 9.1807ZM122.652 41.8791C122.202 42.3818 121.895 42.7843 121.646 43.0991C121.393 43.4182 121.209 43.6333 120.986 43.8109C120.548 44.161 119.897 44.414 118.136 44.7758L118.31 45.6241C120.06 45.2646 120.906 44.9828 121.527 44.4878C121.834 44.2428 122.07 43.9578 122.324 43.6371C122.582 43.3122 122.869 42.9352 123.298 42.4568L122.652 41.8791ZM118.136 44.7758C117.234 44.9617 116.61 45.1969 116.242 45.4969C116.051 45.6531 115.902 45.8485 115.847 46.0869C115.791 46.3298 115.846 46.5556 115.946 46.741C116.132 47.0856 116.503 47.3537 116.853 47.5452C117.22 47.7459 117.641 47.9043 118.015 47.9979L118.225 47.1577C117.918 47.0808 117.566 46.9482 117.269 46.7855C116.955 46.6137 116.771 46.4459 116.709 46.3302C116.696 46.3067 116.692 46.2924 116.691 46.2866C116.691 46.2838 116.691 46.2825 116.691 46.2824C116.691 46.2822 116.691 46.2821 116.691 46.2815C116.691 46.2811 116.693 46.2719 116.706 46.2535C116.719 46.2342 116.744 46.2049 116.79 46.168C116.987 46.0069 117.435 45.8043 118.31 45.624L118.136 44.7758ZM118.015 47.9978C119.701 48.4196 123.784 49.0628 126.533 45.211L125.828 44.708C123.414 48.0905 119.846 47.5634 118.226 47.1578L118.015 47.9978ZM126.532 45.2114C127.035 44.5087 127.011 43.6316 126.744 42.9115C126.479 42.1955 125.94 41.5338 125.262 41.2519L124.93 42.0516C125.332 42.2188 125.728 42.6612 125.932 43.212C126.134 43.7586 126.112 44.3109 125.828 44.7076L126.532 45.2114ZM125.261 41.2517C125.004 41.1452 124.609 40.9808 124.14 41.0222C123.651 41.0652 123.157 41.3202 122.656 41.879L123.301 42.4568C123.697 42.0149 124.001 41.9037 124.216 41.8848C124.45 41.8642 124.665 41.9421 124.93 42.0518L125.261 41.2517ZM122.979 41.7349H122.975V42.6009H122.979V41.7349ZM123.287 42.0688C123.213 41.58 123.29 41.0177 123.475 40.3524C123.66 39.6859 123.939 38.9635 124.24 38.1473L123.428 37.8473C123.135 38.6412 122.838 39.4097 122.64 40.1204C122.442 40.8322 122.329 41.5334 122.431 42.2L123.287 42.0688ZM124.24 38.1479C124.459 37.5573 124.741 36.9929 125.049 36.2784C125.35 35.5802 125.653 34.7872 125.874 33.822C126.315 31.8867 126.413 29.3059 125.567 25.434L124.721 25.6189C125.546 29.395 125.437 31.844 125.029 33.6292C124.825 34.5243 124.543 35.2643 124.254 35.9354C123.971 36.5903 123.656 37.2316 123.428 37.8467L124.24 38.1479ZM125.567 25.4351C125.232 23.8822 124.394 22.969 123.297 22.545C122.233 22.1339 120.984 22.2057 119.835 22.4706C118.678 22.7374 117.567 23.2126 116.743 23.6714C116.331 23.9007 115.98 24.1318 115.726 24.3389C115.6 24.4415 115.486 24.5472 115.4 24.652C115.332 24.7346 115.208 24.9001 115.207 25.1107L116.073 25.1148C116.073 25.2287 116.014 25.2683 116.068 25.2027C116.104 25.1592 116.17 25.0943 116.272 25.0106C116.476 24.8452 116.781 24.6415 117.164 24.4281C117.93 24.0016 118.965 23.56 120.03 23.3145C121.102 23.0672 122.152 23.0312 122.985 23.3528C123.784 23.6615 124.441 24.3213 124.721 25.6178L125.567 25.4351ZM115.207 25.1107C115.203 25.9571 115.579 29.0053 115.073 32.632L115.931 32.7516C116.447 29.0546 116.07 25.8152 116.073 25.1148L115.207 25.1107ZM115.073 32.6316C114.369 37.6501 118.267 41.9736 122.855 41.5274L122.771 40.6654C118.813 41.0504 115.294 37.2897 115.931 32.752L115.073 32.6316Z" fill="white"/>
<path d="M120.892 24.9983C120.854 25.2629 121.376 25.9673 122.053 26.0605C122.729 26.1537 123.31 25.6039 123.346 25.3412C123.381 25.0784 122.861 24.7858 122.183 24.6889C121.505 24.592 120.925 24.7318 120.89 24.9964L120.892 24.9983Z" fill="white"/>
<path d="M141.528 24.4597C141.566 24.7243 141.044 25.4288 140.367 25.5219C139.691 25.6151 139.11 25.0654 139.072 24.8026C139.035 24.5398 139.557 24.2473 140.235 24.1541C140.913 24.0609 141.493 24.197 141.53 24.4616L141.528 24.4597Z" fill="white"/>
<path fill-rule="evenodd" clip-rule="evenodd" d="M141.103 24.261C140.882 24.2086 140.578 24.1974 140.247 24.2429C139.916 24.2884 139.627 24.3822 139.428 24.4934C139.328 24.5492 139.255 24.607 139.21 24.6617C139.165 24.7163 139.153 24.7602 139.158 24.7935C139.164 24.8366 139.196 24.9055 139.263 24.9876C139.327 25.0675 139.418 25.1523 139.529 25.2271C139.751 25.3773 140.044 25.4822 140.356 25.4393C140.669 25.3962 140.951 25.2102 141.153 24.9985C141.253 24.8932 141.331 24.784 141.381 24.6875C141.433 24.5873 141.448 24.5137 141.443 24.4749L141.44 24.459C141.431 24.4293 141.407 24.3965 141.358 24.3631C141.3 24.3228 141.214 24.2873 141.103 24.261ZM141.588 24.6447C141.574 24.6853 141.556 24.7265 141.535 24.7671C141.476 24.8801 141.388 25.0024 141.278 25.1179C141.059 25.3479 140.743 25.5607 140.379 25.6108C140.014 25.661 139.679 25.5377 139.432 25.3705C139.308 25.2868 139.204 25.1906 139.128 25.0965C139.054 25.0045 138.999 24.9062 138.987 24.8179C138.973 24.7198 139.013 24.6286 139.076 24.5516C139.14 24.4746 139.232 24.4042 139.343 24.3423C139.565 24.2182 139.876 24.1191 140.223 24.0714C140.57 24.0238 140.896 24.034 141.143 24.0925C141.266 24.1217 141.375 24.1639 141.457 24.2207C141.539 24.2775 141.602 24.3545 141.616 24.4526L141.652 24.709L141.588 24.6447ZM121.275 24.626C121.522 24.567 121.848 24.5567 122.195 24.6063C122.542 24.6559 122.853 24.7559 123.074 24.8805C123.185 24.9426 123.278 25.0131 123.341 25.09C123.405 25.167 123.445 25.258 123.432 25.3558C123.42 25.4444 123.365 25.5429 123.291 25.6349C123.215 25.7291 123.112 25.8253 122.988 25.9091C122.741 26.0762 122.405 26.1996 122.041 26.1493C121.677 26.0993 121.361 25.8865 121.142 25.6565C121.032 25.541 120.944 25.4186 120.885 25.3057C120.838 25.2139 120.805 25.119 120.803 25.0355L120.798 25.0306L120.804 24.988C120.817 24.8898 120.88 24.8124 120.962 24.7552C121.044 24.6981 121.152 24.6554 121.275 24.626ZM120.981 24.9898L120.977 25.0134C120.972 25.0523 120.987 25.1258 121.039 25.2261C121.089 25.3225 121.167 25.4317 121.267 25.5371C121.469 25.7487 121.751 25.9347 122.064 25.9778C122.376 26.0208 122.669 25.9158 122.891 25.7657C123.002 25.6909 123.092 25.6062 123.156 25.5263C123.223 25.4443 123.254 25.3755 123.26 25.3327C123.265 25.2991 123.253 25.255 123.208 25.2002C123.162 25.1454 123.089 25.0874 122.99 25.0314C122.791 24.9198 122.502 24.825 122.171 24.7777C121.84 24.7304 121.536 24.7416 121.315 24.7944C121.204 24.8209 121.119 24.8567 121.061 24.8972C121.015 24.9295 120.991 24.9611 120.981 24.9898Z" fill="white"/>
<path fill-rule="evenodd" clip-rule="evenodd" d="M143.925 22.1125C144.212 22.097 144.457 22.3171 144.473 22.6042C144.532 23.6937 144.413 24.6072 144.277 25.5019C144.262 25.6058 144.246 25.7092 144.23 25.8127C144.108 26.6038 143.987 27.392 143.957 28.3324L143.957 28.3331C143.932 29.0919 144.01 29.8879 144.11 30.7386C144.126 30.876 144.143 31.0149 144.16 31.1551C144.246 31.8723 144.337 32.6251 144.374 33.3868C144.465 35.2269 144.252 37.1863 142.938 39.148C142.777 39.3869 142.454 39.4507 142.215 39.2907C141.976 39.1307 141.913 38.8073 142.073 38.5684C143.218 36.8589 143.419 35.15 143.334 33.4381C143.299 32.7164 143.213 32.0061 143.127 31.2891C143.11 31.1464 143.093 31.0034 143.076 30.86C142.976 30.0073 142.889 29.1433 142.916 28.2995C142.948 27.2921 143.079 26.4414 143.201 25.6525C143.217 25.5493 143.233 25.4472 143.248 25.3459C143.381 24.4665 143.486 23.6394 143.433 22.6604C143.418 22.3733 143.638 22.128 143.925 22.1125Z" fill="white"/>
<path d="M83.6119 41.6119H89.3881V47.3881C89.3881 48.2746 90.1134 49 91 49C91.8866 49 92.6119 48.2746 92.6119 47.3881V41.6119H98.3881C99.2746 41.6119 100 40.8866 100 40C100 39.1134 99.2746 38.3881 98.3881 38.3881H92.6119V32.6119C92.6119 31.7254 91.8866 31 91 31C90.1134 31 89.3881 31.7254 89.3881 32.6119V38.3881H83.6119C82.7254 38.3881 82 39.1134 82 40C82 40.8866 82.7254 41.6119 83.6119 41.6119Z" fill="#434343"/>
<path d="M49.7139 9.13293L28.904 19.0989C28.7213 19.1864 28.5608 19.3136 28.4343 19.4712C28.3079 19.6288 28.2187 19.8126 28.1735 20.0092L23.0338 42.402C22.9887 42.5985 22.9887 42.8026 23.0338 42.9991C23.0789 43.1956 23.168 43.3795 23.2944 43.537L37.6955 61.4949C37.822 61.6524 37.9824 61.7796 38.165 61.867C38.3477 61.9545 38.5477 61.9999 38.7504 62H61.8484C62.2589 62 62.6472 61.8138 62.9032 61.4949L77.3044 43.537C77.4308 43.3795 77.5198 43.1956 77.565 42.9991C77.6101 42.8026 77.6101 42.5985 77.565 42.402L72.4253 20.0092C72.3802 19.8126 72.2911 19.6287 72.1646 19.4711C72.0381 19.3135 71.8776 19.1863 71.6948 19.0989L50.8849 9.13293C50.7022 9.04544 50.5021 9 50.2994 9C50.0967 9 49.8966 9.04544 49.7139 9.13293Z" fill="#0865AD"/>
<path d="M42.9208 27.7995H47.5052V36.7972H47.5965C48.052 36.0116 48.5376 35.2875 48.993 34.5627L53.6387 27.7995H59.3161L52.5456 36.4645L59.6804 48.1493H54.2765L49.2666 39.3632L47.5052 41.5067V48.1493H42.9208V27.7995Z" fill="white"/>
<path d="M75.5601 9.11677L67.3786 12.0778C67.2296 12.1319 67.1045 12.2364 67.0252 12.373L62.6721 19.8705C62.5927 20.0072 62.5644 20.1674 62.592 20.3229L64.1037 28.849C64.1311 29.0044 64.2127 29.1452 64.3343 29.2466L71.0041 34.8113C71.1255 34.9128 71.279 34.9685 71.4376 34.9685H80.144C80.3027 34.9685 80.4563 34.9128 80.5778 34.8113L87.2473 29.2466C87.3688 29.1452 87.4504 29.0044 87.4778 28.849L88.9899 20.3229C89.0172 20.1674 88.9887 20.0072 88.9094 19.8705L84.5567 12.373C84.4773 12.2363 84.352 12.1318 84.2029 12.0778L76.0215 9.11677C75.8725 9.06275 75.7091 9.06275 75.5601 9.11677Z" fill="#6695CA"/>
<path d="M74.2044 18.989C74.3645 18.8351 74.534 18.6913 74.7121 18.5585C74.8872 18.4285 75.0745 18.3157 75.2714 18.2216C75.4682 18.1277 75.6808 18.055 75.909 18.0026C76.1373 17.9504 76.385 17.9244 76.6526 17.9244C77.0935 17.9244 77.4846 18.0001 77.8256 18.1514C78.1669 18.3027 78.4543 18.5146 78.6879 18.7855C78.9216 19.0569 79.0972 19.3805 79.2153 19.7562C79.3335 20.1317 79.3927 20.5443 79.3927 20.993V26.1206H77.2273V20.993C77.2273 20.5443 77.1224 20.1957 76.913 19.9477C76.7027 19.7 76.3935 19.5761 75.9836 19.5761C75.6796 19.5761 75.3937 19.6413 75.1255 19.7718C74.8578 19.9024 74.6034 20.0847 74.3624 20.3198V26.1206H72.1891V18.0493H73.5274C73.8003 18.0493 73.9815 18.1746 74.0712 18.4254L74.2044 18.989Z" fill="white"/>
</svg>
